<svg xmlns="http://www.w3.org/2000/svg" viewBox="0 0 140 105" enable-background="new 0 0 140 105"><g fill-rule="evenodd" clip-rule="evenodd"><path d="M69.67 50.22c0-2.88.008-5.76-.008-8.64-.002-.36.12-.436.444-.43.87.016 1.74.02 2.608 0 .306-.008.39.08.39.386-.014 2.244 0 4.49-.014 6.733-.003.447.114.537.526.535 2.646-.01 5.293-.01 7.94 0 .415 0 .544-.055.54-.56-.014-2.232.002-4.464-.014-6.695-.002-.33.095-.41.413-.402.83.022 1.66.024 2.49 0 .34-.01.437.078.435.427-.016 2.724-.01 5.45-.01 8.173 0 3.036-.004 6.072.008 9.107 0 .318-.07.42-.402.41-.856-.024-1.713-.02-2.568 0-.293.007-.367-.075-.365-.366.013-2.194 0-4.387.014-6.58.002-.303-.074-.397-.384-.396-2.75.01-5.5.012-8.25 0-.325-.002-.375.118-.374.405.01 2.152-.01 4.306.015 6.46.005.412-.122.487-.496.474-.83-.028-1.66-.022-2.49-.002-.34.008-.464-.066-.46-.443.02-2.866.01-5.734.01-8.6zm-44.224 4.362c-.19 1.832-1.145 3.157-2.734 4.024-1.033.563-2.14.925-3.334.966-.252.13-.524.043-.785.067-.162.013-.33-.037-.48.063h-.31c-.33-.133-.676-.034-1.014-.064-.188-.018-.385.043-.558-.073-.89.016-1.707-.268-2.535-.557-.91-.316-1.656-.86-2.323-1.514-.59-.577-.982-1.31-1.346-2.047-.1-.2.075-.296.19-.356.802-.42 1.618-.813 2.417-1.238.234-.125.272.11.297.167.515 1.145 1.457 1.813 2.574 2.233.526.198 1.09.356 1.67.36.52.104 1.04.106 1.56 0 1.073-.138 2.106-.367 2.844-1.26.224-.27.386-.576.437-.93.104-.314.1-.627 0-.94-.154-.772-.698-1.23-1.35-1.535-.836-.392-1.74-.55-2.662-.672-.76-.103-1.528-.194-2.283-.387-.585-.15-1.165-.31-1.726-.52-1.327-.496-2.37-1.317-2.908-2.68-.154-.39-.255-.79-.306-1.206-.104-.468-.105-.936 0-1.405.208-1.227.755-2.224 1.768-3.006.83-.64 1.773-.975 2.724-1.325.215-.08.46-.073.68-.09.834-.075 1.657-.367 2.512-.155.222.055.463.038.695.053 1.676.11 3.19.667 4.454 1.772.478.417.882.942 1.176 1.527.122.242-.085.33-.218.404-.52.284-1.047.56-1.59.798-.25.11-.45.363-.737.335-.308-.03-.352-.387-.564-.555-.68-.54-1.41-.95-2.26-1.178-.91-.245-1.827-.21-2.727-.11-1.005.114-1.906.515-2.404 1.507-.057.11-.056.217-.086.324-.098.318-.106.635.004.95.183.654.69 1 1.263 1.223.73.283 1.5.427 2.285.514.907.1 1.812.257 2.702.458 1.358.306 2.66.79 3.685 1.767.587.558.995 1.274 1.138 2.1.045.264.193.505.162.782.104.468.1.937 0 1.405zm5.91-6.547c.248-.017.316-.252.464-.387.747-.685 1.597-1.14 2.6-1.348.433-.09.853-.134 1.287-.114.3.166.65-.04.95.136.792-.003 1.48.333 2.152.694 1.31.703 2.17 1.817 2.766 3.145.183.41.25.87.37 1.306.17.3-.034.655.136.956v.895c-.17.302.033.655-.135.956-.343 1.696-1.09 3.166-2.536 4.17-.746.517-1.576.908-2.52.995-.3.027-.596.124-.907.127-1.74.014-3.36-.285-4.634-1.784v.538c0 1.96-.01 3.918.007 5.877.002.314-.09.386-.39.38-.816-.02-1.634-.017-2.45-.002-.244.004-.305-.073-.305-.31.006-5.823.005-11.648.003-17.473 0-.182-.008-.32.253-.315.854.02 1.71.016 2.566.022.108.073.055.223.147.305l.024.15c.097.134.057.29.067.437.03.213-.08.45.085.647zm66.956 9.523c-.06.424-.407.653-.686.883-.748.62-1.63.98-2.593 1.134-.52.108-1.04.105-1.562.002-1.273-.1-2.413-.527-3.44-1.313-.87-.666-1.394-1.562-1.816-2.524-.2-.455-.243-.976-.357-1.467-.14-.196.01-.45-.13-.646v-1.52c.14-.196-.01-.45.13-.645.283-1.673 1-3.076 2.43-4.076.825-.575 1.696-.98 2.704-1.066.3-.17.654.032.955-.135l.308-.027c.157-.084.314-.086.47.002 1.402.093 2.597.606 3.51 1.707.046.055.066.102.076.164.23.134.213-.043.226-.18.03-.305-.065-.618.068-.914-.075-.37.06-.487.445-.47.736.034 1.475.02 2.213.006.24-.003.334.048.334.316-.01 4.054-.007 8.108-.004 12.162 0 .188-.004.314-.258.308-.854-.02-1.71-.015-2.563-.02-.105-.07-.053-.22-.145-.297l-.024-.152c-.094-.14-.054-.3-.064-.453v-.552c-.038-.113.1-.397-.225-.224zm-41.285-5.466c.01.128.02.257.028.385.088.287.104.573-.002.86l-.026.305c-.14.196.007.45-.13.647-.1.974-.51 1.82-1.06 2.617-.775 1.128-1.876 1.823-3.122 2.293-.306.116-.658.177-1 .23-.55.083-1.096.163-1.647.114-1.536-.138-2.94-.568-4.136-1.635-.84-.75-1.374-1.663-1.768-2.67-.113-.29-.24-.62-.22-.96-.086-.134-.054-.284-.06-.428-.02-.174.046-.36-.066-.52l-.027-.308c-.067-.105-.067-.21 0-.315l.03-.308c.11-.162.046-.346.064-.52.007-.144-.025-.295.063-.427.25-1.494.966-2.726 2.1-3.72.712-.625 1.535-1.03 2.45-1.274.773-.206 1.553-.34 2.346-.267 2.043.19 3.77.966 4.99 2.706.545.78.936 1.603 1.063 2.55.142.192-.008.446.132.64zm56.37 5.608c-.217-.05-.316.123-.443.236-.725.648-1.527 1.15-2.504 1.316-.238.175-.544-.02-.784.142-.465.043-.93.022-1.394-.003-.14-.12-.344-.005-.482-.133-.665-.043-1.21-.385-1.716-.76-.924-.683-1.54-1.597-1.88-2.7-.137-.45-.285-.89-.3-1.365-.116-.213-.045-.444-.064-.667-.012-.148.03-.305-.068-.44 0-2.164.005-4.328-.01-6.492-.003-.3.09-.367.37-.362.79.017 1.582.03 2.37-.004.37-.016.415.124.413.44-.013 1.958-.042 3.915.01 5.87.022.85.07 1.733.578 2.483.67.985 1.645 1.43 2.795 1.31 1.242-.134 2.185-.78 2.668-1.995.14-.352.277-.7.305-1.082.1-.154.066-.327.066-.492.003-2.005 0-4.01.003-6.017 0-.163-.046-.34.08-.485.917-.007 1.835-.007 2.754-.025.28-.006.233.17.233.334v3.38c0 2.862-.01 5.724.01 8.586.004.42-.124.513-.514.495-.723-.035-1.45-.02-2.174-.025-.11-.073-.056-.223-.147-.304l-.023-.15c-.098-.136-.058-.29-.068-.44-.03-.214.08-.45-.086-.65zm8.248-3.892c.22 1.173.885 1.997 1.97 2.48.512.227 1.05.37 1.622.303.248-.153.552.03.8-.132.664.017 1.172-.347 1.66-.722.203-.155.323-.137.483.02.563.555 1.132 1.102 1.693 1.66.092.09.215.18.035.353-.8.77-1.74 1.29-2.79 1.626-.095.03-.205.015-.31.02-.14.122-.343.012-.484.133-.153.01-.306.017-.46.025-.49.136-.99.036-1.483.057-.316-.136-.666-.126-1-.197-1.443-.31-2.643-1-3.582-2.132-.536-.646-.906-1.384-1.12-2.203-.06-.22-.16-.43-.14-.666-.15-.19.006-.444-.136-.636V51.94c.143-.192-.013-.447.137-.637.043-.734.36-1.375.68-2.013.49-.968 1.26-1.687 2.164-2.23.578-.35 1.22-.612 1.906-.743.336-.065.666-.158 1.012-.156.546-.11 1.092-.1 1.638 0 1.41.064 2.558.716 3.602 1.603.182.154.178.273.008.446-.514.522-1.034 1.043-1.507 1.602-.24.284-.385.244-.63.03-.486-.42-1.083-.61-1.706-.723-.312-.107-.625-.103-.938-.003-1.327.104-2.614 1.06-2.99 2.37-.16.555-.296 1.1-.266 1.678.137.197-.01.45.13.645zM61.403 43.07l.607-.02c.245-.162.55.02.795-.134.102-.01.203-.017.305-.026.32-.14.39.038.39.306.003.942 0 1.885.004 2.827 0 .15-.04.313.08.444 1.036.006 2.072.02 3.108.01.258-.002.325.075.32.326-.018.686-.017 1.374 0 2.06.004.238-.064.31-.304.307-.92-.013-1.84-.006-2.76-.005-.475 0-.516.04-.516.497 0 1.66.01 3.317-.008 4.976-.003.33.085.634.173.934.165.557.982 1.102 1.56.99.5-.095 1.022-.13 1.468-.385.277.8.54 1.582.82 2.356.15.412-.193.47-.404.518-.727.165-1.447.418-2.214.346-.214-.12-.447-.046-.67-.064-.15-.01-.306.024-.443-.068-1.277-.09-2.177-.757-2.78-1.853-.265-.483-.498-.986-.478-1.56-.164-.304.032-.656-.132-.96-.004-1.75-.022-3.5-.003-5.246.003-.403-.113-.513-.504-.486-.53.035-1.062.002-1.593.012-.198.003-.274-.058-.27-.265.01-.726.01-1.45-.002-2.177-.002-.226.1-.248.283-.246.57.008 1.142-.02 1.71.01.323.018.38-.1.373-.39-.018-.868.002-1.736-.012-2.605-.004-.24.06-.34.302-.292.248-.16.552.022.798-.135z" fill="#61308D"/><path d="M113.408 46.497c0 2.188.002 4.377-.005 6.566 0 .147.1.35-.14.43-.002-2.253-.003-4.505 0-6.758 0-.1-.058-.254.145-.238z" fill="#784E9E"/><path d="M63.584 46.466c-.26-.003-.143-.205-.144-.313-.01-.97-.016-1.938 0-2.906.005-.26-.054-.39-.328-.358.054-.21.22-.153.348-.13.156.03.123.178.123.29v3.415z" fill="#E5DDEC"/><path d="M125.94 46.158h-1.638c.016-.033.03-.095.05-.098.505-.067 1.01-.098 1.513.013.03.007.05.056.075.085z" fill="#E7DFEE"/><path d="M18.74 56.616c-.016.067-.046.133-.12.134-.44.004-.882.004-1.323 0-.074 0-.105-.066-.12-.133h1.562z" fill="#764C9D"/><path d="M16.233 59.568c.42-.002.843-.006 1.264-.004.12 0 .27-.044.307.142-.426-.002-.853-.002-1.28-.006-.113-.002-.238.01-.29-.132z" fill="#6A3C94"/><path d="M93.472 59.575c.52 0 1.04 0 1.562-.002-.015.065-.043.134-.114.135-.444.005-.89.005-1.333 0-.07 0-.1-.067-.115-.133z" fill="#E4DCEB"/><path d="M124.38 59.632c.49-.137.99-.028 1.484-.057-.017.035-.03.097-.05.1-.48.05-.96.132-1.434-.043z" fill="#DFD6E8"/><path d="M25.446 54.582c0-.47 0-.937-.002-1.406.106.02.143.088.143.19v1.025c.002.103-.034.174-.14.193z" fill="#E7DFED"/><path d="M10.785 45.08v1.405c-.108-.02-.145-.088-.144-.19.003-.342.003-.684 0-1.026 0-.104.04-.17.146-.19z" fill="#EBE5F1"/><path d="M98.603 46.936c.003.355.007.71.008 1.066 0 .096-.023.176-.14.186-.117.01-.163-.05-.16-.158.24-.01.123-.2.152-.315.068-.256-.105-.556.143-.78z" fill="#8964AB"/><path d="M18.112 59.704c.03-.16.157-.143.27-.142.332.002.664.006.996.01-.08.202-.258.12-.394.127-.29.013-.58.003-.872.003z" fill="#784E9E"/><path d="M103.762 53.325c.245.16.108.41.14.618.022.16-.004.327-.008.49-.255-.125-.113-.358-.137-.54-.026-.186 0-.38.005-.568z" fill="#B49DC9"/><path d="M63.714 59.26l.844-.01c.114 0 .24-.018.27.144-.28 0-.56.005-.84.002-.11 0-.238.02-.274-.136z" fill="#6B3D94"/><path d="M41.948 54.27c.04-.32-.118-.666.134-.955l.012.727c.002.108-.013.206-.146.23z" fill="#E2D8EA"/><path d="M22.02 53.486c.21.226.21.714-.002.94l.002-.94z" fill="#825BA5"/><path d="M60.323 54.89c.272.117.11.356.14.538.025.135-.003.28-.01.42-.258-.29-.093-.64-.13-.96z" fill="#794F9E"/><path d="M93.944 46.184c-.102.265-.33.113-.497.14-.148.024-.304-.002-.456-.006.288-.267.636-.093.955-.134z" fill="#754A9C"/><path d="M36.657 46.32c-.228.003-.455.007-.683.007-.113 0-.237.017-.266-.142.318.033.664-.13.95.136z" fill="#72469A"/><path d="M14.212 46.334c-.213-.236-.216-.72-.005-.95l.005.95z" fill="#A589BF"/><path d="M42.083 52.42c-.25-.29-.098-.636-.136-.955.27.1.116.33.144.498.026.148-.002.305-.006.458z" fill="#EBE5F1"/><path d="M124.77 49.117c.223-.207.717-.206.938.002l-.938-.004z" fill="#73489B"/><path d="M57.053 53.336l.002-.86c.205.28.205.636-.002.86z" fill="#E6DEED"/><path d="M126.036 56.457c-.23.266-.53.1-.8.134.225-.294.534-.084.8-.132z" fill="#ECE6F1"/><path d="M109.666 59.395c.216-.3.525-.084.784-.142-.222.26-.52.114-.784.142z" fill="#74499C"/><path d="M61.403 43.07c-.223.293-.53.097-.797.134.232-.248.53-.104.797-.134z" fill="#8059A3"/><path d="M62.806 42.915c-.223.29-.528.1-.795.134.234-.24.527-.116.797-.136z" fill="#8661A8"/><path d="M31.357 48.035c-.326-.14-.113-.416-.157-.627.055-.035.104-.04.135.03l.022.597z" fill="#8A67AC"/><path d="M118.537 51.3c-.026.217.138.475-.136.638.02-.218-.106-.467.138-.637z" fill="#8F6DAF"/><path d="M113.396 57.7c.327.14.113.415.157.626-.055.035-.104.04-.135-.03l-.022-.597z" fill="#8864AA"/><path d="M98.605 57.704c0 .207-.003.413-.004.62-.05.04-.095.04-.134-.017 0-.205 0-.41-.002-.616.052-.04.1-.04.142.015z" fill="#B097C6"/><path d="M57.027 52.092c-.278-.167-.102-.426-.132-.643.26.17.105.423.132.64z" fill="#815BA5"/><path d="M87.857 51.46c-.02.22.104.47-.13.646.018-.22-.146-.477.13-.645z" fill="#D5C8E1"/><path d="M121.645 53.808c-.278-.168-.11-.424-.13-.644.248.174.104.426.13.644z" fill="#9E80B9"/><path d="M56.897 54.29c.028-.22-.15-.48.13-.648-.028.22.128.475-.13.647z" fill="#7E57A2"/><path d="M87.727 53.627c.236.176.11.425.13.646-.276-.17-.11-.426-.13-.646z" fill="#D6C9E1"/><path d="M118.4 53.796c.275.163.11.42.137.637-.244-.17-.117-.42-.136-.637z" fill="#8F6DAF"/><path d="M43.82 53.33c.258.102.102.317.133.482-.05.036-.096.035-.135-.018v-.463z" fill="#7D54A2"/><path d="M126.324 59.55c.105-.252.316-.116.485-.134-.11.233-.316.122-.487.133z" fill="#8A66AB"/><path d="M107.79 59.258c.166.025.38-.117.482.135-.17-.013-.377.108-.482-.135z" fill="#8D6BAE"/><path d="M43.947 51.456l.006.466c-.038.057-.084.057-.135.02.02-.17-.127-.38.13-.486z" fill="#B7A0CB"/><path d="M113.418 58.295l.135.03c0 .154-.003.308-.004.46-.263-.104-.11-.32-.133-.49z" fill="#E5DDEC"/><path d="M98.465 58.306c.045.006.09.01.136.017v.463c-.26-.1-.1-.316-.134-.48z" fill="#E5DCEC"/><path d="M98.605 57.704l-.142-.014c-.013-.086-.043-.154-.15-.132-.008-.13.062-.193.18-.163.174.044.11.192.112.31z" fill="#7D55A1"/><path d="M31.336 47.44l-.135-.032.006-.46c.262.106.108.322.13.49z" fill="#E6DEED"/><path d="M94.722 46.16l-.47-.003c.157-.218.315-.216.47.002z" fill="#ECE7F2"/><path d="M43.818 53.794l.135.018-.007.468c-.255-.107-.107-.32-.128-.486z" fill="#B39CC9"/><path d="M43.817 51.94c.045-.006.09-.012.135-.02-.03.166.124.38-.134.482v-.462z" fill="#7E56A2"/><path d="M31.182 46.798c-.19-.034-.132-.187-.147-.305.257.002.133.186.147.305z" fill="#8058A4"/><path d="M98.624 58.938c.19.03.132.182.146.298-.263.007-.126-.184-.146-.298z" fill="#6E4197"/><path d="M113.573 58.937c.19.034.13.187.146.304-.26 0-.134-.184-.148-.302z" fill="#8058A4"/><path d="M43.792 52.71v.315c-.205-.105-.205-.21 0-.315z" fill="#EBE5F1"/><path d="M31.67 53.33l-.023-.305c-.07-.105-.07-.21 0-.316.048-1.06.42-1.968 1.246-2.667.546-.462 1.18-.694 1.88-.77.313-.103.625-.1.938-.002 1.61.12 2.788 1.237 3.124 2.815.147.49.032.993.063 1.49-.26.656-.477 1.334-1.004 1.847-.61.594-1.33.953-2.18 1.037-.313.1-.626.1-.938-.003-1.29-.184-2.225-.863-2.798-2.033-.094-.192-.2-.384-.17-.612-.122-.14-.01-.344-.135-.483z" fill="#FEFEFE"/><path d="M38.896 53.576c-.14-.49-.023-.994-.063-1.49.04.028.117.052.12.08.022.472.11.947-.057 1.41z" fill="#79509F"/><path d="M34.773 56.46c.313 0 .625 0 .938.002-.22.207-.714.206-.936-.002z" fill="#754A9C"/><path d="M35.71 49.273c-.312 0-.624 0-.937.002.222-.21.716-.21.938-.002z" fill="#764C9D"/><path d="M31.67 53.33c.25.104.116.316.137.484-.245-.105-.12-.314-.136-.484z" fill="#CFC1DD"/><path d="M31.647 52.71v.315c-.204-.105-.205-.21 0-.316z" fill="#74499B"/><path d="M94.567 48.987h.306c.242.16.547-.032.786.14.425.057.814.22 1.155.474.83.62 1.4 1.407 1.498 2.475.133.355.036.725.066 1.086-.01.17.032.344-.068.5-.107 1.417-1.464 2.84-2.8 2.956-.53.11-1.057.103-1.586.004-1.108-.156-1.917-.73-2.49-1.694-.255-.43-.318-.918-.525-1.357.025-.496-.08-.996.06-1.485.22-1.318.926-2.26 2.157-2.8.208-.09.412-.2.652-.16.24-.17.543.02.786-.14z" fill="#FEFEFE"/><path d="M93.926 56.62l1.585-.005c-.023.108-.102.133-.2.134-.394 0-.79 0-1.185.003-.097 0-.18-.02-.198-.135z" fill="#C2AFD4"/><path d="M90.97 52.086c-.03.494.076.993-.06 1.483-.108-.5-.215-1 .06-1.485z" fill="#7A51A0"/><path d="M98.31 53.18c0-.37.003-.738.004-1.106.258.122.113.356.138.537.026.187-.003.38-.008.57-.044.045-.09.045-.134 0z" fill="#CCBCDB"/><path d="M94.567 48.987c-.22.296-.527.087-.788.14.22-.27.52-.106.786-.14z" fill="#E6DEED"/><path d="M95.66 49.128c-.263-.05-.57.153-.787-.14.266.023.56-.116.786.14z" fill="#DDD2E7"/><path d="M98.31 53.18c.045 0 .09 0 .135-.002-.03.164.112.375-.132.48l-.003-.48z" fill="#CABAD9"/><path d="M53.783 53.66c-.042 1.293-1.307 2.646-2.343 2.792-.134.133-.34.016-.478.138-.102.01-.203.017-.304.026-.156.09-.313.09-.47 0-.1-.01-.202-.017-.303-.026-.138-.122-.344-.005-.478-.138-.952-.204-1.566-.835-2.006-1.65-.186-.346-.38-.714-.335-1.14-.132-.357-.035-.726-.065-1.09.01-.167-.033-.342.065-.5.065-1.38 1.45-2.902 2.967-2.954.21-.1.42-.094.63-.005 1.398.03 2.598 1.137 2.983 2.378.06.197.137.38.135.587.114.53.106 1.057.003 1.585z" fill="#FEFEFE"/><path d="M53.783 53.66c0-.527-.003-1.055-.004-1.583.105.023.134.1.134.198 0 .396 0 .792.003 1.188 0 .098-.023.18-.135.198zm-6.715-1.105l-.005 1.106c-.234-.094-.122-.302-.136-.46-.02-.212.002-.43.006-.643.045-.047.09-.046.135 0z" fill="#CDBDDB"/><path d="M50.66 49.114l-.63.005c.21-.227.42-.236.63-.007z" fill="#845FA7"/><path d="M50.188 56.615h.47c-.157.222-.313.222-.47 0z" fill="#6F4398"/><path d="M50.962 56.59c.1-.248.313-.11.478-.138-.105.235-.307.133-.478.138zm-1.556-.138c.165.027.377-.11.478.138-.17-.004-.373.096-.478-.138z" fill="#CCBCDA"/><path d="M47.068 52.555h-.135c.03-.164-.112-.375.13-.482l.005.482z" fill="#CCBCDB"/></g></svg>