<?xml version="1.0" encoding="utf-8"?>
<!-- Generator: Adobe Illustrator 18.1.1, SVG Export Plug-In . SVG Version: 6.00 Build 0)  -->
<svg version="1.1" id="Layer_1" xmlns="http://www.w3.org/2000/svg" xmlns:xlink="http://www.w3.org/1999/xlink" x="0px" y="0px"
	 viewBox="0 0 140 105" enable-background="new 0 0 140 105" xml:space="preserve">
<g id="XMLID_69_">
	<path id="XMLID_222_" fill="#FF351A" d="M72.5,49.8c-2,0-2.3,1.7-2.3,3.7c0,2,0.3,3.7,2.3,3.7c2,0,2.3-1.7,2.3-3.7
		C74.8,51.5,74.6,49.8,72.5,49.8z"/>
	<path id="XMLID_221_" fill="#FF351A" d="M50.5,49.8c-2,0-2.3,1.7-2.3,3.7c0,2,0.3,3.7,2.3,3.7c2,0,2.3-1.7,2.3-3.7
		C52.8,51.5,52.5,49.8,50.5,49.8z"/>
	<path id="XMLID_210_" fill="#FF351A" d="M120,31.5H20c-4.4,0-7.9,3.5-7.9,7.9v21c0,3.7,2.5,6.8,5.9,7.6c0.1,0,0.4,0.1,0.4,0.1
		c16.6,3.5,33.9,5.4,51.5,5.4s34.9-1.9,51.5-5.4c0,0,0.3-0.1,0.4-0.1c3.4-0.9,5.9-4,5.9-7.6v-21C127.9,35,124.3,31.5,120,31.5z
		 M33.2,59c-0.2,0.1-0.4,0.2-0.6,0.2c-0.6,0-0.9-0.4-1.2-1l-3.3-5.7h-3v5.1c0,0.6,0,0.8-0.2,1.1c-0.2,0.3-0.5,0.5-1,0.5
		c-0.5,0-0.8-0.2-1-0.5c-0.2-0.3-0.2-0.5-0.2-1.1V44.8c0-0.4,0-0.8,0.3-1.1c0.3-0.3,0.8-0.3,1.1-0.3h4.6c3,0,4.9,1.9,4.9,4.6
		c0,2.2-1.4,3.7-3.1,4.2l2.8,4.9c0.3,0.5,0.4,0.7,0.4,1C33.8,58.4,33.6,58.8,33.2,59z M44,53.9c-0.3,0.3-0.7,0.3-1,0.3h-6
		c0,1.9,1,3.2,2.9,3.2c0.8,0,1.5-0.2,2.2-0.7c0.3-0.3,0.6-0.4,0.9-0.4c0.5,0,0.9,0.4,0.9,1c0,0.5-0.6,1-1.1,1.4
		c-0.7,0.5-1.7,0.7-2.9,0.7c-2.8,0-5-1.5-5-5.7c0-3.7,1.9-5.7,4.7-5.7c2.9,0,4.7,2.1,4.7,5.1C44.3,53.2,44.3,53.6,44,53.9z
		 M55.1,57.7c0,0.6,0,0.8-0.2,1.1c-0.2,0.3-0.6,0.5-0.9,0.5c-0.4,0-0.7-0.1-0.9-0.4c-0.1-0.2-0.2-0.3-0.2-0.8
		c-0.8,1-1.8,1.3-2.9,1.3c-1.1,0-2.1-0.4-2.7-1c-1.1-1.1-1.2-2.9-1.2-4.7c0-1.8,0.2-3.6,1.2-4.7c0.6-0.6,1.6-1,2.7-1
		c1.2,0,2.1,0.3,2.9,1.3v-4.2c0-0.5,0-0.7,0.2-1c0.2-0.3,0.5-0.5,1-0.5s0.8,0.2,1,0.5c0.1,0.3,0.2,0.5,0.2,1V57.7z M61.4,59.2
		c-1.7,0-2.9-0.3-3.9-1c-0.4-0.2-0.6-0.6-0.6-0.9c0-0.3,0.1-0.6,0.4-0.8c0.2-0.2,0.4-0.2,0.6-0.2c0.2,0,0.5,0.1,0.8,0.3
		c0.8,0.5,1.6,0.8,2.7,0.8c1.4,0,2.5-0.5,2.5-1.6c0-0.8-0.4-1.2-1.5-1.3l-1.8-0.2c-2.1-0.2-3.3-1.1-3.3-3.1c0-2.2,1.9-3.4,4.2-3.4
		c1.2,0,2.1,0.2,3,0.6c0.4,0.2,0.6,0.3,0.7,0.5c0.2,0.2,0.2,0.4,0.2,0.6c0,0.2-0.1,0.5-0.3,0.7c-0.2,0.2-0.4,0.3-0.7,0.3
		c-0.2,0-0.4-0.1-0.7-0.2c-0.7-0.3-1.5-0.6-2.3-0.6c-1.3,0-2,0.6-2,1.5c0,0.8,0.5,1.2,1.5,1.3l1.8,0.2c2.1,0.2,3.3,1.2,3.3,3.2
		C66.1,58,64.1,59.2,61.4,59.2z M75.9,58.2c-0.6,0.6-1.6,1-2.7,1c-1.2,0-2.1-0.3-2.9-1.3v4.2c0,0.5,0,0.7-0.2,1
		c-0.2,0.3-0.5,0.5-1,0.5c-0.5,0-0.8-0.2-1-0.5c-0.1-0.3-0.2-0.5-0.2-1V49.4c0-0.6,0-0.8,0.2-1.1c0.2-0.3,0.6-0.5,0.9-0.5
		c0.4,0,0.7,0.1,0.9,0.4c0.1,0.2,0.2,0.3,0.2,0.8c0.8-1,1.7-1.3,2.9-1.3c1.1,0,2.1,0.4,2.7,1c1.1,1.1,1.2,2.9,1.2,4.7
		C77.1,55.3,76.9,57.1,75.9,58.2z M85.9,50.4c-0.2,0-0.5-0.1-0.9-0.3c-0.4-0.2-0.8-0.3-1.2-0.3c-1.3,0-2.3,0.9-2.3,2.5v5.3
		c0,0.5,0,0.7-0.2,1c-0.2,0.3-0.5,0.5-1,0.5c-0.5,0-0.8-0.2-1-0.5c-0.1-0.3-0.2-0.5-0.2-1v-8.3c0-0.6,0-0.8,0.2-1.1
		c0.2-0.3,0.6-0.5,0.9-0.5c0.4,0,0.7,0.1,0.9,0.4c0.1,0.2,0.2,0.3,0.2,0.8c0.6-0.8,1.7-1.3,2.8-1.3c0.8,0,1.4,0.2,2,0.5
		c0.4,0.3,0.7,0.6,0.7,1c0,0.3-0.1,0.6-0.3,0.8C86.5,50.3,86.2,50.4,85.9,50.4z M96.2,53.9c-0.3,0.3-0.7,0.3-1,0.3h-6
		c0,1.9,1,3.2,2.9,3.2c0.8,0,1.5-0.2,2.2-0.7c0.3-0.3,0.6-0.4,0.9-0.4c0.5,0,0.9,0.4,0.9,1c0,0.5-0.6,1-1.1,1.4
		c-0.7,0.5-1.7,0.7-2.9,0.7c-2.8,0-5-1.5-5-5.7c0-3.7,1.9-5.7,4.7-5.7c2.9,0,4.7,2.1,4.7,5.1C96.5,53.2,96.5,53.6,96.2,53.9z
		 M106.8,57.7c0,0.6,0,0.8-0.2,1c-0.2,0.3-0.5,0.5-1,0.5c-0.4,0-0.6-0.1-0.8-0.3c-0.1-0.2-0.2-0.3-0.3-0.8c-0.9,0.9-1.6,1.2-3,1.2
		c-1.4,0-2.3-0.3-3-1c-0.6-0.6-0.9-1.4-0.9-2.4c0-1.9,1.3-3.2,3.9-3.2h3v-0.7c0-1.5-0.7-2.2-2.3-2.2c-0.9,0-1.5,0.3-2.1,0.8
		c-0.3,0.2-0.6,0.3-0.8,0.3c-0.2,0-0.5-0.1-0.7-0.3c-0.2-0.2-0.3-0.4-0.3-0.7c0-0.5,0.5-1,1-1.3c0.8-0.5,1.7-0.7,2.8-0.7
		c3,0,4.6,1.3,4.6,3.9V57.7z M118.1,57.7c0,0.6,0,0.8-0.2,1.1c-0.2,0.3-0.6,0.5-0.9,0.5c-0.4,0-0.7-0.1-0.9-0.4
		c-0.1-0.2-0.2-0.3-0.2-0.8c-0.8,1-1.8,1.3-2.9,1.3c-1.1,0-2.1-0.4-2.7-1c-1.1-1.1-1.2-2.9-1.2-4.7c0-1.8,0.2-3.6,1.2-4.7
		c0.6-0.6,1.6-1,2.7-1c1.2,0,2.1,0.3,2.9,1.3v-4.2c0-0.5,0-0.7,0.2-1c0.2-0.3,0.5-0.5,1-0.5c0.5,0,0.8,0.2,1,0.5
		c0.1,0.3,0.2,0.5,0.2,1V57.7z"/>
	<path id="XMLID_209_" fill="#FF351A" d="M31.3,48c0-1.6-1.1-2.5-2.7-2.5h-3.5v4.9h3.5C30.2,50.5,31.3,49.5,31.3,48z"/>
	<path id="XMLID_73_" fill="#FF351A" d="M91.8,49.7c-1.1,0-1.9,0.6-2.2,1.4c-0.2,0.5-0.3,0.8-0.3,1.5h5c0-0.7-0.1-1-0.3-1.5
		C93.6,50.2,92.8,49.7,91.8,49.7z"/>
	<path id="XMLID_72_" fill="#FF351A" d="M39.6,49.7c-1.1,0-1.9,0.6-2.2,1.4c-0.2,0.5-0.3,0.8-0.3,1.5h5c0-0.7-0.1-1-0.3-1.5
		C41.4,50.2,40.7,49.7,39.6,49.7z"/>
	<path id="XMLID_71_" fill="#FF351A" d="M99.9,55.8c0,1,0.7,1.6,2.1,1.6c0.8,0,1.5-0.1,2-0.6c0.4-0.3,0.5-0.8,0.5-1.7v-0.9h-2.7
		C100.6,54.2,99.9,54.7,99.9,55.8z"/>
	<path id="XMLID_70_" fill="#FF351A" d="M113.5,49.8c-2,0-2.3,1.7-2.3,3.7c0,2,0.3,3.7,2.3,3.7c2,0,2.3-1.7,2.3-3.7
		C115.8,51.5,115.5,49.8,113.5,49.8z"/>
</g>
<g>
</g>
<g>
</g>
<g>
</g>
<g>
</g>
<g>
</g>
<g>
</g>
<g>
</g>
<g>
</g>
<g>
</g>
<g>
</g>
<g>
</g>
<g>
</g>
<g>
</g>
<g>
</g>
<g>
</g>
</svg>
