<?xml version="1.0" encoding="iso-8859-1"?>
<!-- Generator: Adobe Illustrator 18.1.1, SVG Export Plug-In . SVG Version: 6.00 Build 0)  -->
<!DOCTYPE svg PUBLIC "-//W3C//DTD SVG 1.1//EN" "http://www.w3.org/Graphics/SVG/1.1/DTD/svg11.dtd">
<svg version="1.1" xmlns="http://www.w3.org/2000/svg" xmlns:xlink="http://www.w3.org/1999/xlink" x="0px" y="0px"
	 viewBox="0 0 140 105" style="enable-background:new 0 0 140 105;" xml:space="preserve">
<g id="mooki">
	<g>
		<path style="fill:#37BF8D;" d="M25.212,70.851c-0.239-0.222-0.414-0.375-0.578-0.539c-3.426-3.424-6.866-6.834-10.27-10.279
			c-2.571-2.602-3.999-5.755-4.304-9.402c-0.344-4.108,0.809-7.771,3.404-10.955c2.327-2.856,5.341-4.64,8.968-5.262
			c5.393-0.925,10.062,0.58,13.87,4.517c2.442,2.525,3.764,5.601,4.066,9.11c0.326,3.795-0.653,7.227-2.868,10.308
			c-0.459,0.638-0.985,1.237-1.539,1.795c-3.383,3.406-6.783,6.796-10.179,10.189C25.617,70.494,25.441,70.642,25.212,70.851z
			 M23.224,49.138c1.342,1.046,2.683,1.026,4.018-0.018c0.242,0.227,0.462,0.396,0.638,0.603c0.562,0.66,0.822,1.433,0.821,2.299
			c-0.002,1.771-0.003,3.542,0.005,5.312c0.001,0.212-0.083,0.46,0.143,0.66c0.266-0.208,0.203-0.479,0.204-0.721
			c0.005-1.643-0.003-3.286,0.006-4.928c0.004-0.71-0.027-1.409-0.351-2.061c-0.096-0.193-0.117-0.399,0.099-0.496
			c0.128-0.057,0.308-0.008,0.462,0.011c0.057,0.007,0.107,0.066,0.162,0.099c0.846,0.512,1.692,0.511,2.54,0.003
			c0.143-0.086,0.295-0.155,0.478-0.25c0.185,0.17,0.37,0.311,0.52,0.484c0.499,0.574,0.699,1.256,0.703,2.008
			c0.002,0.385-0.028,0.774,0.046,1.28c1.876-3.582,1.244-8.729-2.724-11.775c-3.779-2.901-9.11-2.508-12.506,0.867
			c-3.347,3.326-3.24,8.325-1.725,10.776c-0.057-1.454-0.031-2.774,1.227-3.616c0.113,0.039,0.181,0.048,0.231,0.082
			c0.964,0.66,1.936,0.72,2.92,0.047c0.177-0.121,0.345-0.16,0.521-0.003c0.182,0.163,0.127,0.339,0.04,0.523
			c-0.282,0.593-0.337,1.226-0.334,1.872c0.007,1.664,0.002,3.328,0.003,4.992c0,0.17-0.009,0.345,0.025,0.51
			c0.021,0.099,0.117,0.182,0.26,0.39c0.036-0.301,0.07-0.458,0.072-0.617c0.007-0.533,0.003-1.067,0.003-1.6
			c0-1.323-0.022-2.646,0.008-3.968C21.763,50.756,22.217,49.812,23.224,49.138z M26.316,55.456
			c-0.258-1.124-0.507-2.221-0.761-3.316c-0.045-0.196-0.137-0.406-0.368-0.348c-0.126,0.032-0.274,0.208-0.307,0.345
			c-0.268,1.092-0.511,2.19-0.77,3.323c0.369,0.334,0.723,0.654,1.11,1.005C25.618,56.099,25.957,55.786,26.316,55.456z
			 M24.578,50.837c0.126,0.297,0.254,0.591,0.645,0.577c0.373-0.013,0.524-0.273,0.624-0.652c-0.409,0-0.765-0.002-1.122,0.002
			C24.688,50.765,24.652,50.799,24.578,50.837z"/>
		<path style="fill:#37BF8D;" d="M101.725,51.573c0.085-0.299,0.136-0.498,0.197-0.694c0.752-2.407,2.701-3.99,5.213-4.142
			c0.756-0.046,1.545,0.013,2.282,0.183c2.355,0.542,3.675,2.128,4.164,4.432c0.301,1.415,0.262,2.843-0.113,4.247
			c-0.669,2.505-2.785,4.157-5.383,4.232c-0.881,0.026-1.751-0.038-2.59-0.316c-1.874-0.62-2.995-1.959-3.577-3.8
			c-0.057-0.181-0.105-0.366-0.249-0.57c-0.07,0.226-0.135,0.453-0.21,0.677c-0.638,1.911-1.859,3.24-3.839,3.773
			c-1.436,0.387-2.876,0.338-4.281-0.157c-1.192-0.42-2.131-1.196-2.727-2.303c-1.24-2.303-1.35-4.7-0.279-7.081
			c0.941-2.093,2.665-3.174,4.933-3.326c1.662-0.112,3.233,0.209,4.544,1.338c0.868,0.747,1.398,1.707,1.721,2.792
			C101.592,51.059,101.642,51.264,101.725,51.573z M98.687,53.298c-0.088-1.278-0.239-2.04-0.616-2.751
			c-0.306-0.577-0.757-1.01-1.389-1.146c-1.578-0.34-2.766,0.014-3.404,1.591c-0.642,1.586-0.575,3.222,0.042,4.809
			c0.403,1.037,1.384,1.586,2.717,1.463c1.19-0.11,1.895-0.847,2.244-1.911C98.497,54.695,98.557,53.985,98.687,53.298z
			 M110.601,53.31c-0.02-0.005-0.04-0.01-0.06-0.015c-0.03-0.468-0.041-0.938-0.097-1.403c-0.036-0.294-0.119-0.586-0.216-0.867
			c-0.266-0.763-0.73-1.387-1.534-1.596c-1.644-0.427-2.868,0.04-3.495,1.607c-0.203,0.507-0.304,1.067-0.367,1.613
			c-0.12,1.029-0.007,2.048,0.372,3.019c0.323,0.827,0.905,1.366,1.808,1.548c1.685,0.34,2.845-0.594,3.23-1.905
			C110.431,54.665,110.485,53.979,110.601,53.31z"/>
		<path style="fill:#37BF8D;" d="M90.468,59.539c-1.024,0-1.973,0-3.011,0c-0.359-1.42-0.585-2.867-0.867-4.301
			c-0.282-1.437-0.561-2.876-0.947-4.331c-0.085,0.208-0.177,0.414-0.254,0.625c-0.899,2.466-1.796,4.933-2.694,7.399
			c-0.036,0.1-0.075,0.2-0.115,0.299c-0.223,0.557-0.747,0.809-1.265,0.544c-0.178-0.091-0.311-0.341-0.389-0.546
			c-0.409-1.077-0.791-2.165-1.186-3.247c-0.614-1.682-1.231-3.364-1.898-5.186c-0.091,0.287-0.158,0.447-0.191,0.614
			c-0.483,2.406-0.959,4.813-1.442,7.218c-0.062,0.307-0.159,0.607-0.245,0.93c-1.013,0.033-1.962,0.075-2.987-0.032
			c0.043-0.348,0.061-0.639,0.118-0.922c0.823-4.1,1.651-8.199,2.478-12.298c0.228-1.129,0.452-2.26,0.689-3.387
			c0.11-0.524,0.151-0.56,0.677-0.564c1.4-0.011,1.147-0.066,1.508,1.046c1.014,3.126,2.019,6.255,3.029,9.382
			c0.071,0.219,0.154,0.434,0.272,0.763c0.11-0.302,0.189-0.492,0.25-0.688c1.008-3.217,2.014-6.435,3.021-9.653
			c0.038-0.122,0.085-0.242,0.119-0.365c0.09-0.331,0.286-0.509,0.646-0.489c0.234,0.013,0.47-0.006,0.704,0.003
			c0.486,0.018,0.543,0.049,0.648,0.527c0.207,0.938,0.393,1.88,0.584,2.82c0.881,4.328,1.763,8.655,2.64,12.984
			C90.413,58.947,90.428,59.217,90.468,59.539z"/>
		<path style="fill:#37BF8D;" d="M58.289,50.778c-0.408,1.111-0.768,2.084-1.124,3.059c-0.651,1.783-1.298,3.568-1.951,5.35
			c-0.226,0.617-0.622,0.826-1.231,0.604c-0.165-0.06-0.317-0.274-0.387-0.453c-0.349-0.894-0.67-1.799-1-2.7
			c-0.629-1.723-1.257-3.447-1.888-5.169c-0.062-0.169-0.146-0.329-0.33-0.479c-0.09,0.408-0.187,0.815-0.269,1.224
			c-0.439,2.195-0.874,4.392-1.313,6.587c-0.033,0.167-0.056,0.346-0.135,0.491c-0.063,0.115-0.203,0.262-0.311,0.265
			c-0.889,0.021-1.778,0.012-2.762,0.012c0.051-0.394,0.073-0.703,0.133-1.005c0.406-2.028,0.823-4.054,1.232-6.082
			c0.632-3.136,1.26-6.272,1.893-9.408c0.143-0.71,0.158-0.722,0.875-0.723c1.092-0.001,0.992-0.07,1.324,0.961
			c1,3.106,1.995,6.214,2.992,9.321c0.084,0.261,0.17,0.522,0.368,0.804c0.071-0.205,0.148-0.408,0.213-0.615
			c0.992-3.153,1.983-6.307,2.974-9.461c0.058-0.183,0.129-0.362,0.177-0.548c0.09-0.346,0.31-0.469,0.659-0.466
			c1.355,0.011,1.202-0.104,1.453,1.123c1.037,5.077,2.073,10.155,3.106,15.233c0.05,0.246,0.07,0.499,0.113,0.81
			c-0.237,0.028-0.42,0.067-0.604,0.069c-0.597,0.008-1.195,0.008-1.792,0.002c-0.63-0.007-0.679-0.049-0.797-0.662
			c-0.265-1.382-0.527-2.765-0.791-4.147c-0.216-1.131-0.431-2.262-0.652-3.393C58.435,51.226,58.377,51.074,58.289,50.778z"/>
		<path style="fill:#37BF8D;" d="M117.395,41.654c0.098,1.127,0.036,2.208,0.047,3.285c0.011,1.067,0.002,2.134,0.002,3.201
			c0,1.078,0,2.155,0,3.233c0.043,0.014,0.086,0.028,0.129,0.042c0.529-0.604,1.061-1.206,1.587-1.812
			c0.643-0.741,1.291-1.478,1.92-2.231c0.255-0.305,0.55-0.423,0.946-0.421c2.326,0.012,4.651,0.003,6.977,0.008
			c0.711,0.001,0.75,0.042,0.75,0.774c0.003,3.691,0.003,7.383-0.001,11.074c0,0.227-0.041,0.454-0.068,0.728
			c-1.003,0-1.951,0-2.98,0c-0.027-0.304-0.075-0.591-0.076-0.878c-0.006-2.774-0.003-5.548-0.005-8.322
			c0-0.25-0.022-0.5-0.037-0.807c-0.509-0.034-0.968-0.065-1.433-0.096c-0.34-0.65-0.01-1.364-0.274-2.105
			c-1.35,1.515-2.645,2.969-3.972,4.457c0.586,0.888,1.138,1.722,1.687,2.557c0.562,0.856,1.126,1.711,1.679,2.573
			c0.535,0.834,1.133,1.631,1.613,2.518c-0.135,0.074-0.188,0.128-0.241,0.128c-0.981,0.012-1.962,0.012-2.943,0.026
			c-0.365,0.005-0.517-0.251-0.68-0.502c-0.639-0.984-1.273-1.972-1.913-2.955c-0.439-0.675-0.886-1.345-1.392-2.112
			c-0.429,0.471-0.818,0.857-1.15,1.286c-0.114,0.147-0.117,0.403-0.119,0.61c-0.012,0.981,0,1.963-0.009,2.945
			c-0.006,0.68-0.053,0.724-0.733,0.728c-0.661,0.004-1.323-0.003-1.984-0.011c-0.082-0.001-0.164-0.038-0.313-0.075
			c-0.026-0.211-0.078-0.436-0.078-0.661c-0.005-5.27-0.005-10.541-0.002-15.811c0-0.676,0.023-0.697,0.677-0.864
			c0.578-0.148,1.158-0.293,1.739-0.428C116.929,41.693,117.119,41.687,117.395,41.654z"/>
		<path style="fill:#37BF8D;" d="M61.632,47.032c0.226-0.033,0.369-0.071,0.513-0.073c0.682-0.007,1.366,0.014,2.047-0.009
			c0.405-0.014,0.621,0.154,0.763,0.524c0.505,1.314,1.031,2.619,1.548,3.928c0.439,1.11,0.877,2.221,1.319,3.33
			c0.059,0.149,0.143,0.288,0.27,0.539c0.119-0.296,0.201-0.483,0.27-0.675c0.824-2.31,1.642-4.621,2.47-6.929
			c0.255-0.71,0.267-0.707,1.002-0.711c0.555-0.003,1.109-0.004,1.664,0.001c0.207,0.002,0.415,0.024,0.711,0.042
			c-0.078,0.286-0.12,0.508-0.199,0.717c-1.713,4.55-3.432,9.097-5.145,13.647c-0.303,0.805-0.8,1.448-1.517,1.926
			c-1.13,0.755-2.367,1.157-3.729,1.164c-0.146,0.001-0.292-0.025-0.502-0.045c-0.039-0.208-0.101-0.407-0.108-0.609
			c-0.016-0.447-0.014-0.896-0.004-1.343c0.014-0.647,0.079-0.692,0.751-0.75c0.465-0.04,0.939-0.075,1.387-0.196
			c1.044-0.282,1.433-0.904,1.191-1.97c-0.188-0.828-0.42-1.656-0.73-2.446c-1.219-3.095-2.478-6.174-3.717-9.261
			C61.789,47.588,61.725,47.327,61.632,47.032z"/>
		<path style="fill:#37BF8D;" d="M128.241,45.627c-0.988,0.009-1.767-0.73-1.786-1.697c-0.02-0.997,0.755-1.803,1.75-1.821
			c0.962-0.017,1.795,0.813,1.795,1.788C130,44.862,129.232,45.618,128.241,45.627z"/>
		<path style="fill:#37BF8D;" d="M25.223,49.466c-1.608,0.004-2.724-1.468-2.302-3.022c0.094-0.346,0.17-0.7,0.211-1.056
			c0.031-0.268,0.163-0.442,0.381-0.548c1.125-0.548,2.257-0.568,3.385-0.01c0.216,0.107,0.359,0.27,0.393,0.54
			c0.047,0.376,0.13,0.75,0.225,1.118C27.911,48.013,26.799,49.462,25.223,49.466z"/>
		<path style="fill:#37BF8D;" d="M19.701,45.928c1.136-0.006,2.044,0.877,2.053,1.997c0.009,1.065-0.906,2.002-1.977,2.026
			c-1.125,0.026-2.092-0.925-2.086-2.05C17.696,46.824,18.603,45.934,19.701,45.928z"/>
		<path style="fill:#37BF8D;" d="M32.739,47.924c-0.016,1.113-0.956,2.036-2.064,2.027c-1.062-0.008-2.007-0.963-2.002-2.022
			c0.005-1.108,0.938-2.012,2.065-2.002C31.836,45.938,32.754,46.853,32.739,47.924z"/>
		<path style="fill:#37BF8D;" d="M22.569,46.422c-0.254,0-0.468,0-0.766,0c0.039-0.285,0.055-0.533,0.108-0.773
			c0.123-0.555,0.213-1.096-0.411-1.495c0.169-0.117,0.276-0.215,0.402-0.275c0.945-0.446,1.895-0.882,2.84-1.326
			c0.262-0.123,0.513-0.181,0.795-0.048c1.042,0.49,2.088,0.97,3.131,1.458c0.071,0.033,0.124,0.104,0.22,0.187
			c-0.411,0.408-0.927,0.546-1.417,0.714c-0.105,0.036-0.272-0.083-0.4-0.149c-1.245-0.641-2.498-0.664-3.72,0.023
			c-0.304,0.171-0.564,0.085-0.862,0.052C22.245,45.343,22.528,45.851,22.569,46.422z"/>
	</g>
</g>
<g id="Layer_1">
</g>
</svg>
