<svg xmlns="http://www.w3.org/2000/svg" viewBox="0 0 140 105" enable-background="new 0 0 140 105"><circle cx="70" cy="37.692" r="27.692" fill="#3D505D"/><circle cx="70" cy="37.692" r="21.095" fill="#478288"/><ellipse cx="70" cy="37.692" rx="14.999" ry="14.677" fill="#5EADB4"/><path d="M24.02 79.376H20V72.02h4.02v.473h-3.507v2.782h3.31v.473h-3.31v3.155h3.507v.473zm4.93-1.424c0 .49-.186.866-.558 1.13s-.9.395-1.585.395c-.73 0-1.31-.112-1.74-.337v-.538c.55.275 1.13.413 1.74.413.54 0 .95-.09 1.23-.27.28-.178.42-.417.42-.716 0-.277-.112-.508-.335-.696-.223-.188-.59-.372-1.1-.553-.546-.197-.93-.367-1.15-.51-.222-.143-.39-.304-.502-.483-.112-.18-.17-.398-.17-.657 0-.408.173-.732.517-.97.344-.238.824-.357 1.44-.357.59 0 1.15.11 1.68.332l-.185.453c-.537-.22-1.035-.332-1.494-.332-.446 0-.8.074-1.062.22-.262.15-.392.353-.392.615 0 .287.1.515.304.686.203.17.6.362 1.19.574.493.177.852.337 1.077.48.225.142.393.303.506.485s.17.392.17.637zm4.8 0c0 .49-.186.866-.558 1.13-.372.263-.9.395-1.585.395-.73 0-1.31-.112-1.74-.337v-.538c.55.275 1.13.413 1.74.413.54 0 .95-.09 1.23-.27.28-.178.42-.417.42-.716 0-.277-.112-.508-.335-.696-.223-.188-.59-.372-1.1-.553-.546-.197-.93-.367-1.15-.51-.222-.143-.39-.304-.502-.483-.112-.18-.17-.398-.17-.657 0-.408.173-.732.517-.97s.824-.357 1.44-.357c.59 0 1.15.11 1.68.332l-.185.453c-.537-.22-1.035-.332-1.494-.332-.446 0-.8.074-1.062.22-.262.15-.392.353-.392.615 0 .287.1.515.304.686.203.17.6.362 1.19.574.493.177.852.337 1.077.48.225.142.393.303.506.485s.17.392.17.637zm3.618 1.524c-.795 0-1.415-.245-1.86-.735-.443-.49-.666-1.174-.666-2.056 0-.872.215-1.57.644-2.095.43-.526 1.008-.788 1.736-.788.644 0 1.152.226 1.524.675.372.45.558 1.06.558 1.83v.403h-3.94c.008.75.183 1.325.527 1.72.346.397.838.595 1.48.595.31 0 .585-.022.822-.065.237-.044.537-.138.9-.282v.453c-.31.134-.595.226-.856.274-.263.05-.55.073-.866.073zm-.146-5.232c-.527 0-.95.174-1.268.52s-.505.85-.558 1.503h3.38c0-.634-.137-1.13-.412-1.487-.275-.358-.656-.536-1.142-.536zm7.406 5.132V75.83c0-.55-.116-.95-.347-1.2-.23-.25-.59-.376-1.075-.376-.654 0-1.133.165-1.436.496-.305.33-.456.866-.456 1.607v3.02h-.498v-5.47h.423l.095.75h.03c.356-.57.988-.855 1.897-.855 1.242 0 1.863.666 1.863 1.997v3.575h-.495zm3.708-.342c.315 0 .59-.027.825-.08v.402c-.24.08-.52.12-.833.12-.483 0-.84-.128-1.07-.386-.23-.258-.344-.664-.344-1.218V74.34h-.81v-.292l.81-.226.252-1.238h.257v1.323h1.606v.433H47.42v3.46c0 .42.074.73.22.932s.38.302.696.302zm1.937-6.647c0-.322.106-.483.317-.483.104 0 .185.042.244.126s.088.203.088.357c0 .15-.03.27-.088.357-.06.087-.14.13-.244.13-.212 0-.317-.16-.317-.487zm.568 6.99h-.496v-5.47h.498v5.47zm5.153 0l-.126-.866h-.04c-.275.354-.558.603-.848.75-.29.145-.635.22-1.03.22-.538 0-.955-.14-1.254-.415-.3-.275-.448-.656-.448-1.142 0-.533.22-.948.666-1.243.444-.296 1.088-.452 1.93-.47l1.04-.03v-.36c0-.52-.106-.913-.317-1.178s-.553-.397-1.022-.397c-.506 0-1.03.14-1.575.423l-.186-.433c.6-.282 1.194-.423 1.78-.423.6 0 1.05.156 1.347.468.298.312.446.798.446 1.46v3.637h-.367zm-2.012-.354c.586 0 1.046-.167 1.383-.5.337-.335.506-.798.506-1.392v-.536l-.957.04c-.768.037-1.316.157-1.643.36-.328.203-.492.52-.492.948 0 .343.105.61.314.798.21.19.506.285.89.285zm4.65.353h-.498v-7.83h.498v7.83zm8.693-1.896c0 .613-.226 1.1-.677 1.458-.45.36-1.05.538-1.8.538-.898 0-1.587-.1-2.067-.297v-.515c.53.225 1.204.337 2.026.337.604 0 1.083-.138 1.436-.415.354-.277.53-.64.53-1.09 0-.277-.058-.508-.175-.69s-.31-.35-.574-.502c-.265-.15-.654-.314-1.167-.488-.75-.258-1.27-.537-1.557-.838-.288-.3-.43-.7-.43-1.2 0-.55.214-1 .646-1.347.43-.347.985-.52 1.663-.52.69 0 1.34.13 1.946.39l-.186.444c-.61-.255-1.193-.382-1.75-.382-.543 0-.976.126-1.298.377-.322.252-.483.594-.483 1.026 0 .27.047.494.146.668s.26.33.486.47c.225.14.61.306 1.157.5.573.2 1.004.39 1.292.577.288.186.5.397.63.634.134.238.2.523.2.86zm3.613 1.996c-.782 0-1.394-.247-1.836-.74-.443-.493-.664-1.18-.664-2.063 0-.906.23-1.61.69-2.116.46-.505 1.087-.757 1.886-.757.473 0 .926.082 1.358.247l-.136.443c-.473-.158-.884-.236-1.233-.236-.67 0-1.177.207-1.522.62s-.518 1.01-.518 1.79c0 .738.172 1.316.517 1.733s.828.626 1.45.626c.495 0 .957-.09 1.383-.267v.463c-.35.17-.807.255-1.374.255zm6.524-.1V75.83c0-.55-.115-.95-.346-1.2-.23-.25-.59-.376-1.077-.376-.654 0-1.133.165-1.436.496-.302.33-.453.866-.453 1.607v3.02h-.498v-7.83h.497v2.49l-.025.7h.036c.205-.33.463-.568.775-.715.313-.148.7-.22 1.163-.22 1.24 0 1.862.665 1.862 1.996v3.577h-.494zm6.788-2.742c0 .892-.216 1.59-.65 2.09-.432.5-1.03.752-1.79.752-.48 0-.902-.116-1.268-.347-.366-.233-.646-.565-.84-.998s-.292-.932-.292-1.5c0-.89.216-1.586.65-2.084.432-.5 1.025-.748 1.78-.748.75 0 1.34.252 1.768.757.43.503.642 1.195.642 2.074zm-4.316 0c0 .75.165 1.337.496 1.758.33.42.797.63 1.4.63.605 0 1.072-.21 1.402-.63.33-.42.496-1.007.496-1.758 0-.755-.167-1.34-.5-1.756-.335-.416-.803-.624-1.407-.624s-1.07.207-1.398.62-.49 1.002-.49 1.76zm10.354 0c0 .892-.216 1.59-.65 2.09-.432.5-1.03.752-1.79.752-.48 0-.902-.116-1.268-.347-.366-.233-.646-.565-.84-.998s-.292-.932-.292-1.5c0-.89.216-1.586.65-2.084s1.025-.748 1.78-.748c.75 0 1.34.252 1.768.757.428.503.642 1.195.642 2.074zm-4.317 0c0 .75.163 1.337.494 1.758.33.42.797.63 1.4.63s1.072-.21 1.402-.63c.33-.42.496-1.007.496-1.758 0-.755-.167-1.34-.5-1.756-.335-.416-.803-.624-1.407-.624s-1.07.207-1.396.62-.49 1.002-.49 1.76zm6.328 2.742H91.8v-7.83h.498v7.83zm6.552 0h-.52v-6.873h-2.39v-.483h5.3v.483h-2.39v6.873zm7.878-2.742c0 .892-.216 1.59-.65 2.09-.432.5-1.03.752-1.79.752-.48 0-.902-.116-1.268-.347-.366-.233-.646-.565-.84-.998s-.292-.932-.292-1.5c0-.89.216-1.586.65-2.084s1.025-.748 1.78-.748c.75 0 1.34.252 1.768.757.428.503.642 1.195.642 2.074zm-4.317 0c0 .75.167 1.337.498 1.758.33.42.797.63 1.4.63s1.072-.21 1.402-.63c.33-.42.495-1.007.495-1.758 0-.755-.167-1.34-.5-1.756-.335-.416-.803-.624-1.407-.624s-1.07.207-1.396.62-.49 1.002-.49 1.76zm10.355 0c0 .892-.216 1.59-.65 2.09s-1.03.752-1.79.752c-.48 0-.902-.116-1.268-.347-.366-.233-.646-.565-.84-.998-.195-.433-.292-.932-.292-1.5 0-.89.216-1.586.65-2.084.432-.5 1.025-.748 1.78-.748.75 0 1.34.252 1.768.757.428.503.642 1.195.642 2.074zm-4.317 0c0 .75.165 1.337.496 1.758.33.42.797.63 1.4.63s1.072-.21 1.402-.63c.33-.42.496-1.007.496-1.758 0-.755-.167-1.34-.5-1.756-.335-.416-.803-.624-1.407-.624s-1.07.207-1.396.62-.493 1.002-.493 1.76zm6.33 2.742h-.498v-7.83h.498v7.83zM120 77.952c0 .49-.186.866-.558 1.13s-.9.395-1.585.395c-.73 0-1.31-.112-1.74-.337v-.538c.55.275 1.13.413 1.74.413.54 0 .95-.09 1.23-.27s.42-.417.42-.716c0-.277-.112-.508-.335-.696-.223-.188-.59-.372-1.1-.553-.546-.197-.93-.367-1.15-.51-.222-.143-.39-.304-.502-.483-.112-.18-.17-.398-.17-.657 0-.408.173-.732.517-.97.344-.238.824-.357 1.44-.357.59 0 1.15.11 1.68.332l-.185.453c-.537-.22-1.035-.332-1.494-.332-.446 0-.8.074-1.062.22-.262.15-.392.353-.392.615 0 .287.1.515.304.686.203.17.6.362 1.19.574.493.177.852.337 1.077.48s.393.303.506.485c.115.18.17.392.17.637z" fill="#231F20"/></svg>