<?xml version="1.0" encoding="iso-8859-1"?>
<!-- Generator: Adobe Illustrator 18.1.1, SVG Export Plug-In . SVG Version: 6.00 Build 0)  -->
<!DOCTYPE svg PUBLIC "-//W3C//DTD SVG 1.1//EN" "http://www.w3.org/Graphics/SVG/1.1/DTD/svg11.dtd">
<svg version="1.1" xmlns="http://www.w3.org/2000/svg" xmlns:xlink="http://www.w3.org/1999/xlink" x="0px" y="0px"
	 viewBox="0 0 140 105" style="enable-background:new 0 0 140 105;" xml:space="preserve">
<g id="proxlock">
	<g>
		<path style="fill:#9C9B9B;" d="M92.787,59.586c-0.25-0.212-0.604-0.224-0.851-0.448c-0.062-0.057-0.155-0.079-0.227-0.126
			c-0.157-0.102-0.18-0.314-0.385-0.404c-0.176-0.077-0.287-0.29-0.446-0.42c-0.328-0.271-0.5-0.659-0.736-0.994
			c-0.139-0.197-0.159-0.509-0.161-0.769c-0.011-2.341-0.007-4.682-0.007-6.97c0.165-0.364,0.381-0.621,0.835-0.785
			c1.201-0.222,2.538-0.081,3.869-0.103c1.348-0.022,2.697-0.005,4.046-0.005c1.121,0,2.242,0,3.341,0
			c0.061,0.061,0.101,0.101,0.169,0.169c0,0.155,0,0.339,0,0.522c0,2.566,0.001,5.133,0,7.699c0,0.678,0.045,1.36-0.093,2.063
			c-0.194,0.19-0.388,0.38-0.582,0.57C98.637,59.586,95.712,59.586,92.787,59.586z"/>
		<path style="fill:#41C6F4;" d="M21.811,45.414c0.048,0.037,0.094,0.103,0.146,0.108c0.869,0.089,1.361,0.621,1.654,1.392
			c0.083,0.22,0.12,0.443,0.118,0.684c-0.011,1.311-0.005,2.622-0.005,3.933c0,0.242-0.174,0.855-0.306,1.109
			c-0.257,0.491-0.676,0.745-1.2,0.881c-0.228,0.059-0.458,0.076-0.683,0.121c-0.21,0.042-0.413,0.102-0.631,0.098
			c-0.243-0.005-0.487-0.001-0.73-0.001c-2.622,0-5.244,0-7.871,0c-0.01,0.011-0.024,0.023-0.034,0.039
			c-0.009,0.014-0.017,0.032-0.017,0.049c-0.001,1.72-0.001,3.441-0.001,5.199c-0.762,0-1.506,0-2.25,0c0-4.537,0-9.074,0-13.61
			C13.937,45.414,17.874,45.414,21.811,45.414z M20.999,47.358c-0.503-0.214-1.003-0.141-1.494-0.142
			c-2.231-0.005-4.461-0.002-6.692-0.002c-0.183,0-0.366,0-0.552,0c0,1.552,0,3.065,0,4.612c0.193,0,0.376,0,0.56,0
			c2.212,0,4.424,0.003,6.636-0.002c0.51-0.001,1.028,0.07,1.413-0.09c0.22-0.185,0.362-0.305,0.524-0.442
			c0.121-1.198,0.148-2.4-0.014-3.553C21.212,47.571,21.093,47.452,20.999,47.358z"/>
		<path style="fill:#9C9B9B;" d="M103.361,59.586c0.181-0.208,0.362-0.417,0.56-0.644c0-0.043,0-0.118,0-0.189
			c0.465-0.443,0.672-0.996,0.698-1.606c0.055-0.055,0.094-0.094,0.154-0.154c1.306,0,2.631,0,3.972,0c0-2.133,0-4.246,0-6.406
			c-0.155,0-0.318,0-0.48,0c-1.106,0-2.212,0-3.318,0c-0.164,0-0.344,0.04-0.452-0.182c-0.017-0.61-0.043-1.25-0.52-1.819
			c2.596,0,5.121,0,7.681,0c0.06,0.066,0.148,0.162,0.248,0.272c0.016,0.194,0.031,0.405-0.101,0.605
			c-0.064,0.098-0.097,0.226-0.113,0.345c-0.019,0.148-0.005,0.299-0.005,0.449c0,1.743-0.002,3.487,0.002,5.23
			c0.001,0.275-0.038,0.576,0.06,0.818c0.104,0.259-0.078,0.562,0.163,0.776c0,0.356,0,0.712,0,1.1
			c-0.208,0.212-0.479,0.421-0.451,0.788c-0.164,0.164-0.323,0.323-0.482,0.482c-0.084,0.084-0.279-0.08-0.305,0.136
			C108.235,59.586,105.798,59.586,103.361,59.586z"/>
		<path style="fill:#41C6F4;" d="M44.284,58.914c-0.106-0.115-0.148-0.197-0.212-0.224c-0.595-0.251-0.776-0.746-0.904-1.336
			c-0.144-0.663-0.087-1.32-0.093-1.979c-0.015-1.723-0.011-3.446-0.002-5.169c0.003-0.573,0.113-1.126,0.447-1.611
			c0.081-0.117,0.146-0.282,0.259-0.334c0.363-0.166,0.726-0.315,1.134-0.391c0.718-0.134,1.432-0.077,2.148-0.091
			c0.73-0.015,1.461-0.003,2.191-0.003c1.498,0,2.997,0.019,4.494-0.011c0.464-0.009,0.901,0.122,1.358,0.141
			c0.241,0.01,0.493,0.167,0.708,0.307c0.325,0.213,0.522,0.553,0.629,0.913c0.058,0.196,0.138,0.393,0.137,0.624
			c-0.017,2.434-0.011,4.869-0.01,7.304c0,0.503-0.212,0.924-0.519,1.3c-0.086,0.105-0.221,0.181-0.348,0.238
			c-0.168,0.076-0.24,0.258-0.417,0.326c-0.224,0.086-0.448,0.111-0.686,0.111c-3.146-0.004-6.293,0-9.439-0.008
			C44.857,59.018,44.554,58.948,44.284,58.914z M54.421,49.481c-3.097,0-6.146,0-9.194,0c-0.073,1.65-0.045,7.269,0.034,7.724
			c3.052,0,6.101,0,9.16,0C54.421,54.625,54.421,52.064,54.421,49.481z"/>
		<path style="fill:#2A2929;" d="M115.856,59.341c0-3.931,0-7.843,0-11.773c0.848,0,1.686,0,2.563,0c0,1.473,0,2.962,0,4.536
			c0.381-0.248,0.699-0.451,1.012-0.661c0.309-0.207,0.614-0.419,0.919-0.632c0.32-0.223,0.626-0.47,0.961-0.669
			c0.335-0.199,0.623-0.462,0.965-0.652c0.338-0.188,0.654-0.415,0.976-0.632c0.309-0.208,0.613-0.422,0.918-0.635
			c0.32-0.224,0.639-0.449,0.931-0.655c1.277,0,2.527,0,3.87,0c-1.417,1.076-2.896,1.905-4.282,2.871
			c-1.385,0.966-2.833,1.841-4.252,2.755c0.601,0.372,1.159,0.734,1.734,1.069c0.576,0.336,1.115,0.727,1.693,1.063
			c0.438,0.255,0.863,0.543,1.298,0.809c0.584,0.357,1.132,0.769,1.739,1.094c0.464,0.249,0.89,0.568,1.335,0.853
			c0.192,0.123,0.39,0.236,0.582,0.36c0.134,0.087,0.349,0.167,0.372,0.281c0.039,0.198,0.202,0.177,0.295,0.263
			c0.127,0.119,0.282,0.208,0.514,0.373c-0.223,0-0.347,0-0.471,0c-1.143,0-2.288-0.03-3.429,0.015
			c-0.461,0.018-0.853-0.128-1.116-0.416c-0.328-0.36-0.737-0.576-1.114-0.846c-0.675-0.483-1.372-0.936-2.063-1.396
			c-0.998-0.665-2-1.325-2.999-1.99c-0.102-0.068-0.191-0.155-0.279-0.228c-0.044,0.036-0.061,0.045-0.072,0.059
			c-0.011,0.013-0.022,0.031-0.022,0.046c-0.001,1.572-0.001,3.144-0.001,4.736C117.58,59.341,116.742,59.341,115.856,59.341z"/>
		<path style="fill:#41C6F4;" d="M27.338,59.023c0-3.778,0-7.5,0-11.247c0.144,0,0.271,0,0.399,0c2.847,0,5.694,0.001,8.54-0.001
			c0.397,0,0.771,0.101,1.144,0.224c0.556,0.183,1.004,0.53,1.16,1.367c0.2,1.072,0.086,2.145,0.082,3.214
			c-0.002,0.533-0.116,1.107-0.594,1.486c-0.276,0.219-0.581,0.373-0.931,0.468c-0.397,0.108-0.792,0.101-1.192,0.103
			c-0.315,0.002-0.63,0-1.06,0c0.303,0.227,0.431,0.481,0.718,0.591c0.128,0.049,0.212,0.206,0.322,0.308
			c0.5,0.465,0.984,0.948,1.507,1.386c0.617,0.516,1.237,1.027,1.814,1.59c0.154,0.151,0.208,0.389,0.551,0.493
			c-1.071,0-2.021,0-2.955,0c-0.243-0.268-0.477-0.548-0.734-0.806c-1.175-1.183-2.356-2.359-3.546-3.55c-1.013,0-2.038,0-3.101,0
			c0,1.452,0,2.903,0,4.375C28.724,59.023,28.023,59.025,27.338,59.023z M36.272,52.831c0.241-0.43,0.306-0.847,0.277-1.286
			c-0.016-0.242,0.007-0.487-0.005-0.729c-0.045-0.946-0.331-1.336-1.364-1.348c-1.739-0.02-3.479-0.005-5.218-0.005
			c-0.163,0-0.327,0-0.503,0c0,1.199,0,2.356,0.001,3.514c0,0.016,0.009,0.034,0.019,0.048c0.01,0.015,0.026,0.025,0.04,0.038
			c1.851,0,3.703-0.007,5.554,0.005C35.495,53.071,35.878,52.947,36.272,52.831z"/>
		<path style="fill:#41C6F4;" d="M67.31,53.287c0.737,0.737,1.402,1.478,2.149,2.122c0.478,0.412,0.911,0.862,1.372,1.288
			c0.447,0.413,0.864,0.853,1.334,1.246c0.475,0.398,0.855,0.911,1.273,1.377c0.017,0.019-0.003,0.07-0.008,0.13
			c-0.91,0-1.822,0-2.698,0c-1.523-1.542-3.04-3.079-4.589-4.647c-0.291,0.321-0.652,0.521-0.814,0.912
			c-0.013,0.032-0.052,0.053-0.078,0.08c-0.411,0.448-0.822,0.896-1.233,1.345c-0.486,0.532-0.971,1.064-1.484,1.627
			c-0.001,0.029-0.004,0.101-0.007,0.152c-0.181,0.18-0.352,0.35-0.541,0.539c-0.831,0-1.707,0-2.646,0
			c0.074-0.122,0.113-0.214,0.175-0.286c1.577-1.824,3.377-3.431,5.049-5.163c0.115-0.119,0.233-0.234,0.377-0.378
			c-0.252-0.256-0.474-0.505-0.72-0.726c-0.244-0.218-0.406-0.53-0.744-0.644c-0.064-0.021-0.108-0.102-0.161-0.155
			c-0.053-0.053-0.105-0.107-0.159-0.159c-1.297-1.259-2.593-2.518-3.892-3.779c0.014-0.013,0.026-0.028,0.042-0.037
			c0.014-0.009,0.032-0.017,0.049-0.017c0.918-0.001,1.837-0.001,2.793-0.001c1.295,1.348,2.609,2.714,3.95,4.11
			c0.107-0.103,0.188-0.169,0.253-0.248c0.055-0.067,0.078-0.161,0.136-0.223c0.593-0.637,1.195-1.266,1.786-1.905
			c0.528-0.57,1.045-1.149,1.555-1.71c0.851,0,1.665,0,2.474,0c0.007,0.041,0.011,0.059,0.012,0.076
			c0.001,0.019,0.008,0.043-0.001,0.055c-0.033,0.044-0.071,0.085-0.11,0.124C70.589,50.008,68.973,51.624,67.31,53.287z"/>
		<path style="fill:#2A2929;" d="M75.596,47.561c0.855,0,1.693,0,2.55,0c0,3.133,0,6.256,0,9.36
			c0.031,0.033,0.042,0.049,0.057,0.059c0.014,0.009,0.032,0.018,0.048,0.018c2.845,0.001,5.691,0.001,8.555,0.001
			c0,0.78,0,1.543,0,2.334c-3.718,0-7.454,0-11.21,0C75.596,55.433,75.596,51.522,75.596,47.561z"/>
	</g>
</g>
<g id="Layer_1">
</g>
</svg>
