<?xml version="1.0" encoding="utf-8"?>
<!-- Generator: Adobe Illustrator 18.1.1, SVG Export Plug-In . SVG Version: 6.00 Build 0)  -->
<svg version="1.1" id="Layer_1" xmlns="http://www.w3.org/2000/svg" xmlns:xlink="http://www.w3.org/1999/xlink" x="0px" y="0px"
	 viewBox="0 0 140 105" enable-background="new 0 0 140 105" xml:space="preserve">
<g>
	<polygon fill="#83181B" points="39.9,34.8 47.7,50.5 62.7,20 47.2,20 	"/>
	<polygon fill="#83181B" points="62.3,50.5 77.7,50.5 92.8,20 77.3,20 	"/>
	<polygon fill="#C82128" points="77.7,50.5 62.3,50.5 47.2,20 62.7,20 	"/>
	<polygon fill="#C82128" points="100.1,34.8 92.3,50.5 77.3,20 92.8,20 	"/>
	<path fill="#514F54" d="M47.8,75.6V59.5h-2.9l-5,12.4l-5-12.4h-2.9v16.1h2V62.1l5.5,13.5h0.8l5.4-13.5v13.5H47.8z M62.1,75.6v-1.8
		h-8.5v-5.5h8.4v-1.8h-8.4v-5.2h8.5v-1.8H51.6v16.1H62.1z M76.9,75.6L72.6,69c2.2-0.2,4.2-1.8,4.2-4.7c0-3-2.1-4.8-5.1-4.8h-6.5
		v16.1h2v-6.4h3.2l4.1,6.4H76.9z M71.5,67.4h-4.2v-6.1h4.2c1.9,0,3.2,1.2,3.2,3.1C74.7,66.2,73.4,67.4,71.5,67.4L71.5,67.4z
		 M86.5,75.9c4.4,0,6.6-2.6,6.6-6.6v-9.8h-2v9.8c0,2.9-1.6,4.8-4.6,4.8c-3,0-4.5-1.9-4.5-4.8v-9.8h-2v9.8
		C79.9,73.3,82.1,75.9,86.5,75.9z M102,75.9c4.3,0,5.9-2.4,5.9-4.7c0-6-9.5-3.9-9.5-7.5c0-1.5,1.4-2.6,3.3-2.6
		c1.8,0,3.4,0.6,4.6,1.9l1.2-1.5c-1.3-1.4-3.3-2.3-5.7-2.3c-3.2,0-5.5,1.8-5.5,4.5c0,5.7,9.5,3.4,9.5,7.6c0,1.3-0.9,2.8-3.8,2.8
		c-2.3,0-4-1.1-5-2.3l-1.2,1.5C97.2,74.8,99.2,75.9,102,75.9L102,75.9z"/>
	<path fill="#514F54" d="M34.1,84.9h-2.1V79h2.1c1.7,0,3,1.2,3,2.9C37.1,83.7,35.9,84.9,34.1,84.9L34.1,84.9z M46,80v1.4h2.9v1H46
		v1.6h2.9v1h-4V79h4v1H46L46,80z M58.7,85c-0.9,0-1.7-0.3-2.2-0.9L56.4,84l0.6-0.8l0.1,0.2c0.4,0.5,1,0.7,1.6,0.7
		c0.5,0,1.1-0.2,1.1-0.8c0-1.2-3.3-0.5-3.3-2.6c0-1.1,1-1.7,2.1-1.7c0.8,0,1.5,0.3,2.1,0.8l0.1,0.1l-0.6,0.8l-0.1-0.1
		c-0.4-0.4-0.9-0.6-1.5-0.6c-0.4,0-1,0.2-1,0.7c0,1,3.3,0.4,3.3,2.6C60.9,84.5,59.9,85,58.7,85L58.7,85z M69.8,84.9h-1V79h1V84.9z
		 M81.9,83.5v-0.9H80v-1h2.9v2.2l0,0c-0.6,0.7-1.4,1-2.3,1c-1.7,0-3-1.3-3-3c0-1.7,1.3-3,3-3c0.9,0,1.7,0.4,2.3,1.1l0.1,0.1
		l-0.8,0.5l-0.1-0.1c-0.3-0.4-0.9-0.7-1.5-0.7c-1.2,0-2,0.9-2,2.1c0,1.1,0.8,2.1,2,2.1C81.1,84,81.6,83.9,81.9,83.5L81.9,83.5z
		 M91.8,80.8v4h-1V79h1l2.9,4v-4h1v5.9h-0.9L91.8,80.8z M105.7,85c-0.9,0-1.7-0.3-2.2-0.9l-0.1-0.1l0.6-0.8l0.1,0.2
		c0.4,0.5,1,0.7,1.6,0.7c0.5,0,1.1-0.2,1.1-0.8c0-1.2-3.3-0.5-3.3-2.6c0-1.1,1-1.7,2.1-1.7c0.8,0,1.5,0.3,2.1,0.8l0.1,0.1l-0.6,0.8
		l-0.1-0.1c-0.4-0.4-0.9-0.6-1.5-0.6c-0.4,0-1,0.2-1,0.7c0,1,3.3,0.4,3.3,2.6C107.9,84.5,106.9,85,105.7,85L105.7,85z M33.1,80v4h1
		c1.2,0,1.9-0.8,1.9-2c0-1.2-0.8-2-1.9-2H33.1z"/>
</g>
</svg>
