<?xml version="1.0" encoding="utf-8"?>
<!-- Generator: Adobe Illustrator 18.1.1, SVG Export Plug-In . SVG Version: 6.00 Build 0)  -->
<svg version="1.1" id="Layer_1" xmlns="http://www.w3.org/2000/svg" xmlns:xlink="http://www.w3.org/1999/xlink" x="0px" y="0px"
	 viewBox="0 0 140 105" enable-background="new 0 0 140 105" xml:space="preserve">
<g id="Logos" sketch:type="MSPage">
	<g id="Final-Copy" transform="translate(-110.000000, -110.000000)" sketch:type="MSArtboardGroup">
		<path id="PassengerSVG" sketch:type="MSShapeGroup" fill="#19AE4B" d="M157.8,132.7c4.5-3.9,10.6-6.2,16.3-7.1
			c2-0.3,3.9-0.5,5.9-0.5c20.6,0,37.3,16.7,37.3,37.3s-16.7,37.3-37.3,37.3s-37.3-16.7-37.3-37.3c0-0.6,0-1.2,0-1.7
			c2.3,6.2,7.9,14.8,21.4,14.8c12.6,0,42.6-15,42.6-15c1.4-0.7,1.4-1.8,0-2.5l-14.9-7.8c-1.4-0.7-3.6-0.7-5-0.1c0,0-16,8.3-24.3,8.3
			c-10.6,0-12.2-8.7-11.1-15.1C152.3,139,154.6,135.4,157.8,132.7z M184.4,154.8l5.4-2.3l6.3,3.8l-7.7,3.2L184.4,154.8z
			 M167.7,160.9l4.5-1.3l3.9,4.9l-4.8,1.4L167.7,160.9z M174.6,158.8l2-0.7l2.2-0.9l3.9,4.7c0,0-1.9,0.9-2.6,1.1
			c-0.7,0.3-1.7,0.6-1.7,0.6L174.6,158.8z"/>
	</g>
</g>
</svg>
