<?xml version="1.0" encoding="utf-8"?>
<!-- Generator: Adobe Illustrator 18.1.1, SVG Export Plug-In . SVG Version: 6.00 Build 0)  -->
<svg version="1.1" id="Layer_1" xmlns="http://www.w3.org/2000/svg" xmlns:xlink="http://www.w3.org/1999/xlink" x="0px" y="0px"
	 viewBox="0 0 140 105" enable-background="new 0 0 140 105" xml:space="preserve">
<g>
	<path fill="#231F20" d="M69.9,15.4h1.2c6.9,0.2,13.8,2.4,19.6,6.2c10.1,6.7,16.7,18.6,16.4,30.7c0.4,12.2-6.2,24.1-16.3,30.9
		c-5.8,4-12.9,6.2-19.9,6.3h-2.1c-8-0.3-15.8-3.2-22-8.2c-1.5-1.1-2.7-2.5-4.1-3.8c0.1-0.1,0.2-0.1,0.2-0.1c1,0.6,2-0.2,2.9-0.6
		c2.3-1.2,4.6-2.5,6.5-4.3c3-3.2,5.5-6.7,7.8-10.4c-0.9,0.8-1.6,1.8-2.5,2.7c-0.4,0.5-1.1,0.6-1.7,0.8c0.1-0.8,0.3-1.6,0.9-2.2
		c2.3-2.7,3.7-6.1,4.1-9.6c0.2-1,0.3-2.1,1-2.8c0.9-0.1,1.3,0.8,1.8,1.3c0.4-0.9,0.7-1.8,1.3-2.6c2.4-3.1,6-5.3,9.9-5.7
		c0.6-0.1,1.1-0.3,1.7-0.4c0.7-0.1,1.4,0.1,2,0.3c0.1-0.9,0.1-1.8-0.1-2.7c-0.5-0.1-1-0.2-1.4-0.5c-0.7-0.6-0.9-1.4-1.2-2.2
		c-3.8-0.3-7.6-1.2-11.3-2.2c-0.7-1-1.5-2-2.7-2.3c-2.2-0.8-4.7-0.2-6.8,0.7c1.6,0.9,3.1,2.2,3.6,4.1c0.1,0.6,0.3,1.3-0.2,1.7
		c-0.9,0.6-2.2,1-3.2,0.5c-0.9-0.4-1.6-1.2-2.1-2c-1.1,2.6-2.2,5.3-3.4,7.9c-0.7,1.7-1.5,3.4-2.7,4.9c-1.7,2.1-4.3,3.6-7,3.6
		c-2,0-3.8-1.2-5.3-2.3c-0.6-0.5-1.3-1-1.8-1.6v-0.3c0.1-0.1,0.4-0.3,0.3-0.5c-0.3-1.2,0-2.4,0.1-3.6c1.3-9.9,6.9-19,15-24.8
		C54.6,17.9,62.2,15.4,69.9,15.4z"/>
	<path fill="#FFFFFF" d="M53.1,34.4c1.1-1.2,2.4-2.3,4.1-2.4c2.7-0.2,5.4,1,7.4,2.7c-1.9-0.8-4-1.7-6.1-1.5
		c-1.4,0.1-2.7,0.8-3.7,1.7C54.1,34.8,53.6,34.6,53.1,34.4z"/>
	<path fill="#FFFFFF" d="M55.1,34.8c2.1-0.9,4.6-1.5,6.8-0.7c1.2,0.4,2,1.3,2.7,2.3c3.7,1,7.4,1.9,11.3,2.2c0.3,0.8,0.5,1.6,1.2,2.2
		c0.4,0.4,0.9,0.4,1.4,0.5c0.2,0.9,0.2,1.8,0.1,2.7c-0.6-0.2-1.3-0.5-2-0.3c-0.6,0.1-1.1,0.3-1.7,0.4c-3.9,0.5-7.5,2.6-9.9,5.7
		c-0.6,0.8-0.9,1.7-1.3,2.6c-0.5-0.5-0.9-1.5-1.8-1.3c-0.8,0.7-0.9,1.8-1,2.8c-0.4,3.5-1.8,6.9-4.1,9.6c-0.6,0.6-0.8,1.4-0.9,2.2
		c0.6-0.2,1.2-0.3,1.7-0.8c0.9-0.9,1.6-1.8,2.5-2.7c-2.3,3.7-4.8,7.2-7.8,10.4c-1.9,1.8-4.2,3.1-6.5,4.3c-0.9,0.4-1.9,1.2-2.9,0.6
		c-0.1,0-0.2,0.1-0.2,0.1c1.4,1.2,2.7,2.6,4.1,3.8c6.2,5,14,7.9,22,8.2H32.9V51.6c0.5,0.6,1.2,1.1,1.8,1.6c1.6,1.1,3.3,2.2,5.3,2.3
		c2.7-0.1,5.3-1.5,7-3.6c1.2-1.4,2-3.2,2.7-4.9c1.1-2.6,2.3-5.3,3.4-7.9c0.6,0.8,1.2,1.6,2.1,2c1.1,0.5,2.3,0.2,3.2-0.5
		c0.5-0.4,0.3-1.1,0.2-1.7C58.3,37,56.7,35.7,55.1,34.8z"/>
	<path fill="#FFFFFF" d="M51.7,34.5c2.1-0.1,4.1,1.2,5.5,2.8c0.7,0.8,1.2,1.8,1.5,2.9c-1.4-1.3-2.9-2.7-4.8-3
		c0.2,1.6,1.5,2.8,2.9,3.6c-2.3,0.2-4.1-1.9-4.5-4.1c-0.1,0.2-0.2,0.3-0.2,0.5c0.7,1-0.2,2.1-0.6,3c-1.6,3.8-3.6,7.7-6.6,10.5
		c1.3-2.1,2.7-4,3.6-6.3c0.8-1.9,1.4-3.8,2.3-5.7c0.4-0.8,0.6-1.6,1.3-2.2C52.2,35.7,51.8,35.1,51.7,34.5z"/>
	<path fill="#FFFFFF" d="M85.3,40c-0.5-1.7-0.2-3.6,0.4-5.3c0.3,0.8,0.4,1.7,1.1,2.2c1,0.8,2.4,1.2,3.2,2.2c0.9,1,1.1,2.3,1.3,3.6
		c-0.8-1.6-2.3-2.7-3.9-3.4c0.9,0.9,2.1,1.5,2.9,2.6c1.2,1.6,1,3.9,0.3,5.6c-0.9,1.9-2,3.7-2.8,5.7c0.1-2.7,2.2-4.8,2.7-7.5
		c0.1-0.6,0.3-1.4-0.3-1.8c-0.8-0.5-1.8-0.6-2.5-1.2C86.4,42.3,85.6,41.3,85.3,40z"/>
	<path fill="#FFFFFF" d="M65.1,35.7c1.7,0.4,3.4,0.9,5.2,0.7c2.1-0.2,4.3-0.3,6.2,0.6c2.4,1.1,4.3,3.5,4.3,6.2c0.1,1,0,2.2-1,2.6
		c0.3,0.5,0.6,0.9,0.6,1.5c-0.1,0.4-0.6,0.3-0.9,0.5c-1.2-1.1-2.7-1.9-4.3-1.8c-3.3,0.2-6.3,1.9-8.5,4.3c-0.7,0.7-1.2,1.5-1.9,2.1
		c1.5-2.8,3.7-5.2,6.6-6.5c1.7-0.8,3.5-1,5.3-1c-0.3-0.3-0.5-0.5-0.8-0.8c1,0.2,2,0.7,3,0.5c0.7-0.3,0.5-1.2,0.5-1.8
		c-0.1-0.7-0.1-1.7-0.9-2c-0.3-0.2-0.7-0.3-1-0.5c-0.5-0.5-0.3-1.5-1-1.8C72.9,36.8,68.5,38.1,65.1,35.7z"/>
	<path fill="#3DB54A" d="M65,39.9c1.3,0.2,2.5-0.2,3.6-0.8c-0.4,0.7-0.8,1.4-1.2,2c-0.2,0.3-0.7,0.4-1,0.1
		C65.9,40.8,65.5,40.3,65,39.9z"/>
	<path fill="#FFFFFF" d="M85.6,43.9c1.4,1.5,2.6,3.3,2.5,5.4c0,1.8-1.1,3.3-2.5,4.3c-0.6,0.4-0.2,1.2,0,1.8c1.2,2.1,3.4,3.2,5,5
		c0.4,0.4,0.6,1,0.8,1.6c-1.3-1.9-3.4-3.1-5.1-4.6c-1.3-1.3-2.2-3.1-2-4.9c0.1-1.3,0.9-2.3,1.5-3.5c-1.3,1.2-2.1,2.9-2,4.7
		c-0.5-1.2-0.9-2.6-0.5-4c0.3-1.3,1.5-2.2,2.1-3.5C85.8,45.4,85.7,44.7,85.6,43.9z"/>
	<path fill="#FFFFFF" d="M95.2,46.1c0.5-0.2,1-0.5,1.4-0.8c-0.1,1.5-0.6,3.2-2,4.1c-1.1,0.8-2.4,0.6-3.7,0.7
		c-0.9,0.4-1.4,1.4-2.1,2.1c0.4-1.3,1.3-2.5,2.3-3.4c0.8-0.7,1.9-0.8,2.8-1.1c-1.2,0-2.4,0.4-3.4,1.1c0.4-0.8,1-1.5,1.8-2
		C93.2,46.3,94.3,46.5,95.2,46.1z"/>
	<path fill="#FFFFFF" d="M39,53.7c3.3-0.1,6-2.2,8.2-4.5c-1.4,2.7-3.9,4.9-6.9,5.3c-1.3,0.2-2.6-0.3-3.8-1c-1.1-0.7-2.1-1.4-3-2.3
		C35.2,52.4,36.9,53.7,39,53.7z"/>
	<path fill="#FFFFFF" d="M91.2,51.2c0.7-0.4,1.5-0.3,2.3-0.3c-0.3,0.7-0.7,1.6-1.6,1.8c-0.8,0.1-1.6,0-2.3,0.1
		C90.1,52.3,90.5,51.6,91.2,51.2z"/>
	<path fill="#FFFFFF" d="M62.2,51.3c1.2,2.1,1,4.7,0.6,7c-0.7,3.8-2.7,7.2-5.2,10.2c-1.8,2.1-3.6,4.2-5.9,5.8
		c2.6-2.7,5.3-5.4,7.1-8.7c1.2-2,2.1-4.2,2.7-6.5c-1.4,2.2-3.1,4.3-5.2,5.9c1.5-1.6,3-3.2,4-5.1C61.8,57.3,62.3,54.2,62.2,51.3z"/>
	<path fill="#D9D8D8" d="M33.1,57.3c0.3-0.1,0.3,0.5,0.1,0.6C32.9,58,32.8,57.4,33.1,57.3z"/>
	<path fill="#FFFFFF" d="M82.7,57.7c1.5-0.6,3.3-0.2,4.4,0.9c-1.2-0.5-2.6-0.3-3.8,0.2c1.2,0,2.4-0.4,3.5,0c1.1,0.5,2.2,1.1,3.1,2
		c-0.9-0.3-1.7-0.9-2.6-1c-1.2,0.3-2.4,1.1-3.7,0.8c-1.7-0.2-2.8-1.7-3.6-3.1C80.8,58,81.8,58.1,82.7,57.7z"/>
	<path fill="#C8C7C8" d="M33.4,58.5c0.3,0,0.3,0.5,0.1,0.7C33.2,59.2,33.2,58.7,33.4,58.5z"/>
	<path fill="#C8C6C6" d="M33.6,59.6c0.3,0,0.3,0.5,0.1,0.7C33.4,60.3,33.5,59.8,33.6,59.6z"/>
	<path fill="#CACACA" d="M33.8,60.7c0.3,0.1,0.3,0.2,0.1,0.5C33.7,61.1,33.6,61,33.8,60.7z"/>
	<path fill="#CFCCCD" d="M34,61.6c0.3,0,0.3,0.2,0.1,0.5C33.9,62,33.8,61.8,34,61.6z"/>
	<path fill="#CFCFCE" d="M34.3,62.4c0.3,0,0.3,0.5,0.4,0.7c0.1,0.1,0,0.7-0.2,0.4C34.3,63.2,34.1,62.8,34.3,62.4z"/>
	<path fill="#FFFFFF" d="M83.3,63.3c3.5-1,7.2-1,10.8-0.4c1.8,0.3,3.8,0.8,5,2.2c0.8,1,0.4,2.4,0,3.6c-0.8,2.7-2.4,5.3-4.9,6.7
		c-2.8,1.6-6.3,1.9-9.3,0.6c-1.1-0.5-2-1.3-2.7-2.2c-1.4-1.9-2.2-4.2-3.5-6.2c-0.7-1-2.2-1.4-3.3-1c-0.9,0.3-1.4,1.3-1,2.1
		c0.3,1.1,1.5,1.5,2.5,1.9c-1.1,0-2.3-0.2-3.1-1c-0.7-0.7-0.8-1.9-0.3-2.8c0.4-0.7,1.1-1.1,1.9-1.4c1.4-0.5,3-0.3,4.1,0.6
		C80.2,64.4,81.8,63.7,83.3,63.3z"/>
	<path fill="#231F20" d="M83,64.4c4.7-1.3,9.9-1.3,14.4,0.5c0.7,0.3,1.4,1,1.2,1.8c-0.6,2.9-1.8,5.9-4.3,7.6
		c-1.9,1.3-4.3,1.6-6.5,1.4c-2.1-0.2-4.1-1.5-5.2-3.3c-1.1-1.8-1.6-3.8-2.6-5.7c2.5,1,5.3,1.2,8,1.3c2.4,0,4.8,0,7.2-0.7
		c0.7-0.2,1.3-0.6,1.7-1.2c-4.2,1.5-8.8,1.4-13.2,0.7c-1.1-0.2-2.2-0.3-3-1C81.3,65.2,82.1,64.7,83,64.4z"/>
	<path fill="#C3C2C2" d="M34.7,63.9C35.4,63.9,34.3,64.6,34.7,63.9z"/>
	<path fill="#CFCFCE" d="M34.9,64.6C35.6,64.6,34.6,65.2,34.9,64.6z"/>
	<path fill="#D7D6D7" d="M35.1,65.2C35.8,65.2,34.8,65.8,35.1,65.2z"/>
	<path fill="#D6D5D5" d="M35.5,66.3C36.3,66.3,35.2,66.9,35.5,66.3z"/>
	<path fill="#CAC9C9" d="M35.8,66.9C35.9,67,35.9,67,35.8,66.9z"/>
	<path fill="#DAD9D9" d="M35.9,67.2c0.3,0.3,0.5,0.6,0.7,1c0.4,0.9,0.9,1.7,1.2,2.7C37,69.7,36.3,68.5,35.9,67.2z"/>
	<path fill="#D7D7D6" d="M42.1,76.9c0.1,0.1,0.3,0.2,0.4,0.2C42.4,77.4,41.8,77.2,42.1,76.9z"/>
</g>
</svg>
