<svg xmlns="http://www.w3.org/2000/svg" viewBox="0 0 140 105" enable-background="new 0 0 140 105"><defs><filter filterUnits="userSpaceOnUse" x="10" y="23.745" width="120" height="57.509"><feFlood result="back" flood-color="#fff" flood-opacity="1"/><feBlend in="SourceGraphic" in2="back"/></filter></defs><g mask="url(#SVGID_1_)"><path d="M77.08 73.59c-.022-.308.05-.585.334-.804.1-.076.18-.17.268-.255.392-.375.778-.76 1.18-1.13.252-.23.71-.24.987-.03.135.105.265.216.39.33.294.26.574.53.875.786.356.3.722.594 1.096.88.26.195.53.38.81.554.46.29.93.574 1.4.853.192.114.4.212.604.307.57.262 1.134.534 1.717.773.443.18.904.336 1.37.47.604.17 1.217.323 1.834.458.438.097.888.164 1.336.216.49.056.983.092 1.475.115 1.27.06 2.535.044 3.787-.17.45-.077.905-.137 1.347-.24.586-.133 1.17-.285 1.742-.457.49-.147.97-.322 1.44-.506.453-.176.892-.377 1.333-.573.178-.08.353-.165.52-.26.492-.288.984-.576 1.468-.874.276-.17.547-.35.8-.543.44-.337.87-.683 1.288-1.04.336-.284.638-.597.97-.885.134-.116.294-.228.47-.29.33-.118.67.004.933.27.38.38.765.756 1.16 1.124.266.246.485.5.456.855-.015.177-.027.353-.05.527-.023.185-.12.345-.27.482-.212.2-.423.403-.64.6-.288.26-.57.522-.874.77-.354.286-.718.567-1.093.836-.482.346-.965.693-1.474 1.01-.488.303-1 .575-1.515.844-.447.233-.903.456-1.37.66-.515.228-1.04.44-1.575.638-.44.163-.892.308-1.35.434-.628.173-1.264.33-1.902.474-.39.088-.787.156-1.185.203-.76.086-1.523.16-2.286.225-.33.028-.662.034-.993.025-.508-.012-1.018-.03-1.524-.075-.757-.065-1.513-.144-2.266-.236-.76-.095-1.5-.27-2.233-.46-.79-.21-1.573-.44-2.325-.737-.36-.143-.723-.28-1.073-.438-.518-.234-1.038-.467-1.536-.73-.56-.295-1.116-.6-1.636-.943-.68-.446-1.348-.912-1.978-1.407-.623-.49-1.194-1.025-1.786-1.543-.1-.088-.198-.18-.28-.28-.185-.22-.183-.473-.165-.69l-.01-.123zm14.286.786c-.72-.123-1.43-.267-2.128-.466-.693-.198-1.365-.43-2.003-.73-.488-.23-.982-.457-1.445-.72-.51-.29-.996-.615-1.478-.938-.665-.446-1.243-.97-1.808-1.5-.123-.117-.278-.22-.358-.354-.263-.443-.252-.912-.06-1.367.064-.15.263-.262.397-.394.408-.404.82-.804 1.22-1.214.277-.286.914-.304 1.196-.023.295.295.58.6.902.876.36.305.743.59 1.138.86.3.206.635.374.95.563.533.32 1.115.565 1.715.77.548.19 1.116.35 1.69.465.57.114 1.16.177 1.743.225.647.054 1.298.056 1.943-.052.5-.083 1.003-.154 1.5-.237.688-.115 1.33-.34 1.96-.59.385-.152.765-.32 1.12-.517.48-.268.94-.562 1.396-.86.265-.174.52-.365.75-.57.34-.307.657-.634.983-.952.26-.253.882-.236 1.14.018.464.462.94.917 1.417 1.37.183.172.326.36.327.592 0 .264-.016.532-.07.792-.026.13-.125.267-.233.37-.376.356-.757.712-1.164 1.044-.45.368-.915.728-1.406 1.055-.492.33-1.01.635-1.544.91-.53.27-1.09.507-1.652.727-.456.18-.928.342-1.41.458-.733.176-1.473.34-2.222.445-.695.096-1.407.107-1.853.138-1.065-.03-1.863-.057-2.655-.192zm1.636-6.56c-.534-.053-1.062-.12-1.58-.263-.666-.184-1.294-.426-1.886-.738-.247-.13-.497-.26-.72-.417-.35-.244-.686-.502-1.013-.767-.238-.19-.474-.39-.672-.613-.356-.4-.26-.864-.174-1.314.018-.096.097-.193.175-.27.493-.486.996-.965 1.49-1.45.313-.307.904-.31 1.213.004.082.084.15.177.235.26.5.482 1.084.882 1.773 1.15.558.215 1.15.344 1.773.355.607.012 1.2-.053 1.763-.246.285-.097.574-.197.833-.333.6-.314 1.104-.72 1.533-1.196.268-.298.89-.287 1.176-.004.443.44.894.875 1.354 1.303.266.248.432.518.385.862-.01.075-.04.152-.033.226.03.334-.134.587-.39.832-.6.57-1.253 1.088-2.002 1.512-.712.402-1.485.71-2.307.91-.696.172-1.417.232-2.205.276-.2-.022-.46-.047-.72-.073z" opacity=".96"/><path d="M14.228 31.288c-.018-.218-.02-.472.164-.69.083-.1.18-.193.28-.28.593-.518 1.164-1.055 1.787-1.544.63-.495 1.296-.96 1.976-1.407.52-.342 1.077-.648 1.636-.943.498-.263 1.02-.496 1.537-.73.35-.158.712-.295 1.072-.438.752-.3 1.534-.527 2.327-.735.733-.19 1.472-.365 2.232-.46.753-.09 1.51-.17 2.266-.234.505-.044 1.014-.063 1.523-.076.33-.01.665-.004.994.024.763.065 1.526.14 2.286.227.4.048.796.117 1.185.205.64.144 1.274.3 1.902.474.457.125.91.27 1.35.433.533.197 1.06.41 1.576.637.466.204.922.427 1.37.66.513.27 1.026.543 1.513.845.508.316.99.664 1.473 1.01.374.27.74.55 1.092.838.302.246.586.51.873.768.217.2.428.4.642.603.147.138.245.297.27.482.022.174.033.35.047.525.028.353-.19.608-.456.854-.396.368-.782.744-1.16 1.125-.265.263-.605.385-.935.267-.175-.062-.336-.174-.47-.29-.332-.288-.634-.6-.97-.886-.417-.355-.848-.7-1.287-1.04-.252-.192-.524-.37-.8-.54-.484-.3-.976-.586-1.47-.873-.165-.096-.34-.182-.518-.26-.44-.197-.88-.398-1.332-.574-.472-.184-.95-.36-1.44-.506-.574-.173-1.158-.325-1.745-.46-.44-.1-.896-.16-1.346-.237-1.25-.213-2.517-.228-3.786-.17-.493.023-.986.06-1.474.115-.45.052-.898.12-1.336.214-.617.132-1.23.285-1.834.457-.466.133-.927.288-1.37.47-.582.238-1.146.51-1.716.772-.206.094-.412.193-.604.306-.472.28-.94.563-1.4.854-.28.176-.55.36-.81.556-.373.285-.74.578-1.095.88-.3.253-.58.525-.875.786-.126.113-.256.224-.392.328-.275.21-.735.202-.988-.03-.4-.37-.787-.754-1.18-1.13-.088-.087-.168-.18-.267-.256-.283-.22-.356-.496-.333-.804.003-.03.004-.058.008-.122zm16.93-.855c.446.03 1.158.042 1.853.14.75.103 1.49.268 2.223.444.483.116.954.28 1.41.458.564.22 1.122.457 1.653.728.535.274 1.052.58 1.543.907.49.328.954.688 1.405 1.055.407.332.788.688 1.165 1.045.107.102.207.237.233.37.053.26.07.527.07.792-.002.232-.145.42-.328.593-.478.452-.953.907-1.418 1.37-.256.253-.88.27-1.14.016-.326-.317-.642-.643-.984-.95-.23-.205-.484-.396-.75-.57-.454-.3-.915-.592-1.396-.86-.354-.197-.734-.365-1.118-.52-.63-.25-1.274-.472-1.96-.587-.5-.083-1-.154-1.5-.237-.646-.108-1.297-.106-1.944-.052-.584.05-1.172.11-1.742.225-.575.115-1.143.276-1.69.464-.6.206-1.183.452-1.716.77-.316.19-.65.358-.95.563-.395.27-.78.556-1.138.86-.323.275-.608.582-.904.878-.282.28-.92.263-1.197-.024-.398-.41-.81-.81-1.22-1.213-.133-.132-.33-.244-.396-.396-.19-.453-.203-.923.06-1.366.08-.135.235-.237.358-.353.565-.532 1.144-1.055 1.808-1.5.484-.324.97-.647 1.48-.937.462-.264.956-.49 1.444-.72.638-.3 1.31-.533 2.003-.73.698-.2 1.407-.344 2.128-.467.793-.136 1.59-.163 2.653-.192zm-.298 6.68c.788.043 1.51.103 2.205.274.82.202 1.595.508 2.307.91.75.425 1.403.942 2.002 1.513.257.245.42.497.39.83-.007.075.022.15.032.227.048.344-.118.614-.385.862-.46.426-.91.86-1.353 1.3-.285.284-.908.294-1.176-.003-.43-.476-.934-.882-1.533-1.197-.26-.135-.548-.235-.833-.332-.564-.193-1.156-.257-1.763-.247-.62.013-1.214.14-1.77.358-.69.267-1.273.667-1.774 1.15-.085.082-.153.175-.235.26-.31.312-.9.31-1.212.003-.494-.484-.997-.963-1.49-1.45-.077-.076-.156-.173-.174-.27-.084-.45-.182-.912.176-1.313.197-.222.433-.422.67-.615.328-.264.664-.523 1.013-.766.224-.156.474-.287.72-.417.593-.313 1.22-.555 1.887-.74.518-.143 1.045-.21 1.58-.264.26-.028.52-.053.72-.073zM10 38.73c1.1-.264 2.837-.462 4.603-.462 2.52 0 4.14.495 5.356 1.615 1.01.857 1.62 2.175 1.62 3.922 0 2.142-1.246 4.02-3.3 4.878v.066c1.852.525 4.023 2.272 4.023 5.57 0 1.91-.666 3.36-1.65 4.45-1.36 1.415-3.56 2.074-6.745 2.074-1.738 0-3.07-.132-3.91-.264V38.73zm2.52 9.097h2.286c2.663 0 4.227-1.582 4.227-3.725 0-2.604-1.737-3.625-4.285-3.625-1.158 0-1.824.1-2.23.198v7.152zm0 10.645c.49.1 1.215.132 2.112.132 2.605 0 5.008-1.088 5.008-4.318 0-3.032-2.287-4.285-5.037-4.285H12.52v8.473zM38.4 52.54c0 5.9-3.59 8.47-6.977 8.47-3.792 0-6.716-3.163-6.716-8.206 0-5.34 3.07-8.47 6.948-8.47 4.024 0 6.745 3.328 6.745 8.206zm-11.117.165c0 3.494 1.766 6.13 4.255 6.13 2.432 0 4.256-2.603 4.256-6.195 0-2.703-1.187-6.13-4.198-6.13-3.01-.002-4.313 3.162-4.313 6.195zm26.432-15.46v19.28c0 1.42.03 3.034.116 4.12h-2.285l-.116-2.767h-.06c-.78 1.78-2.49 3.13-4.776 3.13-3.387 0-5.992-3.262-5.992-8.107-.028-5.305 2.867-8.57 6.283-8.57 2.142 0 3.59 1.155 4.227 2.44h.058v-9.524h2.547zM51.167 51.19c0-.363-.03-.857-.116-1.22-.375-1.846-1.764-3.362-3.675-3.362-2.635 0-4.198 2.637-4.198 6.164 0 3.23 1.39 5.9 4.14 5.9 1.708 0 3.27-1.285 3.735-3.46.088-.397.117-.792.117-1.254v-2.768zm14.533 9.46l-.202-2.01h-.087c-.78 1.252-2.285 2.372-4.283 2.372-2.837 0-4.285-2.274-4.285-4.58 0-3.857 3.012-5.967 8.425-5.934v-.33c0-1.32-.318-3.692-3.184-3.692-1.302 0-2.662.46-3.647 1.186l-.58-1.912c1.16-.857 2.838-1.417 4.604-1.417 4.284 0 5.327 3.33 5.327 6.528v5.966c0 1.384.058 2.736.232 3.823H65.7zm-.375-8.14c-2.78-.067-5.935.493-5.935 3.592 0 1.88 1.1 2.77 2.403 2.77 1.824 0 2.982-1.32 3.387-2.67.087-.298.145-.627.145-.924v-2.77zm6.66-13.778c1.1-.264 2.836-.462 4.602-.462 2.52 0 4.14.495 5.356 1.615 1.013.857 1.62 2.175 1.62 3.922 0 2.142-1.244 4.02-3.3 4.878v.066c1.854.525 4.025 2.272 4.025 5.57 0 1.91-.666 3.36-1.65 4.45-1.36 1.415-3.56 2.074-6.745 2.074-1.737 0-3.068-.132-3.908-.264V38.73zm2.517 9.097h2.287c2.66 0 4.225-1.582 4.225-3.725 0-2.604-1.737-3.625-4.285-3.625-1.157 0-1.823.1-2.228.198v7.152zm0 10.645c.492.1 1.216.132 2.113.132 2.605 0 5.008-1.088 5.008-4.318 0-3.032-2.287-4.285-5.037-4.285h-2.084v8.473zm25.88-5.932c0 5.9-3.59 8.47-6.976 8.47-3.792 0-6.716-3.163-6.716-8.206 0-5.34 3.07-8.47 6.948-8.47 4.024 0 6.745 3.328 6.745 8.206zm-11.115.165c0 3.494 1.766 6.13 4.255 6.13 2.432 0 4.256-2.603 4.256-6.195 0-2.703-1.187-6.13-4.198-6.13-3.01-.002-4.313 3.162-4.313 6.195zm26.43-15.46v19.28c0 1.42.03 3.034.117 4.12h-2.287l-.116-2.767h-.056c-.782 1.78-2.49 3.13-4.777 3.13-3.387 0-5.992-3.262-5.992-8.107-.03-5.305 2.866-8.57 6.282-8.57 2.142 0 3.59 1.155 4.227 2.44h.058v-9.524h2.548zm-2.546 13.943c0-.363-.027-.857-.114-1.22-.377-1.846-1.766-3.362-3.677-3.362-2.636 0-4.2 2.637-4.2 6.164 0 3.23 1.39 5.9 4.14 5.9 1.71 0 3.27-1.285 3.736-3.46.087-.397.116-.792.116-1.254v-2.768zm14.534 9.46l-.203-2.01h-.085c-.782 1.252-2.287 2.372-4.285 2.372-2.838 0-4.286-2.274-4.286-4.58 0-3.857 3.01-5.967 8.424-5.934v-.33c0-1.32-.318-3.692-3.184-3.692-1.303 0-2.663.46-3.648 1.186l-.58-1.912c1.16-.857 2.838-1.417 4.604-1.417 4.284 0 5.327 3.33 5.327 6.528v5.966c0 1.384.058 2.736.232 3.823h-2.317zm-.376-8.14c-2.78-.067-5.935.493-5.935 3.592 0 1.88 1.1 2.77 2.403 2.77 1.824 0 2.982-1.32 3.387-2.67.087-.298.145-.627.145-.924v-2.77z"/></g></svg>