<?xml version="1.0" encoding="utf-8"?>
<!-- Generator: Adobe Illustrator 18.1.1, SVG Export Plug-In . SVG Version: 6.00 Build 0)  -->
<svg version="1.1" id="Layer_1" xmlns="http://www.w3.org/2000/svg" xmlns:xlink="http://www.w3.org/1999/xlink" x="0px" y="0px"
	 viewBox="0 0 140 105" enable-background="new 0 0 140 105" xml:space="preserve">
<g>
	
		<path fill="none" stroke="#7E1416" stroke-width="0.63" stroke-linecap="round" stroke-linejoin="round" stroke-miterlimit="10" d="
		M66,36.9l18.6-18.6c0.3-0.3,0.7-0.3,0.9,0l19.1,20v-7.5v-0.4h7.3v15.5l16.7,17.5h-17.7c-0.2,0-0.3,0.2-0.3,0.3v23
		c0,0.2-0.2,0.3-0.3,0.3H57.1c-0.2,0-0.3-0.2-0.3-0.3l0-4.8c0-0.2-0.2-0.3-0.3-0.3H27.4l0,0V50.9c0-0.2-0.2-0.3-0.3-0.3H11.7
		c-0.3,0-0.5-0.4-0.2-0.6l42.8-31.8c0.3-0.2,0.6-0.2,0.9,0.1l14.4,14.4"/>
	<g>
		<path fill="#7E1416" d="M35.3,53.2c-1,0-1.5,0.3-1.5,1c0,0.3,0.1,0.5,0.3,0.7c0.2,0.1,0.8,0.3,1.6,0.4c0.8,0.1,1.4,0.3,1.7,0.6
			c0.3,0.3,0.5,0.7,0.5,1.4s-0.2,1.2-0.7,1.6c-0.5,0.3-1.1,0.5-2,0.5c-0.6,0-1.2-0.1-2-0.2l-0.4-0.1l0.1-0.9c1,0.2,1.8,0.2,2.4,0.2
			c0.5,0,0.9-0.1,1.2-0.3c0.3-0.2,0.4-0.5,0.4-0.9c0-0.4-0.1-0.7-0.4-0.8c-0.2-0.1-0.8-0.3-1.6-0.4c-0.8-0.1-1.4-0.3-1.7-0.6
			c-0.3-0.2-0.5-0.7-0.5-1.4c0-0.7,0.2-1.2,0.7-1.5c0.5-0.3,1.1-0.5,1.8-0.5c0.6,0,1.3,0.1,2.1,0.2l0.4,0.1l0,0.9
			C36.7,53.3,35.9,53.2,35.3,53.2z"/>
		<path fill="#7E1416" d="M43.1,53.3h-2.2v3.3c0,0.8,0.1,1.3,0.2,1.6c0.1,0.2,0.4,0.4,0.8,0.4l1.2-0.1l0.1,0.9
			c-0.6,0.1-1.1,0.2-1.4,0.2c-0.7,0-1.2-0.2-1.5-0.5c-0.3-0.3-0.4-1-0.4-2v-3.6h-1v-0.9h1v-2.1h1v2.1h2.2V53.3z"/>
		<path fill="#7E1416" d="M49.2,54.5V58c0,0.3,0.3,0.5,0.8,0.6l0,0.8c-0.7,0-1.3-0.2-1.6-0.5c-0.8,0.4-1.6,0.5-2.5,0.5
			c-0.6,0-1.1-0.2-1.4-0.5C44.1,58.5,44,58,44,57.3c0-0.7,0.2-1.2,0.5-1.5s0.9-0.5,1.6-0.6l2.2-0.2v-0.6c0-0.5-0.1-0.8-0.3-1
			c-0.2-0.2-0.5-0.3-0.8-0.3c-0.7,0-1.5,0-2.3,0.1l-0.4,0l0-0.8c1-0.2,1.9-0.3,2.7-0.3c0.8,0,1.3,0.2,1.7,0.5
			C49.1,53.2,49.2,53.7,49.2,54.5z M45,57.3c0,0.8,0.3,1.3,1,1.3c0.6,0,1.2-0.1,1.8-0.3l0.3-0.1v-2.3l-2,0.2c-0.4,0-0.7,0.2-0.9,0.4
			C45.1,56.6,45,56.9,45,57.3z"/>
		<path fill="#7E1416" d="M51.3,59.3v-6.9h1v0.9c0.8-0.6,1.6-0.9,2.5-1.1v1c-0.4,0.1-0.8,0.2-1.2,0.3s-0.7,0.3-1,0.4l-0.3,0.2v5
			H51.3z"/>
		<path fill="#7E1416" d="M59.6,53.3h-2.2v3.3c0,0.8,0.1,1.3,0.2,1.6c0.1,0.2,0.4,0.4,0.8,0.4l1.2-0.1l0.1,0.9
			c-0.6,0.1-1.1,0.2-1.4,0.2c-0.7,0-1.2-0.2-1.5-0.5c-0.3-0.3-0.4-1-0.4-2v-3.6h-1v-0.9h1v-2.1h1v2.1h2.2V53.3z"/>
		<path fill="#7E1416" d="M65.1,52.4h1v6.9h-1v-0.5c-0.7,0.4-1.4,0.6-2,0.6c-0.9,0-1.6-0.2-1.9-0.7c-0.3-0.5-0.5-1.4-0.5-2.7v-3.6h1
			V56c0,1,0.1,1.7,0.3,2c0.2,0.3,0.6,0.5,1.2,0.5c0.3,0,0.6,0,0.9-0.1c0.3-0.1,0.5-0.2,0.7-0.3l0.2-0.1V52.4z"/>
		<path fill="#7E1416" d="M68.1,62.3v-9.9h1v0.5c0.7-0.4,1.4-0.6,2.1-0.6c0.9,0,1.5,0.3,1.9,0.8c0.4,0.6,0.6,1.5,0.6,2.7
			c0,1.3-0.2,2.2-0.7,2.7s-1.2,0.8-2.3,0.8c-0.6,0-1.1-0.1-1.5-0.2v3.1H68.1z M71.1,53.2c-0.3,0-0.6,0-0.9,0.1
			c-0.3,0.1-0.6,0.2-0.7,0.3l-0.3,0.1v4.6c0.6,0.1,1.1,0.2,1.5,0.2c0.7,0,1.3-0.2,1.6-0.6c0.3-0.4,0.4-1.1,0.4-2.1
			c0-1-0.1-1.6-0.4-2C72,53.4,71.6,53.2,71.1,53.2z"/>
		<path fill="#7E1416" d="M77.8,52.4h1.1l1.6,6H81l1.7-6h1.1l-1.9,6.9h-2.1L77.8,52.4z"/>
		<path fill="#7E1416" d="M85,50.8v-1.2h1v1.2H85z M85,59.3v-6.9h1v6.9H85z"/>
		<path fill="#7E1416" d="M88.1,59.3v-9.9h1v9.9H88.1z"/>
		<path fill="#7E1416" d="M91.3,59.3v-9.9h1v9.9H91.3z"/>
		<path fill="#7E1416" d="M99.2,54.5V58c0,0.3,0.3,0.5,0.8,0.6l0,0.8c-0.7,0-1.3-0.2-1.6-0.5c-0.8,0.4-1.6,0.5-2.5,0.5
			c-0.6,0-1.1-0.2-1.4-0.5c-0.3-0.4-0.5-0.9-0.5-1.5c0-0.7,0.2-1.2,0.5-1.5c0.3-0.3,0.9-0.5,1.6-0.6l2.2-0.2v-0.6
			c0-0.5-0.1-0.8-0.3-1c-0.2-0.2-0.5-0.3-0.8-0.3c-0.7,0-1.5,0-2.3,0.1l-0.4,0l0-0.8c1-0.2,1.9-0.3,2.7-0.3s1.3,0.2,1.7,0.5
			C99,53.2,99.2,53.7,99.2,54.5z M95,57.3c0,0.8,0.3,1.3,1,1.3c0.6,0,1.2-0.1,1.8-0.3l0.3-0.1v-2.3l-2,0.2c-0.4,0-0.7,0.2-0.9,0.4
			C95.1,56.6,95,56.9,95,57.3z"/>
		<path fill="#7E1416" d="M103.9,62.5c-1.1,0-1.9-0.1-2.3-0.4c-0.4-0.3-0.7-0.8-0.7-1.6c0-0.4,0.1-0.7,0.2-0.9
			c0.2-0.2,0.4-0.5,0.8-0.8c-0.3-0.2-0.4-0.5-0.4-0.9c0-0.2,0.1-0.4,0.3-0.9l0.1-0.2c-0.7-0.3-1.1-1-1.1-2.1c0-1.6,0.9-2.3,2.6-2.3
			c0.4,0,0.8,0,1.2,0.1l0.2,0l2-0.1v0.9l-1.3,0c0.3,0.3,0.5,0.8,0.5,1.4c0,0.9-0.2,1.5-0.6,1.8c-0.4,0.3-1.1,0.5-2,0.5
			c-0.2,0-0.5,0-0.7-0.1c-0.2,0.4-0.2,0.7-0.2,0.8c0,0.3,0.1,0.5,0.3,0.5c0.2,0.1,0.7,0.1,1.6,0.1c0.9,0,1.5,0.1,1.9,0.4
			c0.4,0.3,0.6,0.8,0.6,1.6C106.9,61.8,105.9,62.5,103.9,62.5z M102,60.3c0,0.5,0.1,0.8,0.4,1s0.8,0.3,1.5,0.3
			c0.7,0,1.2-0.1,1.6-0.3c0.3-0.2,0.5-0.5,0.5-1s-0.1-0.8-0.3-0.9c-0.2-0.1-0.7-0.2-1.3-0.2l-1.5-0.1c-0.3,0.2-0.5,0.4-0.6,0.6
			S102,60.1,102,60.3z M102,54.6c0,0.5,0.1,0.9,0.4,1.2c0.2,0.2,0.6,0.3,1.2,0.3c0.6,0,1-0.1,1.2-0.3c0.2-0.2,0.4-0.6,0.4-1.2
			c0-0.5-0.1-0.9-0.4-1.2c-0.2-0.2-0.6-0.3-1.2-0.3c-0.6,0-1,0.1-1.2,0.3C102.2,53.7,102,54.1,102,54.6z"/>
		<path fill="#7E1416" d="M113,58.4l0.4,0l0,0.8c-1,0.1-1.9,0.2-2.7,0.2c-1,0-1.7-0.3-2.1-0.9c-0.4-0.6-0.6-1.5-0.6-2.7
			c0-2.4,1-3.6,2.9-3.6c0.9,0,1.6,0.3,2.1,0.8c0.5,0.5,0.7,1.3,0.7,2.4l-0.1,0.8H109c0,0.8,0.1,1.3,0.4,1.7c0.3,0.4,0.8,0.5,1.4,0.5
			C111.6,58.5,112.3,58.5,113,58.4z M112.6,55.4c0-0.8-0.1-1.4-0.4-1.8c-0.3-0.3-0.7-0.5-1.3-0.5c-0.6,0-1.1,0.2-1.4,0.5
			c-0.3,0.4-0.5,1-0.5,1.8H112.6z"/>
	</g>
</g>
</svg>
