<?xml version="1.0" encoding="utf-8"?>
<!-- Generator: Adobe Illustrator 18.1.1, SVG Export Plug-In . SVG Version: 6.00 Build 0)  -->
<svg version="1.1" id="Layer_1" xmlns="http://www.w3.org/2000/svg" xmlns:xlink="http://www.w3.org/1999/xlink" x="0px" y="0px"
	 viewBox="0 0 140 105" enable-background="new 0 0 140 105" xml:space="preserve">
<g>
	<g>
		<g>
			<path fill="#237F71" d="M49,45c2,0,3.5,0.5,4.7,1.5s1.7,2.3,1.7,4c0,1.7-0.6,3-1.7,4c-1.1,1-2.6,1.5-4.7,1.5h-4v5.4l2.1,0.3v1.6
				h-6.7v-1.6l2.1-0.3V46.9l-2.1-0.3V45h2.1H49z M45,54h4c1.3,0,2.2-0.3,2.8-1s0.9-1.5,0.9-2.5c0-1-0.3-1.9-0.9-2.5s-1.6-1-2.8-1h-4
				V54z"/>
		</g>
		<g>
			<path fill="#237F71" d="M66.2,63.3c-0.1-0.4-0.1-0.7-0.2-1c0-0.3-0.1-0.6-0.1-0.9c-0.5,0.6-1.1,1.1-1.8,1.5
				c-0.7,0.4-1.5,0.6-2.3,0.6c-1.5,0-2.5-0.3-3.3-1s-1.1-1.7-1.1-2.9c0-1.3,0.5-2.3,1.6-3s2.5-1.1,4.4-1.1H66V54
				c0-0.8-0.3-1.4-0.8-1.9c-0.5-0.5-1.2-0.7-2.1-0.7c-0.6,0-1.2,0.1-1.7,0.2c-0.5,0.2-0.9,0.4-1.2,0.6l-0.3,1.4h-2v-2.6
				c0.6-0.5,1.4-0.9,2.3-1.2c0.9-0.3,1.9-0.4,2.9-0.4c1.6,0,2.8,0.4,3.8,1.2c1,0.8,1.5,1.9,1.5,3.4v6.6c0,0.2,0,0.3,0,0.5
				s0,0.3,0,0.5l1,0.1v1.6L66.2,63.3L66.2,63.3z M62.2,61.5c0.8,0,1.6-0.2,2.3-0.6c0.7-0.4,1.2-0.9,1.5-1.4v-2.2h-2.7
				c-1,0-1.8,0.2-2.5,0.7c-0.6,0.5-0.9,1-0.9,1.7c0,0.6,0.2,1.1,0.6,1.4C60.8,61.3,61.4,61.5,62.2,61.5z"/>
		</g>
		<g>
			<path fill="#237F71" d="M71.6,51.3v-1.6H76l0.2,2c0.4-0.7,0.9-1.2,1.5-1.6c0.6-0.4,1.2-0.6,2-0.6c0.2,0,0.4,0,0.6,0
				c0.2,0,0.4,0.1,0.5,0.1l-0.3,2.3L79,51.8c-0.7,0-1.2,0.2-1.7,0.5c-0.5,0.3-0.8,0.7-1.1,1.3v7.8l2.1,0.3v1.6h-6.7v-1.6l2.1-0.3
				v-9.7L71.6,51.3z"/>
		</g>
		<g>
			<path fill="#237F71" d="M91.6,63.3c-0.1-0.4-0.1-0.7-0.2-1c0-0.3-0.1-0.6-0.1-0.9c-0.5,0.6-1.1,1.1-1.8,1.5
				c-0.7,0.4-1.5,0.6-2.3,0.6c-1.5,0-2.5-0.3-3.3-1c-0.8-0.7-1.1-1.7-1.1-2.9c0-1.3,0.5-2.3,1.6-3s2.5-1.1,4.4-1.1h2.6V54
				c0-0.8-0.3-1.4-0.8-1.9c-0.5-0.5-1.2-0.7-2.1-0.7c-0.6,0-1.2,0.1-1.7,0.2c-0.5,0.2-0.9,0.4-1.2,0.6l-0.3,1.4h-2v-2.6
				c0.6-0.5,1.4-0.9,2.3-1.2c0.9-0.3,1.9-0.4,2.9-0.4c1.6,0,2.8,0.4,3.8,1.2c1,0.8,1.5,1.9,1.5,3.4v6.6c0,0.2,0,0.3,0,0.5
				s0,0.3,0,0.5l1,0.1v1.6L91.6,63.3L91.6,63.3z M87.5,61.5c0.8,0,1.6-0.2,2.3-0.6c0.7-0.4,1.2-0.9,1.5-1.4v-2.2h-2.7
				c-1,0-1.8,0.2-2.5,0.7c-0.6,0.5-0.9,1-0.9,1.7c0,0.6,0.2,1.1,0.6,1.4C86.2,61.3,86.7,61.5,87.5,61.5z"/>
		</g>
		<g>
			<path fill="#237F71" d="M96.7,66.9l2.1-0.3v-15l-2.1-0.3v-1.6h4.3l0.2,1.7c0.5-0.6,1-1.1,1.7-1.4c0.7-0.3,1.4-0.5,2.3-0.5
				c1.7,0,3.1,0.7,4,2c0.9,1.3,1.4,3.1,1.4,5.3V57c0,2-0.5,3.5-1.4,4.7c-1,1.2-2.3,1.8-4,1.8c-0.9,0-1.6-0.1-2.3-0.4
				c-0.6-0.3-1.2-0.7-1.6-1.2v4.7l2.1,0.3v1.6h-6.7L96.7,66.9L96.7,66.9z M108,56.7c0-1.5-0.3-2.8-0.9-3.8c-0.6-1-1.5-1.5-2.7-1.5
				c-0.7,0-1.3,0.2-1.8,0.5c-0.5,0.3-0.9,0.8-1.2,1.3v6.6c0.3,0.6,0.7,1,1.2,1.3c0.5,0.3,1.1,0.5,1.9,0.5c1.2,0,2.1-0.4,2.7-1.3
				c0.6-0.9,0.9-2,0.9-3.3L108,56.7L108,56.7z"/>
		</g>
		<g>
			<path fill="#575757" d="M112.9,61.7l2.1-0.3v-9.7l-2.1-0.3v-1.6h4.6v11.7l2.1,0.3v1.6h-6.7L112.9,61.7L112.9,61.7z M117.5,46.2
				H115v-2.5h2.5V46.2z"/>
		</g>
		<g>
			<path fill="#575757" d="M125.9,46.4v3.3h2.6v1.8h-2.6v8.3c0,0.6,0.1,1.1,0.4,1.3c0.3,0.3,0.6,0.4,1.1,0.4c0.2,0,0.5,0,0.8-0.1
				c0.3,0,0.5-0.1,0.7-0.1l0.3,1.7c-0.2,0.2-0.6,0.3-1.1,0.4c-0.5,0.1-0.9,0.1-1.4,0.1c-1,0-1.8-0.3-2.4-0.9
				c-0.6-0.6-0.9-1.6-0.9-2.9v-8.3h-2.2v-1.8h2.2v-3.3H125.9z"/>
		</g>
	</g>
	<g>
		<g>
			<g>
				<defs>
					<path id="SVGID_1_" d="M14,43.2h4.4v4.2h4.4v-4.2h4.4v4.2h4.4v-4.2h4.4v4.2l-4.4,5.2v12.2c-4.3-1.6-8.8-1.5-13.3,0V52.7
						L14,47.4C14,47.4,14,43.2,14,43.2z"/>
				</defs>
				<clipPath id="SVGID_2_">
					<use xlink:href="#SVGID_1_"  overflow="visible"/>
				</clipPath>
				<rect x="14" y="43.2" clip-path="url(#SVGID_2_)" fill="#FFFFFF" width="11.1" height="21.6"/>
				<rect x="25" y="43.2" clip-path="url(#SVGID_2_)" fill="#FFFFFF" width="0" height="21.6"/>
				<rect x="25" y="43.2" clip-path="url(#SVGID_2_)" fill="#FFFFFF" width="0" height="21.6"/>
				<rect x="25" y="43.2" clip-path="url(#SVGID_2_)" fill="#FFFFFF" width="0" height="21.6"/>
				<rect x="25" y="43.2" clip-path="url(#SVGID_2_)" fill="#FDFEFD" width="0" height="21.6"/>
				<rect x="25" y="43.2" clip-path="url(#SVGID_2_)" fill="#FCFDFC" width="0" height="21.6"/>
				<rect x="25" y="43.2" clip-path="url(#SVGID_2_)" fill="#F9FCFC" width="0" height="21.6"/>
				<rect x="25" y="43.2" clip-path="url(#SVGID_2_)" fill="#F8FCFA" width="0" height="21.6"/>
				<rect x="25" y="43.2" clip-path="url(#SVGID_2_)" fill="#F6FBF9" width="0" height="21.6"/>
				<rect x="25" y="43.2" clip-path="url(#SVGID_2_)" fill="#F6FBF9" width="0" height="21.6"/>
				<rect x="25" y="43.2" clip-path="url(#SVGID_2_)" fill="#F5FBF8" width="0" height="21.6"/>
				<rect x="25" y="43.2" clip-path="url(#SVGID_2_)" fill="#F5FBF8" width="0" height="21.6"/>
				<rect x="25" y="43.2" clip-path="url(#SVGID_2_)" fill="#F4FAF6" width="0" height="21.6"/>
				<rect x="25" y="43.2" clip-path="url(#SVGID_2_)" fill="#F3FAF6" width="0" height="21.6"/>
				<rect x="25" y="43.2" clip-path="url(#SVGID_2_)" fill="#F2F9F5" width="0" height="21.6"/>
				<rect x="25" y="43.2" clip-path="url(#SVGID_2_)" fill="#F1F9F5" width="0" height="21.6"/>
				<rect x="25" y="43.2" clip-path="url(#SVGID_2_)" fill="#F0F8F4" width="0" height="21.6"/>
				<rect x="25" y="43.2" clip-path="url(#SVGID_2_)" fill="#F0F8F4" width="0" height="21.6"/>
				<rect x="25" y="43.2" clip-path="url(#SVGID_2_)" fill="#EFF8F3" width="0" height="21.6"/>
				<rect x="25.1" y="43.2" clip-path="url(#SVGID_2_)" fill="#EEF7F2" width="0" height="21.6"/>
				<rect x="25.1" y="43.2" clip-path="url(#SVGID_2_)" fill="#EDF6F1" width="0" height="21.6"/>
				<rect x="25.1" y="43.2" clip-path="url(#SVGID_2_)" fill="#EBF6F1" width="0" height="21.6"/>
				<rect x="25.1" y="43.2" clip-path="url(#SVGID_2_)" fill="#EBF6EF" width="0" height="21.6"/>
				<rect x="25.1" y="43.2" clip-path="url(#SVGID_2_)" fill="#EAF5EF" width="0" height="21.6"/>
				<rect x="25.1" y="43.2" clip-path="url(#SVGID_2_)" fill="#E9F5EE" width="0" height="21.6"/>
				<rect x="25.1" y="43.2" clip-path="url(#SVGID_2_)" fill="#E8F4ED" width="0" height="21.6"/>
				<rect x="25.1" y="43.2" clip-path="url(#SVGID_2_)" fill="#E7F4ED" width="0" height="21.6"/>
				<rect x="25.1" y="43.2" clip-path="url(#SVGID_2_)" fill="#E6F3EC" width="0" height="21.6"/>
				<rect x="25.1" y="43.2" clip-path="url(#SVGID_2_)" fill="#E6F3EC" width="0" height="21.6"/>
				<rect x="25.1" y="43.2" clip-path="url(#SVGID_2_)" fill="#E5F3EB" width="0" height="21.6"/>
				<rect x="25.1" y="43.2" clip-path="url(#SVGID_2_)" fill="#E4F2EA" width="0" height="21.6"/>
				<rect x="25.1" y="43.2" clip-path="url(#SVGID_2_)" fill="#E3F2EA" width="0" height="21.6"/>
				<rect x="25.1" y="43.2" clip-path="url(#SVGID_2_)" fill="#E2F2E9" width="0" height="21.6"/>
				<rect x="25.1" y="43.2" clip-path="url(#SVGID_2_)" fill="#E1F1E7" width="0" height="21.6"/>
				<rect x="25.1" y="43.2" clip-path="url(#SVGID_2_)" fill="#E0F1E6" width="0" height="21.6"/>
				<rect x="25.1" y="43.2" clip-path="url(#SVGID_2_)" fill="#DFF0E5" width="0" height="21.6"/>
				<rect x="25.1" y="43.2" clip-path="url(#SVGID_2_)" fill="#DEF0E5" width="0" height="21.6"/>
				<rect x="25.1" y="43.2" clip-path="url(#SVGID_2_)" fill="#DDEFE4" width="0" height="21.6"/>
				<rect x="25.1" y="43.2" clip-path="url(#SVGID_2_)" fill="#DCEFE3" width="0" height="21.6"/>
				<rect x="25.1" y="43.2" clip-path="url(#SVGID_2_)" fill="#DCEFE3" width="0" height="21.6"/>
				<rect x="25.1" y="43.2" clip-path="url(#SVGID_2_)" fill="#DBEFE2" width="0" height="21.6"/>
				<rect x="25.1" y="43.2" clip-path="url(#SVGID_2_)" fill="#D9EEE2" width="0" height="21.6"/>
				<rect x="25.1" y="43.2" clip-path="url(#SVGID_2_)" fill="#D8EDE1" width="0" height="21.6"/>
				<rect x="25.1" y="43.2" clip-path="url(#SVGID_2_)" fill="#D7ECE0" width="0" height="21.6"/>
				<rect x="25.1" y="43.2" clip-path="url(#SVGID_2_)" fill="#D6ECE0" width="0" height="21.6"/>
				<rect x="25.1" y="43.2" clip-path="url(#SVGID_2_)" fill="#D5ECDE" width="0" height="21.6"/>
				<rect x="25.1" y="43.2" clip-path="url(#SVGID_2_)" fill="#D5ECDE" width="0" height="21.6"/>
				<rect x="25.1" y="43.2" clip-path="url(#SVGID_2_)" fill="#D3EBDD" width="0" height="21.6"/>
				<rect x="25.1" y="43.2" clip-path="url(#SVGID_2_)" fill="#D3EBDD" width="11.1" height="21.6"/>
			</g>
			<path fill="#237F71" d="M34.9,69.3l-4.2-1.6c-3.5-1.3-7.2-1.3-11.3,0l-4.1,1.3V53.8l-4.4-5.2v-8.6h28.5v8.6l-4.4,5.2V69.3z
				 M20.8,50.6L20.8,50.6l0.8,0.9v9.3c2.4-0.4,4.7-0.4,7-0.1v-9.3l0.8-0.9H20.8z"/>
		</g>
		<g>
			<path fill="#FFFFFF" stroke="#237F71" stroke-miterlimit="10" d="M33.7,47.3"/>
		</g>
		<g>
			<path fill="none" stroke="#237F71" stroke-width="3" stroke-miterlimit="10" d="M20.9,40.7"/>
		</g>
		<g>
			<rect x="14.4" y="39.2" fill="#237F71" width="5.4" height="4.1"/>
		</g>
		<g>
			<polygon fill="#D3EBDD" points="21.5,40.3 17.1,41.4 17.1,39.2 			"/>
			<polygon fill="#237F71" points="14.4,44.9 14.4,35.7 32.2,40.3 			"/>
		</g>
		<g>
			<path fill="none" stroke="#237F71" stroke-miterlimit="10" d="M25.1,43.4"/>
		</g>
		<g id="XMLID_21_">
			<path fill="#237F71" d="M25.1,43.4"/>
		</g>
	</g>
</g>
</svg>
