<?xml version="1.0" encoding="iso-8859-1"?>
<!-- Generator: Adobe Illustrator 18.1.1, SVG Export Plug-In . SVG Version: 6.00 Build 0)  -->
<!DOCTYPE svg PUBLIC "-//W3C//DTD SVG 1.1//EN" "http://www.w3.org/Graphics/SVG/1.1/DTD/svg11.dtd">
<svg version="1.1" xmlns="http://www.w3.org/2000/svg" xmlns:xlink="http://www.w3.org/1999/xlink" x="0px" y="0px"
	 viewBox="0 0 140 105" style="enable-background:new 0 0 140 105;" xml:space="preserve">
<g id="pixel">
	<g>
		<g>
			<path style="fill:#CC0000;" d="M48.94,94.159c0,0.231-0.082,0.429-0.247,0.594C48.529,94.918,48.331,95,48.099,95
				c-0.231,0-0.429-0.082-0.594-0.247c-0.165-0.165-0.247-0.363-0.247-0.594v-10.09c0-1.626,0.574-3.013,1.724-4.162
				c1.149-1.149,2.537-1.724,4.162-1.724c1.626,0,3.013,0.575,4.162,1.724c1.149,1.149,1.724,2.537,1.724,4.162
				c0,1.626-0.575,3.013-1.724,4.162c-1.149,1.149-2.537,1.724-4.162,1.724c-1.626,0-3.013-0.574-4.162-1.724
				c-0.014-0.014-0.028-0.028-0.042-0.042V94.159z M48.94,84.069c0,1.163,0.41,2.155,1.23,2.975s1.811,1.23,2.975,1.23
				c1.163,0,2.155-0.41,2.975-1.23s1.23-1.811,1.23-2.975c0-1.163-0.41-2.155-1.23-2.975s-1.811-1.23-2.975-1.23
				c-1.163,0-2.155,0.41-2.975,1.23S48.94,82.906,48.94,84.069z M63.445,75.66c0,0.287-0.103,0.534-0.31,0.741
				c-0.207,0.207-0.454,0.31-0.741,0.31c-0.287,0-0.534-0.103-0.741-0.31c-0.207-0.207-0.31-0.454-0.31-0.741
				c0-0.287,0.103-0.534,0.31-0.741c0.207-0.207,0.454-0.31,0.741-0.31c0.287,0,0.534,0.103,0.741,0.31
				C63.342,75.126,63.445,75.373,63.445,75.66z M61.553,79.024c0-0.231,0.082-0.429,0.247-0.594
				c0.165-0.165,0.363-0.247,0.594-0.247s0.429,0.082,0.594,0.247c0.165,0.165,0.247,0.363,0.247,0.594v10.09
				c0,0.231-0.082,0.429-0.247,0.594c-0.165,0.165-0.363,0.247-0.594,0.247s-0.429-0.082-0.594-0.247
				c-0.165-0.165-0.247-0.363-0.247-0.594V79.024z M69.701,84.058l-3.752-4.488c-0.133-0.154-0.2-0.336-0.2-0.547
				c0-0.231,0.082-0.429,0.247-0.594c0.165-0.165,0.363-0.247,0.594-0.247s0.438,0.088,0.62,0.263l3.584,4.299l3.584-4.299
				c0.182-0.175,0.389-0.263,0.62-0.263c0.231,0,0.429,0.082,0.594,0.247c0.165,0.165,0.247,0.363,0.247,0.594
				c0,0.21-0.067,0.393-0.2,0.547l-3.752,4.488l3.784,4.541c0.112,0.147,0.168,0.319,0.168,0.515c0,0.231-0.082,0.429-0.247,0.594
				c-0.165,0.165-0.363,0.247-0.594,0.247c-0.231,0-0.427-0.084-0.589-0.252l-3.616-4.33l-3.616,4.33
				c-0.161,0.168-0.357,0.252-0.589,0.252s-0.429-0.082-0.594-0.247c-0.165-0.165-0.247-0.363-0.247-0.594
				c0-0.196,0.056-0.368,0.168-0.515L69.701,84.058z M86.1,87.275c0.154-0.119,0.329-0.179,0.526-0.179
				c0.231,0,0.429,0.082,0.594,0.247c0.165,0.165,0.247,0.363,0.247,0.594s-0.081,0.431-0.242,0.599
				c-1.086,0.946-2.365,1.419-3.836,1.419c-1.626,0-3.013-0.574-4.162-1.724c-1.149-1.149-1.724-2.537-1.724-4.162
				c0-1.626,0.574-3.013,1.724-4.162c1.149-1.149,2.537-1.724,4.162-1.724c1.626,0,3.013,0.575,4.162,1.724
				c1.149,1.149,1.724,2.537,1.724,4.162c0,0.231-0.082,0.429-0.247,0.594c-0.165,0.165-0.363,0.247-0.594,0.247h-9.176
				c0.154,0.806,0.539,1.517,1.156,2.134c0.82,0.82,1.811,1.23,2.975,1.23C84.439,88.273,85.343,87.94,86.1,87.275L86.1,87.275z
				 M87.519,83.228c-0.154-0.806-0.54-1.517-1.156-2.134c-0.82-0.82-1.811-1.23-2.975-1.23c-1.163,0-2.155,0.41-2.975,1.23
				c-0.617,0.617-1.002,1.328-1.156,2.134H87.519z M91.797,73.979c0-0.231,0.082-0.429,0.247-0.594
				c0.165-0.165,0.363-0.247,0.594-0.247c0.231,0,0.429,0.082,0.594,0.247c0.165,0.165,0.247,0.363,0.247,0.594v15.135
				c0,0.231-0.082,0.429-0.247,0.594c-0.165,0.165-0.363,0.247-0.594,0.247c-0.231,0-0.429-0.082-0.594-0.247
				c-0.165-0.165-0.247-0.363-0.247-0.594V73.979z"/>
		</g>
		<g>
			<g>
				<polygon style="fill:#E51937;" points="81.194,48.367 75.47,58.934 89.119,66.86 95.724,55.412 90.44,51.89 				"/>
			</g>
			<g>
				<path d="M89.119,67.128c-0.047,0-0.094-0.013-0.135-0.036l-13.649-7.925c-0.125-0.073-0.171-0.233-0.102-0.361l5.724-10.567
					c0.065-0.119,0.208-0.17,0.333-0.123l9.246,3.522l5.337,3.551c0.118,0.078,0.155,0.235,0.084,0.358l-6.604,11.447
					c-0.036,0.062-0.095,0.107-0.164,0.125C89.165,67.125,89.142,67.128,89.119,67.128z M75.831,58.833l13.19,7.659l6.344-10.995
					l-5.074-3.382l-8.972-3.412L75.831,58.833z"/>
			</g>
			<g style="opacity:0;">
				<line x1="94.16" y1="53.7" x2="82.151" y2="47.376"/>
			</g>
			<g>
				
					<rect x="81.369" y="50.269" transform="matrix(0.8848 0.4659 -0.4659 0.8848 33.6985 -35.2519)" width="13.573" height="0.538"/>
			</g>
			<g style="opacity:0;">
				<line x1="94.011" y1="53.71" x2="87.146" y2="65.678"/>
			</g>
			<g>
				<rect x="90.31" y="52.796" transform="matrix(0.8674 0.4975 -0.4975 0.8674 41.7073 -37.1536)" width="0.538" height="13.796"/>
			</g>
			<g style="opacity:0;">
				<line x1="82.217" y1="47.413" x2="75.353" y2="59.38"/>
			</g>
			<g>
				
					<rect x="78.516" y="46.498" transform="matrix(0.8674 0.4975 -0.4975 0.8674 37.0105 -32.1206)" width="0.538" height="13.796"/>
			</g>
			<g style="opacity:0;">
				<line x1="87.349" y1="65.879" x2="75.34" y2="59.556"/>
			</g>
			<g>
				
					<rect x="74.559" y="62.448" transform="matrix(0.8848 0.4659 -0.4659 0.8848 38.5931 -30.6781)" width="13.572" height="0.538"/>
			</g>
			<g style="opacity:0;">
				<line x1="89.912" y1="67.648" x2="96.152" y2="56.401"/>
			</g>
			<g>
				
					<rect x="92.763" y="55.594" transform="matrix(0.8749 0.4843 -0.4843 0.8749 41.6783 -37.2973)" width="0.538" height="12.861"/>
			</g>
			<g style="opacity:0;">
				<line x1="96.153" y1="56.405" x2="94.017" y2="53.715"/>
			</g>
			<g>
				<rect x="93.368" y="54.791" transform="matrix(0.6218 0.7832 -0.7832 0.6218 79.0823 -53.6444)" width="3.435" height="0.539"/>
			</g>
			<g style="opacity:0;">
				<line x1="89.774" y1="67.808" x2="79.886" y2="62.732"/>
			</g>
			<g>
				<rect x="79.273" y="65" transform="matrix(0.8896 0.4567 -0.4567 0.8896 39.169 -31.536)" width="11.114" height="0.538"/>
			</g>
			<g style="opacity:0;">
				<line x1="79.89" y1="62.744" x2="75.3" y2="59.624"/>
			</g>
			<g>
				<rect x="74.82" y="60.914" transform="matrix(0.827 0.5622 -0.5622 0.827 47.8241 -33.0402)" width="5.55" height="0.539"/>
			</g>
			<g style="opacity:0;">
				<path d="M91.358,52.252c-0.315-0.39-1.535-1.701-1.893-2.338c-0.358-0.636,0.125-0.871-0.257-1.481
					c-0.381-0.61-1.541-1.613-2.031-2.178c-0.49-0.564-0.414-0.895-0.912-1.209c-0.497-0.314-1.425-0.347-2.073-0.675
					c-0.648-0.328-1.351-1.24-1.817-1.294c-0.466-0.054-0.482,0.772-0.98,0.97c-0.498,0.198-1.294,0.256-2.008,0.22
					c-0.715-0.036-1.9-0.363-2.281-0.436"/>
			</g>
			<g>
				<path d="M91.148,52.421c-0.082-0.102-0.228-0.268-0.403-0.469c-0.523-0.597-1.238-1.415-1.515-1.907
					c-0.221-0.392-0.184-0.68-0.153-0.91c0.027-0.2,0.044-0.334-0.097-0.559c-0.224-0.358-0.767-0.892-1.246-1.364
					c-0.297-0.293-0.575-0.567-0.76-0.78c-0.232-0.267-0.35-0.49-0.445-0.668c-0.116-0.218-0.185-0.349-0.407-0.49
					c-0.218-0.137-0.564-0.219-0.931-0.306c-0.382-0.09-0.776-0.183-1.12-0.357c-0.324-0.164-0.638-0.44-0.941-0.707
					c-0.274-0.24-0.614-0.54-0.786-0.56c-0.002,0-0.004,0-0.006,0c-0.057,0-0.117,0.093-0.228,0.294
					c-0.13,0.236-0.291,0.53-0.615,0.659c-0.693,0.276-1.713,0.259-2.121,0.238c-0.551-0.028-1.354-0.217-1.886-0.342
					c-0.183-0.043-0.334-0.079-0.432-0.098l0.101-0.528c0.102,0.02,0.262,0.057,0.455,0.102c0.512,0.121,1.287,0.303,1.789,0.329
					c0.762,0.038,1.488-0.039,1.895-0.2c0.144-0.058,0.241-0.233,0.343-0.419c0.144-0.261,0.345-0.618,0.767-0.569
					c0.34,0.039,0.682,0.341,1.08,0.69c0.278,0.245,0.566,0.498,0.829,0.631c0.286,0.145,0.649,0.23,1.001,0.313
					c0.411,0.097,0.8,0.189,1.095,0.374c0.343,0.217,0.466,0.448,0.596,0.693c0.09,0.17,0.184,0.347,0.376,0.567
					c0.178,0.205,0.446,0.468,0.732,0.749c0.525,0.517,1.067,1.051,1.324,1.463c0.244,0.39,0.205,0.681,0.174,0.914
					c-0.026,0.198-0.045,0.34,0.088,0.576c0.249,0.444,0.973,1.27,1.451,1.817c0.181,0.207,0.331,0.379,0.417,0.485L91.148,52.421z"
					/>
			</g>
			<g style="opacity:0;">
				<path d="M79.052,38.516c-0.2,0.689-0.812,3.12-1.202,4.135c-0.389,1.015-0.932,1.454-1.134,1.956
					c-0.201,0.502-0.062,0.879-0.074,1.055"/>
			</g>
			<g>
				<path d="M76.911,45.681l-0.537-0.039c0.002-0.033-0.005-0.076-0.011-0.129c-0.026-0.215-0.069-0.574,0.104-1.007
					c0.093-0.234,0.241-0.44,0.412-0.68c0.235-0.329,0.501-0.702,0.72-1.272c0.282-0.734,0.689-2.251,0.96-3.255
					c0.1-0.37,0.181-0.675,0.235-0.859l0.517,0.15c-0.053,0.181-0.134,0.483-0.233,0.849c-0.273,1.014-0.685,2.547-0.976,3.307
					c-0.244,0.635-0.544,1.055-0.785,1.393c-0.151,0.211-0.281,0.393-0.351,0.567c-0.122,0.305-0.092,0.548-0.069,0.742
					C76.908,45.543,76.916,45.621,76.911,45.681z"/>
			</g>
			<g style="opacity:0;">
				<path d="M75.427,42.376c0.244,0.607,0.906,2.696,1.462,3.643c0.556,0.947,1.226,1.411,1.871,2.039
					c0.645,0.628,1.369,1.138,1.999,1.73c0.63,0.592,1.283,1.157,1.781,1.821c0.498,0.664,0.943,1.469,1.205,2.162
					c0.262,0.693,0.502,1.413,0.369,1.998c-0.133,0.584-0.611,1.406-1.166,1.508c-0.555,0.102-1.229-0.411-2.164-0.894
					c-0.934-0.482-2.542-1.291-3.443-2.001c-0.901-0.71-1.157-1.491-1.962-2.258c-0.805-0.767-2.069-1.838-2.868-2.343
					c-0.799-0.505-1.358-0.29-1.924-0.686c-0.566-0.397-1.147-1.179-1.471-1.693c-0.324-0.514-0.396-1.159-0.475-1.39"/>
			</g>
			<g>
				<path d="M82.798,57.561c-0.453,0-0.926-0.266-1.505-0.592c-0.197-0.111-0.406-0.229-0.632-0.345l-0.2-0.103
					c-0.966-0.497-2.425-1.249-3.286-1.926c-0.529-0.417-0.849-0.858-1.158-1.286c-0.248-0.341-0.481-0.664-0.823-0.989
					c-0.793-0.755-2.053-1.822-2.825-2.31c-0.376-0.238-0.694-0.298-1.002-0.355c-0.303-0.057-0.617-0.116-0.933-0.338
					c-0.711-0.499-1.362-1.482-1.545-1.771c-0.263-0.417-0.372-0.897-0.444-1.215c-0.022-0.097-0.039-0.177-0.057-0.232l0.509-0.174
					c0.023,0.068,0.047,0.167,0.074,0.287c0.064,0.282,0.16,0.707,0.375,1.047c0.348,0.552,0.898,1.266,1.398,1.617
					c0.221,0.155,0.444,0.196,0.725,0.249c0.341,0.064,0.727,0.137,1.189,0.429c0.81,0.512,2.077,1.583,2.909,2.375
					c0.376,0.358,0.636,0.716,0.886,1.062c0.301,0.416,0.586,0.809,1.057,1.179c0.819,0.645,2.251,1.383,3.199,1.87l0.2,0.104
					c0.232,0.119,0.448,0.241,0.65,0.355c0.569,0.32,1.022,0.578,1.342,0.514c0.392-0.072,0.826-0.748,0.953-1.303
					c0.117-0.516-0.113-1.193-0.358-1.843c-0.258-0.68-0.695-1.464-1.169-2.097c-0.401-0.534-0.903-1-1.434-1.493l-0.315-0.294
					c-0.289-0.271-0.597-0.525-0.909-0.781c-0.364-0.299-0.74-0.608-1.093-0.952c-0.153-0.149-0.308-0.289-0.462-0.428
					c-0.497-0.449-1.011-0.913-1.453-1.667c-0.422-0.719-0.897-2.058-1.212-2.945c-0.112-0.315-0.205-0.576-0.268-0.734l0.499-0.2
					c0.066,0.163,0.161,0.431,0.276,0.755c0.308,0.867,0.772,2.179,1.168,2.853c0.401,0.683,0.862,1.099,1.35,1.541
					c0.159,0.144,0.319,0.288,0.477,0.443c0.336,0.328,0.704,0.63,1.059,0.922c0.322,0.263,0.639,0.526,0.936,0.804l0.313,0.291
					c0.526,0.487,1.069,0.992,1.499,1.565c0.503,0.671,0.968,1.504,1.242,2.228c0.275,0.727,0.53,1.492,0.379,2.153
					c-0.144,0.633-0.667,1.582-1.379,1.714C82.93,57.556,82.865,57.561,82.798,57.561z"/>
			</g>
			<g style="opacity:0;">
				<path d="M71.987,49.742c-0.555,0.102-2.085,0.713-3.329,0.615c-1.244-0.098-2.968-0.611-4.135-1.202
					c-1.167-0.591-2.015-1.604-2.868-2.343c-0.853-0.738-1.875-1.739-2.25-2.087"/>
			</g>
			<g>
				<path d="M68.935,50.636c-0.101,0-0.201-0.004-0.299-0.011c-1.257-0.099-2.999-0.604-4.235-1.23
					c-0.878-0.444-1.589-1.124-2.216-1.724c-0.24-0.229-0.473-0.453-0.706-0.655c-0.63-0.546-1.357-1.238-1.837-1.696
					c-0.175-0.167-0.32-0.305-0.419-0.397l0.366-0.394c0.101,0.093,0.247,0.233,0.425,0.402c0.476,0.455,1.197,1.142,1.818,1.679
					c0.24,0.208,0.48,0.437,0.726,0.673c0.629,0.602,1.279,1.224,2.087,1.632c1.162,0.588,2.859,1.082,4.034,1.174
					c0.87,0.074,1.919-0.238,2.614-0.44c0.27-0.078,0.494-0.142,0.646-0.171l0.098,0.53c-0.141,0.026-0.345,0.086-0.594,0.158
					C70.784,50.356,69.823,50.636,68.935,50.636z"/>
			</g>
			<g style="opacity:0;">
				<path d="M76.389,56.773c-0.171-0.288-0.667-1.276-1.024-1.726c-0.357-0.449-0.703-0.562-1.119-0.969
					c-0.417-0.407-1.151-1.229-1.381-1.475"/>
			</g>
			<g>
				<path d="M76.157,56.91c-0.045-0.076-0.114-0.202-0.195-0.354c-0.222-0.409-0.557-1.027-0.807-1.341
					c-0.183-0.23-0.362-0.36-0.568-0.511c-0.158-0.116-0.338-0.247-0.529-0.433c-0.31-0.304-0.794-0.834-1.114-1.184l-0.275-0.299
					l0.392-0.369l0.28,0.305c0.316,0.346,0.793,0.869,1.093,1.162c0.163,0.16,0.32,0.274,0.47,0.384
					c0.218,0.159,0.444,0.324,0.671,0.61c0.28,0.35,0.629,0.994,0.859,1.42c0.078,0.144,0.143,0.263,0.186,0.337L76.157,56.91z"/>
			</g>
			<g style="opacity:0;">
				<path d="M69.718,51.553c-0.438-0.006-1.48,0.094-2.627-0.036c-1.146-0.13-2.805-0.26-4.252-0.743
					c-1.447-0.483-3.277-1.438-4.429-2.155c-1.151-0.717-1.808-1.332-2.479-2.146c-0.671-0.814,0.271-0.744-1.547-2.738
					c-1.818-1.993-7.221-7.09-9.361-9.222c-2.14-2.132-2.901-2.977-3.481-3.573"/>
			</g>
			<g>
				<path d="M68.379,51.853c-0.4,0-0.851-0.015-1.319-0.068l-0.451-0.05c-1.141-0.122-2.562-0.275-3.856-0.706
					c-1.46-0.487-3.305-1.447-4.486-2.182c-1.241-0.773-1.915-1.439-2.544-2.203c-0.301-0.365-0.333-0.604-0.364-0.835
					c-0.042-0.316-0.096-0.71-1.174-1.892c-1.189-1.304-3.892-3.915-6.276-6.218c-1.225-1.184-2.342-2.263-3.076-2.994
					c-1.585-1.579-2.421-2.46-2.974-3.043c-0.197-0.207-0.359-0.378-0.51-0.533l0.385-0.376c0.152,0.156,0.316,0.329,0.515,0.538
					c0.551,0.581,1.384,1.459,2.964,3.032c0.733,0.73,1.848,1.807,3.07,2.989c2.39,2.309,5.099,4.926,6.299,6.243
					c1.192,1.307,1.257,1.793,1.31,2.184c0.027,0.198,0.043,0.317,0.246,0.564c0.613,0.743,1.23,1.352,2.413,2.088
					c1.154,0.718,2.953,1.655,4.371,2.129c1.239,0.413,2.627,0.562,3.743,0.682l0.454,0.049c0.823,0.093,1.603,0.064,2.12,0.046
					c0.198-0.007,0.361-0.011,0.481-0.011l-0.008,0.538c-0.107,0.001-0.266,0.004-0.453,0.011
					C69.017,51.842,68.716,51.853,68.379,51.853z"/>
			</g>
			<g style="opacity:0;">
				<path d="M92.925,53.191c0.167-0.112,0.909-0.215,1.001-0.672c0.092-0.456-0.259-1.343-0.449-2.067
					c-0.19-0.724-0.546-1.685-0.689-2.274c-0.142-0.59,0.054-0.816-0.166-1.263c-0.22-0.447-0.66-0.665-1.152-1.417
					c-0.492-0.752-1.432-2.358-1.797-3.094c-0.365-0.736-0.045-0.971-0.395-1.321c-0.35-0.35-0.782-0.281-1.705-0.777
					c-0.923-0.496-2.911-1.727-3.832-2.198c-0.921-0.471-1.083-0.284-1.695-0.628c-0.612-0.343-1.331-1.129-1.977-1.432
					c-0.647-0.303-1.034-0.475-1.902-0.388c-0.868,0.088-1.644,0.768-3.308,0.913c-1.664,0.145-4.817,0.259-6.676-0.044
					c-1.859-0.304-3.474-1.399-4.476-1.777c-1.002-0.378-1.035-0.15-1.535-0.489c-0.499-0.339-1.217-1.287-1.461-1.544"/>
			</g>
			<g>
				<path d="M93.072,53.415l-0.297-0.448c0.074-0.049,0.17-0.082,0.292-0.124c0.209-0.072,0.558-0.192,0.596-0.378
					c0.054-0.269-0.118-0.837-0.269-1.338c-0.063-0.207-0.125-0.413-0.176-0.608c-0.092-0.349-0.223-0.754-0.349-1.145
					c-0.137-0.423-0.266-0.823-0.341-1.135c-0.073-0.301-0.067-0.522-0.063-0.7c0.005-0.193,0.008-0.321-0.083-0.507
					c-0.088-0.179-0.23-0.324-0.409-0.507c-0.205-0.211-0.46-0.472-0.727-0.881c-0.484-0.74-1.435-2.359-1.813-3.122
					c-0.207-0.417-0.221-0.702-0.231-0.911c-0.008-0.178-0.011-0.238-0.113-0.339c-0.139-0.139-0.302-0.193-0.573-0.282
					c-0.272-0.09-0.61-0.202-1.069-0.448c-0.418-0.224-1.053-0.598-1.71-0.986c-0.795-0.469-1.619-0.954-2.118-1.209
					c-0.46-0.235-0.706-0.293-0.945-0.35c-0.226-0.053-0.439-0.103-0.759-0.283c-0.3-0.169-0.619-0.431-0.927-0.685
					c-0.35-0.289-0.713-0.587-1.033-0.738c-0.612-0.287-0.952-0.444-1.761-0.364c-0.322,0.033-0.65,0.164-1.028,0.316
					c-0.565,0.227-1.269,0.509-2.284,0.598c-1.456,0.126-4.741,0.28-6.742-0.047c-1.325-0.216-2.509-0.812-3.46-1.29
					c-0.414-0.208-0.772-0.388-1.068-0.5c-0.452-0.171-0.687-0.21-0.876-0.241c-0.226-0.037-0.404-0.067-0.714-0.278
					c-0.398-0.27-0.883-0.847-1.236-1.269c-0.113-0.135-0.207-0.247-0.269-0.313l0.391-0.37c0.067,0.07,0.168,0.191,0.29,0.337
					c0.315,0.375,0.79,0.941,1.126,1.169c0.213,0.144,0.303,0.159,0.5,0.192c0.201,0.033,0.476,0.079,0.978,0.268
					c0.323,0.122,0.692,0.308,1.12,0.523c0.918,0.462,2.061,1.037,3.305,1.24c1.808,0.295,4.942,0.187,6.609,0.042
					c0.935-0.082,1.57-0.336,2.13-0.561c0.417-0.167,0.776-0.312,1.174-0.352c0.919-0.092,1.352,0.087,2.044,0.412
					c0.382,0.179,0.771,0.5,1.147,0.81c0.303,0.25,0.589,0.486,0.848,0.631c0.254,0.143,0.416,0.181,0.619,0.229
					c0.244,0.058,0.548,0.13,1.066,0.394c0.513,0.262,1.343,0.752,2.146,1.225c0.649,0.383,1.277,0.753,1.691,0.975
					c0.417,0.225,0.731,0.328,0.983,0.412c0.298,0.098,0.556,0.184,0.785,0.412c0.249,0.249,0.26,0.486,0.27,0.694
					c0.009,0.178,0.018,0.38,0.176,0.697c0.371,0.748,1.305,2.338,1.781,3.067c0.238,0.365,0.464,0.596,0.662,0.8
					c0.204,0.209,0.38,0.39,0.506,0.645c0.149,0.304,0.144,0.535,0.138,0.758c-0.004,0.162-0.008,0.329,0.048,0.561
					c0.071,0.296,0.199,0.688,0.33,1.096c0.13,0.401,0.263,0.816,0.357,1.174c0.05,0.188,0.11,0.387,0.171,0.587
					c0.186,0.617,0.363,1.199,0.281,1.6c-0.097,0.488-0.63,0.671-0.947,0.78C93.17,53.376,93.108,53.394,93.072,53.415z"/>
			</g>
			<g style="opacity:0;">
				<path d="M64.466,35.151c-1.492-1.732-6.878-7.896-8.952-10.39c-2.074-2.494-2.698-3.554-3.492-4.575
					c-0.794-1.021-1.06-1.293-1.272-1.552"/>
			</g>
			<g>
				<path d="M64.262,35.326c-0.394-0.457-1.059-1.223-1.863-2.149c-2.216-2.551-5.564-6.407-7.093-8.245
					c-1.42-1.707-2.154-2.733-2.745-3.558c-0.268-0.375-0.502-0.701-0.753-1.024c-0.582-0.747-0.878-1.09-1.077-1.322
					c-0.073-0.084-0.134-0.155-0.191-0.224l0.416-0.341c0.054,0.066,0.112,0.133,0.182,0.214c0.203,0.235,0.504,0.583,1.095,1.343
					c0.255,0.328,0.493,0.66,0.766,1.041c0.585,0.818,1.314,1.835,2.721,3.527c1.525,1.833,4.871,5.686,7.085,8.236
					c0.805,0.926,1.47,1.693,1.865,2.15L64.262,35.326z"/>
			</g>
			<g style="opacity:0;">
				<path d="M89.114,51.288c-0.247-0.307-0.96-1.18-1.482-1.843c-0.523-0.662-0.982-1.666-1.653-2.13
					c-0.671-0.464-1.637-0.344-2.371-0.654c-0.735-0.309-1.697-1.002-2.036-1.203"/>
			</g>
			<g>
				<path d="M88.905,51.457l-0.291-0.36c-0.329-0.406-0.811-1.002-1.193-1.485c-0.181-0.229-0.355-0.498-0.532-0.771
					c-0.326-0.505-0.662-1.027-1.063-1.304c-0.335-0.232-0.774-0.299-1.238-0.37c-0.364-0.056-0.742-0.113-1.085-0.258
					c-0.563-0.238-1.244-0.685-1.696-0.981c-0.156-0.103-0.285-0.187-0.372-0.239l0.273-0.463c0.092,0.054,0.229,0.144,0.394,0.252
					c0.435,0.285,1.092,0.716,1.61,0.934c0.282,0.118,0.61,0.169,0.957,0.221c0.505,0.077,1.026,0.157,1.463,0.459
					c0.488,0.338,0.855,0.906,1.209,1.455c0.167,0.259,0.331,0.513,0.501,0.729c0.38,0.481,0.86,1.074,1.188,1.48l0.292,0.361
					L88.905,51.457z"/>
			</g>
			<g style="opacity:0;">
				<path d="M81.409,44.194c-0.103,0.307-0.224,1.228-0.617,1.844s-1.451,1.541-1.741,1.85"/>
			</g>
			<g>
				<path d="M79.246,48.072l-0.391-0.369c0.078-0.083,0.21-0.21,0.371-0.363c0.425-0.406,1.066-1.02,1.339-1.447
					c0.264-0.414,0.402-1.01,0.492-1.404c0.037-0.16,0.068-0.293,0.097-0.38l0.51,0.171c-0.025,0.075-0.051,0.191-0.083,0.33
					c-0.099,0.431-0.249,1.081-0.563,1.573c-0.308,0.482-0.978,1.123-1.422,1.546C79.446,47.873,79.32,47.993,79.246,48.072z"/>
			</g>
			<g style="opacity:0;">
				<path d="M95.002,54.989c-0.077-0.369-0.232-1.483-0.459-2.216c-0.228-0.733-0.756-1.82-0.907-2.184"/>
			</g>
			<g>
				<path d="M94.739,55.044c-0.02-0.099-0.046-0.25-0.078-0.432c-0.085-0.492-0.212-1.234-0.376-1.758
					c-0.163-0.526-0.493-1.256-0.711-1.74c-0.081-0.177-0.146-0.324-0.187-0.42l0.498-0.207c0.039,0.094,0.102,0.235,0.18,0.406
					c0.224,0.495,0.562,1.244,0.735,1.802s0.305,1.321,0.392,1.826c0.03,0.175,0.055,0.32,0.074,0.415L94.739,55.044z"/>
			</g>
			<g style="opacity:0;">
				<path d="M82.768,43.272c0.065-0.317,0.417-1.317,0.388-1.902s-0.471-1.341-0.566-1.609"/>
			</g>
			<g>
				<path d="M83.031,43.326l-0.527-0.107c0.018-0.088,0.057-0.227,0.104-0.395c0.119-0.42,0.299-1.055,0.279-1.441
					c-0.019-0.378-0.253-0.877-0.408-1.207c-0.064-0.136-0.116-0.249-0.143-0.325l0.507-0.179c0.023,0.065,0.069,0.16,0.123,0.276
					c0.173,0.368,0.434,0.924,0.458,1.408c0.025,0.475-0.162,1.134-0.299,1.615C83.083,43.122,83.047,43.246,83.031,43.326z"/>
			</g>
			<g style="opacity:0;">
				<path style="fill-rule:evenodd;clip-rule:evenodd;" d="M87.62,42.999c-0.489,0.565-0.898,1.209-1.214,1.887"/>
			</g>
			<g>
				<path d="M86.65,44.999l-0.488-0.227c0.334-0.717,0.755-1.372,1.254-1.949l0.406,0.352C87.357,43.714,86.963,44.327,86.65,44.999
					z"/>
			</g>
			<g style="opacity:0;">
				<path style="fill-rule:evenodd;clip-rule:evenodd;" d="M90.594,46.833c-0.538,0.509-1.19,1.03-1.374,1.748"/>
			</g>
			<g>
				<path d="M89.481,48.648l-0.521-0.133c0.179-0.702,0.742-1.222,1.239-1.681l0.21-0.196l0.37,0.391l-0.215,0.2
					C90.1,47.658,89.621,48.1,89.481,48.648z"/>
			</g>
			<g style="opacity:0;">
				<path style="fill-rule:evenodd;clip-rule:evenodd;" d="M81.906,47.981c-0.36-0.606-0.9-1.296-1.599-1.384"/>
			</g>
			<g>
				<path d="M81.675,48.118c-0.459-0.773-0.931-1.195-1.401-1.255l0.067-0.534c0.644,0.081,1.249,0.591,1.797,1.514L81.675,48.118z"
					/>
			</g>
			<g style="opacity:0;">
				<path style="fill-rule:evenodd;clip-rule:evenodd;" d="M74.534,51.808c-0.438,0.363-0.992,0.566-1.518,0.784"/>
			</g>
			<g>
				<path d="M73.118,52.841l-0.206-0.498l0.188-0.077c0.446-0.183,0.906-0.371,1.261-0.666l0.343,0.415
					c-0.418,0.347-0.918,0.551-1.401,0.748L73.118,52.841z"/>
			</g>
			<g style="opacity:0;">
				<path style="fill-rule:evenodd;clip-rule:evenodd;" d="M72.488,52.554c-0.916-0.005-1.723-0.635-2.611-0.862"/>
			</g>
			<g>
				<path d="M72.486,52.823c-0.611-0.003-1.161-0.251-1.694-0.491c-0.336-0.151-0.654-0.295-0.982-0.378l0.133-0.521
					c0.373,0.095,0.728,0.255,1.071,0.409c0.503,0.227,0.978,0.441,1.475,0.444L72.486,52.823z"/>
			</g>
			<g style="opacity:0;">
				<path style="fill-rule:evenodd;clip-rule:evenodd;" d="M70.538,50.445c-0.262,0.461-0.629,0.927-1.118,1.13"/>
			</g>
			<g>
				<path d="M69.523,51.824l-0.206-0.498c0.357-0.149,0.689-0.49,0.987-1.014l0.468,0.265
					C70.414,51.209,69.994,51.629,69.523,51.824z"/>
			</g>
			<g style="opacity:0;">
				<path style="fill-rule:evenodd;clip-rule:evenodd;" d="M92.07,15.626c5.383,6.056,8.927,17.607,3.931,23.985"/>
			</g>
			<g>
				<path style="fill:#666666;" d="M96.213,39.778l-0.423-0.332c4.718-6.024,1.72-17.294-3.921-23.641l0.402-0.357
					C98.053,21.953,101.095,33.545,96.213,39.778z"/>
			</g>
			<g style="opacity:0;">
				<path style="fill-rule:evenodd;clip-rule:evenodd;" d="M79.345,10.255c4.709,1.587,9.167,6.329,9.766,11.261"/>
			</g>
			<g>
				<path style="fill:#666666;" d="M88.844,21.549c-0.556-4.566-4.766-9.414-9.586-11.039L79.431,10
					c5.083,1.713,9.359,6.65,9.947,11.484L88.844,21.549z"/>
			</g>
		</g>
	</g>
</g>
<g id="Layer_1">
</g>
</svg>
