<?xml version="1.0" encoding="utf-8"?>
<!-- Generator: Adobe Illustrator 18.1.1, SVG Export Plug-In . SVG Version: 6.00 Build 0)  -->
<svg version="1.1" id="Layer_1" xmlns="http://www.w3.org/2000/svg" xmlns:xlink="http://www.w3.org/1999/xlink" x="0px" y="0px"
	 viewBox="0 0 140 105" enable-background="new 0 0 140 105" xml:space="preserve">
<g>
	<path fill="#F48022" d="M11.6,39.3c0.2-0.1,0.3-0.4,0.6-0.4c0.5-0.1,1,0.2,1,0.8c0,0.7,0,1.4,0,2.1c0,1.3,0,2.7,0,4
		c0,0.2,0.1,0.3,0.2,0.5c0.5,0.5,1.1,0.9,1.6,1.4c0.3,0.3,1.3,0.2,1.6-0.1c0.4-0.4,0.9-0.9,1.3-1.3c0.2-0.2,0.2-0.3,0.2-0.6
		c0-2,0-4.1,0-6.1c0-0.6,0.6-1,1.2-0.8c0.3,0.2,0.5,0.5,0.5,0.8c0,1.8-0.1,3.7,0,5.5c0.1,1.4-0.5,2.3-1.4,3.1
		c-0.4,0.3-0.8,0.7-1.2,1c-0.2,0.1-0.2,0.3-0.2,0.5c0,3.8,0,7.7,0,11.5c0,0.6,0.3,1,0.7,1.4c1.2,1,2.6,1.3,4.1,0.8
		c1-0.3,1.6-1.2,1.6-2.3c0-4,0-8,0-12.1c0-2.8,1.9-4.4,4.1-4.8c1.4-0.2,2.9-0.2,4.2,0.5c1.5,0.7,2.2,2,2.4,3.6c0.1,0.4,0,0.8,0,1.2
		c0,3.5,0,7,0,10.5c0,1.6,0.7,2.5,2.2,3c1,0.3,1.9,0.3,2.9-0.2c0.9-0.4,1.3-1.2,1.4-2.1c0.1-0.6,0.1-1.1,0.1-1.7
		c0-5.4,0-10.8,0-16.3c0-0.4,0.1-0.8,0.4-1.1c0.4-0.3,0.8-0.4,1.2-0.2c0.4,0.2,0.7,0.5,0.7,1c0,0.1,0,0.2,0,0.3c0,5.9,0,11.7,0,17.6
		c0,2.4-1.5,4-3.1,4.7c-2.6,1-5.8,0.1-7.3-2.2c-0.5-0.8-0.7-1.8-0.7-2.8c0-2.9,0-5.7,0-8.6c0-0.9,0-1.7,0-2.6c0-1.4-0.7-2.2-2-2.5
		c-0.9-0.2-1.8-0.2-2.7,0.1c-1,0.3-1.5,1.1-1.5,2.1c-0.1,4-0.1,8,0,11.9c0.1,3.6-2.8,5.2-5.2,5.2c-1.3,0-2.6-0.3-3.7-1.1
		c-1.4-1-2.2-2.3-2.2-4.1c0.1-3.4,0-6.9,0-10.3c0-0.8-0.2-1.3-0.8-1.6c-0.5-0.3-0.9-0.7-1.3-1.1c-0.6-0.6-1-1.4-0.9-2.3
		c0-0.2,0-0.4,0-0.6V39.3z"/>
	<path fill="#818285" d="M110.8,57.2c0,4-2.9,7.5-6.9,8.5c-4.8,1.1-9.6-1.9-10.7-6.6c-0.9-3.8,1.1-7.9,4.8-9.7
		c1.2-0.6,2.5-0.9,3.8-0.9c4.7,0,8.5,3.3,9,7.7C110.8,56.4,110.8,56.8,110.8,57.2 M101.9,63.5c1.1,0,2.2-0.3,3.2-0.8
		c2.7-1.4,4.1-4.5,3.2-7.4c-1.2-3.9-5.8-5.8-9.5-3.9c-2.6,1.3-4,4.1-3.4,6.8C95.9,61.3,98.7,63.5,101.9,63.5"/>
	<path fill="#818285" d="M72.2,57.1c0-4,2.8-7.4,6.9-8.4c4.4-1.1,9.1,1.5,10.6,5.8c1.5,4.4-1,9.3-5.5,10.9c-4.3,1.5-9-0.5-11-4.3
		C72.5,59.9,72.2,58.4,72.2,57.1 M80.8,63.5c1.7,0,2.9-0.3,4-1c2.3-1.4,3.5-4.1,2.9-6.7c-1-4.5-6.3-6.6-10.2-4.1
		c-2.2,1.4-3.4,3.8-2.9,6.3C75,61.3,77.8,63.5,80.8,63.5"/>
	<path fill="#818285" d="M116.8,55.5c1.3-1.1,2.6-2.1,3.8-3.1c1.4-1.1,2.7-2.2,4.1-3.3c0.6-0.4,1.2-0.4,1.7,0.1
		c0.4,0.5,0.3,1.2-0.2,1.7c-1.1,0.9-2.3,1.9-3.5,2.8c-0.2,0.2-0.2,0.3-0.1,0.5c1.9,3.4,3.7,6.8,5.6,10.3c0.3,0.6,0.3,1.2-0.1,1.6
		c-0.6,0.5-1.4,0.3-1.8-0.4c-1.1-2-2.1-3.9-3.2-5.9c-0.8-1.4-1.5-2.8-2.3-4.1c-0.1-0.2-0.2-0.3-0.4-0.1c-1.1,0.9-2.2,1.8-3.3,2.7
		c-0.2,0.2-0.3,0.4-0.3,0.7c0,2,0,4.1,0,6.1c0,0.8-0.4,1.2-1.1,1.3c-0.7,0-1.1-0.5-1.1-1.3c0-5.5,0-11,0-16.5c0-0.6,0.4-1.1,0.9-1.2
		c0.5-0.1,1,0.2,1.2,0.7c0.1,0.2,0.1,0.4,0.1,0.6c0,2.2,0,4.3,0,6.5V55.5z"/>
	<path fill="#818285" d="M52.5,56.1c1.2-0.1,2.4,0,3.5-0.1c0.7,0,1.3,0.5,1.3,1.1c0,0.7-0.5,1.1-1.2,1.1c-1.7,0-3.3,0-5,0
		c-0.6,0-1.1,0-1.7,0c-0.4,0-0.4,0.1-0.3,0.4c0.5,1.8,1.7,3.1,3.3,3.9c1,0.5,2.1,0.8,3.2,0.8c0.9,0,1.4,0.7,1.2,1.5
		c-0.1,0.5-0.6,0.8-1.1,0.8c-4.6,0-8.4-3.3-9-7.7c-0.6-4.7,2.8-8.9,7.5-9.6c0.4-0.1,0.9-0.1,1.3-0.1c0.7,0,1.2,0.4,1.3,1.1
		c0,0.6-0.5,1.2-1.2,1.2c-1.8,0-3.4,0.6-4.7,1.8c-1,0.9-1.6,2-1.9,3.3c-0.1,0.3,0,0.4,0.3,0.4C50.4,56.1,51.4,56.1,52.5,56.1"/>
	<path fill="#818285" d="M60.2,57.2c0-4.2,2.9-7.7,7-8.6c0.6-0.1,1.2-0.2,1.9-0.2c0.7,0,1.2,0.4,1.3,1.1c0,0.6-0.4,1.2-1.1,1.2
		c-1.1,0-2.1,0.2-3.1,0.7c-2.4,1.1-3.9,3.7-3.7,6.3c0.3,2.7,2.2,4.9,4.8,5.6c0.6,0.2,1.2,0.3,1.8,0.3c0.8,0,1.3,0.5,1.3,1.2
		c0,0.7-0.5,1.1-1.3,1.1c-4.3-0.1-8-3-8.8-7.2C60.3,58.2,60.2,57.6,60.2,57.2"/>
	<path fill="#818285" d="M15.3,42.9c0,1,0,2.1,0,3.1c0,0.5-0.3,0.8-0.7,0.7c-0.4-0.1-0.5-0.3-0.5-0.7c0-0.4,0-0.8,0-1.2
		c0-1.7,0-3.3,0-5c0-0.5,0.2-0.8,0.6-0.8c0.4,0,0.6,0.2,0.6,0.7C15.3,40.8,15.3,41.9,15.3,42.9"/>
	<path fill="#818285" d="M16.2,42.9c0-1,0-2.1,0-3.1c0-0.5,0.2-0.7,0.6-0.7c0.4,0,0.6,0.2,0.6,0.7c0,2.1,0,4.1,0,6.2
		c0,0.5-0.2,0.7-0.6,0.7c-0.4,0-0.6-0.2-0.6-0.7C16.2,45,16.2,43.9,16.2,42.9"/>
</g>
<g>
</g>
<g>
</g>
<g>
</g>
<g>
</g>
<g>
</g>
<g>
</g>
<g>
</g>
<g>
</g>
<g>
</g>
<g>
</g>
<g>
</g>
<g>
</g>
<g>
</g>
<g>
</g>
<g>
</g>
</svg>
