<?xml version="1.0" encoding="iso-8859-1"?>
<!-- Generator: Adobe Illustrator 18.1.1, SVG Export Plug-In . SVG Version: 6.00 Build 0)  -->
<!DOCTYPE svg PUBLIC "-//W3C//DTD SVG 1.1//EN" "http://www.w3.org/Graphics/SVG/1.1/DTD/svg11.dtd">
<svg version="1.1" xmlns="http://www.w3.org/2000/svg" xmlns:xlink="http://www.w3.org/1999/xlink" x="0px" y="0px"
	 viewBox="0 0 140 105" style="enable-background:new 0 0 140 105;" xml:space="preserve">
<g id="proximity">
	<g>
		<g>
			<path style="fill:#4974A0;" d="M10.126,49.378c0-1.955-0.063-3.531-0.126-4.982h2.491l0.126,2.617h0.063
				c1.135-1.86,2.932-2.964,5.423-2.964c3.689,0,6.463,3.121,6.463,7.756c0,5.486-3.342,8.198-6.936,8.198
				c-2.018,0-3.784-0.883-4.698-2.396h-0.063V65.9h-2.743V49.378z M12.869,53.446c0,0.41,0.063,0.788,0.126,1.135
				c0.504,1.923,2.175,3.247,4.162,3.247c2.932,0,4.635-2.396,4.635-5.896c0-3.059-1.608-5.676-4.54-5.676
				c-1.892,0-3.657,1.356-4.193,3.437c-0.095,0.347-0.189,0.756-0.189,1.135V53.446z"/>
			<path style="fill:#4974A0;" d="M27.571,49.158c0-1.797-0.031-3.342-0.126-4.761h2.428l0.094,2.995h0.126
				c0.693-2.049,2.365-3.342,4.225-3.342c0.315,0,0.536,0.031,0.788,0.094v2.617c-0.284-0.063-0.568-0.094-0.946-0.094
				c-1.955,0-3.342,1.482-3.72,3.563c-0.063,0.378-0.126,0.82-0.126,1.293v8.135h-2.743V49.158z"/>
			<path style="fill:#4974A0;" d="M51.008,51.901c0,5.644-3.91,8.103-7.599,8.103c-4.13,0-7.315-3.027-7.315-7.851
				c0-5.108,3.342-8.103,7.567-8.103C48.044,44.05,51.008,47.234,51.008,51.901z M38.9,52.059c0,3.342,1.923,5.865,4.635,5.865
				c2.648,0,4.635-2.491,4.635-5.928c0-2.586-1.293-5.865-4.572-5.865C40.319,46.131,38.9,49.158,38.9,52.059z"/>
			<path style="fill:#4974A0;" d="M54.877,44.397l2.176,3.279c0.567,0.851,1.04,1.639,1.545,2.491h0.095
				c0.504-0.915,1.009-1.702,1.513-2.523l2.144-3.247h2.995l-5.202,7.378l5.36,7.883h-3.153l-2.239-3.437
				c-0.599-0.883-1.104-1.734-1.639-2.648h-0.063c-0.504,0.914-1.04,1.734-1.608,2.648l-2.207,3.437h-3.058l5.423-7.788
				l-5.171-7.472H54.877z"/>
			<path style="fill:#4974A0;" d="M70.821,40.109c0.031,0.946-0.662,1.703-1.765,1.703c-0.977,0-1.671-0.757-1.671-1.703
				c0-0.977,0.725-1.734,1.734-1.734C70.159,38.375,70.821,39.131,70.821,40.109z M67.732,59.657V44.397h2.774v15.261H67.732z"/>
			<path style="fill:#4974A0;" d="M74.423,48.527c0-1.577-0.031-2.869-0.127-4.131h2.428l0.127,2.46h0.094
				c0.851-1.451,2.27-2.806,4.793-2.806c2.081,0,3.657,1.261,4.32,3.058h0.063c0.473-0.851,1.072-1.514,1.702-1.986
				c0.914-0.693,1.923-1.072,3.373-1.072c2.018,0,5.014,1.324,5.014,6.621v8.986h-2.712v-8.639c0-2.932-1.072-4.698-3.31-4.698
				c-1.577,0-2.806,1.167-3.279,2.522c-0.127,0.378-0.221,0.883-0.221,1.387v9.428h-2.712v-9.144c0-2.428-1.072-4.193-3.185-4.193
				c-1.734,0-2.995,1.387-3.436,2.775c-0.157,0.41-0.221,0.883-0.221,1.356v9.207h-2.711V48.527z"/>
			<path style="fill:#4974A0;" d="M103.172,40.109c0.031,0.946-0.662,1.703-1.765,1.703c-0.977,0-1.671-0.757-1.671-1.703
				c0-0.977,0.725-1.734,1.734-1.734C102.51,38.375,103.172,39.131,103.172,40.109z M100.082,59.657V44.397h2.775v15.261H100.082z"
				/>
			<path style="fill:#4974A0;" d="M110.215,40.014v4.382h3.973v2.113h-3.973v8.23c0,1.891,0.536,2.964,2.081,2.964
				c0.725,0,1.261-0.094,1.608-0.189l0.126,2.081c-0.536,0.22-1.387,0.378-2.459,0.378c-1.293,0-2.333-0.41-2.995-1.167
				c-0.788-0.82-1.072-2.176-1.072-3.973v-8.324h-2.365v-2.113h2.365v-3.657L110.215,40.014z"/>
			<path style="fill:#4974A0;" d="M118.681,44.397l3.342,9.017c0.347,1.009,0.725,2.207,0.978,3.122h0.063
				c0.284-0.914,0.599-2.081,0.977-3.185l3.027-8.955H130l-4.162,10.878c-1.986,5.234-3.342,7.914-5.234,9.554
				c-1.356,1.198-2.712,1.671-3.405,1.797l-0.694-2.333c0.694-0.22,1.608-0.662,2.428-1.356c0.757-0.599,1.702-1.671,2.333-3.09
				c0.126-0.283,0.22-0.504,0.22-0.662c0-0.158-0.063-0.378-0.189-0.725l-5.644-14.063H118.681z"/>
		</g>
		<g>
			<path style="fill:#4974A0;" d="M15.848,62.167h-1.365v-0.493h3.323v0.493h-1.372v3.997h-0.586V62.167z"/>
			<path style="fill:#4974A0;" d="M18.938,61.675v1.878h2.171v-1.878h0.586v4.489H21.11v-2.105h-2.171v2.105h-0.579v-4.489H18.938z"
				/>
			<path style="fill:#4974A0;" d="M25.056,64.059h-1.745v1.618h1.945v0.487h-2.524v-4.489h2.424v0.487h-1.845v1.418h1.745V64.059z"
				/>
			<path style="fill:#4974A0;" d="M29.742,64.059h-1.745v1.618h1.945v0.487h-2.524v-4.489h2.424v0.487h-1.845v1.418h1.745V64.059z"
				/>
			<path style="fill:#4974A0;" d="M31.794,66.164l-1.465-4.489h0.626l0.699,2.212c0.193,0.606,0.36,1.152,0.48,1.678h0.013
				c0.127-0.519,0.313-1.086,0.513-1.672l0.759-2.218h0.62l-1.605,4.489H31.794z"/>
			<path style="fill:#4974A0;" d="M36.908,64.059h-1.745v1.618h1.945v0.487h-2.524v-4.489h2.424v0.487h-1.845v1.418h1.745V64.059z"
				/>
			<path style="fill:#4974A0;" d="M37.825,61.735c0.293-0.06,0.713-0.094,1.112-0.094c0.62,0,1.019,0.114,1.299,0.367
				c0.226,0.2,0.353,0.506,0.353,0.853c0,0.593-0.373,0.985-0.846,1.145v0.02c0.346,0.12,0.553,0.44,0.659,0.906
				c0.146,0.626,0.253,1.059,0.346,1.232h-0.599c-0.073-0.127-0.173-0.513-0.3-1.072c-0.133-0.62-0.373-0.853-0.899-0.872h-0.546
				v1.945h-0.579V61.735z M38.404,63.779h0.593c0.62,0,1.012-0.339,1.012-0.853c0-0.58-0.419-0.833-1.032-0.839
				c-0.28,0-0.48,0.027-0.573,0.053V63.779z"/>
			<path style="fill:#4974A0;" d="M42.32,66.164v-1.905l-1.419-2.584h0.659l0.633,1.239c0.173,0.339,0.307,0.612,0.446,0.926h0.013
				c0.127-0.294,0.28-0.586,0.453-0.926l0.646-1.239h0.659l-1.505,2.578v1.912H42.32z"/>
			<path style="fill:#4974A0;" d="M45.898,66.164l-1.139-4.489h0.613l0.533,2.271c0.133,0.56,0.253,1.119,0.333,1.553h0.013
				c0.073-0.447,0.213-0.979,0.366-1.559l0.599-2.265h0.606l0.546,2.278c0.127,0.533,0.246,1.066,0.313,1.539h0.013
				c0.093-0.493,0.22-0.993,0.36-1.552l0.593-2.265h0.593l-1.272,4.489h-0.606l-0.566-2.338c-0.14-0.573-0.233-1.012-0.293-1.465
				H47.49c-0.08,0.446-0.18,0.885-0.346,1.465l-0.639,2.338H45.898z"/>
			<path style="fill:#4974A0;" d="M51.41,61.675v1.878h2.171v-1.878h0.586v4.489h-0.586v-2.105H51.41v2.105h-0.58v-4.489H51.41z"/>
			<path style="fill:#4974A0;" d="M57.528,64.059h-1.745v1.618h1.945v0.487h-2.524v-4.489h2.424v0.487h-1.845v1.418h1.745V64.059z"
				/>
			<path style="fill:#4974A0;" d="M58.444,61.735c0.293-0.06,0.712-0.094,1.112-0.094c0.62,0,1.02,0.114,1.299,0.367
				c0.226,0.2,0.353,0.506,0.353,0.853c0,0.593-0.374,0.985-0.846,1.145v0.02c0.346,0.12,0.553,0.44,0.66,0.906
				c0.146,0.626,0.253,1.059,0.346,1.232h-0.599c-0.073-0.127-0.173-0.513-0.3-1.072c-0.133-0.62-0.373-0.853-0.899-0.872h-0.546
				v1.945h-0.58V61.735z M59.024,63.779h0.593c0.619,0,1.013-0.339,1.013-0.853c0-0.58-0.42-0.833-1.033-0.839
				c-0.28,0-0.48,0.027-0.573,0.053V63.779z"/>
			<path style="fill:#4974A0;" d="M64.404,64.059h-1.745v1.618h1.945v0.487h-2.524v-4.489h2.424v0.487h-1.845v1.418h1.745V64.059z"
				/>
			<path style="fill:#4974A0;" d="M67.492,64.752l-0.467,1.412h-0.599l1.526-4.489h0.699l1.532,4.489h-0.62l-0.48-1.412H67.492z
				 M68.964,64.299l-0.439-1.292c-0.1-0.293-0.167-0.56-0.233-0.819h-0.013c-0.067,0.266-0.14,0.539-0.226,0.812l-0.44,1.299H68.964
				z"/>
			<path style="fill:#4974A0;" d="M70.821,61.728c0.28-0.047,0.646-0.087,1.112-0.087c0.573,0,0.993,0.133,1.259,0.373
				c0.246,0.213,0.393,0.54,0.393,0.939c0,0.406-0.12,0.726-0.347,0.959c-0.306,0.326-0.805,0.493-1.372,0.493
				c-0.173,0-0.333-0.007-0.466-0.04v1.798h-0.58V61.728z M71.401,63.893c0.127,0.033,0.286,0.047,0.48,0.047
				c0.699,0,1.126-0.34,1.126-0.959c0-0.593-0.42-0.879-1.059-0.879c-0.253,0-0.446,0.02-0.546,0.047V63.893z"/>
			<path style="fill:#4974A0;" d="M74.284,61.728c0.28-0.047,0.646-0.087,1.112-0.087c0.573,0,0.993,0.133,1.259,0.373
				c0.246,0.213,0.393,0.54,0.393,0.939c0,0.406-0.12,0.726-0.347,0.959c-0.306,0.326-0.805,0.493-1.372,0.493
				c-0.173,0-0.333-0.007-0.466-0.04v1.798h-0.58V61.728z M74.863,63.893c0.127,0.033,0.286,0.047,0.48,0.047
				c0.699,0,1.126-0.34,1.126-0.959c0-0.593-0.42-0.879-1.059-0.879c-0.253,0-0.446,0.02-0.546,0.047V63.893z"/>
		</g>
	</g>
</g>
<g id="Layer_1">
</g>
</svg>
