<?xml version="1.0" encoding="utf-8"?>
<!-- Generator: Adobe Illustrator 18.1.1, SVG Export Plug-In . SVG Version: 6.00 Build 0)  -->
<svg version="1.1" id="Layer_1" xmlns="http://www.w3.org/2000/svg" xmlns:xlink="http://www.w3.org/1999/xlink" x="0px" y="0px"
	 viewBox="0 0 140 105" enable-background="new 0 0 140 105" xml:space="preserve">
<g>
	<rect x="111.9" y="32.5" fill="#3399FF" width="3.6" height="40.1"/>
	<rect x="122.9" y="32.5" fill="#3399FF" width="3.6" height="40.1"/>
	<polygon fill="#3399FF" points="79.1,32.5 79.1,72.5 82.8,72.5 82.8,36.1 90,36.1 90,72.5 93.7,72.5 93.7,36.1 101,36.1 101,43.4 
		104.6,43.4 104.6,32.5 	"/>
	<rect x="101" y="50.7" fill="#3399FF" width="3.6" height="3.6"/>
	<rect x="101" y="61.6" fill="#3399FF" width="3.6" height="10.9"/>
	<polygon fill="#3399FF" points="13.5,32.5 13.5,72.5 17.1,72.5 17.1,36.1 24.4,36.1 24.4,72.5 28.1,72.5 28.1,36.1 35.4,36.1 
		35.4,43.4 39,43.4 39,32.5 	"/>
	<rect x="35.4" y="50.7" fill="#3399FF" width="3.6" height="3.6"/>
	<rect x="35.4" y="61.6" fill="#3399FF" width="3.6" height="10.9"/>
	<rect x="68.2" y="32.5" fill="#3399FF" width="3.6" height="3.6"/>
	<rect x="68.2" y="43.4" fill="#3399FF" width="3.6" height="29.2"/>
	<polygon fill="#3399FF" points="46.3,32.5 46.3,72.5 50,72.5 50,36.1 57.2,36.1 57.2,72.5 60.9,72.5 60.9,32.5 	"/>
</g>
<g>
</g>
<g>
</g>
<g>
</g>
<g>
</g>
<g>
</g>
<g>
</g>
<g>
</g>
<g>
</g>
<g>
</g>
<g>
</g>
<g>
</g>
<g>
</g>
<g>
</g>
<g>
</g>
<g>
</g>
</svg>
