<?xml version="1.0" encoding="utf-8"?>
<!-- Generator: Adobe Illustrator 18.1.1, SVG Export Plug-In . SVG Version: 6.00 Build 0)  -->
<svg version="1.1" id="Layer_3" xmlns="http://www.w3.org/2000/svg" xmlns:xlink="http://www.w3.org/1999/xlink" x="0px" y="0px"
	 viewBox="0 0 140 105" enable-background="new 0 0 140 105" xml:space="preserve">
<path fill="#C66E03" d="M67.9,75.3c-1.3-4.8-2.6-9.5-3.8-14.3c-0.2-0.7-0.5-0.8-1.2-0.9c-4.4-0.4-8.7-0.8-13.1-1.3
	c-1.1-0.1-1.2,0.4-1.2,1.3c0,6.4,0,12.9,0,19.3c0,0.4,0,0.7,0,1.1c0.1,0.7,0.7,0.9,1.2,1.3c0.4,0.3,0.8,0.7,0.5,1.3
	c-0.2,0.5-0.7,0.6-1.2,0.6c-0.3,0-0.6,0-0.8,0c-3.1,0-3.4-0.3-4.5-3.2c-2-5.3-4.2-10.6-6.5-15.8c-0.1-0.1-0.2-0.2-0.3-0.3
	c-1.3-3.2-2.8-6.3-4-9.5c-1.2-3.4-0.7-6.7,1.8-9.5c3-3.6,5.1-7.8,7.4-11.8c1.6-2.9,3.3-5.8,5.4-8.3c2.1-2.5,4.5-4.5,8.1-4.6
	c2.7,0,4.9,1.1,6.7,2.9c2.9,2.7,4.7,6.2,6.7,9.6c2.3,3.9,4.3,7.9,7.1,11.5c0.6,0.8,1.3,1,2.3,0.9c2.7-0.5,5.2-1.5,7.5-3
	c2.3-1.1,3.8-3.1,5.3-5c1.7-2.1,3-4.4,4.5-6.6c1-1.5,2.1-1.6,3.6-0.5c2.5,1.9,5,3.7,7.3,5.8c0.4,0.4,0.9,0.8,0.7,1.4
	c-0.2,0.6-0.9,0.4-1.3,0.4c-2,0-4,0-6,0c-1.6,0-1.7,0.2-1.8,1.7c0,0.7-0.1,1.4-0.5,2c-0.8,1.5-0.9,3.2-1.7,4.7
	c-2.2,4.2-5.1,7.7-9,10.4c-1.2,0.8-2.8,1.2-3.8,2.3c-1.6,0.9-3.4,1.3-5.2,1.6c-0.8,0.2-1.2,0.5-1.3,1.3c-0.8,6-1.6,11.9-2.4,17.8
	c-0.2,1.3,0.8,1.6,1.6,2.1c0.8,0.4,2,1,1.8,1.8c-0.2,0.9-1.5,0.4-2.2,0.4c-1.4,0-2.9-0.2-4.3,0c-1,0.2-1.4-0.6-1.6-1.4
	C69.1,80.3,68.4,77.8,67.9,75.3z"/>
</svg>
