<?xml version="1.0" encoding="iso-8859-1"?>
<!-- Generator: Adobe Illustrator 18.1.1, SVG Export Plug-In . SVG Version: 6.00 Build 0)  -->
<!DOCTYPE svg PUBLIC "-//W3C//DTD SVG 1.1//EN" "http://www.w3.org/Graphics/SVG/1.1/DTD/svg11.dtd">
<svg version="1.1" xmlns="http://www.w3.org/2000/svg" xmlns:xlink="http://www.w3.org/1999/xlink" x="0px" y="0px"
	 viewBox="0 0 140 105" style="enable-background:new 0 0 140 105;" xml:space="preserve">
<g id="marsreel">
	<g>
		<path d="M29.623,69.337c-1.202,0.212-2.399,0.423-3.629,0.64c-0.036-0.637-0.012-1.255-0.016-1.873
			c-0.004-0.614-0.001-1.228-0.001-1.842c0-0.623,0-1.246,0-1.869c0-0.623,0-1.246,0-1.869c0-0.623,0-1.246,0-1.869
			c0-0.614,0-1.228,0-1.842c0-0.623,0-1.246,0-1.869s0-1.246,0-1.869c0-0.614,0-1.228,0-1.842c0-0.62,0-1.24,0-1.86
			c-0.02-0.001-0.04-0.002-0.061-0.004c-0.038,0.258-0.077,0.516-0.112,0.774c-0.174,1.288-0.345,2.577-0.52,3.866
			c-0.174,1.288-0.353,2.576-0.527,3.864c-0.192,1.415-0.379,2.831-0.571,4.247c-0.174,1.288-0.352,2.576-0.527,3.864
			c-0.098,0.717-0.195,1.433-0.289,2.15c-0.04,0.303-0.036,0.308-0.353,0.364c-1.081,0.193-2.163,0.384-3.244,0.575
			c-0.026,0.005-0.054-0.002-0.117-0.005c-0.874-6.155-1.747-12.312-2.621-18.469c-0.015,0.001-0.031,0.002-0.046,0.002
			c0,6.313,0,12.625,0,18.96c-1.083,0.191-2.143,0.378-3.218,0.568c0-8.406,0-16.786,0-25.193c1.856-0.327,3.701-0.653,5.583-0.985
			c0.771,5.904,1.539,11.792,2.307,17.679c0.017,0,0.034,0,0.05,0c0.793-6.159,1.585-12.319,2.382-18.513
			c1.836-0.324,3.671-0.648,5.505-0.972C29.655,44.367,29.68,68.638,29.623,69.337z"/>
		<path d="M47.022,56.165c0,3.377,0,6.727,0,10.106c-1.249,0.22-2.479,0.437-3.729,0.657c0-8.415,0-16.794,0-25.189
			c0.435-0.079,0.857-0.156,1.279-0.231c1.622-0.286,3.245-0.573,4.868-0.855c0.772-0.134,1.545-0.186,2.316,0.015
			c0.844,0.22,1.438,0.735,1.797,1.526c0.211,0.464,0.32,0.955,0.37,1.458c0.032,0.318,0.045,0.64,0.046,0.96
			c0.005,1.567,0.005,3.133,0,4.7c-0.002,0.578-0.055,1.152-0.201,1.714c-0.255,0.981-0.797,1.759-1.632,2.332
			c-0.067,0.046-0.134,0.093-0.236,0.163c0.093,0.027,0.155,0.052,0.219,0.063c1.334,0.225,1.679,1.081,1.809,1.915
			c0.045,0.288,0.065,0.583,0.065,0.875c0.005,2.803,0.003,5.607,0.003,8.41c0,0.073,0,0.145,0,0.255
			c-1.238,0.219-2.467,0.436-3.738,0.661c0-0.13,0-0.236,0-0.342c0-2.666,0.001-5.332-0.002-7.998c0-0.219-0.004-0.442-0.044-0.656
			c-0.122-0.645-0.52-0.948-1.175-0.876c-0.454,0.049-0.904,0.141-1.355,0.216C47.476,56.08,47.27,56.12,47.022,56.165z
			 M47.039,52.797c0.272-0.046,0.523-0.082,0.771-0.131c0.448-0.088,0.905-0.149,1.339-0.282c0.63-0.193,0.97-0.657,1.049-1.31
			c0.02-0.163,0.033-0.328,0.033-0.493c0.002-1.702,0.002-3.405,0-5.107c0-0.164-0.013-0.33-0.037-0.492
			c-0.08-0.549-0.42-0.838-0.976-0.836c-0.091,0-0.183,0.007-0.273,0.022c-0.55,0.095-1.099,0.193-1.648,0.291
			c-0.087,0.015-0.173,0.035-0.259,0.052C47.039,47.281,47.039,50.022,47.039,52.797z"/>
		<path d="M74.753,72.554c0-0.156,0-0.265,0-0.373c0-2.666,0.002-5.333-0.003-7.999c0-0.245-0.02-0.497-0.075-0.735
			c-0.115-0.498-0.426-0.745-0.937-0.768c-0.172-0.007-0.348,0.012-0.519,0.04c-0.559,0.091-1.116,0.192-1.699,0.294
			c0,3.37,0,6.729,0,10.109c-1.253,0.221-2.484,0.438-3.734,0.659c0-8.409,0-16.789,0-25.189c0.298-0.054,0.584-0.108,0.871-0.159
			c1.722-0.304,3.443-0.607,5.165-0.909c0.661-0.116,1.323-0.185,1.995-0.09c1.113,0.158,1.89,0.74,2.301,1.793
			c0.215,0.552,0.322,1.131,0.326,1.719c0.013,1.869,0.01,3.738,0.002,5.607c-0.002,0.467-0.082,0.929-0.205,1.382
			c-0.256,0.95-0.791,1.702-1.597,2.262c-0.067,0.047-0.135,0.093-0.202,0.141c-0.007,0.005-0.01,0.015-0.033,0.048
			c0.116,0.027,0.223,0.055,0.331,0.077c0.859,0.175,1.407,0.687,1.599,1.539c0.09,0.399,0.144,0.815,0.146,1.223
			c0.012,2.795,0.007,5.589,0.007,8.384c0,0.09,0,0.18,0,0.285C77.242,72.115,76.018,72.331,74.753,72.554z M71.533,51.356
			c0,2.776,0,5.529,0,8.3c0.505-0.089,0.992-0.168,1.476-0.263c0.25-0.049,0.504-0.103,0.74-0.195
			c0.476-0.184,0.776-0.542,0.895-1.037c0.043-0.176,0.066-0.362,0.066-0.543c0.005-1.813,0.004-3.626,0.001-5.44
			c0-0.154-0.021-0.311-0.055-0.462c-0.103-0.451-0.396-0.69-0.855-0.706c-0.137-0.005-0.277-0.006-0.411,0.017
			C72.778,51.131,72.166,51.243,71.533,51.356z"/>
		<path d="M55.358,55.045c1.22-0.215,2.408-0.424,3.633-0.64c0,0.137,0,0.245,0,0.352c0,1.585-0.002,3.17,0.003,4.755
			c0.001,0.209,0.018,0.423,0.067,0.625c0.1,0.416,0.403,0.655,0.833,0.665c0.517,0.012,1.023-0.08,1.507-0.258
			c0.627-0.231,0.882-0.732,0.932-1.365c0.007-0.091,0.007-0.183,0.007-0.275c0-1.099,0.003-2.199-0.002-3.298
			c-0.001-0.201-0.02-0.402-0.047-0.602c-0.055-0.417-0.244-0.767-0.578-1.026c-0.173-0.134-0.357-0.257-0.546-0.367
			c-1.243-0.722-2.489-1.439-3.733-2.159c-0.15-0.087-0.297-0.181-0.442-0.277c-0.954-0.637-1.469-1.535-1.578-2.67
			c-0.026-0.273-0.051-0.548-0.052-0.822c-0.004-1.31-0.005-2.62,0.003-3.93c0.003-0.561,0.087-1.114,0.237-1.654
			c0.407-1.467,1.322-2.492,2.731-3.056c0.464-0.186,0.955-0.321,1.446-0.422c0.761-0.156,1.531-0.276,2.301-0.385
			c0.528-0.075,1.059-0.052,1.584,0.069c0.914,0.211,1.552,0.749,1.923,1.607c0.251,0.58,0.367,1.195,0.374,1.819
			c0.019,1.631,0.01,3.262,0.011,4.892c0,0.027-0.008,0.054-0.018,0.119c-1.201,0.212-2.413,0.426-3.654,0.645
			c0-0.128,0-0.227,0-0.326c0-1.338,0.003-2.675-0.003-4.013c-0.001-0.209-0.015-0.423-0.062-0.626
			c-0.103-0.438-0.391-0.683-0.842-0.687c-0.515-0.005-1.024,0.08-1.499,0.288c-0.455,0.199-0.704,0.572-0.788,1.054
			c-0.028,0.162-0.04,0.328-0.041,0.492c-0.004,0.925-0.007,1.851,0.002,2.776c0.002,0.236,0.034,0.475,0.079,0.707
			c0.077,0.396,0.301,0.703,0.629,0.933c0.112,0.079,0.23,0.151,0.348,0.219c1.268,0.734,2.538,1.464,3.803,2.202
			c0.252,0.147,0.497,0.311,0.731,0.486c0.777,0.581,1.193,1.372,1.312,2.325c0.036,0.29,0.062,0.584,0.063,0.876
			c0.005,1.567,0.004,3.133-0.001,4.7c-0.002,0.561-0.087,1.114-0.24,1.654c-0.413,1.465-1.339,2.471-2.741,3.051
			c-0.666,0.275-1.366,0.408-2.069,0.53c-0.523,0.091-1.045,0.188-1.571,0.259c-0.528,0.071-1.058,0.077-1.587-0.017
			c-1.046-0.186-1.754-0.776-2.135-1.765c-0.199-0.519-0.28-1.06-0.317-1.61c-0.012-0.173-0.011-0.348-0.011-0.522
			c-0.001-1.667,0-3.335,0-5.002C55.358,55.274,55.358,55.174,55.358,55.045z"/>
		<path d="M38.256,63.86c-1.299,0.229-2.567,0.452-3.863,0.68c-0.153,1.35-0.305,2.691-0.458,4.038
			c-1.154,0.203-2.278,0.401-3.385,0.596c-0.028-0.025-0.035-0.03-0.041-0.037c-0.005-0.007-0.012-0.015-0.012-0.023
			c0.01-0.119,0.017-0.238,0.033-0.355c1.144-8.446,2.289-16.892,3.435-25.338c0.003-0.025,0.023-0.048,0.041-0.085
			c1.624-0.286,3.253-0.573,4.923-0.867c1.175,8.21,2.347,16.396,3.522,24.608c-1.239,0.219-2.452,0.433-3.703,0.654
			C38.585,66.445,38.424,65.178,38.256,63.86z M37.838,60.506c-0.503-4.091-1.003-8.155-1.503-12.218c-0.017,0-0.034,0-0.05,0
			c-0.49,4.238-0.979,8.477-1.473,12.75C35.835,60.859,36.814,60.686,37.838,60.506z"/>
		<path d="M88.24,44.984c0,1.175,0,2.317,0,3.496c-1.503,0.266-3.011,0.533-4.536,0.803c0,2.372,0,4.73,0,7.113
			c1.453-0.255,2.893-0.508,4.331-0.761c0.06,0.209,0.069,3.2,0.01,3.494c-1.44,0.255-2.887,0.511-4.345,0.768
			c0,2.528,0,5.033,0,7.579c1.544-0.27,3.071-0.538,4.617-0.809c0,1.177,0,2.318,0,3.495c-2.779,0.49-5.559,0.98-8.357,1.473
			c0-8.406,0-16.785,0-25.194C82.713,45.958,85.466,45.473,88.24,44.984z"/>
		<path d="M89.623,69.934c0-8.413,0-16.784,0-25.193c2.753-0.485,5.506-0.971,8.282-1.46c0,1.169,0,2.318,0,3.496
			c-1.504,0.266-3.013,0.533-4.533,0.802c0,2.371,0,4.722,0,7.112c1.455-0.255,2.899-0.508,4.362-0.765c0,1.17,0,2.32,0,3.495
			c-1.452,0.257-2.899,0.513-4.362,0.772c0,2.522,0,5.027,0,7.573c1.537-0.246,3.057-0.543,4.607-0.797c0,1.166,0,2.307,0,3.489
			C95.212,68.955,92.431,69.437,89.623,69.934z"/>
		<path d="M107.126,66.85c-2.611,0.46-5.206,0.918-7.822,1.379c0-8.396,0-16.774,0-25.192c1.219-0.216,2.449-0.433,3.716-0.657
			c0,7.236,0,14.448,0,21.694c1.388-0.243,2.736-0.478,4.106-0.718C107.126,64.534,107.126,65.676,107.126,66.85z"/>
		<path d="M22.664,37.395c-0.894,0.157-1.739,0.306-2.605,0.458c0,2.214,0,4.409,0,6.64c-0.544,0.096-1.069,0.189-1.619,0.287
			c0-4.857,0-9.681,0-14.536c0.521-0.093,1.047-0.186,1.611-0.287c0,2.121,0,4.214,0,6.331c0.882-0.155,1.727-0.304,2.594-0.457
			c0-2.102,0-4.197,0-6.329c0.541-0.096,1.066-0.188,1.612-0.284c0,4.865,0,9.689,0,14.536c-0.521,0.093-1.042,0.185-1.593,0.284
			C22.664,41.826,22.664,39.633,22.664,37.395z"/>
		<path d="M121.704,53.182c0.664-0.117,1.277-0.224,1.928-0.338c0.241,1.386,0.45,2.766,0.673,4.143
			c0.224,1.382,0.445,2.764,0.7,4.151c0.02-0.063,0.048-0.125,0.058-0.19c0.263-1.728,0.524-3.457,0.786-5.185
			c0.163-1.077,0.329-2.153,0.492-3.23c0.014-0.095,0.031-0.176,0.15-0.196c0.569-0.094,1.137-0.193,1.705-0.289
			c0.016-0.003,0.034,0.007,0.067,0.016c0,3.675,0,7.353,0,11.037c-0.036,0.016-0.067,0.039-0.101,0.045
			c-0.35,0.062-0.7,0.122-1.087,0.189c0-2.921,0-5.819,0-8.716c-0.021-0.001-0.042-0.003-0.063-0.004
			c-0.468,2.987-0.936,5.974-1.406,8.979c-0.412,0.074-0.815,0.146-1.255,0.225c-0.185-0.949-0.32-1.895-0.481-2.836
			c-0.162-0.947-0.313-1.896-0.47-2.844c-0.157-0.947-0.315-1.894-0.518-2.839c0,2.917,0,5.833,0,8.774
			c-0.4,0.072-0.773,0.138-1.184,0.212C121.678,60.566,121.709,56.882,121.704,53.182z"/>
		<path d="M25.345,29.024c1.469-0.259,2.919-0.515,4.411-0.777c0.001,0.273,0.002,0.526,0.003,0.778c0,0.246,0,0.493,0,0.762
			c-0.947,0.169-1.871,0.334-2.807,0.5c0,1.597,0,3.178,0,4.802c0.901-0.156,1.787-0.31,2.691-0.467c0,0.52,0,1.009,0,1.518
			c-0.902,0.16-1.791,0.319-2.691,0.479c0,1.706,0,3.397,0,5.116c0.944-0.165,1.871-0.327,2.795-0.488
			c0.06,0.2,0.076,1.057,0.028,1.537c-1.463,0.258-2.936,0.517-4.431,0.781C25.345,38.706,25.345,33.881,25.345,29.024z"/>
		<path d="M116.404,59.638c0-1.135-0.005-2.27,0.003-3.405c0.002-0.282,0.024-0.568,0.075-0.845c0.148-0.801,0.628-1.325,1.396-1.58
			c0.479-0.159,0.976-0.242,1.48-0.266c0.136-0.007,0.276-0.001,0.41,0.023c0.604,0.11,0.971,0.522,1.064,1.199
			c0.029,0.208,0.043,0.419,0.044,0.629c0.003,2.316,0.005,4.632-0.002,6.948c-0.001,0.3-0.03,0.605-0.092,0.898
			c-0.144,0.684-0.552,1.167-1.2,1.432c-0.556,0.228-1.146,0.329-1.742,0.336c-0.803,0.009-1.282-0.427-1.392-1.223
			c-0.03-0.217-0.043-0.438-0.044-0.657C116.401,61.963,116.404,60.801,116.404,59.638z M117.647,59.431
			c0,1.182,0,2.363,0.001,3.545c0,0.119-0.002,0.24,0.018,0.356c0.056,0.327,0.268,0.504,0.599,0.473
			c0.254-0.024,0.508-0.073,0.754-0.139c0.369-0.098,0.558-0.363,0.606-0.733c0.012-0.09,0.011-0.183,0.011-0.274
			c0.001-2.382,0.001-4.763,0-7.145c0-0.091,0-0.184-0.013-0.274c-0.049-0.338-0.239-0.51-0.577-0.494
			c-0.218,0.01-0.437,0.047-0.65,0.095c-0.502,0.113-0.728,0.396-0.747,0.908c-0.003,0.082-0.002,0.165-0.002,0.247
			C117.647,57.141,117.647,58.286,117.647,59.431z"/>
		<path d="M15.359,45.324c-0.555,0.097-1.066,0.187-1.618,0.284c-0.014-2.178,0.001-4.334,0-6.49c-0.001-2.151,0-4.302,0-6.487
			c-0.717,0.083-1.398,0.248-2.107,0.347c0-0.511,0-1.002,0-1.532c1.923-0.35,3.857-0.683,5.786-1.023
			c0.066,0.198,0.082,1.116,0.029,1.534c-0.682,0.122-1.373,0.246-2.089,0.375C15.359,36.657,15.359,40.976,15.359,45.324z"/>
		<path d="M114.172,61.343c0.396-0.071,0.771-0.139,1.162-0.209c0.014,0.042,0.033,0.074,0.033,0.106
			c-0.003,0.843,0.021,1.687-0.02,2.527c-0.051,1.052-0.606,1.721-1.622,1.99c-0.413,0.109-0.844,0.185-1.27,0.202
			c-0.855,0.035-1.355-0.425-1.452-1.277c-0.019-0.163-0.028-0.329-0.028-0.493c-0.002-2.373-0.002-4.745-0.001-7.118
			c0-0.331,0.029-0.658,0.129-0.976c0.165-0.524,0.478-0.931,0.972-1.171c0.663-0.321,1.372-0.452,2.106-0.396
			c0.53,0.041,0.881,0.342,1.038,0.845c0.067,0.216,0.11,0.448,0.116,0.673c0.016,0.687,0.008,1.374,0.008,2.061
			c0,0.035-0.009,0.071-0.018,0.133c-0.382,0.068-0.766,0.137-1.174,0.21c-0.006-0.103-0.015-0.182-0.015-0.261
			c-0.001-0.559,0-1.118-0.001-1.676c0-0.082,0.003-0.165-0.005-0.247c-0.04-0.409-0.284-0.606-0.691-0.552
			c-0.163,0.022-0.326,0.05-0.487,0.086c-0.481,0.105-0.724,0.398-0.741,0.886c-0.002,0.046-0.001,0.092-0.001,0.137
			c-0.002,2.354-0.004,4.709-0.003,7.063c0,0.155,0.003,0.314,0.036,0.463c0.06,0.275,0.231,0.428,0.505,0.407
			c0.298-0.022,0.599-0.075,0.886-0.159c0.297-0.087,0.459-0.323,0.505-0.628c0.022-0.144,0.032-0.291,0.033-0.437
			c0.003-0.623,0.001-1.246,0.001-1.869C114.172,61.563,114.172,61.464,114.172,61.343z"/>
		<path d="M109.788,64.534c0,0.634,0,1.232,0,1.847c-0.389,0.068-0.763,0.134-1.161,0.204c0-0.616,0-1.206,0-1.838
			C108.994,64.68,109.375,64.61,109.788,64.534z"/>
	</g>
</g>
<g id="Layer_1">
</g>
</svg>
