<svg xmlns="http://www.w3.org/2000/svg" viewBox="0 0 140 105" enable-background="new 0 0 140 105"><path d="M22.253 41.534c.01-.06.014-.118.01-.177l-.072-.924.065-.334c.017-.094.015-.186-.004-.27.026-.114.02-.234-.014-.348l-.05-.155v-.103c0-.17-.063-.33-.17-.45.004-.115-.02-.228-.072-.33.047-.123.058-.258.03-.39-.045-.196-.175-.363-.355-.454-.026-.012-.043-.022-.055-.03l-.086-.127-.01-.012c-.09-.126-.302-.34-.72-.34-.98 0-1.253.632-1.325.904l-.004.016-.236 1.003c-.042.177-.01.364.088.517.026.04.055.076.088.11.01.06.027.118.053.174l.177.382v.734c0 .08.014.158.04.233l.227.614-.093.31c-.047.16-.033.332.036.48-.065.138-.08.294-.045.444l.108.446-.075.183c-.022.053-.038.11-.045.17l-.198 1.527c-.01.08-.006.164.013.244l.025.104-.062.136c-.043.097-.063.2-.06.3-.02.032-.036.065-.05.1-.065.147-.07.312-.024.464-.02.064-.03.13-.03.202l-.022.233c-.148.12-.242.307-.242.515v.29l-.084.243c-.086.055-.173.133-.256.236-.085.105-.135.233-.146.365-.147.145-.216.346-.198.542-.025.045-.044.094-.058.144-.152.077-.272.21-.33.38l-.096.277-.12.046c-.183.07-.327.22-.39.41l-.028.077-.162.1c-.047.028-.09.062-.13.1-.046.02-.09.045-.132.074-.04.028-.078.047-.12.058-.043.01-.085.024-.124.043l-.14.067h-.033c-.16 0-.315.056-.436.16h-.107c-.202 0-.39.09-.518.243h-.775c-.018 0-.035 0-.053.002l-.47.037c-.336.023-.67.035-.994.035-.04 0-.08.004-.118.01l-.106.02c-.057.01-.11.026-.16.048l-.366-.068c-.094-.018-.19-.014-.282.01l-.058.01c-.015-.004-.03-.01-.047-.012l-.383-.094c-.077-.02-.156-.025-.234-.016l-.746.083c-.26.03-.48.207-.564.457-.032.097-.064.193-.094.29-.058.18-.037.375.057.54.093.163.25.28.435.32l.587.133c.058.013.118.018.178.016l.104-.005.013.015c.13.137.308.207.486.207.123 0 .247-.034.358-.103l.112-.07.036.007c.07.015.142.02.213.012l.512-.056.698.155c.11.024.226.02.335-.012l.802-.236.73.064c.137.013.274-.017.392-.084l.042-.024h.06c.13 0 .26-.04.37-.112l.008-.005.036.002c.124.01.25-.017.36-.075l.45-.235c.05-.005.1-.015.148-.03l.17-.057c.034-.01.066-.025.097-.04l1.136-.582c.088-.044.164-.106.223-.183l.568-.722c.02-.026.04-.055.057-.084l.09-.038c.207-.084.356-.265.404-.478.068-.063.12-.14.16-.226l.016-.04.136-.138c.063-.064.112-.14.145-.22.102-.098.17-.225.197-.362.117-.124.183-.29.183-.462 0-.024 0-.047.002-.07.133-.116.217-.28.232-.457v-.018c.13-.127.2-.3.2-.478v-.314l.01-.113c.255-.134.4-.42.35-.71-.023-.135-.086-.255-.175-.348v-.016c0-.042-.004-.083-.012-.125l-.065-.346c.005-.033.015-.042.024-.05.177-.15.258-.374.232-.59.065-.12.095-.263.078-.406l-.018-.147.02-.24c.002-.03.003-.06.002-.09.17-.15.253-.38.217-.606l-.02-.11c.052-.122.067-.256.042-.386l-.084-.446.06-.36c.01-.066.012-.132.003-.198l-.003-.033c.077-.1.126-.22.14-.346.016-.168-.03-.336-.132-.47l.02-.096zm16.48 5.046c.284-.003.555-.07.807-.2l.29.043c.186.027.374-.025.52-.143l.163-.132.05.018c.16.055.337.047.492-.022.358-.158.572-.487.572-.88 0-.183-.075-.36-.208-.486-.135-.127-.314-.193-.497-.185l-.352.016c-.3-.17-.447-.22-.62-.22-.265 0-.465.143-.644.295-.013.003-.037.007-.078.007-.03 0-.11-.005-.27-.05-.06-.017-.122-.026-.184-.026H38.2c-.047 0-.094.005-.14.015l-.32.068c-.032-.034-.088-.102-.157-.23.027-.09.04-.18.04-.266 0-.04-.002-.077-.01-.116l-.05-.296v-.334c0-.16-.057-.314-.16-.437l-.015-.016c.016-.16-.026-.324-.124-.458l-.247-.343-.032-.36c-.003-.038-.01-.075-.02-.112l-.22-.833c-.015-.054-.036-.106-.063-.155l-.288-.517-.16-.632-.045-.514c-.023-.24-.17-.45-.386-.55-.05-.096-.103-.18-.16-.26l-.032-.433c-.017-.233-.155-.44-.363-.548l-.407-.21-.024-.015-.12-.187c-.126-.195-.343-.31-.574-.308-.224.002-.43.116-.553.302-.293.102-.57.33-.826.68-.14.19-.17.438-.08.655-.077.09-.13.202-.15.32-.02.125-.065.164-.08.177-.22.196-.284.26-.315.292-.1.103-.165.236-.184.38-.104.11-.17.26-.178.42-.08.09-.136.2-.16.32-.135.057-.25.156-.325.286-.038.065-.064.135-.078.207l-.134.28c-.152.08-.267.217-.322.38-.26.096-.44.345-.44.63v.05c0 .003-.01.16-.37.48-.145.13-.228.313-.228.506v.004c-.11.072-.197.174-.25.297-.207.074-.368.245-.426.463-.02.072-.027.146-.022.218-.01.024-.02.047-.028.07-.27.184-.56.394-.604.74l-.123.08-.337-.037c-.19-.02-.38.04-.522.17-.113.102-.19.24-.213.39l-.27.25c-.198.182-.268.464-.178.72.05.135.11.26.19.372l-.56.893-.143.058c-.198.08-.346.25-.4.456-.092.36-.255.606-.496.75-.166.097-.283.264-.32.454l-.004.023c-.005.004-.033.025-.11.046-.243.065-.43.263-.482.51-.027.13-.07.15-.113.168-.022.01-.044.02-.066.035l-.192.11-.322.046c-.213.03-.4.16-.5.35-.062.115-.088.243-.078.37-.065.105-.1.227-.1.352v.228l-.043.1c-.078.18-.074.383.01.558.084.175.24.305.427.358l.503.14c.184.05.382.02.543-.083l.65-.417c.087-.056.16-.132.214-.222l.442-.746c.1-.046.185-.117.252-.206l.614-.823.013-.01c.232-.076.405-.31 1.252-1.65l.142-.036c.165-.04.31-.144.402-.287.33-.512.554-.785.69-.928h.005c.08.03.16.047.244.047l.005.006c.193.215.503.282.77.165l.274-.122h.027l.037.03c.213.17.507.195.745.065.18.058.376.038.542-.06.034-.02.067-.04.097-.066l.144-.01.353.078c.18.04.37.004.525-.1l.257-.174h.194l.292.022c.163.013.325-.01.478-.047.035.018.072.033.11.044.16.048.33.037.48-.032.167.03.344-.002.494-.1l.11-.075.23.047c.062.012.124.016.186.01.145.234.207.35.232.4l.076.573c.015.115.06.224.13.317l.118.157.493 1.218c.03.074.073.142.126.2l.22.242.01.167c.01.174.086.337.214.455l.018.016c.01.165.08.32.197.435.18.18.355.442.517.777.065.13.17.238.298.304l.057.03.134.254c.115.22.345.36.594.36l.154.116c.12.096.268.15.42.15l.225.176c.123.1.273.15.423.15.144 0 .288-.045.41-.138l.33-.252c.167-.128.265-.326.264-.537 0-.21-.1-.41-.267-.536L41.1 52l-.1-.24c-.06-.14-.17-.26-.306-.33l-.258-.138c-.104-.18-.26-.394-.482-.663l-.546-.96c-.032-.057-.07-.107-.118-.15l-.106-.105.002-.01c.04-.178.007-.366-.095-.52l-.464-.703-.04-.314c-.014-.1-.05-.194-.103-.278l-.227-.35-.044-.528c.18.025.37-.023.516-.136zm-6.328-1.563c-.166-.055-.28-.084-.4-.084-.124 0-.23.022-.316.055-.05.01-.087.014-.11.017l-.03-.01-.056-.018-.473-.12c.044-.06.077-.126.098-.198l.145-.49c.36-.225.62-.616.775-1.17l.255-.137c.172-.09.296-.252.34-.44l.057-.24c.442-.463.526-.596.575-.698l.128-.252.575-.848c.01.006.017.012.023.017l.147.237c.006.01.014.023.023.034.008.012.015.02.02.03l.042.474c.01.12.052.23.116.32l.023.05.123.253.036.306c.01.098.045.192.097.276l.223.36.084.83c.016.157.086.302.195.41-.02.207.054.412.204.554-.05.098-.075.205-.074.314-.13-.016-.31-.04-.562-.078-.064-.01-.13-.01-.194 0l-.774.11-.958.074c-.033.002-.066.008-.098.015l-.225.053c-.013 0-.024-.004-.036-.008zm24.383-3.453c.073-.075.127-.166.158-.266l.135-.427.184-.23c.067-.085.112-.185.132-.29l.073-.39c.023-.13.02-.274-.02-.53-.046-.28-.177-.505-.368-.654-.196-.298-.498-.41-.75-.41h-.066l-.027-.01c-.21-.088-.447-.066-.635.058-.104.07-.186.165-.237.274-.03.02-.078.052-.15.092-.198.11-.327.315-.342.543-.01.176-.025.26-.032.29l-.116.232c-.03.056-.05.117-.06.178l-.1.518c-.005.03-.01.064-.01.094 0 .002-.002.003-.004.004-.075.072-.132.16-.166.26l-.1.287-.106.116c-.113.125-.176.286-.176.454v.124l-.034.145-.014.014c-.118.112-.188.26-.205.416-.112.138-.184.27-.223.408-.01.04-.02.084-.022.125-.078.132-.143.3-.204.513-.027.1-.05.163-.062.198-.052.04-.097.087-.136.14-.138.193-.32.4-.545.616-.04.04-.074.083-.104.13l-.263.426-.224.287c-.044.056-.078.118-.1.184l-.115.314-.14.152-.02.023c-.103.12-.205.302-.328.586l-.062.14c-.145.062-.266.176-.337.323-.036.073-.06.112-.07.13-.104.106-.196.252-.3.475-.054.11-.11.21-.172.29-.056.072-.116.134-.177.183-.04.03-.076.067-.108.106l-.312.387-.24.195c-.016.014-.032.028-.047.044-.067.066-.128.13-.185.19-.083-.143-.15-.3-.2-.474l-.005-.013-.306-.96c-.017-.052-.04-.103-.07-.15l-.065-.106.012-.085c.023-.154-.01-.312-.09-.447l-.377-.622-.122-.47c-.008-.033-.018-.063-.03-.093l-.16-.38c-.03-.072-.073-.138-.127-.196-.043-.046-.104-.127-.127-.297-.053-.384-.22-.73-.5-1.03l-.214-.366-.016-.102c-.014-.078-.04-.153-.08-.223l-.367-.653-.013-.157c-.014-.168-.09-.325-.214-.44l-.09-.082-.048-.178c-.035-.132-.11-.25-.213-.338-.234-.2-.29-.282-.286-.277-.046-.085-.147-.266-.51-.853-.03-.05-.07-.096-.11-.137l-.18-.167-.25-.52c-.08-.162-.22-.283-.384-.34-.033-.037-.07-.07-.112-.098-.218-.15-.506-.22-.907-.22-.07 0-.142.013-.21.035l-.23.076c-.177.06-.322.186-.4.354-.164.346-.236.602-.236.83 0 .018 0 .037.003.055l.024.29c.01.12.053.238.125.337.345.477.68.808 1.028 1.01.017.01.035.018.052.026l.223.408.012.022.404.682c.04.062.085.118.14.165l.12.103.256.583c.06.133.158.243.284.314l.146.082.19.616c.017.055.04.108.072.157l.646 1.036.572 1.12.35.89.02.405c.005.103.033.2.082.29l.24.444.262.77c.083.257.263.59.565 1.04l.217.57c.01.028.023.054.037.08.04.078.12.217.232.417.095.168.175.33.237.484.252.624.733.69.93.69.35 0 .574-.14.704-.264.138-.133.242-.323.358-.654.03-.092.044-.19.034-.286l-.065-.682c.106-.19.18-.36.228-.52l.347-.29c.06-.05.11-.11.15-.178l.38-.658.844-1.103c.01-.01.016-.023.024-.033l.236-.35.136-.12c.054-.05.1-.106.135-.17l.28-.495.444-.55c.04-.05.073-.106.098-.165l.312-.753.523-.584c.05-.055.09-.117.118-.184l.038-.064c.017-.027.05-.073.118-.14.1-.098.203-.203.308-.316.176-.19.29-.418.33-.666l.007-.006c.303-.22.507-.553.588-.962.005-.026.01-.053.012-.08.017-.22.07-.305.093-.33.03-.034.056-.07.077-.11l.252-.443.194-.2zm17.844 10.464l-.04-.03-.1-.24c-.06-.14-.168-.26-.305-.33l-.258-.137c-.105-.18-.26-.392-.483-.662l-.546-.96c-.03-.055-.07-.105-.117-.15l-.106-.103.002-.01c.04-.178.006-.366-.096-.52l-.465-.703-.04-.313c-.015-.1-.05-.195-.104-.28l-.227-.35-.045-.528c.185.03.373-.017.52-.13.286-.004.557-.07.81-.2l.29.042c.185.026.373-.025.518-.143l.163-.132.05.018c.162.055.337.047.493-.02.357-.16.57-.49.57-.88 0-.185-.075-.36-.207-.488-.133-.127-.312-.194-.495-.185l-.354.016c-.296-.168-.45-.22-.62-.22-.266 0-.465.144-.645.296-.013.003-.037.007-.078.007-.027 0-.108-.005-.27-.05-.06-.017-.12-.026-.183-.026h-.576c-.047 0-.094.005-.14.015l-.318.068c-.033-.034-.09-.1-.158-.23.026-.09.04-.177.04-.265 0-.038-.004-.077-.01-.115l-.05-.297v-.333c0-.16-.058-.314-.162-.437l-.013-.016c.016-.16-.027-.324-.124-.458l-.247-.344-.033-.36c-.002-.038-.01-.075-.018-.112l-.22-.833c-.015-.053-.036-.105-.063-.154l-.29-.517-.16-.633-.045-.514c-.02-.24-.168-.45-.383-.552-.05-.094-.103-.18-.16-.256l-.032-.434c-.016-.233-.154-.44-.362-.548l-.406-.21c-.01-.004-.017-.008-.024-.013l-.12-.19c-.126-.193-.342-.312-.574-.306-.223.002-.43.117-.553.302-.29.102-.567.33-.824.68-.14.19-.17.438-.08.655-.077.09-.13.204-.15.323-.022.123-.065.162-.08.175-.22.197-.282.257-.316.292-.1.104-.165.237-.184.38-.103.112-.17.26-.176.42-.08.09-.136.2-.16.32-.136.057-.25.156-.325.285-.038.065-.064.136-.078.208l-.133.28c-.15.082-.267.218-.322.38-.26.097-.44.346-.44.632v.05c0 .002-.01.16-.373.48-.147.13-.23.312-.23.505v.005c-.11.07-.197.174-.25.296-.205.074-.366.245-.424.463-.02.072-.026.146-.02.217l-.03.07c-.27.183-.56.393-.603.74l-.123.08-.335-.038c-.19-.022-.38.04-.523.167-.114.1-.19.24-.214.387l-.272.25c-.197.184-.267.466-.177.72.046.137.11.262.186.374l-.56.893-.14.058c-.2.08-.347.25-.4.457-.093.362-.256.607-.497.75-.168.098-.285.264-.32.455l-.006.025c-.004.003-.032.025-.11.046-.243.067-.43.264-.482.512-.027.128-.07.147-.113.166-.024.01-.046.02-.068.035l-.192.11-.322.046c-.213.03-.4.16-.5.35-.062.115-.088.243-.078.37-.065.105-.1.227-.1.352v.227l-.043.1c-.077.177-.073.38.01.556.085.175.24.305.428.358l.502.14c.184.05.382.02.543-.083l.65-.417c.087-.056.16-.132.214-.223l.442-.746c.1-.046.186-.117.253-.206l.612-.823.007-.004c.23-.063.384-.27 1.26-1.65l.14-.037c.167-.04.31-.144.403-.287.33-.512.554-.785.69-.928l.004.002c.08.03.162.045.244.045l.006.006c.194.217.504.283.77.167l.274-.12h.027l.033.027c.212.17.506.196.744.066.18.056.376.036.542-.06.035-.02.067-.043.097-.068l.142-.01.354.078c.18.04.37.004.52-.1l.26-.174h.194l.292.022c.164.013.326-.01.48-.047.035.02.072.035.11.046.16.05.33.038.478-.03.168.03.345-.003.495-.102l.11-.074.23.046c.06.012.123.016.185.01.145.234.207.35.232.4l.076.573c.015.113.06.222.13.314l.118.157.494 1.22c.03.074.073.14.126.2l.22.24.01.17c.01.172.09.335.216.453l.018.017c.01.165.08.32.197.435.183.18.358.442.52.777.063.13.167.238.296.304l.057.03.134.255c.117.223.346.36.595.36l.155.118c.12.096.268.15.422.15l.223.176c.124.1.275.15.426.15.143 0 .286-.045.407-.138l.33-.252c.168-.127.265-.326.265-.536 0-.214-.1-.412-.268-.54zm-8.733-7.01c-.168-.056-.28-.085-.403-.085-.125 0-.23.022-.316.055-.05.01-.084.014-.105.017-.01-.002-.02-.006-.032-.01l-.056-.018-.473-.12c.043-.06.076-.126.097-.198l.146-.49c.36-.225.62-.617.775-1.17l.256-.136c.172-.09.296-.252.34-.44l.057-.238c.44-.462.525-.595.575-.7l.127-.25.575-.85.023.018.146.236c.01.013.016.026.024.038l.02.028.042.474c.01.12.053.23.117.324l.02.05.123.25.036.304c.01.098.044.193.096.277l.223.36.083.83c.016.157.087.302.196.41-.02.207.056.412.206.554-.05.096-.076.203-.074.312-.13-.016-.312-.04-.563-.078-.065-.01-.13-.01-.195 0l-.774.11-.957.074c-.033 0-.066.007-.098.014l-.225.052-.03-.01zm31.195 2.714c-.2-.196-.448-.3-.715-.3-.596 0-.928.58-1.055.82l-.124.18c-.056.086-.094.183-.11.285l-.107.747-.274.586-.158.132c-.07.06-.128.135-.17.218-.05.037-.18.116-.46.23l-.876.086-.19-.087c-.078-.038-.164-.06-.25-.063l-1.02-.047-.523-.153c-.058-.017-.118-.027-.18-.028l-1.55-.025c-.215-.16-.5-.255-.887-.296-.275-.03-.535-.06-.772-.093-.04-.006-.084-.007-.127-.006-.178-.11-.398-.132-.594-.06l-.196-.06c-.102-.032-.21-.04-.317-.022h-.013c-.308-.183-.675-.276-1.097-.276-.095 0-.218.008-.38.024-.028-.042-.057-.08-.088-.118-.22-.254-.59-.31-.873-.13l-.14.09c-.058-.01-.145-.03-.27-.077-.12-.043-.25-.052-.376-.026-.117-.134-.283-.217-.462-.228l-1.15-.076c-.022 0-.042-.002-.062 0l-.126.002.5-.315c.08-.05.146-.114.198-.19l.544-.795.407-.187c.036-.016.07-.035.1-.057l.332-.227c.1-.067.177-.16.227-.266l.156-.053c.336-.112.443-.39.62-.85.03-.073.06-.114.085-.136h.257c.258 0 .493-.148.606-.38.035-.072.106-.178.316-.26.172-.07.31-.207.377-.38l.022-.057c.15-.072.286-.17.382-.32.04-.06.083-.137.132-.236.046-.033.155-.107.383-.224.177-.093.302-.26.346-.45.038-.043.07-.09.094-.143l.028-.012c.17-.076.312-.19.416-.33.126-.075.225-.192.28-.332l.144-.095c.112-.073.2-.18.25-.304l.036-.084h.006c.23-.03.428-.176.525-.387.014-.03.106-.21.538-.72.016-.017.03-.035.043-.054l.085-.124.415-.313c.027-.02.054-.045.078-.07l.408-.42.21-.117c.143-.08.25-.21.304-.36.103-.036.196-.098.27-.18.025-.027.044-.046.056-.056l.518-.173c.16-.054.292-.165.374-.31l.098-.178c.073-.132.1-.283.077-.432-.07-.45-.26-.835-.56-1.146-.088-.09-.198-.153-.32-.184-.197-.05-.324-.07-.434-.07-.154 0-.332.052-.48.183-.093.04-.182.095-.27.163l-.023-.002h-.183c-.035 0-.07 0-.103.007l-.56.087-.597-.066c-.056-.006-.113-.005-.17.002l-.457.066-.335-.02h-.04c-.138 0-.324.01-.567.033l-.018-.01c-.138-.072-.297-.093-.45-.06l-.284.06c-.62-.002-1.086-.032-1.38-.088-.204-.04-.408.016-.56.145-.022-.007-.045-.015-.07-.027-.114-.048-.237-.065-.355-.05-.072-.032-.152-.05-.235-.055l-.527-.025c-.122-.007-.243.022-.35.08l-.095.05-1.062-.127c-.08-.01-.163-.003-.243.017l-.378.094-.023-.01c-.097-.04-.203-.06-.31-.053l-.798.05c-.28 0-.425-.012-.5-.02-.136-.018-.275.008-.4.073l-.33.177c-.226.122-.363.36-.354.618.054 1.42.73 1.633 1.126 1.633h.074c.09 0 .18-.017.264-.053l.09-.04.215.09c.214.092.456.064.642-.064.142.084.31.11.47.08.094.044.195.065.3.065.1 0 .246-.02.39-.11l.03.014c.166.083.357.093.53.032.15.054.318.053.473-.008l.408-.162c.187.02.41.032.678.032.254 0 .44-.01.58-.03l.037-.002c.117.136.284.22.463.232.187.013.37-.052.506-.18l.052-.05c.02.003.043.004.064.004h.404c.033 0 .066-.003.1-.008l.008-.002.065.023c.098.035.205.046.31.03l.232-.03c.138.106.313.156.487.135l.054-.007c-.13.156-.2.223-.226.246-.156.083-.274.223-.327.393l-.075.242-.33.22c-.078.052-.143.12-.193.196l-.306.477c-.135.042-.253.126-.337.238-.047.018-.092.04-.135.07-.124.08-.216.197-.265.332-.068.058-.128.122-.178.19-.16.03-.352.108-.532.295-.05.053-.09.112-.12.175-.133.076-.236.195-.29.34l-.033.083-.094.07-.118.02c-.168.03-.32.12-.423.257l-.346.456c-.22.062-.458.232-.85.595-.118.11-.193.256-.21.415l-.008.057-.16.08c-.214.112-.373.23-.487.368-.01.01-.017.02-.025.03l-.245.33c-.245.03-.45.194-.538.416-.132.07-.268.18-.39.35H80.6c-.268 0-.503.155-.61.39-.034.02-.065.05-.093.076-.057.058-.092.104-.29.424-.027.042-.05.075-.07.103-.224.036-.416.183-.508.392-.093.05-.18.11-.267.18-.262.1-.563.322-.99.724l-.57.215c-.145.055-.265.157-.34.287-.033.02-.09.05-.184.088-.16.068-.29.195-.36.355l-.097.227c-.036.084-.055.175-.055.267v.314c0 .15.05.296.143.415.12.15.16.23.167.25.068.304.34.524.656.524h.145l.114.04c.23.078.485.026.667-.136l.48-.43.49-.062c.16-.02.31-.1.42-.22v-.002c.06 0 .12-.008.175-.024.12.033.25.032.373-.006.042.013.085.022.128.026.26.026.366.048.402.057l.24.11c.23.107.495.075.69-.074.098.018.198.013.293-.012l.058-.014c.117.04.245.048.37.02l.81.21c.056.014.113.02.17.02h.31l.958.127.23.147c.123.08.27.116.416.105l.327-.028c.166.13.386.176.592.118.147-.04.254-.067.33-.084.035.018.072.033.11.044l.82.24c.155.044.32.032.467-.034l.194.082c.064.028.132.045.202.05l.926.085.21.165c.187.148.434.184.65.103.16.11.357.146.546.098.062-.016.12-.04.175-.072l.372.18c.096.046.204.07.312.065l.735-.025c.04 0 .075 0 .102.003.02.015.043.028.066.042.196.107.433.11.63.006.01-.004.02-.01.03-.012l.032.026c.123.1.274.15.425.15.107 0 .215-.025.314-.077.098.02.2.02.3-.005.09-.022.17-.06.243-.114l.056-.01.05.032c.174.116.394.143.593.074.187-.066.334-.21.405-.393.02-.01.058-.025.124-.04.208-.05.382-.195.466-.393.15-.057.273-.164.35-.304.06-.107.115-.255.194-.513.034-.11.066-.143.066-.143.08-.07.143-.16.182-.26l.392-1.01.015-.043.257-.82c.015-.047.024-.095.028-.143l.05-.567v-.06c-.002-.333-.23-.555-.315-.638zm14.167-10.234l-.028-.017c-.125-.076-.272-.11-.42-.096l-.533.05c-.153-.097-.343-.13-.524-.082l-.075.02-.243-.1c-.158-.067-.33-.07-.486-.014-.083-.03-.172-.043-.26-.038-.097-.068-.21-.113-.333-.124-.176-.017-.348.037-.48.143l-.035-.016c-.105-.046-.22-.064-.335-.053l-2.354.236-.427-.024c-.172-.01-.336.013-.486.05-.17-.048-.357-.026-.515.065-.11.063-.168.082-.185.087-.046.002-.093.008-.137.02l-.4.095-.042-.007c-.032-.004-.064-.007-.1-.007-.203 0-.405.034-.6.1-.094-.057-.2-.092-.313-.1l-.832-.05c-.253-.016-.492.115-.62.335-.025.043-.045.088-.06.134h-.034c-.144 0-.267.03-.752.225-.098.04-.184.1-.254.177-.065.038-.123.085-.173.143-.34.388-.496.725-.496 1.06 0 .274.11.532.314.73.2.195.447.297.713.297h.054c.02 0 .04 0 .062-.003l.02-.002-.052.195-.27.753c-.05.132-.054.276-.015.41l.06.214v.64c0 .045.003.09.012.134-.1.103-.174.228-.214.367-.232.165-.46.485-.46 1.103 0 .193.02.475.21.696.006.008.05.06.254.325l.156.937c-.144.184-.183.43-.1.65l.11.302-.038.17c-.012.05-.018.1-.018.15 0 .124 0 .213.395 1.406.264.8.526 1.376.8 1.763.292.412.634.726 1.024.94l1.03.54.064.03.6.24c.08.03.165.048.25.048.098 0 .196-.02.286-.064l.623-.293.447.1c.21.048.428-.007.59-.15.076-.014.15-.042.216-.083.267.072.552-.027.717-.252l.16-.217.982-.42c.086-.037.164-.092.228-.16l.09-.097c.135-.02.263-.084.364-.18l.366-.357.572-.405c.15-.1.32-.278.64-.762l.048-.01c.152-.038.285-.127.378-.252l.858-1.15c.13-.174.168-.4.1-.608-.155-.48-.518-.77-.97-.77h-.073c-.298 0-.555.196-.642.47-.164.07-.295.202-.362.368-.135.093-.234.234-.274.398-.017.068-.056.23-.445.346-.095.03-.184.08-.26.147l-.453.412-.1.008c-.144.01-.28.068-.39.163-.168.145-.312.3-.432.458l-.26.212c-.013.008-.03.017-.053.024l-.27.075c-.062.018-.12.044-.172.077h-.05c-.132 0-.26.04-.37.112-.16.104-.253.16-.305.19h-.426c-.19 0-.366.08-.49.215-.05.01-.087.018-.11.02l-.367-.06c-.036-.005-.073-.01-.11-.01-.206 0-.57-.094-1.145-.54l-.39-.62c-.01-.017-.022-.033-.033-.047-.008-.148-.065-.29-.165-.405l-.09-.102c-.07-.496-.11-.66-.174-.778l.013-.246c.004-.094-.01-.188-.045-.276l-.034-.09c.05-.117.068-.25.045-.378l-.197-1.133c.08-.02.15-.038.214-.057.095.036.2.05.302.04l.906-.087c.052-.004.104-.016.154-.033l.282-.098c.223-.068.303-.07.306-.07h.013l.02.007.404.1c.182.047.377.014.534-.09l.026-.018.134.063c.206.097.443.083.633-.03.174.042.358.012.508-.08.21.057.436.005.603-.13l.822-.022.172.05c.177.05.367.025.526-.07l.177-.105c.122.02.248.01.364-.037l.17-.067.39.037c.125.01.25-.013.364-.07l.458-.232.078.02c.213.06.334.083.446.083.234 0 .512-.07.9-.225.204-.082.354-.258.404-.472l.073-.315c.054-.226-.014-.463-.178-.627-.163-.164-.4-.233-.627-.18l-.127.03-.123-.05c-.124-.05-.26-.062-.39-.033l-.12.026-.458-.06c-.03-.003-.06-.005-.09-.005-.294 0-.514.09-.67.22l-.13.028-.763-.045c-.034 0-.068 0-.103.002l-.215.02c-.057-.007-.213-.03-.616-.11-.172-.036-.346 0-.488.088l-.222-.04c-.09-.018-.182-.015-.272.005l-.33.076-.032.007c-.008.002-.082.022-.31.04-.018.003-.035.003-.05.003-.032 0-.076-.003-.104-.018-.2-.104-.44-.1-.638.01-.056.033-.098.053-.126.066l-.082-.024c-.11-.032-.226-.035-.337-.01l-.27.064-.134-.013c-.088-.008-.176 0-.26.025l-.048.014-.187-.067c-.16-.057-.336-.05-.492.017l-.223.097c-.03-.005-.066-.013-.108-.025-.27-.075-.545-.075-.81.003l-.096.026c.015-.074.047-.178.11-.316.04-.088.06-.182.06-.275.094-.185.1-.405.01-.595l.014-.326c0-.037 0-.073-.004-.11l-.02-.172c0-.05.003-.09.006-.12.19-.16.282-.418.218-.675l-.06-.24.007-.013h.024c.17.01.337-.044.468-.153l.08-.068c.158.04.33.02.478-.058.276-.148.41-.19.455-.2.14-.034.33-.08.56-.14h.37c.12 0 .24-.032.345-.093l.14-.083.286.094c.15.05.307.045.45-.01.228.088.488.045.677-.117.102-.088.197-.142.263-.152.002.004.007.006.013.01.18.14.42.178.634.103.067-.024.13-.058.183-.1l.054.007c.17.02.31.03.42.03.194 0 .423-.06.74-.19.11-.046.178-.068.218-.08.197.116.44.122.64.02.22.097.454.097.556.097.014 0 .028 0 .042-.002l.263-.016.21.075c.205.075.434.047.613-.077l.012-.01h.06c.2 0 .388-.087.516-.238.132-.156.222-.357.268-.597.02-.103.015-.21-.013-.31-.12-.438-.56-.57-1.01-.677zm18.658 2.927l-.18-.334.075-.212c.025-.07.037-.146.037-.22 0-.214-.09-.4-.225-.617-.005-.007-.02-.03-.02-.09 0-.056.01-.153.05-.3.062-.227.002-.47-.16-.64-.14-.15-.34-.226-.54-.21-.042-.03-.087-.053-.135-.07-.177-.07-.374-.06-.543.025l-.38.19c-.24.12-.38.362-.374.618-.135.192-.158.435-.072.644l-.238.737c-.073.227-.02.477.14.655l.086.097-.204 1.537c-.01.058-.01.117-.002.175l.105.81-.244.88c-.05.176-.025.366.07.523.103.175.145.264.16.3v.01l-.15.236c-.06.096-.097.206-.104.32L127 46.702c-.006.115.017.23.066.33l-.177.392c-.035.073-.055.152-.06.232l-.008.1c-.093-.064-.223-.17-.393-.346-.08-.08-.18-.142-.29-.175l-.597-.18-.64-.375c-.04-.024-.08-.042-.122-.057l-.245-.085-.54-.46c-.066-.056-.142-.1-.224-.126l-.57-.19c-.097-.192-.256-.38-.48-.57-.114-.095-.257-.15-.405-.157l-1.726-1.48-.59-.713c-.037-.046-.08-.087-.13-.122l-.518-.364-.03-.037c-.01-.204-.108-.39-.27-.513l-.803-.597c-.007-.01-.02-.038-.037-.1l-.135-.53c-.042-.164-.143-.306-.283-.398l-.146-.096-.01-.072c-.02-.164-.1-.313-.226-.42l-.1-.087-.025-.32c-.016-.18-.1-.34-.23-.45-.03-.23-.144-.52-.47-.787-.145-.118-.333-.17-.52-.144-.096.014-.187.048-.27.1l-.064-.015c-.207-.044-.424.01-.585.15-.245.21-.38.49-.38.787 0 .148.03.295.09.442-.025.067-.04.14-.04.214l-.025 1.25c-.002.098.017.195.057.284l.046.103-.097.696c-.004.036-.006.072-.005.11l.022.904-.164 1.183c-.012.087-.007.176.015.26l.11.417-.14.68c-.017.08-.02.162-.007.242l.097.603-.153.433c-.06.17-.048.358.03.52-.06.124-.082.266-.06.407.046.273.053.404.053.458 0 .045-.006.152-.048.36-.038.183.003.374.112.525l.05.07-.027.06c-.096.204-.082.44.03.63l-.063.2c-.04.126-.042.263-.004.39l.067.225-.248.82c-.02.062-.03.128-.03.194v.1c0 .86.528 1.166.98 1.166h.17c.23 0 .444-.118.568-.31.227-.36.365-.802.42-1.353l.03-.047c.124-.19.142-.43.05-.636l-.04-.092.088-.508c.007-.038.01-.076.01-.114v-.555l.124-.457c.052-.19.016-.385-.085-.54.072-.178.11-.376.11-.594v-.1c0-.072 0-.13-.132-.845l.316-1.18c.03-.12.03-.243-.005-.362l-.19-.645.176-.995c.252.283.49.492.718.633l.09.14c.113.183.306.298.52.314l.04.003.624.82c.068.088.158.16.26.206l1.008.452.314.324c.046.046.098.086.155.12l.173.096.246.32c.066.087.153.156.253.202l.37.17.07.09c.046.06.102.114.166.156l1.53 1.01c.09.062.197.1.304.11l.05.054c.097.103.222.173.36.2l.502.102c.066.013.136.016.204.01l.247.203c.17.138.39.187.6.13.11.105.25.17.4.184.097.09.22.15.353.172l.13.02.003.006c.003.016.008.056.008.128v.505l.002.033c.008.147.014.295.018.443.004.172.016.346.034.517.018.163.093.308.206.417l.087.902c.03.292.24.532.528.593l.233.05c.05.01.097.016.144.016.26 0 .502-.15.613-.393.002-.005.01-.02.038-.04.266-.183.364-.528.235-.823l-.126-.288-.09-1.1c-.005-.066-.02-.13-.044-.192l.074-.15c.073-.146.09-.314.048-.472l-.022-.082.25-.396c.1-.162.128-.36.076-.542l-.132-.463.134-.49c.023-.083.03-.17.02-.255l-.037-.308.174-.827c.024-.116.017-.235-.02-.346l-.044-.14.19-1.007c.012-.07.014-.14.005-.21l-.024-.195.185-.424c.036-.084.055-.175.055-.267v-1.186l.096-.224c.156-.38.223-.633.223-.85 0-.11-.028-.22-.08-.315l.127-.205c.126-.21.133-.464.02-.675zM19.665 60.245c-.776-1.123-2.02-1.684-3.733-1.684-1.47 0-2.64.415-3.512 1.24-.872.828-1.308 1.945-1.308 3.353 0 1.387.416 2.494 1.247 3.32.83.826 1.964 1.24 3.402 1.24 1.642 0 2.896-.57 3.764-1.714l.673.427c-1.03 1.337-2.505 2.004-4.423 2.004-1.673 0-3-.47-3.978-1.406-.98-.938-1.47-2.208-1.47-3.81 0-1.642.505-2.947 1.514-3.917 1.01-.97 2.372-1.454 4.085-1.454 1.99 0 3.45.664 4.39 1.99l-.656.412zm12.095 6.76c-.985.95-2.33 1.424-4.032 1.424-1.714 0-3.058-.47-4.032-1.41-.974-.937-1.46-2.233-1.46-3.886 0-1.63.488-2.896 1.467-3.794.98-.896 2.32-1.345 4.024-1.345 1.703 0 3.047.45 4.03 1.346.985.9 1.478 2.165 1.478 3.796 0 1.632-.492 2.923-1.476 3.87zm-.552-7.136c-.83-.77-1.99-1.157-3.48-1.157-1.48 0-2.634.385-3.465 1.155-.83.77-1.247 1.858-1.247 3.265 0 1.408.418 2.523 1.255 3.343.838.82 1.99 1.232 3.46 1.232 1.49 0 2.65-.406 3.48-1.217.83-.81 1.247-1.93 1.247-3.36 0-1.404-.417-2.493-1.248-3.263zm4.858-1.202v3.9h5.63v.705h-5.63v5.048H35.3V57.95h7.344v.718h-6.578zm8.874 0v3.9h5.63v.705h-5.63v5.048h-.766V57.95h7.344v.718h-6.58zm8.108 9.654V57.95h7.895v.718h-7.13v3.9h6.32v.705h-6.32v4.33h7.206v.718h-7.973zm9.776 0V57.95h7.895v.718h-7.13v3.9h6.317v.705h-6.32v4.33h7.207v.718h-7.97zm21.19 0H79.04V57.95h5.172c.97 0 1.764.208 2.386.626.714.48 1.07 1.178 1.07 2.096 0 .99-.56 1.724-1.682 2.203 1.346.388 2.02 1.24 2.02 2.556 0 1.02-.434 1.78-1.3 2.28-.703.41-1.6.613-2.692.613zm.17-9.654H79.82v3.9h4.345c.754 0 1.377-.147 1.866-.443.57-.347.858-.857.858-1.53s-.296-1.177-.887-1.514c-.48-.273-1.085-.41-1.82-.41zm-.047 4.62h-4.315v4.314h4.376c.846 0 1.54-.163 2.08-.49.643-.377.964-.933.964-1.667 0-.785-.342-1.36-1.025-1.73-.53-.284-1.224-.427-2.08-.427zm5.997 5.034V57.95h.78v9.653h6.55v.72h-7.33zm8.873 0V57.95h7.895v.718h-7.13v3.9h6.318v.705h-6.318v4.33h7.206v.718h-7.97zm18.083 0l-7.526-9.21v9.21h-.78V57.95h.81c.878 1.11 2.133 2.646 3.765 4.604 1.762 2.1 3.017 3.62 3.762 4.56V57.95h.78v10.37h-.812zm6.84 0h-3.595V57.95h4.177c1.703 0 2.998.463 3.886 1.39.846.9 1.27 2.17 1.27 3.81 0 1.694-.54 2.994-1.622 3.902-1.01.847-2.382 1.27-4.115 1.27zm3.902-8.46c-.745-.796-1.856-1.194-3.335-1.194h-3.38v8.935h2.86c1.55 0 2.756-.377 3.618-1.132.862-.753 1.293-1.86 1.293-3.32 0-1.447-.353-2.543-1.056-3.29z" fill="#4C2A19"/></svg>