<svg xmlns="http://www.w3.org/2000/svg" viewBox="0 0 140 105" enable-background="new 0 0 140 105"><path d="M48.94 94.16c0 .23-.082.428-.247.593-.164.165-.362.247-.594.247-.233 0-.43-.082-.596-.247-.165-.165-.247-.363-.247-.594V84.07c0-1.627.574-3.014 1.724-4.163 1.15-1.15 2.538-1.724 4.163-1.724 1.626 0 3.013.575 4.162 1.724 1.15 1.15 1.724 2.537 1.724 4.162s-.576 3.01-1.725 4.16c-1.15 1.15-2.537 1.724-4.162 1.724-1.626 0-3.013-.574-4.162-1.724l-.04-.04v5.97zm0-10.09c0 1.162.41 2.154 1.23 2.974s1.81 1.23 2.975 1.23c1.163 0 2.155-.41 2.975-1.23s1.23-1.81 1.23-2.975-.41-2.157-1.23-2.977-1.81-1.23-2.975-1.23c-1.163 0-2.155.41-2.975 1.23s-1.23 1.812-1.23 2.975zm14.505-8.41c0 .287-.103.534-.31.74-.207.208-.454.31-.74.31-.288 0-.535-.102-.742-.31-.207-.206-.31-.453-.31-.74s.103-.534.31-.74c.207-.208.454-.31.74-.31.288 0 .535.102.742.31.207.206.31.453.31.74zm-1.892 3.364c0-.23.082-.43.247-.594.165-.165.363-.247.594-.247s.43.082.594.247c.165.165.247.363.247.594v10.09c0 .23-.082.43-.247.594-.165.165-.363.247-.594.247s-.43-.082-.594-.247c-.165-.165-.247-.363-.247-.594v-10.09zm8.148 5.034l-3.75-4.488c-.133-.154-.2-.336-.2-.547 0-.23.08-.43.247-.594.165-.167.363-.25.594-.25s.44.09.62.264l3.585 4.3 3.584-4.3c.18-.175.39-.263.62-.263.23 0 .43.083.593.248.165.164.247.362.247.593 0 .21-.068.394-.2.548l-3.753 4.488 3.784 4.54c.114.148.17.32.17.516 0 .23-.082.43-.247.594-.165.165-.363.247-.594.247-.23 0-.428-.084-.59-.252l-3.616-4.33-3.616 4.33c-.16.17-.357.253-.59.253s-.428-.082-.593-.247c-.165-.165-.247-.363-.247-.594 0-.196.056-.368.168-.515l3.786-4.542zm16.4 3.217c.155-.12.33-.18.527-.18.23 0 .43.083.594.248.166.165.248.363.248.594s-.08.43-.242.6c-1.086.945-2.365 1.418-3.836 1.418-1.627 0-3.014-.574-4.163-1.724-1.15-1.147-1.724-2.535-1.724-4.16 0-1.626.574-3.013 1.724-4.162 1.15-1.15 2.537-1.724 4.162-1.724s3.01.575 4.16 1.724c1.15 1.15 1.724 2.537 1.724 4.162 0 .23-.082.428-.247.593-.165.165-.363.247-.594.247h-9.176c.154.806.54 1.517 1.156 2.134.82.82 1.81 1.23 2.975 1.23 1.05 0 1.953-.334 2.71-1zm1.42-4.047c-.154-.806-.54-1.517-1.156-2.134-.82-.82-1.81-1.23-2.975-1.23-1.164 0-2.156.41-2.976 1.23-.617.617-1.002 1.328-1.156 2.134h8.262zm4.278-9.25c0-.23.082-.428.247-.593.165-.165.363-.247.594-.247.23 0 .43.082.593.247.165.165.247.363.247.594v15.133c0 .23-.083.43-.248.594-.165.165-.363.247-.594.247-.23 0-.43-.082-.594-.247-.165-.165-.247-.363-.247-.594V73.98z" fill="#c00"/><path fill="#E51937" d="M81.194 48.367L75.47 58.934l13.65 7.926 6.604-11.448-5.284-3.522z"/><path d="M89.12 67.128c-.048 0-.095-.013-.136-.036l-13.65-7.925c-.124-.073-.17-.233-.1-.36l5.723-10.568c.065-.12.208-.17.333-.125l9.246 3.522 5.337 3.55c.118.08.155.236.084.36l-6.604 11.446c-.036.062-.095.107-.164.125-.026.005-.05.008-.07.008zm-13.29-8.295l13.19 7.66 6.345-10.996-5.074-3.382-8.97-3.412-5.49 10.13zm6.443-11.697l12.01 6.324-.25.476-12.01-6.324zm11.503 6.434l.467.27-6.864 11.965-.468-.267zm-11.793-6.297l.466.268-6.865 11.97-.467-.27zm-6.515 12.04l12.01 6.323-.252.476-12.008-6.323zm20.444-3.046l.47.26-6.227 11.253-.47-.26zm-1.686-2.717l2.136 2.69-.422.336-2.136-2.69zm-14.22 8.942l9.886 5.076-.246.478-9.887-5.075zM75.453 59.4l4.59 3.12-.303.445-4.59-3.12zm15.694-6.98c-.082-.1-.228-.267-.403-.468-.523-.597-1.238-1.415-1.515-1.907-.22-.392-.184-.68-.153-.91.027-.2.044-.334-.097-.56-.224-.357-.767-.89-1.246-1.363-.297-.293-.575-.567-.76-.78-.232-.267-.35-.49-.445-.668-.118-.218-.187-.35-.41-.49-.217-.137-.563-.22-.93-.306-.382-.09-.776-.183-1.12-.357-.324-.162-.64-.44-.94-.705-.275-.24-.615-.54-.787-.56h-.006c-.057 0-.117.093-.228.294-.13.235-.29.53-.616.66-.693.274-1.713.257-2.12.236-.552-.028-1.355-.217-1.887-.342-.183-.043-.334-.08-.432-.098l.1-.528c.103.02.263.057.456.102.513.12 1.288.302 1.79.328.76.038 1.488-.04 1.895-.2.144-.058.24-.233.343-.42.143-.26.344-.617.766-.568.34.04.682.34 1.08.69.278.245.566.498.83.63.285.146.648.23 1 .314.41.097.8.19 1.095.374.343.217.466.448.596.693.09.17.184.35.376.57.178.204.446.467.732.75.525.515 1.067 1.05 1.324 1.46.243.39.204.68.173.915-.025.198-.044.34.09.576.25.445.973 1.27 1.45 1.818.18.207.33.38.418.485l-.422.34zM76.91 45.68l-.536-.038c.002-.033-.005-.076-.01-.13-.027-.214-.07-.573.103-1.006.093-.234.24-.44.412-.68.233-.33.5-.702.72-1.272.28-.734.687-2.25.96-3.255.1-.37.18-.677.233-.86l.517.15c-.052.18-.133.482-.232.85-.273 1.012-.685 2.545-.976 3.305-.244.635-.544 1.055-.785 1.393-.15.21-.28.392-.35.566-.123.305-.093.548-.07.742.01.095.02.173.014.233zm5.888 11.88c-.453 0-.926-.265-1.505-.59-.197-.112-.406-.23-.632-.346l-.2-.103c-.964-.495-2.423-1.247-3.284-1.924-.53-.417-.85-.858-1.158-1.286-.248-.342-.48-.665-.823-.99-.793-.755-2.053-1.822-2.825-2.31-.377-.238-.695-.298-1.003-.355-.303-.057-.617-.116-.933-.338-.71-.5-1.362-1.482-1.545-1.77-.265-.418-.374-.898-.446-1.216-.022-.095-.04-.175-.057-.23l.51-.174c.022.068.046.167.073.287.065.282.16.707.376 1.047.348.55.898 1.265 1.398 1.616.22.155.444.196.725.25.34.063.725.136 1.187.428.81.512 2.077 1.583 2.91 2.375.375.356.635.714.885 1.06.3.416.586.81 1.057 1.18.82.644 2.25 1.382 3.2 1.87l.2.103c.23.12.446.24.65.355.567.32 1.02.577 1.34.513.392-.07.826-.747.953-1.302.117-.516-.113-1.193-.358-1.843-.258-.68-.695-1.464-1.17-2.097-.4-.534-.902-1-1.433-1.493l-.315-.294c-.29-.27-.597-.524-.91-.78-.363-.3-.74-.61-1.092-.952-.153-.15-.308-.29-.462-.428-.497-.45-1.01-.913-1.453-1.667-.42-.72-.896-2.058-1.21-2.945-.113-.315-.206-.576-.27-.734l.5-.2c.066.163.16.43.276.755.308.867.772 2.18 1.168 2.853.4.683.862 1.1 1.35 1.54.16.145.32.29.477.444.338.328.706.63 1.06.922.323.262.64.525.937.803l.313.29c.525.488 1.068.993 1.498 1.566.503.67.968 1.503 1.242 2.227.275.727.53 1.492.38 2.153-.145.634-.668 1.583-1.38 1.715-.07.01-.135.016-.202.016zm-13.863-6.924c-.1 0-.2-.004-.3-.01-1.256-.1-2.998-.605-4.234-1.23-.876-.445-1.587-1.125-2.214-1.725-.24-.227-.473-.45-.706-.653-.63-.546-1.358-1.238-1.838-1.696-.175-.166-.32-.304-.42-.396l.367-.394c.1.092.245.232.423.4.476.456 1.197 1.143 1.818 1.68.24.208.48.437.727.673.63.602 1.28 1.224 2.087 1.632 1.162.588 2.86 1.082 4.034 1.174.87.072 1.918-.24 2.613-.44.27-.08.495-.144.647-.173l.097.53c-.14.026-.345.086-.594.158-.66.19-1.62.47-2.508.47zm7.222 6.274c-.045-.076-.114-.202-.195-.354-.222-.41-.557-1.027-.807-1.34-.183-.23-.362-.36-.568-.512-.158-.116-.338-.247-.53-.433-.31-.302-.793-.832-1.113-1.182l-.275-.3.39-.368.28.304c.316.346.793.87 1.093 1.162.163.16.32.274.47.384.218.16.444.324.67.61.28.35.63.994.86 1.42.078.144.143.263.186.337l-.464.273zm-7.777-5.057c-.4 0-.852-.015-1.32-.068l-.45-.05c-1.142-.122-2.563-.275-3.857-.706-1.46-.49-3.305-1.45-4.486-2.184-1.24-.773-1.915-1.44-2.544-2.203-.3-.365-.333-.604-.364-.835-.044-.317-.098-.71-1.176-1.893-1.19-1.304-3.892-3.915-6.276-6.218-1.226-1.185-2.343-2.264-3.077-2.995-1.584-1.58-2.42-2.46-2.973-3.043-.198-.208-.36-.38-.51-.534l.384-.377c.153.155.317.33.516.537.55.582 1.383 1.46 2.963 3.033.732.73 1.847 1.807 3.07 2.99 2.39 2.308 5.1 4.925 6.3 6.242 1.19 1.307 1.255 1.793 1.31 2.184.025.197.04.316.244.563.613.742 1.23 1.35 2.413 2.087 1.155.72 2.954 1.656 4.372 2.13 1.24.413 2.626.562 3.742.682l.454.05c.822.09 1.602.062 2.12.044.197-.007.36-.01.48-.01l-.008.537c-.107 0-.266.005-.453.01-.243.01-.544.02-.88.02zm24.692 1.562l-.297-.448c.074-.05.17-.082.292-.124.21-.072.558-.192.596-.378.054-.27-.118-.837-.27-1.338-.062-.207-.124-.413-.175-.608-.092-.35-.223-.756-.35-1.147-.136-.423-.265-.823-.34-1.135-.073-.302-.067-.523-.063-.7.005-.194.008-.322-.083-.508-.088-.18-.23-.324-.41-.507-.204-.21-.46-.472-.726-.88-.484-.74-1.435-2.36-1.813-3.123-.207-.417-.22-.702-.23-.91-.01-.18-.012-.24-.114-.34-.14-.14-.304-.193-.575-.282-.272-.09-.61-.202-1.07-.448-.417-.224-1.052-.598-1.71-.986-.794-.47-1.618-.954-2.117-1.21-.46-.234-.707-.292-.946-.35-.226-.052-.44-.102-.76-.282-.3-.17-.618-.43-.926-.685-.35-.29-.713-.588-1.033-.74-.612-.286-.952-.443-1.76-.363-.323.033-.65.164-1.03.316-.564.227-1.268.51-2.283.598-1.456.127-4.74.28-6.742-.046-1.325-.216-2.51-.812-3.46-1.29-.414-.208-.772-.388-1.068-.5-.452-.17-.687-.21-.876-.24-.226-.038-.404-.068-.714-.28-.398-.27-.883-.846-1.236-1.268-.113-.135-.207-.247-.27-.313l.392-.37c.067.07.168.19.29.338.315.375.79.94 1.126 1.17.213.143.303.158.5.19.2.034.476.08.978.27.323.12.692.307 1.12.522.918.462 2.06 1.037 3.305 1.24 1.808.295 4.942.187 6.61.042.934-.082 1.57-.336 2.13-.56.416-.168.775-.313 1.173-.353.92-.09 1.352.087 2.044.412.382.18.77.5 1.147.81.303.25.59.486.85.63.252.144.414.182.617.23.244.058.548.13 1.066.394.513.262 1.343.752 2.146 1.225.65.384 1.276.754 1.69.976.417.225.73.328.983.412.298.097.556.183.785.41.248.25.26.487.27.695.008.178.017.38.175.697.37.748 1.305 2.338 1.78 3.067.24.364.465.595.663.8.204.208.38.39.506.644.15.305.144.536.138.76-.004.16-.008.33.048.56.07.296.2.69.33 1.096.13.4.263.815.357 1.173.05.187.11.386.17.586.187.617.364 1.2.282 1.6-.098.488-.63.67-.948.78-.073.026-.135.044-.17.065zm-28.81-18.09l-1.863-2.15c-2.218-2.55-5.566-6.405-7.095-8.243-1.42-1.707-2.154-2.733-2.745-3.558-.267-.375-.5-.7-.752-1.024-.582-.747-.878-1.09-1.077-1.322l-.19-.224.417-.34c.054.065.112.132.182.213.202.235.503.583 1.094 1.343.255.328.493.66.766 1.04.584.82 1.313 1.836 2.72 3.528 1.525 1.833 4.87 5.686 7.085 8.236.805.926 1.47 1.693 1.865 2.15l-.408.352zm24.643 16.132l-.29-.36c-.33-.406-.812-1.002-1.194-1.485-.18-.23-.353-.498-.53-.77-.326-.506-.662-1.028-1.063-1.305-.335-.232-.774-.3-1.238-.37-.365-.056-.743-.113-1.086-.258-.563-.24-1.244-.687-1.696-.983-.156-.103-.285-.187-.372-.24l.273-.462c.09.054.23.144.393.252.435.285 1.092.716 1.61.934.282.12.61.17.957.22.504.08 1.025.16 1.462.46.488.34.855.907 1.21 1.456.166.26.33.513.5.73.38.48.86 1.073 1.188 1.48l.292.36-.417.34zm-9.66-3.385l-.39-.37c.078-.082.21-.21.37-.362.426-.406 1.067-1.02 1.34-1.447.264-.414.4-1.01.49-1.404.04-.16.07-.295.1-.38l.51.17c-.026.074-.05.19-.084.33-.097.43-.247 1.08-.56 1.572-.31.482-.98 1.123-1.423 1.546-.15.143-.276.263-.35.342zm15.495 6.972c-.02-.1-.047-.25-.08-.432-.084-.492-.21-1.234-.375-1.758-.163-.526-.493-1.256-.71-1.74-.082-.177-.147-.324-.188-.42l.498-.207c.04.094.102.235.18.406.224.495.562 1.244.735 1.802s.305 1.32.392 1.826c.03.177.055.32.074.417l-.527.108zM83.03 43.326l-.526-.107c.018-.09.057-.23.104-.397.12-.42.3-1.055.28-1.44-.02-.38-.254-.878-.41-1.208-.063-.136-.115-.25-.142-.325l.507-.178c.023.065.07.16.123.276.173.368.434.924.458 1.408.025.475-.162 1.134-.3 1.615-.04.153-.077.277-.093.357zM86.65 45l-.488-.228c.334-.717.755-1.372 1.254-1.95l.406.353c-.465.54-.86 1.152-1.172 1.824zm2.83 3.648l-.52-.133c.18-.702.742-1.222 1.24-1.68l.21-.197.37.39-.216.2c-.464.43-.943.872-1.083 1.42zm-7.805-.53c-.46-.773-.93-1.195-1.4-1.255l.066-.534c.646.08 1.25.59 1.8 1.512l-.464.275zm-8.557 4.722l-.206-.497.188-.077c.446-.183.906-.37 1.26-.666l.344.415c-.418.347-.918.55-1.4.748l-.186.078zm-.632-.017c-.61-.003-1.16-.25-1.694-.49-.336-.152-.654-.296-.982-.38l.133-.52c.373.095.728.255 1.07.41.504.226.98.44 1.476.443l-.005.537zm-2.963-1l-.206-.497c.357-.15.69-.49.987-1.014l.468.265c-.358.632-.778 1.052-1.25 1.247z"/><path d="M96.213 39.778l-.423-.332c4.718-6.024 1.72-17.294-3.92-23.64l.4-.358c5.783 6.505 8.825 18.097 3.943 24.33zm-7.37-18.228c-.555-4.567-4.765-9.415-9.585-11.04l.173-.51c5.085 1.713 9.36 6.65 9.95 11.484l-.535.065z" fill="#666"/></svg>