<?xml version="1.0" encoding="utf-8"?>
<!-- Generator: Adobe Illustrator 18.1.1, SVG Export Plug-In . SVG Version: 6.00 Build 0)  -->
<svg version="1.1" id="Layer_3" xmlns="http://www.w3.org/2000/svg" xmlns:xlink="http://www.w3.org/1999/xlink" x="0px" y="0px"
	 viewBox="0 0 140 105" enable-background="new 0 0 140 105" xml:space="preserve">
<g>
	<g>
		<g>
			<g>
				<path d="M64.9,50.1h-8.5c-3.4,0-6.3-1.2-8.7-3.6c-2.4-2.4-3.6-5.3-3.6-8.7c0-3.4,1.2-6.3,3.6-8.7c2.4-2.4,5.3-3.6,8.7-3.6h8.5
					V33h-8.5c-1.3,0-2.4,0.5-3.3,1.4c-0.9,0.9-1.4,2.1-1.4,3.4c0,1.3,0.5,2.5,1.4,3.4s2,1.4,3.3,1.4h8.5L64.9,50.1L64.9,50.1z"/>
			</g>
		</g>
	</g>
	<g>
		<path d="M105.4,89.8h-71V15.2h71V89.8z M38.6,85.5h62.5v-66H38.6V85.5z"/>
	</g>
	<g>
		<g>
			<path d="M93.9,41.6c0,2.3-0.8,4.3-2.4,5.9c-1.6,1.6-3.6,2.4-5.9,2.4H71.2V32.8h-2.6v-7.5h17c2.3,0,4.3,0.8,5.9,2.4
				c1.6,1.6,2.4,3.6,2.4,5.9c0,1-0.5,2.3-1.4,4C93.4,39.3,93.9,40.6,93.9,41.6z M86.3,33.6c0-1.3-0.8-1.9-2.3-1.9h-5.3v3.8H84
				C85.5,35.5,86.3,34.9,86.3,33.6z M86.3,41.6c0-1.3-0.8-1.9-2.3-1.9h-5.3v3.8H84C85.5,43.5,86.3,42.8,86.3,41.6z"/>
		</g>
	</g>
	<g>
		<g>
			<g>
				<path d="M95.4,66.8c0,3.4-1.2,6.3-3.6,8.7c-2.4,2.4-5.3,3.6-8.7,3.6H72.6V62H70v-7.5h13.1c3.4,0,6.3,1.2,8.7,3.6
					C94.2,60.5,95.4,63.4,95.4,66.8z M87.8,66.8c0-1.3-0.5-2.5-1.4-3.4c-0.9-0.9-2-1.4-3.3-1.4h-2.8v9.6h2.8c1.3,0,2.4-0.5,3.3-1.4
					C87.3,69.2,87.8,68.1,87.8,66.8z"/>
			</g>
		</g>
	</g>
	<g>
		<g>
			<g>
				<path d="M47.7,66.3l7.7,11.9c-0.3,0.1-0.6,0.3-1.1,0.5c-0.7,0.2-1.8,0.3-3.1,0.3c-1.2,0-2.1-0.1-2.8-0.2
					c-0.7-0.1-1.4-0.3-1.9-0.6c-0.5-0.3-1-0.7-1.4-1.2c-0.5-0.6-0.9-1.3-1.2-2.1c-0.3-0.8-0.4-1.6-0.4-2.4c0-2,0.6-3.6,1.8-4.9
					c0.4-0.4,0.7-0.7,1-0.8C46.8,66.7,47.2,66.5,47.7,66.3z M53.5,54.6l15.8,24.3l-11.6,0c-1.1-1.5-2.2-3.1-3.5-5
					c-0.3-0.5-0.7-1-1.1-1.6c-0.4-0.6-0.6-1-0.8-1.2c-0.1-0.2-0.5-0.8-1.1-1.7c-0.7-1.1-1.5-2.4-2.3-3.8c-0.7-1.2-1.1-2-1.2-2.4
					c-0.1-0.4-0.1-0.8-0.1-1.3c0-1.2,0.3-2.4,0.8-3.5c0.5-1.1,1.2-2,2.1-2.8C51.6,55.1,52.5,54.7,53.5,54.6z M61.2,63.6l-5.7-9l4,0
					c0.8,0,1.5,0.2,2.1,0.6c0.7,0.4,1.2,1,1.5,1.6c0.4,0.7,0.6,1.4,0.6,2.3C63.7,60.9,62.9,62.4,61.2,63.6z M66.4,71.7L62,64.7
					l7.8,0L66.4,71.7z"/>
			</g>
		</g>
	</g>
	<g>
		<g>
			<path fill="#FFFFFF" d="M104.4,86.6V86h0.1c0.5,0,0.8,0.1,0.9,0.3c0.1,0.2,0.2,0.6,0.2,1.1c0,0.7-0.1,1.1-0.3,1.2
				c-0.2,0.2-0.8,0.2-1.8,0.2c-0.6,0-0.9-0.1-1.1-0.3c-0.2-0.2-0.3-0.6-0.3-1.3c0-0.5,0.1-0.8,0.2-1c0.1-0.2,0.4-0.2,0.9-0.2l0.1,0
				v0.6h-0.1c-0.2,0-0.4,0-0.4,0.1c-0.1,0.1-0.1,0.3-0.1,0.6c0,0.4,0,0.6,0.1,0.7c0.1,0.1,0.4,0.1,0.9,0.1c0.7,0,1,0,1.2-0.1
				c0.1-0.1,0.2-0.3,0.2-0.7c0-0.3,0-0.5-0.1-0.6c-0.1-0.1-0.2-0.1-0.4-0.1L104.4,86.6z"/>
		</g>
		<g>
			<path fill="#FFFFFF" d="M102.2,83.4v-0.6h2.3c0.5,0,0.8,0.1,0.9,0.3c0.2,0.2,0.2,0.6,0.2,1.1c0,0.6-0.1,1-0.2,1.2
				c-0.1,0.2-0.4,0.3-0.9,0.3h-2.3v-0.6h2.3c0.3,0,0.4,0,0.5-0.1c0.1-0.1,0.1-0.3,0.1-0.6c0-0.3,0-0.6-0.1-0.6
				c-0.1-0.1-0.2-0.1-0.5-0.1H102.2z"/>
		</g>
		<g>
			<path fill="#FFFFFF" d="M103.2,79.6v0.6c0,0-0.1,0-0.1,0c-0.2,0-0.3,0.1-0.4,0.1c0,0.1-0.1,0.2-0.1,0.5c0,0.3,0,0.5,0.1,0.6
				s0.2,0.1,0.4,0.1c0.2,0,0.3,0,0.4-0.1c0-0.1,0.1-0.3,0.1-0.8c0-0.5,0.1-0.8,0.2-1c0.1-0.1,0.4-0.2,0.7-0.2c0.5,0,0.7,0.1,0.9,0.3
				c0.1,0.2,0.2,0.6,0.2,1.2c0,0.5-0.1,0.9-0.2,1.1s-0.4,0.3-0.8,0.3l-0.1,0v-0.6l0.1,0c0.2,0,0.4,0,0.4-0.1
				c0.1-0.1,0.1-0.3,0.1-0.7c0-0.3,0-0.5-0.1-0.6s-0.2-0.1-0.4-0.1c-0.2,0-0.3,0-0.3,0.1c-0.1,0.1-0.1,0.2-0.1,0.4l0,0.4
				c0,0.5-0.1,0.9-0.2,1c-0.1,0.1-0.4,0.2-0.8,0.2c-0.4,0-0.7-0.1-0.8-0.3c-0.1-0.2-0.2-0.5-0.2-1.1c0-0.5,0.1-0.9,0.2-1
				s0.4-0.3,0.7-0.3L103.2,79.6L103.2,79.6z"/>
		</g>
		<g>
			<path fill="#FFFFFF" d="M102.8,77.7h2.8v0.6h-2.8v1h-0.6v-2.6h0.6V77.7z"/>
		</g>
		<g>
			<path fill="#FFFFFF" d="M102.1,75c0-0.6,0.1-1,0.3-1.2c0.2-0.2,0.7-0.3,1.4-0.3c0.8,0,1.3,0.1,1.5,0.3c0.2,0.2,0.3,0.6,0.3,1.3
				c0,0.6-0.1,1-0.3,1.2c-0.2,0.2-0.6,0.3-1.3,0.3c-0.8,0-1.3-0.1-1.5-0.3C102.2,76.1,102.1,75.7,102.1,75z M102.7,75
				c0,0.4,0.1,0.7,0.2,0.8c0.1,0.1,0.5,0.1,1.2,0.1c0.5,0,0.8,0,0.9-0.1c0.1-0.1,0.1-0.3,0.1-0.8c0-0.4-0.1-0.6-0.2-0.7
				c-0.1-0.1-0.5-0.1-1-0.1c-0.6,0-0.9,0-1,0.1C102.8,74.4,102.7,74.6,102.7,75z"/>
		</g>
		<g>
			<path fill="#FFFFFF" d="M102.2,69.1h3.4v0.6h-1.9c-0.1,0-0.3,0-0.5,0l-0.3,0l-0.3,0v0l0.2,0.1l0.2,0.1c0.2,0.1,0.4,0.1,0.5,0.2
				l1.9,0.7v0.6l-1.9,0.8c-0.1,0-0.3,0.1-0.5,0.2l-0.2,0.1l-0.2,0.1v0l0.2,0l0.2,0c0.2,0,0.4,0,0.5,0h1.9v0.6h-3.4V72l1.6-0.6
				c0.1,0,0.3-0.1,0.5-0.2l0.2-0.1l0.2-0.1v0l-0.2-0.1l-0.2-0.1c-0.2-0.1-0.4-0.1-0.5-0.2l-1.6-0.6L102.2,69.1L102.2,69.1z"/>
		</g>
		<g>
			<path fill="#FFFFFF" d="M105.6,67.2h-3.4v-1.7c0-0.4,0.1-0.7,0.2-0.8c0.1-0.1,0.4-0.2,0.7-0.2c0.4,0,0.7,0.2,0.7,0.5h0
				c0.1-0.4,0.3-0.6,0.8-0.6c0.3,0,0.6,0.1,0.7,0.2c0.1,0.1,0.2,0.4,0.2,0.8L105.6,67.2L105.6,67.2z M103.6,66.6v-0.8
				c0-0.3,0-0.4-0.1-0.5c-0.1-0.1-0.2-0.1-0.4-0.1c-0.3,0-0.4,0.2-0.4,0.5v0.9H103.6z M105,66.6v-0.7l0-0.2c0-0.2,0-0.4-0.1-0.4
				c-0.1-0.1-0.2-0.1-0.4-0.1c-0.2,0-0.3,0-0.4,0.1c-0.1,0.1-0.1,0.3-0.1,0.5v0.8L105,66.6L105,66.6z"/>
		</g>
		<g>
			<path fill="#FFFFFF" d="M105.6,64h-3.4v-1.7c0-0.4,0.1-0.7,0.2-0.9c0.1-0.2,0.4-0.2,0.8-0.2c0.3,0,0.6,0,0.7,0.1
				c0.1,0.1,0.2,0.2,0.3,0.5h0c0-0.4,0.2-0.6,0.7-0.6h0.7v0.6H105c-0.4,0-0.5,0.2-0.5,0.5v0.9h1.1L105.6,64L105.6,64z M103.9,63.3
				v-0.9c0-0.2,0-0.4-0.1-0.4c-0.1-0.1-0.2-0.1-0.5-0.1c-0.2,0-0.4,0-0.5,0.1c-0.1,0.1-0.1,0.2-0.1,0.4v1L103.9,63.3L103.9,63.3z"/>
		</g>
		<g>
			<path fill="#FFFFFF" d="M104.9,58.6v1.5l0.7,0.2V61l-3.4-1.1v-1l3.4-1.1v0.7L104.9,58.6z M104.4,58.8l-1.8,0.6l1.8,0.6V58.8z"/>
		</g>
		<g>
			<path fill="#FFFFFF" d="M104.4,55.4v-0.6h0.1c0.5,0,0.8,0.1,0.9,0.3c0.1,0.2,0.2,0.6,0.2,1.1c0,0.7-0.1,1.1-0.3,1.2
				c-0.2,0.2-0.8,0.2-1.8,0.2c-0.6,0-0.9-0.1-1.1-0.3c-0.2-0.2-0.3-0.6-0.3-1.3c0-0.5,0.1-0.8,0.2-1c0.1-0.2,0.4-0.2,0.9-0.2l0.1,0
				v0.6h-0.1c-0.2,0-0.4,0-0.4,0.1c-0.1,0.1-0.1,0.3-0.1,0.6c0,0.4,0,0.6,0.1,0.7c0.1,0.1,0.4,0.1,0.9,0.1c0.7,0,1,0,1.2-0.1
				c0.1-0.1,0.2-0.3,0.2-0.7c0-0.3,0-0.5-0.1-0.6c-0.1-0.1-0.2-0.1-0.4-0.1L104.4,55.4z"/>
		</g>
		<g>
			<path fill="#FFFFFF" d="M102.2,53.7h1.4v-0.3l-1.4-1.1v-0.8l1.7,1.4l1.7-1.5v0.8l-1.5,1.2v0.3h1.5v0.6h-3.4L102.2,53.7
				L102.2,53.7z"/>
		</g>
		<g>
			<path fill="#FFFFFF" d="M102.7,50.5h0.9v-1.6h0.5v1.6h1v-1.7h0.5v2.3h-3.4v-2.3h0.5V50.5z"/>
		</g>
		<g>
			<path fill="#FFFFFF" d="M102.8,46.9h2.8v0.6h-2.8v1h-0.6v-2.6h0.6V46.9z"/>
		</g>
		<g>
			<path fill="#FFFFFF" d="M103.2,43.1v0.6c0,0-0.1,0-0.1,0c-0.2,0-0.3,0.1-0.4,0.1c0,0.1-0.1,0.2-0.1,0.5c0,0.3,0,0.5,0.1,0.6
				c0.1,0.1,0.2,0.1,0.4,0.1c0.2,0,0.3,0,0.4-0.1c0-0.1,0.1-0.3,0.1-0.8c0-0.5,0.1-0.8,0.2-1c0.1-0.1,0.4-0.2,0.7-0.2
				c0.5,0,0.7,0.1,0.9,0.3c0.1,0.2,0.2,0.6,0.2,1.2c0,0.5-0.1,0.9-0.2,1.1c-0.1,0.2-0.4,0.3-0.8,0.3l-0.1,0v-0.6l0.1,0
				c0.2,0,0.4,0,0.4-0.1c0.1-0.1,0.1-0.3,0.1-0.7c0-0.3,0-0.5-0.1-0.6c-0.1-0.1-0.2-0.1-0.4-0.1c-0.2,0-0.3,0-0.3,0.1
				c-0.1,0.1-0.1,0.2-0.1,0.4l0,0.4c0,0.5-0.1,0.9-0.2,1c-0.1,0.1-0.4,0.2-0.8,0.2c-0.4,0-0.7-0.1-0.8-0.3c-0.1-0.2-0.2-0.5-0.2-1.1
				c0-0.5,0.1-0.9,0.2-1s0.4-0.3,0.7-0.3L103.2,43.1L103.2,43.1z"/>
		</g>
		<g>
			<path fill="#FFFFFF" d="M103.9,39v-0.6h0.1l0.3,0c0.1,0,0.3,0,0.5,0.1l0.4-0.5l0.4,0.3l-0.3,0.4c0.2,0.2,0.4,0.5,0.4,1
				c0,0.6-0.1,1-0.2,1.2c-0.1,0.2-0.4,0.3-0.9,0.3c-0.5,0-0.8-0.2-0.9-0.6c-0.2,0.2-0.4,0.3-0.6,0.3c-0.3,0-0.5-0.1-0.6-0.2
				c-0.1-0.2-0.2-0.4-0.2-0.8c0-0.4,0.1-0.7,0.2-0.9c0.1-0.2,0.4-0.2,0.7-0.2l0.2,0v0.6h-0.1c-0.2,0-0.3,0-0.4,0.1
				c-0.1,0.1-0.1,0.2-0.1,0.4c0,0.3,0.1,0.5,0.4,0.5c0.2,0,0.3-0.1,0.5-0.2l0.9-1c-0.1,0-0.2,0-0.2,0C104.1,39,104,39,103.9,39z
				 M103.9,40.3c0,0.3,0.2,0.4,0.6,0.4c0.3,0,0.4,0,0.5-0.1c0.1-0.1,0.1-0.3,0.1-0.6c0-0.3,0-0.4,0-0.5c0-0.1-0.1-0.2-0.2-0.3
				L103.9,40.3z"/>
		</g>
		<g>
			<path fill="#FFFFFF" d="M105.6,36.4h-3.4v-1.7c0-0.5,0.1-0.8,0.3-1c0.2-0.2,0.6-0.3,1.1-0.3c0.8,0,1.4,0.1,1.6,0.2
				c0.2,0.2,0.4,0.5,0.4,1L105.6,36.4L105.6,36.4z M105,35.8v-0.9c0-0.3-0.1-0.5-0.2-0.6c-0.1-0.1-0.5-0.1-0.9-0.1
				c-0.5,0-0.8,0-1,0.1c-0.1,0.1-0.2,0.3-0.2,0.6v1L105,35.8L105,35.8z"/>
		</g>
		<g>
			<path fill="#FFFFFF" d="M102.7,32.4h0.9v-1.6h0.5v1.6h1v-1.7h0.5v2.3h-3.4v-2.3h0.5V32.4z"/>
		</g>
		<g>
			<path fill="#FFFFFF" d="M103.2,27.7v0.6c0,0-0.1,0-0.1,0c-0.2,0-0.3,0.1-0.4,0.1c0,0.1-0.1,0.2-0.1,0.5c0,0.3,0,0.5,0.1,0.6
				s0.2,0.1,0.4,0.1c0.2,0,0.3,0,0.4-0.1c0-0.1,0.1-0.3,0.1-0.8c0-0.5,0.1-0.8,0.2-1c0.1-0.1,0.4-0.2,0.7-0.2c0.5,0,0.7,0.1,0.9,0.3
				c0.1,0.2,0.2,0.6,0.2,1.2c0,0.5-0.1,0.9-0.2,1.1s-0.4,0.3-0.8,0.3l-0.1,0v-0.6l0.1,0c0.2,0,0.4,0,0.4-0.1
				c0.1-0.1,0.1-0.3,0.1-0.7c0-0.3,0-0.5-0.1-0.6s-0.2-0.1-0.4-0.1c-0.2,0-0.3,0-0.3,0.1c-0.1,0.1-0.1,0.2-0.1,0.4l0,0.4
				c0,0.5-0.1,0.9-0.2,1c-0.1,0.1-0.4,0.2-0.8,0.2c-0.4,0-0.7-0.1-0.8-0.3c-0.1-0.2-0.2-0.5-0.2-1.1c0-0.5,0.1-0.9,0.2-1
				s0.4-0.3,0.7-0.3L103.2,27.7L103.2,27.7z"/>
		</g>
		<g>
			<path fill="#FFFFFF" d="M102.2,26.6h3.4v0.6h-3.4V26.6z"/>
		</g>
		<g>
			<path fill="#FFFFFF" d="M103.8,24.6v-1.5l0.7,0c0.5,0,0.8,0.1,0.9,0.3c0.1,0.2,0.2,0.6,0.2,1.2c0,0.6-0.1,1-0.3,1.2
				c-0.2,0.2-0.6,0.3-1.2,0.3c-0.7,0-1.2,0-1.4-0.1c-0.2-0.1-0.4-0.2-0.5-0.4c-0.1-0.2-0.1-0.5-0.1-1c0-0.6,0.1-1,0.2-1.2
				c0.1-0.2,0.4-0.3,0.9-0.3v0.7c-0.2,0-0.4,0.1-0.4,0.1c-0.1,0.1-0.1,0.3-0.1,0.6c0,0.4,0,0.6,0.1,0.7c0.1,0.1,0.3,0.2,0.7,0.2
				l0.3,0l0.4,0c0.3,0,0.6,0,0.6-0.1c0.1-0.1,0.1-0.3,0.1-0.7c0-0.4,0-0.6-0.1-0.7c-0.1-0.1-0.3-0.1-0.6-0.1l-0.1,0v0.9H103.8z"/>
		</g>
		<g>
			<path fill="#FFFFFF" d="M102.2,19.5h3.4v1.1l-1.9,1c-0.1,0-0.3,0.1-0.5,0.2l-0.2,0.1l-0.2,0.1v0l0.2,0l0.2,0l0.4,0h1.9v0.6h-3.4
				v-1.1l1.7-0.9c0.2-0.1,0.3-0.2,0.6-0.3l0.3-0.1l0.3-0.1v0l-0.2,0l-0.2,0l-0.4,0h-2L102.2,19.5L102.2,19.5z"/>
		</g>
		<g>
			<path fill="#FFFFFF" d="M103.2,16.4V17c0,0-0.1,0-0.1,0c-0.2,0-0.3,0.1-0.4,0.1c0,0.1-0.1,0.2-0.1,0.5c0,0.3,0,0.5,0.1,0.6
				c0.1,0.1,0.2,0.1,0.4,0.1c0.2,0,0.3,0,0.4-0.1c0-0.1,0.1-0.3,0.1-0.8c0-0.5,0.1-0.8,0.2-1c0.1-0.1,0.4-0.2,0.7-0.2
				c0.5,0,0.7,0.1,0.9,0.3s0.2,0.6,0.2,1.2c0,0.5-0.1,0.9-0.2,1.1c-0.1,0.2-0.4,0.3-0.8,0.3l-0.1,0v-0.6l0.1,0c0.2,0,0.4,0,0.4-0.1
				c0.1-0.1,0.1-0.3,0.1-0.7c0-0.3,0-0.5-0.1-0.6c-0.1-0.1-0.2-0.1-0.4-0.1c-0.2,0-0.3,0-0.3,0.1c-0.1,0.1-0.1,0.2-0.1,0.4l0,0.4
				c0,0.5-0.1,0.9-0.2,1c-0.1,0.1-0.4,0.2-0.8,0.2c-0.4,0-0.7-0.1-0.8-0.3c-0.1-0.2-0.2-0.5-0.2-1.1c0-0.5,0.1-0.9,0.2-1
				s0.4-0.3,0.7-0.3L103.2,16.4L103.2,16.4z"/>
		</g>
	</g>
</g>
</svg>
