<?xml version="1.0" encoding="utf-8"?>
<!-- Generator: Adobe Illustrator 18.1.0, SVG Export Plug-In . SVG Version: 6.00 Build 0)  -->
<svg version="1.1" id="Layer_1" xmlns="http://www.w3.org/2000/svg" xmlns:xlink="http://www.w3.org/1999/xlink" x="0px" y="0px"
	 viewBox="0 99.9 792 592.2" enable-background="new 0 99.9 792 592.2" xml:space="preserve">
<path fill="#444444" d="M99.1,352.7c7.8,0,14.2,1.1,19,3.2c4.8,2.1,8.8,5.2,12,9.2c3.1,4,5.4,8.6,6.8,13.9
	c1.4,5.3,2.1,10.9,2.1,16.8c0,9.3-1.1,16.4-3.2,21.5c-2.1,5.1-5,9.4-8.8,12.8c-3.7,3.5-7.8,5.7-12.1,6.9c-5.9,1.6-11.2,2.4-16,2.4
	H59.4v-86.6L99.1,352.7 M86.2,419.6h6.6c5.6,0,9.6-0.6,11.9-1.9c2.4-1.2,4.2-3.4,5.5-6.5c1.3-3.1,2-8.1,2-15
	c0-9.2-1.5-15.5-4.5-18.8c-3-3.4-8-5.1-14.9-5.1h-6.7V419.6 M99.2,349.9H59.4c-1.6,0-2.8,1.3-2.8,2.8v86.6c0,1.6,1.3,2.8,2.8,2.8
	h39.8c5,0,10.6-0.8,16.7-2.5c4.7-1.3,9.2-3.8,13.2-7.5c4-3.7,7.2-8.3,9.5-13.8c2.2-5.4,3.4-13,3.4-22.6c0-6.1-0.7-12-2.2-17.5
	c-1.5-5.6-4-10.6-7.4-14.9c-3.4-4.3-7.8-7.7-13-10C114.1,351,107.3,349.9,99.2,349.9L99.2,349.9z M89,375.1h3.9
	c6.1,0,10.4,1.4,12.8,4.1c1.7,2,3.8,6.5,3.8,17c0,8.1-1,12-1.8,13.9c-1.1,2.5-2.5,4.2-4.3,5.1c-1.3,0.7-4.3,1.5-10.6,1.5H89
	L89,375.1L89,375.1z M182.5,352.7v86.6h-26.8v-86.6L182.5,352.7 M182.5,349.9h-26.8c-1.6,0-2.8,1.3-2.8,2.8v86.6
	c0,1.6,1.3,2.8,2.8,2.8h26.8c1.6,0,2.8-1.2,2.8-2.8v-86.6C185.3,351.1,184.1,349.9,182.5,349.9L182.5,349.9z M238.1,351.2
	c11.1,0,19.5,2.1,25.3,6.2c5.8,4.1,9.3,10.7,10.4,19.7l-25.2,1.5c-0.7-3.9-2.1-6.7-4.2-8.5c-2.1-1.8-5.1-2.7-8.9-2.7
	c-3.1,0-5.5,0.7-7,2c-1.6,1.3-2.4,2.9-2.4,4.8c0,1.4,0.6,2.6,1.9,3.7c1.3,1.1,4.3,2.2,9,3.2c11.7,2.5,20.1,5.1,25.1,7.6
	c5.1,2.6,8.7,5.8,11,9.6c2.3,3.8,3.5,8.1,3.5,12.8c0,5.6-1.5,10.7-4.6,15.4c-3.1,4.7-7.4,8.2-12.9,10.7c-5.5,2.4-12.5,3.6-20.9,3.6
	c-14.7,0-24.9-2.8-30.6-8.5c-5.7-5.7-8.9-12.9-9.6-21.6l25.5-1.6c0.6,4.1,1.7,7.3,3.4,9.4c2.8,3.5,6.7,5.3,11.8,5.3
	c3.8,0,6.8-0.9,8.8-2.7c2.1-1.8,3.1-3.9,3.1-6.2c0-2.2-1-4.3-3-6c-2-1.8-6.5-3.5-13.7-5c-11.7-2.6-20.1-6.1-25.1-10.5
	c-5-4.4-7.6-10-7.6-16.7c0-4.5,1.3-8.7,3.9-12.6c2.6-4,6.4-7.1,11.6-9.3C221.9,352.3,229,351.2,238.1,351.2 M238.1,348.4
	c-9.4,0-16.9,1.2-22.4,3.6c-5.7,2.5-10,6-12.9,10.4c-2.9,4.4-4.3,9.2-4.3,14.1c0,7.6,2.9,13.9,8.5,18.8c5.4,4.7,14,8.4,26.3,11.1
	c8.7,1.9,11.6,3.6,12.4,4.4c1.4,1.2,2,2.5,2,3.9c0,1.6-0.7,2.9-2.1,4.1c-1.5,1.3-3.9,2-7,2c-4.3,0-7.4-1.4-9.6-4.2
	c-1.4-1.8-2.3-4.5-2.8-8.1c-0.2-1.4-1.4-2.4-2.8-2.4h-0.2l-25.5,1.6c-0.8,0.1-1.5,0.4-2,1c-0.5,0.6-0.7,1.3-0.7,2.1
	c0.8,9.4,4.3,17.3,10.4,23.4c6.3,6.3,16.9,9.3,32.6,9.3c8.7,0,16.1-1.3,22-3.9c6-2.6,10.7-6.6,14.1-11.7c3.4-5.1,5.1-10.8,5.1-16.9
	c0-5.2-1.3-10-3.9-14.3c-2.6-4.3-6.7-7.8-12.2-10.6c-3.3-1.7-7.9-3.3-13.7-5l24.3-1.4c0.8,0,1.5-0.4,2-1c0.5-0.6,0.7-1.4,0.6-2.1
	c-1.2-9.8-5.1-17-11.5-21.6C258.7,350.7,249.7,348.4,238.1,348.4L238.1,348.4z M246.4,380.4c-2.7-0.7-5.7-1.4-8.9-2.1
	c-5.9-1.2-7.4-2.2-7.7-2.5c-1-0.9-1-1.4-1-1.6c0-1.1,0.4-1.9,1.4-2.7c1-0.9,2.8-1.3,5.2-1.3c3.1,0,5.5,0.7,7.1,2
	c1.6,1.3,2.7,3.6,3.2,6.8C245.8,379.5,246.1,380,246.4,380.4L246.4,380.4z M367,352.7v21.4h-27.3v65.2H313v-65.2h-27.3v-21.4H367
	 M367,349.9h-81.4c-1.6,0-2.8,1.3-2.8,2.8v21.4c0,1.6,1.3,2.8,2.8,2.8h24.5v62.4c0,1.6,1.3,2.8,2.8,2.8h26.8c1.6,0,2.8-1.2,2.8-2.8
	v-62.4H367c1.5,0,2.8-1.3,2.8-2.8v-21.4C369.8,351.1,368.6,349.9,367,349.9L367,349.9z M424.7,352.7c8.3,0,14.6,0.7,19,2.1
	c4.4,1.4,7.9,4,10.6,7.9c2.7,3.8,4,8.5,4,14c0,4.8-1,8.9-3.1,12.4c-2,3.5-4.9,6.3-8.5,8.5c-2.3,1.4-5.4,2.5-9.4,3.4
	c3.2,1.1,5.5,2.1,7,3.2c1,0.7,2.4,2.2,4.3,4.6c1.9,2.3,3.1,4.1,3.7,5.4l13,25.1h-30.2l-14.3-26.5c-1.8-3.4-3.4-5.6-4.8-6.7
	c-1.9-1.3-4.1-2-6.6-2H407v35.2h-26.9v-86.6L424.7,352.7 M407,387.8h11.3c1.2,0,3.6-0.4,7.1-1.2c1.8-0.4,3.2-1.3,4.3-2.7
	c1.1-1.4,1.7-3.1,1.7-5c0-2.8-0.9-4.9-2.7-6.4c-1.8-1.5-5.1-2.2-10-2.2H407L407,387.8 M424.7,349.9h-44.6c-1.6,0-2.8,1.2-2.8,2.8
	v86.6c0,1.6,1.3,2.8,2.8,2.8H407c1.6,0,2.8-1.2,2.8-2.8V407c1.7,0.1,3.2,0.6,4.5,1.5c0.5,0.4,1.9,1.7,3.9,5.7l14.3,26.5
	c0.5,0.9,1.4,1.5,2.5,1.5h30.2c1,0,1.9-0.5,2.4-1.3c0.5-0.8,0.5-1.9,0.1-2.7l-13-25.1c-0.7-1.4-2-3.4-4.1-5.8
	c-2.1-2.6-3.6-4.2-4.8-5.1c-0.2-0.2-0.4-0.3-0.7-0.5c1.1-0.5,2-1,2.9-1.5c4-2.4,7.2-5.6,9.4-9.5c2.3-3.9,3.5-8.6,3.5-13.8
	c0-6.1-1.5-11.3-4.5-15.6c-3-4.3-7.1-7.4-12-9C439.9,350.6,433.4,349.9,424.7,349.9L424.7,349.9z M409.8,373h9c5.5,0,7.5,1,8.2,1.6
	c0.7,0.6,1.7,1.7,1.7,4.3c0,1.3-0.4,2.3-1.1,3.3c-0.7,0.9-1.6,1.5-2.7,1.7c-4.4,1-6,1.1-6.5,1.1h-8.5L409.8,373L409.8,373z
	 M503.8,352.7v86.6h-26.8v-86.6L503.8,352.7 M503.8,349.9h-26.8c-1.6,0-2.8,1.3-2.8,2.8v86.6c0,1.6,1.2,2.8,2.8,2.8h26.8
	c1.6,0,2.8-1.2,2.8-2.8v-86.6C506.6,351.1,505.3,349.9,503.8,349.9L503.8,349.9z M614.7,352.7L614.7,352.7 M614.7,352.7l-31.6,32.7
	l33,53.9h-33l-18.2-35.6l-13.8,14.5v21.1h-26.8v-86.6h26.8v32.7l28-32.7H614.7 M614.7,349.9h-35.6c-0.8,0-1.6,0.4-2.1,1l-23.1,27
	v-25.1c0-1.6-1.3-2.8-2.8-2.8h-26.8c-1.6,0-2.8,1.3-2.8,2.8v86.6c0,1.6,1.3,2.8,2.8,2.8H551c1.5,0,2.8-1.2,2.8-2.8v-20l10.3-10.8
	l16.5,32.1c0.5,0.9,1.4,1.5,2.5,1.5h33c1,0,1.9-0.5,2.4-1.4c0.5-0.9,0.5-2-0.1-2.8l-31.9-52.1l30-31c0.6-0.5,0.9-1.2,0.9-2.1
	C617.5,351.1,616.3,349.9,614.7,349.9L614.7,349.9z M704.9,352.7v21.4h-27.3v65.2h-26.8v-65.2h-27.3v-21.4H704.9 M704.9,349.9h-81.4
	c-1.6,0-2.8,1.3-2.8,2.8v21.4c0,1.6,1.3,2.8,2.8,2.8H648v62.4c0,1.6,1.3,2.8,2.8,2.8h26.8c1.6,0,2.8-1.2,2.8-2.8v-62.4h24.5
	c1.5,0,2.8-1.3,2.8-2.8v-21.4C707.7,351.1,706.4,349.9,704.9,349.9L704.9,349.9z M732.6,415.2v24.1h-25.7v-24.1H732.6 M732.6,412.4
	h-25.7c-1.5,0-2.8,1.3-2.8,2.8v24.1c0,1.6,1.3,2.8,2.8,2.8h25.7c1.6,0,2.8-1.3,2.8-2.8v-24.1C735.5,413.7,734.2,412.4,732.6,412.4
	L732.6,412.4z"/>
</svg>
