<svg xmlns="http://www.w3.org/2000/svg" viewBox="0 0 140 105" enable-background="new 0 0 140 105"><path d="M35.44 47.523c1.037 0 1.88-.84 1.88-1.877v-17.99c0-1.036-.843-1.876-1.88-1.876s-1.88.84-1.88 1.877v17.99c0 1.036.843 1.876 1.88 1.876zm6.465 5.24c1.598 0 2.94-1.295 2.94-2.893V23.433c0-1.598-1.342-2.894-2.94-2.894-1.598 0-2.94 1.294-2.94 2.892V49.87c0 1.598 1.342 2.894 2.94 2.894zm7.347 3.287c1.598 0 2.88-1.297 2.88-2.895V20.148c0-1.598-1.282-2.894-2.88-2.894s-2.88 1.296-2.88 2.894v33.006c0 1.6 1.282 2.895 2.88 2.895zm55.308-8.527c1.037 0 1.88-.84 1.88-1.877v-17.99c0-1.036-.843-1.876-1.88-1.876s-1.88.84-1.88 1.877v17.99c0 1.036.843 1.876 1.88 1.876zm-3.527-24.09c0-1.598-1.34-2.894-2.94-2.894-1.597 0-2.938 1.294-2.938 2.892V49.87c0 1.598 1.34 2.894 2.94 2.894 1.597 0 2.938-1.296 2.938-2.894V23.433zm-7.406 29.722V20.148c0-1.598-1.282-2.894-2.88-2.894-1.598 0-2.88 1.296-2.88 2.894v33.006c0 1.598 1.282 2.894 2.88 2.894 1.6 0 2.88-1.295 2.88-2.893zM70 47.08c4.502 0 8.34-2.897 9.748-6.923 5.73-.168 6.827-.455 6.827-.455v-5.788s-1.34-.33-6.816-.528c-1.4-4.043-5.248-6.954-9.76-6.954s-8.36 2.91-9.76 6.954c-5.476.2-6.816.528-6.816.528v5.788s1.095.287 6.827.455c1.41 4.027 5.247 6.923 9.75 6.923zm-6.655-6.854h.03c-.544-1.037-.857-2.217-.857-3.47 0-.79.125-1.553.354-2.27l4.402 3.18-1.684 5.16c-.934-.68-1.706-1.57-2.245-2.6zm2.246 2.602l4.41-3.2 4.404 3.204c-1.238.9-2.76 1.432-4.403 1.432-1.646 0-3.17-.534-4.41-1.436zm8.82 0l-1.683-5.164 4.402-3.176c.227.715.352 1.477.352 2.268 0 1.253-.31 2.433-.856 3.47h.03c-.54 1.03-1.31 1.922-2.246 2.603zM70 29.25c2.894 0 5.41 1.646 6.662 4.05h-.03c.197.377.362.772.494 1.183h-5.44L70 29.297l-1.685 5.185h-5.442c.132-.41.298-.805.494-1.182h-.03c1.254-2.404 3.77-4.05 6.663-4.05zM26.302 72.73h2.464v1.53c-.634.634-1.62.898-2.517.898-2.026 0-3.716-1.69-3.716-3.925 0-2.2 1.62-3.908 3.714-3.908 1.143 0 2.182.58 2.868 1.39l1.866-1.62c-1.197-1.39-2.746-2.182-4.718-2.182-3.485 0-6.267 2.852-6.267 6.32 0 3.503 2.745 6.32 6.266 6.32 2.112 0 3.66-.9 4.84-2.307V70.6h-4.805v2.13zm9.593-7.66h-2.5v12.324h6.848v-2.29h-4.348zm10.895-.157c-3.502 0-6.336 2.852-6.336 6.32 0 3.503 2.834 6.337 6.337 6.337 3.47 0 6.32-2.834 6.32-6.337 0-3.468-2.85-6.32-6.32-6.32zm0 10.298c-2.147 0-3.73-1.635-3.73-3.976 0-2.306 1.583-3.96 3.73-3.96 2.13 0 3.715 1.636 3.715 3.96 0 2.323-1.584 3.978-3.714 3.978zm16.69-1.62c0-1.636-.987-2.816-2.553-3.344.81-.458 1.338-1.18 1.338-2.306 0-1.62-1.09-2.87-3.204-2.87h-3.835v12.323h3.61c3.254 0 4.645-1.654 4.645-3.802zm-5.758-6.723h.986c1.76 0 1.46 2.623 0 2.623h-.986v-2.623zm1.426 8.467h-1.426V71.76h1.443c2.342 0 2.465 3.574-.017 3.574zm18.572-4.1c0-3.47-2.853-6.32-6.32-6.32-3.503 0-6.337 2.85-6.337 6.32 0 3.502 2.834 6.336 6.337 6.336 3.467 0 6.32-2.834 6.32-6.337zM71.4 75.21c-2.148 0-3.732-1.636-3.732-3.977 0-2.306 1.584-3.96 3.732-3.96 2.13 0 3.714 1.636 3.714 3.96 0 2.323-1.584 3.978-3.714 3.978zm13.976-.052c-2.095 0-3.714-1.69-3.714-3.925 0-2.2 1.62-3.908 3.714-3.908 1.144 0 2.095.58 2.87 1.39l1.865-1.62c-1.195-1.39-2.744-2.182-4.716-2.182-3.485 0-6.267 2.852-6.267 6.32 0 3.503 2.746 6.337 6.267 6.337 2.112 0 3.662-.915 4.84-2.324l-1.935-1.55c-.793.864-1.76 1.462-2.923 1.462zm9.118-10.088h-2.5v12.324h6.848v-2.29h-4.348zm12.006 8.1c0 1.302-.74 2.076-1.744 2.076-.986 0-1.725-.775-1.725-2.077v-8.1h-2.533v7.94c0 3.203 2.042 4.558 4.26 4.558 2.236 0 4.278-1.355 4.278-4.56V65.07H106.5v8.097zm10.948-2.923c.81-.458 1.338-1.18 1.338-2.306 0-1.617-1.09-2.867-3.204-2.867h-3.838v12.322h3.61c3.256 0 4.646-1.655 4.646-3.802 0-1.638-.986-2.817-2.552-3.345zm-3.204-3.38h.986c1.76 0 1.46 2.623 0 2.623h-.986v-2.623zm1.426 8.467h-1.426V71.76h1.444c2.34 0 2.464 3.574-.018 3.574zM54.255 87.656h.46v-2.943h2.974v-.428h-2.976V81.49h3.15v-.423h-3.61zm4.633-6.59h.46v6.59h-.46zm1.438.434h2.14v6.156h.464V81.5h2.14v-.433h-4.744zm10.067 3.866c0 .487.014 1 .04 1.54h-.026l-3.898-5.84h-.46v6.59h.44v-4.273c0-.354-.018-.88-.054-1.577h.036l3.903 5.85h.464v-6.59h-.447v4.3zm2.312 2.29h3.6v-.424h-3.14v-2.826h2.965v-.423h-2.965V81.49h3.14v-.423h-3.6zm7.985-3.036c-.258-.167-.644-.34-1.158-.516-.49-.174-.835-.324-1.036-.448-.2-.125-.346-.265-.435-.42-.087-.157-.13-.357-.13-.6 0-.388.143-.694.432-.92.29-.224.677-.337 1.164-.337.5 0 1.02.112 1.568.34l.167-.397c-.544-.234-1.125-.352-1.744-.352-.607 0-1.103.157-1.49.468-.385.31-.578.712-.578 1.204 0 .448.128.806.385 1.075.257.268.722.518 1.395.75.46.155.808.3 1.046.436.237.135.41.285.514.45.105.163.158.37.158.62 0 .402-.16.727-.475.975-.316.25-.745.373-1.286.373-.736 0-1.34-.1-1.816-.3v.46c.43.177 1.047.266 1.852.266.67 0 1.206-.16 1.61-.482s.606-.757.606-1.307c0-.3-.06-.557-.178-.768-.12-.215-.31-.404-.568-.57zm5.03 0c-.258-.167-.644-.34-1.158-.516-.49-.174-.835-.324-1.036-.448-.2-.125-.346-.265-.435-.42-.087-.157-.13-.357-.13-.6 0-.388.143-.694.432-.92.29-.224.677-.337 1.164-.337.5 0 1.02.112 1.568.34l.167-.397c-.544-.234-1.125-.352-1.744-.352-.607 0-1.103.157-1.49.468-.385.31-.578.712-.578 1.204 0 .448.128.806.385 1.075.257.268.722.518 1.395.75.46.155.808.3 1.046.436.237.135.41.285.514.45.105.163.158.37.158.62 0 .402-.16.727-.475.975-.316.25-.745.373-1.286.373-.736 0-1.34-.1-1.816-.3v.46c.43.177 1.047.266 1.852.266.67 0 1.206-.16 1.61-.482.404-.32.606-.757.606-1.307 0-.3-.06-.557-.178-.768-.122-.215-.31-.404-.568-.57z" fill="#5BA9DD"/></svg>