<?xml version="1.0" encoding="iso-8859-1"?>
<!-- Generator: Adobe Illustrator 18.1.1, SVG Export Plug-In . SVG Version: 6.00 Build 0)  -->
<!DOCTYPE svg PUBLIC "-//W3C//DTD SVG 1.1//EN" "http://www.w3.org/Graphics/SVG/1.1/DTD/svg11.dtd">
<svg version="1.1" xmlns="http://www.w3.org/2000/svg" xmlns:xlink="http://www.w3.org/1999/xlink" x="0px" y="0px"
	 viewBox="0 0 140 105" style="enable-background:new 0 0 140 105;" xml:space="preserve">
<g id="proximity">
	<g id="Layer_2">
		<g>
			<g>
				<g>
					<path style="fill:#26303F;" d="M10.12,49.465c0-1.903-0.06-3.426-0.12-4.828h2.424l0.12,2.524h0.06
						c1.102-1.803,2.845-2.885,5.269-2.885c3.586,0,6.27,3.025,6.27,7.533c0,5.329-3.245,7.953-6.731,7.953
						c-1.963,0-3.666-0.861-4.568-2.324h-0.06v8.053H10.12V49.465z M12.785,53.412c0,0.401,0.06,0.761,0.12,1.102
						c0.501,1.863,2.124,3.145,4.047,3.145c2.845,0,4.508-2.324,4.508-5.73c0-2.965-1.563-5.509-4.407-5.509
						c-1.843,0-3.546,1.322-4.067,3.346c-0.1,0.341-0.18,0.741-0.18,1.102v2.544H12.785z"/>
				</g>
				<g>
					<path style="fill:#26303F;" d="M27.549,49.245c0-1.743-0.04-3.245-0.12-4.628h2.344l0.1,2.905h0.12
						c0.681-1.983,2.304-3.245,4.107-3.245c0.3,0,0.521,0.04,0.761,0.1v2.544c-0.28-0.06-0.561-0.1-0.922-0.1
						c-1.903,0-3.245,1.442-3.606,3.466c-0.06,0.361-0.12,0.801-0.12,1.262v7.893h-2.664V49.245z"/>
				</g>
				<g>
					<path style="fill:#26303F;" d="M50.568,51.448c0,6.01-3.746,8.634-7.292,8.634c-3.967,0-7.032-3.225-7.032-8.354
						c0-2.624,0.741-4.728,1.983-6.21c1.322-1.583,1.322-1.583,5.189-5.91c5.209,5.81,3.967,4.327,5.209,5.81
						C49.866,46.881,50.568,48.964,50.568,51.448z M41.352,51.588c0,1.623,0.841,2.865,2.043,2.865c1.162,0,2.043-1.222,2.043-2.885
						c0-1.262-0.561-2.865-2.023-2.865C41.973,48.704,41.352,50.186,41.352,51.588z"/>
				</g>
				<g>
					<path style="fill:#26303F;" d="M54.875,44.637l2.104,3.185c0.541,0.821,1.002,1.583,1.503,2.424h0.1
						c0.481-0.881,0.982-1.643,1.462-2.444l2.083-3.145h2.905l-5.048,7.152l5.209,7.653h-3.065l-2.164-3.346
						c-0.581-0.861-1.062-1.683-1.583-2.564h-0.06c-0.481,0.881-1.002,1.683-1.563,2.564l-2.144,3.346h-2.965l5.269-7.553
						l-5.028-7.252h2.985V44.637z"/>
				</g>
				<g>
					<path style="fill:#26303F;" d="M70.781,40.47c0.04,0.922-0.641,1.643-1.723,1.643c-0.942,0-1.623-0.741-1.623-1.643
						c0-0.942,0.701-1.683,1.683-1.683C70.14,38.787,70.781,39.528,70.781,40.47z M67.796,59.442V44.637h2.684v14.805H67.796z"/>
				</g>
				<g>
					<path style="fill:#26303F;" d="M74.948,48.644c0-1.523-0.04-2.785-0.12-4.007h2.364l0.12,2.384h0.1
						c0.821-1.402,2.204-2.725,4.648-2.725c2.023,0,3.546,1.222,4.187,2.965h0.06c0.461-0.821,1.042-1.462,1.643-1.923
						c0.881-0.681,1.863-1.042,3.265-1.042c1.963,0,4.868,1.282,4.868,6.431v8.715h-2.624v-8.394c0-2.845-1.042-4.568-3.205-4.568
						c-1.523,0-2.725,1.142-3.185,2.444c-0.12,0.361-0.22,0.861-0.22,1.342v9.155h-2.624v-8.855c0-2.364-1.042-4.067-3.085-4.067
						c-1.683,0-2.905,1.342-3.346,2.684c-0.16,0.401-0.22,0.861-0.22,1.322v8.935h-2.624L74.948,48.644L74.948,48.644z"/>
				</g>
				<g>
					<path style="fill:#26303F;" d="M103.476,40.47c0.04,0.922-0.641,1.643-1.723,1.643c-0.942,0-1.623-0.741-1.623-1.643
						c0-0.942,0.701-1.683,1.683-1.683C102.835,38.787,103.476,39.528,103.476,40.47z M100.471,59.442V44.637h2.684v14.805H100.471z
						"/>
				</g>
				<g>
					<path style="fill:#26303F;" d="M110.888,40.37v4.247h3.846v2.043h-3.846v7.993c0,1.843,0.521,2.885,2.023,2.885
						c0.701,0,1.222-0.1,1.563-0.18l0.12,2.023c-0.521,0.22-1.342,0.361-2.384,0.361c-1.262,0-2.264-0.401-2.905-1.142
						c-0.761-0.801-1.042-2.104-1.042-3.846V46.68h-2.304v-2.043h2.304v-3.566L110.888,40.37z"/>
				</g>
				<g>
					<path style="fill:#26303F;" d="M119.022,44.637l3.245,8.755c0.341,0.982,0.701,2.144,0.942,3.025h0.06
						c0.28-0.881,0.581-2.023,0.942-3.085l2.945-8.694H130l-4.047,10.558c-1.923,5.088-3.245,7.673-5.088,9.275
						c-1.322,1.162-2.624,1.623-3.306,1.743l-0.681-2.264c0.681-0.22,1.563-0.641,2.364-1.322c0.741-0.581,1.643-1.623,2.264-3.005
						c0.12-0.28,0.22-0.481,0.22-0.641s-0.06-0.361-0.18-0.701l-5.469-13.643C116.077,44.637,119.022,44.637,119.022,44.637z"/>
				</g>
			</g>
			<g style="enable-background:new    ;">
				<path style="fill:#26303F;" d="M15.893,62.07H14.52v-0.495h3.342v0.495h-1.38v4.019h-0.589V62.07z"/>
				<path style="fill:#26303F;" d="M18.947,61.575v1.889h2.183v-1.889h0.589v4.514h-0.589v-2.116h-2.183v2.116h-0.582v-4.514H18.947
					z"/>
				<path style="fill:#26303F;" d="M25.07,63.972h-1.755V65.6h1.956v0.489h-2.538v-4.514h2.437v0.489h-1.855v1.427h1.755V63.972z"/>
				<path style="fill:#26303F;" d="M29.787,63.972h-1.755V65.6h1.956v0.489H27.45v-4.514h2.437v0.489h-1.855v1.427h1.755V63.972z"/>
				<path style="fill:#26303F;" d="M31.797,66.089l-1.474-4.514h0.63l0.703,2.224c0.194,0.609,0.362,1.158,0.482,1.687h0.014
					c0.127-0.522,0.314-1.091,0.515-1.681l0.763-2.23h0.623l-1.614,4.514H31.797z"/>
				<path style="fill:#26303F;" d="M36.881,63.972h-1.755V65.6h1.956v0.489h-2.538v-4.514h2.438v0.489h-1.855v1.427h1.755V63.972z"
					/>
				<path style="fill:#26303F;" d="M37.84,61.635c0.295-0.06,0.717-0.094,1.118-0.094c0.623,0,1.025,0.114,1.306,0.368
					c0.228,0.201,0.355,0.509,0.355,0.857c0,0.596-0.375,0.991-0.851,1.152v0.019c0.348,0.121,0.556,0.443,0.663,0.911
					c0.147,0.63,0.255,1.064,0.348,1.239h-0.603c-0.074-0.128-0.174-0.515-0.302-1.079c-0.134-0.623-0.375-0.857-0.904-0.877h-0.549
					v1.955H37.84V61.635z M38.423,63.691h0.596c0.623,0,1.018-0.342,1.018-0.857c0-0.583-0.422-0.838-1.038-0.844
					c-0.281,0-0.482,0.027-0.576,0.053V63.691z"/>
				<path style="fill:#26303F;" d="M42.376,66.089v-1.915l-1.426-2.598h0.663l0.636,1.246c0.174,0.341,0.308,0.615,0.449,0.931
					h0.013c0.128-0.295,0.282-0.59,0.456-0.931l0.65-1.246h0.663l-1.514,2.592v1.922H42.376z"/>
				<path style="fill:#26303F;" d="M45.926,66.089l-1.145-4.514h0.616l0.536,2.284c0.134,0.562,0.255,1.125,0.335,1.56h0.013
					c0.074-0.449,0.214-0.985,0.368-1.567l0.603-2.277h0.609l0.549,2.29c0.127,0.536,0.248,1.072,0.315,1.547h0.013
					c0.094-0.495,0.221-0.998,0.361-1.56l0.596-2.277h0.596l-1.279,4.514h-0.609l-0.569-2.35c-0.141-0.576-0.235-1.018-0.295-1.474
					h-0.013c-0.08,0.448-0.181,0.891-0.348,1.474l-0.643,2.35H45.926z"/>
				<path style="fill:#26303F;" d="M51.44,61.575v1.889h2.183v-1.889h0.589v4.514h-0.589v-2.116H51.44v2.116h-0.583v-4.514H51.44z"
					/>
				<path style="fill:#26303F;" d="M57.563,63.972h-1.755V65.6h1.956v0.489h-2.538v-4.514h2.437v0.489h-1.855v1.427h1.755V63.972z"
					/>
				<path style="fill:#26303F;" d="M58.522,61.635c0.295-0.06,0.717-0.094,1.118-0.094c0.623,0,1.025,0.114,1.306,0.368
					c0.228,0.201,0.355,0.509,0.355,0.857c0,0.596-0.375,0.991-0.851,1.152v0.019c0.348,0.121,0.556,0.443,0.663,0.911
					c0.147,0.63,0.255,1.064,0.348,1.239h-0.603c-0.074-0.128-0.174-0.515-0.302-1.079c-0.134-0.623-0.375-0.857-0.904-0.877h-0.549
					v1.955h-0.583V61.635z M59.105,63.691h0.596c0.623,0,1.018-0.342,1.018-0.857c0-0.583-0.422-0.838-1.038-0.844
					c-0.281,0-0.482,0.027-0.576,0.053V63.691z"/>
				<path style="fill:#26303F;" d="M64.463,63.972h-1.755V65.6h1.956v0.489h-2.538v-4.514h2.438v0.489h-1.855v1.427h1.755V63.972z"
					/>
				<path style="fill:#26303F;" d="M67.573,64.669l-0.469,1.42h-0.603l1.534-4.514h0.703l1.54,4.514h-0.623l-0.482-1.42H67.573z
					 M69.053,64.213l-0.442-1.299c-0.101-0.294-0.168-0.562-0.235-0.824h-0.013c-0.067,0.268-0.141,0.543-0.228,0.817l-0.442,1.305
					H69.053z"/>
				<path style="fill:#26303F;" d="M70.943,61.628c0.281-0.047,0.649-0.087,1.118-0.087c0.576,0,0.998,0.134,1.265,0.375
					c0.248,0.214,0.395,0.542,0.395,0.944c0,0.408-0.12,0.73-0.348,0.964c-0.308,0.328-0.81,0.496-1.38,0.496
					c-0.174,0-0.335-0.007-0.468-0.041v1.808h-0.583V61.628z M71.526,63.805c0.127,0.034,0.288,0.047,0.482,0.047
					c0.703,0,1.132-0.342,1.132-0.964c0-0.596-0.422-0.884-1.064-0.884c-0.255,0-0.449,0.02-0.549,0.047V63.805z"/>
				<path style="fill:#26303F;" d="M74.508,61.628c0.281-0.047,0.649-0.087,1.118-0.087c0.576,0,0.997,0.134,1.265,0.375
					c0.248,0.214,0.395,0.542,0.395,0.944c0,0.408-0.12,0.73-0.348,0.964c-0.308,0.328-0.81,0.496-1.38,0.496
					c-0.174,0-0.335-0.007-0.468-0.041v1.808h-0.583V61.628z M75.09,63.805c0.127,0.034,0.288,0.047,0.482,0.047
					c0.703,0,1.132-0.342,1.132-0.964c0-0.596-0.422-0.884-1.064-0.884c-0.255,0-0.449,0.02-0.549,0.047V63.805z"/>
			</g>
		</g>
	</g>
</g>
<g id="Layer_1">
</g>
</svg>
