<?xml version="1.0" encoding="iso-8859-1"?>
<!-- Generator: Adobe Illustrator 18.1.1, SVG Export Plug-In . SVG Version: 6.00 Build 0)  -->
<!DOCTYPE svg PUBLIC "-//W3C//DTD SVG 1.1//EN" "http://www.w3.org/Graphics/SVG/1.1/DTD/svg11.dtd">
<svg version="1.1" xmlns="http://www.w3.org/2000/svg" xmlns:xlink="http://www.w3.org/1999/xlink" x="0px" y="0px"
	 viewBox="0 0 140 105" style="enable-background:new 0 0 140 105;" xml:space="preserve">
<g id="rehappy">
	<g>
		<path style="fill:#F05C23;" d="M20,55.732c8.023-5.394,15.21-10.226,22.995-15.46c8.472,13.502,23.239,23.388,17.837,42.992
			C47.417,74.218,34.128,65.258,20,55.732z"/>
		<path style="fill:#A01C66;" d="M45.424,38.888c8.87-5.979,17.068-11.505,25.515-17.199c8.144,5.555,16.05,10.947,24.765,16.892
			c-8.748,6.779-12.273,18.975-25.379,18.758C57.84,57.131,53.371,46.429,45.424,38.888z M69.922,52.059
			c5.257-0.52,8.529-3.285,8.332-8.426c-0.186-4.829-3.188-7.814-8.361-7.776c-5.389,0.04-7.893,3.614-7.864,8.242
			C62.057,48.734,65.159,51.6,69.922,52.059z"/>
		<path style="fill:#1376BD;" d="M120,55.083c-14.209,9.75-27.556,18.908-41.14,28.228c-5.664-20.186,11.3-29.222,18.735-43.404
			C105.248,45.09,112.23,49.82,120,55.083z"/>
	</g>
</g>
<g id="Layer_1">
</g>
</svg>
