<svg xmlns="http://www.w3.org/2000/svg" viewBox="0 0 140 105" enable-background="new 0 0 140 105"><path d="M69.95 71.457c-21.81 0-39.553-13.222-39.553-29.48C30.397 25.723 48.14 12.5 69.95 12.5c21.812 0 39.555 13.222 39.555 29.478 0 16.257-17.743 29.48-39.554 29.48zm0-57.61c-21.067 0-38.204 12.618-38.204 28.13 0 15.515 17.137 28.136 38.205 28.136 21.066 0 38.208-12.62 38.208-28.135 0-15.513-17.14-28.13-38.206-28.13z" fill="#046799"/><ellipse cx="69.952" cy="41.979" rx="36.187" ry="26.11" fill="#D85E97"/><path d="M51.694 47.595c-.022-.75-.275-1.355-.457-1.795-.063-.155-.146-.353-.176-.468.085-.046.293-.146.78-.25.333-.072.563-.375.545-.715-.02-.34-.285-.616-.625-.647-2.725-.266-3.95.87-4.48 1.813-.89 1.575-.49 3.62.078 4.566.126.21.353.337.59.337.022 0 .044 0 .064-.005 1.4-.128 3.746-.873 3.682-2.838zM41.616 43.71c.667.263.792.43.802.43 0 .108-.187.43-.318.664-.326.563-.77 1.336-.88 2.393-.105.972.126 1.777.686 2.4.96 1.073 2.618 1.233 3.518 1.233.303 0 .494-.02.494-.02.29-.026.53-.232.603-.512.076-.278-.032-.576-.27-.742-.856-.6-.59-1.872-.09-3.74l.043-.15c.207-.78.075-1.507-.388-2.11-.864-1.125-2.705-1.535-3.733-1.535-.71 0-1.117.233-1.205.69-.056.3.025.718.74 1zm27.72 5.805c-.173-1.322-.636-2.93-1.466-4.18-2.4-3.626-6.696-4.805-10.486-5.84-4.995-1.368-8.05-2.41-8.05-6.443 0-3.033 1.644-5.194 4.51-5.925 3.204-.817 7.787.372 9.62 3.722.183.335.602.46.938.272.333-.182.457-.6.275-.937-.252-.46-.548-.88-.875-1.273 1.317.065 2.554-.306 3.54-1.113.67-.55 1.177-1.27 1.462-2.086.947-2.72-2.005-4.756-2.13-4.838-.258-.174-.59-.155-.825.038-.02.008-.03.02-.043.035-.236.223-.282.582-.11.86.696 1.133.437 3.324-.938 4.45-.805.653-1.87.876-3.17.66-.065-.01-.13-.01-.19-.002-2.435-1.397-5.46-1.756-7.897-1.132-3.476.888-6.196 3.615-6.473 7.265-.487 6.34 5.532 8.398 9.99 9.62 3.73 1.022 11.708 4.39 9.323 11.185-1.093 3.12-4.072 4.717-8.028 4.717-8.403 0-9.97-6.727-10.032-7.013-.08-.37-.448-.608-.82-.528-.375.08-.61.445-.532.82.02.08 1.84 8.106 11.386 8.106 2.792 0 5.574-.725 7.575-2.145 2.846-2.14 3.796-5.653 3.447-8.3zm-4.393-17.417c-.23-.084-.484-.037-.672.115l-.046.043c-.997.984-2.347 3.044-1.05 4.527.495.566 1.07.876 1.49 1.1.147.08.34.18.43.25-.033.09-.13.298-.442.687-.21.266-.198.648.032.897.23.253.61.3.896.107 2.275-1.518 2.498-3.175 2.317-4.24-.308-1.782-1.912-3.11-2.952-3.486zm9.7 1.62c-.145-.27-.475-.54-1.21-.306-.68.217-.883.165-.89.173-.07-.085-.127-.45-.174-.714-.108-.64-.254-1.52-.834-2.41-.538-.816-1.227-1.295-2.054-1.422-1.423-.222-2.803.705-3.5 1.273-.236.193-.37.328-.37.328-.208.202-.264.515-.144.777.12.263.39.424.677.402 1.043-.078 1.645 1.075 2.438 2.84l.064.143c.332.734.895 1.214 1.632 1.39 1.382.32 3.062-.528 3.86-1.178.553-.45.72-.89.5-1.295zm22.39 8.165l-15.605-.405v-8.72c0-3.315.89-6.013 4.857-6.013 3.965 0 5.244 2.698 5.244 6.013 0 3.316-1.28 7.593-5.246 7.593-1.125 0-2.2-.21-3.198-.623-.37-.15-.8-.026-.98.277-.176.302-.027.67.328.817 1.208.5 2.5.753 3.85.753 4.774 0 8.657-4.826 8.657-8.815 0-3.988-3.882-7.233-8.655-7.233-4.774 0-9.64 3.245-9.64 7.233v8.595l-4.718-.122c-.26-1.66-.99-2.863-1.855-2.877v8.435c.86-.012 1.59-1.208 1.853-2.86l4.72-.126v8.58c0 3.988 4.865 7.236 9.64 7.236 4.773 0 8.656-3.248 8.656-7.236 0-3.99-3.882-8.79-8.655-8.79-1.352 0-2.643.255-3.85.752-.356.15-.505.516-.328.816.18.302.61.43.98.277.997-.415 2.072-.622 3.197-.622 3.965 0 5.244 4.25 5.244 7.566 0 3.314-1.28 6.015-5.245 6.015-3.968 0-4.857-2.7-4.857-6.015v-8.71l15.606-.417c.412 0 .747-.308.747-.688 0-.376-.335-.684-.747-.684z" fill="#fff"/><path d="M26.25 86.148c-.186-.096-.425-.247-.718-.435-.295-.193-.583-.44-.864-.736-.282-.294-.525-.652-.726-1.074-.203-.422-.307-.913-.307-1.483 0-.616.116-1.166.345-1.643.23-.475.54-.87.932-1.188.394-.32.854-.555 1.384-.716.53-.163 1.104-.242 1.72-.242.76 0 1.41.1 1.953.297.54.192.99.437 1.344.724.354.29.615.6.786.934.17.332.256.638.256.913 0 .396-.133.724-.4.98-.27.266-.607.395-1.014.395-.42 0-.722-.103-.91-.314-.19-.205-.374-.463-.54-.764-.056-.105-.127-.226-.22-.362-.09-.14-.2-.274-.324-.4-.123-.136-.268-.242-.43-.327-.165-.087-.357-.127-.582-.127-.34 0-.628.11-.864.34-.235.23-.352.543-.352.937 0 .265.044.485.137.674.092.184.242.364.45.54.21.172.493.35.846.537.354.184.786.41 1.297.666.354.175.728.375 1.13.605.398.23.765.508 1.1.837.332.33.607.723.823 1.18.216.457.324 1.008.324 1.652 0 .705-.133 1.308-.402 1.805-.27.504-.622.914-1.06 1.23-.438.314-.942.547-1.513.696-.57.15-1.148.222-1.738.222-.84 0-1.55-.117-2.14-.352-.59-.234-1.07-.533-1.444-.884-.375-.357-.646-.73-.817-1.13-.17-.402-.254-.764-.254-1.093 0-.256.047-.486.145-.673.1-.194.22-.348.364-.463.142-.12.3-.207.47-.258.17-.05.327-.078.47-.078.25 0 .463.046.64.135.177.093.333.21.47.346.14.135.257.29.353.46.1.173.19.336.268.493.066.13.143.272.236.43.09.158.202.303.334.446.13.135.29.246.472.34.183.093.394.137.628.137.34 0 .64-.108.903-.332.262-.222.395-.548.395-.984 0-.27-.05-.504-.15-.704-.097-.196-.237-.385-.42-.56-.185-.168-.417-.338-.7-.497-.282-.16-.61-.343-.992-.538l-1.097-.598zm14 1.7l-1.335 4.24c-.065.185-.125.297-.175.345-.055.043-.172.067-.354.067H36.54c-.17 0-.287-.024-.344-.067-.06-.048-.122-.153-.186-.324l-2.674-9.155c-.038-.104-.06-.178-.068-.216-.006-.04-.01-.08-.01-.12 0-.143.045-.23.14-.25.09-.03.167-.044.235-.044h2.336c.18 0 .305.024.37.068.065.05.12.16.157.345l1.455 5.99 1.768-5.99c.05-.157.1-.267.148-.325.046-.06.14-.09.285-.09h.962c.092.03.152.066.185.122.032.05.068.142.108.272l1.808 6.01 1.472-5.953c.053-.18.104-.304.15-.362.044-.06.152-.09.322-.09h1.572c.104 0 .202.014.295.044.09.02.136.107.136.25 0 .04-.003.078-.01.12-.004.037-.036.142-.086.314l-2.672 9.032c-.065.172-.125.285-.175.334-.054.052-.158.08-.315.08h-1.79c-.167 0-.29-.028-.36-.08-.074-.048-.143-.154-.21-.31l-1.294-4.263zm9.98-.34c.024.134.057.29.096.466.04.177.112.347.218.518.222.39.522.696.903.923.38.227.812.337 1.295.337.46 0 .857-.098 1.2-.283.34-.194.607-.386.803-.583.198-.223.34-.37.433-.44.093-.07.21-.11.354-.11.157 0 .297.062.422.188.125.123.186.31.186.56 0 .104-.02.258-.068.474-.046.205-.125.435-.235.682-.11.25-.262.51-.45.778-.19.272-.43.513-.718.74-.29.222-.635.396-1.035.54-.397.135-.86.202-1.384.202-.864 0-1.594-.146-2.19-.443-.594-.3-1.075-.69-1.44-1.174-.37-.485-.63-1.037-.787-1.657-.158-.62-.236-1.248-.236-1.88 0-.914.14-1.693.413-2.333.274-.64.636-1.154 1.08-1.553.446-.398.94-.688 1.483-.866.542-.182 1.082-.272 1.62-.272.785 0 1.432.146 1.935.44.504.292.904.632 1.198 1.022.295.388.497.783.61 1.19.11.408.165.723.165.94 0 .196-.023.353-.077.466-.05.118-.122.207-.204.265-.087.06-.176.104-.27.126-.09.026-.175.047-.252.06l-5.068.67zm2.85-1.567c-.042-.43-.123-.765-.248-1.01-.126-.24-.262-.42-.412-.528-.152-.112-.295-.18-.433-.198-.138-.02-.24-.027-.305-.027-.287 0-.537.063-.745.186-.21.128-.382.29-.51.503-.132.208-.23.447-.297.717-.066.266-.097.54-.097.813l3.046-.452zm6.557 1.567c.025.135.056.29.097.467.04.177.112.347.217.518.225.39.524.696.907.923.38.227.81.337 1.295.337.46 0 .86-.098 1.2-.283.34-.194.608-.386.804-.583.196-.223.34-.37.433-.44.09-.07.21-.11.353-.11.158 0 .298.062.423.188.124.123.188.31.188.56 0 .104-.023.258-.07.474-.045.205-.124.435-.234.682-.112.25-.262.51-.452.778-.19.272-.43.513-.718.74-.286.222-.63.396-1.03.54-.4.135-.86.202-1.384.202-.865 0-1.595-.146-2.19-.443-.597-.3-1.076-.69-1.443-1.174-.37-.485-.63-1.037-.787-1.657-.158-.62-.236-1.248-.236-1.88 0-.914.138-1.693.414-2.333.276-.64.633-1.154 1.08-1.553.446-.398.94-.688 1.482-.866.543-.182 1.082-.272 1.622-.272.783 0 1.43.146 1.934.44.504.292.903.632 1.198 1.022.295.388.5.783.61 1.19.11.408.166.723.166.94 0 .196-.028.353-.08.466-.05.118-.12.207-.206.265-.085.06-.174.104-.264.126-.092.026-.178.047-.257.06l-5.07.67zm2.848-1.566c-.04-.43-.122-.765-.247-1.01-.125-.24-.26-.42-.41-.528-.153-.112-.297-.18-.433-.198-.14-.02-.24-.027-.305-.027-.288 0-.54.063-.746.186-.21.128-.38.29-.51.503-.133.208-.23.447-.296.717-.065.266-.097.54-.097.813l3.046-.452zm7.678-2.314v5.426c0 .15.007.325.02.52.015.196.06.384.148.557.088.175.22.323.394.445.18.117.43.19.758.217.08 0 .165.004.266.012.097.006.187.023.265.067.077.036.148.1.207.18.06.077.09.193.09.35 0 .157-.07.3-.21.436-.135.13-.31.244-.527.352-.217.105-.463.184-.737.232-.275.05-.556.08-.844.08-.118 0-.26-.005-.434-.022-.17-.012-.356-.044-.56-.1-.203-.06-.41-.144-.628-.25-.216-.106-.415-.256-.597-.45-.328-.338-.52-.694-.58-1.055-.06-.36-.088-.708-.088-1.04v-5.958h-.65c-.103 0-.195-.004-.274-.01-.08-.01-.12-.012-.136-.012-.1-.014-.164-.05-.184-.112-.02-.057-.03-.135-.03-.23v-.516c0-.12.007-.207.02-.27.015-.06.036-.094.07-.107.03-.015.073-.03.125-.044h1.063V81.3c0-.18.02-.313.057-.392.04-.076.146-.168.315-.27l2.002-1.023c.054-.027.105-.05.158-.078.053-.027.11-.042.176-.042.172 0 .272.073.308.22.032.142.047.26.047.352v2.258h1.32c.13 0 .23.01.292.03.064.022.11.084.14.186v.73c0 .156-.036.256-.11.292-.07.042-.18.063-.322.063h-1.32zm27.227 6.257c0 .393-.034.728-.1 1.006-.063.27-.27.535-.607.79-.29.202-.745.39-1.366.56-.622.17-1.364.26-2.228.26-.88 0-1.595-.083-2.144-.25-.552-.165-.98-.392-1.295-.68-.313-.282-.53-.622-.64-1.01-.112-.39-.167-.803-.167-1.234v-6.634c0-.18.045-.287.137-.315.093-.035.193-.052.3-.052h2.216c.13 0 .246.02.346.057.095.04.146.156.146.343v6.422c0 .11.007.247.022.398.01.153.06.29.137.415.078.13.194.236.353.323.155.09.377.138.67.138.26 0 .467-.037.617-.115.15-.074.26-.17.324-.283.067-.114.105-.234.117-.37.014-.134.02-.255.02-.373v-6.53c0-.14.026-.246.07-.314.044-.068.154-.106.325-.106h2.296c.133 0 .238.02.325.057.086.04.13.15.13.326v7.173zm10.234.372c-.015.295-.053.56-.11.798-.058.236-.237.456-.54.66-.13.09-.313.184-.55.28-.236.094-.506.18-.816.258-.308.078-.638.137-1 .186-.36.04-.728.065-1.11.065-.838 0-1.562-.116-2.172-.35-.608-.235-1.108-.568-1.5-.998-.39-.423-.686-.937-.873-1.53-.19-.597-.288-1.248-.288-1.953 0-.71.097-1.38.288-2.02.188-.64.47-1.21.833-1.704.365-.496.82-.89 1.357-1.18.536-.293 1.145-.44 1.823-.44.42 0 .75.052.985.138.238.093.425.18.568.257v-4.67c0-.232.053-.377.15-.432.095-.056.22-.082.362-.082h2.06c.186.01.317.035.402.07.085.027.13.147.13.35v12.3zm-3.106-6.044c-.104-.057-.218-.11-.342-.16-.127-.047-.28-.072-.46-.072-.33 0-.612.093-.855.273-.24.178-.442.424-.6.73-.157.306-.27.662-.34 1.06-.07.4-.11.805-.11 1.227 0 .425.04.83.11 1.23.07.398.183.75.34 1.05.157.3.355.54.59.725.237.178.51.27.825.27.212 0 .37-.035.48-.107.115-.077.195-.16.247-.274.052-.107.086-.223.1-.35.014-.128.018-.235.018-.333V84.21zm9.782 2.4c.198.087.423.202.68.342.25.143.494.326.724.546.23.22.427.495.592.813.162.323.246.71.246 1.164 0 .323-.06.66-.168 1.017-.113.357-.308.684-.59.977-.28.295-.66.543-1.14.74-.478.194-1.082.294-1.817.294-.706 0-1.31-.084-1.808-.254-.496-.172-.896-.384-1.196-.64-.306-.253-.523-.525-.66-.812-.138-.287-.204-.553-.204-.786 0-.354.11-.665.332-.923.223-.26.527-.392.904-.392.146 0 .322.036.53.115.207.08.428.27.65.572.02.05.093.154.213.312.114.157.19.263.214.313.064.106.185.238.356.403.166.165.388.246.647.246.223 0 .43-.08.616-.24.192-.16.29-.38.29-.665 0-.368-.137-.648-.405-.83-.27-.185-.653-.393-1.146-.625l-.85-.387c-.166-.074-.38-.18-.626-.314-.246-.137-.486-.307-.715-.518-.227-.207-.422-.473-.58-.785-.16-.31-.236-.687-.236-1.13 0-.16.035-.4.102-.72.063-.317.22-.636.47-.947.25-.314.62-.586 1.112-.82.488-.232 1.153-.35 1.99-.35.63 0 1.156.072 1.593.216.43.147.783.324 1.05.544.27.215.46.454.58.71.115.267.18.508.18.73 0 .302-.098.574-.29.818-.186.24-.475.36-.853.36s-.65-.098-.822-.293c-.17-.2-.328-.414-.472-.65-.105-.186-.24-.374-.402-.57-.164-.197-.39-.297-.676-.297-.306 0-.524.1-.66.288-.137.193-.205.39-.205.604 0 .193.04.366.126.504.086.142.197.267.334.373.136.1.286.195.45.275.164.08.324.15.48.21l1.06.463zM86.823 86.55c-.445-.636-1.12-1.074-2.023-1.317-.062-.028-.132-.044-.208-.058-.072-.012-.142-.027-.206-.04.17-.064.314-.127.436-.188.55-.257 1.027-.622 1.44-1.102.413-.477.617-1.085.617-1.827 0-.66-.15-1.205-.45-1.635-.3-.426-.664-.768-1.08-1.022-.524-.305-1.14-.5-1.84-.59-.7-.09-1.46-.137-2.284-.137-.764 0-1.44.034-2.034.097-.598.063-1.007.137-1.23.213-.168.064-.286.147-.352.244-.063.105-.098.266-.098.48v4.806H74.81c-.435 0-.786.358-.786.8 0 .446.352.803.786.803h6.59c.38 0 .7.034.963.1.023.005.04.013.06.018.232.06.435.13.59.217.173.1.308.193.41.295.032.032.042.055.07.08l.005-.004c.066.07.124.144.16.21.148.217.246.445.31.694.057.245.082.485.082.726 0 .253-.046.54-.146.86-.095.324-.317.595-.654.81-.266.15-.533.245-.81.28-.27.042-.505.062-.686.062-.25 0-.542-.02-.885-.062v-2.945h-3.36v3.953c.015.27.044.47.088.598.044.125.194.224.44.286.144.04.35.073.612.106.26.03.545.056.846.077.3.02.614.032.94.044.325.016.63.02.903.02.993 0 1.783-.04 2.366-.13.58-.09 1.077-.228 1.483-.408.693-.294 1.25-.72 1.665-1.27.422-.553.63-1.222.63-2.02.002-.778-.22-1.488-.663-2.124zm-5.953-5.935c.236-.034.48-.056.73-.056.234 0 .488.024.753.084.27.055.516.188.74.403.336.35.506.82.506 1.41 0 .526-.11.93-.336 1.21-.222.278-.484.48-.793.6-.307.12-.614.185-.914.19-.3.006-.53.003-.688-.01v-3.833z" fill="#046799"/></svg>