<?xml version="1.0" encoding="utf-8"?>
<!-- Generator: Adobe Illustrator 18.1.1, SVG Export Plug-In . SVG Version: 6.00 Build 0)  -->
<svg version="1.1" id="Layer_2" xmlns="http://www.w3.org/2000/svg" xmlns:xlink="http://www.w3.org/1999/xlink" x="0px" y="0px"
	 viewBox="0 0 140 105" enable-background="new 0 0 140 105" xml:space="preserve">
<linearGradient id="SVGID_1_" gradientUnits="userSpaceOnUse" x1="33.3483" y1="52.5" x2="106.6517" y2="52.5">
	<stop  offset="0" style="stop-color:#FAAF40"/>
	<stop  offset="1" style="stop-color:#EE4036"/>
</linearGradient>
<path fill="url(#SVGID_1_)" d="M70,15.3c-20.2,0-36.7,16.7-36.7,37.2S49.8,89.7,70,89.7c20.2,0,36.7-16.7,36.7-37.2
	S90.2,15.3,70,15.3z M74,66.8c0,0-7.6-0.6-11.3,1.1c-2.7,1.1-4.2,2.9-4.2,2.9s0-5.3,0-8.8c0-3.5,0.3-9.7,12.3-9.7
	C87.8,52.1,83.5,67.1,74,66.8z M74,49.3c0,0-7.6-0.6-11.3,1.1c-2.7,1.1-4.2,2.9-4.2,2.9s0-5.3,0-8.8c0-3.5,0.3-9.7,12.3-9.7
	C87.8,34.6,83.5,49.7,74,49.3z"/>
</svg>
