<?xml version="1.0" encoding="utf-8"?>
<!-- Generator: Adobe Illustrator 18.1.1, SVG Export Plug-In . SVG Version: 6.00 Build 0)  -->
<svg version="1.1" id="Layer_1" xmlns="http://www.w3.org/2000/svg" xmlns:xlink="http://www.w3.org/1999/xlink" x="0px" y="0px"
	 viewBox="0 0 140 105" enable-background="new 0 0 140 105" xml:space="preserve">
<g>
	<g>
		<g>
			<path fill="#237F71" d="M46.9,44.1c2.1,0,3.7,0.5,4.8,1.6c1.1,1,1.7,2.4,1.7,4.1c0,1.7-0.6,3.1-1.7,4.1c-1.1,1-2.8,1.6-4.8,1.6
				h-4.1v5.6l2.2,0.4v1.6h-7v-1.6l2.2-0.4v-15L38,45.8v-1.7h2.2H46.9z M42.8,53.5h4.1c1.3,0,2.3-0.3,2.9-1c0.7-0.7,1-1.6,1-2.6
				c0-1.1-0.3-1.9-1-2.6c-0.7-0.7-1.6-1.1-2.9-1.1h-4.1V53.5z"/>
		</g>
		<g>
			<path fill="#237F71" d="M64.8,63.1c-0.1-0.4-0.1-0.7-0.2-1c0-0.3-0.1-0.6-0.1-0.9c-0.5,0.6-1.1,1.2-1.9,1.6
				c-0.8,0.4-1.6,0.6-2.4,0.6c-1.5,0-2.6-0.4-3.4-1.1c-0.8-0.7-1.2-1.7-1.2-3c0-1.3,0.6-2.4,1.7-3.1c1.1-0.7,2.6-1.1,4.5-1.1h2.7
				v-1.6c0-0.8-0.3-1.5-0.8-2c-0.5-0.5-1.3-0.7-2.2-0.7c-0.7,0-1.2,0.1-1.7,0.2c-0.5,0.2-0.9,0.4-1.2,0.7l-0.3,1.5h-2v-2.7
				c0.7-0.5,1.5-0.9,2.4-1.2c0.9-0.3,1.9-0.5,3-0.5c1.6,0,3,0.4,4,1.2c1,0.8,1.5,2,1.5,3.5v6.8c0,0.2,0,0.4,0,0.5c0,0.2,0,0.3,0,0.5
				l1.1,0.1v1.6H64.8z M60.5,61.3c0.9,0,1.7-0.2,2.4-0.6c0.7-0.4,1.2-0.9,1.5-1.5v-2.3h-2.8c-1.1,0-1.9,0.2-2.5,0.7
				c-0.6,0.5-0.9,1.1-0.9,1.8c0,0.6,0.2,1.1,0.6,1.4C59.2,61.1,59.7,61.3,60.5,61.3z"/>
		</g>
		<g>
			<path fill="#237F71" d="M70.4,50.7V49h4.5l0.3,2c0.4-0.7,0.9-1.3,1.5-1.7c0.6-0.4,1.3-0.6,2.1-0.6c0.2,0,0.4,0,0.6,0
				c0.2,0,0.4,0.1,0.5,0.1l-0.3,2.4L78,51.2c-0.7,0-1.3,0.2-1.7,0.5c-0.5,0.3-0.8,0.8-1.1,1.3v8.1l2.2,0.4v1.6h-7v-1.6l2.2-0.4V51
				L70.4,50.7z"/>
		</g>
		<g>
			<path fill="#237F71" d="M91,63.1c-0.1-0.4-0.1-0.7-0.2-1c0-0.3-0.1-0.6-0.1-0.9c-0.5,0.6-1.1,1.2-1.9,1.6
				c-0.8,0.4-1.6,0.6-2.4,0.6c-1.5,0-2.6-0.4-3.4-1.1c-0.8-0.7-1.2-1.7-1.2-3c0-1.3,0.6-2.4,1.7-3.1c1.1-0.7,2.6-1.1,4.5-1.1h2.7
				v-1.6c0-0.8-0.3-1.5-0.8-2c-0.5-0.5-1.3-0.7-2.2-0.7c-0.7,0-1.2,0.1-1.7,0.2c-0.5,0.2-0.9,0.4-1.2,0.7l-0.3,1.5h-2v-2.7
				c0.7-0.5,1.5-0.9,2.4-1.2c0.9-0.3,1.9-0.5,3-0.5c1.6,0,3,0.4,4,1.2c1,0.8,1.5,2,1.5,3.5v6.8c0,0.2,0,0.4,0,0.5c0,0.2,0,0.3,0,0.5
				l1.1,0.1v1.6H91z M86.8,61.3c0.9,0,1.7-0.2,2.4-0.6c0.7-0.4,1.2-0.9,1.5-1.5v-2.3h-2.8c-1.1,0-1.9,0.2-2.5,0.7
				c-0.6,0.5-0.9,1.1-0.9,1.8c0,0.6,0.2,1.1,0.6,1.4C85.4,61.1,86,61.3,86.8,61.3z"/>
		</g>
		<g>
			<path fill="#237F71" d="M96.3,66.9l2.2-0.4V51l-2.2-0.4V49h4.4l0.2,1.7c0.5-0.6,1.1-1.1,1.7-1.5c0.7-0.3,1.5-0.5,2.4-0.5
				c1.8,0,3.2,0.7,4.2,2.1c1,1.4,1.5,3.2,1.5,5.5v0.3c0,2-0.5,3.7-1.5,4.9c-1,1.2-2.4,1.9-4.1,1.9c-0.9,0-1.7-0.1-2.3-0.4
				c-0.7-0.3-1.2-0.7-1.7-1.3v4.9l2.2,0.4v1.7h-7V66.9z M108.1,56.3c0-1.6-0.3-2.9-1-4c-0.6-1-1.6-1.5-2.8-1.5
				c-0.7,0-1.4,0.2-1.9,0.5c-0.5,0.3-1,0.8-1.3,1.4v6.9c0.3,0.6,0.8,1,1.3,1.4c0.5,0.3,1.2,0.5,1.9,0.5c1.2,0,2.2-0.4,2.8-1.3
				c0.6-0.9,1-2,1-3.5V56.3z"/>
		</g>
		<g>
			<path fill="#575757" d="M113.1,61.5l2.2-0.4V51l-2.2-0.4V49h4.8v12.1l2.2,0.4v1.6h-7V61.5z M117.9,45.4h-2.6v-2.6h2.6V45.4z"/>
		</g>
		<g>
			<path fill="#575757" d="M126.7,45.6V49h2.7v1.9h-2.7v8.6c0,0.7,0.1,1.1,0.4,1.4c0.3,0.3,0.6,0.4,1.1,0.4c0.2,0,0.5,0,0.8-0.1
				c0.3,0,0.5-0.1,0.7-0.1l0.4,1.8c-0.2,0.2-0.6,0.3-1.1,0.4c-0.5,0.1-1,0.2-1.4,0.2c-1.1,0-1.9-0.3-2.5-0.9c-0.6-0.6-0.9-1.6-0.9-3
				v-8.6h-2.3V49h2.3v-3.4H126.7z"/>
		</g>
	</g>
	<g>
		<g>
			<g>
				<defs>
					<path id="SVGID_1_" d="M10.5,42.3h4.6v4.4h4.6v-4.4h4.6v4.4H29v-4.4h4.6v4.4L29,52.1v12.6c-4.5-1.7-9.1-1.6-13.8,0V52.1
						l-4.6-5.4V42.3z"/>
				</defs>
				<clipPath id="SVGID_2_">
					<use xlink:href="#SVGID_1_"  overflow="visible"/>
				</clipPath>
				<rect x="10" y="42" clip-path="url(#SVGID_2_)" fill="#FFFFFF" width="12" height="23"/>
				<rect x="22" y="42.4" clip-path="url(#SVGID_2_)" fill="#FFFFFF" width="0" height="22.4"/>
				<rect x="22" y="42.4" clip-path="url(#SVGID_2_)" fill="#FAFDFC" width="0" height="22.4"/>
				<rect x="22" y="42.4" clip-path="url(#SVGID_2_)" fill="#F7FBF8" width="0" height="22.4"/>
				<rect x="22" y="42.4" clip-path="url(#SVGID_2_)" fill="#F2F9F5" width="0" height="22.4"/>
				<rect x="22" y="42.4" clip-path="url(#SVGID_2_)" fill="#F0F8F2" width="0" height="22.4"/>
				<rect x="22" y="42.4" clip-path="url(#SVGID_2_)" fill="#EDF6F0" width="0" height="22.4"/>
				<rect x="22" y="42.4" clip-path="url(#SVGID_2_)" fill="#E9F5EE" width="0" height="22.4"/>
				<rect x="22" y="42.4" clip-path="url(#SVGID_2_)" fill="#E7F4EC" width="0" height="22.4"/>
				<rect x="22" y="42.4" clip-path="url(#SVGID_2_)" fill="#E4F2EA" width="0" height="22.4"/>
				<rect x="22" y="42.4" clip-path="url(#SVGID_2_)" fill="#E2F2E9" width="0" height="22.4"/>
				<rect x="22" y="42.4" clip-path="url(#SVGID_2_)" fill="#E1F1E7" width="0" height="22.4"/>
				<rect x="22" y="42" clip-path="url(#SVGID_2_)" fill="#DEF0E6" width="0" height="23"/>
				<rect x="22" y="42.4" clip-path="url(#SVGID_2_)" fill="#DDEFE4" width="0" height="22.4"/>
				<rect x="22" y="42.4" clip-path="url(#SVGID_2_)" fill="#DCEFE4" width="0" height="22.4"/>
				<rect x="22" y="42.4" clip-path="url(#SVGID_2_)" fill="#DAEEE3" width="0" height="22.4"/>
				<rect x="22" y="42.4" clip-path="url(#SVGID_2_)" fill="#D9EEE2" width="0" height="22.4"/>
				<rect x="22" y="42.4" clip-path="url(#SVGID_2_)" fill="#D8EDE1" width="0" height="22.4"/>
				<rect x="22" y="42.4" clip-path="url(#SVGID_2_)" fill="#D8EDE0" width="0" height="22.4"/>
				<rect x="22" y="42.4" clip-path="url(#SVGID_2_)" fill="#D7ECE0" width="0" height="22.4"/>
				<rect x="22" y="42.4" clip-path="url(#SVGID_2_)" fill="#D6ECDF" width="0" height="22.4"/>
				<rect x="22" y="42.4" clip-path="url(#SVGID_2_)" fill="#D6ECDF" width="0" height="22.4"/>
				<rect x="22" y="42.4" clip-path="url(#SVGID_2_)" fill="#D5ECDE" width="0" height="22.4"/>
				<rect x="22" y="42.4" clip-path="url(#SVGID_2_)" fill="#D5ECDE" width="0" height="22.4"/>
				<rect x="22" y="42.4" clip-path="url(#SVGID_2_)" fill="#D4EBDE" width="0" height="22.4"/>
				<rect x="22" y="42.4" clip-path="url(#SVGID_2_)" fill="#D4EBDE" width="0" height="22.4"/>
				<rect x="22" y="42.4" clip-path="url(#SVGID_2_)" fill="#D4EBDE" width="0" height="22.4"/>
				<rect x="22" y="42.4" clip-path="url(#SVGID_2_)" fill="#D4EBDD" width="0" height="22.4"/>
				<rect x="22" y="42.4" clip-path="url(#SVGID_2_)" fill="#D4EBDD" width="0" height="22.4"/>
				<rect x="22" y="42.4" clip-path="url(#SVGID_2_)" fill="#D3EBDD" width="0" height="22.4"/>
				<rect x="22" y="42.4" clip-path="url(#SVGID_2_)" fill="#D3EBDD" width="0" height="22.4"/>
				<rect x="22" y="42.4" clip-path="url(#SVGID_2_)" fill="#D3EBDD" width="0" height="22.4"/>
				<rect x="22" y="42.4" clip-path="url(#SVGID_2_)" fill="#D3EBDD" width="0" height="22.4"/>
				<rect x="22" y="42.4" clip-path="url(#SVGID_2_)" fill="#D3EBDD" width="0" height="22.4"/>
				<rect x="22" y="42.4" clip-path="url(#SVGID_2_)" fill="#D3EBDD" width="0" height="22.4"/>
				<rect x="22" y="42.4" clip-path="url(#SVGID_2_)" fill="#D3EBDD" width="0" height="22.4"/>
				<rect x="22" y="42.4" clip-path="url(#SVGID_2_)" fill="#D3EBDD" width="0" height="22.4"/>
				<rect x="22" y="42.4" clip-path="url(#SVGID_2_)" fill="#D3EBDD" width="0" height="22.4"/>
				<rect x="22" y="42.4" clip-path="url(#SVGID_2_)" fill="#D3EBDD" width="0" height="22.4"/>
				<rect x="22" y="42.4" clip-path="url(#SVGID_2_)" fill="#D3EBDD" width="0" height="22.4"/>
				<rect x="22" y="42.4" clip-path="url(#SVGID_2_)" fill="#D3EBDD" width="0" height="22.4"/>
				<rect x="22" y="42.4" clip-path="url(#SVGID_2_)" fill="#D3EBDD" width="0" height="22.4"/>
				<rect x="22" y="42.4" clip-path="url(#SVGID_2_)" fill="#D3EBDD" width="0" height="22.4"/>
				<rect x="22" y="42.4" clip-path="url(#SVGID_2_)" fill="#D3EBDD" width="0" height="22.4"/>
				<rect x="22" y="42.4" clip-path="url(#SVGID_2_)" fill="#D3EBDD" width="0" height="22.4"/>
				<rect x="22" y="42.4" clip-path="url(#SVGID_2_)" fill="#D3EBDD" width="0" height="22.4"/>
				<rect x="22" y="42.4" clip-path="url(#SVGID_2_)" fill="#D3EBDD" width="0" height="22.4"/>
				<rect x="22" y="42.4" clip-path="url(#SVGID_2_)" fill="#D3EBDD" width="0" height="22.4"/>
				<rect x="22" y="42" clip-path="url(#SVGID_2_)" fill="#D3EBDD" width="11" height="23"/>
			</g>
			<path fill="#237F71" d="M29.5,65.6l-0.8-0.3c-2.1-0.8-4.3-1.2-6.5-1.2c-2.2,0-4.6,0.4-7,1.2l-0.8,0.2V52.3l-4.6-5.4v-5.2h5.8v4.4
				h3.5v-4.4h5.8v4.4h3.5v-4.4h5.8v5.2l-4.6,5.4V65.6z M11.1,46.5l4.6,5.4v12c2.2-0.7,4.5-1,6.6-1c2.1,0,4.1,0.3,6.1,1v-12l4.6-5.4
				v-3.6h-3.5v4.4h-5.8v-4.4h-3.5v4.4h-5.8v-4.4h-3.5V46.5z"/>
		</g>
		<g>
			<path fill="#FFFFFF" stroke="#237F71" stroke-miterlimit="10" d="M30.9,46.5"/>
		</g>
		<g>
			<path fill="none" stroke="#237F71" stroke-width="3" stroke-miterlimit="10" d="M17.8,39.7"/>
		</g>
		<g>
			<rect x="13.3" y="38.1" fill="#237F71" width="1" height="4.2"/>
		</g>
		<g>
			<polygon fill="#D3EBDD" points="18.3,39.3 13.8,40.5 13.8,38.1 			"/>
			<path fill="#237F71" d="M13.3,41.1v-3.6l7,1.8L13.3,41.1z M14.3,38.7v1.1l2.1-0.5L14.3,38.7z"/>
		</g>
		<g>
			<path fill="none" stroke="#237F71" stroke-miterlimit="10" d="M22,42.5"/>
		</g>
		<g id="XMLID_22_">
			<line fill="#6BAB43" x1="22" y1="42.5" x2="22" y2="42.5"/>
			<path fill="#237F71" d="M22,42.5"/>
		</g>
	</g>
</g>
</svg>
