<?xml version="1.0" encoding="utf-8"?>
<!-- Generator: Adobe Illustrator 18.1.1, SVG Export Plug-In . SVG Version: 6.00 Build 0)  -->
<svg version="1.1" id="Layer_1" xmlns="http://www.w3.org/2000/svg" xmlns:xlink="http://www.w3.org/1999/xlink" x="0px" y="0px"
	 viewBox="0 0 140 105" enable-background="new 0 0 140 105" xml:space="preserve">
<g>
	<g>
		<path fill="#2B2B2B" d="M14.3,56.2h0.2c1,0,1.4-0.8,1.4-1.9h2.9v0.1c0,3.1-1.5,4.3-4.5,4.3c-3.2,0-4.7-1.8-4.7-5.9v-0.6
			c0-4.2,1.4-5.9,4.7-5.9c3,0,4.5,1.1,4.5,4.3v0.6h-2.9c0-1.4-0.2-2.3-1.4-2.3h-0.2c-1.5,0-1.7,1.3-1.7,3.4v0.6
			C12.7,54.9,12.9,56.2,14.3,56.2z"/>
		<path fill="#2B2B2B" d="M23.1,58.5h-2.9V46.4h4.2c2,0,4.3,0.5,4.3,3.8v0.3c0,2-0.8,2.9-1.9,3.4l1.9,4.5h-3.2l-1.6-4.1h-0.8V58.5z
			 M24.4,51.8c0.6,0,1.3-0.2,1.3-1.4v-0.1c0-1.1-0.7-1.4-1.3-1.4h-1.3v2.8H24.4z"/>
		<path fill="#2B2B2B" d="M29.6,52.8v-0.6c0-4.2,1.5-5.9,4.8-5.9c3.2,0,4.8,1.8,4.8,5.9v0.6c0,4.2-1.5,5.9-4.8,5.9
			C31.1,58.7,29.6,56.9,29.6,52.8z M34.4,56.2c1.4,0,1.7-1.3,1.7-3.4v-0.6c0-2.1-0.3-3.4-1.7-3.4h-0.2c-1.4,0-1.7,1.3-1.7,3.4v0.6
			c0,2.1,0.3,3.4,1.7,3.4H34.4z"/>
		<path fill="#2B2B2B" d="M40.1,50.1v-0.2c0-2.2,1.5-3.7,4.4-3.7c3,0,4.4,1.3,4.4,4.2v0.3H46c0-1.4-0.4-2-1.5-2h-0.2
			c-0.9,0-1.3,0.5-1.3,1.1v0.1c0,0.7,0.2,1.1,1.9,1.3c2.6,0.4,4,1.2,4,3.6V55c0,2.4-1.5,3.7-4.5,3.7c-2.9,0-4.5-1.2-4.5-4.3v-0.1H43
			c0,1.3,0.5,1.9,1.5,1.9h0.2c1,0,1.4-0.5,1.4-1.1V55c0-0.7-0.3-1.1-1.9-1.3C41.5,53.3,40.1,52.5,40.1,50.1z"/>
		<path fill="#2B2B2B" d="M50,50.1v-0.2c0-2.2,1.5-3.7,4.4-3.7c3,0,4.4,1.3,4.4,4.2v0.3h-2.9c0-1.4-0.4-2-1.5-2h-0.2
			c-0.9,0-1.3,0.5-1.3,1.1v0.1c0,0.7,0.2,1.1,1.9,1.3c2.6,0.4,4,1.2,4,3.6V55c0,2.4-1.5,3.7-4.5,3.7c-2.9,0-4.5-1.2-4.5-4.3v-0.1
			h2.9c0,1.3,0.5,1.9,1.5,1.9h0.2c1,0,1.4-0.5,1.4-1.1V55c0-0.7-0.3-1.1-1.9-1.3C51.4,53.3,50,52.5,50,50.1z"/>
		<path fill="#2B2B2B" d="M80.1,56.2h0.2c1,0,1.4-0.8,1.4-1.9h2.9v0.1c0,3.1-1.5,4.3-4.5,4.3c-3.2,0-4.7-1.8-4.7-5.9v-0.6
			c0-4.2,1.4-5.9,4.7-5.9c3,0,4.5,1.1,4.5,4.3v0.6h-2.9c0-1.4-0.2-2.3-1.4-2.3h-0.2c-1.5,0-1.7,1.3-1.7,3.4v0.6
			C78.4,54.9,78.6,56.2,80.1,56.2z"/>
		<path fill="#2B2B2B" d="M88.8,58.5h-2.9V46.4H90c2,0,4.3,0.5,4.3,3.8v0.3c0,2-0.8,2.9-1.9,3.4l1.9,4.5h-3.2l-1.6-4.1h-0.8V58.5z
			 M90.1,51.8c0.6,0,1.3-0.2,1.3-1.4v-0.1c0-1.1-0.7-1.4-1.3-1.4h-1.3v2.8H90.1z"/>
		<path fill="#2B2B2B" d="M103.3,46.4V49h-4.6v2.1h3.9v2.5h-3.9V56h4.6v2.5h-7.6V46.4H103.3z"/>
		<path fill="#2B2B2B" d="M110.9,46.4l2.9,12.1h-3.1l-0.5-2.4h-2.5l-0.5,2.4H104l2.9-12.1H110.9z M108.2,53.5h1.5l-0.7-3.7
			L108.2,53.5z"/>
		<path fill="#2B2B2B" d="M119,58.5h-2.9V49h-2.7v-2.5h8.4V49H119V58.5z"/>
		<path fill="#2B2B2B" d="M130.3,46.4V49h-4.6v2.1h3.9v2.5h-3.9V56h4.6v2.5h-7.6V46.4H130.3z"/>
	</g>
	<g>
		<g>
			<path fill="#2B2B2B" d="M63.5,45.8c-2.4,1.3-4,3.8-4,6.7c0,1.6,0.5,3.1,1.4,4.4L63.5,45.8z"/>
		</g>
		<g>
			<path fill="#2B2B2B" d="M70.9,45.9c-1.1-0.6-2.4-1-3.8-1c-0.1,0-0.2,0-0.4,0l-3.4,14.2c1.1,0.6,2.4,1,3.8,1c0.1,0,0.3,0,0.4,0
				L70.9,45.9z"/>
		</g>
		<g>
			<path fill="#2B2B2B" d="M73.4,48.2l-2.6,11c2.4-1.3,4-3.8,4-6.7C74.7,50.9,74.2,49.4,73.4,48.2z"/>
		</g>
	</g>
</g>
</svg>
