<?xml version="1.0" encoding="utf-8"?>
<!-- Generator: Adobe Illustrator 18.1.1, SVG Export Plug-In . SVG Version: 6.00 Build 0)  -->
<svg version="1.1" id="Layer_1" xmlns="http://www.w3.org/2000/svg" xmlns:xlink="http://www.w3.org/1999/xlink" x="0px" y="0px"
	 viewBox="0 0 140 105" enable-background="new 0 0 140 105" xml:space="preserve">
<g id="Final-Final">
	<g id="AppKickoff_1_" transform="translate(-123.000000, -106.000000)">
		<g id="App-Kickoff-Full" transform="translate(123.000000, 106.000000)">
			<g id="Group" transform="translate(47.000000, 0.000000)">
				<g id="Group-2">
					<path id="Polygon-1" fill="#4B81C3" d="M25.6,55h18.1L22.9,22.2L2.2,55h18v-7.5h-4.9l7.5-11.9l7.5,11.9h-4.7V55z"/>
				</g>
			</g>
			<path id="AppKickoff" fill="#010101" d="M29.3,78.2h2.1l-6.1-15H23l-6,15h2.1l1.3-3.3H28L29.3,78.2z M24.2,64.8l3.2,8.4h-6.5
				L24.2,64.8z M34.4,82.3v-5.8c0.9,1.2,2.2,1.9,3.7,1.9c2.9,0,4.8-2.2,4.8-5.7c0-3.5-2-5.7-4.8-5.7c-1.5,0-2.9,0.8-3.7,1.9v-1.6
				h-1.7v15H34.4z M41.1,72.7c0,2.4-1.3,4.2-3.5,4.2c-1.3,0-2.7-0.8-3.2-1.8v-4.9c0.6-0.9,1.9-1.7,3.2-1.7
				C39.8,68.5,41.1,70.3,41.1,72.7L41.1,72.7z M46.7,82.3v-5.8c0.9,1.2,2.2,1.9,3.7,1.9c2.9,0,4.8-2.2,4.8-5.7c0-3.5-2-5.7-4.8-5.7
				c-1.5,0-2.9,0.8-3.7,1.9v-1.6H45v15H46.7z M53.5,72.7c0,2.4-1.3,4.2-3.5,4.2c-1.3,0-2.7-0.8-3.2-1.8v-4.9
				c0.6-0.9,1.9-1.7,3.2-1.7C52.2,68.5,53.5,70.3,53.5,72.7L53.5,72.7z M66.1,78.2H70l-6.4-8l6-7.1h-3.9l-5.3,6.7v-6.7h-3.2v15h3.2
				v-4.6l1.2-1.4L66.1,78.2z M72.2,65.9c0.9,0,1.7-0.8,1.7-1.7c0-0.9-0.8-1.7-1.7-1.7c-0.9,0-1.7,0.8-1.7,1.7
				C70.5,65.1,71.3,65.9,72.2,65.9L72.2,65.9z M70.8,78.2h2.9V67.3h-2.9V78.2z M75.2,72.7c0,3.4,2.4,5.7,5.8,5.7c2.2,0,3.6-1,4.3-2
				l-1.9-1.7c-0.5,0.7-1.3,1.2-2.3,1.2c-1.7,0-3-1.3-3-3.2s1.2-3.2,3-3.2c1,0,1.8,0.4,2.3,1.2l1.9-1.8c-0.7-1-2.1-2-4.3-2
				C77.6,67,75.2,69.4,75.2,72.7L75.2,72.7z M93.6,78.2h3.6l-4.4-6l4.3-4.9h-3.5l-4.1,4.8v-9h-2.9v15h2.9v-2.8l1.3-1.4L93.6,78.2z
				 M102.6,78.4c3.6,0,5.8-2.6,5.8-5.7c0-3.1-2.2-5.7-5.8-5.7c-3.6,0-5.7,2.6-5.7,5.7C96.8,75.8,99,78.4,102.6,78.4L102.6,78.4z
				 M102.6,75.9c-1.8,0-2.8-1.5-2.8-3.2c0-1.7,1-3.2,2.8-3.2s2.8,1.5,2.8,3.2C105.4,74.4,104.4,75.9,102.6,75.9L102.6,75.9z
				 M110.5,78.2h2.9v-8.4h2.2v-2.5h-2.2v-0.5c0-1,0.5-1.6,1.4-1.6c0.3,0,0.7,0.1,0.9,0.2l0.6-2c-0.5-0.3-1.3-0.5-2.1-0.5
				c-2.1,0-3.7,1.4-3.7,3.8v0.6h-1.8v2.5h1.8V78.2z M117.3,78.2h2.9v-8.4h2.2v-2.5h-2.2v-0.5c0-1,0.5-1.6,1.4-1.6
				c0.3,0,0.7,0.1,0.9,0.2l0.6-2c-0.5-0.3-1.3-0.5-2.1-0.5c-2.1,0-3.7,1.4-3.7,3.8v0.6h-1.8v2.5h1.8V78.2z"/>
		</g>
	</g>
</g>
</svg>
