<?xml version="1.0" encoding="utf-8"?>
<!-- Generator: Adobe Illustrator 18.1.1, SVG Export Plug-In . SVG Version: 6.00 Build 0)  -->
<svg version="1.1" id="Layer_1" xmlns="http://www.w3.org/2000/svg" xmlns:xlink="http://www.w3.org/1999/xlink" x="0px" y="0px"
	 viewBox="0 0 140 105" enable-background="new 0 0 140 105" xml:space="preserve">
<g>
	<g>
		<path fill="#3086C7" d="M18.9,47.5h-3.2c-1.4,0.1-2-0.4-2-1.5v-5.2c0.1-0.9,0.7-1.3,2-1.3h3.2v1.4h-3.3v2h2.7v1.4h-2.7v2h3.3V47.5
			z"/>
		<path fill="#3086C7" d="M27.6,47.5h-1.9L25,45.7H22l-0.7,1.8h-1.9l2.8-7.2c0.1-0.3,0.3-0.5,0.5-0.6c0.2-0.2,0.5-0.2,0.7-0.2
			c0.3,0,0.5,0.1,0.7,0.2c0.2,0.2,0.4,0.4,0.5,0.6L27.6,47.5z M24.4,44.4L23.5,42l-0.9,2.4H24.4z"/>
		<path fill="#3086C7" d="M30.7,39.5H31c0,0,0.1,0,0.2,0H34c0,0,0,0.1,0,0.1v1.7l0,0l-3.2,0c-0.1,0-0.2,0-0.3,0l-0.1,0l-0.1,0
			c0,0,0,0,0,0c-0.2,0-0.3,0.1-0.4,0.3c0,0.1,0,0.2,0,0.3c0,0,0.1,0.1,0.1,0.1l0.1,0l0.1,0l0.1,0.1l0,0l0.5,0.1l0,0l0,0l0.1,0
			c0,0,0,0,0,0c0,0,0,0,0,0c0,0,0.1,0,0.2,0l0,0l0,0l0.1,0c0,0,0.1,0,0.2,0l0,0l0.1,0l0,0c0.1,0,0.1,0,0.2,0.1l0,0c0,0,0,0,0,0
			l0.1,0l0.1,0l0.3,0.1l0,0l0.2,0.1c0,0,0.1,0.1,0.2,0.1l0,0l0.1,0.1l0.1,0l0.1,0.1l0,0c0,0,0.1,0.1,0.1,0.1l0,0l0,0l0.2,0.2
			c0,0,0.1,0.1,0.1,0.1c0,0,0,0,0.1,0.1c0,0,0,0.1,0.1,0.1l0,0c0,0,0.1,0.1,0.1,0.1l0,0l0,0.1c0,0,0,0.1,0.1,0.1l0.1,0.2v0
			c0.2,0.8,0.1,1.5-0.5,2.2l-0.3,0.3l0,0l0,0L33.1,47c0,0-0.1,0-0.2,0.1c0,0,0,0-0.1,0l-0.5,0.2l-0.1,0c0,0,0,0,0,0l-0.1,0l0,0
			l-0.1,0h0l0,0l0,0l-0.1,0l0,0l-0.1,0l0,0c0,0-0.1,0-0.2,0h-0.1l0,0l-3.1,0l-0.1,0v-1.8h3.5c0.3-0.1,0.5-0.2,0.6-0.5
			c0-0.2,0-0.4-0.3-0.5c0,0-0.1,0-0.2-0.1l-0.1,0l-0.1,0l0,0h0l0,0h0c0,0-0.1,0-0.1,0c0,0-0.1,0-0.2,0l0,0l-0.1,0h0L31,44.3
			c0,0-0.1,0-0.1,0c0,0-0.1,0-0.2,0l-0.1,0c0,0-0.1,0-0.1,0c0,0,0,0,0,0c0,0-0.1,0-0.1,0l-0.1,0h0c0,0-0.1,0-0.1,0l0,0l0,0l0,0
			l-0.2-0.1l0,0l-0.1,0l-0.1,0c0,0-0.1,0-0.1-0.1l-0.1,0l-0.2-0.1c0,0-0.1,0-0.1-0.1l0,0l-0.1,0l-0.1,0l0,0l-0.1,0l0,0l-0.1,0
			c0,0-0.1-0.1-0.1-0.1l-0.3-0.3l0-0.1l0,0c0,0-0.1-0.1-0.1-0.2l0,0l0,0l-0.1-0.1c-0.3-0.7-0.3-1.4,0.1-2.1
			C28.8,40,29.6,39.6,30.7,39.5z"/>
		<path fill="#3086C7" d="M36.6,47.5v-6.2h-1.8v-1.8h5.3v1.8h-1.7v6.2H36.6z"/>
		<path fill="#3086C7" d="M47.8,39.5h2.5v1.9h-2.2l-0.1,0c-0.1,0-0.1,0-0.2,0c0,0-0.1,0-0.2,0l-0.2,0.1l-0.1,0.1c0,0-0.1,0-0.1,0.1
			c0,0-0.1,0-0.1,0.1l-0.5,0.4l0,0c-0.6,0.7-0.7,1.5-0.3,2.5c0.5,0.8,1.2,1.2,2.3,1.1h1.6l0,0v1.9h-1.9c-1.1,0.1-2.1-0.4-3-1.2
			c-0.8-0.9-1.1-2-1.1-3.3c0.2-1.6,1-2.7,2.6-3.4l0.3-0.1l0.1,0h0l0.1,0c0.1,0,0.1,0,0.2,0C47.7,39.5,47.7,39.5,47.8,39.5z"/>
		<path fill="#3086C7" d="M51.2,43.6c0-0.8,0.1-1.5,0.4-2c0.2-0.4,0.5-0.8,0.8-1.1c0.3-0.3,0.7-0.6,1.1-0.7c0.5-0.2,1.2-0.3,1.9-0.3
			c1.3,0,2.3,0.4,3,1.1s1.1,1.7,1.1,3c0,1.3-0.4,2.3-1.1,3s-1.8,1.1-3,1.1c-1.3,0-2.3-0.4-3.1-1.1C51.6,45.9,51.2,44.9,51.2,43.6z
			 M53.1,43.7c0,0.8,0.2,1.5,0.6,1.9c0.4,0.4,1,0.7,1.6,0.7c0.6,0,1.2-0.2,1.6-0.6s0.6-1.1,0.6-1.9c0-0.8-0.2-1.5-0.6-1.9
			s-0.9-0.6-1.6-0.6s-1.2,0.2-1.6,0.6C53.3,42.2,53.1,42.8,53.1,43.7z"/>
		<path fill="#3086C7" d="M67.2,47.5h-1.9l-0.7-1.8h-2.9L61,47.5h-1.9l2.8-7.2c0.1-0.3,0.3-0.5,0.5-0.6c0.2-0.2,0.5-0.2,0.7-0.2
			c0.3,0,0.5,0.1,0.7,0.2c0.2,0.2,0.4,0.4,0.5,0.6L67.2,47.5z M64.1,44.4L63.2,42l-0.9,2.4H64.1z"/>
		<path fill="#3086C7" d="M70.6,39.5H71c0,0,0.1,0,0.2,0h2.8c0,0,0,0.1,0,0.1v1.7l0,0l-3.2,0c-0.1,0-0.2,0-0.3,0l-0.1,0l-0.1,0
			c0,0,0,0,0,0c-0.2,0-0.3,0.1-0.4,0.3c0,0.1,0,0.2,0,0.3c0,0,0.1,0.1,0.1,0.1l0.1,0l0.1,0l0.1,0.1l0,0l0.5,0.1l0,0l0,0l0.1,0
			c0,0,0,0,0,0s0,0,0,0c0,0,0.1,0,0.2,0l0,0l0,0l0.1,0c0,0,0.1,0,0.2,0l0,0l0.1,0l0,0c0.1,0,0.1,0,0.2,0.1l0,0c0,0,0,0,0,0l0.1,0
			l0.1,0l0.3,0.1l0,0l0.2,0.1c0,0,0.1,0.1,0.2,0.1l0,0l0.1,0.1l0.1,0l0.1,0.1l0,0c0,0,0.1,0.1,0.1,0.1l0,0l0,0l0.2,0.2
			c0,0,0.1,0.1,0.1,0.1c0,0,0,0,0.1,0.1c0,0,0,0.1,0.1,0.1l0,0c0,0,0.1,0.1,0.1,0.1l0,0l0,0.1c0,0,0,0.1,0.1,0.1l0.1,0.2v0
			c0.2,0.8,0.1,1.5-0.5,2.2l-0.3,0.3l0,0l0,0L73,47c0,0-0.1,0-0.2,0.1c0,0,0,0-0.1,0l-0.5,0.2l-0.1,0c0,0,0,0,0,0l-0.1,0l0,0l-0.1,0
			h0l0,0l0,0l-0.1,0l0,0l-0.1,0l0,0c0,0-0.1,0-0.2,0h-0.1l0,0l-3.1,0l-0.1,0v-1.8h3.5c0.3-0.1,0.5-0.2,0.6-0.5c0-0.2,0-0.4-0.3-0.5
			c0,0-0.1,0-0.2-0.1l-0.1,0l-0.1,0l0,0h0l0,0h0c0,0-0.1,0-0.1,0c0,0-0.1,0-0.2,0l0,0l-0.1,0h0l-0.2-0.1c0,0-0.1,0-0.1,0
			c0,0-0.1,0-0.2,0l-0.1,0c0,0-0.1,0-0.1,0c0,0,0,0,0,0c0,0-0.1,0-0.1,0l-0.1,0h0c0,0-0.1,0-0.1,0l0,0l0,0l0,0l-0.2-0.1l0,0l-0.1,0
			l-0.1,0c0,0-0.1,0-0.1-0.1l-0.1,0l-0.2-0.1c0,0-0.1,0-0.1-0.1l0,0l-0.1,0l-0.1,0l0,0l-0.1,0l0,0l-0.1,0c0,0-0.1-0.1-0.1-0.1
			l-0.3-0.3l0-0.1l0,0c0,0-0.1-0.1-0.1-0.2l0,0l0,0l-0.1-0.1c-0.3-0.7-0.3-1.4,0.1-2.1C68.7,40,69.5,39.6,70.6,39.5z"/>
		<path fill="#3086C7" d="M76.6,47.5v-6.2h-1.8v-1.8h5.3v1.8h-1.7v6.2H76.6z"/>
	</g>
	<g>
		<path fill="#EC2024" d="M18.5,49.4h4.8v4h-4.2l-0.3,0c-0.2,0-0.3,0-0.3,0c-0.1,0-0.2,0.1-0.3,0.1l-0.4,0.1l-0.2,0.1
			c0,0-0.1,0.1-0.2,0.1c-0.1,0-0.1,0.1-0.2,0.1l-0.9,0.8l0,0c-1.1,1.5-1.3,3.2-0.5,5.1c0.9,1.7,2.4,2.5,4.4,2.2h3l0,0v3.9h-3.8
			c-2.2,0.1-4.1-0.7-5.7-2.5c-1.5-1.8-2.2-4.1-2-6.8c0.4-3.3,2-5.6,4.9-7l0.6-0.2l0.2,0h0.1l0.3-0.1c0.1,0,0.2,0,0.4-0.1
			C18.3,49.4,18.4,49.4,18.5,49.4z"/>
		<path fill="#EC2024" d="M42.9,49.4h7.9c0.2,0,0.4,0,0.6,0l0.2,0l0.6,0.2l0.4,0.1l0.1,0.1l0.4,0.3l0,0c1,1,1.5,2.3,1.5,3.9
			c0.1,1.7-0.5,3-2,4c-0.1,0.1-0.2,0.2-0.3,0.3l-0.1,0.1c-0.1,0.3-0.2,0.6-0.2,0.9l0.2,0.6l3.6,5.9l-4.5,0L48,60.1l-0.2-0.6l0,0
			l0-0.7l0.1-0.3c0-0.2,0.1-0.3,0.3-0.5l0,0l2.9-3.1l0.1-0.2c0.1-0.2,0.1-0.4,0-0.7c-0.1-0.3-0.4-0.5-0.7-0.7h-3.7l0,12.9h-3.7l0-1
			V49.4z"/>
		<path fill="#EC2024" d="M57.4,65.9V49.4h3.7l6.8,11v-11h3.7v16.5h-3.9L61,55.1v10.8H57.4z"/>
		<path fill="#EC2024" d="M73.9,65.9V49.4h3.7V56h5.9v-6.6H87v16.5h-3.7v-6.8h-5.9v6.8H73.9z"/>
		<path fill="#EC2024" d="M116.3,65.9l-1.9,0c-1.4,0-2.5-0.2-3.3-0.5c-0.9-0.4-1.5-0.8-2-1.4c-0.5-0.6-0.9-1.3-1-2.2
			c-0.2-0.9-0.3-2.3-0.3-4.4v-8.1h3.5v8.2c0,1.4,0.1,2.4,0.2,2.9c0.1,0.6,0.4,1.1,0.9,1.5c0.5,0.4,1.3,0.6,2.3,0.6l1.8,0V65.9z"/>
		<path fill="#EC2024" d="M128.2,65.9H122c-2.7,0.2-3.9-0.9-3.9-3V52c0.1-1.9,1.4-2.7,3.9-2.7h6.2v2.8h-6.4v4h5.2V59h-5.2v4h6.4
			V65.9z"/>
	</g>
	<path fill="#3086C7" d="M27.3,26.9h9.4l2.1,11.3h2.9l-2.6-14.2H24.9l-2.6,14.2h2.9L27.3,26.9z M49,77l-1.6-8.7h-2.9l1.4,7.5H18.3
		l1.4-7.5h-2.9l-1.9,10.4h34.5L49,77z"/>
	<rect x="18.1" y="77.6" fill="#3086C7" width="4.2" height="3.4"/>
	<rect x="41.9" y="77.6" fill="#3086C7" width="4.2" height="3.4"/>
	<g>
		<path fill="#3086C7" d="M39.1,57.9c0,0-3.4-3.3-9.1-1.9C29.9,56,34.9,55.3,39.1,57.9z"/>
		<path fill="#3086C7" d="M27.3,58.1c0,0,2.8-2.3,7-0.9C34.3,57.2,30.6,56.5,27.3,58.1z"/>
	</g>
	<g>
		<g>
			<polygon fill="#EC2024" points="32,34.1 30,35.4 29.8,36.8 32,35.6 34.2,36.8 34,35.4 			"/>
			<polygon fill="#EC2024" points="32,31.7 30.3,32.9 30.1,34.4 32,33.1 33.9,34.4 33.7,32.9 			"/>
			<polygon fill="#EC2024" points="32,29.2 30.5,30.5 30.4,31.9 32,30.7 33.6,31.9 33.5,30.5 			"/>
		</g>
	</g>
	<g>
		<path fill="#3086C7" d="M89.2,57.9c0-1.7,0.3-3.1,0.8-4.2c0.4-0.8,0.9-1.6,1.6-2.3c0.7-0.7,1.4-1.2,2.2-1.5c1-0.4,2.2-0.7,3.6-0.7
			c2.5,0,4.4,0.8,5.9,2.3c1.5,1.5,2.2,3.6,2.2,6.3c0,2.7-0.7,4.7-2.2,6.2c-1.5,1.5-3.4,2.3-5.9,2.3c-2.5,0-4.5-0.7-5.9-2.2
			C90,62.6,89.2,60.6,89.2,57.9z M92.9,58c0,1.7,0.4,3,1.2,3.9c0.8,0.9,1.8,1.4,3.1,1.4c1.3,0,2.3-0.4,3.1-1.3
			c0.8-0.9,1.2-2.2,1.2-4c0-1.8-0.4-3.1-1.2-3.9c-0.8-0.9-1.8-1.3-3.1-1.3s-2.3,0.4-3.1,1.3C93.3,54.9,92.9,56.2,92.9,58z"/>
	</g>
	<g>
		<path fill="#3086C7" d="M25.8,65.7c0-1.5,0.2-2.7,0.7-3.7c0.3-0.7,0.8-1.4,1.3-2s1.2-1,1.9-1.3c0.9-0.4,1.9-0.6,3.1-0.6
			c2.1,0,3.8,0.7,5.1,2c1.3,1.3,1.9,3.1,1.9,5.5c0,2.3-0.6,4.1-1.9,5.4c-1.3,1.3-3,2-5.1,2c-2.2,0-3.9-0.6-5.1-1.9
			C26.5,69.7,25.8,67.9,25.8,65.7z M29,65.7c0,1.5,0.4,2.6,1.1,3.4c0.7,0.8,1.6,1.2,2.7,1.2c1.1,0,2-0.4,2.7-1.2s1-1.9,1-3.5
			c0-1.5-0.3-2.7-1-3.4s-1.6-1.1-2.7-1.1c-1.1,0-2,0.4-2.7,1.1C29.4,63,29,64.2,29,65.7z"/>
	</g>
</g>
<g>
</g>
<g>
</g>
<g>
</g>
<g>
</g>
<g>
</g>
<g>
</g>
<g>
</g>
<g>
</g>
<g>
</g>
<g>
</g>
<g>
</g>
<g>
</g>
<g>
</g>
<g>
</g>
<g>
</g>
</svg>
