<?xml version="1.0" encoding="utf-8"?>
<!-- Generator: Adobe Illustrator 18.1.1, SVG Export Plug-In . SVG Version: 6.00 Build 0)  -->
<svg version="1.1" id="Layer_2" xmlns="http://www.w3.org/2000/svg" xmlns:xlink="http://www.w3.org/1999/xlink" x="0px" y="0px"
	 viewBox="0 0 140 105" enable-background="new 0 0 140 105" xml:space="preserve">
<g>
	<path fill="#1C74BB" d="M87.9,75.2c7.8-1.2,15.4-3.2,22.3-7.3c2.5-1.5,4.8-3.3,6.6-5.6c1.7-2.2,2.7-4.6,2.5-7.4
		c-0.1-2.7-1.3-5-3.1-7c-2.3-2.7-5.2-4.6-8.3-6.2c-5.2-2.7-10.8-4.3-16.5-5.5c-4.9-1-9.9-1.5-15-1.6c-10.2-0.3-20.1,0.7-29.9,3.7
		c-4.6,1.4-9,3.4-12.9,6.3c-0.3,0.2-0.4,0.3-0.4,0.8c0.1,0.8,0,1.6,0,2.3c0,0.4-0.2,0.4-0.5,0.4c-1.1,0-2.1,0-3.2,0
		c-0.4,0-0.5,0.1-0.5,0.5c0,1.5,0,1.5,1.4,1.5c0.8,0,0.8,0,0.8,0.8c0,0.6,0,1.2,0,1.7c0,0.4-0.1,0.5-0.5,0.5c-0.4,0-0.8,0-1.2,0
		c-0.4,0-0.5,0.1-0.5,0.5c0,0.5,0,1,0,1.5c0,0.4,0.1,0.5,0.5,0.5c1.1,0,2.1,0,3.2,0c0.4,0,0.5,0.1,0.5,0.5c0,0.7,0,1.4,0,2
		c0,0.3-0.1,0.5-0.4,0.5c-2.2,0-4.4,0-6.7,0c-0.3,0-0.4-0.1-0.4-0.4c0-4.2,0-8.4,0-12.6c0-0.3,0.1-0.4,0.4-0.4c0.3,0,0.5,0,0.7-0.3
		c2.4-3.3,5.6-5.7,9.1-7.6c5.3-3,11-4.9,17-6.2c5.8-1.3,11.6-2,17.5-2.2c10-0.3,19.9,0.6,29.6,3.4c5.7,1.6,11.1,3.8,15.9,7.3
		c2.8,2,5.2,4.3,6.7,7.4c2.3,4.6,1.8,8.9-1.1,13.1c-2.1,3.1-5,5.3-8.1,7.2c-5.1,3.1-10.7,5.1-16.5,6.5c-2.8,0.7-5.7,1.3-8.6,1.6
		C88.3,75.3,88,75.5,87.9,75.2z"/>
	<path fill="#1C75BB" d="M42.4,50.9c-0.1-0.8-0.1-1.6-0.2-2.4c0-0.3-0.3-0.3-0.5-0.3c-0.7,0.1-0.8-0.2-0.8-0.8c0-0.6,0-1.2,0-1.8
		c0-0.3,0.1-0.4,0.4-0.4c1.3,0,2.5,0,3.8,0c0.5,0,0.4,0.3,0.4,0.6c0,3,0,6.1,0,9.1c0,1.1,0,2.2,0,3.3c0,0.3-0.1,0.5-0.4,0.5
		c0,0,0,0-0.1,0c-0.8,0-1.8,0.2-2.5-0.1c-0.7-0.3-1.1-1.2-1.6-1.9c-1.1-1.4-2.2-2.9-3.4-4.4c0,0.9,0,1.6,0,2.3
		c0,0.5-0.2,0.7-0.7,0.6c-0.7,0-1.4,0-2.2,0c-0.4,0-0.4-0.1-0.4-0.5c0-3,0-6,0-9.1c0-0.4,0.1-0.5,0.5-0.4c0,0,0.1,0,0.1,0
		c0.8,0,1.7-0.2,2.4,0.1c0.7,0.3,1.1,1.1,1.6,1.7c1,1.2,2.1,2.4,3.1,3.6C42,50.6,42.1,50.8,42.4,50.9z"/>
	<path fill="#1C75BB" d="M101,51.1c-0.1-1-0.2-1.8-0.2-2.6c0-0.4-0.3-0.4-0.6-0.3c-0.6,0.1-0.7-0.1-0.7-0.7c0-0.6,0-1.3,0-1.9
		c0-0.3,0.1-0.4,0.4-0.4c1.2,0,2.5,0,3.7,0c0.5,0,0.4,0.3,0.4,0.6c0,3.9,0,7.9,0,11.8c0,1,0,0.9-1,1c-1.5,0.2-2.5-0.3-3.3-1.6
		c-1-1.5-2.2-2.9-3.3-4.3c-0.1-0.1-0.2-0.2-0.4-0.4c0,0.9,0,1.7,0,2.5c0,0.3-0.1,0.4-0.4,0.4c-0.8,0-1.6,0-2.4,0
		c-0.3,0-0.4-0.1-0.4-0.4c0-3,0-6.1,0-9.1c0-0.3,0.1-0.4,0.4-0.4c0.7,0,1.5,0,2.2,0c0.3,0,0.5,0.2,0.7,0.4
		C97.7,47.3,99.3,49.1,101,51.1z"/>
	<path fill="#1C75BB" d="M63.3,50c0,1.3,0.1,2.8-0.1,4.4c-0.4,2.4-1.7,3.8-4.1,4.1c-1.9,0.2-3.6-0.2-4.9-1.8
		c-0.7-0.9-1.1-1.8-1.1-2.9c0-2.7,0-5.5,0-8.2c0-0.3,0.1-0.5,0.4-0.5c1.2,0,2.3,0,3.5,0c0.3,0,0.5,0.1,0.5,0.4c0,0.7,0,1.4,0,2.1
		c0,0.4-0.1,0.5-0.5,0.4c-0.4-0.1-0.5,0.1-0.5,0.5c0,1.7,0,3.3,0,5c0,1.2,0.7,2,1.7,2c0.9,0,1.6-0.7,1.6-1.7c0.1-1.8,0-3.6,0-5.4
		c0-0.4-0.2-0.4-0.5-0.4c-0.4,0.1-0.5-0.1-0.5-0.5c0-0.7,0-1.4,0-2c0-0.3,0.1-0.4,0.4-0.4c1.2,0,2.4,0,3.6,0c0.4,0,0.5,0.1,0.5,0.5
		C63.3,47,63.3,48.4,63.3,50z"/>
	<path fill="#231F20" d="M88.8,46.1c2.4,1.1,3.8,4.5,3.1,7.4c-0.9,3.3-4,5.4-7.5,5c-3.2-0.3-5.7-3-5.9-6.2c-0.2-3.1,1.8-6.1,4.7-6.7
		c0,1,0,2,0,3c0,0.2-0.1,0.4-0.3,0.5c-1.2,1.3-1.4,3.4-0.5,4.9c0.8,1.3,2.2,1.9,3.8,1.6c1.3-0.3,2.3-1.5,2.5-2.9
		c0.1-0.8,0.1-1.7-0.2-2.5c-0.1-0.2-0.2-0.4,0.2-0.4c0.3,0,0.2-0.3,0.2-0.4C88.8,48.3,88.8,47.2,88.8,46.1
		C88.8,46.2,88.8,46.1,88.8,46.1z"/>
	<path fill="#1C75BB" d="M24.8,48.9c-1.6-1.2-3.1-1.1-4.3,0c-1.2,1.1-1.5,3.3-0.7,4.8c0.2,0.4,0.5,0.7,0.8,1
		c1.4,1.2,2.5,1.1,4.2-0.3c0,0.8,0,1.5,0,2.2c0,0.3,0,0.6,0,0.9c0,0.9,0,0.9-0.8,1c-3.7,0.6-7.3-1.9-7.9-5.6
		c-0.7-3.5,1.9-7.1,5.4-7.7c1-0.2,2-0.2,2.9,0c0.3,0.1,0.4,0.2,0.4,0.5C24.7,46.8,24.8,47.8,24.8,48.9z"/>
	<path fill="#1C75BB" d="M73.6,58.5c-1.2,0-2.4,0-3.5,0c-0.2,0-0.3-0.1-0.4-0.2c-1.3-2-2.5-4.1-3.9-6.2c0.4,0,0.8,0,1.1,0
		c0.7,0,1.4-0.1,2.1-0.5c0.7-0.3,0.9-1,0.8-2c-0.1-0.8-0.7-1.4-1.3-1.5c-1.2-0.1-2.5-0.1-3.8,0c-0.5,0-0.6-0.1-0.6-0.6
		c0-0.7,0-1.4,0-2c0-0.2,0-0.4,0.3-0.4c1.7,0,3.4-0.1,5.1,0.1c2.7,0.4,3.7,2.4,3.5,4.7c-0.1,1.6-0.8,2.9-2.4,3.5
		c-0.4,0.2-0.2,0.4-0.1,0.5c0.9,1.3,1.7,2.7,2.6,4C73.4,58.2,73.4,58.3,73.6,58.5z"/>
	<path fill="#1C75BB" d="M46,51.9c0-2.1,0-4.1,0-6.2c0-0.4,0.1-0.5,0.5-0.5c1.8,0,3.5,0,5.3,0c0.4,0,0.5,0.1,0.5,0.5
		c0,0.7,0,1.4,0,2.2c0,0.3-0.1,0.4-0.4,0.4c-0.6,0-1.1,0-1.7,0c-0.5,0-0.6,0.1-0.6,0.6c0,3,0,6.1,0,9.1c0,0.5-0.1,0.7-0.7,0.7
		c-0.8-0.1-1.6,0-2.5,0c-0.4,0-0.5-0.1-0.5-0.5C46.1,56,46,53.9,46,51.9z"/>
	<path fill="#1C75BB" d="M74.5,53.9c0-1.4,0-2.7,0-4.1c0-0.5,0.1-0.6,0.6-0.6c0.8,0,1.7,0,2.5,0c0.3,0,0.4,0.1,0.4,0.4
		c0,2.8,0,5.6,0,8.4c0,0.3-0.1,0.4-0.4,0.4c-0.9,0-1.7,0-2.6,0c-0.4,0-0.5-0.1-0.5-0.5C74.5,56.7,74.5,55.3,74.5,53.9z"/>
	<path fill="#242021" d="M86,49c-0.6,0-1.1,0-1.7,0C84,49,84,48.9,84,48.6c0-1.1,0-2.2,0-3.3c0-0.3,0.1-0.4,0.3-0.4
		c1.1,0,2.2,0,3.3,0c0.3,0,0.4,0.1,0.4,0.4c0,1.1,0,2.2,0,3.3c0,0.3-0.1,0.4-0.4,0.3C87.1,48.9,86.5,49,86,49z"/>
	<path fill="#231F20" d="M90.7,44.5c-0.5-0.1-1.4,0.3-1.7-0.1c-0.3-0.4-0.1-1.2-0.1-1.8c0-0.6-0.2-1.4,0.1-1.8
		c0.4-0.4,1.2-0.1,1.8-0.1c0.5,0,1,0,1.5,0c0.3,0,0.4,0.1,0.4,0.4c0,1,0,2,0,3c0,0.3-0.1,0.4-0.4,0.4C91.8,44.5,91.3,44.5,90.7,44.5
		z"/>
	<path fill="#231F20" d="M45.7,61.6c0,0.5,0,1,0,1.5c-0.1,1-0.7,1.6-1.7,1.6c-1,0.1-1.9-0.5-2-1.5c-0.1-1.1,0-2.2-0.1-3.3
		c0-0.2,0.1-0.3,0.3-0.2c0.2,0,0.5,0,0.7,0c0.2,0,0.6-0.1,0.6,0.1c0,0.3,0.3,0.7-0.2,1c-0.3,0.1-0.1,2.5,0.2,2.7
		c0.4,0.3,0.9,0.1,1-0.3c0.2-0.7,0.2-1.5,0-2.2c-0.1-0.3-0.3-0.6-0.3-1c0-0.4,0.2-0.3,0.4-0.2c0.4,0.2,1-0.4,1.2,0.3
		C45.8,60.6,45.7,61.1,45.7,61.6C45.7,61.6,45.7,61.6,45.7,61.6z"/>
	<path fill="#1D75BC" d="M68.9,66.5c-0.3,0-0.6,0-0.9,0c-0.3,0-0.5,0.1-0.5,0.5c0,0.5,0,1.1,0,1.6c0,0.2,0,0.5,0,0.7
		c0,1.3,0,1.3,1.4,1.3c1.4,0,2.1-0.7,2.1-2C71,67.2,70.3,66.5,68.9,66.5z M69,70c-0.9,0-0.9,0-0.9-0.9c0-0.2,0-0.3,0-0.5
		c0-0.4,0-0.7,0-1.1c0-0.2,0.1-0.3,0.3-0.3c0.2,0,0.4,0,0.6,0c0.9,0,1.4,0.5,1.4,1.4C70.4,69.5,69.9,70,69,70z"/>
	<path fill="#231F20" d="M21.3,62.9c0.5-0.8,1-1.5,1.4-2.3c0.3-0.6,0.7-0.8,1.3-0.7c0.1,0,0.3,0,0.5,0c-0.5,0.7-0.9,1.4-1.3,2.1
		c-0.5,0.8-1.1,1.7-1.6,2.5c-0.1,0.2-0.2,0.3-0.5,0.3c-1.2,0-1.2,0.1-1.2-1.1c0-1.1,0-2.3,0-3.4c0-0.3,0.1-0.5,0.4-0.4
		c0.2,0,0.4,0,0.6,0c0.2,0,0.6-0.2,0.7,0.2c0,0.3,0.4,0.8-0.3,1c-0.2,0-0.1,0.2-0.1,0.3c0,0.5,0,1,0,1.5
		C21.3,62.9,21.3,62.9,21.3,62.9z"/>
	<path fill="#1C75BB" d="M78,46.9c0,0.5,0,0.9,0,1.4c0,0.3-0.1,0.4-0.4,0.4c-0.9,0-1.8,0-2.8,0c-0.3,0-0.4-0.1-0.4-0.4
		c0-0.9,0-1.8,0-2.7c0-0.3,0.1-0.4,0.4-0.4c0.9,0,1.8,0,2.7,0c0.3,0,0.4,0.1,0.4,0.4C78,46,78,46.4,78,46.9z"/>
	<path fill="#231F20" d="M51.5,61.7c-0.5,0.7-1,1.5-1.3,2.2c-0.4,0.8-0.9,1.1-1.7,0.8c-0.1-0.1,0-0.1,0.1-0.2
		c0.9-1.5,1.8-2.9,2.8-4.4c0.2-0.3,1.2-0.5,1.5-0.3c0.1,0.1,0.1,0.2,0.1,0.3c0,1.5,0,3,0,4.4c0,0.3-0.1,0.3-0.4,0.3
		c-0.9,0-0.9,0-0.9-0.8C51.6,63.3,51.6,62.5,51.5,61.7C51.5,61.8,51.5,61.7,51.5,61.7z"/>
	<path fill="#231F20" d="M81,61.7c-0.5,0.7-0.9,1.5-1.4,2.2c-0.6,0.9-0.6,0.9-1.7,0.9c-0.1-0.2,0-0.3,0.1-0.4
		c0.9-1.4,1.8-2.9,2.7-4.3c0.2-0.3,1.2-0.5,1.5-0.3c0.1,0.1,0.1,0.2,0.1,0.3c0,1.4,0,2.9,0,4.3c0,0.6-0.4,0.3-0.7,0.4
		c-0.3,0-0.6,0.1-0.6-0.4C81.2,63.5,81.1,62.7,81,61.7C81.1,61.8,81.1,61.7,81,61.7z"/>
	<path fill="#231F20" d="M73.8,59.8c0.3,0,0.5,0,0.8,0c0.5-0.1,0.6,0.1,0.6,0.6c0,0.4-0.1,0.6-0.6,0.5c-0.2,0-0.5,0-0.7,0
		c-0.3,0-0.4,0.1-0.3,0.3c0,0.3,0,0.5,0.4,0.4c0.5-0.1,0.5,0.2,0.5,0.5c0,0.4,0,0.7-0.5,0.6c-0.5-0.1-0.3,0.3-0.3,0.5
		c0,0.2-0.1,0.5,0.4,0.5c0.2,0,0.4,0,0.6,0c0.6-0.1,0.7,0.1,0.7,0.7c0,0.3-0.1,0.5-0.4,0.5c-0.7,0-1.3,0-2,0c-0.4,0-0.4-0.2-0.4-0.4
		c0-1.4,0-2.8,0-4.1c0-0.4,0.1-0.5,0.5-0.5C73.2,59.8,73.5,59.8,73.8,59.8z"/>
	<path fill="#231F20" d="M98.9,59.8c0.7,0,1.2,0,1.8,0c0.1,0,0.4-0.1,0.4,0.1c0,0.2,0.1,0.6-0.1,0.7c-0.7,0.4,0,0.7,0,1.1
		c0.1-0.3,0.2-0.6,0.3-0.9c0.4-1.1,0.4-1.1,1.7-0.9c-0.3,0.6-0.5,1.2-0.8,1.7c-0.5,0.9-0.8,1.8-0.6,2.8c0.1,0.6-0.4,0.4-0.7,0.4
		c-0.3,0-0.7,0.1-0.6-0.4c0.2-1.4-0.5-2.5-1.1-3.7C99.2,60.4,99,60.1,98.9,59.8z"/>
	<path fill="#231F20" d="M31.6,62.4c0.3,0,0.6-0.1,0.8-0.1c0.4-0.1,0.6-0.3,0.6-0.8c-0.1-0.4-0.3-0.7-0.7-0.6c-0.3,0-0.6,0-0.9,0
		c-0.5,0.1-0.5-0.1-0.5-0.5c0-0.5,0.2-0.6,0.6-0.6c0.5,0,1,0,1.5,0.1c0.7,0.2,1.1,0.6,1.2,1.3c0.1,0.7,0,1.3-0.6,1.7
		c-0.3,0.2-0.3,0.3-0.1,0.5c0.3,0.5,0.6,1,0.9,1.4c-0.1,0-0.1,0.1-0.1,0.1c-0.9,0.2-1.4-0.2-1.8-1C32.2,63.4,31.9,62.9,31.6,62.4z"
		/>
	<path fill="#231F20" d="M69.7,64.8c-0.4,0-0.8,0-1.1,0c-0.1,0-0.2,0-0.3-0.1c-0.4-0.7-0.9-1.5-1.4-2.3c0.4-0.1,0.6-0.1,0.9-0.1
		c0.4-0.1,0.6-0.4,0.5-0.8c-0.1-0.4-0.3-0.6-0.7-0.6c-0.2,0-0.5,0-0.7,0c-0.7,0-0.9-0.3-0.7-0.9c0-0.2,0.1-0.2,0.2-0.2
		c0.6,0,1.3,0,1.9,0.1c0.7,0.1,1,0.6,1.1,1.2c0.1,0.7,0,1.3-0.6,1.7c-0.4,0.2-0.3,0.4-0.1,0.6C69.1,63.8,69.4,64.3,69.7,64.8z"/>
	<path fill="#231F20" d="M84.9,62.3c0-0.7,0-1.4,0-2c0-0.3,0-0.5,0.4-0.5c0.9,0,0.9,0,0.9,0.9c0,0.9,0,1.8,0,2.7
		c0,0.1-0.1,0.3,0.1,0.4c0.2,0.1,0.1-0.2,0.2-0.3c0.2-0.4,0.6-0.1,0.9-0.2c0.3,0,0.2,0.2,0.2,0.4c0.1,1.2,0.1,1.2-1.1,1.2
		c-0.5,0-1.2,0.2-1.5-0.1c-0.3-0.3-0.1-1-0.1-1.5C84.8,62.9,84.9,62.6,84.9,62.3z"/>
	<path fill="#231F20" d="M55.4,62.2c0-0.7,0-1.4,0-2c0-0.3,0.1-0.5,0.4-0.5c0.9,0,0.9,0,0.9,0.9c0,0.9,0,1.8,0,2.7
		c0,0.1-0.1,0.3,0.1,0.4c0.2,0.1,0.1-0.2,0.2-0.3c0.2-0.4,0.6-0.1,0.9-0.2c0.3,0,0.2,0.2,0.2,0.4c0.1,1.2,0.1,1.2-1.1,1.2
		c-0.5,0-1.2,0.2-1.5-0.1c-0.3-0.3-0.1-1-0.1-1.5C55.4,62.9,55.4,62.6,55.4,62.2z"/>
	<path fill="#1F77BC" d="M37.4,69.7c0.3-0.9,0.6-1.8,0.9-2.7c0.1-0.4,0.4-0.5,0.7-0.4c0.4,0,0.2,0.4,0.2,0.6c0,1,0,2.1,0,3.1
		c0,0.2,0,0.4-0.3,0.4c-0.3,0-0.2-0.2-0.2-0.4c0-0.9,0-1.7-0.1-2.6c-0.3,0.8-0.6,1.7-0.9,2.5c-0.1,0.2,0,0.4-0.2,0.4
		c-0.3,0.1-0.4,0-0.5-0.3c-0.3-0.9-0.6-1.8-1-2.7c0,0.9,0,1.8,0,2.6c0,0.2,0.1,0.4-0.2,0.4c-0.3,0-0.3-0.3-0.3-0.4
		c0-1.1,0-2.1,0-3.2c0-0.2-0.1-0.4,0.3-0.4c0.3,0,0.5-0.1,0.6,0.3c0.3,1,0.6,1.9,0.9,2.8C37.3,69.7,37.3,69.7,37.4,69.7z"/>
	<path fill="#1F77BC" d="M31.2,67.5c0,0.9,0,1.7,0,2.6c0,0.2,0.1,0.5-0.3,0.5c-0.3,0-0.2-0.3-0.2-0.5c0-1,0-2.1,0-3.1
		c0-0.2-0.1-0.5,0.2-0.5c0.3,0,0.6-0.1,0.7,0.3c0.2,0.8,0.5,1.7,0.8,2.5c0,0.1,0.1,0.2,0.2,0.5c0.4-1.1,0.7-2,1-2.9
		c0.1-0.4,0.4-0.4,0.7-0.4c0.4,0,0.3,0.3,0.3,0.5c0,1,0,2,0,3c0,0.2,0.2,0.5-0.3,0.6c-0.4,0-0.3-0.3-0.3-0.5c0-0.8,0-1.6-0.1-2.5
		c-0.3,0.9-0.6,1.7-0.9,2.6c-0.1,0.2-0.1,0.4-0.4,0.4c-0.3,0-0.3-0.2-0.4-0.4c-0.3-0.9-0.6-1.8-0.9-2.7
		C31.3,67.5,31.3,67.5,31.2,67.5z"/>
	<path fill="#242021" d="M94,62.3c0-0.7,0-1.4,0-2c0-0.3,0.1-0.4,0.4-0.4c0.4,0,0.8,0,1.2,0c0.6-0.1,0.7,0.1,0.7,0.7
		c0,0.4-0.2,0.5-0.5,0.4c-0.4-0.1-0.5,0.1-0.5,0.5c0,0.9,0,1.9,0,2.8c0,0.4-0.1,0.5-0.5,0.5c-0.8,0-0.8,0-0.8-0.9
		C94,63.4,94,62.9,94,62.3z"/>
	<path fill="#242021" d="M37,62.3c0-0.7,0-1.4,0-2c0-0.4,0.1-0.5,0.5-0.4c0.5,0,1,0,1.5,0c0.5,0,0.3,0.4,0.3,0.6
		c0,0.2,0.2,0.6-0.3,0.5c-0.6-0.1-0.7,0.2-0.7,0.7c0,0.9,0,1.8,0,2.7c0,0.3-0.1,0.4-0.4,0.4c-0.9,0-0.9,0-0.9-0.9
		C37,63.4,37,62.9,37,62.3z"/>
	<path fill="#1D75BC" d="M60.9,69.6c0,0.2,0,0.4,0,0.6c0,0.4-0.1,0.7-0.5,0.2c-0.2-0.2-0.2,0-0.3,0.1c-0.9,0.4-1.9,0.3-2.5-0.4
		C57,69.4,57,68,57.6,67.2c0.5-0.7,1.5-0.9,2.4-0.5c0.3,0.1,0.5,0.3,0.7,0.6c0.1,0.1,0.2,0.3,0,0.4c-0.1,0.1-0.3,0.1-0.5-0.1
		c-0.6-0.7-1.4-0.8-2-0.3c-0.6,0.5-0.8,1.8-0.3,2.5c0.4,0.6,1.2,0.8,1.9,0.4c0.2-0.1,0.4-0.3,0.5-0.5c0.1-0.3,0-0.6-0.4-0.5
		c-0.1,0-0.3,0-0.4,0c-0.1,0-0.2-0.1-0.2-0.2c0-0.2,0-0.3,0.2-0.3c0.4,0,0.7,0,1.1,0c0.2,0,0.3,0.1,0.3,0.3
		C60.9,69.1,60.9,69.3,60.9,69.6z"/>
	<path fill="#1D75BB" d="M46.4,68.8c0.5,0.4,0.5,0.6,0.9,1.8c-0.5,0.2-0.6-0.1-0.7-0.4c-0.4-1.2-0.6-1.3-1.7-1.2
		c-0.3,0-0.4,0.1-0.4,0.4c0,0.3,0,0.7,0,1c0,0.2,0,0.3-0.3,0.3c-0.2,0-0.3-0.1-0.3-0.3c0-1.1,0-2.3,0-3.4c0-0.2,0.1-0.3,0.3-0.3
		c0.5,0,1,0,1.5,0c0.6,0,1.1,0.1,1.4,0.8C47.3,67.9,47.1,68.3,46.4,68.8z"/>
	<path fill="#1E76BC" d="M93.5,67.7c0,0.8,0,1.7,0,2.5c0,0.2,0.1,0.4-0.3,0.4c-0.3,0-0.3-0.3-0.3-0.4c0-1,0-2.1,0-3.1
		c0-0.2-0.1-0.4,0.1-0.5c0.2-0.1,0.4,0,0.6,0.2c0.6,0.9,1.2,1.8,1.9,2.7c0-0.7,0-1.5,0-2.2c0-0.3-0.2-0.7,0.2-0.7
		c0.5,0,0.3,0.5,0.3,0.8c0,0.9,0,1.8,0,2.8c0,0.2,0.1,0.4-0.2,0.5c-0.3,0.1-0.4-0.1-0.5-0.3c-0.6-0.9-1.2-1.8-1.8-2.7
		C93.5,67.6,93.5,67.6,93.5,67.7z"/>
	<path fill="#1E76BC" d="M53.8,67.5c0,1,0,1.8,0,2.7c0,0.2,0.1,0.5-0.3,0.5c-0.4,0-0.2-0.3-0.2-0.5c0-1,0-2.1,0-3.1
		c0-0.2-0.1-0.4,0.2-0.5c0.2-0.1,0.4,0,0.6,0.3c0.6,0.9,1.2,1.8,1.9,2.7c0-0.5,0-1,0-1.5c0-0.4,0-0.7,0-1.1c0-0.2,0-0.3,0.2-0.3
		c0.2,0,0.3,0.1,0.3,0.3c0,1.1,0,2.3,0,3.4c0,0.1,0,0.3-0.2,0.3c-0.2,0-0.4-0.1-0.5-0.3c-0.5-0.8-1-1.5-1.5-2.3
		C54.1,67.9,54,67.8,53.8,67.5z"/>
	<path fill="#1E76BC" d="M92.2,68.6c0,1.3-0.8,2.2-1.9,2.2c-1.1,0-2-0.9-2-2.1c0-1.3,0.8-2.2,1.9-2.2C91.4,66.4,92.2,67.3,92.2,68.6
		z"/>
	<path fill="#1C75BB" d="M63.7,68.5c0-0.5,0-1,0-1.5c0-0.4,0.1-0.6,0.5-0.5c0.7,0,1.4,0,2,0c0.2,0,0.4-0.1,0.4,0.2
		c0,0.3-0.2,0.3-0.4,0.3c-0.5,0-1.1,0-1.6,0c-0.6,0-0.4,0.4-0.4,0.7c0,0.3-0.1,0.6,0.4,0.6c0.4,0,0.9,0,1.4,0c0.2,0,0.4-0.1,0.5,0.2
		c0,0.4-0.2,0.2-0.4,0.3c-0.3,0-0.7,0-1,0c-0.2,0-0.6-0.2-0.7,0.1c-0.1,0.3,0,0.7,0,1.1c0,0.2,0.2,0.1,0.4,0.1c0.6,0,1.1,0,1.7,0
		c0.2,0,0.4-0.1,0.4,0.2c0,0.3-0.2,0.2-0.4,0.2c-0.7,0-1.5,0-2.2,0c-0.3,0-0.4-0.1-0.4-0.4C63.8,69.7,63.7,69.1,63.7,68.5z"/>
	<path fill="#1C75BB" d="M40.1,68.6c0-0.5,0-1.1,0-1.6c0-0.3,0-0.4,0.4-0.4c0.7,0,1.5,0,2.2,0c0.2,0,0.3,0,0.3,0.2
		c0,0.3-0.2,0.3-0.4,0.3c-0.6,0-1.1,0-1.7,0c-0.6,0-0.3,0.4-0.3,0.7c0,0.2-0.2,0.6,0.3,0.6c0.5,0,1,0,1.5,0c0.2,0,0.3,0,0.3,0.2
		c0,0.3-0.2,0.3-0.4,0.3c-0.5,0-1,0-1.5,0c-0.3,0-0.4,0.1-0.4,0.4c0,0.9,0,0.9,0.9,0.9c0.4,0,0.8,0,1.2,0c0.2,0,0.4-0.1,0.4,0.2
		c0,0.3-0.2,0.3-0.4,0.3c-0.7,0-1.5,0-2.2,0c-0.4,0-0.4-0.1-0.4-0.5C40.1,69.6,40.1,69.1,40.1,68.6z"/>
	<path fill="#1E76BC" d="M49.4,70.7c-0.8,0-1.4-0.3-1.6-0.9c0-0.1-0.2-0.3,0-0.4c0.2-0.1,0.3,0,0.5,0.2c0.4,0.6,1,0.8,1.6,0.6
		c0.3-0.1,0.5-0.3,0.5-0.6c0-0.3-0.2-0.5-0.5-0.6c-0.4-0.1-0.8-0.2-1.2-0.3c-0.5-0.2-0.9-0.5-0.9-1.1c0-0.6,0.4-0.9,1-1.1
		c0.7-0.2,1.5,0.1,1.8,0.5c0.1,0.1,0.2,0.4,0,0.5c-0.1,0.1-0.3,0.1-0.5-0.2c-0.4-0.6-0.9-0.5-1.4-0.3c-0.3,0.1-0.4,0.3-0.4,0.6
		c0,0.3,0.2,0.4,0.4,0.5c0.3,0.1,0.6,0.2,0.9,0.2c1,0.2,1.3,0.6,1.2,1.3C50.9,70.3,50.3,70.7,49.4,70.7z"/>
	<path fill="#1E76BC" d="M79.3,70.6c0.5-1.2,0.9-2.5,1.4-3.7c0.1-0.2,0.2-0.3,0.4-0.3c0.2,0,0.3,0.1,0.4,0.3
		c0.5,1.1,0.9,2.3,1.4,3.4c0,0.1,0.2,0.3,0,0.3c-0.1,0-0.3,0.1-0.5-0.1c0,0,0-0.1-0.1-0.2c-0.1-0.3-0.1-0.8-0.4-0.9
		c-0.4-0.1-0.9-0.1-1.4,0c-0.5,0-0.4,0.5-0.5,0.7C79.9,70.4,79.8,70.8,79.3,70.6z"/>
	<path fill="#2077BD" d="M86.3,42.5c0,1.1,0,1.1-1.1,1.1c-1.1,0-1.1,0-1.1-1.1c0-1.1,0-1.1,1.1-1.1C86.3,41.4,86.3,41.4,86.3,42.5z"
		/>
	<path fill="#1E76BC" d="M79,69.4c0,1-1.3,1.6-2.4,1.1c-0.7-0.3-1.2-1.3-1.1-2.3c0.1-1,0.7-1.7,1.5-1.8c0.7-0.1,1.5,0.2,1.8,0.7
		c0.1,0.1,0.3,0.3,0,0.5c-0.1,0.1-0.3,0.1-0.5-0.1c-0.5-0.6-1.2-0.8-1.8-0.4c-0.6,0.4-0.8,1.7-0.4,2.5c0.3,0.6,1,0.8,1.6,0.6
		c0.2-0.1,0.4-0.2,0.5-0.5C78.5,69.3,78.7,69.3,79,69.4z"/>
	<path fill="#1D75BC" d="M74.8,68.2c0,0.5,0,0.9,0,1.4c-0.1,0.8-0.6,1.1-1.5,1.2c-0.9,0-1.5-0.3-1.6-1.1c-0.1-0.9,0-1.9-0.1-2.8
		c0-0.2,0.1-0.3,0.2-0.3c0.2,0,0.3,0.1,0.3,0.3c0,0.8,0,1.6,0,2.3c0,0.7,0.3,1.1,1,1.1c0.7,0,1.1-0.3,1.1-1c0-0.8,0-1.5,0-2.3
		c0-0.2-0.1-0.4,0.3-0.4c0.3,0,0.2,0.2,0.2,0.4C74.8,67.4,74.8,67.8,74.8,68.2C74.8,68.2,74.8,68.2,74.8,68.2z"/>
	<path fill="#231F20" d="M28.4,63c0,0.3,0,0.7,0,1c0.1,0.6-0.1,0.8-0.8,0.8c-0.4,0-0.6-0.1-0.5-0.5c0-0.8,0-1.7,0-2.5
		c0-0.3,0.1-0.4,0.4-0.4c0.9,0,0.9,0,0.9,0.8C28.4,62.5,28.4,62.8,28.4,63z"/>
	<path fill="#231F20" d="M90.1,63.1c0-0.4,0-0.9,0-1.3c-0.1-0.6,0.3-0.5,0.6-0.4c0.3,0,0.7-0.2,0.7,0.4c0,0.9,0,1.7,0,2.6
		c0,0.4-0.1,0.5-0.5,0.5c-0.8,0-0.8,0-0.8-0.8C90.1,63.7,90.1,63.4,90.1,63.1z"/>
	<path fill="#1C75BB" d="M84.5,68.8c0-0.2,0-0.4,0-0.6c0-1,0-1-1-1.1c-0.2,0-0.3,0-0.3-0.2c0-0.2,0.1-0.3,0.3-0.3c0.9,0,1.7,0,2.6,0
		c0.2,0,0.3,0,0.3,0.3c0,0.3-0.2,0.2-0.3,0.2c-1,0.1-1,0.1-1,1.2c0,0.6,0,1.3,0,1.9c0,0.2,0.2,0.5-0.2,0.5c-0.4,0-0.3-0.3-0.3-0.5
		C84.4,69.7,84.5,69.2,84.5,68.8z"/>
	<path fill="#267BBE" d="M86.9,39.2c0-0.9-0.1-0.8,0.8-0.8c0.8,0,0.8,0,0.8,0.8c0,0.9,0.1,0.8-0.9,0.8C86.8,40,86.9,40.1,86.9,39.2z
		"/>
	<path fill="#2E7FC0" d="M87.5,68.6c0,0.5,0,1.1,0,1.6c0,0.2,0.1,0.4-0.3,0.4c-0.3,0-0.3-0.2-0.3-0.4c0-1.1,0-2.2,0-3.3
		c0-0.2,0-0.4,0.3-0.4c0.3,0,0.3,0.2,0.3,0.4C87.5,67.5,87.5,68,87.5,68.6z"/>
	<path fill="#2E7FC0" d="M29.8,68.6c0,0.6,0,1.1,0,1.7c0,0.2-0.1,0.3-0.3,0.3c-0.2,0-0.3-0.1-0.3-0.3c0-1.1,0-2.3,0-3.4
		c0-0.2,0-0.3,0.3-0.3c0.2,0,0.3,0.1,0.3,0.3C29.8,67.5,29.8,68.1,29.8,68.6z"/>
	<path fill="#2E7FC0" d="M52.4,68.6c0,0.6,0,1.1,0,1.7c0,0.2,0,0.4-0.3,0.4c-0.3,0-0.3-0.2-0.3-0.4c0-1.1,0-2.2,0-3.3
		c0-0.2,0-0.4,0.3-0.4c0.3,0,0.3,0.2,0.3,0.4C52.4,67.5,52.4,68,52.4,68.6z"/>
	<path fill="#66A2D1" d="M87.9,75.2c0.1,0.2,0.3,0.1,0.5,0.1c-1,0.3-2.1,0.3-3.1,0.4c-2.9,0.3-5.7,0.6-8.6,0.5c-0.1,0-0.1,0-0.2,0
		C80.3,76.1,84.1,75.7,87.9,75.2z"/>
	<path fill="#2077BD" d="M84.4,39.4c-0.2-0.6,0.2-0.6,0.6-0.6c0.6-0.1,0.6,0.3,0.6,0.7c0,0.6-0.2,0.6-0.7,0.6
		C84.4,40.2,84.2,39.9,84.4,39.4z"/>
	<path fill="#231F20" d="M91.4,60.5c0.2,0.7-0.3,0.5-0.7,0.6c-0.7,0.1-0.5-0.4-0.6-0.7c-0.1-0.7,0.4-0.5,0.7-0.6
		C91.5,59.7,91.5,60.1,91.4,60.5z"/>
	<path fill="#231F20" d="M27.8,59.8c0.6-0.2,0.6,0.2,0.6,0.6c0.1,0.6-0.3,0.6-0.7,0.7c-0.6,0-0.5-0.3-0.6-0.7
		C27,59.8,27.3,59.7,27.8,59.8z"/>
	<path fill="#FEFEFE" d="M45.3,68.4c-0.1,0-0.3,0-0.4,0c-0.4,0-0.5-0.1-0.4-0.4c0-0.2,0-0.4,0-0.6c0-0.2,0-0.3,0.3-0.3
		c0.4,0,0.9,0,1.3,0c0.4,0,0.6,0.3,0.6,0.7c0,0.4-0.2,0.6-0.6,0.7C45.8,68.4,45.5,68.4,45.3,68.4C45.3,68.4,45.3,68.4,45.3,68.4z"/>
	<path fill="#FDFEFE" d="M88.9,68.6c0-0.6,0.1-1.1,0.7-1.5c0.4-0.2,0.8-0.3,1.2-0.1c0.7,0.3,1.1,1.2,0.9,2.1
		c-0.2,0.7-0.8,1.2-1.5,1.1C89.4,70.2,88.9,69.5,88.9,68.6z"/>
	<path fill="#F9FBFC" d="M81.1,67.1c0.3,0.7,0.5,1.2,0.7,1.8c-1.4,0.1-1.4,0.1-0.9-1.1C80.9,67.6,81,67.4,81.1,67.1z"/>
</g>
</svg>
