<?xml version="1.0" encoding="utf-8"?>
<!-- Generator: Adobe Illustrator 18.1.1, SVG Export Plug-In . SVG Version: 6.00 Build 0)  -->
<svg version="1.1" id="Layer_1" xmlns="http://www.w3.org/2000/svg" xmlns:xlink="http://www.w3.org/1999/xlink" x="0px" y="0px"
	 viewBox="0 0 140 105" enable-background="new 0 0 140 105" xml:space="preserve">
<g>
	<path fill="#2020B2" d="M29.3,43.3c-2.1,0-4,0.4-5.6,2.9c-0.7-1.7-2.4-2.9-5.2-2.9c-2.1,0-3.7,0.5-4.8,1.9l-0.2-1.6h-1.5v19.3h1.7
		V49.3c0-2.7,1-4.4,4.6-4.4c3.6,0,4.4,1.9,4.4,5.5v12.6h1.7V49.9c0-2.8,1.1-5,4.7-5c3.6,0,4.4,1.4,4.4,5.5v12.6h1.7V50.4
		C35.2,45.8,34,43.3,29.3,43.3z"/>
	<path fill="#2020B2" d="M45.6,43.3c-4.2,0-6.1,2-6.1,7.3v5.2c0,5.3,2,7.2,6.1,7.2c3.9,0,5.7-1.9,5.7-5.4h-1.5
		c0,2.3-0.7,3.9-4.2,3.9c-3.6,0-4.5-1.9-4.5-5.8v-2.2h10.5v-2.9C51.5,45.5,50,43.3,45.6,43.3z M50.1,52H41v-1.4c0-4.1,1-5.9,4.5-5.9
		c3.8,0,4.5,2.3,4.5,6V52z"/>
	<path fill="#2020B2" d="M78.5,43.3c-2.4,0-3.9,0.9-4.8,2.2l-0.2-2.1h-1.5l0,30.5h1.7l0-12.6c1.1,1.2,2.5,1.7,4.5,1.7
		c3.8,0,6.1-1.9,6.1-6.5v-6.3C84.4,45.2,82.6,43.3,78.5,43.3z M82.7,56.5c0,3.3-0.9,5-4.5,5s-4.5-1.5-4.5-5.2v-6.4
		c0-3.2,1.2-5,4.6-5c2.9,0,4.3,1.1,4.3,5.5V56.5z"/>
	<path fill="#2020B2" d="M90.1,45.7L90,43.4h-1.5v19.6h1.7l0-13.8c0-2.8,2.1-4.6,5.1-4.2v-1.6C92.9,43,90.9,44.1,90.1,45.7z"/>
	<path fill="#2020B2" d="M98.5,38.5c0,1.6,2.5,1.6,2.5,0C101,36.9,98.5,36.9,98.5,38.5z"/>
	<rect x="99" y="43.4" fill="#2020B2" width="1.6" height="19.6"/>
	<path fill="#2020B2" d="M111.8,43.3c-2.4,0-4,1-4.9,2.4l-0.1-2.1h-1.5v19.3h1.7V49.4c0-2.2,1.2-4.6,4.6-4.6c3.5,0,4.4,1.3,4.4,5.6
		v12.6h1.7V50.4C117.7,45.4,116.3,43.3,111.8,43.3z"/>
	<path fill="#2020B2" d="M123.7,57.5V44.9h4v-1.6h-4v-4.6L122,39v18.5c0,4.3,1.5,5.9,5.9,5.5v-1.5C124.8,61.8,123.7,61.1,123.7,57.5
		z"/>
	<path fill="#2020B2" d="M65.9,45c-1.1-1.2-2.5-1.7-4.5-1.7c-3.8,0-6.1,1.9-6.1,6.5V56c0,5.1,1.8,7,5.8,7c2.4,0,3.9-0.9,4.8-2.2
		l0.2,2.1h1.5V31h-1.7L65.9,45z M65.9,56.4c0,3.2-1.2,5-4.6,5c-2.9,0-4.3-1.1-4.3-5.5v-6.2c0-3.2,0.9-5,4.5-5c3.6,0,4.5,1.5,4.5,5.2
		V56.4z"/>
</g>
<g>
</g>
<g>
</g>
<g>
</g>
<g>
</g>
<g>
</g>
<g>
</g>
<g>
</g>
<g>
</g>
<g>
</g>
<g>
</g>
<g>
</g>
<g>
</g>
<g>
</g>
<g>
</g>
<g>
</g>
</svg>
