<?xml version="1.0" encoding="utf-8"?>
<!-- Generator: Adobe Illustrator 18.1.1, SVG Export Plug-In . SVG Version: 6.00 Build 0)  -->
<svg version="1.1" id="Layer_1" xmlns="http://www.w3.org/2000/svg" xmlns:xlink="http://www.w3.org/1999/xlink" x="0px" y="0px"
	 viewBox="0 0 140 105" enable-background="new 0 0 140 105" xml:space="preserve">
<g id="Final-Final_1_">
	<g id="Artboard-1" transform="translate(-117.000000, -88.000000)">
		<g id="BHG_Full" transform="translate(117.000000, 88.000000)">
			<g id="Group_1_">
				<path id="GAMES" fill="#010101" d="M73.4,85.5c-0.5,0.3-1.2,0.5-1.9,0.7s-1.5,0.3-2.3,0.3c-0.9,0-1.7-0.1-2.4-0.4
					c-0.7-0.3-1.4-0.7-1.9-1.2c-0.5-0.5-0.9-1.1-1.2-1.8c-0.3-0.7-0.4-1.5-0.4-2.4c0-0.9,0.2-1.7,0.5-2.4s0.7-1.3,1.3-1.8
					c0.5-0.5,1.2-0.9,1.9-1.1c0.7-0.3,1.5-0.4,2.3-0.4c0.9,0,1.7,0.1,2.4,0.4c0.7,0.3,1.3,0.6,1.8,1.1l-1.7,1.9
					c-0.3-0.3-0.6-0.5-1-0.7c-0.4-0.2-0.9-0.3-1.4-0.3c-0.5,0-0.9,0.1-1.3,0.3c-0.4,0.2-0.7,0.4-1,0.7c-0.3,0.3-0.5,0.7-0.7,1.1
					c-0.2,0.4-0.2,0.9-0.2,1.4c0,0.5,0.1,1,0.2,1.4c0.1,0.4,0.4,0.8,0.6,1.1c0.3,0.3,0.6,0.5,1,0.7c0.4,0.2,0.9,0.3,1.4,0.3
					c0.3,0,0.6,0,0.9-0.1c0.3,0,0.5-0.1,0.8-0.2v-2h-2.1v-2.1h4.5V85.5z M83,86.2L82.1,84h-4.2l-0.8,2.1h-2.9l4.6-10.9h2.6l4.5,10.9
					H83z M80,78.2l-1.4,3.7h2.7L80,78.2z M96.7,86.2l0.1-7.7h0l-2.8,7.7H92l-2.8-7.7h0l0.1,7.7h-2.5V75.2h3.7l2.5,7h0.1l2.4-7h3.8
					v10.9H96.7z M101.5,86.2V75.2h7.3v2.2h-4.8v2.1h4.5v2.1h-4.5v2.3h5.1v2.3H101.5z M116.7,78.1c-0.2-0.3-0.5-0.5-0.9-0.7
					c-0.4-0.2-0.7-0.3-1.1-0.3c-0.2,0-0.4,0-0.5,0c-0.2,0-0.3,0.1-0.5,0.2c-0.1,0.1-0.3,0.2-0.4,0.3c-0.1,0.1-0.1,0.3-0.1,0.5
					c0,0.2,0,0.3,0.1,0.5c0.1,0.1,0.2,0.2,0.3,0.3c0.1,0.1,0.3,0.2,0.5,0.3c0.2,0.1,0.4,0.2,0.7,0.2c0.4,0.1,0.8,0.3,1.2,0.4
					c0.4,0.1,0.8,0.3,1.1,0.6c0.3,0.2,0.6,0.6,0.8,0.9c0.2,0.4,0.3,0.8,0.3,1.4c0,0.6-0.1,1.2-0.3,1.6c-0.2,0.5-0.5,0.8-0.9,1.1
					c-0.4,0.3-0.8,0.5-1.3,0.7c-0.5,0.1-1,0.2-1.6,0.2c-0.8,0-1.5-0.1-2.3-0.4c-0.7-0.3-1.3-0.7-1.8-1.2l1.7-1.8
					c0.3,0.3,0.6,0.6,1.1,0.8c0.4,0.2,0.9,0.3,1.3,0.3c0.2,0,0.4,0,0.6-0.1c0.2,0,0.3-0.1,0.5-0.2c0.1-0.1,0.2-0.2,0.3-0.4
					c0.1-0.2,0.1-0.3,0.1-0.6c0-0.2-0.1-0.4-0.2-0.5c-0.1-0.1-0.2-0.3-0.4-0.4c-0.2-0.1-0.4-0.2-0.7-0.3c-0.3-0.1-0.6-0.2-1-0.3
					c-0.3-0.1-0.7-0.2-1-0.4c-0.3-0.2-0.6-0.4-0.9-0.6c-0.3-0.2-0.5-0.5-0.6-0.9c-0.2-0.3-0.2-0.8-0.2-1.3c0-0.6,0.1-1.1,0.4-1.6
					c0.2-0.4,0.6-0.8,1-1.1c0.4-0.3,0.9-0.5,1.4-0.6c0.5-0.1,1-0.2,1.5-0.2c0.6,0,1.2,0.1,1.9,0.3c0.6,0.2,1.2,0.6,1.7,1L116.7,78.1
					z"/>
				<g id="Group-2_1_">
					<path id="BIT-" fill="#010101" d="M40.3,36.1c0,1.4-0.3,2.5-0.8,3.5c-0.5,0.9-1.3,1.7-2.2,2.3c-0.9,0.6-1.9,1-3.1,1.2
						c-1.2,0.2-2.3,0.4-3.5,0.4h-10V18.2h10c1,0,2,0.1,3,0.3c1,0.2,1.9,0.5,2.8,1c0.8,0.5,1.5,1.1,2,2c0.5,0.8,0.8,1.9,0.8,3.2
						c0,1.4-0.4,2.6-1.1,3.5s-1.8,1.6-3,2v0.1c0.7,0.1,1.4,0.3,2,0.7s1.2,0.7,1.6,1.2c0.5,0.5,0.8,1.1,1.1,1.7
						C40.2,34.5,40.3,35.3,40.3,36.1L40.3,36.1z M33.4,25.5c0-0.9-0.3-1.5-1-1.9c-0.7-0.4-1.6-0.6-2.9-0.6h-3v5.2h3.3
						c1.1,0,2-0.2,2.7-0.7C33.1,27.1,33.4,26.4,33.4,25.5L33.4,25.5z M34.2,35.5c0-1-0.4-1.8-1.2-2.2c-0.8-0.4-1.8-0.6-3.1-0.6h-3.4
						v5.8H30c0.5,0,1,0,1.5-0.1s1-0.2,1.4-0.4c0.4-0.2,0.8-0.5,1-0.9C34.1,36.7,34.2,36.2,34.2,35.5L34.2,35.5z M44.3,43.4V18.2h6.1
						v25.2H44.3z M66.4,23.4v20h-6.1v-20h-7.1v-5.2h20.3v5.2H66.4z"/>
					<path id="HERO" fill="#010101" d="M36.6,71.9V61.4h-9.8v10.5h-6.1V46.7h6.1v9.5h9.8v-9.5h6.1v25.2H36.6z M47.9,71.9V46.7h16.9
						v5.2H53.7v4.7h10.5v4.9H53.7v5.2h11.7v5.2H47.9z M83,71.9l-5.4-10h-2.1v10h-6V46.7h9.6c1.2,0,2.4,0.1,3.5,0.4
						c1.2,0.2,2.2,0.7,3.1,1.3s1.6,1.4,2.2,2.3c0.5,1,0.8,2.2,0.8,3.6c0,1.7-0.5,3.1-1.4,4.3c-0.9,1.2-2.2,2-3.8,2.5l6.6,10.8H83z
						 M82.7,54.4c0-0.6-0.1-1.1-0.4-1.4c-0.2-0.4-0.6-0.7-1-0.9c-0.4-0.2-0.8-0.3-1.3-0.4c-0.5-0.1-1-0.1-1.4-0.1h-3.2v5.9h2.9
						c0.5,0,1,0,1.5-0.1s1-0.2,1.4-0.4c0.4-0.2,0.8-0.5,1.1-0.9C82.6,55.6,82.7,55.1,82.7,54.4L82.7,54.4z M119.3,59.2
						c0,2-0.3,3.8-1,5.5c-0.7,1.6-1.6,3.1-2.9,4.2c-1.2,1.2-2.7,2.1-4.4,2.7s-3.5,1-5.5,1c-2,0-3.8-0.3-5.5-1
						c-1.7-0.6-3.1-1.5-4.3-2.7c-1.2-1.2-2.2-2.6-2.9-4.2c-0.7-1.6-1-3.5-1-5.5c0-2,0.3-3.8,1-5.5c0.7-1.6,1.6-3,2.9-4.1
						c1.2-1.1,2.7-2,4.3-2.6c1.7-0.6,3.5-0.9,5.5-0.9c2,0,3.8,0.3,5.5,0.9c1.7,0.6,3.1,1.5,4.4,2.6c1.2,1.1,2.2,2.5,2.9,4.1
						C119,55.4,119.3,57.2,119.3,59.2L119.3,59.2z M112.8,59.2c0-1.1-0.2-2.1-0.5-3.1c-0.4-0.9-0.8-1.8-1.5-2.4
						c-0.6-0.7-1.4-1.2-2.3-1.6c-0.9-0.4-1.9-0.6-2.9-0.6s-2,0.2-2.9,0.6c-0.9,0.4-1.6,0.9-2.3,1.6c-0.6,0.7-1.1,1.5-1.5,2.4
						s-0.5,2-0.5,3.1c0,1.1,0.2,2.2,0.5,3.2c0.4,1,0.8,1.8,1.5,2.5c0.6,0.7,1.4,1.2,2.3,1.6c0.9,0.4,1.9,0.6,2.9,0.6s2-0.2,2.9-0.6
						c0.9-0.4,1.6-0.9,2.3-1.6c0.6-0.7,1.1-1.5,1.5-2.5C112.6,61.4,112.8,60.4,112.8,59.2L112.8,59.2z"/>
				</g>
			</g>
			<g id="Group-8" transform="translate(1.000000, 96.000000)">
				<rect id="Rectangle-32" x="46.7" y="-21.1" fill="#010101" width="11.9" height="11.9"/>
				<g id="Group-7" transform="translate(0.000000, 1.000000)">
					<g id="Group-6" transform="translate(27.000000, 0.500000)" opacity="0.8">
						
							<rect id="Rectangle-33" x="9.7" y="-21.1" transform="matrix(-0.7071 -0.7071 0.7071 -0.7071 32.9007 -25.6142)" fill="#EE2725" width="3" height="3"/>
						
							<rect id="Rectangle-33_1_" x="9.7" y="-15.2" transform="matrix(-0.7071 -0.7071 0.7071 -0.7071 28.7054 -15.4858)" fill="#EE2725" width="3" height="3"/>
					</g>
					<g id="Group-6_1_" transform="translate(36.000000, 0.500000)">
						
							<rect id="Rectangle-33_2_" x="6" y="-21.1" transform="matrix(-0.7071 -0.7071 0.7071 -0.7071 26.6523 -28.2024)" fill="#EE2725" width="3" height="3"/>
						
							<rect id="Rectangle-33_3_" x="6" y="-15.2" transform="matrix(-0.7071 -0.7071 0.7071 -0.7071 22.457 -18.074)" fill="#EE2725" width="3" height="3"/>
					</g>
					<g id="Group-5" transform="translate(18.000000, 0.500000)" opacity="0.6">
						
							<rect id="Rectangle-33_4_" x="13.3" y="-15.2" transform="matrix(-0.7071 -0.7071 0.7071 -0.7071 34.9539 -12.8976)" fill="#EE2725" width="3" height="3"/>
						
							<rect id="Rectangle-33_5_" x="13.3" y="-21.1" transform="matrix(-0.7071 -0.7071 0.7071 -0.7071 39.1492 -23.026)" fill="#EE2725" width="3" height="3"/>
					</g>
					<g id="Group-4" transform="translate(9.000000, 0.500000)" opacity="0.4">
						
							<rect id="Rectangle-33_6_" x="17" y="-15.2" transform="matrix(-0.7071 -0.7071 0.7071 -0.7071 41.2023 -10.3095)" fill="#EE2725" width="3" height="3"/>
						
							<rect id="Rectangle-33_7_" x="17" y="-21.1" transform="matrix(-0.7071 -0.7071 0.7071 -0.7071 45.3976 -20.4378)" fill="#EE2725" width="3" height="3"/>
					</g>
					<g id="Group-3" transform="translate(0.000000, 0.500000)" opacity="0.2">
						
							<rect id="Rectangle-33_8_" x="20.6" y="-15.2" transform="matrix(-0.7071 -0.7071 0.7071 -0.7071 47.4508 -7.7213)" fill="#EE2725" width="3" height="3"/>
						
							<rect id="Rectangle-33_9_" x="20.6" y="-21.1" transform="matrix(-0.7071 -0.7071 0.7071 -0.7071 51.6461 -17.8496)" fill="#EE2725" width="3" height="3"/>
					</g>
				</g>
			</g>
		</g>
	</g>
</g>
</svg>
