<svg xmlns="http://www.w3.org/2000/svg" viewBox="0 0 140 105" enable-background="new 0 0 140 105"><path d="M35.142 45.018c-2.316 0-4.292.82-5.93 2.457-1.638 1.638-2.457 3.615-2.457 5.93 0 2.315.82 4.29 2.457 5.92 1.638 1.633 3.614 2.45 5.93 2.45 2.315 0 4.292-.82 5.93-2.458 1.23-1.232 2-2.654 2.31-4.267v-3.288c-.31-1.626-1.08-3.054-2.31-4.286-1.64-1.638-3.615-2.458-5.93-2.458z" fill="#F5F752"/><path d="M15.634 53.7c-1.416-.763-2.395-1.415-2.937-1.957-.85-.85-1.275-1.872-1.275-3.067 0-1.207.425-2.238 1.275-3.094.85-.856 1.872-1.284 3.067-1.284 1.207 0 2.204.394 2.993 1.182.764.776 1.145 1.656 1.145 2.642v.092l-1.44.573c-.124-.936-.417-1.638-.878-2.106-.462-.466-1.07-.7-1.82-.7-.74 0-1.373.26-1.903.785s-.792 1.16-.792 1.912c0 .74.265 1.373.794 1.903.31.307.962.775 1.96 1.403 1.575.862 2.696 1.626 3.36 2.29 1.048 1.06 1.57 2.322 1.57 3.788 0 1.504-.523 2.78-1.57 3.835-1.046 1.053-2.315 1.58-3.804 1.58-1.49 0-2.76-.527-3.805-1.58C10.523 60.84 10 59.685 10 58.43l1.644-.425c0 1.084.366 1.99 1.1 2.716.732.73 1.61 1.09 2.63 1.09 1.023 0 1.9-.36 2.633-1.09.733-.725 1.1-1.61 1.1-2.66 0-1.02-.364-1.895-1.09-2.62-.394-.396-1.188-.975-2.383-1.738zm29.41 9.33H43.38v-3.695c-.32.43-.67.844-1.053 1.238-1.983 1.983-4.378 2.974-7.186 2.974-2.794 0-5.183-.99-7.165-2.974C25.99 58.59 25 56.2 25 53.405c0-2.808.99-5.203 2.974-7.186 1.983-1.985 4.372-2.976 7.167-2.976 2.81 0 5.205.99 7.188 2.974.382.393.733.806 1.053 1.237V44.89h1.664v18.14zm-1.663-7.98v-3.29c-.306-1.625-1.076-3.053-2.307-4.285-1.638-1.638-3.615-2.457-5.93-2.457-2.316 0-4.292.82-5.93 2.457-1.638 1.638-2.457 3.615-2.457 5.93 0 2.315.82 4.29 2.457 5.92 1.638 1.633 3.614 2.45 5.93 2.45 2.315 0 4.292-.82 5.93-2.458 1.23-1.232 2-2.654 2.31-4.268zM57.643 60l6.983-15.11h1.92l-8.903 18.638-8.904-18.64h1.92L57.643 60zm21.262-16.755c2.808 0 5.2.99 7.177 2.974 1.98 1.98 2.967 4.376 2.967 7.184 0 2.796-.988 5.185-2.965 7.167-1.976 1.984-4.368 2.975-7.176 2.975-2.796 0-5.185-.99-7.167-2.974-1.984-1.982-2.975-4.37-2.975-7.166 0-2.808.99-5.203 2.974-7.186 1.98-1.984 4.37-2.975 7.166-2.975zm-5.93 4.23c-1.638 1.638-2.457 3.615-2.457 5.93 0 2.315.82 4.29 2.457 5.92 1.638 1.633 3.615 2.45 5.93 2.45 2.315 0 4.292-.817 5.93-2.45 1.638-1.63 2.457-3.604 2.457-5.92 0-2.315-.817-4.292-2.455-5.93s-3.615-2.457-5.93-2.457c-2.315 0-4.292.82-5.93 2.457zM93.48 44.89h1.662v3.306c.345-.492.745-.967 1.2-1.422 1.467-1.466 2.97-2.235 4.508-2.31v1.81c-1.047.05-2.13.635-3.25 1.756-1.577 1.564-2.396 3.442-2.458 5.634v9.366H93.48V44.89zm14.85 1.662V63.03h-1.662V46.552h-1.847V44.89h1.85v-4.915c.073-1.367.596-2.543 1.57-3.528 1.01-.936 2.173-1.404 3.49-1.404.69 0 1.416.13 2.18.388l-.517 1.48c-.517-.222-1.016-.333-1.496-.333-.874 0-1.7.35-2.475 1.053-.69.676-1.052 1.495-1.09 2.456v4.803h3.696v1.66h-3.695zm13.782 14.852l-4.1 8.553h-1.627l4.895-10.27-7.075-14.798h1.884l6.02 13.003 6.022-13.005H130l-7.888 16.532v-.018z"/><path d="M78.904 45.018c-2.315 0-4.292.82-5.93 2.457-1.638 1.638-2.457 3.615-2.457 5.93 0 2.315.82 4.29 2.457 5.92 1.638 1.633 3.615 2.45 5.93 2.45 2.315 0 4.292-.817 5.93-2.45 1.638-1.63 2.457-3.604 2.457-5.92 0-2.315-.817-4.292-2.455-5.93-1.638-1.637-3.615-2.457-5.93-2.457z" fill="#6DF649"/></svg>