<?xml version="1.0" encoding="utf-8"?>
<!-- Generator: Adobe Illustrator 18.1.1, SVG Export Plug-In . SVG Version: 6.00 Build 0)  -->
<svg version="1.1" id="Layer_2" xmlns="http://www.w3.org/2000/svg" xmlns:xlink="http://www.w3.org/1999/xlink" x="0px" y="0px"
	 viewBox="0 0 140 105" enable-background="new 0 0 140 105" xml:space="preserve">
<g>
	<path fill="#99171C" d="M20,75.4c2.7-1.6,5.6-1.9,8.6-1.9c23.4,0.1,46.8,0,70.3,0c5.1,0,10.2-0.1,15.2,0.1c1.7,0.1,3.3,0.9,4.9,1.5
		c0.2,0.1,0.5,0.5,0.4,0.7c-0.1,0.3-0.4,0.4-0.7,0.6c-0.1,0-0.2,0-0.2,0c-2.5,0.2-2.5,0.2-2.4,2.7c0,1.9,0,3.7,0,5.6
		c0,1-0.3,1.5-1.4,1.4c-4.7-0.1-3.9,0.6-4-3.8c0-1.5,0-3,0-4.6c0-0.9-0.4-1.3-1.3-1.3c-3.5-0.2-3.5-0.2-3.4,3.3c0,0.5,0,0.9,0,1.4
		c0.2,1.2-0.4,1.5-1.6,1.5c-1.8,0-1.8,0-1.8-1.8c0-0.8,0-1.7,0-2.5c0-1.8,0-1.9-1.8-1.9c-1.4,0-2.8,0-4.2,0c-19.4,0-38.7,0-58.1,0
		c-1.1,0-1.5,0.4-1.5,1.5c0,1.2,0,2.4,0,3.6c0,1.4-1,1.1-1.8,1.2c-0.9,0.1-1.5-0.1-1.5-1.2c0-1.3,0-2.5,0-3.8c0-0.8-0.3-1.2-1.1-1.2
		c-0.1,0-0.2,0-0.3,0c-3.9,0-3.5-0.4-3.5,3.3c0,1.7,0,3.5,0,5.2c0,0.9-0.3,1.2-1.2,1.2c-0.9,0-1.8-0.1-2.7,0
		c-1.1,0.1-1.6-0.4-1.6-1.6c0.1-2.2,0-4.4,0-6.6c0-1.1-0.3-1.7-1.5-1.6c-0.7,0.1-1.3-0.1-2-0.2C20,75.9,20,75.6,20,75.4z"/>
	<path fill="#620A0D" d="M110.7,48.6c1,0.7,2.1,1.2,2.8,2c0.7,0.9,1.1,2.1,1.2,3.3c0.2,5.7-1.3,10.7-6,14.4
		c-2.1,1.6-4.6,2.5-7.2,2.5c-9.3,0.1-18.5,0.1-27.8,0.1c-1.9,0-3.7,0-5.6,0c-1,0-1.2-0.3-1-1.3c1.2-4.2,2.2-8.4,3.4-12.6
		c0.8-3,1.7-6,2.5-9c0.8-2.9,1.6-5.9,2.3-8.8c0.2-1,0.7-1.3,1.6-1.3c4,0,8,0,11.9,0c0.5,0,0.9-0.1,1.5-0.4
		c-3.9-2.7-7.8-5.4-11.6-8.2c0-0.1,0-0.3,0.1-0.4c1.2,0,2.4,0,3.7,0c9.3,0,18.5,0,27.8,0c2.3,0,4.5,0.2,6.7,1.2
		c1.7,0.8,2.8,2.1,3.1,3.9c0.7,4.1-1.8,11.2-6,13.4C112.8,47.8,111.7,48.1,110.7,48.6z M89.2,61.9c2.6,0,5.1-0.4,6.7-2.9
		c1.1-1.7,1.7-3.7,0.9-5.7c-0.8-1.9-2.8-1.8-4.5-1.9c-0.2,0-0.4,0-0.6,0c-1.6,0-1.9,0.2-2.3,1.8c-0.6,2.5-1.3,4.9-1.9,7.3
		c-0.2,0.8,0,1.2,0.8,1.2C88.4,61.9,88.8,61.9,89.2,61.9z M94,45.7c0.7-0.1,1.4-0.1,2.2-0.2c2.2-0.3,3.8-1.4,4.6-3.5
		c0.7-1.7,0.2-3.3-1.6-3.7c-1.6-0.4-3.4-0.4-5.1-0.5c-0.2,0-0.7,0.5-0.8,0.8c-0.5,1.6-1,3.1-1.3,4.8C91.4,45.8,91.5,45.8,94,45.7z"
		/>
	<path fill="#620A0D" d="M48,37.3c-3.9-2.7-7.7-5.4-11.6-8.2c0-0.1,0.1-0.3,0.1-0.4c1.5,0,2.9,0,4.4,0c3.8,0,7.5,0,11.3,0
		c1.1,0,1.4,0.3,1.1,1.3c-0.8,3.1-1.7,6.1-2.5,9.2c-0.8,3-1.6,6-2.3,8.9c-0.8,3-1.6,6-2.4,9.1c-0.3,1.1-0.7,2.3-1,3.4
		c-0.3,1.2,0.4,1.3,1.3,1.3c3.7,0,7.4,0,11.1,0c2.2,0,4.5,0.1,6.7,0c1,0,1.2,0.4,1,1.2c-0.6,2.4-1.3,4.7-2,7.1
		c-0.1,0.3-0.9,0.6-1.3,0.6c-6.7,0-13.5,0-20.2,0c-5.2,0-10.4,0-15.6,0c-1.4,0-1.5-0.2-1.2-1.6c1.1-4.1,2.2-8.1,3.3-12.2
		c1.1-4,2.2-8.1,3.3-12.1c0.5-1.9,1.1-3.8,1.5-5.8c0.2-1.1,0.7-1.4,1.7-1.4c4,0,8,0,11.9,0c0.4,0,0.9-0.1,1.3-0.1
		C48,37.5,48,37.4,48,37.3z"/>
	<path fill="#620A0D" d="M47.8,20.8c-0.8-0.7-1.2-1-1.8-1.6c0.5-0.1,0.7-0.2,1-0.2c1.8,0,1.8,0,1.5,1.8c-0.3,1.4,0.1,1.8,1.4,1.5
		c0.3-0.1,0.6-0.4,0.8-0.7c0.2-0.4,0.3-0.8,0.4-1.2c0.4-1.2,2.1-2,3.2-1.4c0.2,0.1,0.4,0.7,0.3,0.9c-0.6,2.1-1.2,4.3-1.8,6.4
		c-0.2,0.8-2.7,1.3-3.2,0.7c-0.2-0.2-0.1-0.8,0-1.1c0.1-0.7,0.8-1.4-0.1-1.9c-0.9-0.5-1.7,0.1-2.1,1.2c0,0.1-0.1,0.2-0.1,0.4
		c-0.4,1.6-1.5,2.2-3,1.6c-0.3-0.1-0.6-0.7-0.5-1c0.4-1.6,0.8-3.1,1.3-4.6c0.1-0.3,0.7-0.5,1.1-0.6C46.5,20.8,47,20.9,47.8,20.8z"/>
	<path fill="#620A0D" d="M61.6,22.3c-0.2,1.2-0.7,1.7-1.7,1.6c-0.5,0-1.1-0.1-1.5,0.1c-0.4,0.2-0.6,0.7-0.8,1.1
		c0.3,0.2,0.6,0.6,0.9,0.6c0.6,0.1,1.2-0.1,1.8,0.1c0.3,0.1,0.6,0.4,0.9,0.7c-0.2,0.3-0.5,0.7-0.7,0.7c-2.1,0.1-4.2,0.1-6.3,0
		c-0.2,0-0.5-0.7-0.4-0.9c0.4-1.6,0.8-3.1,1.3-4.6c0.1-0.3,0.7-0.6,1.1-0.7c0.4-0.1,1-0.1,1.7-0.1c-0.6-0.7-1-1.1-1.7-1.8
		c2.3,0,4.2,0,6.2,0c0.2,0,0.6,0.5,0.5,0.6c-0.2,0.4-0.5,1-0.9,1.1c-0.8,0.2-1.7,0-2.5,0.1c-0.4,0.1-0.7,0.5-1,0.8
		c0.4,0.2,0.7,0.5,1.1,0.6C60.1,22.4,60.8,22.3,61.6,22.3z"/>
	<path fill="#620A0D" d="M39.9,19c1.2,0,2.5-0.1,3.7,0c0.3,0,0.6,0.5,0.9,0.7c-0.3,0.3-0.6,0.9-1,0.9c-2.3,0.3-2.3,0.3-2.8,2.6
		c-0.2,1-0.4,2-0.8,2.9c-0.2,0.4-0.8,1-1.2,1c-2.5,0.1-2.5,0.2-2-2.1c0.2-0.9,0.5-1.9,0.7-2.8c0.4-1.3,0.3-1.3-1.1-1.4
		c-0.4,0-0.9-0.2-1.2-0.5c-0.1-0.2,0-0.8,0.2-1c0.2-0.2,0.7-0.3,1-0.3c0.6,0,1.2,0,1.8,0C38.8,19.1,39.3,19,39.9,19
		C39.9,19,39.9,19,39.9,19z"/>
</g>
</svg>
