<?xml version="1.0" encoding="utf-8"?>
<!-- Generator: Adobe Illustrator 18.1.1, SVG Export Plug-In . SVG Version: 6.00 Build 0)  -->
<svg version="1.1" id="Layer_1" xmlns="http://www.w3.org/2000/svg" xmlns:xlink="http://www.w3.org/1999/xlink" x="0px" y="0px"
	 viewBox="0 0 140 105" enable-background="new 0 0 140 105" xml:space="preserve">
<g>
	<g>
		<path fill="#2F3943" d="M36.9,52.9c0,1.7-0.4,3-1.2,3.8s-2,1.3-3.6,1.3c-1.6,0-2.8-0.4-3.6-1.3s-1.3-2.2-1.3-3.8
			c0-1.7,0.4-2.9,1.2-3.8s2-1.3,3.6-1.3c1.6,0,2.8,0.4,3.6,1.3S36.9,51.2,36.9,52.9z M30.1,52.9c0,1.9,0.7,2.9,2,2.9
			c0.7,0,1.2-0.2,1.5-0.7s0.5-1.2,0.5-2.2c0-1-0.2-1.7-0.5-2.2S32.8,50,32.1,50C30.7,50,30.1,50.9,30.1,52.9z"/>
		<path fill="#2F3943" d="M47.6,57.9L47.1,56h-3.2l-0.5,1.9h-3l3.3-10h3.6l3.3,10H47.6z M46.6,53.8l-0.4-1.6
			c-0.1-0.4-0.2-0.8-0.4-1.4s-0.2-1-0.3-1.2c0,0.2-0.1,0.6-0.2,1.1s-0.4,1.6-0.8,3.2H46.6z"/>
		<path fill="#2F3943" d="M60.9,54.9c0,0.6-0.2,1.2-0.5,1.7c-0.3,0.5-0.8,0.9-1.4,1.1C58.5,57.9,57.8,58,57,58c-0.7,0-1.2,0-1.7-0.1
			c-0.5-0.1-0.9-0.3-1.4-0.5V55c0.5,0.3,1.1,0.5,1.6,0.6c0.6,0.1,1.1,0.2,1.5,0.2c0.4,0,0.7-0.1,0.9-0.2c0.2-0.1,0.3-0.3,0.3-0.5
			c0-0.1,0-0.3-0.1-0.4c-0.1-0.1-0.2-0.2-0.4-0.3c-0.2-0.1-0.6-0.3-1.3-0.6c-0.7-0.3-1.1-0.6-1.5-0.9s-0.6-0.6-0.7-1
			S54,51.2,54,50.7c0-0.9,0.3-1.6,1-2.2s1.6-0.8,2.8-0.8c1,0,2.1,0.2,3.2,0.7l-0.8,2.1c-0.9-0.4-1.7-0.6-2.4-0.6
			c-0.4,0-0.6,0.1-0.8,0.2s-0.2,0.3-0.2,0.5c0,0.2,0.1,0.4,0.3,0.5c0.2,0.2,0.8,0.4,1.7,0.8c0.9,0.4,1.5,0.8,1.8,1.2
			C60.8,53.6,60.9,54.2,60.9,54.9z"/>
		<path fill="#2F3943" d="M65.2,57.9v-10h2.7v10H65.2z"/>
		<path fill="#2F3943" d="M79.4,54.9c0,0.6-0.2,1.2-0.5,1.7c-0.3,0.5-0.8,0.9-1.4,1.1c-0.6,0.3-1.3,0.4-2.1,0.4
			c-0.7,0-1.2,0-1.7-0.1c-0.5-0.1-0.9-0.3-1.4-0.5V55c0.5,0.3,1.1,0.5,1.6,0.6c0.6,0.1,1.1,0.2,1.5,0.2c0.4,0,0.7-0.1,0.9-0.2
			c0.2-0.1,0.3-0.3,0.3-0.5c0-0.1,0-0.3-0.1-0.4c-0.1-0.1-0.2-0.2-0.4-0.3c-0.2-0.1-0.6-0.3-1.3-0.6c-0.7-0.3-1.1-0.6-1.5-0.9
			c-0.3-0.3-0.6-0.6-0.7-1c-0.2-0.4-0.2-0.8-0.2-1.3c0-0.9,0.3-1.6,1-2.2s1.6-0.8,2.8-0.8c1,0,2.1,0.2,3.2,0.7l-0.8,2.1
			c-0.9-0.4-1.7-0.6-2.4-0.6c-0.4,0-0.6,0.1-0.8,0.2s-0.2,0.3-0.2,0.5c0,0.2,0.1,0.4,0.3,0.5c0.2,0.2,0.8,0.4,1.7,0.8
			c0.9,0.4,1.5,0.8,1.8,1.2C79.2,53.6,79.4,54.2,79.4,54.9z"/>
		<path fill="#2F3943" d="M95.6,47.9h3l-3.3,10h-3.2l-3.3-10h3l1.4,5.1c0.3,1.1,0.4,1.9,0.5,2.4c0-0.3,0.1-0.7,0.2-1.2
			s0.2-0.9,0.3-1.1L95.6,47.9z"/>
		<path fill="#2F3943" d="M105.2,54.3v3.6h-2.7v-10h3.3c2.7,0,4.1,1,4.1,3c0,1.2-0.6,2.1-1.7,2.7l2.9,4.4H108l-2.1-3.6H105.2z
			 M105.2,52.2h0.5c0.9,0,1.4-0.4,1.4-1.3c0-0.7-0.5-1-1.4-1h-0.5V52.2z"/>
	</g>
	<line fill="none" stroke="#2F3943" stroke-miterlimit="10" x1="12.8" y1="36.3" x2="127.3" y2="36.3"/>
	<line fill="none" stroke="#2F3943" stroke-miterlimit="10" x1="12.8" y1="68.7" x2="127.3" y2="68.7"/>
</g>
</svg>
