<?xml version="1.0" encoding="utf-8"?>
<!-- Generator: Adobe Illustrator 18.1.1, SVG Export Plug-In . SVG Version: 6.00 Build 0)  -->
<svg version="1.1" id="Layer_3" xmlns="http://www.w3.org/2000/svg" xmlns:xlink="http://www.w3.org/1999/xlink" x="0px" y="0px"
	 viewBox="0 0 140 105" enable-background="new 0 0 140 105" xml:space="preserve">
<g>
	<path fill="#D50000" d="M28.6,64.4c-0.6-0.1-1.2-0.3-1.7-0.6c-0.1-0.1-0.1-0.2-0.3-0.2c0,0,0,0-0.1,0l0,0c0-0.1,0-0.2-0.1-0.3
		c-0.5-0.9-0.3-1.8,0-2.7c0.4-1,1-1.8,1.8-2.6c0.9-0.9,1.8-1.6,2.9-2.3c1-0.6,2-1.1,3-1.5c1-0.4,2-0.7,3.1-0.8
		c1.1-0.2,2.3-0.2,3.4,0.1c0.9,0.2,1.6,0.7,2,1.5c0.4,0.9,0.3,1.7,0,2.6c-0.1,0.4-0.4,0.7-0.5,1.1c-0.3,0.5-0.8,0.8-1.1,1.2
		c-0.1,0.1-0.2,0.2-0.3,0.3c-0.5,0.4-1,0.7-1.4,1.1c-0.5,0.3-1.1,0.7-1.6,1c-0.4,0.2-0.8,0.4-1.3,0.7c-0.4,0.2-0.9,0.4-1.3,0.5
		c-0.9,0.4-1.8,0.6-2.8,0.8c-0.7,0.1-1.5,0.2-2.2,0.2c-0.4,0-0.8,0-1.2-0.1C28.9,64.4,28.7,64.4,28.6,64.4z M37,55.3
		c0.1,0,0.1,0,0.2,0c0.3-0.1,0.5-0.1,0.8-0.1c0.2,0,0.4,0.1,0.5,0.3c-0.1,0-0.1,0-0.2-0.1c-1-0.4-2.1,0.3-2,1.3
		c0,0.6,0.3,0.9,0.8,1.2c0.5,0.2,1,0.2,1.4-0.1c0.4-0.3,0.6-0.8,0.5-1.4c0-0.3-0.3-0.5-0.3-0.7c0,0,0,0,0,0c0,0,0,0,0,0
		c-0.1,0-0.2-0.1-0.3-0.2c0.1,0,0.1,0,0.1-0.1c0-0.1-0.1-0.1-0.1-0.2C38.2,54.9,37.5,54.9,37,55.3C37,55.3,37,55.3,37,55.3
		C37,55.3,37,55.3,37,55.3z M34.2,59.1c0.1-1-0.8-1.9-1.8-1.9c-0.9,0-1.8,0.7-1.9,1.9c0,1,0.8,1.9,1.8,1.9
		C33.4,61,34.2,60.2,34.2,59.1z M33.2,61.1c1.1-0.1,1.5-1.3,1.1-2.3C34.3,59.7,34.2,60.6,33.2,61.1z M37.1,61.3
		c0,0.2-0.1,0.4-0.2,0.6c-0.2,0.1-0.4,0.1-0.6,0.1c0.2,0.1,0.2,0.1,0.3,0.2c0.4,0.2,0.6,0.1,0.6-0.4C37.2,61.7,37.2,61.5,37.1,61.3z
		"/>
	<path fill="#D2321B" d="M65.7,64c0-0.5,0-1,0-1.5c0,0,0,0,0,0c0-0.9,0.2-1.8,0.5-2.6c0.4-0.9,0.9-1.7,1.6-2.3
		c0.9-0.7,1.8-1.1,2.9-1.3c2-0.3,3.8-0.1,5.5,1.2c1.1,0.9,1.8,2.1,2.1,3.4c0.2,0.8,0.3,1.7,0.2,2.6c0,0.5-0.1,1-0.3,1.5
		c-1-0.1-2-0.1-2.9-0.2c0.4-1.3,0.5-2.6,0-3.9c-0.6-1.9-2.3-2.8-4.1-2.3c-1.3,0.4-1.9,1.3-2.3,2.5c-0.3,1-0.3,2.1-0.1,3.1
		c-0.4,0-0.7,0-1.1-0.1C67,64.2,66.4,64.1,65.7,64z"/>
	<path fill="#AF1F2E" d="M122.4,61.8c1,0.2,2,0.5,2.8,1c0.4,0.2,0.7,0.5,0.9,0.9c0.4,0.7,0.5,1.4,0.4,2.2c0,0.7-0.3,1.3-0.7,1.8
		c-0.4,0.6-1,0.9-1.7,1.2c-0.5,0.2-1.1,0.3-1.7,0.4c-0.5,0.1-1,0.1-1.4,0.1c-0.7,0-1.4-0.1-2.1-0.2c-0.8-0.2-1.6-0.5-2.2-0.9
		c-0.7-0.5-1.2-1.2-1.4-2c-0.1-0.3-0.1-0.6-0.2-0.9c-0.1-0.3,0-0.4,0.3-0.4c0.7,0,1.5,0,2.2,0c0.1,0,0.2,0,0.2,0.1
		c0.2,1.3,1.1,1.9,2.4,2.1c0.8,0.1,1.5,0.1,2.3-0.2c0.5-0.2,1-0.5,1.2-1.1c0.1-0.6-0.1-1-0.6-1.3c-0.5-0.3-1.1-0.4-1.7-0.6
		c-1-0.2-1.9-0.5-2.9-0.7c-0.3-0.1-0.6-0.1-0.9-0.3c0-0.2,0.2-0.1,0.3-0.1c1.3-0.2,2.5-0.5,3.7-0.8
		C121.9,61.9,122.2,61.9,122.4,61.8z"/>
	<path fill="#AF1F2E" d="M54.9,62c0,0.5,0,1,0,1.6c0.1,1,0.4,2,1.1,2.8c0.4,0.4,0.9,0.6,1.5,0.8c0.9,0.2,1.7,0.1,2.5-0.4
		c0.6-0.4,0.9-1,1.1-1.7c0-0.1,0-0.2,0.2-0.2c0.9,0,1.7,0,2.6,0c0.1,0,0.2,0,0.2,0.2c-0.2,1-0.5,2-1.2,2.8c-0.6,0.7-1.4,1.2-2.2,1.4
		c-0.7,0.2-1.4,0.3-2.1,0.3c-1.2,0-2.4-0.1-3.5-0.8c-1.1-0.6-1.9-1.6-2.4-2.8c-0.5-1.1-0.5-2.3-0.5-3.5c0-0.4,0-0.8,0.1-1.2
		c0.4,0.1,0.8,0.3,1.3,0.4C53.9,61.8,54.4,62,54.9,62z"/>
	<path fill="#D2321B" d="M122.4,61.8c-0.2,0.2-0.5,0.2-0.8,0.2c-1.2,0.3-2.5,0.6-3.7,0.8c-0.1,0-0.2,0-0.3,0.1c-1-0.4-1.8-1.3-2-2.4
		c-0.1-0.9,0-1.7,0.5-2.5c0.5-0.8,1.3-1.2,2.2-1.5c0.9-0.3,1.9-0.4,2.9-0.4c0.1,0,0.1,0,0.2,0c0.4,0,0.9,0,1.3,0.1
		c0.6,0.1,1.1,0.3,1.7,0.6c0.6,0.3,1,0.8,1.4,1.3c0.3,0.5,0.4,1.1,0.6,1.6c0,0.1,0,0.3-0.3,0.3c-0.8,0-1.5,0-2.3,0
		c-0.2,0-0.2,0-0.2-0.2c-0.1-0.6-0.4-0.9-0.9-1.2c-1-0.6-2.1-0.5-3.1-0.2c-0.5,0.2-1.1,0.7-1,1.5c0.1,0.4,0.4,0.6,0.7,0.8
		c0.6,0.2,1.2,0.4,1.8,0.6C121.5,61.5,122,61.7,122.4,61.8z"/>
	<path fill="#D2321B" d="M89.6,65.3c-0.5-1.9-0.9-3.8-1.4-5.7c0,0,0,0-0.1,0c-0.5,1.9-0.9,3.8-1.4,5.7c-0.6,0-1.2,0-1.8,0
		c-0.1,0-0.2,0-0.3-0.1c0.1-0.6,0.3-1.3,0.4-1.9c0.4-1.7,0.8-3.4,1.3-5.1c0.1-0.5,0.3-1.1,0.4-1.7c0-0.2,0.1-0.2,0.2-0.2
		c0.8,0,1.6,0,2.4,0c0.2,0,0.2,0.1,0.3,0.2c0.6,2.5,1.2,5,1.8,7.5c0.1,0.4,0.2,0.7,0.3,1.1C91.1,65.3,90.4,65.3,89.6,65.3z"/>
	<path fill="#AF1F2E" d="M105.1,64.6c0.1,0.7,0.2,1.4,0.7,1.9c0.4,0.4,0.9,0.5,1.4,0.5c0.8,0.1,1.5,0.1,2.2-0.4
		c0.5-0.3,0.8-0.8,0.9-1.4c0.1-0.4,0.1-0.8,0.2-1.2c0.4-0.1,0.8-0.1,1.1-0.2c0.6,0,1.1-0.2,1.7-0.2c0,1.2,0,2.4-0.6,3.5
		c-0.5,1-1.4,1.6-2.4,1.9c-0.7,0.2-1.4,0.3-2.2,0.3c-0.9,0-1.8,0-2.6-0.3c-1.6-0.4-2.6-1.4-3-3.1c-0.1-0.4-0.1-0.8-0.2-1.2
		c0.1,0,0.2,0,0.3,0C103.3,64.8,104.2,64.7,105.1,64.6z"/>
	<path fill="#D2321B" d="M54.9,62c-0.5-0.1-1-0.2-1.6-0.4c-0.4-0.1-0.8-0.2-1.3-0.4c0-0.5,0.2-0.9,0.3-1.4c0.3-0.7,0.7-1.4,1.2-1.9
		c0.8-0.8,1.8-1.3,2.9-1.5c1.4-0.3,2.9-0.3,4.3,0.3c1.7,0.6,2.8,1.8,3.1,3.7c0,0,0,0.1,0,0.1c0,0.2,0,0.3-0.2,0.3
		c-0.8,0-1.5,0-2.3,0c-0.2,0-0.3,0-0.3-0.3c-0.2-0.9-0.8-1.5-1.7-1.8c-1-0.3-2-0.2-2.9,0.4c-0.8,0.5-1.2,1.4-1.4,2.3
		C55,61.6,55,61.8,54.9,62z"/>
	<path fill="#AF1F2E" d="M75.2,64.9c1,0.1,2,0.1,2.9,0.2c-0.2,0.9-0.6,1.7-1.3,2.4c-0.9,1.1-2.1,1.6-3.5,1.9c-0.2,0-0.5,0-0.7,0.1
		c-0.9,0.1-1.7,0-2.6-0.2c-1.2-0.3-2.2-0.9-3-1.8c-0.7-0.8-1.2-1.8-1.4-2.9c0-0.2,0-0.4-0.1-0.5c0.7,0,1.3,0.2,2,0.2
		c0.4,0,0.7,0.1,1.1,0.1c0,0.1,0.1,0.3,0.1,0.4c0.8,2.3,2.9,2.9,4.5,2.2C74.3,66.5,74.8,65.8,75.2,64.9z"/>
	<path fill="#1A467D" d="M35.4,43.4c1.5,2,2.6,4.2,3.9,6.3c0,0.1,0,0.1,0,0.2c-0.1,0-0.1,0.1-0.1,0.1c-0.8,0.8-1.8,1.4-2.8,1.8
		c-0.6,0.3-1.3,0.5-2,0.7c-0.1,0-0.2,0-0.4,0c-0.6,0.2-1.2-0.3-1.2-0.9c0-0.4,0.1-0.8,0.2-1.2c0.2-0.5,0.2-0.5-0.2-0.8
		c-1.1-0.8-1.1-2.3-0.6-3.2c0.2-0.3,0.4-0.6,0.6-0.9c0.7-0.8,1.5-1.5,2.3-2.1c0.1,0,0.1-0.1,0.2-0.1C35.3,43.4,35.3,43.4,35.4,43.4z
		 M36.6,50.8C36.6,50.9,36.6,50.9,36.6,50.8C36.6,50.9,36.6,50.9,36.6,50.8C36.6,50.9,36.6,50.9,36.6,50.8
		C36.6,50.9,36.6,50.8,36.6,50.8C36.6,50.8,36.7,50.8,36.6,50.8C36.7,50.8,36.6,50.8,36.6,50.8z M34.7,49.6c-0.4,0.4-0.8,1-1.2,1.4
		c-0.2,0.2,0,0.2,0.1,0.1l0,0l0,0c0.1,0.1,0.1,0.1,0.2,0c0,0,0.1,0,0.1,0c0.2,0.2,0.5,0.1,0.7,0.1c1.2,0,2-0.6,2.3-1.8
		c0.2-0.8,0.2-1.6,0-2.4c0-0.3-0.1-0.6-0.2-0.9c-0.2,0.7-0.5,1.2-0.8,1.7C35.6,48.5,35.2,49.1,34.7,49.6z M32.7,49
		c1.2-0.1,2-1.7,1.8-2.9C34.1,47.2,33.6,48.2,32.7,49z M36.4,51c-0.4,0.2-0.8,0.4-1.2,0.5c-0.4,0.1-0.8,0-1.3,0.1
		C34.8,52,36.2,51.6,36.4,51z M33.7,51.5C33.7,51.5,33.7,51.5,33.7,51.5C33.7,51.5,33.7,51.5,33.7,51.5
		C33.7,51.5,33.7,51.5,33.7,51.5C33.7,51.5,33.7,51.5,33.7,51.5z"/>
	<path fill="#E20304" d="M42.2,58.6c0.1-0.4,0.3-0.7,0.5-1.1c0.3-0.9,0.4-1.7,0-2.6c-0.4-0.8-1.1-1.2-2-1.5
		c-1.1-0.3-2.3-0.3-3.4-0.1c-1.1,0.2-2.1,0.4-3.1,0.8c-1.1,0.4-2.1,0.9-3,1.5c-1,0.6-2,1.4-2.9,2.3c-0.7,0.8-1.4,1.6-1.8,2.6
		c-0.4,0.9-0.5,1.8,0,2.7c0,0.1,0.1,0.2,0.1,0.3c-0.6-0.5-0.9-1.1-1-1.9c0-0.3,0-0.6,0.1-0.9c0-0.1,0-0.2,0.1-0.3
		c0.2-0.6,0.4-1.1,0.8-1.6c1.1-1.6,2.5-2.9,4.1-4c1.1-0.8,2.4-1.3,3.6-1.9c0,0,0.1,0,0.1,0c2-0.8,4.1-1.2,6.3-1
		c0.1,0.1,0.2,0.1,0.3,0.1c0.3,0.1,0.5,0.1,0.8,0.2c1.1,0.4,1.9,1,2.1,2.2c0.1,0.5,0.1,1.1-0.1,1.6C43.4,56.9,42.9,57.8,42.2,58.6z"
		/>
	<path fill="#FBFCFC" d="M19.2,46.2c0-0.1,0.1-0.3,0.1-0.4c0.1-0.7,0.7-1,1.1-1.5c0.3-0.3,0.6-0.7,0.9-1.1c0.1-0.1,0.4-0.2,0.5-0.4
		c0,0,0.1-0.1,0.1-0.1c0.1,0,0.2,0,0.2-0.1c0.4-0.3,0.7-0.5,1.1-0.8c0.2-0.1,0.4-0.3,0.6-0.3c-0.3,0.3-0.6,0.6-0.9,0.9
		c-0.1,0.1-0.2,0.3,0,0.4c0.2,0.2,0.3,0.4,0.5,0.5c0.5,0.3,0.7,0.8,0.9,1.3c0.2,0.4,0.2,0.9,0.3,1.3c0.1,0.7-0.3,1.4-0.5,2.1
		c-0.1,0.5-0.6,0.7-0.9,1c-0.2,0.2-0.3,0.3-0.4,0.5c-0.3,0-0.5-0.1-0.8-0.1c-0.8-0.1-1.5-0.4-2.2-1c-0.4-0.3-0.7-0.8-1-1.2
		C19,46.9,19.1,46.5,19.2,46.2z"/>
	<path fill="#AF1F2E" d="M49.6,60.4c0,0.5,0,1.1,0,1.6c0,2.3,0,4.6,0,6.9c0,0.2,0,0.3-0.3,0.3c-0.8,0-1.5,0-2.3,0
		c-0.2,0-0.3,0-0.3-0.2c0-3.3,0-6.6,0-9.9c0,0,0-0.1,0-0.1c0.1,0.1,0.2,0.1,0.4,0.2C48,59.7,48.8,60.1,49.6,60.4z"/>
	<path fill="#D2321B" d="M105.1,64.6c-0.9,0.1-1.7,0.1-2.6,0.2c-0.1,0-0.2,0-0.3,0c0-1.6,0-3.3,0-4.9c0-1.1,0-2.1,0-3.2
		c0-0.2,0.1-0.3,0.3-0.3c0.8,0,1.5,0,2.3,0c0.2,0,0.3,0.1,0.3,0.3c0,2.4,0,4.7,0,7.1C105.1,64.1,105.1,64.4,105.1,64.6z"/>
	<path fill="#D2321B" d="M81.8,65.3c-0.4-1.5-0.8-3-1.1-4.5c-0.4-1.4-0.7-2.7-1.1-4.1c0-0.1,0-0.2,0.2-0.2c0.8,0,1.6,0,2.4,0
		c0.1,0,0.2,0,0.2,0.2c0.5,2.6,1.1,5.2,1.6,7.9c0,0.2,0.2,0.5,0.1,0.7C83.3,65.3,82.5,65.3,81.8,65.3z"/>
	<path fill="#D2321B" d="M92.4,65.3c0-0.4,0.2-0.8,0.2-1.2c0.2-1,0.4-1.9,0.6-2.9c0.1-0.7,0.3-1.4,0.5-2.1c0.2-0.8,0.4-1.6,0.5-2.4
		c0-0.2,0.1-0.2,0.3-0.2c0.8,0,1.5,0,2.3,0c0.3,0,0.2,0.2,0.1,0.3c-0.3,1.3-0.6,2.5-1,3.8c-0.4,1.5-0.8,3-1.2,4.6
		c0,0.1,0,0.1-0.1,0.2C93.9,65.3,93.1,65.3,92.4,65.3z"/>
	<path fill="#D2321B" d="M113.2,63.7c-0.6,0-1.1,0.2-1.7,0.2c-0.4,0-0.8,0.1-1.1,0.2c0-2.3,0-4.6,0-6.9c0-0.7,0-0.7,0.7-0.7
		c0.6,0,1.3,0,1.9,0c0.2,0,0.3,0,0.3,0.2C113.3,59,113.3,61.3,113.2,63.7C113.3,63.6,113.2,63.7,113.2,63.7z"/>
	<path fill="#F3800B" d="M30.5,39.5c0.9-0.3,1.6-0.8,2-1.7c0.3-0.6,0.3-1.2,0.3-1.9c0-0.6-0.2-1.3-0.2-1.9c0-0.3,0.1-0.5,0.3-0.6
		c0.2-0.1,0.4-0.1,0.6,0c0.5,0.3,0.8,0.7,1.1,1.2c0.5,1,0.8,2,0.8,3.1c0,0.6,0,1.2-0.2,1.8c0,0,0,0.1-0.1,0.1
		c-0.1,0.1-0.2,0.1-0.3,0.2c-0.2,0.1-0.5,0.2-0.7,0.3c-0.4,0.1-0.7,0.2-1.1,0.3c-0.4,0.1-0.7,0.2-1.1-0.1c-0.1-0.1-0.2-0.2-0.4-0.2
		c-0.1-0.1-0.2-0.1-0.3-0.2C31.1,39.8,30.8,39.7,30.5,39.5z"/>
	<path fill="#F3800B" d="M19.2,46.2c-0.1,0.4-0.2,0.8-0.2,1.2c-0.1,0.4-0.2,0.7-0.1,1.1c0,0.1-0.1,0.2-0.1,0.3
		c-0.3,0.6-0.5,1.3-0.9,1.8c-1.7-0.7-2.6-2-2.9-3.8c-0.1-0.7-0.2-1.4,0-2.1c0.1-0.2,0.1-0.4,0.3-0.6c0.2-0.3,0.5-0.3,0.7-0.1
		c0.2,0.1,0.3,0.3,0.5,0.5C17,45.5,18,46,19.2,46.2z"/>
	<path fill="#AF1F2E" d="M81.8,65.3c0.8,0,1.6,0,2.4,0c0.1,0.3,0.1,0.7,0.3,1c0.2-0.3,0.2-0.7,0.3-1c0.1,0.1,0.2,0.1,0.3,0.1
		c0.6,0,1.2,0,1.8,0c-0.3,1.2-0.6,2.4-0.9,3.6c-0.1,0.2-0.1,0.3-0.4,0.3c-0.8,0-1.7,0-2.5,0c-0.2,0-0.3,0-0.3-0.3
		C82.4,67.8,82.1,66.5,81.8,65.3z"/>
	<path fill="#AF1F2E" d="M92.4,65.3c0.8,0,1.6,0,2.3,0c-0.3,1.3-0.7,2.5-1,3.8c0,0.2-0.1,0.2-0.2,0.2c-0.9,0-1.8,0-2.8,0
		c-0.1,0-0.2,0-0.2-0.2c-0.3-1.3-0.6-2.5-0.9-3.8c0.7,0,1.4,0,2.2,0c0.1,0.3,0.2,0.6,0.2,1C92.2,66,92.2,65.6,92.4,65.3z"/>
	<path fill="#1A467D" d="M21.6,55.7c-0.1,0-0.1-0.1-0.2-0.1c-0.2-0.4-0.5-0.8-0.7-1.2c-0.1-0.1-0.1-0.2-0.2-0.3
		c-0.2-0.4-0.4-0.8-0.6-1.2c-0.3-0.8-0.6-1.6-0.8-2.4c0.1,0,0.2,0,0.3,0.1c1.4,0.4,2.8,0.6,4.3,0.6c0,0,0,0.1,0,0.1
		c-0.2,0.5-0.5,0.8-0.9,1.1c-0.2,0.2-0.5,0.3-0.8,0.3c-0.6,0.1-0.7,0.4-0.6,0.9c0.1,0.3,0.2,0.7,0.3,1c0.1,0.4,0.1,0.7-0.1,1
		C21.7,55.6,21.6,55.7,21.6,55.7z"/>
	<path fill="#D2321B" d="M49.6,60.4c-0.9-0.3-1.7-0.7-2.5-1.2c-0.1-0.1-0.2-0.1-0.4-0.2c0-0.8,0-1.6,0-2.4c0-0.1,0-0.2,0.2-0.2
		c0.8,0,1.7,0,2.5,0c0.1,0,0.2,0.1,0.2,0.2C49.6,57.9,49.6,59.2,49.6,60.4z"/>
	<path fill="#3C629D" d="M97.4,68.2c-0.1-0.7,0.6-1.4,1.5-1.4c0.7,0,1.4,0.6,1.4,1.4c0,0.9-0.7,1.4-1.4,1.4
		C98,69.6,97.3,69,97.4,68.2z"/>
	<path fill="#E6EEF1" d="M17.8,50.5c0.4-0.5,0.7-1.2,0.9-1.8c0-0.1,0.1-0.2,0.1-0.3c0.1,0.3,0,0.6,0.1,0.9c-0.2,0.2-0.3,0.5-0.4,0.8
		c-0.1,0.2-0.1,0.3,0.1,0.5c0.5,0.6,0.5,1.2,0.4,1.9c-0.2,0.7-0.6,1.1-1.3,1.3c-0.2,0.1-0.4,0.1-0.5,0.2c-0.3,0.3-0.4,0.3-0.8,0.2
		c-0.2-0.1-0.4-0.2-0.6-0.3c-0.2-0.1-0.4-0.3-0.5-0.5c0.1,0,0.2-0.1,0.3-0.1c0.3-0.1,0.5-0.3,0.8-0.4c0,0.1,0,0.1,0.1,0.2
		c0.4,0.3,1,0.2,1.3-0.2c0-0.1,0.1-0.1,0.2-0.2c0.4-0.4,0.3-1,0.3-1.5c0-0.1-0.1-0.2-0.2,0c-0.1,0.1-0.2,0.3-0.4,0.4
		c-0.1-0.1-0.3-0.1-0.4-0.2C17.4,51.1,17.7,50.9,17.8,50.5z"/>
	<path fill="#BFCDD2" d="M28.6,64.4c0.1,0,0.3,0,0.4,0.1c-0.2,0.4-0.5,0.8-0.7,1.2c-0.6,1.3-0.7,2.5,0,3.8c0.5,0.9,1.2,1.5,2.2,1.7
		c0.9,0.2,1.8,0.1,2.7-0.3c0.1,0,0.1,0,0.2,0c0.7-0.3,1.3-0.6,1.9-0.9c0,0.1,0.1,0.1,0.2,0.1c0.1,0,0.2,0,0.2,0.1
		c-0.6,0.5-1.2,0.8-1.9,1.1c-0.6,0.3-1.3,0.5-2,0.5c-0.8,0-1.5-0.1-2.2-0.5c-0.9-0.5-1.6-1.2-2-2.2c-0.2-0.6-0.3-1.3-0.2-1.9
		C27.6,66.1,28,65.2,28.6,64.4z"/>
	<path fill="#BFCDD2" d="M40.8,60.1c0.1-0.1,0.2-0.2,0.3-0.3c0.2,0.3,0.6,0.5,0.9,0.7c0.8,0.7,1.5,1.4,1.7,2.4
		c0.3,1.2,0,2.3-0.7,3.3c-0.6,0.9-1.5,1.1-2.4,1.3c-0.2,0-0.4,0.1-0.6,0.1c0-0.1,0-0.2,0-0.3c0.4,0,0.8-0.1,1.2-0.3
		c0.1,0,0.2,0,0.2-0.1c1.1-0.4,1.6-1.3,1.9-2.4c0.1-0.5,0.2-1,0.1-1.5c-0.2-1-0.8-1.7-1.6-2.3C41.5,60.6,41.1,60.4,40.8,60.1z"/>
	<path fill="#BFCDD2" d="M15.5,53.3c-0.1,0-0.2,0.1-0.3,0.1c-0.3,0.1-0.7,0.2-1,0.2c-0.1,0-0.2,0-0.2,0.1c0,0.1,0.1,0.1,0.1,0.2
		c0.8,0.6,1.6,0.9,2.5,1.1c0,0,0.1,0,0.1,0c0.1,0,0.1,0,0.2,0c0.1,0,0.3,0,0.4,0c1.1,0,2.2-0.3,3.1-0.9c0.1,0.1,0.1,0.2,0.2,0.3
		c-0.4,0.2-0.8,0.4-1.2,0.6c-1.5,0.6-2.9,0.5-4.4-0.2c-0.6-0.3-1.1-0.7-1.6-1.1c-0.1-0.1-0.2-0.1-0.2-0.2c0-0.1,0.2-0.1,0.2-0.1
		c0.7,0,1.2-0.2,1.8-0.5C15.5,53.1,15.5,53.2,15.5,53.3z"/>
	<path fill="#BFCDD2" d="M35.4,43.4c0,0-0.1-0.1-0.1-0.1c0-0.2,0.1-0.2,0.2-0.3c0.1-0.1,0.3-0.1,0.4-0.2c0.9-0.5,1.6-1.2,2.1-2
		c0.2-0.3,0.4-0.6,0.4-1c0.2,0,0.2-0.2,0.2-0.3c0.3-0.9,0.4-1.9,0.4-2.8c0-0.1,0-0.1-0.1-0.2c-0.2,0.3-0.4,0.5-0.6,0.8
		c-0.3,0.4-0.7,0.7-1,1.1c-0.1,0-0.2,0.1-0.2,0.1c0-0.1-0.1-0.1-0.1-0.1c0.5-0.5,1-1,1.4-1.6c0.2-0.3,0.4-0.6,0.6-0.9
		c0.2,0.2,0.1,0.5,0.1,0.7c0,1.1-0.1,2.3-0.5,3.4c-0.6,1.5-1.6,2.7-3.1,3.3C35.5,43.3,35.4,43.3,35.4,43.4z"/>
	<path fill="#DBE7EB" d="M30.5,39.5c0.3,0.2,0.6,0.2,0.9,0.4c0.1,0.1,0.2,0.1,0.3,0.2c0,0.1,0,0.1,0,0.2c-0.1,0-0.2,0-0.2-0.1
		c-0.5-0.3-1-0.4-1.5-0.6c-0.9-0.2-1.8-0.2-2.7,0c-0.8,0.2-1.6,0.4-2.3,0.9c-0.2,0-0.4,0.3-0.6,0.3c0-0.1-0.1-0.1-0.1-0.2
		c1-0.6,2.1-1.1,3.3-1.3c0.9-0.1,1.8-0.1,2.7,0.2C30.3,39.5,30.4,39.5,30.5,39.5z"/>
	<path fill="#FBFCFC" d="M35.3,39.8c0.3-0.3,0.5-0.4,0.9-0.3c0.1,0,0.3-0.1,0.4-0.3c0.4-0.1,0.8-0.4,1-0.8c0.2-0.1,0.3-0.4,0.5-0.4
		c0,0,0,0,0,0c0,0.1-0.1,0.2-0.1,0.3c-0.2,0.2-0.4,0.5-0.6,0.7c-0.2,0.1-0.3,0.3-0.5,0.4c-0.3,0.2-0.5,0.4-0.6,0.7
		c-0.2,0.4-0.6,0.5-1,0.3c-0.1,0-0.1-0.1-0.2-0.1c-0.4,0.1-0.7,0.2-1.1,0.2c-0.2,0-0.3,0-0.5,0c0,0,0,0,0,0c0.2,0,0.3-0.1,0.5-0.1
		C34.5,40.4,34.9,40.2,35.3,39.8z"/>
	<path fill="#CEDEE4" d="M21.6,55.7c0.1-0.1,0.2-0.1,0.2-0.2c0.1,0.3,0.2,0.5,0.4,0.7c0.1,0.2,0.2,0.4,0.4,0.6
		c0.5,0.7,1.1,1.4,1.7,2.1c0.5,0.5,0.9,1.1,1.5,1.5c0,0.1,0,0.2-0.1,0.3c-0.1,0-0.2-0.1-0.3-0.2c-1.3-1.3-2.5-2.7-3.6-4.2
		C21.7,56.1,21.6,56,21.6,55.7z"/>
	<path fill="#CEDEE4" d="M39.9,67.4c0,0.1,0,0.2,0,0.3c-0.8,0.1-1.6,0.2-2.2,0.7c-0.4,0.3-0.8,0.7-1.2,1c-0.3,0.2-0.5,0.5-0.9,0.6
		c0-0.1-0.1-0.1-0.2-0.1c-0.1,0-0.2,0-0.2-0.1c0.2-0.1,0.3-0.2,0.5-0.3c0.5-0.3,1-0.7,1.4-1c0.2-0.2,0.5-0.3,0.6-0.5
		c0.1,0.1,0.2,0,0.3,0c0.4-0.1,0.7-0.2,1.1-0.3c0.2,0,0.3,0,0.5-0.1C39.7,67.5,39.8,67.4,39.9,67.4z"/>
	<path fill="#DBE7EB" d="M15.5,53.3c0-0.1-0.1-0.2-0.1-0.3c0.5-0.4,1-0.7,1.4-1.2c0.1-0.1,0.2-0.2,0.3-0.3c0.1,0.1,0.3,0.1,0.4,0.2
		c-0.3,0.5-0.8,0.9-1.3,1.3C16,53.1,15.8,53.2,15.5,53.3z"/>
	<path fill="#EDF3F5" d="M24.2,40.6c0,0.1,0.1,0.2,0.1,0.2c-0.4,0.4-0.9,0.6-1.3,0.9c-0.3,0.3-0.8,0.5-1,0.9c0,0-0.1,0.1-0.1,0.1
		c0,0-0.1,0-0.1,0c-0.1,0-0.2,0.1-0.2,0c-0.1-0.1,0-0.1,0.1-0.2c0.3-0.2,0.5-0.5,0.8-0.7c0.5-0.4,1.1-0.8,1.6-1.2
		C24,40.7,24.1,40.7,24.2,40.6z"/>
	<path fill="#E6EEF1" d="M37.6,38.5c-0.3,0.3-0.6,0.6-1,0.8c-0.1-0.1-0.2,0-0.3,0c-0.1,0-0.1,0-0.2,0c0-0.1,0-0.1,0-0.2
		c0.2-0.1,0.3-0.3,0.5-0.3c0,0.2,0.1,0.1,0.2,0.1c0.2-0.1,0.4-0.2,0.5-0.4c0.1,0,0.2-0.1,0.2-0.1C37.5,38.4,37.5,38.5,37.6,38.5z"/>
	<path fill="#BFCDD2" d="M40.9,51.9c-0.1,0-0.2,0-0.3-0.1c-0.2-0.2-0.4-0.4-0.5-0.6c-0.4-0.4-0.6-0.9-0.9-1.3c0-0.1,0.1-0.1,0.1-0.1
		c0.1,0,0.1,0.1,0.2,0.2C39.9,50.7,40.4,51.3,40.9,51.9z"/>
	<path fill="#EDF3F5" d="M35.3,39.8c-0.3,0.4-0.8,0.6-1.3,0.7c0-0.1,0-0.1,0-0.2c0.1,0,0.2-0.1,0.2-0.1c0.1,0,0.2,0,0.3-0.1
		c0.2-0.1,0.4-0.1,0.4-0.3c0.1-0.1,0.2-0.1,0.3-0.2C35.2,39.7,35.2,39.8,35.3,39.8z"/>
	<path fill="#CEDEE4" d="M37.2,38.5c-0.1,0.2-0.3,0.3-0.5,0.4c-0.1,0.1-0.2,0.1-0.2-0.1c0.2-0.2,0.3-0.4,0.6-0.5
		C37.2,38.4,37.2,38.4,37.2,38.5z"/>
	<path fill="#BFCDD2" d="M121.4,56.3c-0.1,0-0.1,0-0.2,0C121.3,56.1,121.3,56.1,121.4,56.3z"/>
	<path fill="#E20304" d="M26.6,63.5C26.6,63.5,26.7,63.6,26.6,63.5C26.6,63.6,26.6,63.6,26.6,63.5z"/>
	<path fill="#BFCDD2" d="M65.7,62.5C65.7,62.6,65.7,62.6,65.7,62.5C65.7,62.6,65.6,62.6,65.7,62.5C65.6,62.6,65.7,62.5,65.7,62.5z"
		/>
	<path fill="#CEDEE4" d="M33.2,70.8c-0.9,0.4-1.7,0.5-2.7,0.3c-1-0.2-1.7-0.8-2.2-1.7c-0.7-1.3-0.5-2.5,0-3.8
		c0.2-0.4,0.5-0.8,0.7-1.2c0.4,0,0.8,0,1.2,0.1c-0.2,0.8-0.2,1.7,0,2.5c0.1,0.5,0.3,1,0.6,1.5c0.1,0.2,0.1,0.5,0.4,0.5
		c0,0.3,0.2,0.5,0.4,0.6c0,0.1,0.1,0.2,0.1,0.2c0.3,0.4,0.8,0.6,1.2,0.9C33.1,70.7,33.2,70.7,33.2,70.8z"/>
	<path fill="#CEDEE4" d="M40.8,60.1c0.3,0.2,0.7,0.4,1,0.7c0.8,0.6,1.4,1.3,1.6,2.3c0.1,0.5,0,1-0.1,1.5c-0.3,1.1-0.9,1.9-1.9,2.4
		c-0.1,0-0.2,0.1-0.2,0.1c-0.1-0.4,0.1-0.8,0.2-1.3c0-0.6-0.1-1.1-0.2-1.6c-0.3-1-0.8-1.8-1.5-2.6c-0.1-0.1-0.3-0.2-0.2-0.4
		C39.8,60.9,40.3,60.5,40.8,60.1z"/>
	<path fill="#640000" d="M34.2,59.1c0,1.1-0.8,1.9-1.8,1.9c-1,0-1.9-0.9-1.8-1.9c0-1.2,1-1.9,1.9-1.9C33.3,57.2,34.2,58.1,34.2,59.1
		z"/>
	<path fill="#DBE7EB" d="M39.3,61.3c0,0.2,0.1,0.3,0.2,0.4c0.7,0.7,1.3,1.6,1.5,2.6c0.1,0.5,0.2,1.1,0.2,1.6c0,0.4-0.2,0.8-0.2,1.3
		c-0.4,0.2-0.8,0.2-1.2,0.3c-0.1,0-0.3,0.1-0.4,0.1c-0.1-0.3-0.2-0.6-0.2-1c0.1,0,0.1-0.1,0.1-0.2c0.1-0.6,0.1-1.2-0.2-1.9
		c-0.3-0.7-0.7-1.2-1.2-1.8c-0.1-0.1-0.3-0.2-0.4-0.4C38.2,61.9,38.8,61.6,39.3,61.3z"/>
	<path fill="#EDF3F5" d="M32.4,64.3c0.9-0.2,1.9-0.5,2.8-0.8c0.4-0.2,0.9-0.3,1.3-0.5c0,0.1,0.1,0.1,0.2,0.1
		c0.4,0.1,0.8,0.4,1.1,0.7c0.3,0.4,0.6,0.8,0.7,1.3c-0.3,0-0.6,0-0.9,0.1c-0.1-0.4-0.3-0.7-0.6-1c-0.3-0.2-0.6-0.3-1-0.4
		c-0.3-0.1-0.6,0-0.8,0.1c-0.5,0.2-0.8,0.6-1.2,1c-0.1,0.1-0.1,0.2,0,0.2c0.1,0.2,0.2,0.3,0.3,0.5c0.2,0.2,0.4,0.5,0.7,0.7
		c-0.4,0.3-0.7,0.7-1,1c-0.6-0.4-1-0.8-1.2-1.5c0.1-0.3,0.5-0.5,0.6-0.8c0,0,0,0,0,0c0,0,0,0,0,0c-0.1,0-0.1,0-0.2,0.1
		c-0.3,0.2-0.6,0.6-0.9,0.8c-0.1-0.2-0.1-0.4,0-0.6C32.2,64.9,32.3,64.6,32.4,64.3z M33.3,64.9C33.3,64.9,33.3,64.9,33.3,64.9
		C33.3,64.9,33.3,64.9,33.3,64.9C33.3,64.9,33.3,64.9,33.3,64.9C33.3,64.9,33.4,64.9,33.3,64.9C33.4,64.9,33.4,64.9,33.3,64.9
		C33.4,64.9,33.3,64.9,33.3,64.9z"/>
	<path fill="#DBE7EB" d="M32.4,64.3c-0.1,0.3-0.2,0.6-0.3,1c0,0.2,0,0.4,0,0.6c0,0.1-0.1,0.2-0.2,0.3c-0.3,0.3-0.4,0.7-0.6,1.1
		c-0.1,0.2-0.1,0.3,0,0.5c-0.1,0-0.2,0-0.2,0.2c-0.1,0.3-0.1,0.7-0.1,1c-0.3,0-0.3-0.3-0.4-0.5c-0.3-0.5-0.5-0.9-0.6-1.5
		c-0.2-0.8-0.2-1.7,0-2.5C30.9,64.5,31.6,64.4,32.4,64.3z"/>
	<path fill="#640000" d="M38.5,55.5c0.1,0.1,0.1,0.2,0.3,0.2l0,0c0.1,0.3,0.3,0.4,0.3,0.7c0.1,0.6-0.1,1-0.5,1.4
		c-0.4,0.3-0.9,0.4-1.4,0.1c-0.5-0.2-0.8-0.6-0.8-1.2c-0.1-1,1-1.7,2-1.3C38.4,55.4,38.5,55.5,38.5,55.5L38.5,55.5z"/>
	<path fill="#E6EEF1" d="M38.3,65.1c0-0.5-0.3-0.9-0.7-1.3c-0.3-0.3-0.7-0.6-1.1-0.7c-0.1,0-0.2,0-0.2-0.1c0.4-0.2,0.8-0.4,1.3-0.7
		c0.1,0.2,0.3,0.2,0.4,0.4c0.5,0.5,1,1,1.2,1.8c0.2,0.6,0.2,1.2,0.2,1.9c0,0.1,0,0.2-0.1,0.2c0-0.2-0.1-0.4-0.1-0.6
		C39.1,65.2,39.1,65.2,38.3,65.1z"/>
	<path fill="#E20304" d="M33.2,61.1c1-0.4,1.1-1.3,1.1-2.3C34.8,59.8,34.3,61,33.2,61.1z"/>
	<path fill="#640000" d="M37.1,61.3c0.1,0.2,0.1,0.3,0.1,0.5c0,0.5-0.2,0.6-0.6,0.4c-0.1,0-0.2-0.1-0.3-0.2c0.3,0,0.5,0,0.6-0.1
		C37.1,61.8,37.1,61.6,37.1,61.3z"/>
	<path fill="#E20304" d="M38.6,55.5c-0.1-0.2-0.3-0.3-0.5-0.3c-0.3,0-0.6,0-0.8,0.1c-0.1,0-0.1,0-0.2,0l0,0c0.5-0.4,1.2-0.4,1.6-0.1
		c0.1,0,0.2,0.1,0.1,0.2C38.7,55.5,38.6,55.5,38.6,55.5C38.5,55.5,38.6,55.5,38.6,55.5z"/>
	<path fill="#E20304" d="M37,55.3C37,55.3,37,55.3,37,55.3C37,55.3,37,55.3,37,55.3C37,55.3,37,55.3,37,55.3z"/>
	<path fill="#E20304" d="M38.8,55.6C38.8,55.6,38.9,55.6,38.8,55.6C38.9,55.6,38.8,55.6,38.8,55.6C38.8,55.7,38.8,55.6,38.8,55.6z"
		/>
	<path fill="#E6EEF1" d="M25.7,60.3c-0.6-0.4-1-1-1.5-1.5c-0.6-0.7-1.2-1.4-1.7-2.1c-0.1-0.2-0.3-0.3-0.4-0.6c0.1,0,0.2,0,0.2,0
		c0.4,0,0.8,0,0.9-0.4c0-0.1,0.1-0.1,0.1-0.1c0,0,0,0.1,0,0.1c-0.1,0.1,0,0.2,0.1,0.2c0.1,0,0.2-0.1,0.2-0.2c0-0.1,0-0.1,0.1-0.1
		c0.2,0.2,0.3,0.2,0.5,0c0.1,0,0.1-0.1,0.2-0.1c0.1-0.1,0.2-0.2,0.1-0.3c0-0.1-0.1-0.1,0-0.2c0.1,0,0.1,0,0.2,0c0.1,0,0,0.1,0,0.2
		c0,0.1-0.1,0.2,0.1,0.2c0.2,0,0.5-0.4,0.6-0.6c0,0,0.1,0,0.1,0c1,0.3,1.9,0.3,2.9,0c1-0.3,1.8-0.9,2.1-2c0.1-0.2,0-0.3-0.2-0.2
		C30,52.8,29.6,53,29.1,53c0-0.1,0-0.2,0.1-0.3c0.7-0.3,0.8-1.1,1.2-1.7c0.3-0.4,0.4-1,0.6-1.5c0.2-0.4,0.3-0.8,0.3-1.2
		c0.1-0.6,0-1.3,0.3-1.9c0-0.1,0-0.2,0-0.3c-0.1-0.3,0-0.6,0.1-0.9c0.1-0.2,0.1-0.3,0.2-0.5c0.2-0.9,0.4-1.8,0.5-2.6
		c0-0.2,0-0.4,0.1-0.6c0.1-0.2-0.3-0.3,0-0.5c0,0,0-0.1-0.1-0.1c-0.1-0.1-0.1-0.1-0.1-0.2c0.1,0,0.1,0,0.2,0.1
		c0.7,0.5,1.3,1.1,1.8,1.7c0.2,0.3,0.5,0.5,0.7,0.8c-0.8,0.6-1.6,1.3-2.3,2.1c-0.2,0.3-0.4,0.6-0.6,0.9c-0.5,0.9-0.4,2.4,0.6,3.2
		c0.4,0.3,0.4,0.3,0.2,0.8c-0.1,0.4-0.3,0.8-0.2,1.2c0,0.6,0.6,1,1.2,0.9c0.1,0,0.2,0,0.4,0c0,0.2-0.1,0.3-0.1,0.4
		c-1.2,0.5-2.5,1.1-3.6,1.9c-1.6,1.1-3,2.3-4.1,4C26.2,59.2,25.9,59.8,25.7,60.3z M30.6,53.7c-0.6,0.8-1.3,1.4-2.2,1.7
		C29.3,55.3,30.4,54.6,30.6,53.7z M30.7,53.6C30.7,53.6,30.7,53.6,30.7,53.6C30.7,53.5,30.6,53.5,30.7,53.6
		C30.6,53.5,30.6,53.6,30.7,53.6C30.6,53.6,30.6,53.6,30.7,53.6z M30.7,53.3C30.7,53.3,30.7,53.3,30.7,53.3
		C30.7,53.3,30.7,53.3,30.7,53.3C30.7,53.3,30.7,53.3,30.7,53.3z"/>
	<path fill="#DBE7EB" d="M34.2,52.9c0-0.1,0.1-0.3,0.1-0.4c0.7-0.2,1.4-0.4,2-0.7c1-0.5,2-1,2.8-1.8c0.3,0.4,0.6,0.9,0.9,1.3
		c0.2,0.2,0.4,0.4,0.5,0.6c-2.2-0.2-4.3,0.2-6.3,1C34.3,52.9,34.2,52.8,34.2,52.9z"/>
	<path fill="#FBFCFC" d="M33.6,51.2L33.6,51.2C33.6,51.2,33.6,51.2,33.6,51.2c-0.1-0.1,0-0.2,0.1-0.2c0.4-0.4,0.8-0.8,1.1-1.2
		c0.2-0.1,0.3-0.5,0.6-0.6c0.4,0.3,0.8,0.3,1.2,0.3c-0.1,0.5-0.4,0.9-0.7,1.2c-0.5,0.5-1.2,0.6-1.9,0.5c0,0-0.1,0-0.1,0
		C33.8,51.2,33.7,51.2,33.6,51.2z"/>
	<path fill="#3C629D" d="M34,51.2c0.7,0,1.4-0.1,1.9-0.5c0.4-0.3,0.6-0.7,0.7-1.2c0.3-0.9,0.3-1.9,0.1-2.9c-0.2,0.5-0.4,1-0.7,1.4
		c0,0-0.1-0.1-0.1-0.1c0.3-0.6,0.6-1.1,0.8-1.7c0.1,0.4,0.2,0.6,0.2,0.9c0.1,0.8,0.2,1.6,0,2.4c-0.3,1.2-1.1,1.8-2.3,1.8
		C34.4,51.3,34.2,51.4,34,51.2z"/>
	<path fill="#CEDEE4" d="M35.1,43.5c-0.2-0.3-0.4-0.6-0.7-0.8c-0.6-0.6-1.1-1.2-1.8-1.7c0,0-0.1,0-0.2-0.1c-0.1-0.1-0.3-0.2-0.3-0.3
		c0-0.1,0-0.2,0-0.2l0,0c0.3,0.3,0.7,0.2,1.1,0.1c0.4-0.1,0.7-0.2,1.1-0.3c0,0,0,0.1,0,0.1c-0.1,0-0.2,0.1-0.2,0.1
		c-0.3,0.1-0.7,0.2-1,0.3c-0.1,0-0.1,0-0.1,0.1c0,0.1,0,0.1,0.1,0.1c0.7,0.5,1.3,1.1,1.8,1.8c0.1,0.1,0.2,0.2,0.4,0.2
		c0.3,0,0.5,0,0.8,0.1c-0.1,0.1-0.3,0.2-0.4,0.2c-0.1,0-0.3,0.1-0.2,0.3C35.2,43.4,35.1,43.4,35.1,43.5z"/>
	<path fill="#38302E" d="M32.7,49c0.8-0.8,1.4-1.8,1.8-2.9C34.7,47.3,33.9,48.9,32.7,49z"/>
	<path fill="#3C629D" d="M36.4,51c-0.2,0.6-1.6,1-2.5,0.6c0.5-0.1,0.9,0,1.3-0.1C35.6,51.4,36,51.2,36.4,51z"/>
	<path fill="#BFCDD2" d="M35.9,47.9c0,0,0.1,0.1,0.1,0.1c-0.1,0.1-0.1,0.2-0.2,0.3c-0.1,0.3-0.4,0.5-0.5,0.8
		c-0.3,0.1-0.3,0.4-0.6,0.6c0,0-0.1-0.1-0.1-0.1C35.2,49.1,35.6,48.5,35.9,47.9z"/>
	<path fill="#3C629D" d="M34.7,49.6c0,0,0.1,0.1,0.1,0.1c-0.3,0.4-0.7,0.8-1.1,1.2c-0.1,0.1-0.2,0.1-0.1,0.2c-0.1,0-0.3,0-0.1-0.1
		C33.9,50.6,34.3,50.1,34.7,49.6z"/>
	<path fill="#3C629D" d="M33.6,51.2c0.1,0,0.2,0,0.2,0C33.8,51.3,33.7,51.3,33.6,51.2z"/>
	<path fill="#3C629D" d="M33.7,51.5C33.7,51.5,33.7,51.5,33.7,51.5C33.7,51.5,33.7,51.5,33.7,51.5C33.7,51.5,33.7,51.5,33.7,51.5
		C33.7,51.5,33.7,51.5,33.7,51.5z"/>
	<path fill="#3C629D" d="M36.6,50.9C36.6,50.9,36.6,50.9,36.6,50.9C36.6,50.9,36.6,50.9,36.6,50.9C36.6,50.9,36.6,50.9,36.6,50.9z"
		/>
	<path fill="#3C629D" d="M36.6,50.8C36.6,50.8,36.6,50.9,36.6,50.8C36.6,50.9,36.6,50.9,36.6,50.8C36.6,50.9,36.6,50.9,36.6,50.8
		C36.6,50.8,36.6,50.8,36.6,50.8z"/>
	<path fill="#3C629D" d="M36.6,50.8C36.6,50.8,36.7,50.8,36.6,50.8C36.7,50.8,36.6,50.8,36.6,50.8C36.6,50.8,36.6,50.8,36.6,50.8z"
		/>
	<path fill="#F6F6F6" d="M21.9,42.7c0.3-0.4,0.7-0.6,1-0.9c0.4-0.4,0.9-0.6,1.3-0.9c0.2,0,0.4-0.3,0.6-0.3c0.1,0.1,0.3,0,0.4,0.2
		c0.3,0.6,1,1,1.3,1.7c0.1,0.2,0.2,0.4,0.3,0.6c0.3,0.4,0.4,0.8,0.5,1.3c0.1,0.4,0.1,0.8,0.2,1.2c0,0.1,0,0.1,0.1,0.2
		c0.2,0.1,0.2,0.3,0,0.4c-0.1,0.1-0.2,0.1-0.2,0.2c0,0.4-0.1,0.7-0.1,1.1c0,0.4-0.2,0.8-0.2,1.3c0,0-0.1,0.1-0.1,0.1
		c-0.3,0.5-0.7,0.9-0.8,1.5c0,0.1,0,0.1-0.1,0.2c-0.2,0.1-0.3,0.3-0.4,0.4c-0.1,0-0.2,0-0.3,0c-0.6,0.3-1.2,0.3-1.8,0.3
		c0,0,0-0.1,0-0.1c0-0.2,0.1-0.3,0-0.5c-0.1-0.6-0.4-0.8-0.9-1c0.1-0.2,0.2-0.4,0.4-0.5c0.3-0.3,0.7-0.6,0.9-1
		c0.2-0.7,0.5-1.3,0.5-2.1c0-0.5-0.1-0.9-0.3-1.3c-0.2-0.5-0.4-1-0.9-1.3c-0.2-0.1-0.3-0.3-0.5-0.5c-0.1-0.2-0.1-0.3,0-0.4
		c0.3-0.3,0.6-0.6,0.9-0.9c-0.2,0-0.4,0.2-0.6,0.3c-0.4,0.2-0.7,0.5-1.1,0.8C22.1,42.6,22,42.7,21.9,42.7z"/>
	<path fill="#3C629D" d="M22.9,49.6c0.5,0.2,0.8,0.5,0.9,1c0,0.2-0.1,0.3,0,0.5c-1.5,0-2.9-0.2-4.3-0.6c-0.1,0-0.2,0-0.3-0.1
		c-0.1-0.4-0.2-0.8-0.2-1.2c0-0.3,0-0.6-0.1-0.9c0-0.4,0-0.7,0.1-1.1c0.3,0.4,0.6,0.8,1,1.2c0.6,0.6,1.3,0.9,2.2,1
		C22.4,49.5,22.6,49.6,22.9,49.6z"/>
	<path fill="#DBE7EB" d="M34.2,40.2c0,0,0-0.1,0-0.1c0.2-0.1,0.5-0.2,0.7-0.3c0,0.3-0.2,0.3-0.4,0.3C34.4,40.2,34.3,40.2,34.2,40.2z
		"/>
	<path fill="#CEDEE4" d="M31.7,40.3c0-0.1,0-0.1,0-0.2c0.1,0,0.3,0.1,0.4,0.2c0,0,0,0,0,0c-0.1,0-0.2,0-0.2,0.1
		C31.8,40.4,31.8,40.4,31.7,40.3z"/>
	<path fill="#EDF3F5" d="M31.7,40.3c0,0,0.1,0,0.1,0.1c0,0.1,0.1,0.1,0.2,0.2c0.1,0.1,0.3,0.1,0.3,0.3c0,0.1,0,0.2,0.1,0.2
		c0,0,0,0.1,0.1,0.1c-0.2,0.2,0.1,0.3,0,0.5c-0.1,0.2,0,0.4-0.1,0.6c-0.1,0.9-0.3,1.8-0.5,2.6c0,0.2-0.1,0.3-0.2,0.5
		c-0.1,0.3-0.2,0.6-0.1,0.9c0,0.1,0,0.2,0,0.3c-0.2,0.6-0.2,1.3-0.3,1.9c-0.1,0.4-0.2,0.8-0.3,1.2c-0.2,0.5-0.3,1-0.6,1.5
		c-0.4,0.6-0.5,1.3-1.2,1.7c-0.1,0-0.1,0.1-0.1,0.3c-0.5,0.1-0.9,0.2-1.4,0.2c-0.5,0.1-1.1,0.1-1.6,0.2c-0.6,0-1.3,0.1-1.9,0.1
		c-0.2,0-0.4-0.1-0.4,0c0,0.2,0.2,0.3,0.3,0.4c0.4,0.4,0.9,0.6,1.4,0.8c0,0.2-0.4,0.5-0.6,0.6c-0.2,0-0.1-0.1-0.1-0.2
		c0-0.1,0.1-0.1,0-0.2c-0.1,0-0.1,0-0.2,0c-0.1,0-0.1,0.1,0,0.2c0.1,0.2,0,0.2-0.1,0.3c-0.1,0-0.1,0.1-0.2,0.1
		c-0.3,0.2-0.3,0.2-0.5,0c-0.1,0-0.1,0.1-0.1,0.1c0,0.1-0.1,0.2-0.2,0.2c-0.1,0-0.2-0.1-0.1-0.2c0,0,0-0.1,0-0.1
		c-0.1,0-0.1,0-0.1,0.1c-0.1,0.5-0.5,0.5-0.9,0.4c-0.1,0-0.2,0-0.2,0c-0.2-0.2-0.3-0.4-0.4-0.7c0.2-0.3,0.2-0.7,0.1-1
		c-0.1-0.3-0.2-0.6-0.3-1c-0.2-0.5,0-0.8,0.6-0.9c0.3,0,0.5-0.1,0.8-0.3c0.4-0.3,0.7-0.6,0.9-1.1c0.6-0.1,1.2-0.1,1.8-0.3
		c1,0.9,3.2,0.9,3.6,0c-1.1,0.3-2.2,0.2-3.3,0c0.1-0.2,0.2-0.4,0.4-0.4c0.1,0,0.1-0.1,0.1-0.2c0.1-0.6,0.5-1,0.8-1.5
		c0,0,0.1-0.1,0.1-0.1c0-0.4,0.2-0.8,0.2-1.3c0-0.4,0.2-0.7,0.1-1.1c0-0.1,0.1-0.1,0.2-0.2c0.1-0.2,0.2-0.3,0-0.4
		c-0.1,0-0.1-0.1-0.1-0.2c-0.1-0.4-0.1-0.8-0.2-1.2c-0.1-0.4-0.2-0.9-0.5-1.3c-0.1-0.2-0.2-0.4-0.3-0.6c-0.3-0.7-0.9-1.1-1.3-1.7
		c-0.1-0.2-0.3-0.1-0.4-0.2c0.7-0.4,1.5-0.7,2.3-0.9c0.9-0.2,1.8-0.2,2.7,0c0.5,0.1,1,0.2,1.5,0.6C31.6,40.3,31.6,40.3,31.7,40.3z"
		/>
	<path fill="#DBE7EB" d="M18.9,49.3c0.1,0.4,0.2,0.8,0.2,1.2c0.2,0.8,0.5,1.6,0.8,2.4c-0.2,0.1-0.2,0.3-0.4,0.5
		c-0.5,0.8-1.2,1.3-2.1,1.4c-0.2,0-0.4-0.1-0.5,0.2c-0.1,0-0.1,0-0.2,0c0,0,0-0.1-0.1-0.1c0,0,0,0.1,0,0.1c-0.9-0.1-1.8-0.5-2.5-1.1
		c-0.1,0-0.1-0.1-0.1-0.2c0-0.1,0.1-0.1,0.2-0.1c0.4,0,0.7-0.2,1-0.2c0.1,0.2,0.3,0.4,0.5,0.5c0.2,0.1,0.4,0.2,0.6,0.3
		c0.4,0.2,0.5,0.1,0.8-0.2c0.1-0.1,0.3-0.2,0.5-0.2c0.6-0.2,1.1-0.7,1.3-1.3c0.2-0.7,0.2-1.4-0.4-1.9c-0.1-0.1-0.2-0.3-0.1-0.5
		C18.7,49.9,18.7,49.5,18.9,49.3z"/>
	<path fill="#CEDEE4" d="M17,55c0.1-0.2,0.3-0.1,0.5-0.2c0.9-0.1,1.6-0.6,2.1-1.4c0.1-0.2,0.1-0.4,0.4-0.5c0.2,0.4,0.4,0.8,0.6,1.2
		c-1,0.5-2,0.9-3.1,0.9C17.3,55,17.1,55,17,55z"/>
	<path fill="#F6F6F6" d="M16.3,52.9c0.5-0.4,1-0.8,1.3-1.3c0.2-0.1,0.2-0.3,0.4-0.4c0.1-0.1,0.2,0,0.2,0c0,0.5,0.2,1-0.3,1.5
		c-0.1,0.1-0.1,0.1-0.2,0.2c-0.3,0.4-0.9,0.5-1.3,0.2C16.3,53.1,16.3,53,16.3,52.9z"/>
	<path fill="#DBE7EB" d="M33.2,70.8c0-0.1-0.1-0.1-0.2-0.2c-0.4-0.2-0.9-0.5-1.2-0.9c-0.1-0.1-0.1-0.1-0.1-0.2
		c0.4,0.1,0.8,0.1,1.3,0.2c0.2,0,0.3,0,0.4-0.2c0.1-0.2,0.2-0.4,0.3-0.7c0.4,0.2,0.8,0.4,1.3,0.5c0.3,0,0.6,0.1,0.9,0.1
		c-0.2,0.1-0.3,0.2-0.5,0.3c-0.6,0.3-1.2,0.7-1.9,0.9C33.3,70.8,33.2,70.8,33.2,70.8z"/>
	<path fill="#CEDEE4" d="M16.7,55C16.7,55,16.7,54.9,16.7,55c0.1-0.1,0.1,0,0.1,0C16.8,55,16.7,55,16.7,55z"/>
	<path fill="#DBE7EB" d="M35.9,42.8c-0.3,0-0.5,0-0.8-0.1c-0.2,0-0.3,0-0.4-0.2c-0.6-0.6-1.2-1.2-1.8-1.8c0,0-0.1-0.1-0.1-0.1
		c0-0.1,0.1-0.1,0.1-0.1c0.3-0.1,0.7-0.2,1-0.3c0,0.1,0,0.1,0,0.2c-0.2,0-0.3,0.1-0.5,0.1c0,0,0,0,0,0c0.2,0,0.3,0,0.5,0
		c0,0,0,0.1,0,0.1c0.4,0.6,1,0.9,1.7,0.9c1.4-0.1,2.1-1.2,1.7-2.6c0.2-0.2,0.4-0.5,0.6-0.7c0.1,0,0.1,0.1,0.2,0.2
		c0.1,0.4,0.3,0.8,0.3,1.2c0,0.4-0.3,0.7-0.4,1C37.5,41.7,36.8,42.4,35.9,42.8z"/>
	<path fill="#CEDEE4" d="M38.4,39.8c0-0.4-0.2-0.8-0.3-1.2c0-0.1-0.1-0.1-0.2-0.2c0-0.1,0.1-0.2,0.1-0.3c0.1,0,0.1-0.1,0.1-0.2
		c0,0,0,0,0,0c0,0,0,0,0,0c-0.1,0-0.1,0.1-0.1,0.2c-0.2,0.1-0.3,0.3-0.5,0.4c0-0.1-0.1-0.1-0.1-0.2c0.3-0.4,0.7-0.7,1-1.1
		c0.2-0.3,0.4-0.5,0.6-0.8c0.1,0,0.1,0.1,0.1,0.2c0,1-0.1,1.9-0.4,2.8C38.6,39.6,38.6,39.7,38.4,39.8z"/>
	<path fill="#E6EEF1" d="M37.4,39.1c0.4,1.4-0.4,2.5-1.7,2.6c-0.7,0.1-1.3-0.3-1.7-0.9c0,0,0-0.1,0-0.1c0.4-0.1,0.7-0.2,1.1-0.2
		c0.1,0,0.1,0,0.2,0.1c0.4,0.2,0.8,0.1,1-0.3c0.2-0.3,0.4-0.5,0.6-0.7C37.1,39.4,37.2,39.3,37.4,39.1z"/>
	<path fill="#E20304" d="M38.3,65.1c0.7,0.1,0.7,0.1,0.9,0.8c0,0.2,0.1,0.4,0.1,0.6c0,0.3,0.1,0.7,0.2,1c-0.1,0.1-0.3,0.1-0.5,0.1
		c-0.4,0.1-0.7,0.2-1.1,0.3c-0.1,0-0.2,0.1-0.3,0c-0.2-0.2-0.4-0.4-0.6-0.6c-0.3-0.5-0.5-1.1-0.4-1.7c0-0.1,0-0.2,0.1-0.2
		c0.2-0.1,0.4-0.1,0.6-0.2C37.7,65.2,38,65.2,38.3,65.1z"/>
	<path fill="#E6EEF1" d="M37.1,67.3c0.2,0.2,0.4,0.4,0.6,0.6c-0.1,0.3-0.4,0.4-0.6,0.5c-0.5,0.4-0.9,0.7-1.4,1
		c-0.3,0-0.6-0.1-0.9-0.1c-0.5-0.1-0.9-0.3-1.3-0.5c0.1-0.3,0.2-0.5,0.2-0.8c0.2-0.3,0.3-0.6,0.5-0.8c0,0.1,0.1,0.2,0.2,0.2
		c0.3,0.2,0.7,0.3,1.1,0.4c0.3,0,0.5,0,0.7-0.1C36.6,67.6,36.9,67.4,37.1,67.3z"/>
	<path fill="#E20304" d="M33.8,68c-0.1,0.3-0.2,0.5-0.2,0.8c-0.1,0.2-0.2,0.4-0.3,0.7c-0.1,0.2-0.2,0.2-0.4,0.2
		c-0.4-0.1-0.8-0.1-1.3-0.2c-0.3-0.1-0.5-0.2-0.4-0.6c0-0.3,0-0.7,0.1-1c0-0.1,0.1-0.2,0.2-0.2c0,0,0.1,0,0.1,0
		c0.2,0.1,0.5,0.1,0.8,0.1c0.4,0.1,0.8,0.1,1.2,0.1C33.6,68,33.7,68,33.8,68z"/>
	<path fill="#F6F6F6" d="M37.1,67.3c-0.3,0.1-0.5,0.3-0.8,0.4c-0.2,0.1-0.4,0.2-0.7,0.1c-0.4-0.1-0.8-0.2-1.1-0.4
		c-0.1-0.1-0.2-0.1-0.2-0.2c0.6-0.7,1.4-1.2,2.2-1.7c-0.7,0.1-1.2,0.5-1.7,0.8c-0.2-0.2-0.4-0.5-0.7-0.7c-0.1-0.1-0.2-0.3-0.3-0.5
		c0-0.1,0-0.2,0-0.2c0.3-0.4,0.7-0.8,1.2-1c0.3-0.1,0.5-0.1,0.8-0.1c0.4,0.1,0.7,0.2,1,0.4c0.3,0.2,0.5,0.6,0.6,1
		c-0.2,0.1-0.4,0.1-0.6,0.2c-0.1,0-0.1,0.1-0.1,0.2C36.7,66.2,36.8,66.8,37.1,67.3z"/>
	<path fill="#E6EEF1" d="M33.5,68c-0.4,0-0.8,0-1.2-0.1c-0.1-0.3-0.3-0.5-0.5-0.7c0.2-0.5,0.4-0.9,0.8-1.3c0.2,0.7,0.7,1.1,1.2,1.5
		C33.7,67.6,33.5,67.8,33.5,68z"/>
	<path fill="#BFCDD2" d="M33.5,68c0.1-0.2,0.3-0.4,0.3-0.6c0.3-0.4,0.7-0.7,1-1c0.5-0.3,1.1-0.7,1.7-0.8c-0.8,0.5-1.6,1-2.2,1.7
		c-0.2,0.2-0.4,0.5-0.5,0.8C33.7,68,33.6,68,33.5,68z"/>
	<path fill="#BFCDD2" d="M32.5,65.8c-0.3,0.4-0.6,0.9-0.8,1.3c-0.1,0.2-0.2,0.4-0.2,0.6c0,0-0.1,0-0.1,0c-0.1-0.1-0.1-0.3,0-0.5
		c0.2-0.4,0.3-0.8,0.6-1.1c0.1-0.1,0.1-0.2,0.2-0.3c0.3-0.2,0.5-0.6,0.9-0.8c0,0,0.1,0,0.2-0.1l0,0C33,65.4,32.7,65.5,32.5,65.8z"/>
	<path fill="#BFCDD2" d="M33.2,65C33.2,65,33.2,65,33.2,65C33.2,65,33.2,65,33.2,65C33.2,65,33.2,65,33.2,65z"/>
	<path fill="#BFCDD2" d="M33.3,64.9C33.3,64.9,33.3,64.9,33.3,64.9C33.3,64.9,33.3,64.9,33.3,64.9C33.3,64.9,33.3,64.9,33.3,64.9
		L33.3,64.9z"/>
	<path fill="#BFCDD2" d="M33.3,64.9C33.3,64.9,33.4,64.9,33.3,64.9C33.4,64.9,33.4,64.9,33.3,64.9C33.4,64.9,33.3,64.9,33.3,64.9
		C33.3,64.9,33.3,64.9,33.3,64.9z"/>
	<path fill="#BFCDD2" d="M27.7,53.3c0.5,0,0.9-0.2,1.4-0.2c0.4-0.1,0.9-0.2,1.3-0.3c0.2-0.1,0.3,0,0.2,0.2c-0.3,1.1-1,1.7-2.1,2
		c-1,0.3-2,0.3-2.9,0c0,0-0.1,0-0.1,0c-0.5-0.2-1-0.5-1.4-0.8c-0.1-0.1-0.3-0.3-0.3-0.4c0-0.1,0.3,0,0.4,0c0.6,0,1.3-0.1,1.9-0.1
		c0,0.1,0,0.1,0,0.2c-0.1,0.1-0.2,0.1-0.4,0.1c-0.6,0-1.2,0-1.9,0c0.5,0.3,0.9,0.5,1.3,0.7c0.8,0.3,1.6,0.6,2.5,0.5
		c0.2,0,0.5,0.1,0.7-0.2c0.2,0.1,0.3,0,0.5-0.1c0.7-0.4,1.3-0.9,1.6-1.6c0-0.1,0.1-0.1,0-0.2c-0.9,0.3-1.8,0.5-2.8,0.6
		C27.7,53.4,27.7,53.3,27.7,53.3z"/>
	<path fill="#FBFCFC" d="M30.6,53.7c-0.2,0.9-1.3,1.6-2.2,1.7C29.3,55.1,30,54.5,30.6,53.7z"/>
	<path fill="#FBFCFC" d="M30.7,53.6C30.6,53.6,30.6,53.6,30.7,53.6C30.6,53.6,30.6,53.5,30.7,53.6C30.6,53.5,30.7,53.5,30.7,53.6
		C30.7,53.6,30.7,53.6,30.7,53.6z"/>
	<path fill="#FBFCFC" d="M30.7,53.3C30.7,53.3,30.7,53.3,30.7,53.3C30.7,53.3,30.7,53.3,30.7,53.3C30.7,53.3,30.7,53.3,30.7,53.3z"
		/>
	<path fill="#38302E" d="M35.4,49.2c0.1-0.3,0.3-0.5,0.5-0.8c0.1-0.1,0.1-0.2,0.2-0.3c0.3-0.4,0.4-1,0.7-1.4c0.2,1,0.2,1.9-0.1,2.9
		C36.2,49.5,35.8,49.4,35.4,49.2z"/>
	<path fill="#DBE7EB" d="M32.1,40.6c-0.1,0-0.2-0.1-0.2-0.2c0.1-0.1,0.1-0.1,0.2-0.1C32.1,40.4,32.1,40.5,32.1,40.6z"/>
	<path fill="#38302E" d="M25.9,51c1.1,0.2,2.2,0.2,3.3,0c-0.4,0.9-2.6,0.9-3.6,0C25.7,51,25.8,51,25.9,51z"/>
	<path fill="#E6EEF1" d="M26.1,53.6c0-0.1,0-0.1,0-0.2c0.5-0.1,1.1-0.1,1.6-0.2c0,0.1,0,0.1,0,0.2c-0.2,0-0.5,0.1-0.7,0.1
		C26.7,53.5,26.4,53.7,26.1,53.6z"/>
	<path fill="#FBFCFC" d="M38.1,38.1c0-0.1,0-0.2,0.1-0.2l0,0C38.2,38,38.2,38.1,38.1,38.1C38.1,38.1,38.1,38.1,38.1,38.1z"/>
	<path fill="#FBFCFC" d="M38.2,37.9C38.2,37.9,38.2,37.9,38.2,37.9C38.2,37.9,38.2,37.9,38.2,37.9C38.2,37.9,38.2,37.9,38.2,37.9z"
		/>
	<path fill="#DBE7EB" d="M31.5,67.8c0.1-0.2,0.1-0.4,0.2-0.6c0.2,0.2,0.4,0.4,0.5,0.7C32,67.9,31.8,67.9,31.5,67.8z"/>
	<path fill="#38302E" d="M27,53.6c0.2,0,0.5-0.1,0.7-0.1c0.9-0.1,1.9-0.4,2.8-0.6c0,0.1,0,0.2,0,0.2c-0.4,0.7-0.9,1.3-1.6,1.6
		c-0.2,0.1-0.3,0.1-0.5,0.1C27.7,54.5,27.2,54.2,27,53.6z"/>
	<path fill="#FBFCFC" d="M27,53.6c0.3,0.6,0.8,0.9,1.4,1.2c-0.2,0.3-0.5,0.2-0.7,0.2c-0.9,0.1-1.7-0.2-2.5-0.5
		c-0.4-0.2-0.8-0.4-1.3-0.7c0.7,0,1.3,0,1.9,0c0.1,0,0.3,0,0.4-0.1C26.4,53.7,26.7,53.5,27,53.6z"/>
</g>
</svg>
