<?xml version="1.0" encoding="iso-8859-1"?>
<!-- Generator: Adobe Illustrator 18.1.1, SVG Export Plug-In . SVG Version: 6.00 Build 0)  -->
<!DOCTYPE svg PUBLIC "-//W3C//DTD SVG 1.1//EN" "http://www.w3.org/Graphics/SVG/1.1/DTD/svg11.dtd">
<svg version="1.1" xmlns="http://www.w3.org/2000/svg" xmlns:xlink="http://www.w3.org/1999/xlink" x="0px" y="0px"
	 viewBox="0 0 140 105" style="enable-background:new 0 0 140 105;" xml:space="preserve">
<g id="locastro">
	<g>
		<path style="fill:#313131;" d="M10,49.205v-8.246h1.446v6.972h3.635v1.274H10z"/>
		<path style="fill:#313131;" d="M16.378,45.087c0-2.46,1.743-4.264,4.216-4.264c2.46,0,4.215,1.805,4.215,4.264
			s-1.755,4.266-4.215,4.266C18.121,49.353,16.378,47.547,16.378,45.087z M23.326,45.087c0-1.706-1.076-2.979-2.732-2.979
			c-1.669,0-2.732,1.274-2.732,2.979c0,1.694,1.063,2.979,2.732,2.979C22.25,48.067,23.326,46.781,23.326,45.087z"/>
		<path style="fill:#313131;" d="M26.57,45.087c0-2.546,1.891-4.264,4.327-4.264c1.657,0,2.695,0.853,3.301,1.841l-1.224,0.643
			c-0.396-0.692-1.199-1.199-2.077-1.199c-1.632,0-2.843,1.237-2.843,2.979c0,1.718,1.212,2.979,2.843,2.979
			c0.878,0,1.681-0.519,2.077-1.199l1.236,0.618c-0.631,0.988-1.656,1.867-3.313,1.867C28.461,49.353,26.57,47.622,26.57,45.087z"/>
		<path style="fill:#313131;" d="M41.946,49.205l-0.606-1.595h-3.783l-0.606,1.595h-1.644l3.239-8.246h1.805l3.239,8.246H41.946z
			 M39.449,42.405l-1.483,3.93h2.967L39.449,42.405z"/>
		<path style="fill:#313131;" d="M44.814,48.043l0.816-1.125c0.556,0.606,1.459,1.149,2.608,1.149c1.187,0,1.644-0.58,1.644-1.137
			c0-1.731-4.797-0.655-4.797-3.684c0-1.373,1.187-2.423,3.004-2.423c1.274,0,2.324,0.42,3.078,1.162l-0.816,1.076
			c-0.655-0.655-1.533-0.952-2.398-0.952c-0.841,0-1.384,0.42-1.384,1.026c0,1.546,4.797,0.593,4.797,3.66
			c0,1.372-0.977,2.559-3.189,2.559C46.656,49.353,45.555,48.808,44.814,48.043z"/>
		<path style="fill:#313131;" d="M55.397,49.205v-6.972h-2.497v-1.274h6.441v1.274h-2.497v6.972H55.397z"/>
		<path style="fill:#313131;" d="M65.904,49.205l-1.817-3.078H62.64v3.078h-1.446v-8.246h3.623c1.632,0,2.707,1.05,2.707,2.583
			c0,1.459-0.964,2.263-1.965,2.423l2.027,3.24H65.904z M66.04,43.53c0-0.791-0.593-1.298-1.409-1.298H62.64v2.62h1.991
			C65.447,44.852,66.04,44.333,66.04,43.53z"/>
		<path style="fill:#313131;" d="M69.274,45.087c0-2.46,1.743-4.264,4.215-4.264c2.46,0,4.216,1.805,4.216,4.264
			s-1.756,4.266-4.216,4.266C71.017,49.353,69.274,47.547,69.274,45.087z M76.222,45.087c0-1.706-1.076-2.979-2.733-2.979
			c-1.669,0-2.732,1.274-2.732,2.979c0,1.694,1.063,2.979,2.732,2.979C75.146,48.067,76.222,46.781,76.222,45.087z"/>
		<path style="fill:#313131;" d="M83.505,49.205v-8.246h3.066c2.584,0,4.315,1.706,4.315,4.116c0,2.436-1.731,4.13-4.303,4.13
			H83.505z M89.401,45.075c0-1.582-0.988-2.842-2.818-2.842h-1.632v5.698h1.619C88.364,47.931,89.401,46.646,89.401,45.075z"/>
		<path style="fill:#313131;" d="M93.062,49.205v-8.246h5.65v1.274h-4.204v2.126h4.117v1.274h-4.117v2.299h4.204v1.274H93.062z"/>
		<path style="fill:#313131;" d="M100.424,48.043l0.815-1.125c0.556,0.606,1.459,1.149,2.608,1.149c1.186,0,1.645-0.58,1.645-1.137
			c0-1.731-4.797-0.655-4.797-3.684c0-1.373,1.186-2.423,3.003-2.423c1.274,0,2.324,0.42,3.078,1.162l-0.815,1.076
			c-0.655-0.655-1.534-0.952-2.399-0.952c-0.841,0-1.384,0.42-1.384,1.026c0,1.546,4.797,0.593,4.797,3.66
			c0,1.372-0.977,2.559-3.19,2.559C102.266,49.353,101.166,48.808,100.424,48.043z"/>
		<path style="fill:#313131;" d="M109.126,49.205v-8.246h1.446v8.246H109.126z"/>
		<path style="fill:#313131;" d="M112.753,45.087c0-2.596,1.928-4.264,4.327-4.264c1.606,0,2.658,0.766,3.313,1.706l-1.175,0.681
			c-0.446-0.618-1.224-1.101-2.139-1.101c-1.632,0-2.843,1.237-2.843,2.979c0,1.718,1.212,2.979,2.843,2.979
			c0.841,0,1.582-0.384,1.953-0.742v-1.274h-2.473v-1.272h3.906v3.078c-0.804,0.902-1.966,1.507-3.387,1.507
			C114.681,49.365,112.753,47.672,112.753,45.087z"/>
		<path style="fill:#313131;" d="M128.603,49.205l-4.303-5.898v5.898h-1.446v-8.246h1.483l4.216,5.711v-5.711H130v8.246H128.603z"/>
		<path style="fill:#313131;" d="M10,64.029v-8.246h1.446v6.973h3.635v1.272H10z"/>
		<path style="fill:#313131;" d="M16.91,64.029v-8.246h1.446v6.973h3.635v1.272H16.91z"/>
		<path style="fill:#313131;" d="M23.27,59.913c0-2.548,1.891-4.266,4.327-4.266c1.657,0,2.695,0.853,3.301,1.843l-1.224,0.643
			c-0.395-0.692-1.199-1.199-2.076-1.199c-1.632,0-2.843,1.236-2.843,2.979c0,1.718,1.212,2.979,2.843,2.979
			c0.878,0,1.681-0.519,2.076-1.2l1.236,0.618c-0.631,0.989-1.656,1.867-3.313,1.867C25.161,64.177,23.27,62.446,23.27,59.913z"/>
	</g>
</g>
<g id="Layer_1">
</g>
</svg>
