<?xml version="1.0" encoding="utf-8"?>
<!-- Generator: Adobe Illustrator 18.1.1, SVG Export Plug-In . SVG Version: 6.00 Build 0)  -->
<svg version="1.1" id="Layer_1" xmlns="http://www.w3.org/2000/svg" xmlns:xlink="http://www.w3.org/1999/xlink" x="0px" y="0px"
	 viewBox="0 0 140 105" enable-background="new 0 0 140 105" xml:space="preserve">
<g>
	<g id="XMLID_3_">
		<g>
			<path id="XMLID_155_" fill="#131313" d="M19.4,43.5v14.3H16V43.5h-4.5v-3h12.4v3H19.4z"/>
			<path id="XMLID_153_" fill="#131313" d="M26.7,57.8V40.5h11.4v3h-8v4.1h6.8v3H30v4.2h8v3H26.7z"/>
			<path id="XMLID_151_" fill="#131313" d="M47.2,57.9c-1.8,0-3.4-0.6-4.7-1.9c-0.8-0.8-1.2-1.6-1.4-2.6s-0.3-2.4-0.3-4.3
				c0-1.9,0.1-3.3,0.3-4.3c0.2-1,0.7-1.8,1.4-2.6c1.3-1.3,2.8-1.9,4.7-1.9c3.3,0,5.8,1.9,6.4,5.5h-3.4c-0.4-1.5-1.3-2.5-2.9-2.5
				c-0.9,0-1.7,0.3-2.2,0.9c-0.7,0.8-0.9,1.5-0.9,4.9c0,3.4,0.1,4.1,0.9,4.9c0.5,0.6,1.2,0.9,2.2,0.9c1.6,0,2.6-1,2.9-2.5h3.4
				C53,56,50.5,57.9,47.2,57.9z"/>
			<path id="XMLID_149_" fill="#131313" d="M65.7,57.8v-7.2h-5.9v7.2h-3.4V40.5h3.4v7.1h5.9v-7.1h3.4v17.3H65.7z"/>
			<path id="XMLID_147_" fill="#131313" d="M83.3,57.8l-6.9-10.6v10.6h-3.4V40.5h3L83,51.1V40.5h3.4v17.3H83.3z"/>
			<path id="XMLID_145_" fill="#131313" d="M90.4,57.8V40.5h3.4v17.3H90.4z"/>
			<path id="XMLID_143_" fill="#131313" d="M103.6,57.9c-1.8,0-3.4-0.6-4.7-1.9c-0.8-0.8-1.2-1.6-1.4-2.6s-0.3-2.4-0.3-4.3
				c0-1.9,0.1-3.3,0.3-4.3c0.2-1,0.7-1.8,1.4-2.6c1.3-1.3,2.8-1.9,4.7-1.9c3.3,0,5.8,1.9,6.4,5.5h-3.4c-0.4-1.5-1.3-2.5-2.9-2.5
				c-0.9,0-1.7,0.3-2.2,0.9c-0.7,0.8-0.9,1.5-0.9,4.9c0,3.4,0.1,4.1,0.9,4.9c0.5,0.6,1.2,0.9,2.2,0.9c1.6,0,2.6-1,2.9-2.5h3.4
				C109.4,56,106.9,57.9,103.6,57.9z"/>
			<path id="XMLID_140_" fill="#131313" d="M122.5,57.8l-1-3.1h-6.2l-1,3.1h-3.5l6.3-17.3h2.7l6.3,17.3H122.5z M118.4,45.6l-2.2,6.3
				h4.3L118.4,45.6z"/>
		</g>
	</g>
	<linearGradient id="XMLID_21_" gradientUnits="userSpaceOnUse" x1="11.5" y1="62.9893" x2="128.5" y2="62.9893">
		<stop  offset="0" style="stop-color:#70CDDD"/>
		<stop  offset="0.1851" style="stop-color:#9ABCD1"/>
		<stop  offset="0.4596" style="stop-color:#C4A3C1"/>
		<stop  offset="0.6969" style="stop-color:#DC8EB4"/>
		<stop  offset="0.8848" style="stop-color:#EA80AD"/>
		<stop  offset="1" style="stop-color:#F27BAA"/>
	</linearGradient>
	<polygon id="XMLID_1_" fill="url(#XMLID_21_)" points="128.5,64.7 127.3,61.3 11.5,61.3 11.5,64.7 	"/>
</g>
</svg>
