<?xml version="1.0" encoding="iso-8859-1"?>
<!-- Generator: Adobe Illustrator 18.1.1, SVG Export Plug-In . SVG Version: 6.00 Build 0)  -->
<!DOCTYPE svg PUBLIC "-//W3C//DTD SVG 1.1//EN" "http://www.w3.org/Graphics/SVG/1.1/DTD/svg11.dtd">
<svg version="1.1" xmlns="http://www.w3.org/2000/svg" xmlns:xlink="http://www.w3.org/1999/xlink" x="0px" y="0px"
	 viewBox="0 0 140 105" style="enable-background:new 0 0 140 105;" xml:space="preserve">
<g id="distrikt">
	<g>
		<path style="fill:#444444;" d="M17.526,44.843c1.385,0,2.505,0.188,3.358,0.564c0.852,0.376,1.558,0.916,2.115,1.618
			c0.556,0.704,0.961,1.522,1.212,2.455c0.251,0.933,0.376,1.922,0.376,2.966c0,1.636-0.187,2.906-0.56,3.807
			c-0.373,0.902-0.889,1.657-1.551,2.266c-0.661,0.61-1.371,1.015-2.131,1.217c-1.037,0.278-1.977,0.418-2.819,0.418h-7.03V44.843
			H17.526 M15.228,56.677h1.159c0.988,0,1.692-0.109,2.11-0.329c0.418-0.219,0.745-0.601,0.982-1.149
			c0.236-0.546,0.355-1.433,0.355-2.659c0-1.622-0.265-2.732-0.794-3.331c-0.529-0.599-1.406-0.898-2.632-0.898h-1.18V56.677
			 M17.526,44.347h-7.03c-0.274,0-0.496,0.222-0.496,0.496v15.312c0,0.274,0.222,0.496,0.496,0.496h7.03
			c0.881,0,1.872-0.146,2.948-0.435c0.836-0.223,1.623-0.671,2.339-1.332c0.711-0.654,1.274-1.476,1.673-2.441
			c0.396-0.959,0.597-2.303,0.597-3.997c0-1.083-0.132-2.124-0.393-3.095c-0.267-0.993-0.704-1.879-1.302-2.634
			c-0.606-0.764-1.381-1.357-2.304-1.765C20.171,44.551,18.974,44.347,17.526,44.347L17.526,44.347z M15.724,48.807h0.684
			c1.072,0,1.833,0.246,2.26,0.731c0.306,0.346,0.67,1.148,0.67,3.003c0,1.434-0.171,2.13-0.314,2.462
			c-0.192,0.444-0.439,0.74-0.757,0.907c-0.236,0.124-0.754,0.272-1.88,0.272h-0.663V48.807L15.724,48.807z"/>
		<path style="fill:#444444;" d="M32.265,44.843v15.312h-4.742V44.843H32.265 M32.265,44.347h-4.742
			c-0.274,0-0.496,0.222-0.496,0.496v15.312c0,0.274,0.222,0.496,0.496,0.496h4.742c0.274,0,0.496-0.222,0.496-0.496V44.843
			C32.761,44.569,32.539,44.347,32.265,44.347L32.265,44.347z"/>
		<path style="fill:#444444;" d="M42.084,44.583c1.956,0,3.448,0.364,4.475,1.091c1.027,0.728,1.638,1.886,1.834,3.473l-4.461,0.261
			c-0.119-0.688-0.367-1.19-0.747-1.504c-0.38-0.312-0.904-0.469-1.572-0.469c-0.55,0-0.964,0.117-1.242,0.35
			c-0.279,0.234-0.418,0.518-0.418,0.852c0,0.243,0.114,0.463,0.344,0.657c0.223,0.202,0.752,0.39,1.588,0.564
			c2.068,0.445,3.549,0.897,4.444,1.352c0.895,0.456,1.546,1.023,1.954,1.698c0.407,0.675,0.611,1.43,0.611,2.266
			c0,0.983-0.273,1.888-0.816,2.716c-0.543,0.829-1.302,1.458-2.276,1.886c-0.975,0.429-2.204,0.643-3.688,0.643
			c-2.605,0-4.408-0.501-5.411-1.504c-1.003-1.003-1.57-2.278-1.703-3.824l4.502-0.281c0.098,0.731,0.296,1.289,0.595,1.671
			c0.488,0.62,1.184,0.93,2.089,0.93c0.676,0,1.196-0.158,1.562-0.476c0.365-0.317,0.549-0.684,0.549-1.102
			c0-0.397-0.175-0.752-0.523-1.065c-0.347-0.313-1.156-0.609-2.423-0.888c-2.075-0.466-3.555-1.086-4.439-1.858
			c-0.892-0.774-1.337-1.759-1.337-2.956c0-0.787,0.228-1.53,0.684-2.23c0.456-0.7,1.142-1.25,2.058-1.65
			C39.233,44.783,40.488,44.583,42.084,44.583 M42.084,44.087c-1.657,0-2.991,0.216-3.964,0.642
			c-1.002,0.438-1.767,1.055-2.275,1.834c-0.507,0.777-0.764,1.618-0.764,2.5c0,1.342,0.507,2.462,1.508,3.331
			c0.956,0.835,2.479,1.479,4.655,1.967c1.546,0.341,2.042,0.63,2.2,0.773c0.246,0.221,0.36,0.442,0.36,0.697
			c0,0.273-0.12,0.504-0.378,0.727c-0.271,0.235-0.688,0.355-1.237,0.355c-0.751,0-1.307-0.242-1.699-0.741
			c-0.241-0.308-0.407-0.79-0.493-1.43c-0.033-0.248-0.245-0.43-0.491-0.43c-0.01,0-0.021,0-0.031,0.001l-4.502,0.281
			c-0.133,0.008-0.258,0.07-0.345,0.171c-0.087,0.101-0.13,0.233-0.118,0.366c0.143,1.659,0.764,3.05,1.847,4.132
			c1.11,1.11,2.994,1.649,5.761,1.649c1.545,0,2.853-0.231,3.887-0.685c1.058-0.465,1.897-1.16,2.491-2.068
			c0.595-0.907,0.897-1.912,0.897-2.987c0-0.922-0.23-1.77-0.682-2.522c-0.455-0.754-1.18-1.387-2.153-1.883
			c-0.589-0.299-1.388-0.589-2.42-0.875l4.288-0.25c0.137-0.008,0.264-0.072,0.352-0.178c0.088-0.105,0.128-0.242,0.111-0.378
			c-0.213-1.724-0.899-3.009-2.039-3.817C45.737,44.484,44.135,44.087,42.084,44.087L42.084,44.087z M43.565,49.741
			c-0.481-0.123-1.006-0.246-1.576-0.369c-1.043-0.217-1.304-0.397-1.359-0.447c-0.181-0.154-0.181-0.253-0.181-0.29
			c0-0.187,0.074-0.333,0.241-0.472c0.182-0.153,0.502-0.234,0.924-0.234c0.546,0,0.969,0.12,1.258,0.357
			c0.282,0.234,0.475,0.639,0.573,1.205C43.46,49.588,43.503,49.673,43.565,49.741L43.565,49.741z"/>
		<path style="fill:#444444;" d="M64.877,44.843v3.781h-4.826v11.531H55.32V48.624h-4.827v-3.781H64.877 M64.877,44.347H50.494
			c-0.274,0-0.496,0.222-0.496,0.496v3.781c0,0.274,0.222,0.496,0.496,0.496h4.331v11.035c0,0.274,0.222,0.496,0.496,0.496h4.731
			c0.274,0,0.496-0.222,0.496-0.496V49.12h4.33c0.274,0,0.496-0.222,0.496-0.496v-3.781C65.373,44.569,65.151,44.347,64.877,44.347
			L64.877,44.347z"/>
		<path style="fill:#444444;" d="M75.078,44.843c1.462,0,2.579,0.125,3.353,0.376c0.774,0.251,1.396,0.716,1.869,1.394
			c0.475,0.679,0.71,1.506,0.71,2.482c0,0.849-0.18,1.582-0.543,2.198c-0.361,0.617-0.862,1.116-1.495,1.499
			c-0.405,0.244-0.957,0.446-1.66,0.607c0.563,0.188,0.974,0.376,1.231,0.564c0.174,0.125,0.424,0.394,0.756,0.805
			c0.332,0.411,0.552,0.729,0.662,0.951l2.291,4.437h-5.346l-2.529-4.679c-0.319-0.606-0.605-0.999-0.855-1.181
			c-0.343-0.236-0.73-0.354-1.161-0.354h-0.418v6.214h-4.752V44.843H75.078 M71.944,51.048h1.997c0.216,0,0.633-0.069,1.253-0.209
			c0.312-0.063,0.567-0.223,0.765-0.48c0.2-0.257,0.299-0.553,0.299-0.887c0-0.495-0.156-0.874-0.471-1.139
			c-0.312-0.265-0.902-0.397-1.764-0.397h-2.08V51.048 M75.078,44.347h-7.885c-0.274,0-0.496,0.222-0.496,0.496v15.312
			c0,0.274,0.222,0.496,0.496,0.496h4.752c0.274,0,0.496-0.222,0.496-0.496v-5.717c0.299,0.013,0.562,0.1,0.802,0.265
			c0.097,0.07,0.329,0.303,0.698,1.003l2.531,4.684c0.087,0.16,0.254,0.26,0.436,0.26h5.346c0.173,0,0.333-0.09,0.423-0.238
			c0.09-0.148,0.096-0.332,0.017-0.485l-2.291-4.437c-0.126-0.254-0.361-0.595-0.717-1.035c-0.37-0.459-0.641-0.743-0.852-0.895
			c-0.038-0.028-0.078-0.055-0.12-0.082c0.188-0.081,0.36-0.168,0.515-0.262c0.707-0.427,1.268-0.99,1.667-1.673
			c0.405-0.687,0.611-1.512,0.611-2.448c0-1.076-0.269-2.006-0.8-2.766c-0.534-0.766-1.248-1.299-2.123-1.582
			C77.753,44.478,76.606,44.347,75.078,44.347L75.078,44.347z M72.44,48.431h1.584c0.969,0,1.32,0.175,1.443,0.279
			c0.128,0.108,0.296,0.302,0.296,0.761c0,0.224-0.064,0.414-0.195,0.583c-0.127,0.165-0.276,0.26-0.471,0.299
			c-0.772,0.174-1.055,0.199-1.156,0.199H72.44V48.431L72.44,48.431z"/>
		<path style="fill:#444444;" d="M89.048,44.843v15.312h-4.743V44.843H89.048 M89.048,44.347h-4.743
			c-0.274,0-0.496,0.222-0.496,0.496v15.312c0,0.274,0.222,0.496,0.496,0.496h4.743c0.274,0,0.496-0.222,0.496-0.496V44.843
			C89.544,44.569,89.322,44.347,89.048,44.347L89.048,44.347z"/>
		<path style="fill:#444444;" d="M108.658,44.843h0.005 M108.658,44.843l-5.59,5.78l5.84,9.532h-5.827l-3.228-6.297l-2.445,2.561
			v3.736h-4.732V44.843h4.732v5.787l4.956-5.787H108.658 M108.663,44.347h-0.005h-6.293c-0.145,0-0.282,0.063-0.377,0.173
			l-4.084,4.768v-4.445c0-0.274-0.222-0.496-0.496-0.496h-4.732c-0.274,0-0.496,0.222-0.496,0.496v15.312
			c0,0.274,0.222,0.496,0.496,0.496h4.732c0.274,0,0.496-0.222,0.496-0.496v-3.537l1.826-1.913l2.91,5.676
			c0.085,0.166,0.255,0.27,0.441,0.27h5.827c0.179,0,0.345-0.097,0.433-0.254c0.088-0.157,0.084-0.348-0.01-0.501l-5.64-9.205
			l5.303-5.484c0.099-0.091,0.161-0.22,0.161-0.365C109.156,44.569,108.937,44.347,108.663,44.347L108.663,44.347z"/>
		<path style="fill:#444444;" d="M124.6,44.843v3.781h-4.827v11.531h-4.73V48.624h-4.829v-3.781H124.6 M124.6,44.347h-14.386
			c-0.274,0-0.496,0.222-0.496,0.496v3.781c0,0.274,0.222,0.496,0.496,0.496h4.333v11.035c0,0.274,0.222,0.496,0.496,0.496h4.73
			c0.274,0,0.496-0.222,0.496-0.496V49.12h4.331c0.274,0,0.496-0.222,0.496-0.496v-3.781
			C125.096,44.569,124.874,44.347,124.6,44.347L124.6,44.347z"/>
		<path style="fill:#444444;" d="M129.504,55.894v4.262h-4.543v-4.262H129.504 M129.504,55.398h-4.543
			c-0.274,0-0.496,0.222-0.496,0.496v4.262c0,0.274,0.222,0.496,0.496,0.496h4.543c0.274,0,0.496-0.222,0.496-0.496v-4.262
			C130,55.62,129.778,55.398,129.504,55.398L129.504,55.398z"/>
	</g>
</g>
<g id="Layer_1">
</g>
</svg>
