<?xml version="1.0" encoding="utf-8"?>
<!-- Generator: Adobe Illustrator 18.1.1, SVG Export Plug-In . SVG Version: 6.00 Build 0)  -->
<svg version="1.1" id="Layer_1" xmlns="http://www.w3.org/2000/svg" xmlns:xlink="http://www.w3.org/1999/xlink" x="0px" y="0px"
	 viewBox="0 0 140 105" enable-background="new 0 0 140 105" xml:space="preserve">
<g id="XMLID_2_">
	<path fill="#B2303D" d="M11.3,56.4c0-2.8,0.6-5.1,1.8-6.8c1.2-1.7,2.9-2.6,5-2.6c1.2,0,2.3,0.3,3.2,0.8c0.9,0.5,1.7,1.3,2.3,2.2
		V39.5h2v25.7h-1.7l-0.2-2.6c-0.6,0.9-1.4,1.7-2.3,2.2c-0.9,0.5-2,0.8-3.3,0.8c-2.1,0-3.8-0.8-5-2.4c-1.2-1.6-1.8-3.7-1.8-6.4V56.4z
		 M13.2,56.8c0,2.2,0.4,3.9,1.3,5.2c0.9,1.3,2.2,1.9,3.9,1.9c1.3,0,2.3-0.3,3.2-0.9c0.9-0.6,1.5-1.4,2-2.4v-8.4
		c-0.5-1-1.1-1.9-1.9-2.5s-1.9-1-3.2-1c-1.7,0-3,0.7-3.9,2.1c-0.9,1.4-1.3,3.3-1.3,5.6V56.8z"/>
	<path fill="#B2303D" d="M39.4,65.5c-2.2,0-4.1-0.8-5.6-2.5s-2.2-3.7-2.2-6.3v-0.9c0-2.6,0.7-4.7,2.2-6.4c1.5-1.7,3.2-2.5,5.3-2.5
		c2.2,0,3.9,0.7,5.2,2.1c1.3,1.4,1.9,3.2,1.9,5.5v1.7H33.6v0.5c0,2,0.5,3.7,1.6,5c1.1,1.4,2.5,2,4.2,2c1.2,0,2.3-0.2,3.2-0.5
		c0.9-0.3,1.6-0.8,2.2-1.5l0.8,1.4c-0.7,0.7-1.5,1.3-2.6,1.7S40.8,65.5,39.4,65.5z M39.2,48.7c-1.5,0-2.7,0.6-3.7,1.7
		c-1,1.1-1.6,2.5-1.7,4.2l0,0.1h10.5v-0.5c0-1.5-0.5-2.8-1.4-3.9C42,49.2,40.7,48.7,39.2,48.7z"/>
	<path fill="#B2303D" d="M53.6,47.3l0.2,3c0.6-1,1.3-1.9,2.3-2.4s2.1-0.9,3.4-0.9c1.4,0,2.5,0.3,3.4,1c0.9,0.7,1.6,1.7,2,3
		c0.5-1.3,1.3-2.2,2.3-2.9c1-0.7,2.2-1.1,3.6-1.1c1.9,0,3.4,0.6,4.4,1.9c1,1.3,1.6,3.2,1.6,5.9v10.4h-2V54.7c0-2.2-0.4-3.8-1.2-4.7
		c-0.8-0.9-1.9-1.4-3.2-1.4c-1.5,0-2.7,0.5-3.5,1.4c-0.8,1-1.4,2.2-1.6,3.7c0,0.1,0,0.2,0,0.3c0,0.1,0,0.2,0,0.3v10.7h-2V54.7
		c0-2.2-0.4-3.7-1.2-4.6s-1.9-1.4-3.2-1.4c-1.4,0-2.5,0.4-3.3,1.1s-1.4,1.7-1.7,2.9v12.6h-2V47.3H53.6z"/>
	<path fill="#B2303D" d="M90.5,65.5c-2.2,0-4.1-0.8-5.6-2.5s-2.2-3.7-2.2-6.3v-0.9c0-2.6,0.7-4.7,2.2-6.4s3.2-2.5,5.3-2.5
		c2.2,0,3.9,0.7,5.2,2.1c1.3,1.4,1.9,3.2,1.9,5.5v1.7H84.7v0.5c0,2,0.5,3.7,1.6,5s2.5,2,4.2,2c1.2,0,2.3-0.2,3.2-0.5
		s1.6-0.8,2.2-1.5l0.8,1.4c-0.7,0.7-1.5,1.3-2.5,1.7C93.1,65.3,91.9,65.5,90.5,65.5z M90.2,48.7c-1.5,0-2.7,0.6-3.7,1.7
		c-1,1.1-1.6,2.5-1.7,4.2l0,0.1h10.5v-0.5c0-1.5-0.5-2.8-1.4-3.9S91.8,48.7,90.2,48.7z"/>
	<path fill="#B2303D" d="M111.3,49l-1.5-0.1c-1.2,0-2.3,0.3-3.1,1c-0.8,0.7-1.4,1.7-1.7,2.9v12.3h-2V47.3h1.7l0.2,3v0.2
		c0.5-1.1,1.2-2,2.1-2.6s1.9-0.9,3.1-0.9c0.3,0,0.5,0,0.7,0.1c0.2,0,0.4,0.1,0.6,0.1L111.3,49z"/>
	<path fill="#B2303D" d="M122.8,65.5c-2.2,0-4.1-0.8-5.6-2.5s-2.2-3.7-2.2-6.3v-0.9c0-2.6,0.7-4.7,2.2-6.4s3.2-2.5,5.3-2.5
		c2.2,0,3.9,0.7,5.2,2.1c1.3,1.4,1.9,3.2,1.9,5.5v1.7H117v0.5c0,2,0.5,3.7,1.6,5s2.5,2,4.2,2c1.2,0,2.3-0.2,3.2-0.5s1.6-0.8,2.2-1.5
		l0.8,1.4c-0.7,0.7-1.5,1.3-2.5,1.7C125.5,65.3,124.2,65.5,122.8,65.5z M122.6,48.7c-1.5,0-2.7,0.6-3.7,1.7c-1,1.1-1.6,2.5-1.7,4.2
		l0,0.1h10.5v-0.5c0-1.5-0.5-2.8-1.4-3.9S124.1,48.7,122.6,48.7z"/>
</g>
<g>
</g>
<g>
</g>
<g>
</g>
<g>
</g>
<g>
</g>
<g>
</g>
<g>
</g>
<g>
</g>
<g>
</g>
<g>
</g>
<g>
</g>
<g>
</g>
<g>
</g>
<g>
</g>
<g>
</g>
</svg>
