<svg xmlns="http://www.w3.org/2000/svg" viewBox="0 0 140 105" enable-background="new 0 0 140 105"><path d="M34.055 70.504h1.694c.46 0 .86.174 1.19.52.332.35.5.74.5 1.17v9.702c0 2.357-.68 3.95-2.044 4.777-1.358.828-2.835 1.244-4.427 1.244-.863 0-1.708-.14-2.536-.424-.832-.28-1.495-.734-1.99-1.37C25.478 84.9 25 83.228 25 81.106c0-2.096.48-3.768 1.443-5.027.993-1.296 2.27-1.94 3.83-1.94.83 0 1.56.164 2.19.496.662.398 1.192.914 1.59 1.54v-5.67h.002zm17.013 15.97c-.696-.597-1.192-1.4-1.494-2.417-.297-1.008-.446-2.06-.446-3.156 0-.894.124-1.79.375-2.686.246-.896.637-1.64 1.167-2.236.86-.996 1.973-1.584 3.332-1.766 1.363-.18 2.59-.075 3.685.323 1.256.496 2.186 1.363 2.784 2.588.567 1.093.847 2.372.847 3.83 0 1.063-.114 1.976-.348 2.735-.233.764-.53 1.412-.897 1.943-.794 1.093-1.808 1.77-3.035 2.04-1.095.297-2.195.32-3.307.076-1.11-.25-2-.675-2.66-1.27zm2.386-8.757c-.695.764-1.01 1.902-.94 3.408.062 1.506.347 2.56.843 3.158.2.268.548.488 1.045.67.497.184 1.002.2 1.516.05.513-.147.972-.52 1.37-1.118.396-.594.612-1.557.646-2.883 0-1.197-.19-2.092-.573-2.688-.38-.598-.82-.98-1.315-1.145-.496-.168-.998-.176-1.494-.03-.497.154-.86.347-1.095.576zm-7.76 3.285c-.462.234-1.112.445-1.94.645-.763.166-1.142.25-1.142.25-.597.166-1.03.383-1.294.646-.233.365-.348.73-.348 1.096 0 .494.148.893.446 1.19.3.267.73.4 1.294.4.93 0 1.66-.27 2.19-.798.532-.533.794-1.258.794-2.188V81zm.794 6.117c-.697.363-1.435.586-2.21.674-.783.078-1.47.123-2.07.123-1.192 0-2.236-.322-3.13-.973-.898-.645-1.344-1.715-1.344-3.21 0-1.39.408-2.384 1.22-2.985.81-.593 1.85-.993 3.107-1.19.168 0 .367-.027.6-.08.233-.045.497-.088.795-.12 1.46-.2 2.19-.628 2.19-1.296 0-.496-.26-.818-.773-.967-.513-.148-.985-.227-1.416-.227-.463 0-.88.07-1.245.2-.364.133-.63.38-.793.744h-3.333c.13-1.027.595-1.873 1.392-2.54.896-.757 2.174-1.14 3.83-1.14 1.86 0 3.252.312 4.176.947.966.66 1.445 1.594 1.445 2.783v4.53c0 1.325-.242 2.366-.722 3.108-.478.75-1.053 1.288-1.715 1.62zm-18.105-6.17c0 1.33.25 2.34.747 3.033.497.7 1.21 1.047 2.14 1.047.896 0 1.59-.347 2.088-1.046.463-.693.696-1.705.696-3.035 0-1.193-.25-2.14-.748-2.834-.53-.664-1.244-.996-2.14-.996-.86 0-1.54.35-2.037 1.046-.497.662-.748 1.592-.748 2.783z" fill="#009ABF"/><path d="M71.066 83.586h2.488c-.365 1.395-1.062 2.455-2.09 3.186-1.025.764-2.32 1.146-3.878 1.146-1.894 0-3.367-.617-4.428-1.844-1.062-1.193-1.592-2.898-1.592-5.125 0-2.123.514-3.78 1.54-4.975 1.063-1.227 2.54-1.842 4.43-1.842 1.99 0 3.53.596 4.626 1.79.595.73 1.027 1.575 1.29 2.54h-3.48c-.166-.332-.33-.582-.497-.748-.433-.463-1.044-.695-1.842-.695-.726 0-1.324.233-1.788.696-.598.662-.896 1.756-.896 3.285 0 1.527.296 2.606.894 3.234.43.53 1.074.797 1.94.797.56 0 1.045-.114 1.44-.347.1-.033.19-.094.275-.176.08-.084.174-.172.27-.273.07-.1.2-.23.4-.398.2-.163.497-.25.895-.25zm40.55-13.082h1.694c.463 0 .86.174 1.193.52.33.35.496.74.496 1.17v9.702c0 2.357-.68 3.95-2.044 4.777-1.36.828-2.836 1.244-4.43 1.244-.86 0-1.704-.14-2.532-.424-.832-.28-1.494-.734-1.992-1.37-.962-1.224-1.443-2.897-1.443-5.02 0-2.095.48-3.767 1.442-5.026.995-1.295 2.27-1.94 3.83-1.94.832 0 1.562.165 2.19.497.663.398 1.192.914 1.59 1.54v-5.67h.002zm-5.67 10.445c0 1.33.25 2.34.745 3.033.5.7 1.21 1.047 2.14 1.047.898 0 1.595-.347 2.09-1.046.464-.693.696-1.705.696-3.035 0-1.193-.25-2.14-.746-2.834-.53-.664-1.244-.996-2.14-.996-.863 0-1.54.35-2.04 1.046-.495.662-.744 1.592-.744 2.783zm-3.636-6.515v7.76c0 2.355-.615 3.895-1.842 4.627-1.227.73-2.568 1.096-4.028 1.096-1.427-.07-2.73-.466-3.906-1.196-1.175-.73-1.766-2.24-1.766-4.527v-7.76h3.48v8.455c0 .795.234 1.377.696 1.74.463.367.994.55 1.593.55.6 0 1.138-.183 1.617-.55.48-.363.722-.945.722-1.74v-6.766c0-.463.157-.86.472-1.193.317-.33.722-.495 1.222-.495h1.74zM79.973 86.473c-.696-.596-1.192-1.398-1.494-2.416-.3-1.008-.447-2.06-.447-3.156 0-.894.123-1.79.374-2.686.245-.896.636-1.64 1.167-2.236.86-.996 1.975-1.584 3.333-1.766 1.362-.18 2.59-.075 3.685.323 1.256.496 2.187 1.363 2.784 2.588.564 1.093.845 2.372.845 3.83 0 1.063-.113 1.976-.347 2.735-.233.764-.53 1.412-.896 1.943-.793 1.093-1.808 1.77-3.034 2.04-1.097.297-2.195.32-3.308.076-1.114-.25-2-.675-2.663-1.27zm2.385-8.756c-.696.764-1.01 1.902-.942 3.408.065 1.506.35 2.56.846 3.158.2.268.548.488 1.044.67.496.184 1.002.2 1.516.05.514-.147.972-.52 1.37-1.118.397-.594.613-1.557.647-2.883 0-1.197-.194-2.092-.575-2.688-.383-.598-.82-.98-1.315-1.145-.497-.168-.997-.176-1.493-.03-.5.154-.864.347-1.1.576zm-8.107-7.16h1.793c.463 0 .862.154 1.193.47.33.317.497.704.497 1.17V87.67h-3.48V70.556z" fill="#003056"/><path d="M69.54 33.937c.223.38.424.76.63 1.142.203-.383.405-.764.627-1.144 1.554-2.657 4.053-5.172 6.78-7.39C74.735 18.908 69.984 12 69.984 12s-4.655 6.77-7.508 14.314c2.84 2.274 5.458 4.874 7.066 7.623z" fill="#DFE45A"/><path d="M60.378 38.395c-.043-.706-.07-1.42-.07-2.15 0-3.117.91-6.6 2.168-9.93-6.234-4.994-13.53-8.42-13.53-8.42s-.636 8.668.865 16.826c3.236.505 6.39 1.346 8.91 2.715.57.308 1.12.63 1.66.96z" fill="#C4D600"/><path d="M60.378 38.395c2.638 1.625 4.884 3.494 6.618 5.428.506-2.756 1.573-5.76 3.173-8.743-.206-.38-.408-.762-.63-1.142-1.608-2.75-4.227-5.35-7.065-7.623-1.26 3.33-2.17 6.813-2.17 9.93 0 .728.03 1.443.072 2.15z" fill="#DFE45A"/><path d="M53.664 45.048c-.283-.438-.563-.88-.832-1.34-1.473-2.517-2.42-5.712-3.02-8.99-8.253-1.282-17.018-.36-17.018-.36s3.553 6.982 8.624 13C44.898 46 48.568 45 51.84 45c.616 0 1.224.017 1.824.048z" fill="#4EC1E0"/><path d="M53.664 45.048c3.053.157 5.883.708 8.314 1.55-.854-2.39-1.416-5.187-1.6-8.203-.537-.33-1.09-.653-1.66-.962-2.517-1.368-5.672-2.21-8.906-2.713.603 3.277 1.55 6.472 3.02 8.99.27.46.55.9.832 1.338z" fill="#C4D600"/><path d="M66.996 43.822c-1.734-1.933-3.98-3.803-6.618-5.428.184 3.017.746 5.813 1.6 8.204 1.85.64 3.457 1.456 4.76 2.396-.17-1.55-.086-3.3.258-5.172z" fill="#DFE45A"/><path d="M66.996 43.822c-1.734-1.933-3.98-3.803-6.618-5.428.184 3.017.746 5.813 1.6 8.204 1.85.64 3.457 1.456 4.76 2.396-.17-1.55-.086-3.3.258-5.172z" fill="#C4D600"/><path d="M69.732 54.653c-1.722-1.07-2.71-3.086-2.993-5.658-1.305-.94-2.91-1.755-4.76-2.396 1.694 4.75 4.527 7.894 7.75 8.052z" fill="#DFE45A"/><path d="M69.732 54.653c-1.722-1.07-2.71-3.086-2.993-5.658-1.305-.94-2.91-1.755-4.76-2.396 1.694 4.75 4.527 7.894 7.75 8.052z" fill="#C4D600"/><path d="M69.732 54.653c-1.722-1.07-2.71-3.086-2.993-5.658-1.305-.94-2.91-1.755-4.76-2.396 1.694 4.75 4.527 7.894 7.75 8.052z" fill="#009ABF"/><path d="M79.57 38.65c.66-.42 1.338-.83 2.05-1.217 2.517-1.368 5.673-2.21 8.907-2.713 1.5-8.16.866-16.825.866-16.825s-7.52 3.533-13.814 8.652c1.212 3.26 2.08 6.653 2.08 9.7 0 .815-.037 1.613-.09 2.402z" fill="#C4D600"/><path d="M70.796 33.937c-.222.38-.423.76-.628 1.142 1.6 2.98 2.666 5.985 3.172 8.74 1.646-1.834 3.763-3.607 6.228-5.173.054-.79.09-1.587.09-2.404 0-3.046-.868-6.438-2.082-9.7-2.726 2.22-5.225 4.736-6.78 7.393zm2.544 9.885c-.505-2.756-1.572-5.76-3.17-8.743-1.6 2.98-2.667 5.985-3.174 8.74 1.432 1.598 2.507 3.237 3.172 4.82.666-1.583 1.74-3.22 3.173-4.82z" fill="#DFE45A"/><path d="M73.34 43.822c-.505-2.756-1.572-5.76-3.17-8.743-1.6 2.98-2.667 5.985-3.174 8.74 1.432 1.598 2.507 3.237 3.172 4.82.666-1.583 1.74-3.22 3.173-4.82z" fill="#C4D600"/><path d="M66.738 48.995c1.15.83 2.065 1.752 2.67 2.75.045-.986.31-2.033.76-3.106-.665-1.584-1.74-3.223-3.172-4.82-.344 1.872-.428 3.622-.258 5.174z" fill="#DFE45A"/><path d="M66.738 48.995c1.15.83 2.065 1.752 2.67 2.75.045-.986.31-2.033.76-3.106-.665-1.584-1.74-3.223-3.172-4.82-.344 1.872-.428 3.622-.258 5.174z" fill="#C4D600"/><path d="M66.738 48.995c1.15.83 2.065 1.752 2.67 2.75.045-.986.31-2.033.76-3.106-.665-1.584-1.74-3.223-3.172-4.82-.344 1.872-.428 3.622-.258 5.174z" fill="#4EC1E0"/><path d="M70.017 54.674l-.034.003c-.085 0-.167-.02-.252-.024.04.024.074.057.114.08.092.055.193.086.287.134-.025-.044-.06-.082-.085-.127-.01-.02-.015-.044-.027-.066zm0 0l-.034.003c-.085 0-.167-.02-.252-.024.04.024.074.057.114.08.092.055.193.086.287.134-.025-.044-.06-.082-.085-.127-.01-.02-.015-.044-.027-.066zm0 0l-.034.003c-.085 0-.167-.02-.252-.024.04.024.074.057.114.08.092.055.193.086.287.134-.025-.044-.06-.082-.085-.127-.01-.02-.015-.044-.027-.066zm0 0l-.034.003c-.085 0-.167-.02-.252-.024.04.024.074.057.114.08.092.055.193.086.287.134-.025-.044-.06-.082-.085-.127-.01-.02-.015-.044-.027-.066z" fill="#003700"/><path d="M70.017 54.674c-.464-.883-.66-1.872-.61-2.928-.604-1-1.52-1.922-2.67-2.75.283 2.572 1.273 4.588 2.994 5.657.086.004.17.024.254.024.012 0 .023-.003.034-.003z" fill="#DFE45A"/><path d="M70.017 54.674c-.464-.883-.66-1.872-.61-2.928-.604-1-1.52-1.922-2.67-2.75.283 2.572 1.273 4.588 2.994 5.657.086.004.17.024.254.024.012 0 .023-.003.034-.003z" fill="#C4D600"/><path d="M70.017 54.674c-.464-.883-.66-1.872-.61-2.928-.604-1-1.52-1.922-2.67-2.75.283 2.572 1.273 4.588 2.994 5.657.086.004.17.024.254.024.012 0 .023-.003.034-.003z" fill="#009ABF"/><path d="M70.017 54.674c-.464-.883-.66-1.872-.61-2.928-.604-1-1.52-1.922-2.67-2.75.283 2.572 1.273 4.588 2.994 5.657.086.004.17.024.254.024.012 0 .023-.003.034-.003zm16.65-9.62c.643-.034 1.293-.054 1.95-.054 3.245 0 6.88.984 10.33 2.322 5.057-6.01 8.596-12.964 8.596-12.964s-8.765-.922-17.017.362c-.603 3.277-1.55 6.472-3.022 8.99-.27.46-.552.906-.836 1.345z" fill="#4EC1E0"/><path d="M70.187 54.893l-.02.03c.016.024.035.047.05.072 0-.03-.007-.06-.008-.092l-.024-.01zm0 0l-.02.03c.016.024.035.047.05.072 0-.03-.007-.06-.008-.092l-.024-.01zm-.017-.008l-.02.01c.005.01.012.017.018.027l.02-.03-.02-.007zm0 0l-.02.01c.005.01.012.017.018.027l.02-.03-.02-.007zm0 0l-.02.01c.005.01.012.017.018.027l.02-.03-.02-.007zm-.04-.018c.006.01.013.017.02.026l.02-.01-.04-.016zm0 0c.006.01.013.017.02.026l.02-.01-.04-.016zm0 0c.006.01.013.017.02.026l.02-.01-.04-.016zm0 0c.006.01.013.017.02.026l.02-.01-.04-.016z" fill="#003700"/><path d="M79.57 38.65c-.206 3.01-.79 5.79-1.664 8.163 2.523-.95 5.512-1.578 8.762-1.758.284-.44.566-.884.836-1.346 1.473-2.52 2.42-5.715 3.022-8.99-3.234.5-6.39 1.342-8.908 2.71-.71.388-1.387.798-2.048 1.218z" fill="#C4D600"/><path d="M73.59 49.087c1.19-.88 2.648-1.646 4.316-2.274.874-2.372 1.458-5.153 1.664-8.164-2.466 1.564-4.582 3.336-6.228 5.172.35 1.906.433 3.69.25 5.264z" fill="#DFE45A"/><path d="M73.59 49.087c1.19-.88 2.648-1.646 4.316-2.274.874-2.372 1.458-5.153 1.664-8.164-2.466 1.564-4.582 3.336-6.228 5.172.35 1.906.433 3.69.25 5.264z" fill="#C4D600"/><path d="M73.59 49.087c1.19-.88 2.648-1.646 4.316-2.274.874-2.372 1.458-5.153 1.664-8.164-2.466 1.564-4.582 3.336-6.228 5.172.35 1.906.433 3.69.25 5.264z" fill="#279100"/><path d="M70.93 51.974c.58-1.048 1.487-2.02 2.66-2.888.185-1.575.1-3.358-.25-5.264-1.43 1.597-2.506 3.236-3.172 4.818.487 1.156.748 2.28.762 3.334z" fill="#DFE45A"/><path d="M70.93 51.974c.58-1.048 1.487-2.02 2.66-2.888.185-1.575.1-3.358-.25-5.264-1.43 1.597-2.506 3.236-3.172 4.818.487 1.156.748 2.28.762 3.334z" fill="#C4D600"/><path d="M70.204 54.868c-.005.01-.012.016-.017.025l.02.01-.002-.036zm0 0c-.005.01-.012.016-.017.025l.02.01-.002-.036zm0 0c-.005.01-.012.016-.017.025l.02.01-.002-.036zm0 0zm0 0zm0 0zm0 0z" fill="#003700"/><path d="M70.93 51.974c-.014-1.055-.275-2.178-.762-3.335-.45 1.07-.715 2.117-.76 3.105.476.79.747 1.623.822 2.485.068-.78.3-1.535.7-2.256z" fill="#DFE45A"/><path d="M70.93 51.974c-.014-1.055-.275-2.178-.762-3.335-.45 1.07-.715 2.117-.76 3.105.476.79.747 1.623.822 2.485.068-.78.3-1.535.7-2.256z" fill="#C4D600"/><path d="M70.93 51.974c-.014-1.055-.275-2.178-.762-3.335-.45 1.07-.715 2.117-.76 3.105.476.79.747 1.623.822 2.485.068-.78.3-1.535.7-2.256z" fill="#4EC1E0"/><path d="M70.93 51.974c-.014-1.055-.275-2.178-.762-3.335-.45 1.07-.715 2.117-.76 3.105.476.79.747 1.623.822 2.485.068-.78.3-1.535.7-2.256z" fill="#C4D600"/><path d="M70.17 54.885l.018.01c.005-.01.012-.017.017-.026-.013.003-.025.01-.036.014zm0 0l.018.01c.005-.01.012-.017.017-.026-.013.003-.025.01-.036.014zm0 0l.018.01c.005-.01.012-.017.017-.026-.013.003-.025.01-.036.014zm0 0l.018.01c.005-.01.012-.017.017-.026-.013.003-.025.01-.036.014zm.035-.018c-.002-.063-.018-.125-.018-.19l.002-.02c-.06.003-.116.017-.173.017.01.02.016.045.028.066.025.045.06.083.086.127.013.006.026.01.038.017.01-.006.023-.01.035-.016zm0 0c-.002-.063-.018-.125-.018-.19l.002-.02c-.06.003-.116.017-.173.017.01.02.016.045.028.066.025.045.06.083.086.127.013.006.026.01.038.017.01-.006.023-.01.035-.016zm0 0c-.002-.063-.018-.125-.018-.19l.002-.02c-.06.003-.116.017-.173.017.01.02.016.045.028.066.025.045.06.083.086.127.013.006.026.01.038.017.01-.006.023-.01.035-.016zm0 0c-.002-.063-.018-.125-.018-.19l.002-.02c-.06.003-.116.017-.173.017.01.02.016.045.028.066.025.045.06.083.086.127.013.006.026.01.038.017.01-.006.023-.01.035-.016zm0 0c-.002-.063-.018-.125-.018-.19l.002-.02c-.06.003-.116.017-.173.017.01.02.016.045.028.066.025.045.06.083.086.127.013.006.026.01.038.017.01-.006.023-.01.035-.016z" fill="#003700"/><path d="M70.017 54.674c.058 0 .114-.014.17-.016.002-.144.03-.284.042-.427-.077-.86-.348-1.694-.825-2.483-.048 1.057.147 2.045.61 2.928z" fill="#DFE45A"/><path d="M70.017 54.674c.058 0 .114-.014.17-.016.002-.144.03-.284.042-.427-.077-.86-.348-1.694-.825-2.483-.048 1.057.147 2.045.61 2.928z" fill="#C4D600"/><path d="M70.017 54.674c.058 0 .114-.014.17-.016.002-.144.03-.284.042-.427-.077-.86-.348-1.694-.825-2.483-.048 1.057.147 2.045.61 2.928z" fill="#009ABF"/><path d="M70.017 54.674c.058 0 .114-.014.17-.016.002-.144.03-.284.042-.427-.077-.86-.348-1.694-.825-2.483-.048 1.057.147 2.045.61 2.928z" fill="#4EC1E0"/><path d="M70.017 54.674c.058 0 .114-.014.17-.016.002-.144.03-.284.042-.427-.077-.86-.348-1.694-.825-2.483-.048 1.057.147 2.045.61 2.928z" fill="#C4D600"/><path d="M70.017 54.674c.058 0 .114-.014.17-.016.002-.144.03-.284.042-.427-.077-.86-.348-1.694-.825-2.483-.048 1.057.147 2.045.61 2.928zm.2.32c.004.044.01.087.013.13l.01-.097c-.008-.01-.016-.02-.022-.032zm0 0c.004.044.01.087.013.13l.01-.097c-.008-.01-.016-.02-.022-.032zm-.007-.09c0 .03.006.06.008.09.007.01.015.02.022.033.002-.035.008-.07.01-.105-.014-.006-.028-.012-.04-.02zm0 0c0 .03.006.06.008.09.007.01.015.02.022.033.002-.035.008-.07.01-.105-.014-.006-.028-.012-.04-.02zm0 0c0 .03.006.06.008.09.007.01.015.02.022.033.002-.035.008-.07.01-.105-.014-.006-.028-.012-.04-.02z" fill="#003700"/><path d="M70.662 54.612c2.997-.397 5.615-3.38 7.243-7.8-1.668.627-3.127 1.395-4.315 2.274-.29 2.5-1.262 4.46-2.928 5.526z" fill="#DFE45A"/><path d="M70.662 54.612c2.997-.397 5.615-3.38 7.243-7.8-1.668.627-3.127 1.395-4.315 2.274-.29 2.5-1.262 4.46-2.928 5.526z" fill="#C4D600"/><path d="M70.662 54.612c2.997-.397 5.615-3.38 7.243-7.8-1.668.627-3.127 1.395-4.315 2.274-.29 2.5-1.262 4.46-2.928 5.526z" fill="#4EC1E0"/><path d="M70.29 54.74c-.007.015-.02.026-.027.04 0 .022-.005.043-.006.064.077-.04.16-.065.236-.11.06-.034.11-.083.17-.12-.11.014-.22.023-.332.03-.014.03-.022.065-.04.096zm0 0c-.007.015-.02.026-.027.04 0 .022-.005.043-.006.064.077-.04.16-.065.236-.11.06-.034.11-.083.17-.12-.11.014-.22.023-.332.03-.014.03-.022.065-.04.096zm0 0c-.007.015-.02.026-.027.04 0 .022-.005.043-.006.064.077-.04.16-.065.236-.11.06-.034.11-.083.17-.12-.11.014-.22.023-.332.03-.014.03-.022.065-.04.096zm0 0c-.007.015-.02.026-.027.04 0 .022-.005.043-.006.064.077-.04.16-.065.236-.11.06-.034.11-.083.17-.12-.11.014-.22.023-.332.03-.014.03-.022.065-.04.096z" fill="#003700"/><path d="M70.662 54.612c1.665-1.066 2.637-3.026 2.93-5.526-1.175.868-2.082 1.84-2.662 2.888.013.958-.18 1.858-.6 2.67.112-.007.223-.017.332-.032z" fill="#DFE45A"/><path d="M70.662 54.612c1.665-1.066 2.637-3.026 2.93-5.526-1.175.868-2.082 1.84-2.662 2.888.013.958-.18 1.858-.6 2.67.112-.007.223-.017.332-.032zm0 0c1.665-1.066 2.637-3.026 2.93-5.526-1.175.868-2.082 1.84-2.662 2.888.013.958-.18 1.858-.6 2.67.112-.007.223-.017.332-.032z" fill="#C4D600"/><path d="M70.662 54.612c1.665-1.066 2.637-3.026 2.93-5.526-1.175.868-2.082 1.84-2.662 2.888.013.958-.18 1.858-.6 2.67.112-.007.223-.017.332-.032z" fill="#4EC1E0"/><path d="M70.662 54.612c1.665-1.066 2.637-3.026 2.93-5.526-1.175.868-2.082 1.84-2.662 2.888.013.958-.18 1.858-.6 2.67.112-.007.223-.017.332-.032z" fill="#024A00"/><path d="M70.205 54.868l.003.036c.013.007.027.012.04.02.002-.027.008-.053.01-.08-.018.008-.036.015-.053.024zm0 0l.003.036c.013.007.027.012.04.02.002-.027.008-.053.01-.08-.018.008-.036.015-.053.024zm0 0l.003.036c.013.007.027.012.04.02.002-.027.008-.053.01-.08-.018.008-.036.015-.053.024zm0 0l.003.036c.013.007.027.012.04.02.002-.027.008-.053.01-.08-.018.008-.036.015-.053.024zm0 0c.017-.01.035-.015.052-.024 0-.02.006-.042.006-.063-.017.03-.04.058-.058.088zm0 0c.017-.01.035-.015.052-.024 0-.02.006-.042.006-.063-.017.03-.04.058-.058.088zm0 0c.017-.01.035-.015.052-.024 0-.02.006-.042.006-.063-.017.03-.04.058-.058.088zm0 0c.017-.01.035-.015.052-.024 0-.02.006-.042.006-.063-.017.03-.04.058-.058.088zm0 0c.017-.01.035-.015.052-.024 0-.02.006-.042.006-.063-.017.03-.04.058-.058.088zm.058-.088c.008-.013.02-.025.028-.04.02-.03.027-.065.043-.096-.02 0-.04.005-.06.006l.002.028c0 .035-.01.068-.01.103zm0 0c.008-.013.02-.025.028-.04.02-.03.027-.065.043-.096-.02 0-.04.005-.06.006l.002.028c0 .035-.01.068-.01.103zm0 0c.008-.013.02-.025.028-.04.02-.03.027-.065.043-.096-.02 0-.04.005-.06.006l.002.028c0 .035-.01.068-.01.103zm0 0c.008-.013.02-.025.028-.04.02-.03.027-.065.043-.096-.02 0-.04.005-.06.006l.002.028c0 .035-.01.068-.01.103zm0 0c.008-.013.02-.025.028-.04.02-.03.027-.065.043-.096-.02 0-.04.005-.06.006l.002.028c0 .035-.01.068-.01.103z" fill="#003700"/><path d="M70.27 54.65c.02 0 .04-.005.06-.006.42-.81.612-1.71.6-2.67-.4.72-.632 1.477-.7 2.257.012.14.04.28.04.42z" fill="#DFE45A"/><path d="M70.27 54.65c.02 0 .04-.005.06-.006.42-.81.612-1.71.6-2.67-.4.72-.632 1.477-.7 2.257.012.14.04.28.04.42z" fill="#C4D600"/><path d="M70.27 54.65c.02 0 .04-.005.06-.006.42-.81.612-1.71.6-2.67-.4.72-.632 1.477-.7 2.257.012.14.04.28.04.42z" fill="#4EC1E0"/><path d="M70.27 54.65c.02 0 .04-.005.06-.006.42-.81.612-1.71.6-2.67-.4.72-.632 1.477-.7 2.257.012.14.04.28.04.42z" fill="#C4D600"/><path d="M70.27 54.65c.02 0 .04-.005.06-.006.42-.81.612-1.71.6-2.67-.4.72-.632 1.477-.7 2.257.012.14.04.28.04.42z" fill="#4EC1E0"/><path d="M70.27 54.65c.02 0 .04-.005.06-.006.42-.81.612-1.71.6-2.67-.4.72-.632 1.477-.7 2.257.012.14.04.28.04.42zm.003.028c0-.01-.003-.018-.003-.028-.027.002-.054.007-.08.008 0 .007-.003.013-.003.02 0 .064.016.125.018.19.017-.03.04-.056.058-.087 0-.033.01-.066.01-.1zm0 0c0-.01-.003-.018-.003-.028-.027.002-.054.007-.08.008 0 .007-.003.013-.003.02 0 .064.016.125.018.19.017-.03.04-.056.058-.087 0-.033.01-.066.01-.1zm0 0c0-.01-.003-.018-.003-.028-.027.002-.054.007-.08.008 0 .007-.003.013-.003.02 0 .064.016.125.018.19.017-.03.04-.056.058-.087 0-.033.01-.066.01-.1zm0 0c0-.01-.003-.018-.003-.028-.027.002-.054.007-.08.008 0 .007-.003.013-.003.02 0 .064.016.125.018.19.017-.03.04-.056.058-.087 0-.033.01-.066.01-.1zm0 0c0-.01-.003-.018-.003-.028-.027.002-.054.007-.08.008 0 .007-.003.013-.003.02 0 .064.016.125.018.19.017-.03.04-.056.058-.087 0-.033.01-.066.01-.1zm0 0c0-.01-.003-.018-.003-.028-.027.002-.054.007-.08.008 0 .007-.003.013-.003.02 0 .064.016.125.018.19.017-.03.04-.056.058-.087 0-.033.01-.066.01-.1z" fill="#003700"/><path d="M70.23 54.23c-.012.144-.04.284-.04.428.026 0 .053-.006.08-.008 0-.14-.028-.28-.04-.42z" fill="#DFE45A"/><path d="M70.23 54.23c-.012.144-.04.284-.04.428.026 0 .053-.006.08-.008 0-.14-.028-.28-.04-.42z" fill="#C4D600"/><path d="M70.23 54.23c-.012.144-.04.284-.04.428.026 0 .053-.006.08-.008 0-.14-.028-.28-.04-.42z" fill="#009ABF"/><path d="M70.23 54.23c-.012.144-.04.284-.04.428.026 0 .053-.006.08-.008 0-.14-.028-.28-.04-.42z" fill="#4EC1E0"/><path d="M70.23 54.23c-.012.144-.04.284-.04.428.026 0 .053-.006.08-.008 0-.14-.028-.28-.04-.42z" fill="#C4D600"/><path d="M70.23 54.23c-.012.144-.04.284-.04.428.026 0 .053-.006.08-.008 0-.14-.028-.28-.04-.42z" fill="#4EC1E0"/><path d="M70.23 54.23c-.012.144-.04.284-.04.428.026 0 .053-.006.08-.008 0-.14-.028-.28-.04-.42z" fill="#003700"/><path d="M70.168 54.922c-2.7 4.498-11.872 4.312-20.693-.484-2.885-1.568-5.642-4.214-8.057-7.08-7.345 2.866-13.823 7.32-13.823 7.32s14.065 9.678 24.245 9.678c9.893 0 17.942-4.096 18.39-9.23-.004-.044-.01-.087-.012-.13-.016-.026-.035-.05-.05-.074zm-20.693-.484c8.82 4.796 17.994 4.982 20.693.484l-.02-.028c-4.403 2.158-11.483-2.11-16.484-9.845-.6-.034-1.208-.05-1.824-.05-3.272 0-6.943 1-10.422 2.357 2.415 2.865 5.172 5.512 8.057 7.08z" fill="#009ABF"/><path d="M69.844 54.734c-.04-.023-.073-.056-.112-.08-3.224-.16-6.057-3.305-7.754-8.056-2.43-.843-5.26-1.393-8.314-1.55 5 7.736 12.08 12.002 16.485 9.844l-.02-.026c-.094-.046-.195-.078-.287-.132z" fill="#C4D600"/><path d="M69.844 54.734c-.04-.023-.073-.056-.112-.08-3.224-.16-6.057-3.305-7.754-8.056-2.43-.843-5.26-1.393-8.314-1.55 5 7.736 12.08 12.002 16.485 9.844l-.02-.026c-.094-.046-.195-.078-.287-.132zm29.106-7.412c-2.423 2.88-5.19 5.54-8.088 7.116-8.75 4.757-17.84 4.975-20.623.59l-.01.097c.446 5.135 8.496 9.23 18.39 9.23 10.18 0 24.244-9.677 24.244-9.677s-6.532-4.493-13.916-7.356z" fill="#009ABF"/><path d="M86.668 45.055c-4.977 7.697-12.01 11.955-16.42 9.867 0 .035-.007.07-.01.105 2.784 4.386 11.875 4.168 20.624-.59 2.897-1.574 5.665-4.237 8.087-7.116C95.496 45.986 91.86 45 88.62 45c-.66 0-1.31.02-1.952.055z" fill="#4EC1E0"/><path d="M70.662 54.612c-.06.038-.11.087-.17.122-.075.044-.158.07-.235.11 0 .025-.006.05-.008.077 4.406 2.09 11.44-2.17 16.417-9.865-3.25.18-6.24.808-8.762 1.758-1.628 4.42-4.247 7.403-7.244 7.8z" fill="#C4D600"/><path d="M70.662 54.612c-.06.038-.11.087-.17.122-.075.044-.158.07-.235.11 0 .025-.006.05-.008.077 4.406 2.09 11.44-2.17 16.417-9.865-3.25.18-6.24.808-8.762 1.758-1.628 4.42-4.247 7.403-7.244 7.8z" fill="#4EC1E0"/><path d="M60.378 38.395c2.638 1.625 4.884 3.494 6.618 5.428.506-2.756 1.573-5.76 3.173-8.743-.206-.38-.408-.762-.63-1.142-1.608-2.75-4.227-5.35-7.065-7.623-1.26 3.33-2.17 6.813-2.17 9.93 0 .728.03 1.443.072 2.15z" fill="#AABF02"/><path d="M53.664 45.048c3.053.157 5.883.708 8.314 1.55-.854-2.39-1.416-5.187-1.6-8.203-.537-.33-1.09-.653-1.66-.962-2.517-1.368-5.672-2.21-8.906-2.713.603 3.277 1.55 6.472 3.02 8.99.27.46.55.9.832 1.338z" fill="#2BA200"/><path d="M66.996 43.822c-1.734-1.933-3.98-3.803-6.618-5.428.184 3.017.746 5.813 1.6 8.204 1.85.64 3.457 1.456 4.76 2.396-.17-1.55-.086-3.3.258-5.172z" fill="#279100"/><path d="M69.732 54.653c-1.722-1.07-2.71-3.086-2.993-5.658-1.305-.94-2.91-1.755-4.76-2.396 1.694 4.75 4.527 7.894 7.75 8.052z" fill="#025800"/><path d="M70.796 33.937c-.222.38-.423.76-.628 1.142 1.6 2.98 2.666 5.985 3.172 8.74 1.646-1.834 3.763-3.607 6.228-5.173.054-.79.09-1.587.09-2.404 0-3.046-.868-6.438-2.082-9.7-2.726 2.22-5.225 4.736-6.78 7.393z" fill="#AABF02"/><path d="M73.34 43.822c-.505-2.756-1.572-5.76-3.17-8.743-1.6 2.98-2.667 5.985-3.174 8.74 1.432 1.598 2.507 3.237 3.172 4.82.666-1.583 1.74-3.22 3.173-4.82z" fill="#82A000"/><path d="M66.738 48.995c1.15.83 2.065 1.752 2.67 2.75.045-.986.31-2.033.76-3.106-.665-1.584-1.74-3.223-3.172-4.82-.344 1.872-.428 3.622-.258 5.174z" fill="#1E7900"/><path d="M70.017 54.674c-.464-.883-.66-1.872-.61-2.928-.604-1-1.52-1.922-2.67-2.75.283 2.572 1.273 4.588 2.994 5.657.086.004.17.024.254.024.012 0 .023-.003.034-.003z" fill="#024A00"/><path d="M79.57 38.65c-.206 3.01-.79 5.79-1.664 8.163 2.523-.95 5.512-1.578 8.762-1.758.284-.44.566-.884.836-1.346 1.473-2.52 2.42-5.715 3.022-8.99-3.234.5-6.39 1.342-8.908 2.71-.71.388-1.387.798-2.048 1.218z" fill="#2BA200"/><path d="M70.93 51.974c.58-1.048 1.487-2.02 2.66-2.888.185-1.575.1-3.358-.25-5.264-1.43 1.597-2.506 3.236-3.172 4.818.487 1.156.748 2.28.762 3.334z" fill="#1E7900"/><path d="M70.93 51.974c-.014-1.055-.275-2.178-.762-3.335-.45 1.07-.715 2.117-.76 3.105.476.79.747 1.623.822 2.485.068-.78.3-1.535.7-2.256z" fill="#055C00"/><path d="M70.662 54.612c2.997-.397 5.615-3.38 7.243-7.8-1.668.627-3.127 1.395-4.315 2.274-.29 2.5-1.262 4.46-2.928 5.526z" fill="#025800"/><path d="M49.475 54.438c8.82 4.796 17.994 4.982 20.693.484l-.02-.028c-4.403 2.158-11.483-2.11-16.484-9.845-.6-.034-1.208-.05-1.824-.05-3.272 0-6.943 1-10.422 2.357 2.415 2.865 5.172 5.512 8.057 7.08z" fill="#0575A9"/><path d="M69.844 54.734c-.04-.023-.073-.056-.112-.08-3.224-.16-6.057-3.305-7.754-8.056-2.43-.843-5.26-1.393-8.314-1.55 5 7.736 12.08 12.002 16.485 9.844l-.02-.026c-.094-.046-.195-.078-.287-.132z" fill="#046200"/><path d="M86.668 45.055c-4.977 7.697-12.01 11.955-16.42 9.867 0 .035-.007.07-.01.105 2.784 4.386 11.875 4.168 20.624-.59 2.897-1.574 5.665-4.237 8.087-7.116C95.496 45.986 91.86 45 88.62 45c-.66 0-1.31.02-1.952.055z" fill="#0575A9"/><path d="M70.662 54.612c-.06.038-.11.087-.17.122-.075.044-.158.07-.235.11 0 .025-.006.05-.008.077 4.406 2.09 11.44-2.17 16.417-9.865-3.25.18-6.24.808-8.762 1.758-1.628 4.42-4.247 7.403-7.244 7.8z" fill="#046200"/></svg>