<svg xmlns="http://www.w3.org/2000/svg" viewBox="0 0 140 105" enable-background="new 0 0 140 105"><path d="M12.692 49.67h-2.016c-.38 0-.676-.308-.676-.676 0-.367.296-.676.676-.676h5.515c.37 0 .666.31.666.676 0 .368-.296.676-.664.676h-2.027v6.286c0 .404-.332.723-.735.723s-.735-.32-.735-.725V49.67zm4.83 2.823v-.024c0-2.338 1.804-4.295 4.354-4.295s4.33 1.933 4.33 4.27v.023c0 2.335-1.804 4.292-4.353 4.292-2.55 0-4.33-1.932-4.33-4.27zm7.15 0v-.024c0-1.615-1.172-2.955-2.82-2.955-1.65 0-2.8 1.317-2.8 2.93v.023c0 1.612 1.175 2.94 2.824 2.94 1.648 0 2.798-1.304 2.798-2.917zm2.498-3.238c-.035-.083-.06-.19-.06-.285 0-.403.345-.712.748-.712.356 0 .63.225.723.534l1.91 5.705 1.876-5.68c.118-.345.367-.582.735-.582h.108c.367 0 .63.238.735.58l1.873 5.682 1.91-5.717c.107-.296.356-.522.712-.522.39 0 .723.31.723.7 0 .095-.035.213-.07.296l-2.455 6.878c-.13.368-.403.605-.76.605h-.14c-.357 0-.618-.226-.748-.605l-1.85-5.42-1.85 5.42c-.13.38-.404.605-.76.605h-.14c-.357 0-.618-.226-.76-.605l-2.456-6.877zm12.26 6.415l3.082-6.877c.166-.368.463-.593.878-.593h.07c.416 0 .7.225.867.593l3.084 6.878c.06.11.085.216.085.31 0 .39-.296.7-.688.7-.344 0-.58-.2-.712-.51l-.676-1.554h-4.033l-.7 1.6c-.12.297-.368.464-.676.464-.38 0-.675-.297-.675-.677 0-.106.035-.213.095-.332zm5.43-2.347l-1.458-3.357-1.46 3.357h2.92zm4.216-4.27c0-.414.32-.734.735-.734h2.968c1.043 0 1.862.307 2.395.83.44.45.69 1.065.69 1.79v.023c0 1.328-.773 2.135-1.887 2.478l1.59 2.005c.142.178.237.332.237.557 0 .404-.344.676-.7.676-.33 0-.545-.155-.71-.38l-2.017-2.574h-1.84v2.23c0 .403-.32.722-.722.722-.415 0-.735-.32-.735-.723v-6.9zm3.593 3.38c1.042 0 1.706-.544 1.706-1.386v-.024c0-.89-.64-1.376-1.72-1.376h-2.124v2.787h2.136zm4.985-3.38c0-.414.32-.734.736-.734h2.36c2.61 0 4.413 1.79 4.413 4.125v.024c0 2.335-1.802 4.15-4.41 4.15h-2.36c-.416 0-.737-.32-.737-.735v-6.832zm3.096 6.24c1.745 0 2.884-1.175 2.884-2.8v-.025c0-1.625-1.14-2.823-2.882-2.823h-1.636v5.646h1.637zm5.852.402c-.166-.12-.285-.32-.285-.557 0-.38.31-.676.69-.676.2 0 .33.06.426.13.688.546 1.423.854 2.324.854s1.47-.427 1.47-1.044v-.023c0-.595-.33-.916-1.873-1.27-1.766-.428-2.763-.95-2.763-2.48v-.024c0-1.423 1.188-2.407 2.836-2.407 1.044 0 1.886.272 2.633.77.165.095.32.296.32.58 0 .38-.31.677-.69.677-.14 0-.26-.036-.38-.107-.64-.414-1.256-.628-1.91-.628-.853 0-1.35.44-1.35.985v.024c0 .64.38.927 1.98 1.307 1.756.427 2.658 1.056 2.658 2.43v.025c0 1.555-1.222 2.48-2.966 2.48-1.126 0-2.193-.357-3.118-1.045zM80.01 49.67h-2.015c-.38 0-.676-.308-.676-.676 0-.367.294-.676.674-.676h5.515c.366 0 .662.31.662.676 0 .368-.296.676-.663.676h-2.03v6.286c0 .404-.33.723-.735.723-.403 0-.735-.32-.735-.725V49.67zm5.65-.687c0-.403.32-.724.735-.724.403 0 .723.32.723.722v2.787h3.96V48.98c0-.403.32-.724.724-.724.415 0 .735.32.735.723v6.974c0 .404-.32.723-.735.723-.404 0-.723-.32-.723-.724V53.12h-3.963v2.833c0 .404-.32.723-.723.723-.415 0-.736-.32-.736-.724V48.98zm9.018 6.902v-6.832c0-.415.32-.735.736-.735h4.827c.358 0 .655.296.655.652 0 .368-.296.652-.653.652H96.14v2.158h3.57c.355 0 .652.297.652.664 0 .356-.296.64-.652.64h-3.57v2.23h4.163c.356 0 .653.296.653.653 0 .367-.296.652-.652.652H95.42c-.418 0-.738-.32-.738-.736zm11.297-.19c-.166-.12-.284-.32-.284-.557 0-.38.31-.676.69-.676.2 0 .33.06.427.13.688.546 1.423.854 2.324.854s1.47-.427 1.47-1.044v-.023c0-.595-.33-.916-1.87-1.27-1.768-.428-2.765-.95-2.765-2.48v-.024c0-1.423 1.186-2.407 2.834-2.407 1.043 0 1.885.272 2.632.77.167.095.32.296.32.58 0 .38-.307.677-.687.677-.142 0-.26-.036-.38-.107-.64-.414-1.257-.628-1.91-.628-.854 0-1.35.44-1.35.985v.024c0 .64.38.927 1.98 1.307 1.755.427 2.657 1.056 2.657 2.43v.025c0 1.555-1.222 2.48-2.966 2.48-1.126 0-2.194-.357-3.12-1.045zm7.678-2.597v-4.115c0-.403.32-.724.736-.724.4 0 .72.32.72.722v4.056c0 1.54.796 2.36 2.1 2.36 1.29 0 2.087-.772 2.087-2.302V48.98c0-.402.32-.723.736-.723.403 0 .723.32.723.723v4.044c0 2.48-1.4 3.724-3.57 3.724-2.158 0-3.534-1.244-3.534-3.652zm9.112-4.092c0-.403.32-.735.736-.735h.156c.356 0 .558.18.76.43l4.15 5.372v-5.1c0-.39.32-.71.713-.71.402 0 .722.32.722.71v6.975c0 .404-.307.723-.71.723h-.06c-.345 0-.558-.178-.76-.438l-4.27-5.527v5.266c0 .39-.32.71-.71.71-.404 0-.724-.32-.724-.71v-6.963z" fill="#FF4E00"/></svg>