<?xml version="1.0" encoding="utf-8"?>
<!-- Generator: Adobe Illustrator 18.1.1, SVG Export Plug-In . SVG Version: 6.00 Build 0)  -->
<svg version="1.1" id="Layer_1" xmlns="http://www.w3.org/2000/svg" xmlns:xlink="http://www.w3.org/1999/xlink" x="0px" y="0px"
	 viewBox="0 0 140 105" enable-background="new 0 0 140 105" xml:space="preserve">
<g>
	<path fill="#D71F2A" d="M41.2,48.4h2.1v13.9h-2.1v-1c-1.4,0.8-2.8,1.3-4.1,1.3c-1.9,0-3.2-0.5-3.8-1.5c-0.6-1-0.9-2.8-0.9-5.5v-7.3
		h2.1v7.2c0,2,0.2,3.4,0.5,4.1c0.4,0.7,1.2,1,2.4,1c0.6,0,1.2-0.1,1.9-0.3c0.6-0.2,1.1-0.3,1.4-0.5l0.5-0.3V48.4z"/>
	<path fill="#D71F2A" d="M49.1,62.4H47V48.4h2.1v1c1.4-0.8,2.7-1.3,4.1-1.3c1.7,0,2.9,0.5,3.6,1.4c0.6-0.4,1.4-0.7,2.4-1
		c1-0.3,1.8-0.4,2.6-0.4c1.9,0,3.1,0.5,3.7,1.5c0.6,1,1,2.8,1,5.4v7.4h-2.1v-7.3c0-1.9-0.2-3.3-0.6-4c-0.4-0.7-1.2-1.1-2.4-1.1
		c-0.6,0-1.2,0.1-1.9,0.3c-0.7,0.2-1.2,0.3-1.5,0.5l-0.5,0.3c0.2,0.6,0.4,2,0.4,4.1v7.2h-2.1v-7.2c0-2-0.2-3.4-0.5-4.1
		C54.8,50.4,54,50,52.8,50c-0.6,0-1.2,0.1-1.8,0.3c-0.6,0.2-1.1,0.3-1.4,0.5l-0.5,0.3V62.4z"/>
	<path fill="#D71F2A" d="M80.8,42.4v20h-2.1v-0.9c-1.4,0.8-2.8,1.2-4.2,1.2c-0.7,0-1.4-0.1-1.9-0.3c-0.6-0.2-1.1-0.5-1.6-1
		c-1-1-1.5-2.9-1.5-5.6c0-2.7,0.5-4.7,1.4-5.9c0.9-1.2,2.4-1.8,4.5-1.8c1.1,0,2.2,0.1,3.4,0.4v-6.2H80.8z M73.5,60.6
		c0.3,0.1,0.8,0.2,1.3,0.2s1.1-0.1,1.8-0.3c0.7-0.2,1.2-0.3,1.5-0.5l0.6-0.3v-9.4c-1.2-0.2-2.3-0.3-3.3-0.3c-1.4,0-2.4,0.5-3,1.4
		c-0.6,0.9-0.8,2.3-0.8,4.2c0,2.2,0.3,3.6,1,4.3C72.9,60.2,73.2,60.4,73.5,60.6z"/>
	<path fill="#D71F2A" d="M84.5,62.4v-3.2h2.3v3.2H84.5z"/>
	<path fill="#D71F2A" d="M90.4,45.3v-2.4h2.1v2.4H90.4z M90.4,62.4V48.4h2.1v13.9H90.4z"/>
	<path fill="#D71F2A" d="M95.7,55.4c0-2.5,0.5-4.4,1.4-5.5c0.9-1.1,2.4-1.7,4.6-1.7c2.2,0,3.7,0.6,4.6,1.7c0.9,1.1,1.4,3,1.4,5.5
		c0,2.5-0.4,4.4-1.3,5.5c-0.9,1.2-2.4,1.7-4.7,1.7s-3.8-0.6-4.7-1.7C96.1,59.8,95.7,57.9,95.7,55.4z M97.8,55.3c0,2,0.2,3.5,0.7,4.3
		c0.5,0.8,1.5,1.2,3.1,1.2c1.6,0,2.6-0.4,3.1-1.2c0.5-0.8,0.7-2.2,0.7-4.3c0-2-0.3-3.4-0.8-4.2c-0.5-0.8-1.5-1.2-3-1.2
		c-1.5,0-2.5,0.4-3,1.2C98.1,51.9,97.8,53.3,97.8,55.3z"/>
</g>
</svg>
