<?xml version="1.0" encoding="utf-8"?>
<!-- Generator: Adobe Illustrator 18.1.1, SVG Export Plug-In . SVG Version: 6.00 Build 0)  -->
<svg version="1.1" id="Layer_1" xmlns="http://www.w3.org/2000/svg" xmlns:xlink="http://www.w3.org/1999/xlink" x="0px" y="0px"
	 viewBox="0 0 140 105" enable-background="new 0 0 140 105" xml:space="preserve">
<g>
	
		<linearGradient id="SVGID_1_" gradientUnits="userSpaceOnUse" x1="-373.8752" y1="90.1202" x2="-373.8752" y2="14.8798" gradientTransform="matrix(-1 0 0 1 -303.8752 0)">
		<stop  offset="0" style="stop-color:#EB2227"/>
		<stop  offset="1" style="stop-color:#F3726B"/>
	</linearGradient>
	<path fill="url(#SVGID_1_)" d="M70,14.9h20c10.1,0,17.6,7.3,17.6,18.1v39.3c0,9.4-6.4,17.8-17.9,17.8H70H50.3
		c-11.5,0-17.9-8.4-17.9-17.8V33c0-10.8,7.5-18.1,17.7-18.1H70z"/>
	<path fill="#FFFFFF" d="M54.6,53.2c0,7.6,11.2,26.3,15.6,31.7c4.4-5.5,15.6-24.2,15.6-31.7c0-8.6-7-15.6-15.6-15.6
		S54.6,44.6,54.6,53.2z"/>
	<ellipse fill="#FFFFFF" cx="70.1" cy="25.9" rx="5.9" ry="5.9"/>
	<linearGradient id="SVGID_2_" gradientUnits="userSpaceOnUse" x1="70.1467" y1="58.3898" x2="70.1467" y2="46.6068">
		<stop  offset="0" style="stop-color:#EB2227"/>
		<stop  offset="1" style="stop-color:#F3726B"/>
	</linearGradient>
	<circle fill="url(#SVGID_2_)" cx="70.1" cy="52.5" r="5.9"/>
</g>
</svg>
