<?xml version="1.0" encoding="utf-8"?>
<!-- Generator: Adobe Illustrator 18.1.1, SVG Export Plug-In . SVG Version: 6.00 Build 0)  -->
<svg version="1.1" id="Layer_1" xmlns="http://www.w3.org/2000/svg" xmlns:xlink="http://www.w3.org/1999/xlink" x="0px" y="0px"
	 viewBox="0 0 140 105" enable-background="new 0 0 140 105" xml:space="preserve">
<g>
	<path fill="#F8981D" d="M27.8,52.2c0,2.7-0.7,4.8-2,6.4c-1.3,1.6-3.2,2.3-5.5,2.3c-2.3,0-4.2-0.8-5.5-2.3c-1.3-1.6-2-3.7-2-6.4v-3
		c0-2.7,0.7-4.8,2-6.4c1.3-1.6,3.1-2.4,5.5-2.4c2.3,0,4.2,0.8,5.5,2.4c1.3,1.6,2,3.7,2,6.4V52.2z M27.1,49.2c0-2.4-0.6-4.4-1.8-5.8
		c-1.2-1.4-2.8-2.2-5-2.2c-2.2,0-3.8,0.7-5,2.2c-1.2,1.4-1.7,3.4-1.7,5.8v3c0,2.5,0.6,4.4,1.8,5.8c1.2,1.4,2.8,2.2,5,2.2
		c2.2,0,3.8-0.7,5-2.1c1.2-1.4,1.7-3.4,1.7-5.8V49.2z"/>
	<path fill="#F8981D" d="M45.3,53.6c0,2.3-0.5,4.1-1.5,5.4c-1,1.3-2.3,2-4.1,2c-1.2,0-2.2-0.2-3-0.7c-0.9-0.5-1.5-1.1-2-1.9v8H34
		V45.9h0.6l0.1,2.6c0.5-0.9,1.2-1.6,2-2.1s1.8-0.8,3-0.8c1.7,0,3.1,0.7,4.1,2.1c1,1.4,1.5,3.2,1.5,5.6V53.6z M44.6,53.3
		c0-2-0.4-3.7-1.2-5c-0.8-1.3-2-1.9-3.6-1.9c-1.4,0-2.5,0.4-3.3,1.1s-1.4,1.6-1.7,2.6V57c0.4,1,1,1.8,1.8,2.3s1.9,0.9,3.2,0.9
		c1.6,0,2.7-0.6,3.5-1.8c0.8-1.2,1.2-2.8,1.2-4.8V53.3z"/>
	<path fill="#F8981D" d="M56.4,60.9c-1.7,0-3.1-0.7-4.4-2s-1.8-3-1.8-5.1V53c0-2.1,0.6-3.9,1.8-5.3c1.2-1.4,2.6-2.1,4.4-2.1
		c1.7,0,3,0.5,4.1,1.6s1.6,2.6,1.6,4.4v1.1H51V53v0.9c0,1.8,0.5,3.3,1.6,4.5c1,1.2,2.3,1.8,3.9,1.8c1.1,0,2-0.2,2.8-0.5
		c0.7-0.3,1.4-0.7,1.9-1.3l0.4,0.6c-0.6,0.6-1.3,1.1-2.1,1.5C58.5,60.8,57.6,60.9,56.4,60.9z M56.4,46.4c-1.5,0-2.7,0.5-3.7,1.6
		c-1,1.1-1.5,2.4-1.6,4l0,0.1h10.2v-0.4c0-1.5-0.5-2.7-1.4-3.7C59,46.9,57.9,46.4,56.4,46.4z"/>
	<path fill="#F8981D" d="M68.2,45.9l0.1,3c0.4-1.1,1.1-1.9,1.9-2.4c0.9-0.6,1.9-0.9,3.2-0.9c1.6,0,2.8,0.5,3.6,1.5
		c0.8,1,1.2,2.6,1.2,4.8v8.7h-0.7v-8.7c0-2-0.4-3.5-1.1-4.3c-0.7-0.8-1.7-1.3-3-1.3c-1.6,0-2.8,0.5-3.6,1.4
		c-0.8,0.9-1.3,2.2-1.5,3.6v9.2h-0.7V45.9H68.2z"/>
	<path fill="#F8981D" d="M94.8,52.1v8.5h-0.7V40.8h6.2c2.1,0,3.6,0.5,4.7,1.5c1.1,1,1.7,2.4,1.7,4.1c0,1.7-0.6,3.1-1.7,4.1
		c-1.1,1-2.7,1.5-4.7,1.5H94.8z M94.8,51.4h5.5c1.9,0,3.3-0.5,4.2-1.4c0.9-0.9,1.4-2.1,1.4-3.5c0-1.4-0.5-2.6-1.4-3.5
		c-0.9-0.9-2.4-1.4-4.2-1.4h-5.5V51.4z"/>
	<path fill="#F8981D" d="M126.1,41.6h-7.2v19.1h-0.7V41.6h-7.2v-0.7h15.2V41.6z"/>
</g>
</svg>
