<?xml version="1.0" encoding="utf-8"?>
<!-- Generator: Adobe Illustrator 18.1.1, SVG Export Plug-In . SVG Version: 6.00 Build 0)  -->
<svg version="1.1" id="Layer_1" xmlns="http://www.w3.org/2000/svg" xmlns:xlink="http://www.w3.org/1999/xlink" x="0px" y="0px"
	 viewBox="0 0 140 105" enable-background="new 0 0 140 105" xml:space="preserve">
<g>
	<path fill="#556E93" d="M126.7,51.1h-3.6c-0.2,0-0.2,0-0.4,0c0,0-0.2,0-0.2,0.2l-3.6,6l-0.2,0.2c0,0,0,0,0-0.2V45.1
		c0,0,0,0-0.2-0.2c0,0,0,0-0.2,0h-2.8c-0.2,0-0.2,0-0.4,0c0,0.2,0,0.2,0,0.2v21c0,0.2,0,0.2,0,0.4c0.2,0,0.2,0,0.4,0h2.8
		c0.2,0,0.2,0,0.2,0c0.2-0.2,0.2-0.2,0.2-0.4v-1.9c0-0.2,0-0.4,0-0.4c0-0.2,0-0.2,0.2-0.4l0.9-1.7c0.2-0.2,0.2-0.2,0.2,0l2.6,4.5
		c0,0,0,0,0,0.2c0.2,0,0.2,0,0.4,0h3.4h0.2c0-0.2,0-0.2,0-0.2l-4.1-7.7c0-0.2,0-0.2,0-0.4V58l4.1-6.7
		C126.7,51.1,126.7,51.1,126.7,51.1z"/>
	<path fill="#556E93" d="M113.6,51.5c0-0.2,0-0.2,0-0.4c-0.2,0-0.2,0-0.4,0h-5.2c-0.4,0-0.7,0-1.3,0.4c-0.4,0.2-0.6,0.6-0.9,0.9
		c-0.2,0.4-0.4,0.7-0.4,1.3v10.1c0,0.4,0.2,0.7,0.4,1.3c0.4,0.4,0.6,0.6,0.9,0.9c0.6,0.2,0.9,0.4,1.3,0.4h5.2c0.2,0,0.2,0,0.4-0.2
		v-0.2v-2.6c0-0.2,0-0.4,0-0.4c-0.2-0.2-0.2-0.2-0.4-0.2h-3.7c-0.2,0-0.4,0-0.4,0c-0.2-0.2-0.2-0.4-0.2-0.4V55c0-0.2,0-0.2,0.2-0.4
		c0,0,0.2,0,0.4,0h3.7c0.2,0,0.2-0.2,0.4-0.2c0-0.2,0-0.2,0-0.4V51.5z"/>
	<path fill="#556E93" d="M104,53.7c0-0.4-0.2-0.7-0.4-1.3c-0.4-0.4-0.6-0.7-1.1-0.9c-0.4-0.4-0.7-0.4-1.3-0.4H95h-0.2
		c-0.2,0.2-0.2,0.2-0.2,0.4l-0.4,2.6c0,0.2,0,0.2,0.2,0.4l0.2,0.2h5.4c0,0,0.2,0,0.4,0c0,0.2,0,0.4,0,0.6v1.3h-3.6
		c-0.7,0-1.5,0.2-1.9,0.6c-0.6,0.4-0.7,0.9-0.7,1.7v5.4c0,0.6,0.2,1.1,0.7,1.5c0.4,0.6,1.1,0.7,1.9,0.7h2.8c0.2,0,0.2,0,0.4-0.2
		l0.2-0.2c0.2-0.2,0.2-0.2,0.2-0.2c0.2,0,0.2,0,0.4,0.2c0,0,0,0.2,0.2,0.2c0,0.2,0.2,0.2,0.2,0.2h2.4c0.2,0,0.2,0,0.2,0
		c0.2-0.2,0.2-0.4,0.2-0.6V53.7z M100.4,60.3c0,0.2,0,0.2,0,0.4v1.9c0,0,0,0.2,0,0.4c-0.2,0-0.4,0-0.4,0h-1.9c-0.2,0-0.4,0-0.4-0.2
		c-0.2,0-0.2-0.2-0.2-0.4v-1.9c0,0,0,0,0.2-0.2c0,0,0,0,0.4-0.2h1.9C100.3,60.1,100.3,60.3,100.4,60.3z"/>
	<path fill="#556E93" d="M92.4,51.1c0,0,0,0-0.2,0h-1.7v-5.8c0-0.2,0-0.2-0.2-0.4c0,0-0.2,0-0.4,0h-2.6c0,0,0,0-0.2,0
		c0,0.2-0.2,0.2-0.2,0.4v5.8H86c0,0-0.2,0-0.2,0.2c0,0,0,0,0,0.2v2.8c0,0.2,0,0.2,0,0.2c0.2,0.2,0.2,0.2,0.2,0.2h0.9v9.2
		c0,0.4,0.2,0.7,0.4,1.3c0.2,0.2,0.6,0.6,0.9,0.9c0.4,0.2,0.9,0.4,1.5,0.4h2.8c0,0,0.2,0,0.4,0c0-0.2,0.2-0.4,0.2-0.4l-0.4-2.6
		c0-0.2,0-0.4-0.2-0.4c0-0.2-0.2-0.2-0.4-0.2h-1.3l-0.2-0.2c-0.2-0.2-0.2-0.2-0.2-0.4v-7.7h1.9c0,0,0,0,0.2-0.2c0,0,0,0,0-0.2v-3
		C92.6,51.3,92.6,51.3,92.4,51.1z"/>
	<path fill="#556E93" d="M84.7,51.1c-0.2,0-0.4,0-0.4,0h-6.4c-0.4,0-0.7,0-1.1,0.4c-0.6,0.2-0.7,0.6-1.1,0.9s-0.4,0.7-0.4,1.3v4.1
		c0,0.7,0.4,1.3,0.7,1.9c0.6,0.4,1.1,0.7,1.9,0.7h2.8c0,0,0.2,0,0.2,0.2c0.2,0,0.2,0.2,0.2,0.2v1.7c0,0,0,0.2-0.2,0.4h-0.2h-5.1
		c0,0-0.2,0.2-0.4,0.2c0,0.2,0,0.2,0,0.4v2.6v0.2c0.2,0.2,0.4,0.2,0.4,0.2h6.4c0.6,0,0.7-0.2,1.3-0.4c0.4-0.4,0.7-0.7,0.9-0.9
		c0.4-0.6,0.4-0.9,0.4-1.3v-4.3c0-0.4,0-0.7-0.4-1.1c-0.2-0.6-0.6-0.7-0.9-1.1c-0.6-0.2-0.7-0.2-1.3-0.2h-2.8
		c-0.2,0-0.2-0.2-0.2-0.4c-0.2,0-0.2-0.2-0.2-0.4v-1.1c0-0.2,0-0.4,0.2-0.6c0,0,0,0,0.2,0h5.1c0,0,0.2,0,0.4-0.2c0,0,0-0.2,0-0.4
		v-2.6C84.7,51.3,84.7,51.3,84.7,51.1z"/>
	<path fill="#5F83B7" d="M74.2,51.5c0-0.2,0-0.2,0-0.4c-0.2,0-0.2,0-0.4,0c0,0-0.4,0-0.6,0s-0.6,0-0.9,0s-0.6,0-0.7,0s-0.4,0-0.4,0
		c-0.2,0.2-0.2,0.4-0.4,0.4c0,0.2-0.2,0.2-0.2,0.2c-0.2,0-0.2,0-0.2-0.2c-0.2,0-0.2-0.2-0.4-0.4c0,0-0.2,0-0.4,0
		c-0.4,0-0.9,0-1.3,0.4c-0.6,0.2-0.7,0.6-1.1,0.9c-0.2,0.4-0.4,0.7-0.4,1.3v12c0,0.4,0.2,0.6,0.2,0.6c0.2,0.2,0.6,0.2,0.7,0.2
		s0.4,0,0.6,0c0.4,0,0.7,0,0.9,0h0.6c0.2,0,0.4,0,0.6-0.2c0-0.2,0.2-0.4,0.2-0.6v-1.1c0-0.6,0-1.7,0-3.4c0-1.5,0-3.6,0-6.2
		c0-0.2,0-0.2,0.2-0.4c0,0,0.2,0,0.4,0h2.2c0,0,0.2-0.2,0.4-0.2c0-0.2,0.2-0.2,0.2-0.4L74.2,51.5z"/>
	<path fill="#5F83B7" d="M65.4,53.5c0-0.7-0.2-1.3-0.7-1.9c-0.4-0.4-1.1-0.6-1.9-0.6h-4.1c-0.6,0-0.9,0-1.3,0.4
		c-0.4,0.2-0.7,0.6-0.9,0.9C56,52.8,56,53.2,56,53.7v10.1c0,0.4,0,0.7,0.4,1.3c0.2,0.4,0.6,0.6,0.9,0.9c0.4,0.2,0.7,0.4,1.3,0.4h6
		c0.2,0,0.2,0,0.4-0.2l0.2-0.2l0.2-2.6c0-0.2,0-0.4,0-0.4c-0.2-0.2-0.4-0.2-0.4-0.2h-5.1c-0.2,0-0.4,0-0.4,0
		c-0.2-0.2-0.2-0.4-0.2-0.4v-1.9c0.2,0,0.4,0,0.7,0s0.7,0,1.1,0s0.7,0,1.1,0h0.4c0.9,0,1.5-0.2,2.1-0.7c0.4-0.4,0.6-0.9,0.6-1.7
		V53.5z M59.4,55c0-0.2,0-0.2,0.2-0.4c0,0,0.2,0,0.4,0h1.5c0.2,0,0.4,0,0.4,0.2c0.2,0,0.2,0.2,0,0.4c0,0.2,0,0.6,0,0.9
		c0,0.2,0,0.6,0,0.9c0.2,0,0.2,0,0,0.2c0,0-0.2,0-0.4,0.2h-1.5c-0.2,0-0.4-0.2-0.4-0.2c-0.2-0.2-0.2-0.2-0.2-0.2V55z"/>
	<path fill="#5F83B7" d="M54.9,53.7c0-0.4,0-0.7-0.4-1.3c-0.2-0.4-0.6-0.7-0.9-0.9c-0.4-0.4-0.7-0.4-1.3-0.4h-1.9c0,0-0.2,0-0.4,0
		c0,0.2,0,0.4-0.2,0.4c0,0.2,0,0.2-0.2,0.2c0,0-0.2,0-0.2-0.2c-0.2,0-0.2-0.2-0.4-0.4c0,0-0.2,0-0.4,0h-2.8h-0.2
		c-0.2,0.2-0.2,0.4-0.2,0.4v20.8c0,0,0,0.2,0.2,0.2c0,0.2,0.2,0.2,0.2,0.2h2.6c0.2,0,0.2,0,0.2-0.2c0.2,0,0.4-0.2,0.4-0.2v-5.8h3.2
		c0.6,0,0.9-0.2,1.3-0.4c0.6-0.4,0.7-0.7,0.9-0.9c0.4-0.6,0.4-0.9,0.4-1.5V53.7z M49.1,54.7c0.2,0,0.4,0,0.4,0h1.3
		c0.2,0,0.4,0,0.4,0c0.2,0.2,0.2,0.2,0.2,0.4v7.5c0,0,0,0.2-0.2,0.4c0,0-0.2,0-0.4,0h-1.3c0,0-0.2,0-0.4,0c0-0.2,0-0.4,0-0.4V55
		C49.1,54.8,49.1,54.8,49.1,54.7z"/>
	<path fill="#5F83B7" d="M38.6,51.1c-0.2,0-0.2,0-0.4,0h-2.8c-0.2,0-0.2,0-0.4,0c0,0.2-0.2,0.4-0.2,0.4v20.8l0.2,0.2
		c0.2,0.2,0.2,0.2,0.4,0.2H38c0,0,0.2,0,0.2-0.2c0.2,0,0.2-0.2,0.2-0.2v-5.8h3.2c0.6,0,1.1-0.2,1.5-0.4c0.4-0.4,0.7-0.7,0.9-0.9
		c0.2-0.6,0.4-0.9,0.4-1.5v-9.9c0-0.4-0.2-0.7-0.4-1.3c-0.4-0.4-0.6-0.7-0.9-0.9c-0.4-0.4-0.9-0.4-1.5-0.4h-1.7c-0.2,0-0.4,0-0.4,0
		c-0.2,0.2-0.2,0.4-0.2,0.4c-0.2,0.2-0.2,0.2-0.2,0.2c-0.2,0-0.2,0-0.4-0.2C38.8,51.5,38.6,51.3,38.6,51.1z M38.6,54.7
		c0,0,0.2,0,0.4,0h1.3c0.2,0,0.2,0,0.4,0c0,0.2,0.2,0.2,0.2,0.4v7.5c0,0-0.2,0.2-0.2,0.4c-0.2,0-0.2,0-0.4,0h-1.3
		c-0.2,0-0.4,0-0.4,0c-0.2-0.2-0.2-0.4-0.2-0.4V55C38.4,54.8,38.4,54.8,38.6,54.7z"/>
	<path fill="#5F83B7" d="M69.5,48.1c0.2,0,0.2,0,0.2,0c0.2-0.2,0.2-0.2,0.2-0.2c0-0.6-0.2-0.9-0.9-1.3c-1.3-0.6-2.6-1.1-3.7-1.7
		c0,0,0,0-0.2,0c0-0.2-0.2-0.2-0.4-0.2c-0.7-0.4-1.5-0.7-2.1-0.9l-6.7-3.2c-1.7-0.6-3.2-1.3-4.3-1.9c0,0-0.2,0-0.4-0.2
		c-0.4-0.2-0.7-0.4-1.1-0.4c-1.1-0.7-2.2-1.5-3.4-2.6l0,0c-0.2-0.2-0.2-0.2-0.2-0.2c-0.6-0.4-1.5-1.3-2.8-2.6
		c-0.4-0.4-0.7-0.4-1.1-0.4c-0.4,0.2-0.7,0.4-0.7,0.7c-0.9,1.5-2.2,2.6-4.3,3.4L15.1,43c-0.2,0-0.2,0-0.2,0
		c-0.7,0.4-1.1,0.6-1.3,0.6l0,0c-0.2,0.2-0.4,0.6-0.2,1.1c0,0.2,0,0.2,0,0.4c0.4,0.2,0.9,0.6,1.9,1.1l0,0l8.6,5.4v0.6l-8.6-5.4h-0.2
		c-0.2-0.4-0.6-0.4-0.9-0.2c-0.2,0-0.6,0.2-0.7,0.4v0.2c-0.2,0.2-0.2,0.6,0,0.9c0.2,0.4,0.4,0.6,0.7,0.6v0.2l9.7,6v0.7l-8.6-5.4
		c0-0.2,0-0.2,0-0.2c-0.6-0.2-1.1-0.4-1.3-0.2h-0.2c-0.2,0.2-0.4,0.6-0.4,0.9l0,0c-0.2,0.4,0,0.7,0.2,0.9c0.2,0.2,0.4,0.4,1.1,0.7
		l0,0l9.2,5.8v0.6l-8.6-5.4h-0.2C14.9,53,14.8,53,14.4,53l0,0c-0.4,0-0.6,0.2-0.7,0.6v-0.2c-0.4,0.4-0.4,0.6-0.2,1.1
		c0,0.2,0.2,0.6,0.6,0.7l0,0c0.4,0.2,0.7,0.4,1.5,0.9c1.7,0.9,4.5,2.8,8.4,5.2V62l-8.6-5.4l0,0c-0.7-0.4-1.1-0.4-1.5,0
		c-0.4,0.2-0.6,0.6-0.4,0.9c0,0.6,0.2,0.7,0.6,0.9l0,0c2.4,1.5,5.6,3.6,9.9,6.4c0.2,0.4,0.4,0.7,0.7,0.9c0.4,0.6,1.1,0.7,1.7,0.7
		h4.3c0.9,0,1.5-0.2,1.9-0.7c0.6-0.4,0.7-1.1,0.7-1.9V51.5c0,0,0-0.2-0.2-0.4c0,0-0.2,0-0.4,0h-2.4c-0.2,0-0.4,0-0.6,0
		c0,0.2,0,0.4,0,0.4v11.2c0,0,0,0.2-0.2,0.2c0,0.2-0.2,0.2-0.2,0.2h-1.5c-0.2,0-0.2,0-0.4-0.2v-0.2V51.5c0,0-0.2-0.2-0.2-0.4
		c0,0,0,0-0.2,0c0,0,0,0,0-0.2v0.2c0-0.2,0-0.2-0.2-0.2c0-0.2,0-0.2,0,0l-9.7-6.2l20.8-6c2.2-0.6,3.7-1.9,4.9-3.4
		c1.1,1.1,2.1,1.9,3,2.8c1.3,0.9,2.2,1.5,3.4,2.1l0,0l17.4,7.9c0,0,0,0,0.2,0H69.5z"/>
</g>
<g>
</g>
<g>
</g>
<g>
</g>
<g>
</g>
<g>
</g>
<g>
</g>
<g>
</g>
<g>
</g>
<g>
</g>
<g>
</g>
<g>
</g>
<g>
</g>
<g>
</g>
<g>
</g>
<g>
</g>
</svg>
