<?xml version="1.0" encoding="utf-8"?>
<!-- Generator: Adobe Illustrator 18.1.1, SVG Export Plug-In . SVG Version: 6.00 Build 0)  -->
<svg version="1.1" id="Layer_1" xmlns="http://www.w3.org/2000/svg" xmlns:xlink="http://www.w3.org/1999/xlink" x="0px" y="0px"
	 viewBox="0 0 140 105" enable-background="new 0 0 140 105" xml:space="preserve">
<g>
	<g>
		<path fill="#F6851F" d="M98.8,15.3l-12,63.9l-34.4,3.4L42.2,24.8L98.8,15.3z M57.8,67.3L80.1,68l4.2-37.6L52,33.3L57.8,67.3z"/>
	</g>
	<g>
		
			<rect x="76" y="53.4" transform="matrix(0.7255 -0.6883 0.6883 0.7255 -26.8181 75.5741)" fill="#F6851F" width="10.7" height="36"/>
	</g>
	<g>
		<path fill="#F6851F" d="M54.7,89l0.7-0.1L55,85.6l-0.9,0.1l0.1,0.7l-0.8,0.1L53.2,85l4.4-0.5l0.2,1.5l-0.8,0.1l-0.1-0.7l-0.9,0.1
			l0.4,3.4l0.7-0.1l0.1,0.7l-2.4,0.3L54.7,89z"/>
		<path fill="#F6851F" d="M58.5,88.6l0.7-0.1l-0.4-3.4l-0.7,0.1l-0.1-0.7l2.3-0.3c1.4-0.2,2.1,0.6,2.1,1.3c0.1,0.6-0.2,1.1-0.8,1.4
			l0.9,1.2l0.6-0.1l0.1,0.7L62,89l-1.2-1.7L60,87.4l0.1,1l0.7-0.1l0.1,0.7l-2.2,0.2L58.5,88.6z M60.7,86.6c0.8-0.1,1-0.5,0.9-0.9
			c0-0.4-0.3-0.8-1.1-0.7l-0.8,0.1l0.2,1.6L60.7,86.6z"/>
		<path fill="#F6851F" d="M64,87.1l-0.3-2.5l-0.7,0.1L63,84l2.2-0.2l0.1,0.7l-0.7,0.1l0.3,2.4c0.1,0.7,0.6,1,1.2,0.9
			c0.6-0.1,1-0.4,1-1.1l-0.3-2.4l-0.7,0.1l-0.1-0.7l2.2-0.2l0.1,0.7l-0.7,0.1l0.3,2.4c0.1,1.1-0.6,1.9-1.8,2
			C65.1,88.7,64.1,88.3,64,87.1z"/>
		<path fill="#F6851F" d="M68.9,85.8c-0.2-1.6,0.8-2.7,2.3-2.8c0.8-0.1,1.5,0.1,1.8,0.2l0.1,1.4l-0.9,0.1l-0.1-0.9
			c-0.2,0-0.6-0.1-0.9,0c-1,0.1-1.6,0.8-1.5,1.9c0.1,1.1,0.9,1.7,1.9,1.6c0.7-0.1,1.2-0.4,1.6-0.7l0.1,0.9c-0.3,0.2-0.9,0.5-1.7,0.6
			C70.2,88.2,69,87.4,68.9,85.8z"/>
		<path fill="#F6851F" d="M74.1,86.9l0.7-0.1l-0.4-3.4l-0.7,0.1l-0.1-0.7l2.2-0.2l0.1,0.7l-0.6,0.1l0.4,3.4l0.7-0.1l0.1,0.7
			l-2.3,0.2L74.1,86.9z M75.7,85.1L75.7,85.1l1.4-1.9l-0.5,0.1l-0.1-0.7l2.1-0.2l0.1,0.7l-0.6,0.1l-1.3,1.8l1.6,1.6l0.7-0.1l0.1,0.7
			l-1.3,0.1L75.7,85.1z"/>
	</g>
	<g>
		<path fill="#F6851F" d="M42.6,22.4l0.6-0.1l-0.5-2.7L42,19.8l0.1,0.6l-0.7,0.1l-0.2-1.2l3.5-0.6l0.2,1.2L44.2,20l-0.1-0.6
			l-0.7,0.1l0.5,2.7l0.6-0.1l0.1,0.6L42.7,23L42.6,22.4z"/>
		<path fill="#F6851F" d="M45.6,21.9l0.5-0.1l-0.5-2.7l-0.5,0.1l-0.1-0.6l1.8-0.3l0.1,0.6L46.4,19l0.2,1l1.8-0.3l-0.2-1l-0.5,0.1
			l-0.1-0.6l1.8-0.3l0.1,0.6L49,18.5l0.5,2.7l0.5-0.1l0.1,0.6L48.3,22l-0.1-0.6l0.5-0.1l-0.2-1l-1.8,0.3l0.2,1l0.5-0.1l0.1,0.6
			l-1.8,0.3L45.6,21.9z"/>
		<path fill="#F6851F" d="M50.4,21L51,21l-0.5-2.7L50,18.4l-0.1-0.6l3.2-0.5l0.2,1.1l-0.7,0.1l-0.1-0.5l-1.2,0.2l0.2,1l1.4-0.2
			l0.1,0.6l-1.4,0.2l0.2,1.1l1.3-0.2L52.8,20l0.7-0.1l0.2,1.2l-3.2,0.5L50.4,21z"/>
	</g>
</g>
</svg>
