<?xml version="1.0" encoding="utf-8"?>
<!-- Generator: Adobe Illustrator 18.1.1, SVG Export Plug-In . SVG Version: 6.00 Build 0)  -->
<svg version="1.1" id="Layer_1" xmlns="http://www.w3.org/2000/svg" xmlns:xlink="http://www.w3.org/1999/xlink" x="0px" y="0px"
	 viewBox="0 0 140 105" enable-background="new 0 0 140 105" xml:space="preserve">
<g>
	<g>
		<path fill="#F6921E" d="M25.3,56.4v0.5c0,0.5-0.4,0.9-0.9,0.9H13.5c-0.5,0-1-0.1-1.5-0.3c-0.5-0.2-0.9-0.5-1.2-0.8
			c-0.3-0.3-0.6-0.7-0.8-1.2c-0.2-0.5-0.3-1-0.3-1.5v-3c0-0.5,0.1-1,0.3-1.5c0.2-0.5,0.5-0.9,0.8-1.2c0.3-0.3,0.7-0.6,1.2-0.8
			c0.5-0.2,1-0.3,1.5-0.3l10.9,0c0.5,0,0.9,0.4,0.9,0.9v0.5c0,0.5-0.4,0.9-0.9,0.9H13.5c-0.4,0-0.8,0.1-1,0.4
			c-0.3,0.3-0.4,0.6-0.4,1v3c0,0.4,0.1,0.8,0.4,1c0.3,0.3,0.6,0.4,1,0.4h10.9C24.9,55.5,25.3,55.9,25.3,56.4"/>
		<path fill="#FAAF40" d="M29.5,49.9v-3c0-0.5-0.1-1-0.3-1.5c-0.2-0.5-0.5-0.9-0.8-1.2c-0.3-0.3-0.7-0.6-1.2-0.8
			c-0.5-0.2-1-0.3-1.5-0.3H14.8c-0.5,0-0.9,0.4-0.9,0.9v0.5c0,0.5,0.4,0.9,0.9,0.9h10.9c0.4,0,0.8,0.1,1,0.4c0.3,0.3,0.4,0.6,0.4,1
			v3c0,0.4-0.1,0.8-0.4,1c-0.3,0.3-0.6,0.4-1,0.4H14.8c-0.5,0-0.9,0.4-0.9,0.9v0v0.5v0c0,0.5,0.4,0.9,0.9,0.9l10.9,0
			c0.1,0,0.1,0,0.2,0c0.3,0,0.6,0.2,0.9,0.4c0.3,0.3,0.4,0.6,0.4,1v3c0,0.4-0.1,0.8-0.4,1c-0.3,0.3-0.6,0.4-1,0.4H14.8
			c-0.5,0-0.9,0.4-0.9,0.9v0.5c0,0.5,0.4,0.9,0.9,0.9l10.9,0c0.5,0,1-0.1,1.5-0.3c0.5-0.2,0.9-0.5,1.2-0.8c0.3-0.3,0.6-0.7,0.8-1.2
			c0.2-0.5,0.3-1,0.3-1.5v-3c0-0.5-0.1-1-0.3-1.5c-0.2-0.4-0.4-0.8-0.8-1.1c0.3-0.3,0.6-0.7,0.8-1.2C29.4,50.9,29.5,50.4,29.5,49.9"
			/>
	</g>
	<g>
		<path fill="#F6921E" d="M42.7,57.7c-0.4,0.3-0.8,0.5-1.4,0.6c-0.6,0.1-1.2,0.2-1.8,0.2c-0.7,0-1.4-0.1-2.1-0.3
			c-0.7-0.2-1.2-0.6-1.7-1.1c-0.5-0.5-0.9-1.2-1.2-2c-0.3-0.8-0.4-1.8-0.4-2.9c0-1.2,0.2-2.2,0.5-3c0.3-0.8,0.8-1.4,1.3-1.9
			c0.5-0.5,1.1-0.8,1.8-1.1c0.6-0.2,1.3-0.3,1.9-0.3c0.7,0,1.3,0,1.8,0.1c0.5,0.1,0.9,0.2,1.2,0.3l-0.5,2c-0.3-0.1-0.6-0.2-0.9-0.3
			C40.7,48,40.3,48,39.8,48c-1,0-1.7,0.3-2.3,1c-0.6,0.7-0.9,1.7-0.9,3.2c0,0.6,0.1,1.2,0.2,1.7c0.1,0.5,0.3,1,0.6,1.3
			c0.3,0.4,0.6,0.6,1.1,0.8c0.4,0.2,0.9,0.3,1.5,0.3c0.5,0,1-0.1,1.3-0.2c0.4-0.1,0.7-0.2,0.9-0.4L42.7,57.7z"/>
		<path fill="#F6921E" d="M46,50.1c0.5-0.2,1-0.4,1.6-0.5c0.6-0.1,1.3-0.2,2-0.2c0.6,0,1.1,0.1,1.5,0.2c0.4,0.1,0.7,0.3,1,0.6
			c0.2,0.3,0.4,0.6,0.5,1c0.1,0.4,0.1,0.8,0.1,1.2c0,0.5,0,1-0.1,1.5c0,0.5-0.1,1-0.1,1.5c0,0.5,0,1,0,1.4c0,0.5,0.1,0.9,0.3,1.3
			h-1.8L50.8,57h-0.1c-0.2,0.4-0.6,0.7-1,0.9c-0.4,0.3-0.9,0.4-1.6,0.4c-0.4,0-0.8-0.1-1.1-0.2c-0.3-0.1-0.6-0.3-0.8-0.5
			c-0.2-0.2-0.4-0.5-0.5-0.8c-0.1-0.3-0.2-0.6-0.2-1c0-0.5,0.1-1,0.4-1.3c0.2-0.4,0.6-0.7,1-0.9c0.4-0.2,1-0.4,1.6-0.5
			c0.6-0.1,1.3-0.1,2.1-0.1c0.1-0.6,0-1.1-0.1-1.4c-0.2-0.3-0.6-0.4-1.2-0.4c-0.4,0-0.9,0-1.4,0.1c-0.5,0.1-0.9,0.2-1.2,0.4L46,50.1
			z M48.9,56.5c0.4,0,0.8-0.1,1.1-0.3c0.3-0.2,0.5-0.4,0.6-0.6v-1.1c-0.4,0-0.7,0-1,0c-0.3,0-0.6,0.1-0.9,0.2
			c-0.3,0.1-0.5,0.2-0.6,0.3c-0.1,0.1-0.2,0.3-0.2,0.6c0,0.3,0.1,0.6,0.3,0.8C48.3,56.4,48.6,56.5,48.9,56.5z"/>
		<path fill="#F6921E" d="M61.6,51.7c-0.4-0.1-0.7-0.2-1-0.2c-0.4,0-0.7,0.1-1,0.3c-0.3,0.2-0.5,0.5-0.5,0.8v5.6h-2.2v-8.6h1.7
			l0.3,1.1h0.1c0.2-0.4,0.5-0.8,0.8-1c0.3-0.2,0.7-0.3,1.2-0.3c0.3,0,0.6,0.1,1,0.2L61.6,51.7z"/>
		<path fill="#F6921E" d="M72.5,55.2c0,0.5,0,1,0,1.5c0,0.5,0.1,1,0.2,1.6H71l-0.3-1.1h-0.1c-0.2,0.4-0.6,0.7-1,1
			c-0.4,0.2-0.9,0.4-1.5,0.4c-1.1,0-1.9-0.4-2.5-1.1c-0.6-0.7-0.9-1.8-0.9-3.4c0-1.5,0.3-2.6,1-3.4c0.7-0.8,1.6-1.2,2.9-1.2
			c0.4,0,0.7,0,0.9,0.1c0.2,0,0.5,0.1,0.7,0.2v-3.5h2.2V55.2z M68.6,56.5c0.4,0,0.8-0.1,1-0.3c0.3-0.2,0.4-0.5,0.5-0.9v-3.7
			c-0.2-0.1-0.3-0.2-0.5-0.3c-0.2-0.1-0.4-0.1-0.8-0.1c-0.6,0-1.1,0.2-1.4,0.6C67.2,52.3,67,53,67,54.1c0,0.7,0.1,1.3,0.4,1.8
			C67.7,56.3,68.1,56.5,68.6,56.5z"/>
		<path fill="#F6921E" d="M84.4,48.9c0,0.3,0,0.6-0.1,0.9c-0.1,0.3-0.2,0.6-0.4,0.8c-0.2,0.3-0.4,0.5-0.7,0.7
			c-0.3,0.2-0.6,0.3-1,0.4v0.1c0.3,0.1,0.7,0.2,1,0.3c0.3,0.1,0.6,0.3,0.8,0.6c0.2,0.2,0.4,0.5,0.6,0.9c0.1,0.3,0.2,0.8,0.2,1.2
			c0,0.6-0.1,1.2-0.4,1.6c-0.3,0.5-0.6,0.8-1,1.1c-0.4,0.3-0.9,0.5-1.4,0.6s-1.1,0.2-1.7,0.2c-0.2,0-0.4,0-0.7,0c-0.3,0-0.5,0-0.8,0
			c-0.3,0-0.6,0-0.9-0.1c-0.3,0-0.5-0.1-0.8-0.1V46.2c0.4-0.1,0.9-0.1,1.5-0.2c0.6,0,1.2-0.1,1.8-0.1c0.4,0,0.9,0,1.4,0.1
			c0.5,0.1,0.9,0.2,1.3,0.4c0.4,0.2,0.7,0.5,0.9,0.9C84.3,47.8,84.4,48.3,84.4,48.9z M79.4,51.4c0.2,0,0.4,0,0.7,0
			c0.3,0,0.5,0,0.7-0.1c0.3-0.1,0.5-0.2,0.8-0.3c0.2-0.1,0.5-0.3,0.6-0.5c0.2-0.2,0.3-0.4,0.4-0.6c0.1-0.2,0.2-0.5,0.2-0.8
			c0-0.4-0.1-0.7-0.2-0.9c-0.1-0.2-0.3-0.4-0.6-0.6c-0.2-0.1-0.5-0.3-0.8-0.3c-0.3-0.1-0.6-0.1-1-0.1c-0.4,0-0.7,0-1,0
			c-0.3,0-0.6,0-0.7,0.1v4.1H79.4z M80.4,57.1c0.4,0,0.7,0,1.1-0.1c0.3-0.1,0.7-0.2,0.9-0.4c0.3-0.2,0.5-0.4,0.6-0.7
			c0.2-0.3,0.2-0.6,0.2-1c0-0.5-0.1-0.9-0.3-1.1c-0.2-0.3-0.4-0.5-0.7-0.7c-0.3-0.2-0.6-0.3-1-0.3c-0.4-0.1-0.8-0.1-1.1-0.1h-1.5V57
			c0.1,0,0.2,0,0.3,0.1c0.1,0,0.3,0,0.5,0c0.2,0,0.4,0,0.5,0C80.1,57.1,80.3,57.1,80.4,57.1z"/>
		<path fill="#F6921E" d="M90.5,49.6v4.9c0,0.4,0,0.8,0.1,1.2c0.1,0.3,0.1,0.6,0.3,0.8c0.1,0.2,0.3,0.4,0.5,0.5
			c0.2,0.1,0.5,0.2,0.8,0.2c0.3,0,0.6,0,0.8-0.1c0.2-0.1,0.5-0.2,0.6-0.4c0.2-0.2,0.4-0.4,0.5-0.6c0.1-0.2,0.3-0.5,0.4-0.7v-5.8h1.4
			v6.2c0,0.4,0,0.8,0,1.3c0,0.4,0.1,0.8,0.1,1.2h-1l-0.3-1.4h-0.1c-0.3,0.4-0.6,0.8-1.1,1.1c-0.4,0.3-1,0.4-1.7,0.4
			c-0.5,0-0.9-0.1-1.2-0.2c-0.4-0.1-0.6-0.3-0.9-0.6s-0.4-0.6-0.5-1.1c-0.1-0.5-0.2-1.1-0.2-1.8v-5.2H90.5z"/>
		<path fill="#F6921E" d="M107.4,55.2c0,0.6,0,1.1,0,1.6c0,0.5,0.1,0.9,0.2,1.4h-0.9l-0.3-1.2h-0.1c-0.2,0.4-0.6,0.7-1,1
			c-0.4,0.3-1,0.4-1.5,0.4c-1.2,0-2-0.4-2.6-1.1c-0.6-0.7-0.8-1.9-0.8-3.4c0-1.5,0.3-2.6,1-3.4c0.7-0.8,1.7-1.1,2.9-1.1
			c0.4,0,0.8,0,1,0.1c0.2,0,0.5,0.1,0.8,0.2v-3.6h1.4V55.2z M103.9,57.2c0.6,0,1.1-0.2,1.4-0.5c0.3-0.3,0.6-0.8,0.7-1.4v-4.3
			c-0.2-0.2-0.4-0.3-0.7-0.3c-0.3-0.1-0.6-0.1-1.1-0.1c-0.8,0-1.4,0.3-1.9,0.8c-0.4,0.5-0.7,1.4-0.7,2.5c0,0.5,0,0.9,0.1,1.3
			c0.1,0.4,0.2,0.7,0.4,1c0.2,0.3,0.4,0.5,0.7,0.7C103.2,57.1,103.5,57.2,103.9,57.2z"/>
		<path fill="#F6921E" d="M118.9,55.2c0,0.6,0,1.1,0,1.6c0,0.5,0.1,0.9,0.2,1.4h-0.9l-0.3-1.2h-0.1c-0.2,0.4-0.6,0.7-1,1
			c-0.4,0.3-1,0.4-1.5,0.4c-1.2,0-2-0.4-2.6-1.1c-0.6-0.7-0.8-1.9-0.8-3.4c0-1.5,0.3-2.6,1-3.4c0.7-0.8,1.7-1.1,2.9-1.1
			c0.4,0,0.8,0,1,0.1c0.2,0,0.5,0.1,0.8,0.2v-3.6h1.4V55.2z M115.4,57.2c0.6,0,1.1-0.2,1.4-0.5c0.3-0.3,0.6-0.8,0.7-1.4v-4.3
			c-0.2-0.2-0.4-0.3-0.7-0.3c-0.3-0.1-0.6-0.1-1.1-0.1c-0.8,0-1.4,0.3-1.9,0.8c-0.4,0.5-0.7,1.4-0.7,2.5c0,0.5,0,0.9,0.1,1.3
			c0.1,0.4,0.2,0.7,0.4,1c0.2,0.3,0.4,0.5,0.7,0.7C114.6,57.1,115,57.2,115.4,57.2z"/>
		<path fill="#F6921E" d="M126.3,55.2l0.5,1.7h0.1l0.4-1.7l1.7-5.6h1.4l-2.6,7.8c-0.2,0.6-0.4,1.1-0.6,1.6c-0.2,0.5-0.4,1-0.6,1.4
			c-0.2,0.4-0.5,0.7-0.8,1c-0.3,0.2-0.6,0.4-1,0.4c-0.4,0-0.8-0.1-1-0.2l0.2-1.2c0.1,0.1,0.3,0.1,0.4,0.1c0.3,0,0.6-0.2,0.9-0.5
			c0.3-0.3,0.5-0.9,0.7-1.8l-3.5-8.6h1.6L126.3,55.2z"/>
	</g>
</g>
<g>
</g>
<g>
</g>
<g>
</g>
<g>
</g>
<g>
</g>
<g>
</g>
<g>
</g>
<g>
</g>
<g>
</g>
<g>
</g>
<g>
</g>
<g>
</g>
<g>
</g>
<g>
</g>
<g>
</g>
</svg>
