<?xml version="1.0" encoding="iso-8859-1"?>
<!-- Generator: Adobe Illustrator 18.1.1, SVG Export Plug-In . SVG Version: 6.00 Build 0)  -->
<!DOCTYPE svg PUBLIC "-//W3C//DTD SVG 1.1//EN" "http://www.w3.org/Graphics/SVG/1.1/DTD/svg11.dtd">
<svg version="1.1" xmlns="http://www.w3.org/2000/svg" xmlns:xlink="http://www.w3.org/1999/xlink" x="0px" y="0px"
	 viewBox="0 0 140 105" style="enable-background:new 0 0 140 105;" xml:space="preserve">
<g id="mooki">
	<g>
		<g>
			<path d="M69.913,94.515c-8.917-8.84-17.97-17.138-26.241-26.154C25.055,48.07,35.661,15.684,62.625,9.719
				c19.403-4.292,39.324,9.543,42.095,29.143c1.742,12.323-1.824,22.768-10.619,31.52c-7.53,7.493-14.999,15.047-22.5,22.569
				C71.066,93.488,70.489,93.984,69.913,94.515z M89.391,54.758c5.356-8.556,3.159-20.954-5.205-27.902
				c-8.637-7.175-21.486-6.78-29.767,1.01c-7.211,6.783-9.348,19.397-4.276,26.298c0.212-3.21-0.348-6.552,2.954-8.735
				c2.62,2.186,5.427,1.661,8.347-0.174c-1.549,10.485-1.435,18.548,0.192,19.615c0.478-0.791,0.26-1.663,0.266-2.492
				c0.028-3.939-0.009-7.878,0.03-11.817c0.025-2.523,0.927-4.644,3.028-6.125c4.753,2.19,5.158,2.187,9.971-0.178
				c5.397,6.176,1.658,13.913,3.711,20.662c0.113-6.4,1.094-12.789-0.612-19.835c3.172,2.198,5.98,2.293,8.612,0.414
				C89.985,47.806,89.171,51.195,89.391,54.758z M68.16,47.73c1.873,4.155-1.379,7.692-0.872,11.471
				c0.95,0.709,1.566,1.698,2.765,2.079c0.788-0.737,1.588-1.485,2.334-2.182c0.144-2.148-0.728-3.959-1.064-5.867
				c-0.322-1.825-1.23-3.646,0.357-5.502C70.327,47.73,69.313,47.73,68.16,47.73z"/>
			<path d="M65.397,34.465c3.169-1.674,5.761-1.658,8.798,0.003c0.678,3.252,2.316,6.681-1.392,9.23
				c-1.857,1.276-3.908,1.302-5.803,0.113C63.142,41.389,64.816,37.882,65.397,34.465z"/>
			<path d="M56.887,45.617c-2.549-0.027-4.578-2.091-4.497-4.575c0.076-2.36,2.104-4.288,4.524-4.302
				c2.616-0.015,4.598,1.911,4.589,4.46C61.494,43.729,59.492,45.644,56.887,45.617z"/>
			<path d="M82.755,45.616c-2.605,0.032-4.603-1.882-4.609-4.415c-0.006-2.44,1.873-4.378,4.323-4.461
				c2.609-0.088,4.672,1.778,4.754,4.298C87.305,43.542,85.31,45.585,82.755,45.616z"/>
			<path d="M75.067,33.992c-3.893-3.029-7.885-1.048-11.962-0.148c-0.503,1.015,0.38,2.387-0.327,4.234
				c-1.097-2.237,0.892-4.435-1.279-5.916c2.85-1.322,5.465-2.535,8.253-3.828c2.65,1.211,5.344,2.441,8.236,3.763
				C77.293,33.323,76.008,33.254,75.067,33.992z"/>
		</g>
	</g>
</g>
<g id="Layer_1">
</g>
</svg>
