<?xml version="1.0" encoding="iso-8859-1"?>
<!-- Generator: Adobe Illustrator 18.1.1, SVG Export Plug-In . SVG Version: 6.00 Build 0)  -->
<!DOCTYPE svg PUBLIC "-//W3C//DTD SVG 1.1//EN" "http://www.w3.org/Graphics/SVG/1.1/DTD/svg11.dtd">
<svg version="1.1" xmlns="http://www.w3.org/2000/svg" xmlns:xlink="http://www.w3.org/1999/xlink" x="0px" y="0px"
	 viewBox="0 0 140 105" style="enable-background:new 0 0 140 105;" xml:space="preserve">
<g id="oncampuschef">
	<g>
		<path style="fill:#E3695C;" d="M18.579,55.235c-0.962,0.939-2.15,1.409-3.566,1.409s-2.603-0.47-3.565-1.409
			c-0.962-0.938-1.443-2.108-1.443-3.51s0.481-2.571,1.443-3.51c0.961-0.939,2.149-1.409,3.565-1.409s2.603,0.47,3.566,1.409
			c0.961,0.939,1.442,2.108,1.442,3.51S19.54,54.297,18.579,55.235z M17.402,49.282c-0.649-0.671-1.445-1.007-2.389-1.007
			s-1.74,0.336-2.387,1.007c-0.649,0.672-0.973,1.486-0.973,2.443c0,0.958,0.324,1.772,0.973,2.443
			c0.648,0.671,1.444,1.007,2.387,1.007s1.74-0.336,2.389-1.007c0.648-0.671,0.972-1.485,0.972-2.443
			C18.374,50.768,18.05,49.954,17.402,49.282z"/>
		<path style="fill:#E3695C;" d="M24.443,52.629v3.919H22.92V49.31h1.524v1.32c0.245-0.444,0.582-0.794,1.013-1.048
			c0.431-0.254,0.896-0.381,1.395-0.381c0.816,0,1.476,0.249,1.98,0.749c0.503,0.498,0.755,1.219,0.755,2.163v4.436h-1.525v-3.973
			c0-1.333-0.553-2-1.66-2c-0.526,0-0.984,0.175-1.374,0.524C24.638,51.448,24.443,51.958,24.443,52.629z"/>
		<path style="fill:#E3695C;" d="M37.322,55.092c0.554,0,1.03-0.092,1.428-0.278c0.4-0.186,0.817-0.484,1.252-0.891l1.034,1.061
			c-1.008,1.116-2.23,1.674-3.668,1.674s-2.631-0.463-3.579-1.389c-0.948-0.925-1.422-2.095-1.422-3.51s0.483-2.594,1.45-3.538
			c0.966-0.943,2.186-1.415,3.66-1.415c1.475,0,2.706,0.545,3.695,1.633l-1.021,1.115c-0.454-0.435-0.883-0.739-1.286-0.911
			c-0.404-0.173-0.878-0.259-1.422-0.259c-0.962,0-1.77,0.311-2.423,0.932c-0.652,0.621-0.979,1.415-0.979,2.382
			c0,0.966,0.323,1.773,0.972,2.422S36.432,55.092,37.322,55.092z"/>
		<path style="fill:#E3695C;" d="M49.715,56.548h-1.387v-0.966c-0.599,0.716-1.402,1.075-2.408,1.075
			c-0.753,0-1.376-0.214-1.871-0.64c-0.494-0.426-0.741-0.995-0.741-1.708c0-0.712,0.262-1.245,0.788-1.599
			c0.526-0.353,1.238-0.53,2.136-0.53h1.973v-0.272c0-0.961-0.535-1.442-1.606-1.442c-0.671,0-1.37,0.245-2.095,0.734l-0.68-0.952
			c0.879-0.699,1.877-1.048,2.993-1.048c0.853,0,1.549,0.215,2.088,0.646c0.539,0.432,0.809,1.11,0.809,2.034V56.548z
			 M48.191,53.854v-0.612h-1.714c-1.098,0-1.647,0.345-1.647,1.034c0,0.354,0.136,0.623,0.407,0.809
			c0.272,0.186,0.651,0.279,1.137,0.279c0.485,0,0.909-0.136,1.271-0.408C48.01,54.685,48.191,54.317,48.191,53.854z"/>
		<path style="fill:#E3695C;" d="M54.361,52.629v3.919h-1.524V49.31h1.524v1.32c0.218-0.444,0.547-0.794,0.987-1.048
			c0.44-0.254,0.914-0.381,1.422-0.381c1.144,0,1.919,0.472,2.328,1.415c0.716-0.943,1.61-1.415,2.68-1.415
			c0.817,0,1.477,0.249,1.98,0.749c0.504,0.498,0.755,1.219,0.755,2.163v4.436h-1.524v-3.973c0-1.333-0.554-2-1.66-2
			c-0.517,0-0.969,0.165-1.354,0.496s-0.587,0.815-0.606,1.45v4.027h-1.524v-3.973c0-0.689-0.123-1.195-0.368-1.517
			c-0.245-0.322-0.63-0.483-1.156-0.483s-0.984,0.175-1.374,0.524C54.556,51.448,54.361,51.958,54.361,52.629z"/>
		<path style="fill:#E3695C;" d="M71.513,49.201c0.971,0,1.801,0.336,2.49,1.007c0.689,0.671,1.034,1.565,1.034,2.681
			c0,1.115-0.343,2.023-1.028,2.721c-0.685,0.699-1.483,1.049-2.395,1.049c-0.911,0-1.73-0.4-2.456-1.198v3.728h-1.524V49.31h1.524
			v1.266C69.758,49.658,70.542,49.201,71.513,49.201z M69.132,52.943c0,0.69,0.208,1.255,0.626,1.694
			c0.417,0.44,0.926,0.66,1.524,0.66c0.599,0,1.121-0.218,1.565-0.653c0.445-0.435,0.667-1,0.667-1.694s-0.217-1.27-0.652-1.729
			c-0.436-0.457-0.958-0.687-1.565-0.687c-0.608,0-1.121,0.229-1.538,0.687C69.34,51.679,69.132,52.253,69.132,52.943z"/>
		<path style="fill:#E3695C;" d="M82.861,53.228V49.31h1.524v7.239h-1.524v-1.32c-0.245,0.445-0.582,0.794-1.013,1.048
			c-0.431,0.255-0.896,0.382-1.395,0.382c-0.816,0-1.476-0.25-1.98-0.749c-0.503-0.499-0.755-1.22-0.755-2.164V49.31h1.525v3.973
			c0,1.333,0.553,2,1.66,2c0.526,0,0.984-0.174,1.374-0.524C82.666,54.41,82.861,53.899,82.861,53.228z"/>
		<path style="fill:#E3695C;" d="M92.743,54.384c0,0.69-0.25,1.241-0.749,1.653c-0.499,0.413-1.138,0.62-1.919,0.62
			c-0.526,0-1.073-0.095-1.639-0.286c-0.567-0.192-1.069-0.458-1.504-0.803l0.734-1.185c0.844,0.636,1.66,0.953,2.449,0.953
			c0.344,0,0.617-0.08,0.816-0.238c0.2-0.159,0.3-0.361,0.3-0.606c0-0.363-0.482-0.69-1.443-0.98
			c-0.072-0.028-0.127-0.045-0.163-0.054c-1.506-0.409-2.259-1.089-2.259-2.041c0-0.671,0.26-1.209,0.783-1.612
			c0.522-0.404,1.199-0.606,2.034-0.606c0.834,0,1.623,0.245,2.367,0.734l-0.571,1.129c-0.59-0.39-1.23-0.585-1.919-0.585
			c-0.363,0-0.658,0.065-0.885,0.197c-0.227,0.132-0.34,0.329-0.34,0.592c0,0.236,0.117,0.408,0.354,0.516
			c0.163,0.082,0.392,0.159,0.687,0.231c0.295,0.073,0.556,0.145,0.783,0.218c0.226,0.073,0.446,0.154,0.66,0.245
			c0.213,0.091,0.442,0.218,0.687,0.381C92.498,53.187,92.743,53.696,92.743,54.384z"/>
		<path style="fill:#E3695C;" d="M100.05,55.092c0.553,0,1.029-0.092,1.428-0.278c0.399-0.186,0.816-0.484,1.251-0.891l1.034,1.061
			c-1.007,1.116-2.229,1.674-3.666,1.674c-1.438,0-2.631-0.463-3.579-1.389c-0.948-0.925-1.422-2.095-1.422-3.51
			s0.483-2.594,1.448-3.538c0.967-0.943,2.187-1.415,3.661-1.415c1.474,0,2.705,0.545,3.694,1.633l-1.021,1.115
			c-0.453-0.435-0.881-0.739-1.286-0.911c-0.403-0.173-0.877-0.259-1.422-0.259c-0.961,0-1.768,0.311-2.422,0.932
			s-0.98,1.415-0.98,2.382c0,0.966,0.324,1.773,0.973,2.422C98.391,54.769,99.161,55.092,100.05,55.092z"/>
		<path style="fill:#E3695C;" d="M107.919,52.629v3.919h-1.525V46.466h1.525v4.164c0.217-0.444,0.546-0.794,0.986-1.048
			c0.441-0.254,0.915-0.381,1.423-0.381c0.816,0,1.476,0.249,1.979,0.749c0.504,0.498,0.755,1.219,0.755,2.163v4.436h-1.524v-3.973
			c0-1.333-0.554-2-1.66-2c-0.526,0-0.984,0.175-1.374,0.524S107.919,51.958,107.919,52.629z"/>
		<path style="fill:#E3695C;" d="M122.949,53.596h-5.674c0.035,0.526,0.277,0.95,0.721,1.272c0.444,0.322,0.952,0.483,1.524,0.483
			c0.907,0,1.597-0.286,2.069-0.857l0.871,0.952c-0.781,0.807-1.796,1.211-3.049,1.211c-1.017,0-1.88-0.339-2.592-1.014
			c-0.712-0.675-1.067-1.582-1.067-2.722c0-1.137,0.362-2.043,1.089-2.714c0.725-0.671,1.58-1.007,2.565-1.007
			s1.82,0.297,2.51,0.891c0.689,0.594,1.034,1.413,1.034,2.456V53.596z M117.275,52.398h4.15c0-0.607-0.19-1.074-0.571-1.401
			c-0.382-0.327-0.85-0.491-1.409-0.491s-1.06,0.171-1.504,0.51C117.496,51.357,117.275,51.818,117.275,52.398z"/>
		<path style="fill:#E3695C;" d="M127.407,48.71v0.599h1.905v1.225h-1.905v6.014h-1.524v-6.014h-0.911V49.31h0.911v-0.558
			c0-0.762,0.229-1.368,0.687-1.816c0.458-0.45,1.012-0.673,1.66-0.673c0.649,0,1.241,0.24,1.776,0.721l-0.626,1.075
			c-0.3-0.318-0.612-0.477-0.939-0.477s-0.58,0.103-0.762,0.307S127.407,48.366,127.407,48.71z"/>
	</g>
</g>
<g id="Layer_1">
</g>
</svg>
