<?xml version="1.0" encoding="utf-8"?>
<!-- Generator: Adobe Illustrator 18.1.1, SVG Export Plug-In . SVG Version: 6.00 Build 0)  -->
<svg version="1.1" id="Layer_2" xmlns="http://www.w3.org/2000/svg" xmlns:xlink="http://www.w3.org/1999/xlink" x="0px" y="0px"
	 viewBox="0 0 140 105" enable-background="new 0 0 140 105" xml:space="preserve">
<g id="hP0UrA.tif">
	<g>
		<path d="M97.1,82.4c-1.4,0.7-2.5,1.2-3.6,1.8c-2.1,1-2.8,0.8-3.9-1.2c-1.6-3.1-3-6.2-4.8-9.2c-1.1-1.9-2.1-2.3-4.2-1.6
			c-1.5,0.5-2.9,1.3-4.2,2.2c-1.7,1.2-3.4,2.5-4.9,3.8c-0.9,0.8-0.9,0.9,0.1,1.7c1.4,1.1,2.8,2.2,4.2,3.3c2.2,1.6,2.7,4,2.9,6.6
			c0,0.5-0.2,0.6-0.6,0.6c-4.3,0-8.7,0-13,0c-0.7,0-0.6-0.3-0.5-0.8c0.5-1.4,1.6-2.3,2.9-3c1.4-0.7,2.9-0.9,4.5-1.1
			c0.3,0,0.5,0,0.9-0.2c-1-1-2-2.1-3-3.1c-0.5-0.5-1-0.9-1.4-1.4c-1.2-1.4-1.2-2.3,0.1-3.6c3.1-3.1,6.2-6.3,9.2-9.4
			c0.3-0.3,0.6-0.6,0.8-1c0.3-0.5,0.3-1.1-0.2-1.6c-2.1-2.1-4.2-4.2-6.2-6.3c-0.3-0.3-0.6-0.3-1-0.3c-2.3,0.2-4.1-0.6-5.4-2.4
			c-0.3-0.5-0.7-0.7-1.3-0.9c-2.2-0.5-3.5-1.8-3.6-4.2c0-1.1-0.3-2.1-0.4-3.2c-0.1-0.8-0.4-1-1.2-1.1c-7.2-0.4-14.3-0.9-21.5-1.3
			c-0.6,0-0.9-0.1-0.8-0.8c0.7-8.8,1.4-17.5,2.1-26.3c0.1-0.8,0.4-1,1.1-0.9c3.5,0.3,7,0.5,10.5,0.8c0.7,0.1,1.1-0.1,1.3-0.8
			c0.9-2.5,0.9-2.5,3.5-2.4c12.8,0.8,25.5,1.6,38.3,2.4c1.7,0.1,1.7,0.1,1.7,1.8c0.1,7.5,0.2,15,0.4,22.5c0,0.7-0.1,1.1-0.7,1.5
			c-2,1.6-4.1,3.2-6.1,4.8c-0.5,0.4-1,0.5-1.6,0.5c-0.9-0.1-1.7-0.1-2.6-0.2c-1.4-0.1-1.4-0.1-0.8,1.1c0.5,1.1,1,2.1,1.4,3.2
			c0.6,1.3,0.4,1.9-0.7,2.8c-2.1,1.7-1.9,1.2-0.8,3.6c1.2,2.6,2.4,5.1,3.5,7.7c0.2,0.5,0.5,1,0.5,1.5c0,3,1.2,5.6,2.1,8.3
			c0.4,1.2,0.9,2.5,1.3,3.7c0.3,0.8,0.7,1,1.4,0.6c0.8-0.5,1.7-1,2.5-1.5c1-0.6,2.1-1.2,3.3-1.4c1.8-0.3,3.1,0.4,3.7,2.2
			c0.5,1.3,0.5,2.7,0.3,4.1c-0.3,1.8-0.8,3.4-1.8,5c-0.4,0.7-1,1.1-1.8,1c-0.2,0-0.5,0-0.7,0c-2.2,0-2.5-0.4-2.5-2.6
			C96.1,85.8,96.6,84.2,97.1,82.4z M81.1,41.2c4.4,0.3,8.8,0.5,13.1,0.8c0.9,0.1,1.1-0.2,1.1-1.1c-0.2-7.1-0.3-14.3-0.4-21.4
			c0-1.5,0-1.5-1.6-1.6c-8.4-0.5-16.8-1-25.2-1.6c-0.8-0.1-0.8,0.3-0.9,0.9c-0.2,7.4-0.4,14.8-0.7,22.2c0,0.6,0.1,0.9,0.8,0.9
			C72,40.6,76.5,40.9,81.1,41.2z M74.5,85.9c-2.2,0-4.1,0.2-5.9,0.8c-1.1,0.4-2.1,0.9-2.8,1.9c-0.2,0.2-0.5,0.5-0.3,0.8
			c0.1,0.3,0.5,0.1,0.7,0.1c3.6,0,7.2,0,10.9,0c0.1,0,0.3,0,0.4,0c0.4,0,0.6-0.1,0.5-0.5c-0.2-2.1-0.7-4-2.5-5.4
			c-1.5-1.1-3-2.3-4.5-3.5c-1-0.8-1-1.4-0.1-2.3c1.8-1.6,3.7-3.1,5.7-4.4c1.2-0.8,2.5-1.5,4-1.9c2.3-0.7,3.5-0.2,4.7,1.8
			c1.8,3,3.3,6.2,4.8,9.3c0.9,1.8,1.3,1.9,3.1,1c1.3-0.6,2.5-1.2,3.8-1.8c0.6-0.3,1.2-0.5,1.8-0.7c0.2-0.1,0.5-0.2,0.6,0.1
			c0.1,0.3-0.1,0.4-0.4,0.5c-0.4,0.2-1,0.1-1.2,0.7c-0.7,2-1.3,4-1.1,6.1c0,0.3,0.1,0.7,0.4,0.9c0.6,0.5,3,0.1,3.4-0.6
			c1.2-1.9,1.7-4.1,1.8-6.3c0-0.7-0.1-1.3-0.4-2c-0.6-1.5-1.5-2.1-3.1-1.8c-1,0.2-1.9,0.6-2.8,1.2c-0.9,0.6-1.9,1.2-2.9,1.7
			c-1.1,0.6-1.7,0.3-2.2-0.9c-0.7-1.9-1.3-3.7-2-5.6c-0.7-2.1-1.5-4.1-1.5-6.3c0-0.6-0.2-1.1-0.5-1.6c-1.2-2.6-2.3-5.1-3.6-7.7
			c-1.3-2.7-1.4-2.6,1-4.5c0.8-0.6,0.9-1.2,0.5-2.1c-0.7-1.6-1.4-3.1-2.1-4.7c-0.1-0.3-0.4-0.7-0.1-1c0.3-0.3,0.6-0.1,0.9,0
			c1.7,0.9,3.2,0.2,4.7-0.7c-1.2-0.1-2.4-0.2-3.6-0.5c-0.8-0.2-1.6-0.3-2.4-0.3c-0.7,0-1,0.3-0.9,1c0.2,1,0.4,2,0.7,2.9
			c0.3,1.2,0.7,2.4,1,3.6c0.3,1.3-0.1,1.7-1.4,1.8c-1.8,0.1-3.6,0.1-5.2-0.7c-0.5-0.3-0.7-0.1-0.9,0.4c-0.5,1.4-1.4,2.5-2.8,3.2
			c-0.7,0.3-0.5,0.6-0.1,1c1.8,1.7,3.5,3.5,5.2,5.3c1.5,1.5,1.5,2.4,0,3.9c-2.8,2.9-5.7,5.8-8.5,8.7c-2.1,2.1-2.1,2.2,0,4.4
			C71.3,82.6,72.8,84.1,74.5,85.9z M66.3,28.2C66.3,28.2,66.3,28.2,66.3,28.2c0.1-3.7,0.2-7.4,0.3-11.1c0-0.6,0-0.9-0.7-1
			c-3.7-0.2-7.5-0.4-11.2-0.7c-0.6,0-0.8,0.2-0.8,0.8c-0.5,7.4-1,14.8-1.6,22.3c-0.1,0.7,0.1,0.9,0.8,1c4,0.2,8,0.5,11.9,0.7
			c0.8,0.1,0.9-0.2,1-0.9C66.1,35.6,66.2,31.9,66.3,28.2z M94.7,42.7c-0.4-0.1-0.6-0.1-0.7-0.1c-13.1-0.8-26.2-1.6-39.4-2.4
			C52,40.1,52,40.1,51,42.5c-0.3,0.7-0.2,0.9,0.6,0.9c2.8,0.1,5.6,0.3,8.3,0.4c1.3,0,2.3,0.5,2.7,1.8c0.1,0.5,0.4,0.6,0.9,0.6
			c5.6,0.3,11.1,0.7,16.7,1c0.6,0,0.9,0,0.9-0.8C81,45.4,81.3,45,82.4,45c0.5,0,1-0.1,1.5,0.1c2,0.6,4.1,0.4,6.1,1
			c0.2,0.1,0.3,0,0.5-0.1C91.8,45,93.2,43.9,94.7,42.7z M50.2,29C50.2,29,50.2,29,50.2,29c0.2-3.1,0.4-6.2,0.6-9.3
			c0.1-0.7-0.1-0.9-0.8-1c-3.1-0.2-6.2-0.4-9.3-0.7c-0.7-0.1-0.9,0.1-1,0.8c-0.5,6.7-1,13.4-1.6,20.2c-0.1,0.8,0.1,1,0.9,1
			c3.2,0.1,6.4,0.3,9.5,0.5c0.7,0,0.9-0.2,0.9-0.9C49.7,36,49.9,32.5,50.2,29z M65.3,52.7c0,2.8,2.4,5.2,5.2,5.2
			c2.8,0,5.1-2.4,5.1-5.2c0-2.8-2.4-5.2-5.2-5.1C67.6,47.5,65.3,49.8,65.3,52.7z M45.8,45.1c0,0,0,0.1,0,0.1c1.1,0,2.3,0.3,3.2-0.1
			c0.9-0.4,0.9-1.8,1.4-2.8c0.1-0.1,0.1-0.3,0.2-0.5c0.4-0.6,0.1-0.8-0.5-0.8c-3.7-0.2-7.5-0.3-11.2-0.5c-0.6,0-0.9,0.1-0.9,0.7
			c0,0.8-0.1,1.6-0.2,2.4c-0.1,0.7,0.1,0.9,0.8,1C41,44.8,43.4,45,45.8,45.1z M73.7,47.5c1.6,1.5,2.6,3.1,2.5,5.2
			c0,0.5,0.3,0.6,0.6,0.8c1.6,0.8,3.3,0.8,5,0.8c0.9,0,1.1-0.3,0.8-1.1c-0.5-1.6-0.9-3.2-1.4-4.7C81.2,48.1,81,48,80.7,48
			C78.4,47.8,76,47.7,73.7,47.5z M53.1,16.6c-0.1,0-0.1,0-0.2-0.1c-0.2,0.5-0.4,1.1-0.6,1.6c-0.1,0.2-0.1,0.5-0.2,0.5
			c-0.9,0.2-0.7,0.8-0.7,1.4c-0.4,6.4-0.9,12.8-1.3,19.3c0,0.4-0.4,1,0.4,1.1c0.8,0.1,0.9-0.5,1-1c0.1-0.4,0.1-0.7,0.1-1.1
			c0.2-2.5,0.4-5,0.5-7.5C52.5,26.1,52.8,21.4,53.1,16.6z M52.2,44.1c1.6,1.8,3.5,2.1,5.7,1.3c2.1-0.8,2.9-0.4,3.2,1.9
			c0.2,1.5,0.4,3,0.6,4.5c0.2,1.6,1.4,2.6,3.2,2.6c-0.3-0.6,0-1.3-0.5-1.8c-1-1.1-1.4-2.6-1.7-4c-0.2-0.9-0.3-1.9-0.7-2.8
			c-0.3-0.7-0.7-1.2-1.5-1.2C57.7,44.4,55,44.2,52.2,44.1z M67.9,47.4c-0.1-0.1-0.1-0.2-0.2-0.2c-1-0.1-2-0.1-3-0.2
			c-1.7-0.1-1.7-0.1-1.4,1.5c0.2,1.1,0.5,2.2,1.3,3.4C65.1,49.7,66.2,48.3,67.9,47.4z M50.5,43.8c-1,2-0.8,1.5,0.9,1.7
			c0.2,0,0.5,0.1,0.6-0.2c-0.3-0.2-0.5-0.5-0.8-0.7C51.1,44.3,50.9,43.9,50.5,43.8z"/>
		<path d="M65.4,18.7c0,0.9-0.1,1.5-0.5,2.1c-0.3,0.4-0.7,0.4-0.9-0.1c-0.4-0.7-0.3-2.5,0.2-3.1c0.3-0.4,0.7-0.4,0.9,0.1
			C65.4,18.1,65.4,18.5,65.4,18.7z"/>
		<path d="M53.1,37.6c0.1-0.6-0.2-1.4,0.9-1.2c0.5,0.1,1,0.2,0.7,0.8c-0.2,0.5,0.5,1.6-0.9,1.5C53.1,38.6,52.8,38.4,53.1,37.6z"/>
		<path d="M48,32.4c-0.1,1.4-0.2,2.7-0.3,4.1c-0.1,1.5-1.1,2.4-2.6,2.4c-2.8,0-4.6-0.3-4.1-4.3c0.2-2,0.3-3.9,0.4-5.9
			c0.1-1.8,1.2-2.6,3-2.6c3.6,0.1,4.1,1.5,3.7,4.3C48,31,48,31.7,48,32.4C48,32.4,48,32.4,48,32.4z"/>
		<path d="M45.1,23.6c1.2,0.1,2.3,0.1,3.5,0.2c0.5,0,0.9,0.1,0.9,0.7c0,0.5-0.5,0.5-0.9,0.5c-2.3-0.1-4.6-0.2-6.9-0.4
			c-0.4,0-0.9-0.1-0.8-0.6c0-0.6,0.5-0.6,0.9-0.6c1.1,0,2.3,0,3.4,0C45.1,23.5,45.1,23.5,45.1,23.6z"/>
		<path d="M46.5,20.9c0,0.4-0.1,0.9-0.1,1.3c0,0.3,0,0.5-0.4,0.5c-0.3,0-0.5-0.2-0.4-0.5c0-0.8,0.1-1.7,0.1-2.5
			c0-0.3,0.1-0.5,0.5-0.5c0.4,0,0.4,0.3,0.4,0.6C46.6,20.2,46.6,20.6,46.5,20.9C46.6,20.9,46.6,20.9,46.5,20.9z"/>
		<path d="M44.5,20.7c0,0.4,0,0.9-0.1,1.3c0,0.3-0.1,0.5-0.4,0.5c-0.4,0-0.4-0.2-0.4-0.5c0-0.8,0.1-1.7,0.1-2.5
			c0-0.3,0.1-0.5,0.5-0.5c0.4,0,0.4,0.3,0.4,0.6C44.5,19.9,44.5,20.3,44.5,20.7z"/>
		<path d="M42.4,20.5c0,0.4,0,0.9,0,1.3c0,0.3-0.1,0.4-0.4,0.4c-0.3,0-0.4-0.2-0.4-0.4c0-0.9,0.1-1.8,0.1-2.7c0-0.3,0.1-0.4,0.4-0.4
			c0.4,0,0.4,0.2,0.4,0.5C42.5,19.7,42.5,20.1,42.4,20.5C42.4,20.5,42.4,20.5,42.4,20.5z"/>
		<path d="M47.7,21.3c0-0.5,0.1-0.9,0.1-1.4c0-0.3,0.1-0.4,0.4-0.5c0.4,0,0.5,0.2,0.5,0.5c0,0.8-0.1,1.7-0.1,2.5
			c0,0.3-0.1,0.5-0.5,0.5c-0.4,0-0.4-0.3-0.4-0.5C47.7,22,47.6,21.7,47.7,21.3C47.7,21.3,47.7,21.3,47.7,21.3z"/>
	</g>
</g>
</svg>
