<?xml version="1.0" encoding="utf-8"?>
<!-- Generator: Adobe Illustrator 18.1.1, SVG Export Plug-In . SVG Version: 6.00 Build 0)  -->
<svg version="1.1" id="Layer_1" xmlns="http://www.w3.org/2000/svg" xmlns:xlink="http://www.w3.org/1999/xlink" x="0px" y="0px"
	 viewBox="0 0 140 105" enable-background="new 0 0 140 105" xml:space="preserve">
<g>
	<path fill="#020202" d="M90.8,58.6c-0.5-0.2-0.8-0.5-0.5-1c0.3-0.6,0.6,0,1,0c0.1,0.1,0.2,0.2,0.2,0.4c0.1-0.1,0-0.3,0.1-0.4
		c0.4-0.6-0.1-1-0.4-1.3c-0.1-0.1-0.5,0-0.5-0.4c0-0.4,0.5-0.7,0.6-0.7c0.7,0.1,0.9-0.4,1-0.8c0.1-0.9,0.8-1.1,1.4-1.2
		c1.1-0.1,2.2-0.5,3.3-0.4c2.1,0.1,4.2,0.6,6,1.7c2.2,1.3,3.3,3.3,3.9,5.7c0.5,2,0.3,4-0.2,6c-0.5,1.9-1.5,3.6-3.2,4.8
		c-1.4,1.1-2.9,1.9-4.7,2.3c-1.4,0.3-2.8,0.1-4.3,0c-0.2,0-0.5,0.2-0.6-0.1c-0.2-0.2-0.4-0.3-0.6-0.1c-0.1,0.1-0.2,0.3,0,0.4l0,0
		c-0.2,0.6-0.6,0.3-0.9,0.1c-0.5-1.1-0.9-2.2,0.1-3.3c0.2-0.2,0.2-0.5,0.3-0.8c0.2-0.9,0.5-1.6,1.1-2.3c0.3-0.2,0.5,0.3,0.9,0.1
		c-0.5-0.5-0.4-0.8,0.2-1.1c0.3-0.2,0.7-0.1,1-0.1c1,0,2-0.1,2.8-0.8c1.8-1.5,1-4.1-0.5-4.8c-0.9-0.4-1.8-0.7-2.8-0.2
		c-0.2,0.1-0.3,0.1-0.5,0.1c-0.2,0-0.6-0.1-0.5,0.2c0.1,1.1-0.5,0.5-0.8,0.4c0,0-0.1-0.1-0.1-0.1c-0.1-0.6-0.6-0.8-1.5-0.6
		c-0.1,0-0.3,0-0.4,0c-0.3-0.3-0.5-0.6-0.3-1.1C91.5,58.9,91.1,58.8,90.8,58.6z"/>
	<path fill="#060606" d="M92.5,73.6c0.3,0,0.6,0.5,0.8,0c0.2,0.2,0.2,0.4,0.1,0.6c-0.3,0.8-0.3,1.6-0.3,2.4c0,1-0.4,1.5-1.4,1.7
		c-2.9,0.6-5.9,0.6-8.9,0.5c-1.6,0-3.3-0.2-4.9-0.4c-1.4-0.2-2.8-0.6-4.1-1c-2.9-0.9-5.6-2.1-8.4-2.9c-2.5-0.8-5-1.5-7.6-1.9
		c-1.7-0.3-3.4-0.2-5.1-0.2c-0.3,0-0.4,0.1-0.5,0.4c-0.2,1.1-0.3,2.2-0.1,3.3c0.3,1.6,0,2.9-1.3,4c-1.5,1.3-3.2,1.7-5,2
		c-1,0.2-2,0.2-2.9,0.3c-1,0.1-2-0.3-2.9-0.6c-1.1-0.3-1.5-1.3-1.2-2.4c0.1-0.5,0.2-1,0.4-1.4c0.2-0.4,0.3-1-0.3-1.3
		c-1.6-0.7-1.5-1.1-1.1-2.9c0.1-0.4,0.2-0.9,0.3-1.4c0.4-0.4,0.5,0,0.7,0.2c0.2,0.3,0,0.7-0.1,1c-0.1,0.2-0.2,0.4-0.2,0.7
		c0,0.3-0.1,0.7,0.1,0.9c0.3,0.2,0.5-0.1,0.8-0.2c1.5-0.6,2.8-1.5,4.3-2.1c1.5-0.6,3.1-1,4.7-1.3c3.4-0.8,6.7-0.4,10.1,0.1
		c2,0.3,4,0.9,6,1.5c4.1,1.2,8.1,3.1,12.4,3.9c4.2,0.9,8.5,1.1,12.8,0.5c0.6-0.1,1.1-0.3,1.7-0.5c0.5-0.2,0.7-0.4,0.5-1
		c-0.1-0.2-0.1-0.5,0-0.8c0.2-0.6,0.4-1.1,0.3-1.8C92.3,73.7,92.4,73.6,92.5,73.6z"/>
	<path fill="#020202" d="M83.1,30c0.1-0.2,0.5-0.2,0.5-0.6c-0.1-0.3-0.5-0.2-0.6-0.3c2-1.6,4-2.6,6.6-1.6c1.4,0.6,2.3,1.7,2.6,3.3
		c0.4,2.2-0.6,3.9-2.2,5c-0.4,0.3-0.7,0.3-1-0.2c-0.3-0.5-0.7-1-1.1-1.4c-0.5-0.5-0.4-0.9,0.2-1.3c0.6-0.4,0.9-1.3,0.6-1.8
		c-0.9-1.2-1.8-1.2-2.8,0c-0.2,0.2-0.4,0.2-0.6,0C84.6,30.7,83.9,30.3,83.1,30z"/>
	<path fill="#040404" d="M74.7,24.2c0.8-0.6,1.2-1.5,2.2-2c2.2-1,4.5,0.7,4.5,2.8c0,0.7-0.2,1.4-0.4,2c-0.1,0.5-0.5,0.2-0.7,0
		c-0.5-0.5-1-1-1.8-0.8c-0.1,0-0.2-0.1-0.2-0.2c0-0.2,0-0.4,0.2-0.5c0.5-0.2,0.5-0.6,0.1-0.9c-0.4-0.3-0.8-0.3-1.1,0.1
		c-0.1,0.2-0.2,0.5-0.5,0.5c-0.7-0.2-1.2-0.6-1.9-0.6C74.7,24.6,74.6,24.5,74.7,24.2z"/>
	<path fill="#0A0A0A" d="M43.6,60c-0.9,0.9-2,1.4-3.1,1.9c-0.3,0.1-0.6,0.5-1,0.4c0,0,0,0,0-0.1c0,0,0-0.1,0-0.1
		c0.1-0.2,0-0.3-0.2-0.2c-0.3,0.2-0.5,0.4-0.8,0.6c-0.2,0.2-0.5,0.5-0.7,0.1c-0.2-0.3-0.3-0.7,0-0.9c0.6-0.5,1.2-0.9,1.7-1.3
		c1.1-0.9,2.5-1.1,3.6-2.1c0.5-0.5,1.1-0.3,1.4,0.2c0.2,0.4,0,0.6-0.3,0.8c-0.2,0.2-0.5,0.3-0.7,0.5C43.5,59.9,43.6,60,43.6,60z"/>
	<path fill="#111111" d="M70.6,24.4c0.7-0.1,0.9-0.5,0.9-1.1c0-0.1,0-0.1,0-0.2c0.1-0.1,0.3-0.2,0.4-0.3c0.8-0.4,1.5-1,2.5-1.1
		c-0.1,0.6-0.1,0.6-0.7,0.9c-0.3,0.2-0.6,0.4-0.1,0.7c0.2,0.1,0.4,0.2,0.1,0.5c-0.2,0.3,0.2,0.7,0.3,0.8c0.4,0.2,0.4-0.3,0.7-0.5
		c0,0.3,0.2,0.3,0.4,0.2c0.1,0.5-0.5,0.7-0.5,1.1c0,0.1-0.1,0.2-0.2,0.2c-0.5,0.1-1.1,0.2-1.2,1c0,0.3-0.3,0.2-0.5,0.3
		c-0.2,0-0.4-0.1-0.6-0.1c-0.2,0.1-0.2,0.2,0,0.3c-0.1,0.4-0.4,0.5-0.7,0.4c-0.3-0.2-0.8-0.3-0.6-0.8c0.1-0.2,0-0.4,0.1-0.6
		c0.6,0.1,1-0.5,1.5-0.7c0,0,0.1,0,0.1,0c0,0-0.1,0-0.1,0c-0.4,0-0.7-0.2-1-0.2c-0.3,0-0.6,0-0.7-0.4C70.9,24.6,70.5,24.6,70.6,24.4
		z"/>
	<path fill="#131212" d="M64.2,79.6c-0.5,0-0.9,0-1.4,0c-0.4,0-0.5-0.2-0.5-0.5c-0.3-0.4-0.2-0.8,0-1.3c-0.1-0.3,0.2-0.6,0-0.9
		c-0.3,0.2-0.5,0.5-0.6,0.8c-0.4-0.4-0.3-0.9-0.1-1.4c0.9,0,1.8,0.1,2.7,0c0.7,0,1,0.2,0.8,0.9c0,0.2,0,0.3,0,0.5
		c-0.4,0-0.3-0.3-0.5-0.5c-0.4-0.1-0.3,0.2-0.3,0.4C64.2,78.3,64.4,78.9,64.2,79.6z"/>
	<path fill="#0C0B0B" d="M61.6,79.1c0.1,0.3,0,0.5-0.4,0.4c-0.5,0-1.1,0-1.6,0c-0.1-0.1-0.2-0.1-0.4,0c-0.4,0-0.8,0-1.1,0
		c-0.4,0-0.1-0.2-0.1-0.3c0.3-1.1,0.6-2.1,1.3-3c0.3,0,0.7,0,1,0c0.1,0,0.1,0.2,0.1,0.3c0,0.4-0.2,0.8,0.3,1c0.2,0.3,0.3,0.6,0.5,1
		C61.6,78.6,61.5,78.9,61.6,79.1z"/>
	<path fill="#121212" d="M65,22.6c-0.2,0.2-0.3,0.2-0.5,0c-0.1-0.1-0.1-0.2,0-0.3c0.1-0.1,0.1-0.2,0.2-0.4c0.3-1.4,1.8-1.9,3.1-1.3
		c0.8,0.4,1,1.1,1.2,1.9c0.1,0.2-0.1,0.3-0.2,0.3c-0.5-0.2-1-0.1-1.5-0.1c-0.3-0.5-0.7-0.5-1.1-0.1C65.7,22.6,65.3,22.5,65,22.6z"/>
	<path fill="#0A0C0C" d="M68.4,84.4c-1.9,0.1-1.9,0.1-1.9-1.7c0-1.6,0-1.6,1.6-1.5c0.1,0,0.2,0.1,0.3,0.1
		C68.8,82.4,68.8,83.4,68.4,84.4z"/>
	<path fill="#120F11" d="M60.4,84.4c-0.7,0.1-1.3,0.1-1.9-0.3c-0.2-0.1-0.2-0.3-0.3-0.5c-0.3-0.1,0-0.3,0-0.5
		c-0.2-0.6-0.2-1.3,0-1.9c0.1-0.1,0.2-0.1,0.3-0.1c1.6-0.3,1.9,0,1.9,1.6c0,0.5-0.1,0.9,0.1,1.4C60.4,84.2,60.4,84.3,60.4,84.4z"/>
	<path fill="#121313" d="M38.6,72.8c-0.1-0.1-0.2-0.4-0.4-0.2c0-1.6-0.2-3.2-1.5-4.4c-0.4-0.4-0.1-1.5,0.2-1.9
		c0.4-0.5,0.8-1,1.5-1.1c0.1-0.1,0.1-0.1,0.2,0c0.1,0.4-0.3,0.6-0.5,0.8c-0.4,0.5-0.6,1-0.3,1.6c0.3,0.7,0.5,1.4,0.9,2
		c0.1,0.2,0.2,0.4,0.2,0.6C38.7,71.1,39,72,38.6,72.8z"/>
	<path fill="#161717" d="M86.1,31.6c0.1,0.2,0.2,0.3,0.4,0.3c0.2,0,0.2,0.2,0.2,0.4c0,0.2-0.1,0.2-0.3,0.3c-0.3,0.1-0.8,0-0.9,0.4
		c-0.1,0.3,0.4,0.5,0.6,0.8c0.4,0.7,1.1,1.2,1.3,2c0.1,0.2,0,0.2-0.2,0.2c-0.9-1-1.6-2.3-2.6-3.1c-0.7-0.6-1.2-1.4-2-2
		c-0.4-0.3,0.2-0.3,0.3-0.5c0.7,0.2,1,0.9,1.5,1.3c0.2,0.1,0.3,0.3,0.5,0C85.3,31.2,85.7,31.2,86.1,31.6z"/>
	<path fill="#F7F8F8" d="M79.9,28.3c0.5-0.1,0.8,0.6,1.4,0.5c-0.1,0.4-0.2,0.7-0.5,0.9c-0.4,0.2-0.8,0.3-1.3,0.2
		c-0.3-0.1-0.6-0.3-0.8-0.5c-0.2-0.2-0.4-0.3-0.6-0.4c-0.2-0.1-0.4-0.2-0.5-0.4c-0.2-0.3-0.4-0.4-0.7-0.5c-0.7-0.4-0.7-0.6,0-1
		c0.6-0.2,1.1,0,1.5,0.3C78.8,27.8,79.4,28,79.9,28.3z"/>
	<path fill="#09080A" d="M64.3,82.4c0.2-0.3,0.4-0.7,0.6-1c0.2-0.4,0.6-0.2,0.9-0.2c0.4,0,0.2,0.4,0.2,0.6c0,0.7,0,1.4,0,2
		c0,0.5-0.2,0.7-0.7,0.6c-0.4,0-0.7,0-1.1,0C64.2,83.8,64.1,83.1,64.3,82.4z"/>
	<path fill="#0E0D10" d="M70.1,83.9c-0.5,0.3-0.9,0.6-1.5,0.5c-0.2-1-0.1-2.1,0-3.1c1-0.3,1.5,0.4,1.9,1.1c0.1,0.4,0.2,0.9-0.2,1.3
		l0,0C70.2,83.7,70.3,83.9,70.1,83.9z"/>
	<path fill="#15151B" d="M63.2,81.3c0.4,0.3,0.6,0.9,1,1.3c0.2,0.2,0,0.3-0.1,0.5c-0.3,0.4-0.5,0.9-0.8,1.3
		c-0.5,0.2-0.6-0.4-0.8-0.6c-0.2-0.2-0.3-0.4-0.4-0.6c-0.1-0.2-0.1-0.4-0.2-0.6c0-0.4,0-0.8,0-1.2C62.3,81.2,62.7,81.2,63.2,81.3z"
		/>
	<path fill="#262727" d="M38.6,65.2c-0.1,0-0.2,0-0.2,0c0.7-0.8,1.8-0.8,2.6-1.2c1.8-0.8,3.7-1.2,5.5-1.9c0.1-0.1,0.3,0,0.5,0
		c0,0.1,0,0.2,0,0.3c-0.1,0.2-0.3,0.3-0.5,0.4c-1.7,0.4-3.2,1.2-4.8,1.8C40.6,64.9,39.7,65.2,38.6,65.2z"/>
	<path fill="#1E1E1E" d="M85.9,49.6c0.8-0.6,1.7-0.5,2.5,0.3c0.3,0.3,0.7,0.6,1.1,0.6c0.1,0.1,0.2,0.2,0.3,0.3
		c0.2,0.2,0.4,0.3,0.7,0.5c0,0.1,0,0.1,0,0.2c-0.2,0.2-0.4,0.3-0.7,0.2c-0.5-0.2-1.1-0.4-1.6-0.5c-0.1-0.1-0.3-0.1-0.3-0.3
		c-0.2-0.6-0.9-0.6-1.2-1c-0.1-0.2-0.3-0.1-0.5-0.1C85.9,49.8,85.9,49.7,85.9,49.6z"/>
	<path fill="#171717" d="M83.2,34.8c0.7-0.4,0.7-0.7,0.2-1.1c-0.3-0.3-0.7-0.7-1-1.1c-0.1-0.2-0.2-0.4-0.1-0.5
		c0.2-0.1,0.3,0.1,0.4,0.2c0.5,0.5,0.9,1,1.4,1.5c0.1,0.1,0.1,0.2,0.2,0.2c1.1,0,1.2,1.1,1.8,1.6c0.4,0.4-0.3,0.6-0.3,0.9
		c-0.3,0-0.5-0.2-0.6-0.5C85.1,35.1,84.4,34.7,83.2,34.8z"/>
	<path fill="#161717" d="M45.8,55.8c-0.3,0.7-0.6,1.5-1.5,1.5c-0.6,0-0.8-0.3-0.8-0.8c0-0.6,0.7-1.4,1-1.3c0.3,0,0.3,0.3,0.4,0.5
		c0.2,0.3,0.3,0.6,0.7,0.1c0-0.1,0.1-0.1,0.1-0.1C45.8,55.7,45.8,55.7,45.8,55.8z"/>
	<path fill="#1F2020" d="M76.6,27c-0.3-0.8-1.1-0.6-1.6-1c-0.1-0.1-0.2,0-0.3-0.1c-0.1-0.3,0.2-0.3,0.4-0.4c0.5,0.1,1,0.4,1.5,0.5
		c0.5,0.2,1,0.2,1.5,0c0.1,0,0.2,0,0.2,0c0.1,0.1,0.1,0.1,0.2,0.2c-0.4,0.4-0.6,0.7,0.2,0.9c0.5,0.2,1,0.6,1.2,1.1
		c-0.6,0.2-0.9-0.3-1.3-0.6c-0.6-0.3-1.1-0.7-1.8-0.5C76.6,27.2,76.5,27.2,76.6,27z"/>
	<path fill="#232424" d="M76.6,27c0.1,0.1,0.1,0.1,0.2,0.2c-0.3,0.3-0.8,0.5,0,0.7c0.3,0.1,0.8,0.1,0.8,0.7c0,0.1,0,0.2-0.2,0.2
		c-0.1,0-0.3-0.1-0.4-0.2c-0.9-0.8-1.8-0.6-2.6,0.1c-0.3,0.2-0.6,0.4-0.9-0.1c0.7,0.1,1-0.5,1.4-0.8c0.4-0.3-0.2-0.3-0.3-0.5
		c0.1-0.1,0.2,0,0.3-0.1C75.5,27.7,76,27.1,76.6,27z"/>
	<path fill="#1E1F1F" d="M88,50.8c0.1,0.1,0.1,0.2,0.2,0.3c-0.4,0-0.6,0.2-0.8,0.5c-0.5,1-0.7,1.1-1.8,0.6c0-0.1,0-0.1,0-0.2
		c0.2-0.3,0.7-0.1,0.8-0.5c0-0.1-0.2-0.2-0.2-0.4c0.7-0.8-0.3-0.4-0.4-0.5c0-0.3,0.3-0.3,0.4-0.4c0.4-0.2,0.7-0.2,1.1,0.2
		C87.5,50.6,87.8,50.7,88,50.8z"/>
	<path fill="#FCF9F4" d="M59.3,76.3c-0.4,1-0.8,2-1.3,3c-0.4-0.1-0.9-0.1-0.8-0.9c0.1-0.4,0.1-0.6,0.5-0.5c0.5,0.1,0.5-0.2,0.5-0.5
		C58.1,76.5,58.6,76.3,59.3,76.3z"/>
	<path fill="#F0EEED" d="M86.1,31.6c-0.3-0.3-0.7-0.2-1,0c-0.4,0.3-0.6,0.2-0.9-0.1c-0.4-0.4-0.8-0.9-1.2-1.3
		c0.1-0.1,0.1-0.1,0.2-0.2c0.9-0.1,1.5,0.4,2,1c0.2,0.2,0.4,0.2,0.6,0.2C85.8,31.3,86.1,31.3,86.1,31.6z"/>
	<path fill="#2A2A2A" d="M39.7,45.8c0.2,0,0.3-0.1,0.4-0.3c0.4-0.7,0.9-0.5,1.4-0.2c0.6,0.3,0.3,0.9,0.4,1.3c0,0-0.2,0.3-0.3,0.2
		c-0.5-0.4-1-0.5-1.6-0.3c-0.1,0-0.2-0.2-0.3-0.3C39.6,46,39.6,45.9,39.7,45.8z"/>
	<path fill="#181818" d="M84.7,41.8c0.6-0.2,1.1,0.5,1.2,0.8c0.1,0.5-0.6,0.5-1.1,0.6c-0.6,0-1-0.3-1-0.9
		C83.8,41.6,84.3,41.8,84.7,41.8z"/>
	<path fill="#191A1B" d="M59.8,26.3c-0.2,0.2-0.3,0.4-0.5,0.6c-0.4,0.4-0.9,0.6-1.4,0.2c-0.1-0.1-0.5,0-0.3-0.4
		c0.2-0.1,0.4-0.3,0.5-0.4c0.5-0.5,1.1-0.7,1.7-0.2C59.8,26.1,59.8,26.2,59.8,26.3z"/>
	<path fill="#252626" d="M62.4,24.1c0.8-0.2,1.7-0.4,2.5-0.6c0.4-0.1,0.6,0.3,0.9,0.4C66,23.9,66,24,66,24c0,0,0,0.1-0.1,0.1
		c-0.5,0.3-1.1-0.1-1.7,0.2c-0.5,0.2-1,0.2-1.5,0.4c-0.3,0.1-0.4,0-0.6-0.1c0-0.1-0.1-0.1-0.1-0.2C62.1,24.1,62.3,24.2,62.4,24.1z"
		/>
	<path fill="#1F2020" d="M61.8,28.9c-0.1,0.2-0.3,0.2-0.5,0.1c-0.1-0.1-0.1-0.2,0-0.4c-0.3-0.4-0.3-1.1-1.1-0.8c0,0,0-0.1,0-0.1
		c0.9-0.4,1.9-0.5,2.8-0.5c0,0.5-0.5,0.1-0.6,0.3c-0.1,0.2-0.1,0.4-0.2,0.6C62,28.3,62.1,28.7,61.8,28.9z"/>
	<path fill="#5D5D5D" d="M62.3,28.6c1.7-0.5,3.4-0.3,5.1-0.2c0,0,0.1,0.1,0.1,0.2c0,0,0,0,0,0c-0.2,0.3-0.4,0.1-0.7,0.1
		c-0.3-0.1-0.6-0.1-0.9,0c-1,0.3-2.1,0-3.2,0.2C62.6,28.6,62.4,28.8,62.3,28.6z"/>
	<path fill="#202121" d="M56.4,30.3c0.4-0.2,0.7-0.3,0.9-0.5c0.3,0.4,0.3,0.8,0.4,1.2c0,0.5-0.3,0.6-0.6,0.8
		c-0.2,0.1-0.4,0.1-0.4-0.1c-0.1-0.3-0.2-0.6,0.1-0.9C57.3,30.3,56.7,30.4,56.4,30.3z"/>
	<path fill="#242424" d="M80.7,29.6c0.2-0.3,0.2-0.6,0.5-0.8c0.3-0.2,0.6-0.1,0.9,0.1c0.2,0.2,0.5,0.2,0.8,0.2
		c0.2,0,0.6-0.1,0.6,0.3c-0.2-0.2-0.5-0.1-0.7,0c-0.6,0.3-1.3,0.5-1.9,0.3C80.7,29.8,80.7,29.7,80.7,29.6z"/>
	<path fill="#252626" d="M81.4,33.7c0.8,0.3,1,0.9,1.5,1.1c0.2,0.1,0.2,0.5-0.1,0.5c-0.3,0-0.6,0.2-1,0.1c-0.3-0.1-0.6-0.3-0.4-0.7
		C81.7,34.5,81.6,34.2,81.4,33.7z"/>
	<path fill="#343434" d="M76.5,30.9c-0.5,0.3-0.1,0.5,0.1,0.6c0,0.1,0,0.2-0.2,0.2c-0.5-0.2-1-0.4-1.4-0.7c-0.1-0.1,0-0.2,0-0.3
		c0.5,0,1-0.1,1.4-0.3c0.1,0,0.1-0.1,0.2-0.1c0.4-0.1,0.7,0,1.1-0.1c0.1,0,0.1-0.1,0.2-0.1c0.2,0,0.4,0,0.4,0.3
		c-0.2,0.1-0.3,0.2-0.5,0.3C77.4,30.9,76.9,30.6,76.5,30.9z"/>
	<path fill="#191A1B" d="M48.7,30C48.7,30,48.7,30,48.7,30c0.4-0.2,0.2-1,0.8-0.7c0.3,0.2,0.5,1.3,0.3,1.6c-0.1,0.1-0.3,0.2-0.4,0.2
		c-0.3-0.1-0.6-0.4-0.5-0.7C48.8,30.3,48.6,30.2,48.7,30z"/>
	<path fill="#252626" d="M89.6,37.6c0.2,0.4-0.1,0.9-0.7,1c-0.5,0.1-0.8-0.4-1.1-0.7c-0.3-0.2,0.2-0.4,0.4-0.6c0.2,0,0.4-0.1,0.5,0
		c0.1,0.2,0.1,0.4,0.5,0.3C89.3,37.5,89.5,37.5,89.6,37.6z"/>
	<path fill="#464747" d="M85.6,52.1c0,0.1,0,0.2,0,0.2c-0.4-0.6-0.9-0.6-1.5-0.3c-0.6,0.2-1,0-1.3-0.5c0.1,0,0.1,0,0.2,0
		c0.8,0.2,1.6-0.1,2.4-0.2c0.1,0.1,0.3,0.1,0.4,0.3C85.7,51.8,85.7,51.9,85.6,52.1z"/>
	<path fill="#E0E8EC" d="M60.4,84.3c-0.4,0-0.3-0.3-0.3-0.5c0-0.7,0-1.4,0-2c0-0.5-0.1-0.6-0.6-0.6c-0.4,0-0.9,0-1.3,0.1
		c0,0-0.1-0.1,0-0.1c0,0,0-0.1,0-0.1l0,0c0.5-0.1,1-0.1,1.5,0c0.2,0,0.4,0,0.5,0.1c0.2,0.2,0.3,0.4,0.4,0.6c0,0.8,0,1.6-0.1,2.4
		C60.5,84.2,60.4,84.3,60.4,84.3z"/>
	<path fill="#2C2D2C" d="M55.2,31.2c-0.5,0.3-0.9,0.2-1.1-0.4c-0.2-0.7-0.2-0.7,0.7-1.1c0.2,0.4-0.2,1,0.3,1.4
		C55.2,30.9,55.2,31,55.2,31.2z"/>
	<path fill="#121212" d="M65,22.6c0.4-0.3,0.9-0.1,1.3-0.2c0.3-0.2,0.6-0.2,0.8,0c0.6,0.3,1.2,0.3,1.8,0.2c0.5,0.1,1,0.1,1.6,0.2
		c-0.1,0.4-0.4,0.2-0.6,0.2C68.2,22.8,66.6,22.6,65,22.6z"/>
	<path fill="#222222" d="M46.5,39.9c0.1,0.4-0.1,0.7-0.4,0.6c-0.3,0-0.7-0.1-0.6-0.4c0.1-0.4,0.2-1,0.5-1
		C46.5,39.1,46.3,39.7,46.5,39.9z"/>
	<path fill="#242424" d="M88.9,40.9c-0.4,0.6,0.2,1.6-0.9,1.8c0.2-0.5,0.2-0.9-0.5-1.1C88,41.4,88.3,41,88.9,40.9z"/>
	<path fill="#272727" d="M53.3,28.8c-0.5,0.3-1.1,0.5-1.3,1.1c0,0.1-0.2,0.1-0.3,0.1c0,0-0.1-0.1-0.1-0.2c0-0.6,1.5-1.6,2-1.4
		C54.1,28.9,53.4,28.6,53.3,28.8z"/>
	<path fill="#292929" d="M82.9,37.1c-0.1-0.2-0.5-0.5-0.1-0.7c0.2-0.1,0.5-0.6,0.9-0.1c0.2,0.3,0.9,0.1,0.6,0.8
		C83.9,37.3,83.4,37.3,82.9,37.1z"/>
	<path fill="#373737" d="M60.6,23c-0.3,0.2,0,0.5,0,0.7c0.1,0.3-0.1,0.2-0.2,0.2c-0.3-0.6-0.9-0.5-1.6-0.6c0.6-0.2,0.5-0.6,0.7-1
		c0.4,0.1,0.5,0.7,0.9,0.5C60.6,22.8,60.6,22.8,60.6,23z"/>
	<path fill="#222222" d="M63.9,27c0.5-0.1,0.9-0.4,1.4,0c0.1,0,0.1,0.1,0.1,0.2c-0.1,0.1-0.1,0.1-0.2,0.2c-0.1,0.3-0.2,0.6-0.7,0.6
		c-0.4,0-0.5-0.2-0.6-0.5C63.8,27.3,63.8,27.2,63.9,27z"/>
	<path fill="#2E2F2F" d="M53.8,31.9c-0.5,0.3-1,0.8-1.6,1c-0.1-0.3,0.2-0.2,0.2-0.4c0.1-0.3,0-0.8,0.3-1c0.4-0.3,0.5,0.5,0.9,0.2
		C53.8,31.7,53.8,31.8,53.8,31.9z"/>
	<path fill="#1D1D1D" d="M43.4,33.5c0.1,0.4,0.6,0.9-0.2,1.2c-0.2,0.1-0.7-0.3-0.6-0.4c0.2-0.4,0.1-1,0.7-1.1
		C43.7,33,43.5,33.3,43.4,33.5z"/>
	<path fill="#3A3B3A" d="M45.8,37.9c-0.1,0.3-0.6,0.2-0.6,0.7c0,0.3-0.4,0.2-0.4,0.1c0-0.4-0.7-0.5-0.5-0.8c0.2-0.4,0.7-0.2,1-0.2
		C45.5,37.7,45.7,37.7,45.8,37.9z"/>
	<path fill="#343434" d="M89.6,37.6c-0.1,0.1-0.2,0.1-0.3,0.2c-0.1-0.2-0.4-0.2-0.5-0.4c-0.2,0-0.4-0.1-0.5-0.1
		c0.4-0.1,0.8-0.2,1.1-0.6c0.2-0.2,0.5-0.3,0.7-0.4c0.1,0,0.2,0.1,0.2,0.1c0.1,0.1,0,0.2-0.1,0.2C89.9,36.9,89.6,37.2,89.6,37.6z"/>
	<path fill="#2C2D2C" d="M90.5,51.5c0,0,0-0.1,0-0.1c0-0.2,0-0.3-0.1-0.5c0-0.2-0.3-0.2-0.2-0.5c0.2,0,0.5,0,0.7,0
		c0.4,0,0.7,0.2,0.7,0.6c0,0.4-0.3,0.5-0.7,0.5C90.8,51.5,90.6,51.5,90.5,51.5z"/>
	<path fill="#252525" d="M41.4,32.2c0.1,1-0.8,1.5-1,2.3C40.1,33.9,40.6,32.7,41.4,32.2z"/>
	<path fill="#353736" d="M61.2,82.6c-0.2-0.3-0.4-0.5-0.7-0.8c0-0.2-0.4-0.3-0.3-0.6C61.5,81.3,61.6,81.5,61.2,82.6z"/>
	<path fill="#212020" d="M62.1,83c0.1,0.2,0.4,0.4,0.4,0.7c0.2,0.2,0.4,0.4,0.3,0.7c-0.3,0-0.6,0-0.9,0c-0.2-0.4-0.1-0.9-0.1-1.3
		C61.7,82.8,61.9,82.8,62.1,83z"/>
	<path fill="#2D2C2C" d="M41,43.7c-0.2,0-0.4-0.2-0.3-0.4c0.2-0.3,0.4-0.6,0.8-0.6c0.5,0,0.5,0.3,0.6,0.6c0,0,0.1,0.1,0,0.1
		c0,0,0,0.1,0,0.1C41.7,43.6,41.4,43.7,41,43.7z"/>
	<path fill="#2B2C2B" d="M65.1,27.4c0-0.1,0.1-0.1,0.1-0.2c0.3-0.1,0.5,0,0.8-0.1c0.6,0.2,1.1,0,1.7,0.1c0.3,0,0.7,0,0.9,0.3l0,0
		c-0.6,0.2-1.2,0.2-1.8,0C66.3,27.3,65.7,27.3,65.1,27.4z"/>
	<path fill="#3B3D3D" d="M80.7,29.6c0.1,0.1,0.1,0.1,0.2,0.2c-0.5,0.4-1,0.7-1.7,0.5c-0.2,0.1-0.4,0-0.5-0.1c-0.1-0.1-0.1-0.2,0-0.3
		c0.2-0.2,0.5,0,0.7-0.1C79.8,29.9,80.3,29.7,80.7,29.6z"/>
	<path fill="#545555" d="M39.6,39.6c0,0.4,0.7,0.7,0.3,1c-0.4,0.3-0.8,0-1.2-0.2c0,0-0.1-0.1-0.1-0.1c0-0.1,0.1-0.2,0.2-0.3
		c0.1-0.1,0.2-0.2,0.4-0.3C39.3,39.7,39.4,39.7,39.6,39.6z"/>
	<path fill="#FDF8F4" d="M58.2,81.2c0,0,0,0.1,0,0.1c0,0.6,0,1.3,0,1.9c-0.1,0.1-0.3,0.1-0.5,0.2c0.2-0.7,0.2-1.3,0.1-1.9
		C57.7,81.1,57.9,81.1,58.2,81.2z"/>
	<path fill="#353635" d="M67.5,28.6C67.5,28.6,67.5,28.6,67.5,28.6c0.9-0.2,1.7,0,2.5,0.2c0,0.1-0.1,0.2-0.2,0.2
		c-0.7,0-1.3-0.1-2-0.1C67.6,28.8,67.5,28.7,67.5,28.6z"/>
	<path fill="#4B4C4B" d="M36.1,47.6c0.4,0,0.8,0,1.2,0.2c0.2,0.1,0.6,0,0.5,0.4c-0.2,0.2-0.4,0.1-0.6,0.1c-0.5,0-0.9-0.2-1.4-0.5
		C35.9,47.6,36,47.6,36.1,47.6z"/>
	<path fill="#D9D8D8" d="M88,50.8c-0.3,0-0.6,0.1-0.8-0.2c-0.2-0.4-0.6-0.4-1-0.4c0.1-0.1,0.2-0.2,0.3-0.3C87.2,50,87.8,50,88,50.8z
		"/>
	<path fill="#838384" d="M64.3,22.6c-0.8,0.4-1.7,0-2.5,0.2c-0.2,0-0.4,0.1-0.5-0.2c0.5-0.4,1.2-0.1,1.7-0.2
		C63.5,22.7,63.9,22.4,64.3,22.6z"/>
	<path fill="#373737" d="M39.6,39.6c0,0.3-0.2,0.4-0.5,0.2c-0.4,0.1-0.6,0-0.6-0.5C39.2,38.9,39.5,38.9,39.6,39.6z"/>
	<path fill="#282828" d="M42.3,35.5c0.1,0.1,0.1,0.2,0.2,0.3c0.1,0.3,0.3,0.5,0,0.8c-0.1,0.1-0.4,0.1-0.5,0
		c-0.3-0.2-0.2-0.5-0.1-0.8C42,35.6,42.1,35.5,42.3,35.5z"/>
	<path fill="#323333" d="M73.5,21.3c0.1-0.4,0.2-0.6,0.5-0.8c0.2-0.1,0.4-0.1,0.6,0.1c0.1,0.1,0.2,0.2,0.1,0.3
		c-0.1,0.2-0.3,0.1-0.5,0.1C73.9,21,73.9,21.5,73.5,21.3z"/>
	<path fill="#303030" d="M37.5,47.5c-0.1-0.4,0.1-0.6,0.5-0.5c0.5,0.2,0.7,0.5,0.4,1c-0.1,0.1-0.2,0-0.3-0.1
		C38,47.7,37.6,47.9,37.5,47.5z"/>
	<path fill="#5B5B5B" d="M36.6,54.3c0.1,0.1,0.1,0.2,0.2,0.3c-0.7-0.1-1.4,0.1-2.1-0.2c0.2,0,0.3-0.1,0.3-0.3
		C35.5,54,36.1,54.1,36.6,54.3z"/>
	<path fill="#E8E7E7" d="M38.5,39.4c0,0.4,0.4,0.3,0.6,0.5c0,0.3-0.1,0.3-0.3,0.3c-0.3,0.1-0.7-0.1-1,0.2c-0.3,0-0.7,0.1-1-0.1
		c0.2-0.3,0.6-0.1,0.8-0.3C38,39.9,38.4,39.9,38.5,39.4z"/>
	<path fill="#F7F8F8" d="M78.7,29.7c0,0.1,0,0.2,0,0.3c-0.2,0.2-0.6,0-0.8,0.2l0,0c-0.4,0.2-0.9,0-1.3,0.2l-0.1,0c0,0-0.1,0-0.1,0
		c0-0.3,0.3-0.2,0.5-0.3c0.3-0.1,0.8,0.3,0.9-0.4c0-0.2,0.2,0,0.2,0.1c0.1,0.3,0.3,0.1,0.4,0C78.6,29.7,78.6,29.7,78.7,29.7z"/>
	<path fill="#EEEFEF" d="M64.2,79.6c0-0.9,0-1.8,0-2.8c0.3,0.1,0.4,0.3,0.5,0.4c-0.4,0.4-0.2,0.9-0.3,1.3
		C64.3,78.9,64.5,79.3,64.2,79.6z"/>
	<path fill="#4C4C4C" d="M56.1,28.9c0.4-0.4,0.8-0.5,1.5-0.4c-0.5,0.4-0.9,0.7-1.5,0.7C56,29.2,56,29,56.1,28.9z"/>
	<path fill="#2E2E2E" d="M60.6,24.1c0.3,0.1,0.6,0.3,0.9,0.2c0,0.1,0,0.1,0,0.2c-0.3,0.3-0.8,0.3-1.2,0.4c-0.1,0-0.3-0.1-0.4-0.1
		c-0.1-0.4,0.4-0.1,0.5-0.3C60.4,24.3,60.5,24.2,60.6,24.1z"/>
	<path fill="#505050" d="M54,24.8c0.5-0.3,1-0.5,1.6-0.6c0.2-0.1,0.2,0,0.2,0.1c-0.4,0.3-0.9,0.5-1.4,0.6C54.3,24.9,54.1,25,54,24.8
		z"/>
	<path fill="#7E7E7E" d="M68,24c0.3,0,0.6,0,0.9,0c0.1,0.1,0.1,0.2,0,0.3c-0.7,0-1.5,0.2-2.2-0.1C67.1,23.9,67.5,24.1,68,24z"/>
	<path fill="#EAF6F8" d="M68.6,81.3c0,1,0,2.1,0,3.1c-0.1,0-0.1,0-0.2,0c0-1,0-2.1,0-3.1C68.5,81.3,68.5,81.3,68.6,81.3z"/>
	<path fill="#4C4C4C" d="M86.6,43.5c0.2-0.2,0.5-0.1,0.6-0.4c0.1-0.1,0.3-0.2,0.4,0c0.1,0.2,0.2,0.4-0.2,0.5c-0.2,0-0.4,0.2-0.6,0.1
		C86.6,43.7,86.5,43.6,86.6,43.5z"/>
	<path fill="#FBFAED" d="M62.3,77.8c0,0.4,0,0.8,0,1.3c-0.2,0.1-0.5,0.1-0.4-0.2C61.9,78.5,61.8,78.1,62.3,77.8z"/>
	<path fill="#3D3E3E" d="M87.3,41.9c-0.1,0.4-0.4,0.5-0.7,0.5c-0.1,0-0.2-0.1-0.2-0.2c0.2-0.2,0.1-0.7,0.6-0.5
		C87.1,41.8,87.3,41.7,87.3,41.9z"/>
	<path fill="#5F5F5E" d="M67,25.5c0.5,0,1.1-0.1,1.6,0.2c0.1,0.1,0,0.1,0,0.2c-0.5,0-1,0-1.6,0C66.9,25.7,66.9,25.6,67,25.5z"/>
	<path fill="#575757" d="M38.3,47.8c0.1,0.1,0.1,0.1,0.2,0.2c0,0.2,0.3,0.3,0.1,0.4c-0.1,0.1-0.3,0.1-0.5,0.1
		c-0.3-0.1-0.6-0.2-0.8-0.3c0.2,0,0.4,0,0.6-0.2C37.9,47.9,38.1,47.8,38.3,47.8z"/>
	<path fill="#4D4D4D" d="M69.8,29c0.1-0.1,0.1-0.1,0.2-0.2c0.4,0,0.8,0.1,1.1,0.3c0,0,0.1,0.1,0,0.1c0,0,0,0,0,0
		C70.7,29.1,70.2,29.4,69.8,29z"/>
	<path fill="#595959" d="M69.8,23c0.2-0.1,0.5,0.1,0.6-0.2c0.3,0,0.6,0,0.9,0.1c0.1,0.1,0.2,0.2,0.2,0.3c0,0.1,0,0.1-0.1,0.1
		C71,22.9,70.3,23.3,69.8,23z"/>
	<path fill="#404141" d="M42.3,35.5c-0.1,0.1-0.3,0.1-0.4,0.2c-0.2,0-0.5,0-0.5-0.3c0-0.2,0.1-0.4,0.2-0.4
		C42,35,42.1,35.3,42.3,35.5z"/>
	<path fill="#F4F6FA" d="M70.3,83.7c0.2-0.4,0.2-0.8,0.2-1.3c0.4,0.6,0.3,0.6,0.3,1C70.7,83.7,70.4,83.5,70.3,83.7z"/>
	<path fill="#FAFBFC" d="M60.3,24.8c0.4-0.1,0.8-0.2,1.2-0.5c0.2-0.1,0.4-0.2,0.6,0.1c0,0,0,0.1,0,0.1C61.5,24.5,61,25.1,60.3,24.8z
		"/>
	<path fill="#353635" d="M71,28c-0.4-0.3-0.9-0.1-1.3-0.3c0,0,0.1,0,0.1-0.1c0.2,0,0.5,0,0.7-0.1c0.3,0.1,0.6,0.2,0.9,0.3
		C71.3,28,71.2,28.2,71,28z"/>
	<path fill="#313232" d="M68,24c-0.4,0.3-0.8,0.1-1.3,0.2c0,0,0,0,0-0.1c-0.1-0.1-0.1-0.2,0-0.2C67.1,24,67.6,23.8,68,24z"/>
	<path fill="#232323" d="M63.9,27c0,0.1,0,0.2,0,0.4c-0.5-0.2-0.9,0.2-1.4,0.1c0.1-0.3,0.5-0.1,0.6-0.3C63.3,27.2,63.6,26.9,63.9,27
		z"/>
	<path fill="#515151" d="M60.4,24.4c-0.2,0.1-0.3,0.2-0.5,0.3c-0.2,0.2-0.5,0.2-0.7,0.2c-0.2,0.1-0.2,0-0.2-0.2
		C59.4,24.5,59.9,24.4,60.4,24.4z"/>
	<path fill="#3F3F3F" d="M62.6,25.8c-0.5,0.4-1.1,0-1.6,0.2l0,0c0.2-0.5,0.6-0.4,1-0.4C62.3,25.6,62.4,25.6,62.6,25.8
		C62.6,25.8,62.6,25.8,62.6,25.8z"/>
	<path fill="#D6D5D4" d="M91.6,57.7c0,0.3,0.4,0.7,0.1,0.8c-0.4,0.2-0.3-0.2-0.4-0.5c0-0.1,0-0.2,0-0.4
		C91.4,57.7,91.5,57.7,91.6,57.7z"/>
	<path fill="#060606" d="M93.4,73.6c-0.2,0-0.4-0.1-0.2-0.3c0.1-0.2,0.1-0.3,0.4-0.4c0.3,0,0.4,0.2,0.5,0.4
		C93.8,73.4,93.3,73,93.4,73.6z"/>
	<path fill="#858585" d="M61.3,22.7c0.2,0.1,0.3,0.1,0.5,0.2c-0.4,0.3-0.9,0.1-1.3,0.2c-0.1-0.1-0.1-0.1-0.2-0.2
		C60.7,22.5,61,22.7,61.3,22.7z"/>
	<path fill="#D5D4D3" d="M70.8,24.8c0.2,0.3,0.6,0.1,0.8,0.2c-0.2,0.3-0.5,0.7-1,0.6c-0.1,0-0.1-0.1-0.2-0.1
		C70.4,25.2,70.5,25,70.8,24.8z"/>
	<path fill="#D6D5D5" d="M43.6,60c-0.2,0-0.3,0.2-0.6,0c0.3-0.4,0.8-0.5,1.2-0.7C44.2,59.7,43.8,59.8,43.6,60z"/>
	<path fill="#F4F1ED" d="M62.1,83c-0.2,0-0.4-0.3-0.4,0.1c0,0.4,0,0.9,0,1.3c-0.3-0.6-0.2-1.3,0-1.9C62,82.7,62.1,82.8,62.1,83z"/>
	<path fill="#838383" d="M71,28c0.1-0.1,0.3-0.1,0.4-0.2c0.4,0,0.7,0.1,1,0.3c0,0.4-0.3,0.1-0.5,0.2C71.7,28,71.2,28.4,71,28z"/>
	<path fill="#2A2A2A" d="M42.1,43.5c0-0.1,0-0.1,0-0.2c0.2,0.2,0.6,0.2,0.4,0.6c-0.3,0.5-0.6-0.1-0.9-0.1
		C41.6,43.3,42,43.6,42.1,43.5z"/>
	<path fill="#A3A0A4" d="M64,83c0-0.2,0.1-0.3,0.1-0.5c0-0.1,0.1-0.1,0.1-0.2c0,0.7,0,1.4,0,2C63.9,84.1,64.4,83.4,64,83z"/>
	<path fill="#EFEFF0" d="M61.6,76.3c-0.1,0.5-0.3,0.9,0.1,1.4c0,0.1-0.1,0.3-0.2,0.2C61.3,77.3,60.9,76.8,61.6,76.3z"/>
	<path fill="#5B5B5A" d="M56.1,28.9c0,0.1,0,0.2,0,0.3c-0.3,0.1-0.7,0.2-1.1,0.4C55.3,29.1,55.6,28.9,56.1,28.9z"/>
	<path fill="#11161B" d="M60.8,77.5c-0.9,0-0.5-0.6-0.4-1c0.4,0,0.2,0.3,0.3,0.5C60.7,77.2,60.8,77.4,60.8,77.5z"/>
	<path fill="#858585" d="M69.4,24.2c0.4-0.1,0.8,0,1.2,0.1c-0.5,0.2-0.9,0.2-1.4,0C69.2,24.3,69.3,24.3,69.4,24.2z"/>
	<path fill="#4E4E4E" d="M71.1,29.2c0,0,0-0.1,0-0.1c0.4,0.1,0.8-0.1,1.1,0.3c0,0.2,0,0.3-0.2,0.2C71.7,29.4,71.4,29.5,71.1,29.2z"
		/>
	<path fill="#404040" d="M59.8,26.3c0-0.1,0-0.1,0-0.2c0.4-0.2,0.9-0.4,1.3,0c0,0,0,0,0,0C60.6,26.2,60.2,26.3,59.8,26.3z"/>
	<path fill="#848484" d="M59.8,28c-0.4,0.2-0.9,0.1-1.3,0.3c0,0-0.1-0.1,0-0.1c0,0,0-0.1,0-0.1c0.3-0.2,0.6-0.3,0.9-0.3
		C59.5,27.9,59.7,27.9,59.8,28z"/>
	<path fill="#474747" d="M59,24.7c0.1,0.1,0.1,0.1,0.2,0.2c-0.3,0.3-0.7,0.4-1.1,0.2c0,0,0-0.1,0-0.1C58.3,24.7,58.6,24.7,59,24.7z"
		/>
	<path fill="#3D3D3D" d="M70.5,25.5c0.1,0,0.1,0,0.2,0c0,0.3,0.5,0.4,0.2,0.7c-0.2,0-0.4,0.1-0.6-0.1c-0.1,0-0.3,0-0.3-0.1
		c-0.1-0.3,0.2-0.2,0.4-0.3C70.4,25.6,70.4,25.5,70.5,25.5z"/>
	<path fill="#676767" d="M60.2,29.3c-0.4,0.1-0.7,0.2-1.1,0.3c-0.1,0-0.2,0-0.2-0.1c0.3-0.2,0.5-0.3,0.8-0.3
		C59.9,29.2,60.1,29.1,60.2,29.3z"/>
	<path fill="#676868" d="M53.8,31.9c-0.1-0.1-0.1-0.1-0.2-0.2c0,0,0-0.1,0-0.1c0.2-0.1,0.3-0.4,0.5-0.3c0.1,0,0.1,0.1,0.1,0.2
		C54.2,31.8,54,31.9,53.8,31.9z"/>
	<path fill="#4D4D4D" d="M52.8,30.9c-0.2,0.2-0.3,0.5-0.7,0.4c-0.1-0.3,0.2-0.4,0.2-0.6C52.6,30.6,52.8,30.5,52.8,30.9z"/>
	<path fill="#7B7B7B" d="M40.3,43.3c-0.3,0.3-0.6,0.2-0.9,0.1C39.7,43,40,43.2,40.3,43.3z"/>
	<path fill="#434444" d="M45.8,55.8c-0.1,0-0.1,0-0.2,0c0-0.4,0-0.9-0.2-1.3c0-0.1,0.1-0.1,0.1-0.1c0.3,0.1,0.1,0.5,0.3,0.7
		C45.7,55.2,45.8,55.5,45.8,55.8z"/>
	<path fill="#121212" d="M68.7,27.4c0.4-0.2,0.8-0.1,1.2,0.1c0,0.1-0.1,0.1-0.2,0.1c0,0,0,0.1,0,0.1C69.4,27.6,69,27.7,68.7,27.4
		C68.7,27.4,68.7,27.4,68.7,27.4z"/>
	<path fill="#5E5F5F" d="M37.8,40.3c0.2-0.7,0.6-0.3,1-0.2c-0.1,0.1-0.2,0.1-0.2,0.2C38.3,40.3,38.1,40.3,37.8,40.3z"/>
	<path fill="#606060" d="M62.6,25.6c0.4-0.1,0.7-0.3,1.2,0c-0.4,0.4-0.8,0.1-1.2,0.2c0,0-0.1,0-0.1,0C62.5,25.7,62.5,25.6,62.6,25.6
		z"/>
	<path fill="#383738" d="M77.9,30.2c0.2-0.3,0.5-0.1,0.8-0.2c0.2,0.1,0.4,0.1,0.5,0.2c-0.2,0.3-0.6,0.1-0.8,0.1
		C78.2,30.2,78,30.2,77.9,30.2z"/>
	<path fill="#E7E6E6" d="M38.3,47.8c-0.1,0.1-0.2,0.3-0.5,0.2c-0.1-0.2-0.4-0.1-0.5-0.3c0.1-0.1,0.2-0.2,0.2-0.2
		C37.7,47.8,38.2,47.3,38.3,47.8z"/>
	<path fill="#8F8F8E" d="M58.6,29.7c-0.1,0-0.1,0.1-0.2,0.1c-0.2-0.1-0.6,0.3-0.7,0c-0.1-0.4,0.4-0.3,0.6-0.4
		C58.5,29.5,58.6,29.6,58.6,29.7z"/>
	<path fill="#171617" d="M64.3,22.6c-0.4-0.1-0.9,0.2-1.3-0.2c0.5,0,0.9-0.1,1.4-0.1c0,0.1,0,0.2,0,0.3
		C64.4,22.6,64.4,22.6,64.3,22.6z"/>
	<path fill="#898989" d="M53.3,28.8c0-0.3,0.7,0,0.3-0.5c0.2,0,0.3-0.1,0.6-0.2C54,28.7,53.7,28.8,53.3,28.8z"/>
	<path fill="#818081" d="M85.6,51.6c-0.1-0.1-0.2-0.2-0.3-0.3c0.3,0,0.7,0,1-0.1c0.1,0.1,0.3,0.2,0.4,0.3
		C86.4,51.7,86,51.8,85.6,51.6z"/>
	<path fill="#A7A6A6" d="M78.7,29.7c-0.1,0-0.1,0-0.2,0c0-0.1,0-0.2,0-0.3c0-0.1,0.1-0.2,0.2-0.2c0.2,0.2,0.4,0.3,0.6,0.5
		C79.1,29.8,78.9,30.1,78.7,29.7z"/>
	<path fill="#212121" d="M62.3,28.6c0.2,0,0.3,0,0.5,0.1c-0.3,0.1-0.6,0-0.9,0.1c0.1-0.2,0-0.6,0.4-0.7
		C62.2,28.3,61.8,28.5,62.3,28.6z"/>
	<path fill="#616160" d="M37.7,39.8c0,0.7-0.5,0.2-0.8,0.3C36.9,39.5,37.4,39.9,37.7,39.8z"/>
	<path fill="#2E2E2E" d="M39.7,45.8c0,0.1,0,0.2,0,0.3c-0.4-0.3-0.9,0-1.3-0.3c0.2-0.3,0.6,0,0.8-0.2C39.4,45.7,39.6,45.8,39.7,45.8
		z"/>
	<path fill="#8E8D8D" d="M82.9,37.1c0.5,0,0.9,0,1.4,0c0.1,0.1,0.2,0.1,0.1,0.2C84,37.2,83.4,37.5,82.9,37.1z"/>
	<path fill="#8F8F8E" d="M57.1,27.1c-0.3,0.3-0.7,0.1-1,0.3c0-0.1,0-0.2-0.1-0.2c0.2-0.1,0.5-0.2,0.7-0.2C56.8,27,57,26.9,57.1,27.1
		z"/>
	<path fill="#A1A1A0" d="M91.2,35.9c-0.1,0.4-0.2,0.5-0.5,0.5c0,0-0.1-0.1-0.1-0.2C90.6,36,90.8,36,91.2,35.9z"/>
	<path fill="#FDF8F4" d="M59.7,81.1c-0.5,0-1,0-1.5,0C58.7,80.9,59.2,80.9,59.7,81.1z"/>
	<path fill="#3B3D3D" d="M87.2,35.9c0.1-0.1,0.1-0.1,0.2-0.2c0,0,0.1,0,0.1,0.1c0.1,0.1,0.4,0.2,0.3,0.5c0,0.1-0.1,0.1-0.2,0.1
		C87.2,36.4,87.3,36,87.2,35.9z"/>
	<path fill="#555555" d="M73.8,30.3c-0.1,0-0.1,0-0.1,0c-0.2-0.2-0.5,0-0.6-0.3c0,0,0.1-0.1,0.1-0.2c0.3-0.1,0.5,0.1,0.7,0.3
		C73.9,30.1,73.8,30.2,73.8,30.3z"/>
	<path fill="#454646" d="M52.4,27.6c0,0.1-0.1,0.2-0.2,0.2c-0.1,0-0.2,0-0.2-0.1c0-0.1,0.1-0.2,0.2-0.2
		C52.3,27.4,52.4,27.4,52.4,27.6z"/>
	<path fill="#DFDFE3" d="M62.7,84.5c0.1-0.3-0.2-0.5-0.3-0.7c0.4,0,0.3,0.6,0.8,0.6C63.2,84.7,62.9,84.4,62.7,84.5z"/>
	<path fill="#191919" d="M74.9,27.2c-0.1,0-0.2,0.1-0.3,0.1c-0.3-0.1-0.6,0-0.8-0.3C74.2,27,74.5,27,74.9,27.2z"/>
	<path fill="#8B8B8A" d="M71.9,28.3c0.1-0.2,0.4,0.1,0.5-0.2c0.1,0,0.4,0,0.4,0.2c0,0.2-0.2,0.2-0.3,0.2
		C72.3,28.4,72,28.6,71.9,28.3z"/>
	<path fill="#6C6D6D" d="M90.2,50.4c0.1,0.2,0.4,0.1,0.5,0.3c-0.3,0.2-0.6,0.2-0.9,0.1c-0.1-0.1-0.1-0.2-0.1-0.4
		C89.8,50.5,90,50.4,90.2,50.4z"/>
	<path fill="#4C484A" d="M63.2,81.3c-0.5,0-0.9,0-1.4,0C62.3,81.1,62.7,81.1,63.2,81.3z"/>
	<path fill="#2E2E2E" d="M61.3,28.6c0,0.1,0,0.2,0,0.4c-0.3,0-0.5,0.2-0.8,0.2c-0.1-0.1-0.1-0.1,0-0.2C60.7,28.7,61.2,29,61.3,28.6z
		"/>
	<path fill="#302F2E" d="M57.1,27.1c-0.1,0-0.3,0-0.3-0.2c0.2-0.1,0.5,0,0.8-0.2c0.1,0.1,0.2,0.2,0.3,0.4
		C57.6,27,57.3,26.9,57.1,27.1z"/>
	<path fill="#7D7D7D" d="M70.3,25.7c-0.1,0.1-0.2,0.2-0.4,0.3c-0.2-0.1-0.5,0.1-0.6-0.2l0,0C69.7,25.6,70,25.7,70.3,25.7z"/>
	<path fill="#323333" d="M79.6,34.1c0-0.3-0.5-0.3-0.5-0.7c0.4,0,0.4,0.5,0.8,0.5C79.9,34.3,79.8,34.3,79.6,34.1z"/>
	<path fill="#EEEDED" d="M72.2,27.2c-0.2,0-0.4,0-0.7,0.1c0.2-0.3,0.3-0.5,0.7-0.4C72.2,27,72.2,27.1,72.2,27.2z"/>
	<path fill="#4E4F4F" d="M58,25C58,25.1,58,25.1,58,25c-0.2,0.4-0.6,0.4-0.9,0.3C57.4,25,57.7,25,58,25z"/>
	<path fill="#565757" d="M48.6,28.3c-0.1,0.1,0.1,0.6-0.3,0.4c-0.3-0.1-0.3-0.3-0.1-0.5C48.3,28.2,48.5,28.2,48.6,28.3z"/>
	<path fill="#383738" d="M76.5,30.9c0.4-0.4,0.9-0.1,1.4-0.2C77.4,31,76.9,30.7,76.5,30.9z"/>
	<path fill="#767677" d="M42.1,43.5c-0.1,0.1-0.3,0.2-0.4,0.3c-0.2,0-0.4,0-0.7,0C41.3,43.5,41.6,43.3,42.1,43.5z"/>
	<path fill="#7F7F7F" d="M50.7,28.5c0.1-0.4,0.5-0.3,0.8-0.5c0.1,0.4-0.3,0.4-0.4,0.5C51,28.5,50.8,28.6,50.7,28.5z"/>
	<path fill="#2C2D2D" d="M39.3,45.7c-0.2,0.3-0.5,0.1-0.8,0.2C38.5,45.4,38.5,45.4,39.3,45.7z"/>
	<path fill="#ACACAC" d="M64.8,25.6c-0.3,0-0.6,0-1.1,0.1c0.4-0.4,0.8-0.4,1.1-0.2C64.9,25.5,64.9,25.5,64.8,25.6
		C64.8,25.6,64.8,25.6,64.8,25.6z"/>
	<path fill="#838383" d="M48.6,28.3c-0.1,0-0.3,0-0.4,0c0.3-0.1,0.6-0.3,0.9-0.5C49.1,28.2,48.8,28.2,48.6,28.3z"/>
	<path fill="#888888" d="M58.5,28.1c0,0.1,0,0.1,0,0.2c-0.1,0.1-0.2,0.2-0.3,0.2c-0.1,0-0.3,0.1-0.3-0.1c0-0.2,0.1-0.2,0.3-0.2
		C58.2,28.2,58.4,28.1,58.5,28.1z"/>
	<path fill="#3B3C3B" d="M91,43.6c0.1,0.2,0.1,0.4,0,0.6c-0.4-0.1-0.2-0.4-0.3-0.6C90.8,43.5,90.9,43.5,91,43.6z"/>
	<path fill="#EFEFF0" d="M60.7,77c-0.1-0.2-0.2-0.3-0.3-0.5c0-0.1,0-0.2-0.1-0.3C60.7,76.4,61,76.6,60.7,77z"/>
	<path fill="#373737" d="M60.5,28.9c0,0.1,0,0.1,0,0.2c-0.1,0-0.2,0.1-0.3,0.1c-0.2,0-0.3,0-0.4-0.1C60,28.9,60.3,29,60.5,28.9z"/>
	<path fill="#7C7C7C" d="M78.7,29.2c-0.1,0.1-0.1,0.1-0.2,0.2c-0.1-0.1-0.3-0.3-0.4-0.4c0,0,0,0,0,0C78.3,29,78.5,29.1,78.7,29.2z"
		/>
	<path fill="#8E8D8D" d="M78.3,32.8c0.3,0,0.5,0,0.6,0.2c0,0,0,0.2-0.1,0.2C78.6,33.3,78.5,33.2,78.3,32.8z"/>
	<path fill="#C9C8C8" d="M44.1,32.3c0.1-0.3,0.3-0.4,0.6-0.4C44.7,32.2,44.5,32.2,44.1,32.3z"/>
	<path fill="#484949" d="M87.3,31.9c-0.1,0-0.2,0-0.2-0.2c0-0.2,0-0.3,0.2-0.3c0.1,0,0.2,0,0.2,0.1C87.5,31.7,87.4,31.8,87.3,31.9z"
		/>
	<path fill="#272626" d="M66.7,23.9c0,0.1,0,0.1,0,0.2c-0.3,0-0.5,0-0.8-0.1c0,0,0-0.1,0-0.1C66.2,23.9,66.4,23.6,66.7,23.9z"/>
	<path fill="#191819" d="M56.6,23.9c0.2-0.1,0.4-0.3,0.7-0.2c-0.1,0.3-0.4,0.2-0.5,0.4C56.6,24.1,56.6,24,56.6,23.9z"/>
	<path fill="#6F6F6F" d="M46.4,30.1c0,0.3-0.2,0.4-0.4,0.4c0,0-0.1-0.1-0.1-0.2C46,30.2,46.2,30,46.4,30.1z"/>
	<path fill="#3E3E3E" d="M75.1,30.6c0,0.1,0,0.2,0,0.3c-0.3-0.1-0.5-0.3-0.8-0.4c0-0.2,0-0.2,0.2-0.2C74.7,30.4,74.9,30.5,75.1,30.6
		z"/>
	<path fill="#969696" d="M52.8,30.9c-0.1-0.2-0.3-0.2-0.5-0.2c0.1-0.2,0.2-0.2,0.4-0.2c0.2,0,0.4-0.2,0.5,0
		C53.3,30.8,53,30.7,52.8,30.9z"/>
	<path fill="#5B5B5B" d="M67,25.5c0,0.1,0,0.2,0,0.3c-0.2,0-0.4,0-0.6,0c-0.1-0.1-0.1-0.2,0-0.3C66.6,25.5,66.8,25.5,67,25.5z"/>
	<path fill="#525252" d="M91.6,48.6c-0.1,0.1-0.2,0.2-0.3,0.1c-0.1,0-0.2-0.2-0.2-0.3c0-0.1,0.1-0.2,0.3-0.1
		C91.6,48.3,91.6,48.4,91.6,48.6z"/>
	<path fill="#424343" d="M70.3,26.1c0.2,0,0.5,0,0.7,0c0,0,0.1,0,0.1,0l0,0.1c0,0.2,0.1,0.5-0.1,0.6C71.1,26.2,70.5,26.3,70.3,26.1z
		"/>
	<path fill="#353635" d="M91.6,47.5c0,0.2,0,0.3-0.2,0.3c-0.1,0-0.2-0.1-0.2-0.3c0-0.2,0.1-0.3,0.3-0.3
		C91.7,47.2,91.6,47.4,91.6,47.5z"/>
	<path fill="#424242" d="M54.9,27.8c0.2-0.2,0.5-0.3,0.8-0.3C55.4,27.9,55.2,27.8,54.9,27.8z"/>
	<path fill="#0F0F10" d="M59.8,28c-0.1,0-0.3,0-0.3-0.2c0.3,0,0.5-0.2,0.8-0.1c0,0,0,0.1,0,0.1C60.1,27.9,59.9,27.9,59.8,28z"/>
	<path fill="#020202" d="M45.6,54.3c-0.1,0-0.1,0-0.1,0.1c-0.2,0-0.2-0.3-0.3-0.4c0-0.2,0-0.2,0.2-0.2C45.5,54,45.6,54.1,45.6,54.3z
		"/>
	<path fill="#585959" d="M52.4,25.7c0.1-0.3,0.3-0.3,0.6-0.3c0,0,0.1,0.1,0.1,0.2C52.9,25.6,52.7,25.9,52.4,25.7z"/>
	<path fill="#505050" d="M58.6,29.7c-0.2,0-0.3,0-0.3-0.3c0.2,0,0.4,0,0.6-0.1c0.1,0,0.1,0.1,0.2,0.1C59,29.6,58.8,29.7,58.6,29.7z"
		/>
	<path fill="#464646" d="M68.6,25.8c0-0.1,0-0.1,0-0.2c0.3-0.1,0.6-0.1,0.8,0.2c0,0,0,0,0,0C69.1,25.6,68.9,26.1,68.6,25.8z"/>
	<path fill="#696868" d="M55.8,24.4c-0.1,0-0.1-0.1-0.2-0.1c0.1-0.2,0.3-0.1,0.5-0.1c0.2-0.1,0.2,0,0.1,0.1
		C56.2,24.4,56,24.3,55.8,24.4z"/>
	<path fill="#606060" d="M72,29.6c0.1-0.1,0.1-0.1,0.2-0.2c0.2,0,0.4,0.1,0.6,0.3C72.5,29.9,72.2,29.8,72,29.6z"/>
	<path fill="#818181" d="M76.5,31.6c0.1-0.1,0.1-0.1,0.2-0.2c0.2,0.1,0.4,0.1,0.5,0.4C76.8,31.9,76.6,31.9,76.5,31.6z"/>
	<path fill="#2E3635" d="M61,83.8c0.1-0.3,0-0.6,0.3-0.7c0,0.4-0.1,0.7-0.3,1C60.9,83.9,60.9,83.8,61,83.8z"/>
	<path fill="#4F4F4F" d="M64.8,25.6c0,0,0-0.1,0-0.1c0.2-0.1,0.3-0.3,0.6-0.1c0,0,0.1,0.2,0,0.2C65.2,25.7,65,25.6,64.8,25.6z"/>
	<path fill="#8E8E8D" d="M55.5,30.7c0.1-0.2,0.3-0.3,0.4-0.1c0.1,0.2-0.1,0.4-0.4,0.4C55.4,30.9,55.4,30.8,55.5,30.7z"/>
	<path fill="#1A1718" d="M61,83.8c0,0.1,0,0.2,0,0.3c-0.1,0.3-0.4,0.3-0.6,0.4c0,0,0-0.1,0-0.1c0,0,0-0.1,0-0.1
		C60.7,84.2,60.8,83.9,61,83.8z"/>
	<path fill="#676767" d="M74.5,30.3c-0.1,0.1-0.1,0.1-0.2,0.2c-0.2-0.1-0.3-0.2-0.5-0.2c0-0.1,0-0.2,0-0.2
		C74,30.1,74.3,30.2,74.5,30.3z"/>
	<path fill="#6F6F6E" d="M91.2,45.8c0.2,0.1,0.3,0.3,0.2,0.5c0,0-0.2,0.1-0.2,0C91.1,46.2,91.1,46,91.2,45.8z"/>
	<path fill="#555655" d="M86.6,43.5c0.1,0.1,0.2,0.1,0.2,0.2c-0.2,0-0.4,0.1-0.7,0.1C86.1,43.4,86.4,43.5,86.6,43.5z"/>
	<path fill="#303030" d="M40.2,57.9c0.2,0.2,0.2,0.5,0.3,0.9C40.1,58.5,40.2,58.2,40.2,57.9C40.3,57.9,40.2,57.9,40.2,57.9z"/>
	<path fill="#808080" d="M78,29C78,29,78.1,29.1,78,29c-0.2,0.1-0.4,0-0.6-0.2c0.1-0.1,0.1-0.1,0.2-0.2C77.7,28.8,78,28.8,78,29z"/>
	<path fill="#707071" d="M85.9,49.6c0.1,0.1,0.1,0.1,0.2,0.2c-0.2,0.1-0.4,0.2-0.7,0.3C85.5,49.7,85.6,49.6,85.9,49.6z"/>
	<path fill="#9C9A9B" d="M39.4,62.1c0.2-0.1,0.3-0.5,0.5-0.2c0.1,0.1-0.1,0.4-0.3,0.4C39.5,62.2,39.5,62.1,39.4,62.1z"/>
	<path fill="#A2A0A1" d="M50.9,26.6c0,0.2-0.1,0.3-0.3,0.3c-0.1,0-0.2-0.1-0.2-0.2c0.1-0.1,0.2-0.1,0.3-0.2
		C50.9,26.5,50.9,26.6,50.9,26.6z"/>
	<path fill="#9C9C9D" d="M53,27c0.1-0.1,0.3-0.3,0.4-0.1c0.1,0.1-0.1,0.3-0.2,0.3C53,27.3,52.9,27.2,53,27z"/>
	<path fill="#ABABAB" d="M66.4,25.5c0,0.1,0,0.2,0,0.3c-0.2-0.1-0.5-0.1-0.8-0.2C65.9,25.4,66.2,25.5,66.4,25.5z"/>
	<path fill="#010101" d="M62.6,25.6c0,0.1-0.1,0.1-0.1,0.2c-0.2,0-0.3,0-0.4-0.2C62.3,25.5,62.4,25.4,62.6,25.6z"/>
	<path fill="#ADADAD" d="M56.5,25.5c-0.2,0.2-0.4,0.3-0.5,0.2c-0.2-0.2,0-0.2,0.2-0.3C56.3,25.5,56.4,25.5,56.5,25.5z"/>
	<path fill="#202020" d="M65.9,28.6c0.3-0.2,0.6-0.2,0.9,0C66.5,28.8,66.2,28.7,65.9,28.6z"/>
	<path fill="#0E0E0E" d="M69.7,27.6c0.1,0,0.1-0.1,0.2-0.1c0.2-0.1,0.4-0.1,0.6,0C70.2,27.7,70,27.7,69.7,27.6z"/>
	<path fill="#868586" d="M50.7,28.5c0.1,0,0.2-0.2,0.4,0c-0.1,0.1-0.2,0.2-0.4,0.3c-0.1,0.1-0.2,0-0.2-0.1
		C50.5,28.5,50.6,28.5,50.7,28.5z"/>
	<path fill="#9F9FA0" d="M54,26.7c-0.1,0-0.2,0-0.2-0.1c0-0.1,0.1-0.2,0.2-0.2c0.1,0,0.2,0.1,0.2,0.1C54.2,26.6,54.1,26.7,54,26.7z"
		/>
	<path fill="#EFEFF0" d="M61.6,79.1c-0.2-0.2-0.3-0.4-0.3-0.7C61.8,78.5,61.6,78.9,61.6,79.1z"/>
	<path fill="#3A3B3B" d="M45.3,53.9c-0.1,0.1-0.1,0.1-0.2,0.2c-0.2,0-0.4,0-0.5-0.2c0.1-0.1,0.1-0.1,0.2-0.2
		C44.9,53.7,45.1,53.7,45.3,53.9z"/>
	<path fill="#0D0D0D" d="M36.1,47.6c-0.1,0.1-0.1,0.1-0.2,0.2c-0.1,0-0.4,0.1-0.3-0.1C35.6,47.4,35.9,47.4,36.1,47.6z"/>
	<path fill="#414141" d="M54,24.8c0.1,0,0.3,0,0.4,0.2c-0.2,0.1-0.3,0.2-0.5,0.2c-0.1,0-0.2-0.1-0.2-0.2
		C53.8,24.9,53.9,24.8,54,24.8z"/>
	<path fill="#555555" d="M53.7,25c0.1,0.1,0.1,0.2,0.2,0.2c-0.2,0.2-0.4,0.2-0.5,0.1C53.3,25.1,53.6,25.1,53.7,25z"/>
	<path fill="#FAFBFC" d="M71.6,23.1c-0.2,0-0.1-0.2-0.2-0.3c0.1-0.2,0.3,0,0.5,0C71.8,22.9,71.7,23,71.6,23.1z"/>
	<path fill="#7B7B7B" d="M56.3,24.2c0,0-0.1-0.1-0.1-0.1c0.1-0.2,0.3-0.1,0.5-0.2c0.1,0.1,0.1,0.1,0.2,0.2
		C56.6,24.3,56.4,24.2,56.3,24.2z"/>
	<path fill="#707170" d="M79.2,31.7c0.3,0.1,0.4,0.2,0.4,0.4c-0.1,0-0.1,0.1-0.2,0.1C79.3,32.1,79.1,31.9,79.2,31.7z"/>
	<path fill="#313131" d="M47.9,61.9c-0.3,0.3-0.6,0.1-0.9,0.1C47.3,61.9,47.6,62,47.9,61.9z"/>
	<path fill="#313131" d="M49.7,61.6c-0.3,0.3-0.6,0.1-0.9,0.1C49,61.5,49.4,61.7,49.7,61.6z"/>
	<path fill="#C5C3C4" d="M91,43.6c-0.1,0-0.2,0-0.3,0c0-0.2-0.1-0.4,0.1-0.6C90.9,43.2,90.9,43.4,91,43.6z"/>
	<path fill="#111111" d="M45.8,55.8c-0.1-0.3-0.1-0.5,0.1-0.8C45.9,55.2,45.9,55.5,45.8,55.8C45.8,55.8,45.8,55.8,45.8,55.8z"/>
	<path fill="#525252" d="M48.7,30c0,0.1,0.1,0.3,0.1,0.4c-0.1-0.1-0.3,0.2-0.4,0C48.3,30.2,48.5,30.1,48.7,30z"/>
	<path fill="#F4F6FA" d="M70.1,83.9c0.1-0.1,0.1-0.2,0.2-0.2c0,0.1,0.3,0.1,0.2,0.3C70.4,84.1,70.2,84.1,70.1,83.9z"/>
	<path fill="#FDF8F4" d="M58.2,83.7c0.2,0.1,0.2,0.3,0.3,0.5C58,84.2,58.1,83.9,58.2,83.7z"/>
	<path fill="#3A3A39" d="M55.5,30.7c0,0.1,0,0.2,0,0.3c-0.1,0.1-0.2,0.1-0.3,0.2C55.1,31.1,55,31,55,31
		C55.1,30.8,55.3,30.7,55.5,30.7z"/>
	<path fill="#818181" d="M69.4,24.2c-0.1,0-0.1,0.1-0.2,0.1c-0.1,0-0.2,0-0.3,0c0-0.1,0-0.2,0-0.3C69.1,24,69.2,24.2,69.4,24.2z"/>
	<path fill="#C8C1C0" d="M59.3,79.6c0.1-0.1-0.1-0.4,0.1-0.4c0.2,0,0.2,0.2,0.2,0.4C59.5,79.6,59.4,79.6,59.3,79.6z"/>
	<path fill="#979797" d="M79.6,34.1c0.1,0,0.3,0,0.3-0.2c0.2,0.1,0.2,0.2,0.1,0.3C79.9,34.4,79.7,34.4,79.6,34.1z"/>
	<path fill="#313131" d="M48.7,61.8c-0.2,0.3-0.5,0.1-0.8,0.2C48.2,61.7,48.5,61.9,48.7,61.8z"/>
	<path fill="#CAC9C9" d="M85.1,50.3c0.1,0.1,0.1,0.1,0.2,0.2c0,0.1,0,0.1-0.1,0.2c-0.1,0-0.1-0.1-0.2-0.1
		C85,50.4,85.1,50.4,85.1,50.3z"/>
	<path fill="#3A3B3A" d="M41.1,51c-0.2-0.3-0.1-0.5-0.1-0.8C41.2,50.5,41.2,50.7,41.1,51z"/>
	<path fill="#828383" d="M53,27c0.1,0.1,0.1,0.1,0.2,0.2c-0.1,0.2-0.3,0.2-0.4,0.1C52.6,27.1,52.8,27.1,53,27z"/>
	<path fill="#252525" d="M66.1,27.1c-0.2,0.2-0.5,0.1-0.8,0.1c0,0,0-0.1,0-0.1C65.5,27,65.8,26.9,66.1,27.1z"/>
	<path fill="#6B6B6A" d="M91.5,40.1c-0.1,0.1-0.2,0.1-0.3,0.2c-0.2-0.1-0.2-0.3-0.1-0.4C91.2,39.8,91.3,40,91.5,40.1z"/>
	<path fill="#040404" d="M92.1,60.4c0.5-0.6,0.9,0,1.4,0c0.5,0,0,0.4,0.1,0.5c0,0,0,0,0,0c-0.3,0.2-0.5,0-0.7-0.1
		C92.6,60.7,92.1,60.8,92.1,60.4z"/>
	<path fill="#D6D5D5" d="M92.1,60.4c0.1,0.3,0.5,0.1,0.7,0.4c0.1,0.1,0.1,0.1,0,0.2c-0.4-0.2-0.8-0.3-1.3-0.3
		c-0.1-0.1-0.1-0.2,0-0.3c0.1,0,0.1,0,0.2,0C91.7,60.4,91.9,60.4,92.1,60.4z"/>
	<path fill="#C9C6C6" d="M102.8,70.7c-0.1,0.2-0.3,0.4-0.6,0.5c0-0.4,0.2-0.5,0.5-0.5C102.7,70.7,102.8,70.7,102.8,70.7z"/>
	<path fill="#C9C8C8" d="M102.8,70.7c-0.1,0-0.1,0-0.2,0c0-0.1,0.1-0.1,0.1-0.2c0.1-0.1,0.2-0.3,0.4-0.2c0,0,0.1,0.1,0.1,0.2
		C103.2,70.6,103.1,70.8,102.8,70.7z"/>
	<g>
		<path fill="#040404" d="M54,59.8c0.2,0.2,0.4,0.2,0.6,0.3c0.2,0.1,0.4,0.2,0.6,0.3c-0.2-0.1-0.4-0.2-0.6-0.3
			C54.4,60,54.2,60,54,59.8C54,59.8,54.1,59.8,54,59.8C54,59.8,54,59.8,54,59.8z"/>
		<path fill="#040404" d="M94.9,66.5c0.3-0.1,0.6-0.3,1-0.2c0-0.4-0.3-0.5-0.5-0.7c-0.8-0.5-0.8-0.6-0.2-1.3
			c0.6-0.7,0.6-1.5,0.7-2.3c0.1-0.5-0.4-0.8-0.6-1.1c-0.1-0.2-0.2-0.3-0.2-0.5c-0.7-0.2-0.8,0-0.6,0.8c-0.3-0.1-0.5-0.1-0.8-0.2
			c0,0,0,0.1-0.1,0.1c0.1,0.3,0.3,0.3,0.5,0.5c0.1,0.1,0.3,0.2,0.1,0.4c-0.3,0.2-0.6,0.2-0.9,0.1c-0.4,0-0.1-0.3-0.1-0.5
			c0-0.3-0.1-0.5-0.3-0.7c-0.4-0.2-0.8-0.3-1.3-0.3c-2.1,0.6-2.2,0.8-2.2,3c0,0.1,0,0.1,0,0.2c0,0.3-0.1,0.5-0.4,0.4
			c-1.1-0.2-2.2-0.3-3.1-0.9c-0.5-0.4-0.6-0.8-0.1-1.3c0.4-0.4,0.9-0.6,1.4-0.8c1.5-0.5,2.9-0.8,4.5-0.7c0.1,0,0.1-0.1,0.2-0.2
			c0-0.3-0.4-0.4-0.2-0.8c0.4-0.6-0.1-0.8-0.6-0.8c0.1,0.3,0.9,0.7,0.1,0.8c-0.7,0.1-1.4,0.2-2.2-0.1c-1.3-0.5-2.6-1.2-3.8-1.9
			c-0.3-0.2-0.6-0.3-0.9,0.1c-0.2,0.4-0.3,0.7,0.1,1c0.1,0.1,0.2,0.2,0.3,0.2c0.6,0.4,1.2,0.8,1.8,1.3c-0.2,0.3-0.6,0.3-0.8,0.5
			c-0.9,0.4-1.6,1-1.5,2.2c0.1,1,0.2,2.1,0.6,3c0.2,0.4,0.3,1,0,1.3c-0.3,0.4-0.8-0.1-1.2-0.1c-0.1,0-0.1-0.1-0.2-0.1
			c-1.7-0.6-3.3-1.3-5-1.7c-1.2-0.2-2.5-0.6-3.7-1c-0.2-0.1-0.5,0-0.5-0.3c0-0.1,0.2-0.3,0.4-0.4c1.7-1.1,3.2-2.5,4.5-4.1
			c1.7-2,2.7-4.4,3.5-6.9c0.1-0.4,0.1-0.8,0.5-1c0.1,0.1,0.1,0.1,0.2,0c0-0.2,0.1-0.4,0.3-0.4c0.4,0,0.8,0,0.9-0.4
			c0.1-0.2-0.1-0.4-0.3-0.5c-0.4-0.3-0.7,0.1-1,0.2c0,0-0.1,0-0.1,0c-0.1-1.4,0.3-2.7,0-4.1c-0.3-1.3-0.3-2.6-0.7-3.9
			c-0.9-2.4-2.1-4.7-3.9-6.6c-1.7-1.7-3.6-3.2-5.8-4.1c-2.8-1.2-5.8-1.6-8.9-1.3c-2.2,0.2-4.3,0.9-6.2,1.9c-2.4,1.2-4.4,2.8-6.1,4.9
			c-1.3,1.6-2.2,3.3-3,5.1c-0.6,1.4-0.8,2.8-1.1,4.3c-0.4,2.2-0.2,4.4,0.2,6.6c0.6,2.9,1.9,5.4,3.8,7.5c0.1,0.2,0.3,0.4,0.2,0.5
			c-0.1,0.1-0.4,0.2-0.5,0.2c-0.4,0-0.7-0.1-1.1,0.1c-0.3,0.1-0.6-0.1-0.9,0.1l0,0c-0.2,0.2-0.5,0-0.8,0.2l0,0
			c-0.3,0.2-0.7-0.1-0.9,0.1l0,0c-0.1,0.1-0.1,0.2,0,0.4c0.4,0.2,0.9,0.1,1.3,0c0.3-0.2,0.7-0.1,1.1-0.1c0.5,0,0.9,0.1,1.4-0.1
			c0.8-0.2,1.6-0.1,2.3-0.1c3.1-0.2,6.1-0.1,9.2,0.2c3.5,0.4,6.9,1.2,10.3,2.2c2,0.5,3.9,1.3,5.9,1.7c0.9,0.2,1.7,0.6,2.6,0.8
			c1.6,0.5,3.3,1,5,0.9c0.2-0.1,0.5-0.1,0.7-0.3c-0.1-0.4-0.5-0.3-0.7-0.4c-0.7-0.3-0.5-0.8-0.4-1.3c0-0.3,0.1-0.5,0.5-0.4
			c1.6,0.4,3.2,0.4,4.8,0.5c0.5,0,0.9,0.2,1.5,0.4c-0.6,0.3-0.9,0.6-1.3,0.9c-0.2,0.2-0.5,0.2-0.7,0.2c-0.1,0-0.1,0-0.2,0.1
			c-0.3,0.1-0.7,0-1,0.2c0,0.1-0.1,0.1,0,0.2c0.1,0.1,0.1,0.1,0.2,0.1c0.5,0.1,1.1,0,1.6,0.1c1.1,0.2,2-0.4,2.9-0.8
			c0.2,0.1,0.4,0.1,0.5,0.2c0.2,0.2,0.4-0.1,0.5,0c0-0.2,0-0.4-0.1-0.5C94.6,66.7,94.6,66.6,94.9,66.5z M73.2,56.5
			c-0.1-0.1-0.2-0.1-0.2-0.2c-0.1-0.1-0.1-0.3-0.2-0.4c0-0.2,0-0.3,0.2-0.3c0.6,0.2,0-0.4,0.2-0.4c0.1-0.2,0.2-0.5,0.4-0.7
			c0.1-0.1,0.2-0.1,0.3-0.1c-0.1-0.1-0.2-0.1-0.2-0.1c-0.5-0.6-0.7-1.2-0.6-2c0-0.1,0.1-0.2,0-0.2c-0.1,0-0.2,0.1-0.2,0.1
			c-0.2,0.1-0.5,0.2-0.6-0.1c-0.2-0.2,0-0.4,0.1-0.5c0.7-0.6,0.7-1.4,0.3-2.1c0-0.2,0-0.3,0-0.5c-0.1-0.2-0.1-0.5,0.1-0.7
			c0.1-0.1,0.3-0.2,0.5-0.4c-0.3,0.2-0.5,0.4-0.7,0.6c-0.2,0.2-0.4,0.3-0.7,0.3c-0.6,0.2-0.7-0.5-1.1-0.7c-0.4-0.6-0.8-1.1-0.7-1.9
			c0.1-0.2,0.4-0.3,0.6-0.4c0,0,0.1-0.1,0.1-0.1c0,0-0.1,0-0.1,0c-0.2,0.1-0.4,0.3-0.6,0.4c-0.7,0.3-1.2,0.1-1.6-0.5
			c-0.4-0.5-0.7-0.9-1-1.4c-0.5-0.8-0.4-1.3,0.3-1.9c-0.2-0.1-0.3,0-0.4,0.1c-0.8,0.6-1,0.6-1.7-0.1c-0.3-0.3-0.2-0.8-0.7-0.8
			c-0.4,0-0.6,0.4-0.9,0.6c-0.8,0.4-1.6,0.6-2.4,0c-0.2-0.2-0.4-0.4-0.7-0.5c-0.6,0.3-0.9,1-1.6,1.2c-1.5,0.5-2.9,1.3-4.5,1.6
			c-0.5,0.1-0.9,0.4-1,0.9c-0.4,1.5-1,3-1.1,4.6c0,0.5-0.2,0.9-0.6,1.1c1,0.6,1.9,1.4,2.6,2.3c0.5,0.6,0.9,0.7,1.6,0.5
			c0.5-0.2,1.1-0.4,1.6-0.5c0.6-0.2,0.8,0,0.9,0.6c0,0.5-0.1,0.9-0.1,1.4c0,0.3,0.1,0.5,0.3,0.7c0.2,0.4,0.5,0.3,0.7,0.3
			c0.5,0,0.8,0.3,0.7,0.8c-0.3,1.1-0.1,2.2-0.1,3.3c0,0.6-0.2,0.9-0.9,0.8c-0.6-0.1-1.3,0-2,0c-0.5,0-0.9-0.2-1.3-0.4
			c-0.2-0.1-0.5-0.2-0.7-0.3c0.1,0,0.1,0.1,0.1,0.1c0.1,0.1,0.3,0.3,0.1,0.5c-0.8,0.3-1.7-0.1-2.6,0.2c-0.1,0-0.3,0-0.3-0.1
			c-0.5-0.6-1.2-0.9-1.5-1.7c0.4-0.3,1-0.2,1.5-0.5c0.3-0.2,0.7-0.2,0.7-0.7c0-0.5-0.4-0.4-0.6-0.5c-0.1,0-0.1-0.1-0.2-0.2
			c0-0.1,0.2-0.1,0.2-0.2c-0.1,0-0.1,0-0.2,0c-0.3-0.1-0.5-0.4-0.7-0.6C51,56.1,51,56.1,51.5,55c-0.9,0.8-0.7,1.9-0.6,2.9
			c0,0.5,0,0.5-0.4,0.6c-1.5-2.4-2.6-5-2.7-7.9c-0.1-2.5,0-4.9,0.9-7.3c0.9-2.5,2.2-4.7,4-6.6c1.5-1.5,3.1-2.8,5.1-3.7
			c1.6-0.7,3.1-1.3,4.8-1.6c2.1-0.4,4.1-0.3,6.2,0.1c3.3,0.5,6,2.2,8.2,4.4c1.6,1.6,3,3.4,3.8,5.7c0.4,1.1,0.8,2.2,1,3.4
			c0.1,0.4,0.1,0.9,0,1.3c-0.2,0.2-0.3,0.3-0.1,0.6c0.2,0.4,0.1,0.8,0.3,1.2c-0.2,1.9-0.4,3.8-1.1,5.6c-0.2,0.7-1,1-1.1,1.7
			c-0.1,0.6-0.3,1.2-0.7,1.7c-0.2,0.3-0.3,0.8-0.8,0.7c-0.2,0-0.4,0.1-0.3,0.3c0.3,0.9-0.3,0.8-0.8,0.8c-0.2,0-0.4,0-0.5,0
			c-0.1,0.3,0.1,0.3,0.2,0.4c0.1,0.1,0.2,0.1,0.2,0.2c0.1,0.2-0.1,0.4-0.2,0.4c-0.6-0.1-0.3,1.5-1.2,0.7c-0.2-0.2-0.5-0.2-0.7-0.4
			c-0.2-0.1-0.5,0-0.5-0.3c0.2-0.4,0.6-0.3,1-0.4c0,0,0.1-0.1,0.1-0.1c-0.1,0-0.2,0-0.3,0c-0.3-0.1-0.7-0.1-0.7-0.5
			c0.1-0.7-0.6-1.2-0.7-1.8C73.8,56.8,73.5,56.6,73.2,56.5z"/>
	</g>
	<path fill="#020202" d="M70,46.2c0,0.7,0.4,1.3,0.7,1.8c0.3,0.3,0.5,0.6-0.1,0.8c-0.5,0-0.5-0.4-0.7-0.7c0,0,0,0-0.1-0.1
		c-0.4-0.1-2.6,0.4-2.8,0.7c-0.5,0.5-0.4,0.9,0.1,1.4c0.1,0.1,0.2,0.2,0.2,0.3c1.1,1.4,0.9,3,1,4.6c0,0.2,0,0.4-0.3,0.5
		c-0.3,0.1-0.5,0-0.7-0.2c-0.2-0.2-0.1-0.4,0-0.6c0.3-0.7-0.2-1.2-0.4-1.8c-0.1,1.3-0.2,2.6-0.2,3.9c0,0.9-0.3,1.7-0.6,2.5
		c0,0.1-0.1,0.2-0.1,0.2c-0.7,0.3-0.9,1.1-1.2,1.7c-0.8,0.5-1.2,0.4-1.5-0.5c-0.1-0.3-0.2-0.6-0.6-0.8c-0.1,0-0.2-0.1-0.2-0.2
		c0-0.7-0.5-1.4-0.2-2.2c0.1-0.2,0.4-0.1,0.5-0.2c0.2,0,0.4,0.4,0.5,0c0.1-0.3-0.1-0.6-0.3-0.6c-0.8-0.1-0.6-0.7-0.7-1.1
		c0,0,0-0.1-0.1-0.1c-0.2-0.6,0.2-1.2-0.1-1.7c0.1,0.3,0.2,0.7-0.1,1c-0.3,0.2-0.7,0-1.1,0.2c0.1,0.1,0.2,0.1,0.2,0.3
		c0,0.1-0.1,0.1-0.1,0.2c-0.3,0.1-0.5,0.1-0.8,0c-0.1,0-0.1-0.1-0.2-0.1c0-0.1,0-0.1,0-0.2c-0.4-0.1-0.7-0.1-1.1,0.1
		c-0.2,0.1-0.4,0.2-0.6,0.3c-0.1,0-0.2,0-0.3-0.1c-0.3-0.5,0.1-1,0-1.5c-0.1-0.5-0.2-0.7-0.7-0.4c-0.5,0.2-1.1,0.3-1.6,0.6
		c-0.9,0.5-1.4,0.1-1.8-0.6c-0.5-0.7-1.3-1.3-1.9-1.9c-0.3-0.3-0.9,0-1-0.3c-0.2-0.6,0.7-0.1,0.7-0.6c0-0.2,0.2-0.5,0.2-0.7
		c0-1.7,0.8-3.2,1.2-4.9c0.1-0.5,0.6-0.8,1.1-0.8c1.8-0.3,3.5-1,5.1-1.8c0.3-0.2,0.6-0.4,0.6-0.8c0.1-0.5,0.3-0.4,0.6-0.2
		c0.1,0.1,0,0.3,0,0.4c0,1-0.2,2,0.6,2.8c0.2,0.2,0,0.4,0,0.6c-0.1,0.3,0.1,0.6,0.4,0.6c0.3,0,0.3-0.3,0.3-0.5
		c0-0.7-0.1-1.2-0.6-1.7c0-0.2,0.1-0.3,0.3-0.3c0.4,0,0.8,0,1.1-0.5c-0.3-0.2-0.6,0-0.9,0c-0.6,0-1-0.3-0.8-1c0.1,0,0.2,0,0.3,0
		c0.9,0.5,1.9,0.4,2.6-0.4c0.3-0.3,0.8-0.1,1.1-0.6c-0.1,0.7,0.3,1.1,0.7,1.5c0.4,0.3,0.7,0.9,1-0.1c0-0.2,0.4-0.3,0.6-0.4
		c0.1,0,0.4,0.1,0.5,0.2c0.1,0.2-0.1,0.4-0.3,0.5c-0.6,0.4-0.7,0.9-0.3,1.5c0.3,0.4,0.7,0.8,1,1.3c0.4,0.6,0.9,0.6,1.5,0.5
		C70,45.9,70.1,46,70,46.2z"/>
	<path fill="#FFFFFF" d="M64.8,61.1c0.1-0.7,0.5-1.2,1.1-1.7c0.4-0.4,0.7-1.2,0.7-1.9c0-1.5,0.2-3,0-4.5c0-0.2,0-0.5,0.3-0.5
		c0.3-0.1,0.3,0.2,0.4,0.4c0.3,0.5,0.1,1.2,0.7,1.5c0.1,0.1,0.1,0.2-0.1,0.3c-0.2,0.1-0.4,0.3-0.5,0.5c0.4,0,0.7,0.2,1,0.4
		c-0.1-1.8,0.1-3.6-0.9-5.1c0.1-0.2-0.1-0.1-0.2-0.1c-0.4-0.2-0.8-0.3-0.6-0.9c0.2-0.7,0.7-1.3,1.3-1.2c0.6,0.1,1-0.2,1.5-0.4
		c0.3-0.1,0.5-0.2,0.8,0.1c0.2,1.2,0.2,1.3-1,1.9c0.9,0.3,0.9,1.1,0.8,1.8c0,0.3-0.1,0.6,0.2,0.9c0.1,0.1,0.2,0.3,0.2,0.5
		c-0.3,0.7,0.4,1.4,0.3,2.1c-0.1,0.4,0.5,0.5,0.7,0.8c0.2,0.2,0.3,0.4,0.2,0.7C71.3,57,71,57.1,70.6,57c-0.6-0.1-1.2-0.3-1.8-0.5
		c0.2,0.3,0.6,0.6,0.6,1c0.1,0.4,0,0.8-0.4,1c-0.2,1.1-0.6,2.1-1.3,3.1c-0.4,0.6-1,0.7-1.7,0.3c0-0.5-0.3-0.7-0.8-0.7
		C65.1,61.3,64.8,61.5,64.8,61.1z"/>
	<path fill="#FAFBFC" d="M64.8,61.1c0.2,0.2,0.4,0,0.7,0c0.5,0.1,0.7,0.3,0.6,0.8c-0.3-0.6-0.7-0.8-1.3-0.4
		c-0.5,0.4-1.1,0.1-1.7,0.1c-0.5,0-0.9-0.3-1.4-0.2C61,61.5,61,61.1,61,60.6c-0.1-1.2,0.1-2.3,0-3.5c-0.1-0.6,0.2-0.8,0.8-0.9
		c0.6-0.1,0.4,0.5,0.6,0.8c0.1,0.2-0.3,0.4,0,0.6c-0.1,0.7,0.5,1.3,0.2,2c0,0,0.1,0.1,0.1,0.2c0.2,0.2,0.8,0.7,0.8,0.9
		C63.7,61.4,64.2,61.3,64.8,61.1z"/>
	<path fill="#FAFBFC" d="M71.8,60.7c-0.3,0.7-0.8,1.3-0.9,2.1c0,0.2-0.3,0.3-0.5,0.4c-0.4,0-0.2-0.5-0.5-0.6c-0.3-0.5-0.4-1-0.4-1.5
		c0-0.8,0-1.6,0-2.4c0-0.5,0.1-0.9,0.7-0.7c0.1,0,0.2,0.1,0.3-0.1c0.4-0.5,1-0.5,1.3,0.2c0.2,0.5,0.5,0.9,0.7,1.3
		c0,0.2-0.1,0.4-0.3,0.5c-0.4,0.2-0.7-0.1-1-0.3c0.3,0.3,0.8,0.5,0.8,1C72,60.5,71.8,60.6,71.8,60.7z"/>
	<path fill="#0F1011" d="M50.5,58.6c0.2,0,0.4,0,0.3-0.3c-0.2-0.8-0.1-1.6-0.1-2.3c0-0.5,0.4-0.7,0.7-1c0.2-0.2-0.1-0.7,0.3-0.6
		c0.4,0.1-0.1,0.5,0,0.7c0.1,0.4-0.8,0.9,0,1.3c0.4,0.2,0.5,0.8,1,0.8c0,0,0.1,0.2,0.1,0.3c0,0,0.1,0.1,0,0.1c0,0,0,0.1,0,0.1
		c0,0.1,0.1,0.1,0.2,0.2c0.3,0.1,0.9-0.2,0.8,0.3c0,0.4,0,1-0.7,1.2c-0.6,0.1-1.1,0.3-1.7,0.3C50.8,59.4,50.9,58.8,50.5,58.6z"/>
	<path fill="#121313" d="M72.4,59.2c-0.1-0.1-0.3-0.3-0.5-0.4c-0.3-0.1-0.3-0.2-0.3-0.5c0.1-0.4-0.1-0.8-0.7-0.8
		c-0.6,0-0.5,0.2-0.2,0.6c-0.2,0-0.4,0.1-0.5,0c-0.8-0.5-0.8,0-0.8,0.6c0,1.3-0.1,2.6,0.3,3.8c-0.5-0.5-0.5-1.1-0.5-1.7
		c0-0.7,0-1.4,0-2.1c0-0.1-0.1-0.1-0.2-0.2c0.5-0.8,0.3-1.4-0.5-1.9c-0.2-0.1-0.2-0.3-0.1-0.5c0.1-0.2,0.3-0.1,0.4,0
		c0.6,0.3,1.1,0.5,1.7,0.6c0.4,0.1,0.6,0,0.7-0.4c0.6-0.3,1-0.2,1.4,0.5c0.2,0.4,0.3,0.9,0.5,1.4c0.3,0.8,0.3,0.8-0.5,1
		C72.6,59.4,72.5,59.3,72.4,59.2z"/>
	<path fill="#FAFBFC" d="M74.7,61.3c0.2,0.4,0,0.8-0.4,1.1c-0.7,0.6-1.6,0.9-2.5,1.1c-0.4,0.1-0.7-0.3-0.7-0.8
		c0.1-0.5,0.5-0.9,0.6-1.4c0.1-0.3,0.6-0.3,1-0.2c0.5,0.2,1,0.1,1.5,0C74.5,61,74.7,60.9,74.7,61.3z"/>
	<path fill="#F1EFEF" d="M94,63.4c0.5,0,0.5,0.4,0.3,0.6c-0.3,0.4-0.6,0.8-0.9,0.6c-1-0.1-1.6-0.3-2.4-0.4c-0.3,0-0.6-0.4-0.5-0.7
		c0.1-0.3,0.5-0.2,0.7-0.1"/>
	<path fill="#EAE9E9" d="M61.3,55.4c0-0.1,0-0.1,0-0.2c0-0.2,0.1-0.3,0.3-0.4c0.2,0,0.3,0,0.5-0.1c0.3-0.3,0-0.8,0.2-1.2
		c0.3,0.6,0.3,1.3,0.1,1.9c-0.2,0.1-0.4,0.1-0.6,0.2C61.7,55.6,61.3,55.9,61.3,55.4z"/>
	<path fill="#DFDFDE" d="M90.2,61.9c0.5-0.2,0.8-0.6,1.3-0.3c0.2,0.1,0.1,0.3,0,0.5C91,62.5,90.7,62.2,90.2,61.9z"/>
	<path fill="#E0E1E0" d="M71.8,60.7c0-0.1,0-0.3,0.1-0.3c0.6-0.4,1.2-0.2,1.8-0.2c0.1,0.1,0.3,0.1,0.2,0.3
		C73.2,60.8,72.5,60.5,71.8,60.7z"/>
	<path fill="#F6F7F8" d="M82,48.2c-0.1,0-0.3,0.1-0.2,0c0.1-0.4-0.1-0.8-0.3-1.1c-0.2-0.3-0.1-0.6,0.4-0.6C82.1,47,82,47.6,82,48.2z
		"/>
	<path fill="#080808" d="M86.8,67.6c0.3,0.2,0.7-0.1,1,0.2c0.2,0.2,0.5-0.2,0.6,0.3c-0.8,0.1-1.6,0-2.4-0.3
		C86.3,67.7,86.5,67.6,86.8,67.6z"/>
	<path fill="#272626" d="M55.6,61.1c-0.1-0.6-0.9-0.4-1.1-0.9c-0.1-0.1,0-0.2,0-0.3c0.5,0.2,1.1,0.3,1.4,0.8
		C55.9,60.9,55.8,61,55.6,61.1z"/>
	<path fill="#DFE0E0" d="M60.9,55.8c-0.7,0.2-1.4,0-2.1,0.1c0-0.1,0-0.1,0-0.2c0.3-0.1,0.5-0.1,0.8-0.2c0.2,0,0.4-0.1,0.6,0
		C60.5,55.6,60.9,55.3,60.9,55.8z"/>
	<path fill="#272626" d="M91.2,67.9c-0.8,0.4-1.7,0.2-2.5,0.1c0.1-0.4,0.4-0.2,0.6-0.1C89.9,67.9,90.5,67.9,91.2,67.9z"/>
	<path fill="#313131" d="M53.2,61.9c-0.8,0.2-1.7,0.1-2.5,0.1C51.4,61.7,52.3,61.9,53.2,61.9z"/>
	<path fill="#C4C4C4" d="M73.9,60.5c-0.1-0.1-0.1-0.1-0.2-0.2c0.1-0.4,0.4-0.5,0.8-0.3c0.2,0.1,0.3,0.2,0.5,0.3
		C74.7,60.2,74.3,60.5,73.9,60.5z"/>
	<path fill="#858585" d="M60.9,55.8c-0.2-0.1-0.4-0.1-0.7-0.2c0-0.1,0-0.2,0.2-0.2c0.3,0,0.6,0,0.9,0c0.1,0.2,0.4,0.1,0.5,0.3
		C61.5,55.7,61.2,55.8,60.9,55.8z"/>
	<path fill="#9B9999" d="M74.7,61.3c-0.1-0.2-0.3-0.1-0.5-0.2c0.1-0.1,0.3-0.1,0.4-0.2c0.2-0.1,0.5-0.2,0.5,0.1
		C75.2,61.3,74.9,61.3,74.7,61.3z"/>
	<path fill="#434242" d="M89.2,67.9c-0.2,0-0.4,0-0.6,0.1c-0.1,0-0.1,0-0.2,0c-0.2-0.2-0.5,0-0.6-0.3c0.5,0,0.9,0,1.4,0
		C89.2,67.8,89.2,67.8,89.2,67.9z"/>
	<path fill="#373636" d="M58.8,55.8c0,0,0,0.1,0,0.1c0,0.1,0,0.1,0,0.2c-0.5,0-0.4-0.4-0.5-0.6c0.1,0,0.2,0,0.3,0c0,0,0.1,0,0.1,0
		C58.7,55.5,58.8,55.6,58.8,55.8z"/>
	<path fill="#3F4040" d="M89.2,67.7c0.3-0.2,0.7-0.1,1.1-0.2C90,67.9,89.6,67.7,89.2,67.7z"/>
	<path fill="#313131" d="M49.4,62.1c-0.4,0-0.8,0.1-1.2,0.1C48.6,61.9,49,62.1,49.4,62.1z"/>
	<path fill="#3F4040" d="M90.3,67.6c0.2-0.2,0.5-0.1,0.8-0.1C90.9,67.7,90.6,67.6,90.3,67.6z"/>
	<path fill="#FFFFFF" d="M40.5,76.2c1.3-1.3,2.9-2,4.5-2.6c1.5-0.5,3-0.8,4.5-1c0.5-0.1,0.9-0.2,1.4-0.2c0.5,0,0.7,0.3,0.7,0.6
		c-0.1,1.3,0.2,2.6-0.2,4c-0.4,0-0.7-0.5-1.2-0.6c-1.5-0.5-3-0.3-4.5-0.2c-1.5,0.1-3,0.2-4.5,0.2C40.9,76.4,40.7,76.3,40.5,76.2z"/>
	<path fill="#FFFFFF" d="M47.1,76.9c0.8,0,1.8,0,2.7,0.4c0.7,0.3,0.8,0.7,0.6,1.4C50,80,49.1,80.6,47.9,81c-1.3,0.5-2.7,0.9-4.1,0.9
		c-1.3,0.1-2.6-0.3-3.8-0.9c-0.4-0.2-0.6-0.5-0.6-0.8c0-0.4,0.3-0.7,0.7-0.9c0.6-0.2,1.2-0.3,1.8-0.4c0.5,0,0.6,0.1,0.4,0.5
		c0,0.1-0.1,0.2-0.1,0.4c-0.4,1-0.2,1.3,0.9,1.1c0.6-0.1,1.3-0.1,1.9-0.5c0.7-0.5,0.8-1,0.5-1.7c-0.1-0.3-0.3-0.5-0.4-0.7
		c-0.6-0.9-0.5-1.1,0.6-1.1C46.1,76.9,46.5,76.9,47.1,76.9z"/>
	<path fill="#F5F6F4" d="M40,78.8c-0.2-0.2,0-0.3,0-0.4c0.2-1.3,0.2-1.3,1.5-1.3c0.6,0,1.2,0,1.7,0c0.3,0,0.6,0.1,0.7,0.6
		c0.1,0.5,0.2,0.8-0.6,0.6C42.3,77.9,41.1,78.3,40,78.8z"/>
	<path fill="#CFCFCE" d="M43.1,79.6C43,79.3,43,79,43.3,79c0.3,0.1,0.8,0,0.8,0.5c0,0.3-0.4,0.4-0.7,0.5C42.9,80,43,79.8,43.1,79.6z
		"/>
	<path fill="#020202" d="M100.3,41.8c-1.3-2.3-4.3-3-6.6-2.6c-0.9,0.1-1.5,0.7-2.3,1c-0.2-0.1-0.4-0.1-0.3,0.2
		c0.3,1.1,0.7,2.1,0.8,3.2c0.1,0.9,0.1,1.7,0.3,2.5c0.2,1.1,0.3,2.3,0.3,3.4c0,0.2-0.1,0.9,0.6,0.7c0.3-0.1,0.6,0.1,0.8,0.1
		c2.8,0.6,5.5-0.6,6.8-3.3C101.6,45.2,101.2,43.4,100.3,41.8z M95.1,46.4c-0.7,0-1.7-1-1.7-1.7c0-1,0.8-1.7,1.8-1.7
		c1.2-0.1,1.9,0.9,1.9,1.7C97.1,45.5,96.3,46.4,95.1,46.4z"/>
	<g>
		<path fill="#080808" d="M40.3,57.9C40.3,57.9,40.3,57.9,40.3,57.9C40.2,57.9,40.2,57.9,40.3,57.9L40.3,57.9z"/>
		<path fill="#080808" d="M44.8,53.7c-0.5-0.2-1-0.1-1.5-0.1c-0.4,0-0.7-0.1-0.7-0.5c0-1-0.7-1.2-1.4-1.5c-0.8-0.3-1.3,0.4-1.9,0.5
			c-0.3,0,0,0.5-0.1,0.8c-0.2,0.4,0,0.9-0.7,1c-0.6,0.1-0.9-0.2-1.2-0.6c-0.9-1.3-3.1-1.6-4.3-0.6c-0.1,0.1-0.3,0.2-0.2,0.4
			c0.5,0.7,0.9,1.4,1.8,1.4c0.2,0.1,0.4,0,0.5-0.2c0-0.4-0.3-0.5-0.5-0.8c-0.2-0.2-0.4-0.4-0.2-0.7c0.2-0.2,0.5-0.1,0.7,0
			c0.7,0.3,1,0.9,1.3,1.5c0.1,0.1,0.2,0.2,0.3,0.3c0.2,0.5,0.4,1,0.8,1.4c0.5,0.5,0.5,1.4,1.3,1.5c0.5,0.1,1,0.2,1.4,0.4
			c0.3-0.5,0.7-0.7,1.2-0.5c0.2,0.1,0.2,0,0.2-0.1c-0.1-0.4,0.2-0.7,0.4-0.9c0.6-0.4,0.7-0.9,0.7-1.6c0-0.5,0.2-0.9,0.9-0.8
			c0.3,0,0.7,0.1,1-0.2C44.8,53.9,44.8,53.9,44.8,53.7z M42.3,54.8c-0.1,1-0.7,1.5-1.4,2c-0.7,0.4-2.3-0.4-2.6-1.3
			c-0.1-0.2-0.1-0.4-0.1-0.6c-0.1-0.3,0.1-0.5,0.4-0.6c0.3-0.1,0.4,0,0.5,0.3c0.1,0.3,0.2,0.5,0.4,0.8c0.2,0.5,1.4,0.8,1.8,0.5
			c0.3-0.2,0.5-0.5,0.2-1c-0.3-0.4-0.2-0.6,0.3-0.6C42.2,54.2,42.4,54.3,42.3,54.8z"/>
	</g>
	<path fill="#EDEBEA" d="M40.6,53.8c-0.2-0.2-0.6,0-0.5-0.4c0-0.3,0.3-0.6,0.6-0.6c0.2,0,0.5,0.3,0.6-0.2c0.1-0.3,0.5,0.1,0.8,0.1
		c0.3,0.1,0.2,0.4,0.2,0.6c0,0.3-0.3,0.4-0.6,0.4C41.3,53.6,40.9,53.5,40.6,53.8z"/>
	<path fill="#E4E4E3" d="M41.2,54.6c0,0.4,0,0.8-0.4,0.7c-0.4-0.1-0.8-0.2-0.9-0.7c0-0.4,0.4-0.4,0.6-0.4
		C40.8,54.1,41.3,54.1,41.2,54.6z"/>
	<path fill="#F3F1F1" d="M78.2,26.1c-0.5,0.5-1.1,0.3-1.6,0.1c-0.4-0.1-0.9-0.4-1.3-0.6c-0.2-0.1-0.5,0-0.7-0.1
		c-0.4-0.6,0.5-0.7,0.5-1.1c0.6,0.2,1.3,0.4,1.8,0.8c0.1,0.2,0.3,0,0.5,0.1c0.2,0.1,0.5,0.1,0.7,0.2C78.3,25.6,78.3,25.9,78.2,26.1z
		"/>
	<path fill="#E6E5E5" d="M78.2,26.1c0-0.2-0.2-0.4,0-0.6c-0.2-0.3-0.5-0.2-0.8-0.2c-0.2,0-0.4,0-0.5-0.2c0.1,0,0.3,0.1,0.3-0.2
		c0-0.6,0.5-0.7,0.9-0.7c0.6,0,0.8,0.4,1,0.9c0.1,0.3-0.2,0.4-0.4,0.4c-0.4,0-0.4,0.2-0.4,0.4C78.3,26.1,78.2,26.1,78.2,26.1z"/>
	<path fill="#2B2C2B" d="M62.1,24.4c-0.2,0-0.4-0.1-0.6-0.1c0,0,0-0.1,0-0.1c0.3-0.3,0.6-0.1,0.9-0.2C62.3,24.2,62.2,24.3,62.1,24.4
		z"/>
	<path fill="#E0DEDE" d="M71.1,26.1L71.1,26.1c0,0-0.1,0-0.1,0c-0.1-0.2-0.4-0.3-0.3-0.6c0.4,0,0.5-0.5,0.9-0.4
		c0.5-0.2,0.7,0.3,1.1,0.3c0.1,0,0.1,0.1,0.1,0.1c0,0,0,0-0.1,0c-0.1,0.2-0.8-0.1-0.4,0.5c0.2,0.2-0.2,0.3-0.3,0.2
		C71.7,26.2,71.4,26,71.1,26.1z"/>
	<path fill="#D3D1D0" d="M72.7,23.6c0,0.3-0.2,0.2-0.4,0.3c-0.2,0.2-0.3,0.5-0.6,0.4c0,0-0.1-0.2-0.1-0.3c0.2-0.3,0.3-0.6,0.7-0.6
		C72.5,23.5,72.6,23.4,72.7,23.6z"/>
	<path fill="#FAFBFC" d="M73.2,24.6c-0.3,0.2-0.6,0.2-0.8,0.1c0,0,0-0.2,0.1-0.3C72.8,24.1,72.9,24.5,73.2,24.6z"/>
	<path fill="#3E3F3F" d="M74.6,25.5c0.2,0,0.5-0.1,0.7,0.1c-0.2,0-0.4,0-0.6,0.2c-0.1,0-0.3,0-0.3-0.2
		C74.5,25.6,74.5,25.5,74.6,25.5z"/>
	<path fill="#C0BFBF" d="M72.7,25.5c0,0,0-0.1,0-0.1c0.1,0,0.2-0.2,0.4-0.1c0,0,0.1,0.1,0.1,0.2C73,25.6,72.8,25.5,72.7,25.5z"/>
	<path fill="#EFEEEE" d="M67.1,22.4c-0.3,0-0.6,0-0.8,0c-0.1-0.3,0.1-0.5,0.4-0.5C67,21.9,67,22.2,67.1,22.4z"/>
	<path fill="#D5D4D3" d="M89.7,50.9c0.3-0.3,0.6-0.1,0.9-0.1c0,0.2,0.1,0.5-0.1,0.6C90.2,51.3,89.9,51.1,89.7,50.9z"/>
	<path fill="#C8C5C5" d="M85.6,51.6c0.4-0.2,0.7-0.1,1.1-0.1c0,0.8-0.7,0.5-1.1,0.6C85.5,51.9,85.4,51.8,85.6,51.6z"/>
	<path fill="#F5F6F6" d="M40.5,45.8c0.3-0.2,0.6-0.2,0.8-0.1c0.1,0,0,0.2-0.1,0.3C40.9,46.2,40.7,46,40.5,45.8z"/>
	<path fill="#383738" d="M76.6,30.3c0.4-0.3,0.9-0.1,1.3-0.2C77.5,30.5,77,30.3,76.6,30.3z"/>
	<path fill="#CECBCB" d="M88.8,37.4c0.3-0.1,0.6-0.1,0.5,0.4c-0.2,0-0.4,0.2-0.6,0C88.5,37.6,88.7,37.5,88.8,37.4z"/>
	<path fill="#070707" d="M77.7,72.1c0.1,0.9-0.3,1.6-0.7,2.4c-0.4,0.8-1.5,1-2.4,0.6c-1-0.4-1.6-1.3-1.9-2.3
		c-0.4-1.1-0.4-2.3-0.2-3.4c0.2-0.9,0.7-1.6,1.6-1.7c1-0.2,1.8,0.3,2.5,1C77.7,69.6,77.6,70.9,77.7,72.1z"/>
	<path fill="#070707" d="M50.3,66.5c0.1-0.5,0.2-1,0.2-1.5c0-0.3,0.1-0.6,0.1-0.8c0.1-0.5,0.5-0.4,0.7-0.3c0.5,0.1,0.1,0.3,0.1,0.5
		c0.1,1.5-0.5,2.8-0.4,4.3c0,0.4,0.2,1.1-0.3,1.1c-0.5,0.1-0.9-0.5-1-1c-0.2-0.6-0.3-1.3-0.7-2c-0.3,0.7-0.4,1.3-0.2,1.9
		c0.1,0.4,0,0.8,0,1.2c0,0.5-0.4,0.5-0.7,0.5c-0.4,0-0.5-0.5-0.4-0.7c0.5-1.6,0.3-3.2,0.4-4.8c0-0.3-0.1-0.8,0.5-0.8
		c0.5,0,0.9,0.1,1,0.7c0.2,0.6,0.3,1.1,0.5,1.7C50.1,66.5,50.2,66.5,50.3,66.5z"/>
	<path fill="#0A0A0B" d="M81.2,72.2c0.1,0.9,0.1,1.6,0.4,2.2c0.4,0.7,0.9,1.1,1.7,1.1c0.4,0,1-0.1,1,0.4c0,0.5-0.4,0.8-1.1,0.8
		c-1.7,0-2.3-1.1-2.7-2.9c-0.2-0.9-0.3-1.8,0-2.6c0.5-1.7,1.5-2.7,3.4-2.1c0.6,0.2,0.6,0.7,0.4,1.1c-0.1,0.4-0.5,0.2-0.8,0.1
		c-0.7-0.4-1.3,0-1.7,0.5C81.5,71.3,81.1,71.8,81.2,72.2z"/>
	<path fill="#0A0A0A" d="M58.6,67.3c-0.1-2.4,1.4-3.1,3.4-2.9c0.4,0,0.9,0.2,0.7,0.8c-0.1,0.3-0.2,0.4-0.6,0.3
		c-1.9-0.5-2.8,0.3-2.6,2.2c0.1,0.8,0.3,1.6,1.1,1.9c0.5,0.2,0.7,0.1,0.8-0.5c0.2-0.7-0.4-1.1-0.4-1.7c0-0.4,0.1-0.5,0.4-0.5
		c0.3,0,0.8,0,0.7,0.5c-0.1,1.1-0.2,2.2-0.3,3.2c0,0.3-0.4,0.3-0.7,0.3c-1.2-0.1-2.6-1.9-2.6-3.1C58.6,67.7,58.6,67.5,58.6,67.3z"/>
	<path fill="#090909" d="M56.5,69.2c-0.3,0-0.6,0-0.6,0.4c0,0.4-0.3,0.5-0.6,0.4c-0.3-0.1-0.5-0.2-0.4-0.6c0.5-1.7,0.8-3.5,1.4-5.2
		c0.1-0.3,0.2-0.3,0.4-0.3c0.2,0,0.3,0.1,0.4,0.3c0.5,0.9,0.4,1.9,0.4,2.9c0,0.9,0.4,1.7,0.5,2.5c0.1,0.3,0.3,0.6-0.2,0.7
		c-0.4,0.1-0.7-0.1-0.7-0.5C57.2,69.3,56.9,69.2,56.5,69.2z"/>
	<path fill="#090A0A" d="M70.4,70.7c0.3-1.1,0.6-2.1,0.8-3.2c0.1-0.5,0.3-0.8,0.8-0.6c0.6,0.2,0.2,0.5,0.1,0.9
		c-0.4,1.3-0.8,2.6-1.1,4c-0.1,0.6-0.3,1.2-0.5,1.8c0,0.2-0.1,0.3-0.3,0.2c-0.3-0.1-0.5-0.2-0.5-0.5c-0.1-0.9-0.3-1.7-0.4-2.6
		c-0.3-1.4-0.2-2.8-0.7-4.1c-0.1-0.2-0.1-0.4,0.2-0.4c0.3,0,0.6,0.1,0.7,0.4c0.2,1,0.3,2,0.5,3.1C70,70,70,70.4,70.4,70.7z"/>
	<path fill="#080808" d="M86.4,69.4c0.2,0,0.4,0,0.6,0c0.3,0,0.7-0.1,0.6,0.4c0,0.3-0.1,0.7-0.6,0.7c-1.1,0-1.2,0.3-1,1.4
		c0.1,0.7,0.5,0.6,1,0.6c0.3,0,0.7-0.1,0.7,0.5c0,0.4,0.1,0.8-0.6,0.8c-0.6,0-1.2,0.1-1.1,1c0.1,0.6,0,1.1,0.9,0.9
		c0.4-0.1,0.7,0,0.7,0.5c0,0.4-0.1,0.6-0.5,0.6c-0.1,0-0.2,0-0.2,0C85,77.1,84.8,77,85,75.5c0.1-1.6,0.1-3.2,0.2-4.8
		C85.1,69.4,85.1,69.4,86.4,69.4z"/>
	<path fill="#080808" d="M43,67.9c0,0.4,0,0.8,0.2,1.2c0.1,0.1,0.1,0.2,0.2,0.3c0.2,0,0.2-0.1,0.2-0.3c0.4-0.7,0.5-1.4,0.6-2.2
		c0.1-0.6,0.4-1,0.5-1.5c0-0.2,0.3-0.4,0.5-0.5c0.2-0.1,0.4-0.1,0.6,0c0.2,0.1,0,0.3,0,0.5c-0.9,2-1.5,4-2,6.1
		c-0.1,0.3-0.3,0.6-0.7,0.7c-0.3,0-0.3-0.4-0.3-0.6c-0.4-1-0.5-2.1-0.7-3.2c-0.1-0.5-0.2-0.9-0.4-1.3c-0.2-0.4,0-0.6,0.3-0.7
		c0.3,0,0.8-0.3,0.9,0.3C43,67.1,43,67.5,43,67.9z"/>
	<path fill="#090A0A" d="M63.7,70c-0.2,0.6,0.4,0.7,0.8,0.7c0.8,0.1,0.8,0.5,0.5,1c0,0.1-0.1,0.2-0.2,0.2c-0.6-0.2-1.3-0.3-1.9-0.6
		c-0.4-0.2-0.1-0.7-0.1-1.1c0.2-1.5,0.4-3.1,0.4-4.6c0-0.9,0.2-1,1.1-0.8c0.3,0.1,0.7,0.2,1,0.2c0.3,0.1,0.5,0.2,0.5,0.6
		c-0.1,0.4-0.3,0.3-0.6,0.4c-0.3,0-0.7-0.3-0.9,0c-0.2,0.4-0.2,0.8-0.3,1.3c0,0.2,0.1,0.4,0.4,0.4c0.3,0.1,0.6,0.2,0.8,0.3
		c0.3,0.2,0.3,0.4,0.1,0.7c-0.1,0.3-0.3,0.3-0.5,0.2C63.8,68.8,63.7,69,63.7,70z"/>
	<path fill="#0E0E0E" d="M53.3,67.1c0-0.9-0.1-1.5,0.1-2.2c0.1-0.4,0-0.6-0.5-0.4c-0.2,0.1-0.7,0.2-0.7-0.3c0-0.4,0.2-0.5,0.6-0.6
		c0.8-0.1,1.6-0.2,2.5,0c0.3,0.1,0.4,0.1,0.4,0.4c0,0.3-0.1,0.5-0.4,0.6c-0.3,0.1-0.7-0.3-0.8,0.1c-0.1,0.5-0.3,1-0.3,1.5
		c0,1-0.1,2,0,2.9c0,0.3-0.1,0.7-0.6,0.7c-0.4,0-0.5-0.3-0.5-0.7C53.2,68.4,53.2,67.7,53.3,67.1z"/>
	<path fill="#0E0E0E" d="M90.4,73.5c0,1-0.2,1.9-1,2.6c-0.3,0.2-0.6,0.2-0.9,0.1c-0.2-0.1-0.3-0.2-0.3-0.5c0-0.4,0-0.6,0.5-0.6
		c0.7,0.1,0.9-0.4,1-0.8c0.1-0.5,0.1-1-0.5-1.3c-1-0.5-1-1.4-0.8-2.3c0.1-0.8,0.6-1.4,1.5-1.6c0.3-0.1,0.5-0.1,0.6,0.3
		c0,0.3,0.1,0.7-0.4,0.7c-0.5,0-0.8,0.3-0.9,0.7c-0.1,0.5-0.1,0.9,0.5,1.2C90.3,72.3,90.3,72.9,90.4,73.5z"/>
	<path fill="#101111" d="M78.5,74.7c0.1-1.8-0.1-3.8,0.2-5.8c0-0.2-0.1-0.6,0.4-0.5c0.4,0,0.6,0.1,0.6,0.5c-0.3,2.3-0.2,4.5-0.2,6.8
		c0,0.3-0.1,0.4-0.4,0.4c-0.3,0-0.5-0.1-0.5-0.4C78.5,75.4,78.5,75.1,78.5,74.7z"/>
	<path fill="#090909" d="M46.1,70.3c0.3-1.8,0.3-3.6,0.4-5.4c0-0.4,0.8-0.7,1.1-0.5c0.1,0.1,0.2,0.1,0.1,0.3
		c-0.7,1.8-0.6,3.6-0.6,5.5c0,0.2,0.1,0.5-0.2,0.6c-0.2,0.1-0.4,0.3-0.7,0.2C46,70.7,46,70.5,46.1,70.3z"/>
	<path fill="#353635" d="M96.6,63.4c-0.2,0-0.4,0-0.4-0.3c0-0.3,0.1-0.5,0.4-0.5c0.2,0,0.4,0.2,0.4,0.4C97,63.3,96.9,63.4,96.6,63.4
		z"/>
	<path fill="#040404" d="M75.7,46.3c-0.1,0.4,0.3,0.1,0.4,0.3c-0.3,0.1-0.6,0.2-0.9-0.1c-0.2-0.2-0.6-0.3-0.9-0.3
		c-0.7,0.1-1-0.4-1.3-0.8c-0.4-0.7-0.8-1.4-0.9-2.2c0-0.3-0.2-0.3-0.3-0.4c-0.3-0.2-0.6-0.4-0.6-0.7c0-0.3,0.5-0.3,0.9-0.5
		c-0.8-0.1-0.9-0.6-0.8-1.1c0-0.2-0.1-0.4-0.3-0.5c-0.2-0.1-0.3-0.2-0.3-0.4c-0.1-0.3,0.4-0.8,0-0.8c-0.6,0-1.3-0.4-1.8,0.2
		c-0.4,0.5-1,0.6-1.5,0.8c-0.6,0.2-0.8,0.7-0.3,1.2c0.1,0.1,0.3,0.1,0.1,0.3c-0.2,0.1-0.4,0.2-0.5,0c-0.1-0.5-0.5-0.6-0.8-0.6
		c-0.9-0.1-0.8-0.6-0.7-1.3c0.6,0.8,0.9,0.3,1.2-0.2c0.3-0.3-0.1-0.3-0.2-0.4c-0.2-0.5,0.3-0.6,0.6-0.9c-1.1-0.2-1.3-0.5-1.2-1.5
		c0.1-0.6-0.1-1.2,0-1.8c0-0.2,0.1-0.5,0.3-0.5c0.3,0,0.3,0.3,0.3,0.5c0.3,0.8,0.2,1.6,0.1,2.3c-0.1,0.6,0.1,0.6,0.5,0.5
		c0.4-0.2,0.9-0.2,1.3-0.6c0.3-0.3,0.7-0.5,1.3-0.4c-0.2,0.6-0.6,0.9-1.2,1.1c0.3,0.3,0.5,0.6,1,0.2c0.2-0.2,0.5-0.1,0.5,0.3
		c0,0.1-0.1,0.2,0,0.3c0.1,0,0.1,0,0.2,0c0.2-0.4,0.3-0.9,0-1.3c-0.2-0.3,0-0.5,0.3-0.4c1.2,0.1,2.1,0.9,2.4,2.1
		c0.1,0.5,0.6,0.8,0.9,1.3c0.5,0.9,0.9,1.8,1.8,2.3c-0.3,0.3-0.7,0-1,0.3c0.7-0.1,1,0.8,1.7,0.4c0.1-0.1,0.2,0.2,0.2,0.3
		c0.2,0.8,0.3,1.5-0.2,2.2c-0.3,0.4-0.1,0.5,0.3,0.6C76.2,46.4,75.7,46.1,75.7,46.3z"/>
	<path fill="#FAFBFC" d="M73,58.4c-0.3-0.3-0.4-0.7-0.5-1.1c-0.2-0.7-0.7-1-1.3-0.8c0.2-0.2-0.1-0.3-0.1-0.5c0.2-0.2,0.1-0.3,0-0.5
		c-0.2-0.2-0.3-0.4-0.2-0.7c0.3-0.6-0.7-0.7-0.5-1.3c0.2-0.5,0.3-0.9-0.2-1.3c-0.2-0.2-0.1-0.4-0.1-0.6c0.1-0.6,0.3-1.2-0.2-1.8
		c-0.2-0.2,0.1-0.5,0.3-0.7c0.2-0.1,0.4-0.1,0.6-0.2c0.3-0.1,0.5-0.1,0.8-0.1c0.3,0,0.7,0,1,0.1c0.2,0.1,0,0.2,0,0.3
		c-0.7,1.1-0.7,2.4-0.5,3.6c0.2,0.9,0.3,1.8,0.5,2.8c0,0.3,0.1,0.4,0.3,0.6c0.1,0.1,0.1,0.1,0.2,0.2c0.5,0.7,0.7,1.6,1.1,2.4
		c0.1,0.2,0.2,0.5-0.1,0.6c-0.3,0.1-0.5,0-0.7-0.2C73.3,59,73.2,58.7,73,58.4z"/>
	<path fill="#111111" d="M72.5,55.9c-0.2-1-0.2-2-0.6-2.9c-0.2-0.5-0.1-1.1-0.1-1.6c0-0.4,0.3-0.7,0-1.2c-0.2-0.2,0.3-0.7,0.7-0.8
		c0.7,1.2,0.7,1.5-0.3,2.4c-0.1,0.1-0.2,0.2-0.1,0.3c0.2,0.1,0.4,0.2,0.6-0.1c0.2-0.2,0.4,0,0.5,0.2c-0.1,0.7-0.1,1.4,0.5,2
		c0.1,0.2-0.1,0.2-0.2,0.3c0,0.3-0.1,0.5-0.3,0.6c-0.2,0.1,0.1,0.5-0.3,0.5c-0.2,0-0.1,0.2-0.1,0.3C72.7,56,72.6,56,72.5,55.9z"/>
	<path fill="#131313" d="M60.5,34.5c0,0.6-0.7,1.1-0.2,1.9c0.2,0.3,0.3,0.3,0.6,0.2c0.3-0.2,0.6-0.5,1.1-0.2
		c0.3,0.2,1.1,0.2,0.2,0.7c-0.2,0.1-0.1,0.2-0.1,0.3c0,0.2,0.1,0.5-0.1,0.5c-0.3,0-0.6,0.2-0.8-0.2c-0.2-0.3-0.5-0.5-0.8-0.3
		c-0.4,0.2-0.3,0.7-0.2,1.1c0.1,0.3,0.5,0.7,0.1,0.9c-0.4,0.2-0.4-0.4-0.5-0.7c-0.1-0.2-0.2-0.3-0.3-0.4c-0.3-0.3-0.4-0.5,0-0.8
		c0.6-0.4,0.1-1,0.1-1.5c-0.1-0.8,0.2-1.4,0.9-1.6C60.5,34.3,60.6,34.3,60.5,34.5z"/>
	<path fill="#1A1A1A" d="M73,58.4c0.2,0.1,0.3,0.3,0.4,0.6c0.1,0.4,0.4,0.5,0.8,0.3c-0.3-1-0.8-1.9-1-2.9c0.4,0,1-0.3,0.8,0.6
		c0,0.2,0.2,0.8,0.7,0.9c0.2,0,0.1,0.1,0.1,0.2c-0.3,1-0.2,1,0.6,1.3c0,0.2,0.4,0.1,0.3,0.4c-0.3,0.3-0.8-0.1-1.1,0.3
		c-0.3-0.1-0.6,0.1-0.8,0.3c-0.6,0-1.2,0-1.9,0c-0.3-0.5-0.9-0.7-1.3-1.2c0.7-0.4,0.9,0.6,1.4,0.4c0.1,0,0.2,0,0.4,0.1
		c0.5,0.2,0.3-0.1,0.2-0.4C73.6,59.3,72.9,58.7,73,58.4z"/>
	<path fill="#121313" d="M76.8,50.4c0.4-0.9,0.7-1.9,1.1-2.8c0.1-0.2,0.2-0.3,0.4-0.5c0.1-0.1,0.3-0.2,0.4-0.1c0.2,0.1,0,0.2,0,0.3
		c-0.3,1.4-0.8,2.7-1.3,4C77.2,52,77,52,76.6,51.7C76.3,51.2,76.4,50.8,76.8,50.4z"/>
	<path fill="#191919" d="M76.3,56.2c-0.9,0.4-1.6-0.3-2.3-0.6c-0.2-0.1-0.2-0.5,0-0.5c0.4-0.1,0.9-0.6,1.4-0.1
		c0.3,0.3,0.9,0.1,1.1,0.6C76.6,55.8,76.5,56.1,76.3,56.2z"/>
	<path fill="#1E1F1E" d="M62.2,34.1c0.3-0.4,0.7-0.5,1-0.8c0.2-0.2,2.2-0.2,2.4,0c0.1,0.2,0.2,0.4-0.1,0.6c-0.3,0.1-0.6,0.3-0.8,0.3
		C63.8,33.9,63,34.1,62.2,34.1z"/>
	<path fill="#1C1E1D" d="M68.6,43.2c0.4,0.1,1,0.2,0.8,0.7c-0.1,0.5,0.3,1.2-0.6,1.3c-0.1,0-1-1.2-1-1.4
		C67.9,43.2,68.3,43.3,68.6,43.2z"/>
	<path fill="#282828" d="M75.8,50.7c-0.2-0.4-0.4-0.7-0.3-1.2c0.1-0.4-0.1-0.7-0.5-1c0.8-0.3,0.8-0.3,1,0.4c0,0.2,0.3,0.2,0.4,0.3
		c0.2,0.3,0,0.5,0,0.8c0,0.1,0,0.1,0,0.2c0.1,0.3,0.1,0.6-0.2,0.8C76.1,51.1,76,50.9,75.8,50.7z"/>
	<path fill="#323333" d="M62.3,40.6c-0.1-0.2-0.3-0.4-0.5-0.7c0.7,0,1.3,0,2,0c0.2,0,0.2,0.2,0.1,0.3c-0.1,0.1-0.3,0.3-0.5,0.4
		C63,40.9,62.7,40.9,62.3,40.6z"/>
	<path fill="#373838" d="M79.6,52.3c0.3-0.5,0-1,0.3-1.5c0.2,0.9,0.5,1.8,0.2,2.8c-0.1,0.1-0.2,0.1-0.3,0c-0.1-0.3,0.1-0.9-0.5-1
		C79.2,52.3,79.6,52.4,79.6,52.3z"/>
	<path fill="#232323" d="M63.8,37.2c-0.1-0.1-0.3-0.1-0.3-0.2c0.1-0.5,0.5-0.6,1-0.5c0.4,0.1,0.8,0.2,0.5,0.7
		C64.6,37.3,64.2,37.4,63.8,37.2z"/>
	<path fill="#2F302F" d="M52,52.9c0.1,0.3,0,0.6,0.2,0.9c0.1,0.1,0.2,0.3,0,0.4c-0.2,0.1-0.4,0-0.6,0c-0.1,0-0.3-0.2-0.2-0.4
		C51.6,53.4,51.5,53,52,52.9z"/>
	<path fill="#353635" d="M60.5,34.5c0,0-0.1-0.1-0.1-0.1c0.2-0.3,0.5-0.4,0.7-0.5c0.4-0.2,0.6,0.2,0.6,0.3c0.1,0.3-0.3,0.3-0.4,0.4
		C61.1,34.6,60.8,34.5,60.5,34.5z"/>
	<path fill="#363736" d="M52.7,55.2c0.3,0.1,0.3-0.5,0.5-0.2c0.3,0.3,0.1,0.7,0.3,1.1c0,0.1-0.3,0.1-0.4,0.1
		c-0.2-0.2-0.5-0.3-0.5-0.6C52.6,55.4,52.6,55.3,52.7,55.2z"/>
	<path fill="#E4E4E3" d="M75.8,50.7c0.8,0.7,0.3-0.4,0.6-0.5c0.1,0.1,0.2,0.1,0.3,0.2c0,0.4-0.1,0.8-0.1,1.3
		C76.2,51.5,76,51.1,75.8,50.7z"/>
	<path fill="#353635" d="M76.8,54.5c-0.4-0.2-0.7-0.3-0.6-0.7c0-0.2,0.5-0.3,0.6-0.2C77.2,53.8,76.7,54.1,76.8,54.5z"/>
	<path fill="#363736" d="M76.3,56.2c-0.1-0.2,0-0.4,0.2-0.6c0.5,0.3,1,0.5,0.3,1.1c0,0.1-0.1,0.1-0.1,0
		C76.4,56.6,76.3,56.4,76.3,56.2z"/>
	<path fill="#535353" d="M79.8,53.5c0.1,0,0.2,0,0.3,0c0,0,0,0.1,0,0.1c-0.1,0.3,0.3,0.6,0,0.9c-0.3,0.2-0.5-0.2-0.9-0.3
		C79.5,54,79.8,53.9,79.8,53.5z"/>
	<path fill="#2E2F2E" d="M64.7,37.4c0.2,0.3,0.1,0.5-0.1,0.7c-0.2,0.2-0.4,0-0.6-0.1c-0.4-0.2,0-0.4,0-0.6
		C64.2,37.3,64.4,37.3,64.7,37.4z"/>
	<path fill="#3F4040" d="M76.6,56.7c0,0,0.1,0,0.1,0c0,0.3,0,0.6,0.2,0.8c0.3,0.3,0,0.4-0.2,0.5c-0.3,0.1-0.2-0.2-0.3-0.3
		C76.3,57.3,76,57,76.6,56.7z"/>
	<path fill="#5A5A5A" d="M53.1,56.5c0.2,0.1,0.6-0.1,0.8,0.2c0.1,0.1,0,0.3-0.1,0.3c-0.3,0.2-0.6,0-0.8-0.2c-0.1,0-0.1-0.1-0.2-0.2
		C52.8,56.4,52.9,56.4,53.1,56.5z"/>
	<path fill="#FAFBFC" d="M70.7,48.7c0.4-0.2,0-0.4,0.1-0.6c0.2-0.1,0.5-0.1,0.4,0.1c-0.1,0.6,0.4,0.4,0.6,0.6c0,0.1,0,0.1,0,0.2
		c-0.3,0.2-0.6,0.1-0.9,0.2c-0.2,0-0.3-0.1-0.3-0.2C70.6,48.7,70.6,48.7,70.7,48.7z"/>
	<path fill="#383938" d="M71.7,48.8c0,0,0-0.1,0-0.1c0.3,0.1,0.4-0.3,0.6-0.3c0.1-0.1,0.3-0.1,0.4,0c-0.2,0.2-0.1,0.4-0.1,0.6
		c-0.3,0.4-0.6,0-0.9,0C71.7,49,71.7,48.9,71.7,48.8C71.7,48.8,71.7,48.8,71.7,48.8z"/>
	<path fill="#464646" d="M72.8,48.4c-0.1,0-0.3,0-0.4,0c0.4-0.3,0.6-0.9,1.4-0.6C73.4,48,73.1,48.2,72.8,48.4z"/>
	<path fill="#070707" d="M63.5,41.1c-0.4,0.5-0.8,0.3-1.3,0.2c0-0.4,0.4-0.3,0.6-0.4C63.1,40.8,63.4,40.9,63.5,41.1z"/>
	<path fill="#454646" d="M78.3,45.8c0.4,0,0.4,0.4,0.5,0.6c0.1,0.1-0.1,0.2-0.2,0.2c-0.3-0.2-0.5-0.3-0.6-0.6
		C78,45.8,78.2,45.8,78.3,45.8z"/>
	<path fill="#474848" d="M69.8,41.3c0,0.3-0.2,0.4-0.5,0.4c-0.1,0-0.3,0-0.3-0.2c0-0.3,0.2-0.4,0.4-0.5C69.6,41,69.8,41.1,69.8,41.3
		z"/>
	<path fill="#AAA9A8" d="M63.5,41.1c-0.2,0-0.4,0-0.6-0.1c-0.3,0.1-0.6,0-0.8,0.1c-0.3-0.3,0-0.3,0.2-0.4c0.4-0.1,0.7-0.1,1.1,0
		C63.5,40.8,63.6,40.9,63.5,41.1z"/>
	<path fill="#3D3E3E" d="M70,46.2C70,46.1,69.9,46,69.8,46c0.2-0.2,0.4-0.4,0.6-0.5c0.3,0,0.3,0.2,0.2,0.4
		C70.4,46,70.2,46.1,70,46.2z"/>
	<path fill="#1F2020" d="M78.3,51.3C78.1,51.3,78,51.2,78,51c0-0.1,0-0.3,0.2-0.3c0.2,0,0.4,0.2,0.4,0.4
		C78.7,51.3,78.5,51.3,78.3,51.3z"/>
	<path fill="#242424" d="M59.6,39.7c0.2,0.1,0.4,0.3,0.6,0.4c-0.5,0.8-0.6-0.2-1-0.2C59.3,39.5,59.4,39.6,59.6,39.7z"/>
	<path fill="#818081" d="M64.7,37.4c-0.2,0-0.4,0-0.7,0c-0.1-0.1-0.1-0.2-0.2-0.3c0.4,0,0.8,0,1.1,0C64.9,37.3,64.8,37.4,64.7,37.4z
		"/>
	<path fill="#5E5E5E" d="M74.8,57.1c-0.2,0-0.3,0-0.4-0.2c0-0.1,0.1-0.3,0.2-0.3c0.2,0,0.4,0.1,0.4,0.3
		C75.1,57.1,74.9,57.1,74.8,57.1z"/>
	<path fill="#3B3C3B" d="M62.9,39c0,0.1,0,0.2-0.2,0.3c-0.1,0-0.3,0-0.4-0.2c0-0.2,0.1-0.3,0.2-0.3C62.8,38.7,62.9,38.8,62.9,39z"/>
	<path fill="#3D3D3D" d="M79.6,52.3c-0.1,0.1-0.2,0.2-0.3,0.3c-0.2-0.1-0.5-0.1-0.6-0.4C79,52,79.3,52.5,79.6,52.3z"/>
	<path fill="#7B7C7C" d="M73,55.6c0.3,0,0-0.5,0.3-0.5c-0.2,0.4,0.3,0.5,0.4,0.7C73.4,55.9,73.2,55.8,73,55.6z"/>
	<path fill="#5E5F5F" d="M62.8,37.9c-0.2-0.1-0.3-0.2-0.2-0.3c0-0.2,0.1-0.3,0.3-0.3c0.1,0,0.2,0.1,0.2,0.3
		C63,37.8,62.9,37.9,62.8,37.9z"/>
	<path fill="#151515" d="M54.6,60c0,0.1,0,0.2,0,0.3c-0.3,0-0.5,0-0.6-0.3c0-0.2,0-0.3,0.2-0.2C54.3,59.8,54.4,59.9,54.6,60z"/>
	<path fill="#808080" d="M52.7,57.7c0-0.1,0-0.1,0-0.2c0.2-0.1,0.5-0.2,0.8,0C53.2,57.7,52.9,57.6,52.7,57.7z"/>
	<path fill="#6F7070" d="M69.1,40.1c0.2-0.3,0.4-0.3,0.6-0.2c0,0,0.1,0.1,0.1,0.2C69.6,40.3,69.3,40.2,69.1,40.1z"/>
	<path fill="#E2E1E1" d="M66.1,38.8c0.2,0.2,0.5-0.3,0.7,0c0,0.3-0.3,0.3-0.5,0.4C66.2,39.1,66.1,39,66.1,38.8z"/>
	<path fill="#C9C7C7" d="M69.7,38.1c-0.1,0.2-0.2,0.4-0.4,0.3c-0.1,0-0.2-0.1-0.2-0.2c0-0.3,0.3-0.3,0.4-0.4
		C69.6,38,69.6,38,69.7,38.1z"/>
	<path fill="#333332" d="M60.6,41.9c0.1-0.1,0.1-0.2,0.2-0.4c0.2,0.2,0.5,0.3,0.7,0.5c-0.1,0-0.3,0-0.4,0
		C60.8,42.1,60.7,42,60.6,41.9z"/>
	<path fill="#BFBDBE" d="M59.6,39.7c-0.2-0.1-0.3,0-0.3,0.2c-0.3-0.3,0-0.5,0.1-0.5C59.7,39.2,59.6,39.5,59.6,39.7z"/>
	<path fill="#4D4D4D" d="M75.7,59.7c-0.1-0.1-0.2-0.2-0.3-0.4c0.2,0.2,0.5-0.3,0.6,0.1C76.1,59.6,75.9,59.7,75.7,59.7z"/>
	<path fill="#868686" d="M53.1,56.5c-0.1,0-0.3,0-0.3,0.2c-0.2,0-0.4-0.1-0.4-0.4C52.6,56.4,52.9,56.3,53.1,56.5z"/>
	<path fill="#C3C2C2" d="M73.3,52.2c-0.1-0.1-0.2-0.3-0.5-0.2c0.1-0.3,0.4-0.4,0.5-0.3C73.6,51.8,73.3,52,73.3,52.2z"/>
	<path fill="#E4E4E3" d="M76.5,50.1c-0.3-0.2,0.1-0.5,0-0.8C76.8,49.5,76.7,49.8,76.5,50.1z"/>
	<path fill="#DEDEDD" d="M63.4,40.8c-0.4,0-0.7,0-1.1,0c0-0.1,0-0.1,0-0.2c0.4,0,0.7,0,1.1,0C63.4,40.6,63.4,40.7,63.4,40.8z"/>
	<path fill="#868787" d="M73.6,54.5c0.1-0.1,0.1-0.2,0.2-0.3c0.1,0,0.4-0.1,0.3,0.1C74.1,54.6,73.8,54.4,73.6,54.5z"/>
	<path fill="#929191" d="M74.9,53.7c0,0.1-0.1,0.2-0.2,0.2c-0.1,0-0.2-0.1-0.2-0.1c0-0.1,0.1-0.2,0.2-0.2
		C74.7,53.5,74.8,53.6,74.9,53.7z"/>
	<path fill="#898989" d="M76.3,52.2c0,0.1,0,0.2-0.2,0.2c-0.1,0-0.2-0.1-0.2-0.2c0-0.1,0.1-0.2,0.2-0.2C76.3,52,76.3,52.1,76.3,52.2
		z"/>
	<path fill="#989898" d="M70.7,45.8c0-0.2,0-0.3-0.2-0.4c0.1-0.2,0.3-0.2,0.4,0C71,45.7,70.8,45.8,70.7,45.8z"/>
	<path fill="#333333" d="M62.1,41.1c0.2-0.3,0.5-0.1,0.8-0.1c-0.2,0.2-0.5,0-0.6,0.3C62.2,41.2,62.2,41.1,62.1,41.1z"/>
	<path fill="#494949" d="M52.7,55.2c0,0.1,0,0.2,0,0.3c-0.2,0-0.4-0.1-0.4-0.3C52.3,55,52.5,55,52.7,55.2z"/>
	<path fill="#828282" d="M74.5,51.8c0.1,0,0.2,0,0.2,0.1c0,0.2-0.1,0.2-0.3,0.2c-0.1,0-0.2-0.1-0.2-0.2
		C74.3,51.8,74.4,51.8,74.5,51.8z"/>
	<path fill="#959595" d="M72.5,55.9c0.1,0,0.2,0,0.3,0C73,56,73,56.1,73,56.2C72.8,56.2,72.6,56.2,72.5,55.9z"/>
	<path fill="#595959" d="M54.1,59.7c-0.1,0.1-0.2,0.1-0.2,0.2c-0.1-0.1-0.4-0.2-0.3-0.3C53.7,59.4,54,59.4,54.1,59.7z"/>
	<path fill="#797978" d="M76.5,57.6c0.1,0.1,0.2,0.2,0.3,0.3c-0.1,0.1-0.1,0.3-0.3,0.2C76.4,58,76.5,57.8,76.5,57.6z"/>
	<path fill="#6A6969" d="M75.7,46.3c0-0.3,0.3-0.2,0.4-0.3C76.4,46.6,75.8,46.1,75.7,46.3z"/>
	<path fill="#FAFAF9" d="M62.3,51c0.5,0.4,0.3,1,0.3,1.5c-0.4-0.2-0.2-0.5-0.3-0.8c0-0.2-0.1-0.3-0.3-0.3c-0.2,0-0.1,0.2-0.1,0.3
		c0,0.3,0.1,0.6,0.1,0.9c0,0.2-0.2,0.5-0.4,0.5c-0.2,0-0.3-0.2-0.3-0.4c-0.1-1-0.3-2-0.6-2.9l0,0c0.8-1.1,0.7-2.3-0.3-2.8
		c-0.2-0.5,0.3-0.3,0.5-0.5c0.5-0.1,0.9-0.2,1.3,0.2c0,0.1,0.1,0.1,0.2,0.1c0.4-0.1,0.5-0.1,0.4,0.4c-0.1,0.6,0.3,1.1,0.1,1.8
		c-0.1,0.2-0.1,0.4-0.3,0.4c-0.9,0.1-0.5,0.4-0.2,0.8c0.1,0.1,0.1,0.3,0.1,0.4C62.2,50.8,62.1,50.9,62.3,51z"/>
	<path fill="#171717" d="M70.7,48.7c0,0.1,0,0.1-0.1,0.1c-0.1,0.2-0.1,0.4-0.3,0.5c0,0.2-0.9,0.4,0,0.6c0.3,0,0.4,0.2,0.2,0.5
		c-0.3,0.5,0.2,1.1-0.3,1.5c0,0,0,0.1,0,0.1c0.8,0.5,0.7,1.1,0.3,1.8c0,0,0.1,0.1,0.2,0.2c0.6,0.3,0.7,0.7,0.1,1.2
		c0.4,0.1,0.7,0.3,0.7,0.7c0,0.3-0.3,0.1-0.4,0.2c-0.1-0.2-0.2-0.3-0.4-0.3c-0.4-0.2-0.8-0.3-0.3-0.8c0,0,0.1-0.1,0.1-0.1
		c-0.7-0.7,0-1.8-0.7-2.4c-0.2-0.2-0.2-0.2-0.1-0.4c0.2-0.4,0.2-0.9,0.1-1.4c-0.1-0.2-0.3-0.4-0.6-0.4c-0.2,0-0.5,0.1-0.5-0.2
		c0-0.2,0.3-0.2,0.4-0.3c1.1-0.4,1.2-0.5,1-1.7C70.5,48,70.1,48.7,70.7,48.7z"/>
	<path fill="#F5F6F6" d="M60.6,41.9c0.1,0,0.3,0.1,0.4,0.1c0.3,0.5,0.4,1,1.2,0.6c0.2-0.1,0.5,0,0.8-0.1c0.2,0,0.4,0.2,0.2,0.4
		c-0.3,0.4-0.6,0.9-1.3,0.6c-0.2-0.1-0.4-0.3-0.3,0.2c0.6,0.4,1,1.5,0.8,2.2c-0.1,0.2-0.2,0.3-0.4,0.3c-0.5,0.1-0.5-0.5-0.9-0.7
		c-0.2-0.2,0.1-0.3,0.2-0.4c0.2-0.1,0.2-0.3,0-0.4c-0.6-0.1-0.5-0.6-0.6-0.9C60.5,43.2,60.4,42.6,60.6,41.9z"/>
	<path fill="#F5F4F4" d="M63.2,44.6c0-0.2-0.3-0.5,0-0.7c0.4-0.3,0.7-0.5,0.7-1.1c0-0.1,0.2-0.3,0.4-0.3c0.3,0.1,0.5,0.3,0.5,0.5
		c-0.1,1.1-0.3,2.1-0.5,3.1c-0.1,0.4-0.3-0.1-0.4-0.1c-0.1-0.1-0.2-0.2-0.3-0.3C63.4,45.4,63.5,44.9,63.2,44.6z"/>
	<path fill="#F0EEEE" d="M58.9,46.4c0.3,0,0.6,0,0.7,0.3c0.2,0.3-0.2,0.4-0.3,0.6c-0.2,0.2-0.2,0.4-0.2,0.7c0.1,0.3-0.1,0.6-0.3,0.9
		c-0.1,0.1-0.2,0.4-0.4,0.3c-0.2-0.1-0.3-0.2-0.2-0.4c0.1-0.6-0.3-1.1,0-1.8C58.3,46.5,58.5,46.4,58.9,46.4z"/>
	<path fill="#E9E9E9" d="M63.6,45.8c0.1,0,0.2,0.2,0.2,0.3c-0.2,0.3,0,0.6,0.1,0.9c0.1,0.3,0.1,0.6-0.2,0.7
		c-0.3,0.1-0.4-0.3-0.4-0.5c0-0.6-0.6-1.2-0.3-1.9C63.5,45.2,63.6,45.5,63.6,45.8z"/>
	<path fill="#CAC9C9" d="M58.4,50.7c-0.3-0.3-0.6-0.6-0.3-1.1c0.2-0.3,0.4-0.2,0.6-0.1c0.2,0.1,0.5,0.3,0.1,0.4
		C58.5,50.1,58.6,50.4,58.4,50.7z"/>
	<path fill="#BCBABA" d="M59.8,45.3c1.2-0.7,0.3,0.6,0.8,0.7c-0.3,0.2-0.5-0.2-0.8,0C59.6,45.8,59.6,45.6,59.8,45.3z"/>
	<path fill="#C2BFBF" d="M66.5,45c0.3,0.2,0.1,0.5,0.3,0.6c0.1,0.1,0.4,0.4,0.1,0.5c-0.2,0.1-0.4-0.2-0.5-0.4
		C66.4,45.5,66.3,45.2,66.5,45z"/>
	<path fill="#3A3A39" d="M60.4,55.4c-0.1,0.1-0.1,0.1-0.2,0.2c-0.2,0-0.4,0-0.6,0c-0.3,0-0.7,0.1-1-0.2c0,0,0,0,0,0
		c0.1-0.2,0.4-0.1,0.5-0.3c0.1,0,0.2,0,0.3,0c0.3,0.1,0.6-0.1,0.9,0.2C60.4,55.3,60.4,55.4,60.4,55.4z"/>
	<path fill="#1D1D1D" d="M63.6,45.8c-0.2-0.2-0.2-0.5-0.6-0.5c0.3-0.2,0.1-0.5,0.2-0.8C63.5,44.9,63.7,45.3,63.6,45.8z"/>
	<path fill="#525251" d="M62.1,54.8c-0.1,0.2-0.3,0.1-0.5,0.2c-0.3,0.1-0.5,0.1-0.8,0.1c-0.2-0.2,0-0.3,0.2-0.3
		C61.4,54.8,61.7,54.8,62.1,54.8z"/>
	<path fill="#C9C8C8" d="M59.8,45.3c0,0.2,0,0.4,0,0.7c-0.1,0.2-0.3,0.1-0.3,0C59.4,45.7,59.3,45.4,59.8,45.3z"/>
	<path fill="#B3B3B3" d="M60.5,49.9c-0.3,0-0.5,0.1-1-0.2C60.1,49.6,60.4,49.3,60.5,49.9C60.5,49.9,60.5,49.9,60.5,49.9z"/>
	<path fill="#D8D9D8" d="M60.8,55.1c0.2-0.3,0.5-0.2,0.8-0.1c-0.1,0.1-0.2,0.2-0.3,0.3C61.2,55.3,61,55.3,60.8,55.1z"/>
	<path fill="#D7D6D6" d="M59.4,55.1c-0.1,0-0.2,0-0.3-0.1c0.4-0.3,0.9-0.1,1.3-0.1c0,0,0,0.1,0,0.1c0,0-0.1,0.1-0.1,0.1
		C60.1,55.2,59.7,55.2,59.4,55.1z"/>
	<path fill="#C8C5C5" d="M58.7,52.4c0.2,0.2,0.6,0.2,0.6,0.7C58.9,53,58.6,52.9,58.7,52.4z"/>
	<path fill="#535454" d="M61.5,43.8c-0.2-0.1-0.5-0.4-0.2-0.6c0.2-0.2,0.3,0.3,0.6,0.4C61.7,43.7,61.6,43.7,61.5,43.8z"/>
	<path fill="#676868" d="M60.7,46.6c-0.1,0.2-0.6,0-0.5,0.5c-0.3-0.2-0.1-0.3,0-0.5C60.5,46.2,60.6,46.6,60.7,46.6z"/>
	<path fill="#C9C7C7" d="M66.7,51.5c0-0.1-0.1-0.1-0.1-0.2c-0.1-0.2-0.2-0.4,0.1-0.4c0.3,0,0.1,0.3,0.2,0.5
		C67,51.5,66.9,51.5,66.7,51.5z"/>
	<path fill="#818181" d="M67.1,50.3c0.2,0,0.5-0.3,0.6,0c0.1,0.2-0.2,0.1-0.4,0.1C67.2,50.4,67.2,50.4,67.1,50.3z"/>
	<path fill="#ADADAD" d="M59.4,55.1c0.3,0,0.7,0,1,0c0,0,0,0.1,0,0.1C60.1,55.2,59.7,55.4,59.4,55.1z"/>
	<path fill="#D8D9D8" d="M58.6,52c-0.1-0.2-0.3-0.4-0.1-0.6c0,0,0.1,0,0.1,0C58.7,51.5,58.6,51.7,58.6,52z"/>
	<path fill="#323130" d="M62.3,51c-0.1-0.1-0.4,0.1-0.4-0.2c0-0.3,0.3-0.1,0.4-0.2C62.3,50.8,62.3,50.9,62.3,51z"/>
	<path fill="#C5C3C4" d="M66.7,51.5c0-0.1,0.1-0.1,0.1-0.2c0.2,0.2,0.2,0.3,0.1,0.6C66.8,51.7,66.8,51.6,66.7,51.5z"/>
	<path fill="#282828" d="M68.3,60c0,0.3-0.2,0.3-0.4,0.3c-0.7-0.1-0.9-0.6-1.3-1.1c-0.1-0.1,0-0.2,0.1-0.2c0.4-0.1,0.8,0.2,1.1,0.4
		C68.1,59.5,68.2,59.7,68.3,60z"/>
	<path fill="#222222" d="M67.9,58.1c0.2-0.2,0.5-0.2,0.6,0.1c0,0.1-0.2,0.3-0.4,0.2C68,58.3,67.8,58.3,67.9,58.1z"/>
	<path fill="#8D8B8B" d="M68.4,51.3c0.1,0,0.3,0,0.2,0.2c0,0.1-0.1,0.1-0.2,0.1c-0.1,0-0.2,0-0.2-0.2C68.3,51.4,68.4,51.4,68.4,51.3
		z"/>
	<path fill="#868686" d="M67.4,56.2c0.1,0,0.2,0,0.2,0.2c0,0-0.1,0.2-0.1,0.2c-0.1,0-0.2,0-0.3-0.1C67.2,56.3,67.3,56.2,67.4,56.2z"
		/>
	<path fill="#686767" d="M67.9,58.1c0.1,0.1,0.1,0.2,0.2,0.3c-0.2,0-0.3,0.3-0.5,0C67.6,58.2,67.7,58.1,67.9,58.1z"/>
	<path fill="#3A393A" d="M67.3,60.9c0.1,0,0.1,0.1,0.1,0.2c0,0.1,0,0.3-0.2,0.2c-0.1,0-0.1-0.2-0.1-0.2C67.2,61,67.2,60.9,67.3,60.9
		z"/>
	<path fill="#3E3F3F" d="M62.1,60.8c0,0.1,0,0.2-0.2,0.3c-0.2,0-0.3,0-0.3-0.2c0-0.2,0.1-0.3,0.3-0.3C62,60.5,62.1,60.6,62.1,60.8z"
		/>
	<path fill="#C8C6C7" d="M72.7,59.2c0.1,0.3,0.7,0,0.6,0.4c-0.1,0.4-0.6,0.3-0.9,0.1c-0.1-0.1-0.3-0.1-0.3-0.2
		c0.1-0.1,0.2-0.2,0.3-0.3C72.5,59.2,72.6,59.2,72.7,59.2z"/>
	<path fill="#D8D7D7" d="M52.8,58.3c-0.2,0.3-0.4,0.4-0.6,0.4c-0.3,0-0.3-0.3-0.3-0.5c0-0.2,0.2-0.3,0.3-0.2
		C52.4,58,52.6,58.1,52.8,58.3z"/>
	<path fill="#F5F6F6" d="M71.8,57.4c0.1-0.1,0.1-0.1,0.2-0.1c0.1,0,0.2,0.1,0.2,0.2c0,0.1,0,0.2-0.1,0.2
		C72,57.6,71.9,57.5,71.8,57.4z"/>
	<path fill="#FAFBFC" d="M58.6,55.4c0.3,0,0.7-0.2,1,0.2c-0.2,0.2-0.5,0.1-0.8,0.2C58.6,55.7,58.5,55.7,58.6,55.4z"/>
	<path fill="#404040" d="M77.4,25.3c0.3-0.1,0.7-0.4,0.8,0.2C77.9,25.5,77.6,25.6,77.4,25.3z"/>
	<path fill="#FFFFFF" d="M76.8,71.6c-0.1,0.3-0.1,0.6-0.1,0.9c-0.1,0.7-0.2,1.4-1,1.5c-0.8,0.1-1.5-0.2-1.8-1.1
		c-0.4-1-0.7-2-0.3-3.1c0.4-1.1,1.3-1.5,2.2-0.9C76.6,69.6,76.8,70.6,76.8,71.6z"/>
	<path fill="#EDEBEA" d="M57,67.5c-0.1,0.2,0.2,0.6-0.3,0.6c-0.3,0-0.4-0.3-0.4-0.5c0-0.3,0.2-0.6,0.5-0.6
		C57.1,66.9,56.8,67.3,57,67.5z"/>
	<path fill="#E3E2E1" d="M73.6,42.5c0,0.3-0.2,0.4-0.3,0.3c-0.3-0.2-0.7,0-0.8-0.5c0-0.2,0.1-0.4,0.3-0.4
		C73.2,41.9,73.5,42.1,73.6,42.5z"/>
	<path fill="#6F7070" d="M70.3,49.3c0-0.2-0.1-0.5,0.3-0.5c0,0.2,0.2,0.1,0.3,0.2c0.1,0.1,0.1,0.1,0,0.2
		C70.8,49.4,70.6,49.3,70.3,49.3z"/>
	<path fill="#343434" d="M71,49.2c0-0.1,0-0.1,0-0.2c0.3,0,0.5-0.1,0.8-0.1c0,0.1,0,0.1,0,0.2C71.5,49.4,71.2,49.1,71,49.2z"/>
	<path fill="#E0DEDE" d="M72.7,53.2c0.3,0.3,0,0.7,0.3,0.9c0.2,0.2,0.2,0.4,0,0.6c0,0-0.3-0.2-0.4-0.4C72.5,54,72.3,53.6,72.7,53.2z
		"/>
	<path fill="#CCCBCB" d="M61.7,37c-0.2,0.1-0.4,0.3-0.6,0.2c0,0-0.1-0.1,0-0.1C61.2,36.8,61.5,36.9,61.7,37z"/>
	<path fill="#353635" d="M62.2,48.6c0-0.3-0.5-0.5-0.1-0.9C62.3,48,62.3,48.3,62.2,48.6z"/>
	<path fill="#3A3A39" d="M58.6,47.8c-0.2-0.1-0.4-0.2-0.3-0.4c0.1-0.2,0-0.6,0.4-0.7c0.2,0,0.2,0.2,0.2,0.3
		C58.9,47.3,58.8,47.6,58.6,47.8z"/>
</g>
</svg>
