<?xml version="1.0" encoding="iso-8859-1"?>
<!-- Generator: Adobe Illustrator 18.1.1, SVG Export Plug-In . SVG Version: 6.00 Build 0)  -->
<!DOCTYPE svg PUBLIC "-//W3C//DTD SVG 1.1//EN" "http://www.w3.org/Graphics/SVG/1.1/DTD/svg11.dtd">
<svg version="1.1" xmlns="http://www.w3.org/2000/svg" xmlns:xlink="http://www.w3.org/1999/xlink" x="0px" y="0px"
	 viewBox="0 0 140 105" style="enable-background:new 0 0 140 105;" xml:space="preserve">
<g id="savorfy">
	<g>
		<g>
			<path style="fill:#F5F752;" d="M35.142,45.018c-2.316,0-4.292,0.819-5.93,2.457c-1.638,1.638-2.457,3.615-2.457,5.93
				c0,2.315,0.819,4.289,2.457,5.921c1.638,1.632,3.614,2.448,5.93,2.448c2.315,0,4.292-0.819,5.93-2.457
				c1.231-1.232,2.001-2.654,2.309-4.267v-3.288c-0.308-1.626-1.078-3.054-2.309-4.286C39.433,45.838,37.457,45.018,35.142,45.018z"
				/>
		</g>
		<g>
			<path d="M15.634,53.701c-1.416-0.764-2.395-1.416-2.937-1.958c-0.85-0.85-1.275-1.872-1.275-3.067
				c0-1.207,0.425-2.238,1.275-3.094c0.85-0.856,1.872-1.284,3.067-1.284c1.207,0,2.204,0.394,2.993,1.182
				c0.764,0.776,1.145,1.656,1.145,2.642v0.092l-1.441,0.573c-0.123-0.936-0.416-1.638-0.877-2.106
				c-0.462-0.468-1.069-0.702-1.82-0.702c-0.739,0-1.373,0.262-1.903,0.785c-0.53,0.524-0.794,1.161-0.794,1.912
				c0,0.739,0.265,1.373,0.794,1.903c0.308,0.308,0.961,0.776,1.958,1.404c1.576,0.862,2.697,1.626,3.362,2.291
				c1.047,1.059,1.57,2.321,1.57,3.787c0,1.502-0.524,2.78-1.57,3.833c-1.047,1.053-2.316,1.579-3.805,1.579
				c-1.49,0-2.759-0.526-3.805-1.579C10.523,60.841,10,59.686,10,58.43l1.644-0.425c0,1.084,0.366,1.989,1.099,2.716
				c0.733,0.727,1.61,1.09,2.632,1.09c1.022,0,1.9-0.363,2.632-1.09c0.733-0.727,1.099-1.613,1.099-2.66
				c0-1.022-0.363-1.897-1.09-2.623C17.623,55.043,16.829,54.464,15.634,53.701z"/>
			<path d="M45.043,63.03h-1.663v-3.695c-0.32,0.431-0.671,0.844-1.053,1.238c-1.983,1.983-4.378,2.974-7.186,2.974
				c-2.796,0-5.185-0.991-7.167-2.974C25.991,58.59,25,56.201,25,53.405c0-2.808,0.991-5.203,2.974-7.186
				c1.983-1.983,4.372-2.974,7.167-2.974c2.808,0,5.203,0.991,7.186,2.974c0.382,0.394,0.733,0.807,1.053,1.238v-2.568h1.663V63.03z
				 M43.381,55.049v-3.288c-0.308-1.626-1.078-3.054-2.309-4.286c-1.638-1.638-3.615-2.457-5.93-2.457
				c-2.316,0-4.292,0.819-5.93,2.457c-1.638,1.638-2.457,3.615-2.457,5.93c0,2.315,0.819,4.289,2.457,5.921
				c1.638,1.632,3.614,2.448,5.93,2.448c2.315,0,4.292-0.819,5.93-2.457C42.303,58.085,43.073,56.663,43.381,55.049z"/>
			<path d="M57.642,60l6.983-15.111h1.921l-8.904,18.639l-8.904-18.639h1.921L57.642,60z"/>
			<path d="M78.904,43.245c2.808,0,5.2,0.991,7.177,2.974c1.977,1.983,2.965,4.378,2.965,7.186c0,2.796-0.988,5.185-2.965,7.167
				c-1.977,1.983-4.369,2.974-7.177,2.974c-2.796,0-5.185-0.991-7.167-2.974c-1.983-1.983-2.974-4.372-2.974-7.167
				c0-2.808,0.991-5.203,2.974-7.186C73.719,44.236,76.108,43.245,78.904,43.245z M72.974,47.475
				c-1.638,1.638-2.457,3.615-2.457,5.93c0,2.315,0.819,4.289,2.457,5.921c1.638,1.632,3.615,2.448,5.93,2.448
				c2.315,0,4.292-0.816,5.93-2.448c1.638-1.632,2.457-3.605,2.457-5.921c0-2.315-0.819-4.292-2.457-5.93
				c-1.638-1.638-3.615-2.457-5.93-2.457C76.589,45.018,74.612,45.838,72.974,47.475z"/>
			<path d="M93.479,44.889h1.663v3.307c0.345-0.492,0.745-0.967,1.201-1.422c1.466-1.466,2.968-2.235,4.507-2.309v1.81
				c-1.047,0.049-2.131,0.634-3.251,1.755c-1.576,1.564-2.395,3.442-2.457,5.634v9.366h-1.663V44.889z"/>
			<path d="M108.331,46.552V63.03h-1.663V46.552h-1.847v-1.663h1.847v-4.914c0.074-1.367,0.597-2.543,1.57-3.528
				c1.01-0.936,2.174-1.404,3.491-1.404c0.69,0,1.416,0.129,2.18,0.388l-0.517,1.478c-0.517-0.222-1.016-0.333-1.496-0.333
				c-0.874,0-1.7,0.351-2.475,1.053c-0.69,0.677-1.053,1.496-1.09,2.457v4.803h3.695v1.663H108.331z"/>
			<path d="M122.112,61.404l-4.101,8.553h-1.626l4.895-10.271l-7.075-14.797h1.884l6.022,13.005l6.022-13.005H130l-7.888,16.533
				V61.404z"/>
		</g>
		<g>
			<path style="fill:#6DF649;" d="M78.904,45.018c-2.315,0-4.292,0.819-5.93,2.457c-1.638,1.638-2.457,3.615-2.457,5.93
				c0,2.315,0.819,4.289,2.457,5.921c1.638,1.632,3.615,2.448,5.93,2.448c2.315,0,4.292-0.816,5.93-2.448
				c1.638-1.632,2.457-3.605,2.457-5.921c0-2.315-0.819-4.292-2.457-5.93C83.196,45.838,81.219,45.018,78.904,45.018z"/>
		</g>
	</g>
</g>
<g id="Layer_1">
</g>
</svg>
