<?xml version="1.0" encoding="iso-8859-1"?>
<!-- Generator: Adobe Illustrator 18.1.1, SVG Export Plug-In . SVG Version: 6.00 Build 0)  -->
<!DOCTYPE svg PUBLIC "-//W3C//DTD SVG 1.1//EN" "http://www.w3.org/Graphics/SVG/1.1/DTD/svg11.dtd">
<svg version="1.1" id="Layer_1" xmlns="http://www.w3.org/2000/svg" xmlns:xlink="http://www.w3.org/1999/xlink" x="0px" y="0px"
	 viewBox="0 0 140 105" style="enable-background:new 0 0 140 105;" xml:space="preserve">
<defs>
	<filter id="Adobe_OpacityMaskFilter" filterUnits="userSpaceOnUse" x="10" y="23.745" width="120" height="57.509">
		<feFlood  style="flood-color:white;flood-opacity:1" result="back"/>
		<feBlend  in="SourceGraphic" in2="back" mode="normal"/>
	</filter>
</defs>
<mask maskUnits="userSpaceOnUse" x="10" y="23.745" width="120" height="57.509" id="SVGID_1_">
	<g style="filter:url(#Adobe_OpacityMaskFilter);">
	</g>
</mask>
<g style="mask:url(#SVGID_1_);">
	<g style="opacity:0.96;">
		<g>
			<path d="M77.081,73.59c-0.023-0.308,0.05-0.585,0.333-0.804c0.099-0.076,0.179-0.17,0.268-0.255
				c0.392-0.377,0.778-0.76,1.179-1.13c0.253-0.233,0.712-0.241,0.988-0.031c0.137,0.104,0.267,0.215,0.393,0.328
				c0.293,0.261,0.573,0.532,0.874,0.787c0.356,0.301,0.722,0.594,1.096,0.879c0.258,0.196,0.53,0.38,0.808,0.555
				c0.461,0.291,0.929,0.575,1.401,0.854c0.192,0.114,0.398,0.212,0.604,0.307c0.569,0.262,1.134,0.534,1.717,0.773
				c0.442,0.181,0.903,0.336,1.369,0.469c0.604,0.172,1.217,0.324,1.834,0.459c0.438,0.095,0.888,0.162,1.336,0.214
				c0.489,0.056,0.982,0.092,1.474,0.115c1.269,0.059,2.535,0.043,3.787-0.171c0.45-0.077,0.905-0.137,1.347-0.238
				c0.588-0.135,1.171-0.287,1.744-0.459c0.489-0.147,0.969-0.322,1.441-0.506c0.452-0.176,0.891-0.377,1.332-0.573
				c0.178-0.079,0.353-0.165,0.519-0.261c0.493-0.287,0.985-0.575,1.469-0.873c0.276-0.17,0.547-0.348,0.8-0.542
				c0.439-0.337,0.87-0.683,1.288-1.039c0.335-0.285,0.637-0.598,0.969-0.886c0.134-0.116,0.294-0.228,0.469-0.29
				c0.33-0.118,0.67,0.004,0.934,0.269c0.379,0.381,0.765,0.757,1.161,1.125c0.265,0.246,0.484,0.501,0.455,0.855
				c-0.014,0.175-0.026,0.351-0.048,0.525c-0.024,0.185-0.122,0.345-0.269,0.482c-0.214,0.201-0.425,0.404-0.643,0.601
				c-0.287,0.259-0.571,0.522-0.873,0.768c-0.354,0.288-0.718,0.569-1.093,0.838c-0.482,0.346-0.965,0.693-1.474,1.01
				c-0.487,0.303-1,0.575-1.514,0.844c-0.447,0.234-0.903,0.457-1.369,0.662c-0.516,0.227-1.042,0.44-1.576,0.637
				c-0.441,0.163-0.893,0.308-1.351,0.434c-0.628,0.173-1.264,0.33-1.902,0.474c-0.389,0.088-0.787,0.156-1.185,0.203
				c-0.76,0.088-1.523,0.162-2.286,0.227c-0.329,0.028-0.662,0.034-0.993,0.025c-0.508-0.013-1.018-0.032-1.524-0.076
				c-0.757-0.065-1.513-0.144-2.266-0.236c-0.761-0.093-1.499-0.267-2.233-0.46c-0.793-0.209-1.575-0.437-2.327-0.735
				c-0.359-0.143-0.723-0.28-1.073-0.438c-0.519-0.234-1.039-0.467-1.537-0.73c-0.56-0.295-1.116-0.601-1.636-0.943
				c-0.68-0.446-1.348-0.912-1.978-1.407c-0.623-0.489-1.194-1.025-1.786-1.543c-0.1-0.088-0.198-0.18-0.281-0.28
				c-0.184-0.22-0.182-0.473-0.164-0.691C77.085,73.648,77.083,73.619,77.081,73.59z"/>
			<path d="M91.366,74.376c-0.721-0.123-1.43-0.267-2.128-0.466c-0.693-0.198-1.365-0.43-2.003-0.731
				c-0.488-0.23-0.982-0.456-1.445-0.72c-0.51-0.29-0.996-0.614-1.478-0.937c-0.665-0.446-1.243-0.969-1.808-1.501
				c-0.123-0.116-0.278-0.219-0.358-0.353c-0.263-0.443-0.252-0.912-0.06-1.367c0.064-0.153,0.263-0.264,0.397-0.396
				c0.408-0.404,0.821-0.804,1.219-1.214c0.278-0.287,0.915-0.305,1.197-0.024c0.297,0.296,0.581,0.602,0.904,0.877
				c0.359,0.305,0.743,0.59,1.138,0.861c0.299,0.205,0.634,0.373,0.949,0.562c0.533,0.32,1.115,0.566,1.715,0.771
				c0.548,0.188,1.116,0.35,1.691,0.465c0.57,0.114,1.158,0.177,1.742,0.225c0.647,0.054,1.298,0.056,1.943-0.052
				c0.499-0.083,1.001-0.154,1.5-0.237c0.686-0.115,1.33-0.338,1.959-0.589c0.384-0.153,0.764-0.321,1.118-0.518
				c0.481-0.268,0.942-0.562,1.397-0.86c0.265-0.174,0.519-0.365,0.749-0.571c0.341-0.306,0.658-0.633,0.984-0.951
				c0.259-0.254,0.883-0.237,1.14,0.017c0.465,0.462,0.939,0.917,1.418,1.369c0.183,0.173,0.326,0.361,0.327,0.593
				c0.001,0.265-0.016,0.533-0.069,0.793c-0.027,0.131-0.126,0.267-0.234,0.369c-0.377,0.357-0.758,0.713-1.165,1.045
				c-0.451,0.368-0.915,0.728-1.406,1.055c-0.491,0.327-1.008,0.633-1.543,0.907c-0.53,0.271-1.089,0.508-1.652,0.728
				c-0.456,0.179-0.928,0.342-1.411,0.458c-0.732,0.176-1.472,0.34-2.221,0.445c-0.695,0.097-1.407,0.108-1.853,0.139
				C92.956,74.538,92.158,74.511,91.366,74.376z"/>
			<path d="M93.002,67.817c-0.534-0.054-1.062-0.121-1.58-0.264c-0.666-0.184-1.294-0.426-1.886-0.738
				c-0.247-0.13-0.497-0.261-0.721-0.417c-0.349-0.244-0.685-0.502-1.012-0.767c-0.238-0.193-0.474-0.393-0.672-0.615
				c-0.358-0.401-0.26-0.864-0.176-1.314c0.018-0.096,0.097-0.193,0.175-0.27c0.492-0.486,0.995-0.965,1.489-1.45
				c0.313-0.307,0.904-0.309,1.213,0.004c0.082,0.084,0.151,0.177,0.235,0.259c0.501,0.483,1.084,0.883,1.773,1.15
				c0.557,0.216,1.15,0.345,1.772,0.356c0.607,0.011,1.199-0.054,1.763-0.247c0.285-0.097,0.574-0.197,0.833-0.333
				c0.599-0.315,1.105-0.721,1.534-1.197c0.268-0.298,0.891-0.287,1.176-0.004c0.444,0.44,0.895,0.875,1.355,1.303
				c0.266,0.248,0.432,0.518,0.385,0.862c-0.01,0.075-0.039,0.152-0.032,0.226c0.031,0.333-0.134,0.586-0.39,0.831
				c-0.599,0.571-1.253,1.088-2.002,1.512c-0.712,0.402-1.485,0.709-2.307,0.911c-0.696,0.171-1.417,0.231-2.205,0.275
				C93.522,67.868,93.262,67.843,93.002,67.817z"/>
		</g>
	</g>
	<path d="M14.228,31.288c-0.018-0.218-0.019-0.472,0.164-0.691c0.083-0.1,0.181-0.192,0.281-0.28
		c0.592-0.517,1.163-1.054,1.786-1.543c0.631-0.495,1.298-0.961,1.978-1.407c0.521-0.342,1.077-0.648,1.636-0.943
		c0.498-0.263,1.019-0.496,1.537-0.73c0.35-0.158,0.713-0.295,1.073-0.438c0.752-0.299,1.534-0.527,2.327-0.735
		c0.734-0.193,1.473-0.367,2.233-0.46c0.753-0.092,1.509-0.17,2.266-0.236c0.506-0.044,1.015-0.063,1.524-0.076
		c0.33-0.009,0.664-0.003,0.993,0.025c0.763,0.065,1.526,0.139,2.286,0.227c0.399,0.046,0.796,0.115,1.185,0.203
		c0.639,0.144,1.274,0.301,1.902,0.474c0.458,0.126,0.91,0.271,1.351,0.434c0.533,0.197,1.06,0.41,1.576,0.637
		c0.466,0.205,0.922,0.428,1.369,0.662c0.514,0.269,1.027,0.542,1.514,0.844c0.509,0.316,0.992,0.664,1.474,1.01
		c0.375,0.269,0.739,0.55,1.093,0.838c0.302,0.246,0.586,0.509,0.873,0.768c0.218,0.197,0.429,0.4,0.643,0.601
		c0.147,0.138,0.245,0.297,0.269,0.482c0.023,0.174,0.034,0.35,0.048,0.525c0.029,0.354-0.19,0.609-0.455,0.855
		c-0.396,0.368-0.782,0.744-1.161,1.125c-0.264,0.265-0.604,0.387-0.934,0.269c-0.174-0.062-0.335-0.174-0.469-0.29
		c-0.332-0.288-0.634-0.6-0.969-0.886c-0.418-0.356-0.849-0.701-1.288-1.039c-0.252-0.194-0.524-0.373-0.8-0.542
		c-0.484-0.298-0.976-0.586-1.469-0.873c-0.166-0.096-0.341-0.182-0.519-0.261c-0.441-0.196-0.88-0.397-1.332-0.573
		c-0.472-0.184-0.951-0.359-1.441-0.506c-0.573-0.173-1.157-0.325-1.744-0.459c-0.442-0.101-0.897-0.162-1.347-0.238
		c-1.252-0.214-2.518-0.229-3.787-0.171c-0.493,0.023-0.986,0.059-1.474,0.115c-0.449,0.052-0.898,0.119-1.336,0.214
		c-0.617,0.134-1.23,0.287-1.834,0.459c-0.466,0.133-0.927,0.288-1.369,0.469c-0.583,0.239-1.147,0.51-1.717,0.773
		c-0.206,0.095-0.412,0.194-0.604,0.307c-0.472,0.279-0.94,0.563-1.401,0.854c-0.278,0.175-0.55,0.359-0.808,0.555
		c-0.374,0.285-0.74,0.578-1.096,0.879c-0.301,0.254-0.581,0.526-0.874,0.787c-0.127,0.113-0.257,0.224-0.393,0.328
		c-0.275,0.209-0.735,0.202-0.988-0.031c-0.401-0.37-0.787-0.753-1.179-1.13c-0.089-0.086-0.169-0.179-0.268-0.255
		c-0.283-0.219-0.356-0.496-0.333-0.804C14.223,31.381,14.224,31.352,14.228,31.288z"/>
	<path d="M31.158,30.433c0.446,0.031,1.158,0.042,1.853,0.139c0.749,0.104,1.49,0.269,2.221,0.445
		c0.483,0.116,0.954,0.279,1.411,0.458c0.563,0.221,1.121,0.457,1.652,0.728c0.535,0.274,1.052,0.579,1.543,0.907
		c0.492,0.328,0.955,0.688,1.406,1.055c0.407,0.332,0.788,0.688,1.165,1.045c0.108,0.102,0.208,0.237,0.234,0.369
		c0.053,0.26,0.069,0.528,0.069,0.793c-0.001,0.232-0.144,0.421-0.327,0.593c-0.478,0.452-0.953,0.907-1.418,1.369
		c-0.256,0.254-0.88,0.271-1.14,0.017c-0.326-0.319-0.642-0.645-0.984-0.951c-0.23-0.206-0.484-0.397-0.749-0.571
		c-0.455-0.298-0.916-0.592-1.397-0.86c-0.354-0.197-0.734-0.365-1.118-0.518c-0.629-0.25-1.272-0.474-1.959-0.589
		c-0.499-0.083-1.001-0.154-1.5-0.237c-0.645-0.108-1.296-0.106-1.943-0.052c-0.584,0.049-1.172,0.111-1.742,0.225
		c-0.575,0.116-1.143,0.277-1.691,0.465c-0.6,0.206-1.182,0.452-1.715,0.771c-0.315,0.189-0.65,0.357-0.949,0.562
		c-0.395,0.271-0.779,0.556-1.138,0.861c-0.323,0.274-0.608,0.581-0.904,0.877c-0.282,0.281-0.919,0.263-1.197-0.024
		c-0.398-0.411-0.811-0.811-1.219-1.214c-0.134-0.132-0.332-0.244-0.397-0.396c-0.191-0.454-0.203-0.924,0.06-1.367
		c0.08-0.135,0.235-0.237,0.358-0.353c0.565-0.533,1.144-1.056,1.808-1.501c0.483-0.324,0.968-0.647,1.478-0.937
		c0.463-0.264,0.957-0.49,1.445-0.72c0.638-0.3,1.31-0.533,2.003-0.731c0.698-0.199,1.407-0.343,2.128-0.466
		C29.298,30.489,30.095,30.462,31.158,30.433z"/>
	<path d="M30.86,37.112c0.788,0.044,1.509,0.104,2.205,0.275c0.821,0.202,1.595,0.508,2.307,0.911
		c0.749,0.424,1.403,0.941,2.002,1.512c0.257,0.245,0.421,0.497,0.39,0.831c-0.007,0.074,0.022,0.15,0.032,0.226
		c0.048,0.344-0.118,0.614-0.385,0.862c-0.46,0.428-0.911,0.863-1.355,1.303c-0.285,0.283-0.908,0.293-1.176-0.004
		c-0.429-0.476-0.935-0.882-1.534-1.197c-0.259-0.136-0.548-0.236-0.833-0.333c-0.564-0.193-1.156-0.257-1.763-0.247
		c-0.622,0.011-1.215,0.14-1.772,0.356c-0.689,0.267-1.272,0.667-1.773,1.15c-0.085,0.082-0.153,0.175-0.235,0.259
		c-0.309,0.313-0.9,0.311-1.213,0.004c-0.494-0.485-0.997-0.964-1.489-1.45c-0.078-0.077-0.157-0.174-0.175-0.27
		c-0.084-0.45-0.182-0.913,0.176-1.314c0.198-0.222,0.434-0.422,0.672-0.615c0.327-0.265,0.663-0.524,1.012-0.767
		c0.224-0.156,0.474-0.287,0.721-0.417c0.592-0.312,1.22-0.554,1.886-0.738c0.518-0.143,1.045-0.21,1.58-0.264
		C30.401,37.157,30.661,37.132,30.86,37.112z"/>
	<g>
		<path d="M10,38.73c1.1-0.264,2.837-0.462,4.603-0.462c2.519,0,4.14,0.495,5.356,1.615c1.013,0.857,1.621,2.175,1.621,3.922
			c0,2.142-1.245,4.021-3.3,4.878v0.066c1.853,0.527,4.024,2.274,4.024,5.57c0,1.912-0.666,3.362-1.65,4.45
			c-1.361,1.417-3.561,2.076-6.745,2.076c-1.737,0-3.068-0.132-3.908-0.264V38.73z M12.519,47.827h2.287
			c2.663,0,4.227-1.582,4.227-3.725c0-2.604-1.737-3.625-4.285-3.625c-1.158,0-1.824,0.099-2.229,0.198V47.827z M12.519,58.472
			c0.492,0.099,1.216,0.132,2.113,0.132c2.605,0,5.008-1.088,5.008-4.318c0-3.032-2.287-4.285-5.037-4.285h-2.084V58.472z"/>
		<path d="M38.4,52.54c0,5.9-3.59,8.471-6.977,8.471c-3.792,0-6.716-3.164-6.716-8.207c0-5.34,3.069-8.471,6.948-8.471
			C35.679,44.333,38.4,47.662,38.4,52.54z M27.283,52.705c0,3.494,1.766,6.131,4.255,6.131c2.432,0,4.256-2.604,4.256-6.196
			c0-2.703-1.187-6.131-4.198-6.131C28.586,46.508,27.283,49.672,27.283,52.705z"/>
		<path d="M53.715,37.246v19.281c0,1.417,0.029,3.032,0.116,4.12h-2.287l-0.116-2.769H51.37c-0.782,1.78-2.49,3.131-4.777,3.131
			c-3.387,0-5.992-3.263-5.992-8.108c-0.029-5.307,2.866-8.57,6.282-8.57c2.142,0,3.59,1.153,4.227,2.439h0.058v-9.525H53.715z
			 M51.167,51.188c0-0.363-0.029-0.857-0.116-1.22c-0.377-1.846-1.766-3.362-3.677-3.362c-2.635,0-4.198,2.637-4.198,6.164
			c0,3.23,1.39,5.9,4.14,5.9c1.708,0,3.271-1.285,3.735-3.461c0.087-0.396,0.116-0.791,0.116-1.253V51.188z"/>
		<path d="M65.701,60.648l-0.203-2.011h-0.087c-0.782,1.253-2.287,2.373-4.285,2.373c-2.837,0-4.285-2.274-4.285-4.581
			c0-3.856,3.011-5.966,8.424-5.933v-0.33c0-1.319-0.318-3.692-3.184-3.692c-1.303,0-2.663,0.461-3.648,1.186l-0.579-1.912
			c1.158-0.857,2.837-1.417,4.603-1.417c4.284,0,5.327,3.329,5.327,6.526v5.966c0,1.384,0.058,2.736,0.232,3.823H65.701z
			 M65.325,52.507c-2.779-0.066-5.935,0.494-5.935,3.593c0,1.879,1.1,2.769,2.403,2.769c1.824,0,2.982-1.318,3.387-2.67
			c0.087-0.297,0.145-0.626,0.145-0.923V52.507z"/>
		<path d="M71.984,38.73c1.1-0.264,2.837-0.462,4.603-0.462c2.519,0,4.14,0.495,5.356,1.615c1.013,0.857,1.621,2.175,1.621,3.922
			c0,2.142-1.245,4.021-3.3,4.878v0.066c1.853,0.527,4.024,2.274,4.024,5.57c0,1.912-0.666,3.362-1.65,4.45
			c-1.361,1.417-3.561,2.076-6.745,2.076c-1.737,0-3.068-0.132-3.908-0.264V38.73z M74.502,47.827h2.287
			c2.663,0,4.227-1.582,4.227-3.725c0-2.604-1.737-3.625-4.285-3.625c-1.158,0-1.824,0.099-2.229,0.198V47.827z M74.502,58.472
			c0.492,0.099,1.216,0.132,2.113,0.132c2.605,0,5.008-1.088,5.008-4.318c0-3.032-2.287-4.285-5.037-4.285h-2.084V58.472z"/>
		<path d="M100.383,52.54c0,5.9-3.59,8.471-6.977,8.471c-3.792,0-6.716-3.164-6.716-8.207c0-5.34,3.069-8.471,6.948-8.471
			C97.662,44.333,100.383,47.662,100.383,52.54z M89.267,52.705c0,3.494,1.766,6.131,4.255,6.131c2.432,0,4.256-2.604,4.256-6.196
			c0-2.703-1.187-6.131-4.198-6.131C90.569,46.508,89.267,49.672,89.267,52.705z"/>
		<path d="M115.698,37.246v19.281c0,1.417,0.029,3.032,0.116,4.12h-2.287l-0.116-2.769h-0.058c-0.782,1.78-2.49,3.131-4.777,3.131
			c-3.387,0-5.992-3.263-5.992-8.108c-0.029-5.307,2.866-8.57,6.282-8.57c2.142,0,3.59,1.153,4.227,2.439h0.058v-9.525H115.698z
			 M113.151,51.188c0-0.363-0.029-0.857-0.116-1.22c-0.377-1.846-1.766-3.362-3.677-3.362c-2.635,0-4.198,2.637-4.198,6.164
			c0,3.23,1.39,5.9,4.14,5.9c1.708,0,3.271-1.285,3.735-3.461c0.087-0.396,0.116-0.791,0.116-1.253V51.188z"/>
		<path d="M127.684,60.648l-0.203-2.011h-0.087c-0.782,1.253-2.287,2.373-4.285,2.373c-2.837,0-4.285-2.274-4.285-4.581
			c0-3.856,3.011-5.966,8.424-5.933v-0.33c0-1.319-0.318-3.692-3.184-3.692c-1.303,0-2.663,0.461-3.648,1.186l-0.579-1.912
			c1.158-0.857,2.837-1.417,4.603-1.417c4.284,0,5.327,3.329,5.327,6.526v5.966c0,1.384,0.058,2.736,0.232,3.823H127.684z
			 M127.308,52.507c-2.779-0.066-5.935,0.494-5.935,3.593c0,1.879,1.1,2.769,2.403,2.769c1.824,0,2.982-1.318,3.387-2.67
			c0.087-0.297,0.145-0.626,0.145-0.923V52.507z"/>
	</g>
</g>
</svg>
