<svg xmlns="http://www.w3.org/2000/svg" viewBox="0 0 140 105" enable-background="new 0 0 140 105"><g fill="#26303F"><path d="M10.12 49.465c0-1.903-.06-3.426-.12-4.828h2.424l.12 2.524h.06c1.102-1.8 2.845-2.883 5.27-2.883 3.585 0 6.27 3.025 6.27 7.533 0 5.328-3.246 7.952-6.732 7.952-1.963 0-3.666-.86-4.568-2.324h-.06v8.053H10.12V49.467zm2.665 3.947c0 .4.06.76.12 1.102.5 1.863 2.124 3.145 4.047 3.145 2.845 0 4.508-2.326 4.508-5.73 0-2.967-1.563-5.51-4.407-5.51-1.843 0-3.546 1.32-4.067 3.345-.1.34-.18.74-.18 1.102v2.544h-.02zm14.765-4.167c0-1.743-.04-3.245-.12-4.628h2.343l.1 2.905h.12c.68-1.983 2.304-3.245 4.107-3.245.3 0 .52.04.76.1v2.544c-.28-.06-.56-.1-.92-.1-1.904 0-3.246 1.444-3.607 3.468-.06.36-.12.8-.12 1.262v7.892H27.55V49.245zm23.018 2.203c0 6.01-3.746 8.634-7.292 8.634-3.967 0-7.032-3.225-7.032-8.354 0-2.624.74-4.728 1.983-6.21 1.322-1.583 1.322-1.583 5.19-5.91 5.208 5.81 3.966 4.327 5.208 5.81 1.24 1.463 1.943 3.546 1.943 6.03zm-9.216.14c0 1.623.84 2.865 2.043 2.865 1.162 0 2.043-1.222 2.043-2.885 0-1.262-.56-2.865-2.023-2.865-1.442 0-2.063 1.483-2.063 2.885zm13.523-6.95l2.104 3.184c.54.82 1 1.583 1.5 2.424h.1c.48-.88.983-1.643 1.463-2.444l2.083-3.145h2.905l-5.047 7.152 5.21 7.65h-3.066l-2.164-3.345c-.58-.86-1.062-1.683-1.583-2.564h-.06c-.48.88-1 1.684-1.562 2.565l-2.144 3.346H51.65l5.268-7.552-5.028-7.253h2.985v-.02zM70.78 40.47c.04.922-.64 1.643-1.722 1.643-.942 0-1.623-.74-1.623-1.643 0-.942.7-1.683 1.683-1.683 1.022 0 1.663.74 1.663 1.683zm-2.984 18.972V44.637h2.684v14.805h-2.684zm7.152-10.798c0-1.523-.04-2.785-.12-4.007h2.364l.12 2.384h.1c.82-1.4 2.204-2.723 4.648-2.723 2.023 0 3.546 1.222 4.187 2.965h.06c.46-.82 1.042-1.46 1.643-1.922.88-.68 1.863-1.042 3.265-1.042 1.963 0 4.868 1.282 4.868 6.43v8.716H93.46V51.05c0-2.845-1.043-4.568-3.206-4.568-1.523 0-2.725 1.142-3.185 2.444-.12.36-.22.86-.22 1.342v9.155h-2.626V50.57c0-2.365-1.042-4.068-3.085-4.068-1.684 0-2.906 1.34-3.347 2.683-.16.4-.22.86-.22 1.322v8.935H74.95l-.002-10.796zm28.528-8.174c.04.922-.64 1.643-1.723 1.643-.942 0-1.623-.74-1.623-1.643 0-.942.7-1.683 1.683-1.683 1.022 0 1.663.74 1.663 1.683zm-3.005 18.972V44.637h2.686v14.805h-2.684zM110.89 40.37v4.247h3.846v2.043h-3.846v7.993c0 1.843.52 2.885 2.023 2.885.703 0 1.224-.1 1.565-.18l.12 2.023c-.52.22-1.342.363-2.384.363-1.26 0-2.263-.4-2.904-1.142-.76-.8-1.042-2.103-1.042-3.845V46.68h-2.304v-2.043h2.303V41.07l2.625-.7zm8.134 4.267l3.245 8.755c.34.982.7 2.144.942 3.025h.06c.28-.88.58-2.023.94-3.085l2.945-8.694H130l-4.047 10.558c-1.923 5.088-3.245 7.673-5.088 9.275-1.322 1.164-2.624 1.625-3.306 1.745l-.683-2.264c.68-.22 1.563-.64 2.364-1.32.74-.58 1.644-1.624 2.265-3.006.12-.28.22-.48.22-.64s-.06-.362-.18-.702l-5.47-13.642h2.946z"/><path d="M15.893 62.07H14.52v-.495h3.342v.495h-1.38v4.02h-.59v-4.02zm3.054-.495v1.89h2.183v-1.89h.59v4.514h-.59V63.97h-2.183v2.116h-.582v-4.515h.582zm6.123 2.397h-1.755V65.6h1.956v.49h-2.536v-4.515h2.437v.49h-1.854v1.426h1.755v.483zm4.717 0h-1.755V65.6h1.956v.49H27.45v-4.515h2.437v.49h-1.855v1.426h1.755v.483zm2.01 2.118l-1.474-4.515h.63l.703 2.224c.194.607.362 1.156.482 1.685h.014c.127-.522.314-1.09.515-1.68l.763-2.23h.623l-1.614 4.513h-.644zm5.083-2.118h-1.754V65.6h1.956v.49h-2.538v-4.515h2.438v.49h-1.855v1.426h1.755v.483zm.96-2.337c.295-.06.717-.094 1.118-.094.623 0 1.025.116 1.306.37.228.2.355.51.355.857 0 .596-.377.99-.853 1.152v.02c.348.12.556.44.663.91.148.63.256 1.063.35 1.24h-.604c-.074-.13-.174-.517-.302-1.08-.134-.624-.375-.858-.904-.878h-.55v1.956h-.58v-4.45zm.583 2.056h.596c.62 0 1.016-.34 1.016-.855 0-.583-.422-.838-1.038-.844-.282 0-.483.028-.577.054v1.648zm3.953 2.4v-1.916l-1.426-2.598h.663l.636 1.246c.172.34.306.615.447.93h.013c.13-.294.283-.59.457-.93l.65-1.246h.663l-1.514 2.592v1.922h-.59zm3.55 0l-1.145-4.515h.618l.536 2.284c.134.56.255 1.123.335 1.56h.012c.075-.45.215-.987.37-1.57l.602-2.276h.61l.548 2.29c.127.536.248 1.072.315 1.547h.013c.094-.494.22-.997.36-1.56l.597-2.276h.596l-1.278 4.514h-.61l-.568-2.35c-.14-.577-.235-1.02-.295-1.475h-.014c-.08.448-.18.89-.348 1.474l-.643 2.35h-.61zm5.514-4.515v1.89h2.183v-1.89h.59v4.514h-.59V63.97H51.44v2.116h-.583v-4.515h.583zm6.123 2.397h-1.755V65.6h1.956v.49h-2.538v-4.515h2.437v.49h-1.855v1.426h1.755v.483zm.96-2.337c.294-.06.716-.094 1.117-.094.623 0 1.025.116 1.306.37.228.2.355.51.355.857 0 .596-.373.99-.85 1.152v.02c.35.12.557.44.664.91.147.63.255 1.063.348 1.24h-.602c-.074-.13-.174-.517-.302-1.08-.134-.624-.375-.858-.904-.878h-.55v1.956h-.582v-4.45zm.582 2.056h.596c.625 0 1.02-.34 1.02-.855 0-.583-.422-.838-1.04-.844-.28 0-.48.028-.574.054v1.648zm5.358.282h-1.755V65.6h1.956v.49h-2.538v-4.515h2.438v.49H62.71v1.426h1.754v.483zm3.11.698l-.47 1.42H66.5l1.536-4.515h.703l1.54 4.514h-.624l-.482-1.42h-1.6zm1.48-.457l-.442-1.3c-.1-.293-.166-.56-.233-.823h-.013c-.067.268-.14.543-.228.817l-.442 1.305h1.36zm1.89-2.585c.28-.047.65-.087 1.118-.087.578 0 1 .136 1.267.377.248.214.395.542.395.944 0 .41-.12.73-.347.965-.308.328-.81.496-1.38.496-.174 0-.335-.006-.468-.04v1.808h-.583v-4.46zm.583 2.177c.127.034.288.047.482.047.703 0 1.132-.342 1.132-.964 0-.596-.422-.884-1.064-.884-.255 0-.45.02-.55.047v1.756zm2.982-2.177c.28-.047.65-.087 1.118-.087.576 0 .997.136 1.265.377.25.214.397.542.397.944 0 .41-.12.73-.348.965-.31.328-.81.496-1.38.496-.175 0-.336-.006-.47-.04v1.808h-.582v-4.46zm.582 2.177c.127.034.288.047.482.047.703 0 1.132-.342 1.132-.964 0-.596-.422-.884-1.064-.884-.255 0-.45.02-.55.047v1.756z" enable-background="new"/></g></svg>