<?xml version="1.0" encoding="utf-8"?>
<!-- Generator: Adobe Illustrator 18.1.1, SVG Export Plug-In . SVG Version: 6.00 Build 0)  -->
<svg version="1.1" id="Layer_1" xmlns="http://www.w3.org/2000/svg" xmlns:xlink="http://www.w3.org/1999/xlink" x="0px" y="0px"
	 viewBox="0 0 140 105" enable-background="new 0 0 140 105" xml:space="preserve">
<g>
	<path fill="#19AE4B" d="M47.8,22.7c4.5-3.9,10.6-6.2,16.3-7.1c2-0.3,3.9-0.5,5.9-0.5c20.6,0,37.3,16.7,37.3,37.3S90.6,89.8,70,89.8
		S32.7,73.1,32.7,52.5c0-0.6,0-1.2,0-1.7C35,57,40.6,65.6,54.1,65.6c12.6,0,42.6-15,42.6-15c1.4-0.7,1.4-1.8,0-2.5l-14.9-7.8
		c-1.4-0.7-3.6-0.7-5-0.1c0,0-16,8.3-24.3,8.3c-10.6,0-12.2-8.7-11.1-15.1C42.3,29,44.6,25.4,47.8,22.7z"/>
	<polygon fill="#19AE4B" points="74.4,44.8 79.8,42.5 86.1,46.2 78.4,49.5 	"/>
	<polygon fill="#19AE4B" points="57.7,50.9 62.2,49.6 66.1,54.5 61.4,55.9 	"/>
	<path fill="#19AE4B" d="M64.6,48.8l2-0.7l2.2-0.9l3.9,4.7c0,0-1.9,0.9-2.6,1.1c-0.7,0.3-1.7,0.6-1.7,0.6L64.6,48.8z"/>
</g>
</svg>
