<?xml version="1.0" encoding="iso-8859-1"?>
<!-- Generator: Adobe Illustrator 18.1.1, SVG Export Plug-In . SVG Version: 6.00 Build 0)  -->
<!DOCTYPE svg PUBLIC "-//W3C//DTD SVG 1.1//EN" "http://www.w3.org/Graphics/SVG/1.1/DTD/svg11.dtd">
<svg version="1.1" xmlns="http://www.w3.org/2000/svg" xmlns:xlink="http://www.w3.org/1999/xlink" x="0px" y="0px"
	 viewBox="0 0 140 105" style="enable-background:new 0 0 140 105;" xml:space="preserve">
<g id="kanga">
	<g>
		<path style="fill:#0A75BC;" d="M26.717,61.014c0-1.65,0-3.306,0-5.021c-0.12-0.091-0.274-0.207-0.438-0.331
			c0.099-0.625,0.191-1.208,0.278-1.756c-0.135-0.135-0.227-0.227-0.321-0.321c-0.134,0.126-0.269,0.251-0.443,0.414
			c-0.034-0.218-0.062-0.396-0.099-0.634c-0.399,0.087-0.78,0.17-1.281,0.279c-0.557,0.547-1.213,1.164-1.4,2.109
			c-0.011,0.056-0.05,0.113-0.09,0.156c-0.728,0.78-1.002,1.785-1.378,2.742c-0.263,0.67-0.592,1.317-0.813,2
			c-0.284,0.875-0.786,1.626-1.226,2.415c-0.104,0.187-0.226,0.371-0.372,0.526c-0.356,0.378-0.757,0.716-1.092,1.111
			c-0.518,0.611-1.175,1.084-1.859,1.405c-0.761,0.357-1.575,0.812-2.539,0.362c-0.357-0.167-0.823-0.186-1.204-0.381
			c-0.754-0.385-1.516-0.754-2.214-1.239c-0.105-0.073-0.199-0.163-0.224-0.184c0-0.702,0-1.309,0-1.976
			c0.843,0.292,0.985,1.195,1.574,1.556c0.998,0.403,1.994,0.187,2.893,0.244c0.362-0.186,0.65-0.355,0.953-0.487
			c1.318-0.576,2.414-2.03,2.735-3.221c0.092-0.341,0.325-0.643,0.476-0.97c0.552-1.2,1.082-2.409,1.513-3.659
			c0.186-0.542,0.398-1.09,0.468-1.652c0.084-0.676,0.281-1.312,0.552-2.012c0.336-0.476,0.669-1.087,1.131-1.576
			c1.014-1.073,1.998-2.198,3.412-2.797c0.363-0.154,0.689-0.392,1.028-0.589c0-1.521,0-2.973,0-4.448c1.486,0,2.937,0,4.458,0
			c0,0.626,0,1.26,0,1.998c0.346-0.109,0.612-0.158,0.847-0.273c0.958-0.466,1.948-0.787,3.003-0.996
			c1.055-0.209,2.139-0.306,3.164-0.589c1.358-0.376,2.726-0.818,3.848-1.757c0.113-0.095,0.261-0.147,0.411-0.23
			c0.503-1.099,1.016-2.219,1.55-3.386c-0.81-0.747-1.453-1.661-1.529-2.86c0.243-0.276,0.463-0.45,0.826-0.196
			c0.263,0.184,0.581,0.29,0.871,0.428c0.1-0.291,0.209-0.603,0.318-0.92c0.278,0,0.534,0,0.839,0
			c0.249,0.282,0.527,0.596,0.857,0.968c-0.088,0.41,0.188,0.972-0.137,1.436c0.078,0.235,0.154,0.462,0.23,0.69
			c0.046-0.039,0.092-0.077,0.163-0.135c0.232,0.139,0.475,0.289,0.722,0.431c0.077,0.045,0.163,0.079,0.25,0.101
			c0.061,0.016,0.129,0.003,0.146,0.003c0.709,0.709,1.395,1.395,2.108,2.108c0.045,0.138,0.109,0.338,0.177,0.545
			c-0.115,0.229-0.249,0.498-0.423,0.846c-0.274,0.074-0.624,0.168-0.99,0.266c-0.06-0.174-0.1-0.287-0.139-0.4
			c-0.657,0.291-1.357,0.058-2.127,0.179c-0.14,0.42-0.292,0.876-0.426,1.28c0.501,0.627,0.642,1.063,0.649,1.865
			c-0.194,0.247-0.349,0.514-0.57,0.708c-0.224,0.196-0.558,0.276-0.762,0.486c-0.301,0.309-0.529,0.688-0.818,1.076
			c-0.077,0.516,0.27,0.947,0.526,1.385c0.37,0.633,0.817,1.222,1.234,1.835c0,0.19,0.05,0.401-0.01,0.574
			c-0.123,0.356-0.193,0.697-0.643,0.915c-0.835,0.404-1.62,0.87-2.584,0.735c-0.103-0.108-0.19-0.201-0.302-0.319
			c0.099-0.339,0.2-0.685,0.306-1.046c0.067,0.067,0.113,0.113,0.178,0.178c0.234-0.152,0.475-0.308,0.759-0.492
			c-0.3-0.451-0.602-0.905-0.937-1.408c-0.062-0.004-0.187-0.011-0.322-0.018c-0.35,0.459-0.63,0.996-1.235,1.193
			c-0.78,0.921-1.727,1.609-2.844,2.07c-0.248,0.102-0.478,0.249-0.795,0.416c0.875,1.349,1.761,2.73,2.663,4.099
			c0.909,1.379,1.831,2.749,2.754,4.12c0.919,1.365,1.845,2.725,2.816,4.158c0.143-0.211,0.334-0.38,0.383-0.583
			c0.491-2.025,1.329-3.935,1.995-5.899c0.51-1.503,1.059-3.001,1.592-4.499c0.645-1.812,1.273-3.632,1.913-5.445
			c0.528-1.498,0.995-3.024,1.613-4.492c0.151-0.359,0.244-0.743,0.373-1.147c1.817,0,3.658,0,5.473,0
			c0.361,1.023,0.719,2.044,1.081,3.064c0.322,0.906,0.676,1.801,0.968,2.716c0.466,1.461,1.011,2.895,1.494,4.35
			c0.53,1.597,1.011,3.217,1.65,4.771c0.71,1.725,1.045,3.583,1.927,5.241c0.045,0.7,0.446,1.301,0.582,2.016
			c-1.676,0-3.322,0-5.039,0c-0.46-1.509-0.935-3.063-1.411-4.625c-2.654,0-5.275,0-7.989,0c-0.524,1.54-1.056,3.104-1.584,4.655
			c-3.55,0-7.056,0-10.629,0c-1.906-2.639-3.582-5.481-5.495-8.279c-0.575,0.575-1.102,1.135-1.665,1.657
			c-0.81,0.751-1.437,1.597-1.885,2.63c-0.36,0.828-0.981,1.543-1.486,2.307c-0.018,0.027-0.042,0.052-0.069,0.068
			c-0.712,0.422-1.112,1.109-1.51,1.816c0.248,0.516,0.647,1.035,0.738,1.603c0.156,0.971,1.036,1.72,0.772,2.818
			c-0.076,0.027-0.189,0.066-0.313,0.11c-0.029,0.173-0.058,0.352-0.093,0.559c-0.105-0.095-0.173-0.156-0.241-0.218
			c-0.045,0.045-0.091,0.091-0.143,0.143c-0.522-0.187-0.567-0.728-0.922-1.267c0.036,0.379,0.057,0.596,0.087,0.915
			c-0.187,0.133-0.479,0.342-0.797,0.569c-0.168-0.034,0.005-0.486-0.357-0.364c-0.175-0.622-0.688-1.091-0.851-1.683
			c-0.133-0.482-0.4-0.836-0.678-1.18c-0.506-0.625-0.879-1.319-1.217-2.034c-0.125-0.263-0.136-0.579-0.205-0.899
			c0.045-0.14,0.109-0.34,0.198-0.615c0.419-0.419,0.909-0.893,1.38-1.385C25.886,62.083,26.421,61.71,26.717,61.014z
			 M53.595,56.858c1.847,0,3.642,0,5.475,0c-0.89-2.873-1.767-5.705-2.66-8.589c-0.1,0.187-0.224,0.338-0.263,0.508
			c-0.119,0.532-0.481,1.003-0.397,1.584c-0.624,1.433-1.028,2.941-1.5,4.425C54.035,55.464,53.821,56.143,53.595,56.858z"/>
		<path style="fill:#0A75BC;" d="M72.134,50.898c0,4.764,0,9.528,0,14.331c-1.443,0-2.852,0-4.282,0c0-7.379,0-14.74,0-22.138
			c1.65,0,3.297,0,4.926,0c2.836,4.661,5.65,9.363,8.661,14.172c0-4.842,0-9.476,0-14.204c1.442-0.008,2.852-0.001,4.291-0.004
			c0,7.402,0,14.763,0,22.169c-1.426,0-2.875,0-4.328,0c-3.029-4.77-6.079-9.574-9.129-14.377
			C72.227,50.864,72.181,50.881,72.134,50.898z"/>
		<path style="fill:#0A75BC;" d="M107.428,50.051c-1.68,0-3.261,0-4.877,0c0-0.226,0-0.443,0-0.538
			c-0.412-0.777-0.845-1.384-1.409-1.894c-0.531-0.48-1.255-0.608-1.86-1.054c-0.352-0.019-0.742-0.01-1.139-0.171
			c-0.307-0.124-0.753-0.134-1.051-0.002c-0.619,0.274-1.319,0.149-1.923,0.542c-0.655,0.426-1.406,0.797-1.947,1.609
			c-0.438,0.659-0.929,1.279-1.099,2.08c-0.101,0.476-0.314,0.921-0.332,1.424c-0.013,0.365-0.144,0.724-0.178,1.089
			c-0.032,0.354,0.03,0.718-0.014,1.07c-0.114,0.9,0.075,1.785,0.237,2.641c0.177,0.932,0.568,1.835,1.105,2.652
			c0.509,0.775,1.146,1.409,1.919,1.916c0.468,0.306,0.966,0.5,1.528,0.55c0.269,0.024,0.528,0.15,0.797,0.18
			c0.289,0.033,0.588,0.04,0.875,0c0.423-0.059,0.84-0.169,1.295-0.265c1.189-0.524,2.331-1.186,2.966-2.445
			c0.36-0.714,0.728-1.431,0.553-2.313c-1.573,0-3.155,0-4.717,0c-0.047-0.053-0.072-0.075-0.088-0.102
			c-0.015-0.025-0.03-0.056-0.03-0.084c-0.002-1.099-0.001-2.198-0.001-3.22c0.189-0.354,0.448-0.333,0.711-0.333
			c1.883,0.004,3.766,0.002,5.649,0.002c0.971,0,1.943,0,2.953,0c0,3.961,0,7.904,0,11.866c-1.275,0-2.532,0-3.835,0
			c-0.088-0.573,0.129-1.21-0.361-1.766c-0.181,0.207-0.365,0.424-0.557,0.634c-0.985,1.076-2.289,1.441-3.658,1.761
			c-1.119,0.261-2.231,0.196-3.333,0.141c-1.115-0.056-2.176-0.492-3.176-1.006c-0.522-0.268-1.012-0.593-1.429-1.024
			c-0.836-0.864-1.739-1.663-2.344-2.731c-0.582-1.029-1.078-2.083-1.346-3.243c-0.189-0.816-0.481-1.611-0.383-2.47
			c-0.38-0.658-0.254-1.394-0.164-2.058c0.144-1.059,0.202-2.135,0.533-3.178c0.311-0.982,0.613-1.954,1.157-2.835
			c0.635-1.028,1.283-2.011,2.31-2.748c0.802-0.576,1.614-1.081,2.503-1.5c0.587-0.276,1.204-0.399,1.816-0.554
			c1.32-0.334,2.672-0.226,4.008-0.18c0.907,0.031,1.778,0.359,2.644,0.651c1.223,0.412,2.275,1.058,3.173,1.995
			c0.696,0.726,1.419,1.424,1.774,2.387c0.219,0.594,0.52,1.169,0.523,1.834C107.204,49.557,107.328,49.756,107.428,50.051z"/>
		<path style="fill:#0A75BC;" d="M116.786,43.06c1.86,0,3.676,0,5.49,0c0.597,1.692,1.197,3.387,1.793,5.084
			c0.677,1.926,1.38,3.844,2.011,5.785c0.269,0.829,0.573,1.651,0.847,2.476c0.261,0.786,0.393,1.651,0.921,2.341
			c0.276,1.238,0.752,2.412,1.169,3.604c0.327,0.935,0.657,1.87,0.983,2.798c-0.029,0.035-0.045,0.064-0.069,0.083
			c-0.023,0.018-0.053,0.038-0.08,0.038c-1.619,0.002-3.237,0.002-4.896,0.002c-0.478-1.566-0.951-3.119-1.42-4.655
			c-2.672,0-5.291,0-7.994,0c-0.516,1.529-1.034,3.064-1.56,4.625c-1.651,0-3.297,0-4.937,0c0.352-1.068,0.629-2.196,1.092-3.241
			c0.586-1.321,0.877-2.741,1.505-4.052c0.342-0.714,0.506-1.537,0.776-2.304c0.26-0.736,0.566-1.456,0.803-2.198
			c0.229-0.718,0.466-1.422,0.757-2.121c0.307-0.74,0.505-1.539,0.779-2.305c0.263-0.735,0.557-1.459,0.801-2.198
			c0.236-0.715,0.405-1.439,0.77-2.118C116.578,44.236,116.627,43.661,116.786,43.06z M122.2,56.858
			c-0.885-2.865-1.76-5.697-2.635-8.528c-0.06,0.057-0.165,0.108-0.189,0.185c-0.881,2.766-1.755,5.534-2.642,8.343
			C118.567,56.858,120.362,56.858,122.2,56.858z"/>
	</g>
</g>
<g id="Layer_1">
</g>
</svg>
