<svg xmlns="http://www.w3.org/2000/svg" viewBox="0 0 140 105" enable-background="new 0 0 140 105"><path d="M43.013 50.102s.48-.283.48.207v-.504l-.48.295z" fill="#231F20"/><path d="M51.532 40.994s.058-.623.62-.623H84.18s4.806.265 4.806 5.394v13.993s.198 4.74-4.806 4.74H52.026s-.494-.087-.494-.553v-3.56s.01-.628.514-.628h30.75s.634-.053.634-.48v-3.52s-.04-.543-.633-.543H63.06s-.593-.06-.593-.583v-3.72s.09-.464.475-.464h19.845s.652.04.652-.604v-3.44s-.09-.64-.625-.64h-30.67s-.613-.042-.613-.726v-4.042zM130 56.74v-7.865c0-8.504-9.018-8.355-9.018-8.355H94.384c-1.513 0-1.513 1.543-1.513 1.543v21.01c0 1.425 1.297 1.425 1.297 1.425h26.776c9.137 0 9.058-7.758 9.058-7.758zm-9.423 2.408l-21.238-.03s-.803-.044-.803-.86l.03-11.242s.014-.563.8-.563l21.18-.03s3.23-.135 3.23 3.563l.008 5.83s-.035 3.332-3.21 3.332z" fill="#373839"/><path d="M48.185 41.047c-.04 0-.08-.008-.126.007s-.09.036-.127.057l-18.65 11.24-18.6-11.186h.002l-.09-.052-.062-.04.062.04c-.036-.02-.08-.043-.124-.057-.043-.015-.082-.007-.124-.007 0 0-.138-.004-.138.26v22.56s0 .63.638.63h3.524c.593 0 .616-.63.616-.63V49.51c0-.41.328-.29.446-.232l13.637 8.488.21.133.23-.14 13.99-8.6v14.654s0 .682.644.682h3.49c.688 0 .688-.682.688-.682v-22.51c0-.262-.138-.258-.138-.258z" fill="#27ACD9"/></svg>