<svg xmlns="http://www.w3.org/2000/svg" viewBox="0 0 140 105" enable-background="new 0 0 140 105"><path d="M72.25 55.475h-4.317c-1.592 2.976-3.194 5.906-4.766 8.76-1.675 3.042-3.356 6.084-4.995 9.135-.148.274-.434.38-.745.38h-.004c-.31 0-.596-.094-.745-.364-1.658-3.016-3.352-6.044-5.03-9.15-1.545-2.855-3.153-5.784-4.785-8.76H42.54c-.47 0-1.014-.41-1.014-.88V50.03c0-.47.544-.93 1.014-.93h12.832c.47 0 1.03.46 1.03.93v4.566c0 .47-.562.88-1.03.88H53.82c.74 1.274 1.464 2.554 2.153 3.817.545 1 1.028 2 1.447 3.008.412-1.005.888-2.005 1.42-3.004.678-1.268 1.392-2.546 2.13-3.82h-1.958c-.47 0-.912-.41-.912-.88V50.03c0-.47.442-.93.912-.93H72.25c.468 0 .725.46.725.93v4.566c0 .47-.257.88-.726.88zm27.565 5.363c0 1.65-.324 3.24-.965 4.73-.64 1.48-1.52 2.794-2.632 3.904-1.113 1.115-2.445 2.003-3.967 2.64-1.524.64-3.157.962-4.88.962-1.19 0-2.256-.137-3.214-.407-.937-.265-1.71-.578-2.393-.93-.3-.155-.715-.307-.715-.46v.427c0 .47-.574.77-1.044.77H71.39c-.468 0-.967-.3-.967-.77V67.14c0-.47.5-1.04.968-1.04h3.71V33.8h-3.13c-.47 0-.697-.41-.697-.88v-4.565c0-.47.228-.93.697-.93h8.61c.47 0 .893.46.893.93v21.97c0-.08.26-.158.407-.237.697-.37 1.494-.7 2.41-.985.944-.294 1.973-.443 3.054-.443 1.724 0 3.37.324 4.896.962 1.522.64 2.86 1.527 3.97 2.64 1.11 1.108 1.997 2.412 2.635 3.873.644 1.47.97 3.052.97 4.703zM91.68 56.67c-1.103-1.096-2.51-1.63-4.305-1.63s-3.203.534-4.305 1.63c-1.102 1.097-1.637 2.46-1.637 4.168 0 1.675.538 3.04 1.645 4.175 1.1 1.13 2.506 1.68 4.297 1.68 1.79 0 3.194-.55 4.296-1.68 1.107-1.137 1.647-2.502 1.647-4.175 0-1.706-.537-3.07-1.638-4.167zm20.82-31.957V79.65c0 8.474-6.356 15.35-14.714 15.35H43.61C35.25 95 27.5 88.124 27.5 79.65V24.713C27.5 16.24 35.252 10 43.61 10H97.73c8.357 0 14.768 6.24 14.768 14.713zm-8.926 0c0-3.25-2.667-5.363-5.874-5.363H43.61c-3.207 0-6.335 2.112-6.335 5.363V79.65c0 3.25 3.128 6 6.334 6h5.564v-5.526h42.5v5.525h6.11c3.206 0 5.79-2.75 5.79-6V24.713z"/></svg>