<?xml version="1.0" encoding="utf-8"?>
<!-- Generator: Adobe Illustrator 18.1.1, SVG Export Plug-In . SVG Version: 6.00 Build 0)  -->
<svg version="1.1" id="Layer_1" xmlns="http://www.w3.org/2000/svg" xmlns:xlink="http://www.w3.org/1999/xlink" x="0px" y="0px"
	 viewBox="0 0 140 105" enable-background="new 0 0 140 105" xml:space="preserve">
<g>
	<path fill="#010101" d="M25.8,58.3H13.8v11h-1.3V35.8h13.3C32,35.8,37,40.8,37,47S32,58.3,25.8,58.3z M25.8,37.1H13.8v19.8h11.9
		c5.5,0,9.9-4.4,9.9-9.9C35.7,41.5,31.3,37.1,25.8,37.1z"/>
	<path fill="#010101" d="M47.6,66.8c-4.8-2.9-7.9-8.2-7.9-14.3c0-9.2,7.5-16.7,16.7-16.7s16.7,7.5,16.7,16.7
		c0,9.2-7.5,16.7-16.7,16.7c-2.2,0-4.3-0.4-6.3-1.2l0.2-1.4c1.9,0.8,3.9,1.2,6.1,1.2c8.5,0,15.4-6.9,15.4-15.4
		c0-8.5-6.9-15.4-15.4-15.4S41,44,41,52.5c0,5.3,2.7,10,6.8,12.8L47.6,66.8z"/>
	<path fill="#010101" d="M86.9,46.9c6.2,0,11.1,5,11.1,11.1c0,6.2-5,11.1-11.1,11.1c-6.1,0-11.1-4.9-11.1-11l1.4,0.8
		c0.5,4.9,4.7,8.8,9.8,8.8c5.4,0,9.8-4.4,9.8-9.8c0-5.4-4.4-9.8-9.8-9.8c-3.4,0-6.2-2.8-6.2-6.2c0-3.4,2.8-6.2,6.2-6.2v1.3
		c-2.7,0-4.9,2.2-4.9,4.9C82,44.7,84.2,46.9,86.9,46.9z"/>
	<path fill="#010101" d="M103.3,53c-0.5,0.5-0.8,1-1.2,1.6v14.7h-1.3V37.1l1.3-1.3v16.5l0.2-0.2c3.4-3.4,8.9-3.4,12.3,0
		c2.9,2.9,7.5,2.9,10.4,0c0.4-0.4,0.8-1,1.2-1.5V37.1l1.3-1.3v33.4h-1.3V52.8c-0.1,0.1-0.2,0.1-0.2,0.2c-3.4,3.4-8.9,3.4-12.3,0
		C110.8,50.1,106.1,50.1,103.3,53z"/>
</g>
</svg>
