<?xml version="1.0" encoding="utf-8"?>
<!-- Generator: Adobe Illustrator 18.1.1, SVG Export Plug-In . SVG Version: 6.00 Build 0)  -->
<svg version="1.1" id="Layer_1" xmlns="http://www.w3.org/2000/svg" xmlns:xlink="http://www.w3.org/1999/xlink" x="0px" y="0px"
	 viewBox="0 0 140 105" enable-background="new 0 0 140 105" xml:space="preserve">
<g>
	<text transform="matrix(1 0 0 1 8.6307 57.6077)" fill="#2B2B2B" font-family="'CooperHewitt-Heavy'" font-size="15.4781">CROSS     CREATE</text>
	<g>
		<path fill="#2B2B2B" d="M63.4,44.9c-2.4,1.3-4,3.8-4,6.7c0,1.6,0.5,3.1,1.4,4.4L63.4,44.9z"/>
		<path fill="#2B2B2B" d="M70.8,45c-1.1-0.6-2.4-1-3.8-1c-0.1,0-0.2,0-0.4,0l-3.4,14.2c1.1,0.6,2.4,1,3.8,1c0.1,0,0.3,0,0.4,0
			L70.8,45z"/>
		<path fill="#2B2B2B" d="M73.3,47.3l-2.6,11c2.4-1.3,4-3.8,4-6.7C74.7,50,74.2,48.5,73.3,47.3z"/>
	</g>
</g>
</svg>
