<?xml version="1.0" encoding="utf-8"?>
<!-- Generator: Adobe Illustrator 18.1.1, SVG Export Plug-In . SVG Version: 6.00 Build 0)  -->
<svg version="1.1" id="Layer_3" xmlns="http://www.w3.org/2000/svg" xmlns:xlink="http://www.w3.org/1999/xlink" x="0px" y="0px"
	 viewBox="0 0 140 105" enable-background="new 0 0 140 105" xml:space="preserve">
<g>
	<g>
		<path fill="#EC1C24" d="M24.7,49.5L24.7,49.5c-1.2-0.9-2.6-1.4-4.1-1.4c-1.9,0-3.5,0.7-4.8,2c-1.3,1.3-2,2.9-2,4.8
			c0,1.9,0.7,3.5,2,4.8s2.9,2,4.8,2c1.6,0,2.9-0.5,4.1-1.4l0,0c0,0,0,0,0,0c0.3-0.3,0.6-0.4,1-0.4c0.4,0,0.7,0.1,1,0.4
			c0.3,0.3,0.4,0.6,0.4,1c0,0.4-0.1,0.7-0.4,1c0,0,0,0,0,0l0,0c-1.7,1.4-3.7,2.1-6,2.1c-2.6,0-4.9-0.9-6.7-2.8
			c-1.9-1.9-2.8-4.1-2.8-6.7c0-2.6,0.9-4.9,2.8-6.7s4.1-2.8,6.7-2.8c2.3,0,4.3,0.7,6,2.1l0,0c0,0,0,0,0,0c0.3,0.3,0.4,0.6,0.4,1
			c0,0.4-0.1,0.7-0.4,1c-0.3,0.3-0.6,0.4-1,0.4C25.3,49.9,25,49.8,24.7,49.5C24.7,49.5,24.7,49.5,24.7,49.5z"/>
		<path fill="#EC1C24" d="M36.2,51.2c0.4,0,0.7,0.1,1,0.4c0.3,0.3,0.4,0.6,0.4,1c0,0.4-0.1,0.7-0.4,1c-0.3,0.3-0.6,0.4-1,0.4h0
			c-1.1,0-2,0.4-2.8,1.2c-0.7,0.7-1.1,1.5-1.1,2.5c0,0.1,0,0.2,0,0.2v5.1c0,0.5-0.1,0.9-0.4,1.1c-0.3,0.3-0.6,0.4-1,0.4
			s-0.7-0.1-1-0.4c-0.3-0.3-0.4-0.7-0.4-1.2v-5.1c0-1.8,0.7-3.3,1.9-4.6C32.8,51.9,34.3,51.3,36.2,51.2z"/>
		<path fill="#EC1C24" d="M51.3,63.1c0,0.5-0.1,0.9-0.4,1c-0.3,0.2-0.6,0.3-1,0.3c-0.4,0-0.7-0.1-1-0.3c-0.3-0.2-0.4-0.5-0.4-1
			c-1.1,0.8-2.4,1.3-3.9,1.3c-1.8,0-3.4-0.6-4.7-1.9c-1.3-1.3-1.9-2.8-1.9-4.7c0-1.8,0.6-3.4,1.9-4.7c1.3-1.3,2.8-1.9,4.7-1.9
			c1.8,0,3.4,0.6,4.7,1.9c1.3,1.3,1.9,2.8,1.9,4.6V63.1z M47.5,55c-0.8-0.8-1.7-1.2-2.8-1.2c-1.1,0-2,0.4-2.8,1.1
			c-0.8,0.8-1.1,1.7-1.1,2.8c0,1.1,0.4,2,1.1,2.8c0.8,0.8,1.7,1.2,2.8,1.2c1.1,0,2-0.4,2.8-1.2c0.7-0.7,1-1.4,1.1-2.3v-0.5
			c0-0.1,0-0.2,0-0.2C48.6,56.6,48.2,55.7,47.5,55z"/>
		<path fill="#EC1C24" d="M74.5,57.8c0-0.4,0.1-0.7,0.4-0.9c0.3-0.3,0.6-0.4,0.9-0.4c0.4,0,0.7,0.1,0.9,0.4c0.3,0.3,0.4,0.6,0.4,0.9
			c0,1.1,0.4,2,1.2,2.8c0.8,0.8,1.7,1.2,2.8,1.2c1.1,0,2-0.4,2.8-1.2c0.8-0.8,1.2-1.7,1.2-2.8c0-1.1-0.4-2-1.2-2.8
			c-0.8-0.8-1.7-1.2-2.8-1.2c-1.2,0-2.1-0.4-3-1.2c-0.8-0.8-1.2-1.8-1.2-2.9c0-1.2,0.4-2.1,1.2-3c0.8-0.8,1.8-1.2,3-1.2
			c1.1,0,2,0.4,2.8,1.1c0,0,0.1,0.1,0.1,0.1c0.3,0.3,0.4,0.6,0.4,0.9c0,0.4-0.1,0.7-0.4,0.9c-0.3,0.3-0.6,0.4-0.9,0.4
			c-0.4,0-0.7-0.1-0.9-0.4c0,0-0.1-0.1-0.1-0.1l0,0c-0.3-0.2-0.6-0.3-0.9-0.3c-0.4,0-0.8,0.1-1.1,0.4c-0.3,0.3-0.4,0.7-0.4,1.1
			s0.1,0.8,0.4,1.1c0.3,0.3,0.7,0.4,1.1,0.4c1.8,0,3.4,0.6,4.7,1.9c1.3,1.3,1.9,2.9,1.9,4.7c0,1.8-0.6,3.4-1.9,4.7
			c-1.3,1.3-2.9,1.9-4.7,1.9c-1.8,0-3.4-0.6-4.7-1.9C75.2,61.2,74.5,59.6,74.5,57.8z"/>
		<path fill="#EC1C24" d="M90.4,48.6c0-0.4,0.1-0.7,0.4-1c0.3-0.3,0.6-0.4,1-0.4s0.7,0.1,1,0.4c0.3,0.3,0.4,0.6,0.4,1v3.8
			c1.1-0.8,2.3-1.2,3.8-1.3h0.2c1.9,0.1,3.4,0.8,4.6,2c1.3,1.3,1.9,2.8,1.9,4.6v5.4c0,0.4-0.1,0.7-0.4,1c-0.3,0.2-0.6,0.3-1,0.3
			s-0.7-0.1-1-0.3c-0.3-0.2-0.4-0.5-0.4-0.9v-5.4c0-0.1,0-0.2,0-0.2c-0.1-1-0.4-1.8-1.1-2.5c-0.8-0.8-1.7-1.2-2.8-1.2h-0.1
			c-1.1,0-2,0.4-2.8,1.2c-0.7,0.7-1,1.4-1.1,2.3v5.8c0,0.4-0.1,0.7-0.4,0.9c-0.3,0.2-0.6,0.3-1,0.3s-0.7-0.1-1-0.3
			c-0.3-0.2-0.4-0.5-0.4-1V48.6z"/>
		<path fill="#EC1C24" d="M114.6,54.2c-0.5-0.2-1-0.3-1.6-0.3c-1.1,0-2,0.4-2.8,1.1c-0.8,0.8-1.2,1.7-1.2,2.8c0,1.1,0.4,2,1.2,2.8
			c0.8,0.8,1.7,1.2,2.8,1.2c1.1,0,2-0.4,2.8-1.1c0,0,0,0,0,0c0.3-0.3,0.6-0.4,0.9-0.4s0.7,0.1,1,0.4c0.3,0.3,0.4,0.6,0.4,0.9
			s-0.1,0.7-0.4,1c0,0,0,0,0,0c-1.3,1.3-2.8,1.9-4.7,1.9c-1.8,0-3.4-0.6-4.7-1.9c-1.3-1.3-1.9-2.8-1.9-4.7c0-1.8,0.6-3.4,1.9-4.7
			c1.3-1.3,2.8-1.9,4.7-1.9c1.8,0,3.4,0.6,4.7,1.9l0,0c0,0,0,0,0,0c0.3,0.3,0.4,0.6,0.4,0.9c0,0.4-0.1,0.7-0.4,0.9l-3.8,3.8
			c-0.3,0.3-0.6,0.4-1,0.4c-0.4,0-0.7-0.1-1-0.4c-0.3-0.3-0.4-0.6-0.4-1c0-0.4,0.1-0.7,0.4-1L114.6,54.2z"/>
		<path fill="#EC1C24" d="M123.2,47.7c0.3,0.3,0.4,0.6,0.4,1v14.4c0,0.4-0.1,0.7-0.4,1c-0.3,0.3-0.6,0.4-1,0.4s-0.7-0.1-1-0.4
			c-0.3-0.3-0.4-0.6-0.4-1V48.6c0-0.4,0.1-0.7,0.4-1c0.3-0.3,0.6-0.4,1-0.4S122.9,47.4,123.2,47.7z"/>
		<path fill="#EC1C24" d="M128.5,47.7c0.3,0.3,0.4,0.6,0.4,1v14.4c0,0.4-0.1,0.7-0.4,1c-0.3,0.3-0.6,0.4-1,0.4s-0.7-0.1-1-0.4
			c-0.3-0.3-0.4-0.6-0.4-1V48.6c0-0.4,0.1-0.7,0.4-1c0.3-0.3,0.6-0.4,1-0.4S128.2,47.4,128.5,47.7z"/>
	</g>
	<path fill="#EC1C24" d="M72.3,57.2c-0.1-0.7-0.4-1.4-0.8-2c-0.8-1.2-2-2.1-3.3-2.7c0,0,0,0,0,0c2.3-3.7,0-8.4-2.5-10.5
		c-0.3-0.3-0.5-0.1-0.5,0.1c1.3,4.7-1,8.4-1.2,8.9c-0.1,0.1-0.1,0.2-0.2,0.3c-1.3-0.6-2.5-1.5-3.2-2.7c-0.4-0.6-0.6-1.3-0.8-2
		c-0.1-0.4-0.1-0.7-0.1-1.1c0-0.3,0.1-0.7,0.1-1c0.3-1.4,1.1-2.7,2.2-3.6c1.1-0.9-2.5-0.1-4.8,2.3c-2.3,2.3-3.6,5.5-3.6,8.8
		c0,3.3,1.3,6.5,3.6,8.8c2.3,2.3,5.5,3.6,8.8,3.7c1.5,0,2.9-0.5,4-1.4c1.1-0.9,1.9-2.2,2.2-3.6c0.1-0.3,0.1-0.7,0.1-1.1
		C72.4,58,72.3,57.6,72.3,57.2z M66.1,61.8c-2,0-3.6-1.6-3.6-3.6s1.6-3.6,3.6-3.6c2,0,3.6,1.6,3.6,3.6S68,61.8,66.1,61.8z"/>
</g>
</svg>
