<?xml version="1.0" encoding="iso-8859-1"?>
<!-- Generator: Adobe Illustrator 18.1.1, SVG Export Plug-In . SVG Version: 6.00 Build 0)  -->
<!DOCTYPE svg PUBLIC "-//W3C//DTD SVG 1.1//EN" "http://www.w3.org/Graphics/SVG/1.1/DTD/svg11.dtd">
<svg version="1.1" xmlns="http://www.w3.org/2000/svg" xmlns:xlink="http://www.w3.org/1999/xlink" x="0px" y="0px"
	 viewBox="0 0 140 105" style="enable-background:new 0 0 140 105;" xml:space="preserve">
<g id="readybox">
	<g>
		<path style="fill:#29AAE1;" d="M10.303,59.651V42.292c0-0.736,0.368-1.102,1.103-1.102h5.374c4.573,0,6.861,1.725,6.861,5.181
			c0,1.028-0.289,1.923-0.868,2.685c-0.578,0.762-1.364,1.329-2.355,1.694v0.11c0.348,0.13,0.707,0.436,1.075,0.923
			c0.367,0.487,0.67,1.025,0.909,1.612l2.425,6.062c0.092,0.238,0.137,0.414,0.137,0.524c0,0.368-0.551,0.55-1.653,0.55h-1.13
			c-0.919,0-1.452-0.193-1.598-0.578l-2.177-5.374c-0.313-0.606-0.649-1.031-1.007-1.28c-0.358-0.246-0.95-0.371-1.778-0.371h-1.074
			v6.722c0,0.589-0.551,0.881-1.654,0.881h-0.936C10.856,60.532,10.303,60.24,10.303,59.651z M14.548,49.263h2.617
			c0.569,0,1.065-0.229,1.489-0.688c0.422-0.459,0.633-1.017,0.633-1.668c0-0.652-0.207-1.167-0.62-1.544
			c-0.412-0.374-0.977-0.564-1.694-0.564h-2.425V49.263z"/>
		<path style="fill:#29AAE1;" d="M28.427,58.756c-1.185-1.295-1.778-3.164-1.778-5.606c0-2.445,0.592-4.272,1.778-5.484
			c1.185-1.212,2.811-1.819,4.878-1.819c2.066,0,3.582,0.66,4.546,1.983c0.965,1.323,1.446,3.031,1.446,5.127
			c0,0.218-0.188,0.547-0.564,0.977c-0.377,0.431-0.657,0.646-0.841,0.646h-7.026c0.092,1.048,0.404,1.793,0.936,2.232
			c0.533,0.442,1.212,0.66,2.04,0.66c0.827,0,1.616-0.142,2.37-0.425c0.753-0.283,1.139-0.428,1.159-0.428
			c0.275,0,0.582,0.272,0.922,0.813c0.34,0.541,0.51,0.969,0.51,1.28c0,0.606-0.574,1.091-1.722,1.448
			c-1.149,0.36-2.228,0.538-3.238,0.538C31.417,60.699,29.613,60.05,28.427,58.756z M35.33,51.852c0-0.844-0.166-1.518-0.496-2.025
			c-0.331-0.504-0.827-0.756-1.489-0.756c-1.36,0-2.187,0.926-2.48,2.782H35.33z"/>
		<path style="fill:#29AAE1;" d="M41.552,56.676c0-0.516,0.045-0.983,0.137-1.405c0.092-0.422,0.303-0.878,0.635-1.365
			c0.33-0.487,0.772-0.887,1.323-1.198c1.304-0.77,3.242-1.159,5.814-1.159V50.64c0-1.045-0.717-1.569-2.15-1.569
			c-1.01,0-1.993,0.221-2.947,0.66c-0.331,0.147-0.524,0.221-0.579,0.221c-0.275,0-0.584-0.283-0.923-0.853
			c-0.34-0.569-0.51-1.02-0.51-1.351c0-0.496,0.51-0.938,1.53-1.323c1.02-0.385,2.265-0.578,3.733-0.578
			c3.95,0,5.926,1.532,5.926,4.6v5.181c0,1.139,0.054,2.093,0.164,2.867l0.166,1.127c0,0.295-0.372,0.516-1.116,0.663
			s-1.3,0.221-1.667,0.221c-0.368,0-0.61-0.037-0.731-0.11c-0.119-0.074-0.215-0.198-0.289-0.374
			c-0.074-0.173-0.129-0.312-0.166-0.411c-0.037-0.102-0.078-0.28-0.123-0.538c-0.047-0.258-0.079-0.414-0.096-0.47
			c-0.331,0.589-0.901,1.085-1.71,1.49c-0.809,0.402-1.589,0.606-2.341,0.606c-1.415,0-2.449-0.368-3.1-1.102
			C41.878,58.86,41.552,57.889,41.552,56.676z M45.603,56.263c0,0.368,0.119,0.66,0.358,0.881c0.239,0.221,0.596,0.329,1.075,0.329
			c0.477,0,0.946-0.164,1.405-0.493c0.459-0.331,0.799-0.745,1.02-1.241v-1.515C46.889,54.223,45.603,54.903,45.603,56.263z"/>
		<path style="fill:#29AAE1;" d="M61.9,60.699c-1.524,0-2.765-0.657-3.719-1.972c-0.956-1.312-1.433-3.122-1.433-5.427
			s0.51-4.124,1.53-5.456c1.02-1.331,2.447-1.997,4.284-1.997c1.085,0,2.021,0.283,2.811,0.853v-6.116
			c0-0.589,0.551-0.884,1.653-0.884h0.772c1.102,0,1.653,0.295,1.653,0.884v15.044c0,1.139,0.055,2.093,0.166,2.867l0.166,1.127
			c0,0.295-0.372,0.516-1.116,0.663c-0.744,0.147-1.3,0.221-1.667,0.221c-0.368,0-0.612-0.037-0.731-0.11s-0.215-0.193-0.289-0.36
			c-0.074-0.164-0.129-0.303-0.166-0.414c-0.037-0.108-0.078-0.289-0.123-0.535c-0.047-0.249-0.079-0.399-0.096-0.456
			c-0.331,0.606-0.823,1.102-1.474,1.49C63.466,60.506,62.727,60.699,61.9,60.699z M63.112,57.365c0.882,0,1.636-0.541,2.26-1.626
			v-6.144c-0.625-0.348-1.268-0.524-1.929-0.524c-1.708,0-2.562,1.382-2.562,4.147S61.625,57.365,63.112,57.365z"/>
		<path style="fill:#29AAE1;" d="M71.9,46.617c0-0.405,0.559-0.606,1.681-0.606h0.881c0.898,0,1.414,0.193,1.544,0.578l1.626,5.099
			c0.164,0.516,0.422,1.626,0.77,3.334h0.11c0.365-1.762,0.626-2.875,0.773-3.334l1.626-5.099c0.125-0.385,0.64-0.578,1.541-0.578
			h0.663c1.099,0,1.654,0.201,1.654,0.606c0,0.13-0.028,0.295-0.085,0.496l-6.311,18.464c-0.147,0.385-0.66,0.578-1.541,0.578h-0.47
			c-1.102,0-1.654-0.193-1.654-0.578c0-0.167,0.04-0.331,0.113-0.496l1.734-4.603l-4.546-13.365
			C71.936,46.855,71.9,46.691,71.9,46.617z"/>
		<path style="fill:#29AAE1;" d="M87.19,59.651V40.584c0-0.589,0.55-0.884,1.654-0.884h0.77c1.102,0,1.654,0.295,1.654,0.884V46.7
			c0.787-0.569,1.728-0.853,2.81-0.853c1.836,0,3.266,0.666,4.286,1.997c1.017,1.331,1.527,3.15,1.527,5.456
			s-0.476,4.116-1.431,5.427c-0.955,1.314-2.195,1.972-3.719,1.972c-0.827,0-1.569-0.193-2.221-0.578
			c-0.652-0.388-1.144-0.884-1.473-1.49l-0.278,1.187c-0.108,0.476-0.64,0.714-1.598,0.714h-0.329
			C87.739,60.532,87.19,60.24,87.19,59.651z M93.529,57.365c1.487,0,2.232-1.382,2.232-4.147s-0.855-4.147-2.564-4.147
			c-0.66,0-1.306,0.176-1.929,0.524v6.144C91.892,56.824,92.646,57.365,93.529,57.365z"/>
		<path style="fill:#29AAE1;" d="M104.265,58.784c-1.139-1.278-1.705-3.119-1.705-5.524c0-2.408,0.567-4.246,1.705-5.512
			c1.142-1.269,2.804-1.901,4.991-1.901c2.184,0,3.841,0.632,4.974,1.901c1.127,1.266,1.694,3.105,1.694,5.512
			c0,2.405-0.567,4.246-1.694,5.524c-1.133,1.278-2.79,1.915-4.974,1.915C107.07,60.699,105.407,60.061,104.265,58.784z
			 M106.693,53.271c0,2.802,0.847,4.201,2.547,4.201s2.549-1.399,2.549-4.201c0-2.802-0.85-4.201-2.549-4.201
			S106.693,50.47,106.693,53.271z"/>
		<path style="fill:#29AAE1;" d="M117.216,60.036c0-0.144,0.102-0.374,0.306-0.688l4.158-6.172l-3.912-5.951
			c-0.201-0.312-0.303-0.55-0.303-0.717c0-0.331,0.578-0.496,1.736-0.496h0.881c0.901,0,1.462,0.176,1.683,0.524l2.093,3.388
			l2.178-3.388c0.221-0.348,0.779-0.524,1.68-0.524h0.796c1.161,0,1.739,0.164,1.739,0.496c0,0.147-0.102,0.377-0.306,0.688
			l-4.022,5.954l4.079,6.17c0.204,0.314,0.3,0.552,0.3,0.717c0,0.331-0.578,0.496-1.734,0.496h-0.878
			c-0.901,0-1.462-0.173-1.683-0.521l-2.26-3.609l-2.286,3.609c-0.221,0.348-0.782,0.521-1.68,0.521h-0.827
			C117.797,60.532,117.216,60.367,117.216,60.036z"/>
	</g>
</g>
<g id="Layer_1">
</g>
</svg>
