<?xml version="1.0" encoding="iso-8859-1"?>
<!-- Generator: Adobe Illustrator 18.1.1, SVG Export Plug-In . SVG Version: 6.00 Build 0)  -->
<!DOCTYPE svg PUBLIC "-//W3C//DTD SVG 1.1//EN" "http://www.w3.org/Graphics/SVG/1.1/DTD/svg11.dtd">
<svg version="1.1" xmlns="http://www.w3.org/2000/svg" xmlns:xlink="http://www.w3.org/1999/xlink" x="0px" y="0px"
	 viewBox="0 0 140 105" style="enable-background:new 0 0 140 105;" xml:space="preserve">
<g id="learntocode">
	<g>
		<path style="fill:#D9182A;" d="M17.157,57.724c0.303,0,0.566-0.038,0.787-0.113c0.222-0.077,0.416-0.188,0.581-0.339
			c0.166-0.149,0.31-0.337,0.434-0.564c0.125-0.227,0.239-0.493,0.342-0.796l0.299-0.886h1.065l-0.918,3.714H10l0.178-0.886h0.221
			c0.173,0,0.342-0.01,0.508-0.034c0.164-0.021,0.315-0.067,0.45-0.137s0.253-0.171,0.354-0.301c0.099-0.13,0.171-0.303,0.215-0.52
			l1.696-7.985c0.072-0.287,0.106-0.476,0.106-0.569c0-0.119-0.029-0.216-0.089-0.292s-0.142-0.134-0.248-0.174
			c-0.106-0.041-0.233-0.068-0.381-0.081c-0.149-0.014-0.31-0.021-0.484-0.021h-0.21l0.178-0.877h5.743L18.05,47.74h-0.21
			c-0.185,0-0.363,0.012-0.532,0.037c-0.171,0.024-0.327,0.072-0.469,0.142c-0.14,0.07-0.262,0.174-0.364,0.309
			c-0.103,0.135-0.176,0.311-0.221,0.528l-1.876,8.969H17.157z"/>
		<path style="fill:#D9182A;" d="M26.531,57.642c0.27,0,0.527-0.038,0.771-0.116c0.243-0.079,0.47-0.181,0.679-0.31
			c0.207-0.128,0.395-0.272,0.559-0.431c0.166-0.159,0.308-0.323,0.428-0.491c0.065,0.082,0.116,0.185,0.154,0.311
			c0.038,0.128,0.056,0.263,0.056,0.404c0,0.2-0.065,0.41-0.195,0.633c-0.13,0.222-0.328,0.428-0.597,0.614
			c-0.268,0.186-0.609,0.34-1.023,0.463c-0.416,0.121-0.906,0.181-1.476,0.181c-0.508,0-0.987-0.068-1.437-0.21
			s-0.845-0.354-1.182-0.638c-0.339-0.284-0.605-0.641-0.8-1.072c-0.195-0.429-0.292-0.935-0.292-1.514
			c0-0.412,0.053-0.842,0.162-1.292c0.108-0.45,0.268-0.889,0.482-1.32c0.214-0.43,0.481-0.839,0.797-1.226s0.684-0.728,1.1-1.02
			c0.417-0.292,0.884-0.523,1.402-0.694c0.516-0.17,1.081-0.256,1.693-0.256c0.797,0,1.414,0.172,1.852,0.516
			c0.44,0.345,0.658,0.824,0.658,1.442c0,0.45-0.125,0.881-0.375,1.292c-0.248,0.411-0.592,0.773-1.031,1.084
			c-0.438,0.312-0.961,0.559-1.568,0.743c-0.605,0.185-1.267,0.277-1.982,0.277c-0.091,0-0.192,0-0.299,0
			c-0.109,0-0.214-0.006-0.318-0.017c-0.015,0.109-0.026,0.219-0.027,0.329c-0.003,0.111-0.005,0.213-0.005,0.305
			c0,0.644,0.15,1.142,0.451,1.49C25.47,57.468,25.923,57.642,26.531,57.642z M27.115,50.657c-0.272,0-0.528,0.101-0.773,0.304
			c-0.243,0.203-0.462,0.467-0.657,0.792c-0.195,0.325-0.363,0.689-0.505,1.093c-0.14,0.404-0.243,0.803-0.308,1.198h0.145
			c0.412,0,0.795-0.054,1.149-0.162c0.356-0.109,0.664-0.264,0.927-0.467c0.262-0.204,0.469-0.446,0.617-0.728
			c0.149-0.281,0.222-0.598,0.222-0.95c0-0.341-0.072-0.606-0.214-0.796C27.577,50.751,27.375,50.657,27.115,50.657z"/>
		<path style="fill:#D9182A;" d="M38.553,58.901c-0.493,0-0.888-0.113-1.187-0.335c-0.298-0.226-0.446-0.554-0.446-0.988
			c0-0.173,0.009-0.342,0.024-0.506c0.017-0.166,0.046-0.357,0.091-0.575H36.92c-0.205,0.387-0.41,0.729-0.612,1.03
			c-0.204,0.299-0.429,0.551-0.679,0.754c-0.25,0.204-0.527,0.357-0.833,0.463c-0.306,0.106-0.662,0.157-1.069,0.157
			c-0.395,0-0.741-0.075-1.04-0.231c-0.298-0.154-0.546-0.368-0.742-0.638c-0.198-0.27-0.347-0.592-0.446-0.961
			c-0.101-0.373-0.15-0.773-0.15-1.207c0-0.434,0.05-0.887,0.15-1.36c0.099-0.474,0.25-0.941,0.45-1.401
			c0.2-0.46,0.448-0.899,0.744-1.316c0.294-0.417,0.636-0.782,1.023-1.096c0.388-0.315,0.819-0.565,1.296-0.752
			c0.477-0.187,0.997-0.28,1.56-0.28c0.217,0,0.438,0.018,0.662,0.053c0.224,0.035,0.44,0.08,0.646,0.134
			c0.205,0.054,0.398,0.115,0.58,0.182c0.181,0.068,0.335,0.137,0.46,0.208l0.877-0.398h0.884l-1.096,5.19
			c-0.021,0.092-0.048,0.215-0.08,0.366c-0.032,0.151-0.065,0.313-0.094,0.483c-0.029,0.171-0.055,0.336-0.077,0.496
			c-0.022,0.159-0.032,0.292-0.032,0.402c0,0.277,0.055,0.482,0.162,0.617c0.108,0.135,0.25,0.204,0.422,0.204
			c0.157,0,0.308-0.034,0.451-0.103c0.142-0.067,0.301-0.15,0.474-0.246l0.366,0.665c-0.14,0.108-0.301,0.221-0.479,0.337
			c-0.18,0.116-0.378,0.222-0.597,0.322c-0.219,0.096-0.458,0.178-0.715,0.239C39.128,58.87,38.851,58.901,38.553,58.901z
			 M33.874,55.88c0,0.32,0.022,0.587,0.068,0.805c0.046,0.215,0.109,0.39,0.188,0.523c0.077,0.133,0.173,0.227,0.284,0.284
			c0.111,0.058,0.231,0.086,0.361,0.086c0.245,0,0.496-0.106,0.756-0.316c0.26-0.21,0.503-0.487,0.73-0.833
			c0.227-0.344,0.433-0.732,0.614-1.165c0.181-0.434,0.318-0.872,0.41-1.316l0.585-2.762c-0.108-0.157-0.258-0.274-0.451-0.35
			c-0.192-0.075-0.397-0.113-0.612-0.113c-0.325,0-0.623,0.084-0.889,0.251c-0.268,0.168-0.511,0.392-0.729,0.674
			c-0.215,0.282-0.407,0.602-0.571,0.959c-0.166,0.357-0.304,0.728-0.416,1.112c-0.111,0.385-0.193,0.764-0.248,1.137
			C33.901,55.23,33.874,55.571,33.874,55.88z"/>
		<path style="fill:#D9182A;" d="M44.074,51.282c0-0.206-0.068-0.353-0.204-0.443c-0.135-0.089-0.361-0.134-0.674-0.134h-0.301
			l0.145-0.885h3.68l-0.349,2.282h0.08c0.19-0.4,0.381-0.752,0.573-1.055c0.193-0.304,0.404-0.558,0.634-0.764
			c0.229-0.205,0.491-0.361,0.783-0.467c0.292-0.105,0.634-0.158,1.024-0.158c0.59,0,1.028,0.111,1.315,0.333
			c0.287,0.222,0.431,0.545,0.431,0.967c0,0.574-0.168,1.002-0.505,1.283c-0.335,0.281-0.823,0.422-1.462,0.422
			c0-0.249-0.012-0.475-0.036-0.678c-0.024-0.204-0.068-0.376-0.13-0.52s-0.145-0.253-0.251-0.329
			c-0.106-0.076-0.238-0.114-0.395-0.114c-0.156,0-0.322,0.064-0.494,0.191c-0.174,0.127-0.347,0.302-0.52,0.524
			c-0.174,0.222-0.344,0.487-0.508,0.792c-0.166,0.306-0.323,0.64-0.475,1s-0.289,0.738-0.414,1.133
			c-0.125,0.395-0.231,0.796-0.318,1.202l-0.633,2.877h-2.511l1.414-6.686c0.015-0.092,0.036-0.215,0.06-0.366
			C44.062,51.537,44.074,51.401,44.074,51.282z"/>
		<path style="fill:#D9182A;" d="M57.909,57.196c0-0.477,0.089-1.137,0.267-1.982l0.268-1.316c0.022-0.109,0.05-0.241,0.082-0.398
			c0.032-0.156,0.065-0.321,0.097-0.491c0.032-0.171,0.06-0.341,0.086-0.512c0.024-0.17,0.036-0.323,0.036-0.459
			c0-0.103-0.01-0.21-0.029-0.325c-0.019-0.113-0.053-0.216-0.104-0.308c-0.053-0.092-0.123-0.168-0.212-0.227
			c-0.089-0.06-0.207-0.09-0.354-0.09c-0.188,0-0.376,0.064-0.564,0.191c-0.186,0.127-0.366,0.296-0.54,0.504
			c-0.173,0.209-0.337,0.447-0.494,0.715c-0.157,0.269-0.299,0.543-0.428,0.825c-0.127,0.281-0.236,0.558-0.328,0.828
			c-0.092,0.271-0.162,0.515-0.212,0.732l-0.845,3.859h-2.493l1.397-6.621c0.017-0.071,0.031-0.144,0.044-0.22
			c0.014-0.076,0.026-0.147,0.038-0.215c0.01-0.068,0.019-0.126,0.024-0.174s0.009-0.084,0.009-0.105
			c0-0.152-0.017-0.274-0.05-0.366s-0.084-0.162-0.154-0.211c-0.07-0.049-0.161-0.081-0.272-0.097
			c-0.111-0.016-0.245-0.025-0.402-0.025h-0.301l0.145-0.885h3.697l-0.188,1.779h0.106c0.212-0.331,0.429-0.617,0.655-0.862
			c0.224-0.243,0.467-0.445,0.727-0.605c0.26-0.16,0.542-0.279,0.848-0.357c0.306-0.079,0.643-0.118,1.011-0.118
			c0.352,0,0.65,0.051,0.891,0.155c0.239,0.103,0.434,0.242,0.585,0.418c0.149,0.176,0.255,0.379,0.32,0.609
			c0.065,0.231,0.097,0.473,0.097,0.728c0,0.14-0.009,0.291-0.027,0.451c-0.021,0.16-0.044,0.321-0.074,0.483
			c-0.031,0.162-0.063,0.325-0.097,0.487c-0.036,0.162-0.067,0.316-0.094,0.463l-0.373,1.779c-0.065,0.304-0.12,0.587-0.162,0.849
			c-0.044,0.263-0.065,0.51-0.065,0.742c0,0.245,0.05,0.431,0.15,0.561c0.099,0.13,0.245,0.195,0.434,0.195
			c0.173,0,0.332-0.031,0.475-0.096c0.142-0.065,0.31-0.161,0.499-0.286l0.397,0.559c-0.13,0.142-0.279,0.28-0.446,0.421
			c-0.168,0.137-0.356,0.26-0.564,0.369c-0.209,0.108-0.44,0.195-0.694,0.26s-0.534,0.096-0.836,0.096c-0.64,0-1.13-0.15-1.471-0.45
			C58.078,58.15,57.909,57.731,57.909,57.196z"/>
		<path style="fill:#D9182A;" d="M71.515,57.546c0.26,0,0.496-0.044,0.706-0.13c0.212-0.089,0.409-0.192,0.593-0.311l0.381,0.636
			c-0.183,0.156-0.378,0.304-0.58,0.445c-0.204,0.142-0.424,0.265-0.664,0.369c-0.238,0.106-0.494,0.192-0.766,0.253
			c-0.274,0.062-0.571,0.092-0.891,0.092c-0.303,0-0.585-0.038-0.848-0.116s-0.491-0.198-0.686-0.359
			c-0.195-0.157-0.349-0.359-0.46-0.605c-0.111-0.243-0.166-0.53-0.166-0.859c0-0.099,0.003-0.207,0.012-0.325
			c0.009-0.12,0.021-0.243,0.036-0.366c0.017-0.126,0.036-0.249,0.058-0.37c0.021-0.122,0.043-0.234,0.065-0.337l0.999-4.606h-1.284
			l0.18-0.853c0.238,0,0.498-0.041,0.78-0.122c0.282-0.081,0.569-0.214,0.865-0.398c0.294-0.185,0.59-0.426,0.886-0.723
			c0.294-0.298,0.571-0.661,0.831-1.089h0.968L72.1,49.82h2.006l-0.227,1.137h-2.03l-1,4.557c-0.058,0.245-0.101,0.465-0.125,0.663
			c-0.024,0.197-0.038,0.375-0.038,0.532c0,0.277,0.077,0.486,0.227,0.626C71.065,57.474,71.266,57.546,71.515,57.546z"/>
		<path style="fill:#D9182A;" d="M74.532,55.409c0-0.417,0.05-0.847,0.147-1.292c0.097-0.444,0.245-0.88,0.443-1.307
			c0.197-0.428,0.445-0.833,0.742-1.214c0.298-0.382,0.648-0.717,1.052-1.003c0.404-0.287,0.862-0.515,1.373-0.682
			c0.511-0.168,1.079-0.252,1.702-0.252c0.477,0,0.927,0.067,1.349,0.199c0.422,0.133,0.79,0.339,1.105,0.621
			c0.313,0.282,0.563,0.644,0.747,1.085c0.183,0.441,0.275,0.971,0.275,1.588c0,0.401-0.046,0.821-0.137,1.259
			c-0.092,0.44-0.236,0.871-0.428,1.296c-0.192,0.425-0.436,0.832-0.73,1.219c-0.296,0.387-0.643,0.727-1.045,1.019
			c-0.4,0.292-0.855,0.525-1.365,0.698c-0.508,0.174-1.077,0.26-1.705,0.26c-0.52,0-0.997-0.072-1.43-0.215
			c-0.434-0.142-0.804-0.359-1.113-0.65c-0.308-0.287-0.549-0.653-0.723-1.091C74.619,56.507,74.532,55.993,74.532,55.409z
			 M78.359,57.707c0.298,0,0.566-0.086,0.807-0.257c0.241-0.169,0.458-0.393,0.65-0.674c0.192-0.277,0.359-0.596,0.499-0.953
			c0.142-0.357,0.257-0.726,0.345-1.105c0.089-0.38,0.157-0.752,0.204-1.118c0.046-0.365,0.068-0.694,0.068-0.987
			c0-0.655-0.113-1.126-0.337-1.413c-0.224-0.287-0.532-0.431-0.922-0.431c-0.282,0-0.542,0.082-0.78,0.245
			c-0.238,0.162-0.453,0.379-0.646,0.65c-0.192,0.27-0.361,0.581-0.506,0.929c-0.147,0.35-0.27,0.711-0.371,1.085
			c-0.099,0.373-0.174,0.746-0.222,1.117c-0.05,0.371-0.074,0.711-0.074,1.019c0,0.678,0.115,1.16,0.342,1.455
			C77.645,57.56,77.957,57.707,78.359,57.707z"/>
		<path style="fill:#D9182A;" d="M95.157,57.505c0.385,0,0.732-0.044,1.04-0.13c0.31-0.087,0.585-0.202,0.829-0.345
			c0.243-0.144,0.457-0.304,0.641-0.484c0.183-0.18,0.345-0.363,0.487-0.552c0.065,0.049,0.128,0.125,0.19,0.227
			c0.063,0.103,0.094,0.217,0.094,0.34c0,0.277-0.084,0.554-0.251,0.835c-0.168,0.277-0.416,0.53-0.744,0.754
			c-0.328,0.224-0.732,0.405-1.214,0.546c-0.482,0.137-1.036,0.205-1.666,0.205c-0.795,0-1.507-0.099-2.133-0.296
			c-0.624-0.197-1.153-0.487-1.584-0.869c-0.431-0.381-0.759-0.85-0.987-1.406c-0.227-0.555-0.34-1.187-0.34-1.897
			c0-0.666,0.077-1.321,0.234-1.966c0.157-0.645,0.385-1.256,0.682-1.836c0.298-0.58,0.662-1.112,1.093-1.6
			c0.431-0.487,0.918-0.91,1.462-1.267c0.544-0.357,1.142-0.637,1.792-0.837c0.65-0.2,1.344-0.3,2.086-0.3
			c0.552,0,1.036,0.047,1.45,0.142c0.414,0.095,0.758,0.227,1.031,0.398c0.274,0.171,0.479,0.38,0.614,0.626
			c0.135,0.246,0.204,0.518,0.204,0.817c0,0.243-0.06,0.457-0.18,0.641c-0.118,0.184-0.282,0.34-0.491,0.467
			c-0.209,0.127-0.457,0.224-0.744,0.289c-0.287,0.065-0.599,0.097-0.934,0.097c0-0.233-0.015-0.491-0.048-0.772
			c-0.032-0.281-0.099-0.545-0.2-0.788c-0.101-0.245-0.243-0.447-0.426-0.61c-0.185-0.162-0.431-0.244-0.739-0.244
			c-0.44,0-0.845,0.1-1.216,0.301c-0.371,0.2-0.71,0.472-1.014,0.816c-0.306,0.345-0.578,0.744-0.812,1.199
			c-0.236,0.455-0.434,0.935-0.593,1.442c-0.161,0.506-0.282,1.024-0.366,1.551c-0.084,0.528-0.125,1.039-0.125,1.531
			c0,0.947,0.239,1.68,0.722,2.198C93.486,57.245,94.204,57.505,95.157,57.505z"/>
		<path style="fill:#D9182A;" d="M100.359,55.409c0-0.417,0.048-0.847,0.145-1.292c0.097-0.444,0.245-0.88,0.443-1.307
			c0.198-0.428,0.446-0.833,0.744-1.214c0.298-0.382,0.648-0.717,1.052-1.003c0.404-0.287,0.86-0.515,1.373-0.682
			c0.511-0.168,1.079-0.252,1.702-0.252c0.475,0,0.925,0.067,1.348,0.199c0.422,0.133,0.792,0.339,1.105,0.621
			c0.315,0.282,0.564,0.644,0.747,1.085c0.185,0.441,0.277,0.971,0.277,1.588c0,0.401-0.046,0.821-0.139,1.259
			c-0.092,0.44-0.234,0.871-0.426,1.296c-0.193,0.425-0.436,0.832-0.732,1.219s-0.643,0.727-1.043,1.019
			c-0.402,0.292-0.857,0.525-1.365,0.698c-0.51,0.174-1.077,0.26-1.707,0.26c-0.52,0-0.995-0.072-1.43-0.215
			c-0.433-0.142-0.804-0.359-1.113-0.65c-0.308-0.287-0.549-0.653-0.722-1.091C100.445,56.507,100.359,55.993,100.359,55.409z
			 M104.185,57.707c0.298,0,0.568-0.086,0.809-0.257c0.239-0.169,0.457-0.393,0.65-0.674c0.192-0.277,0.357-0.596,0.499-0.953
			c0.14-0.357,0.255-0.726,0.345-1.105c0.089-0.38,0.156-0.752,0.202-1.118c0.046-0.365,0.07-0.694,0.07-0.987
			c0-0.655-0.113-1.126-0.337-1.413c-0.226-0.287-0.534-0.431-0.923-0.431c-0.28,0-0.54,0.082-0.78,0.245
			c-0.238,0.162-0.453,0.379-0.645,0.65c-0.193,0.27-0.363,0.581-0.508,0.929c-0.147,0.35-0.27,0.711-0.369,1.085
			c-0.101,0.373-0.174,0.746-0.224,1.117c-0.048,0.371-0.074,0.711-0.074,1.019c0,0.678,0.115,1.16,0.342,1.455
			C103.47,57.56,103.785,57.707,104.185,57.707z"/>
		<path style="fill:#D9182A;" d="M119.022,55.165c-0.017,0.081-0.039,0.197-0.07,0.345c-0.029,0.149-0.058,0.304-0.084,0.467
			c-0.027,0.162-0.051,0.322-0.07,0.478c-0.019,0.157-0.027,0.287-0.027,0.39c0,0.26,0.058,0.451,0.178,0.571
			c0.12,0.118,0.255,0.178,0.407,0.178c0.14,0,0.296-0.038,0.467-0.113c0.169-0.077,0.323-0.156,0.458-0.236l0.366,0.65
			c-0.147,0.118-0.311,0.238-0.496,0.356c-0.185,0.12-0.387,0.229-0.605,0.325c-0.219,0.099-0.457,0.178-0.71,0.236
			c-0.255,0.06-0.527,0.089-0.812,0.089c-0.245,0-0.467-0.027-0.667-0.086c-0.2-0.055-0.373-0.139-0.516-0.246
			c-0.144-0.109-0.255-0.246-0.332-0.41c-0.079-0.164-0.118-0.359-0.118-0.581c0-0.103,0.002-0.195,0.009-0.277
			c0.005-0.079,0.012-0.161,0.019-0.239c0.009-0.077,0.019-0.161,0.032-0.25c0.014-0.091,0.032-0.195,0.053-0.315h-0.097
			c-0.205,0.428-0.422,0.794-0.65,1.098c-0.227,0.303-0.47,0.551-0.727,0.746c-0.257,0.195-0.534,0.339-0.828,0.428
			c-0.296,0.089-0.614,0.133-0.954,0.133c-0.429,0-0.795-0.08-1.101-0.243s-0.558-0.383-0.756-0.657
			c-0.198-0.277-0.342-0.599-0.434-0.968c-0.092-0.369-0.139-0.759-0.139-1.17c0-0.434,0.05-0.887,0.15-1.36
			c0.101-0.474,0.25-0.941,0.446-1.401c0.198-0.46,0.441-0.899,0.732-1.316c0.289-0.417,0.624-0.782,1.004-1.096
			c0.378-0.315,0.799-0.565,1.262-0.752c0.463-0.187,0.968-0.28,1.515-0.28c0.325,0,0.628,0.035,0.91,0.105
			c0.282,0.071,0.53,0.168,0.747,0.292c0.017-0.07,0.032-0.152,0.05-0.247c0.015-0.095,0.032-0.19,0.051-0.285
			c0.019-0.094,0.038-0.184,0.058-0.268c0.019-0.084,0.032-0.15,0.044-0.199l0.145-0.666c0.017-0.07,0.032-0.144,0.05-0.22
			c0.015-0.075,0.029-0.147,0.041-0.215c0.01-0.068,0.019-0.126,0.024-0.175c0.005-0.048,0.009-0.084,0.009-0.105
			c0-0.151-0.017-0.274-0.05-0.365c-0.032-0.092-0.084-0.162-0.154-0.212c-0.07-0.048-0.162-0.08-0.277-0.097
			c-0.113-0.015-0.248-0.024-0.405-0.024h-0.381l0.154-0.877h4.005L119.022,55.165z M113.345,55.88c0,0.314,0.022,0.579,0.068,0.796
			c0.046,0.217,0.108,0.392,0.186,0.525c0.079,0.132,0.173,0.227,0.284,0.287c0.111,0.06,0.233,0.089,0.363,0.089
			c0.243,0,0.494-0.106,0.751-0.316c0.257-0.21,0.499-0.487,0.727-0.829c0.227-0.34,0.433-0.728,0.614-1.16
			c0.181-0.434,0.322-0.875,0.419-1.325l0.585-2.762c-0.12-0.151-0.282-0.267-0.487-0.345c-0.207-0.078-0.41-0.117-0.611-0.117
			c-0.313,0-0.604,0.085-0.869,0.256c-0.265,0.17-0.505,0.395-0.718,0.674c-0.215,0.28-0.404,0.599-0.569,0.959
			c-0.166,0.361-0.301,0.731-0.41,1.113c-0.108,0.381-0.19,0.761-0.248,1.137C113.372,55.237,113.345,55.576,113.345,55.88z"/>
		<path style="fill:#D9182A;" d="M126.207,57.642c0.27,0,0.527-0.038,0.771-0.116c0.243-0.079,0.469-0.181,0.677-0.31
			c0.209-0.128,0.395-0.272,0.561-0.431c0.166-0.159,0.308-0.323,0.426-0.491c0.065,0.082,0.118,0.185,0.156,0.311
			c0.038,0.128,0.056,0.263,0.056,0.404c0,0.2-0.065,0.41-0.195,0.633c-0.13,0.222-0.328,0.428-0.597,0.614s-0.609,0.34-1.024,0.463
			c-0.414,0.121-0.905,0.181-1.474,0.181c-0.51,0-0.988-0.068-1.438-0.21s-0.843-0.354-1.182-0.638s-0.605-0.641-0.8-1.072
			c-0.195-0.429-0.292-0.935-0.292-1.514c0-0.412,0.055-0.842,0.162-1.292c0.109-0.45,0.27-0.889,0.484-1.32
			c0.214-0.43,0.479-0.839,0.795-1.226c0.318-0.387,0.684-0.728,1.101-1.02c0.417-0.292,0.884-0.523,1.402-0.694
			c0.516-0.17,1.081-0.256,1.693-0.256c0.797,0,1.413,0.172,1.852,0.516c0.44,0.345,0.658,0.824,0.658,1.442
			c0,0.45-0.125,0.881-0.375,1.292c-0.248,0.411-0.593,0.773-1.031,1.084c-0.438,0.312-0.961,0.559-1.568,0.743
			c-0.607,0.185-1.267,0.277-1.982,0.277c-0.092,0-0.192,0-0.301,0c-0.108,0-0.214-0.006-0.316-0.017
			c-0.015,0.109-0.026,0.219-0.029,0.329c-0.002,0.111-0.003,0.213-0.003,0.305c0,0.644,0.15,1.142,0.451,1.49
			C125.147,57.468,125.6,57.642,126.207,57.642z M126.792,50.657c-0.272,0-0.528,0.101-0.773,0.304
			c-0.243,0.203-0.462,0.467-0.657,0.792c-0.195,0.325-0.363,0.689-0.505,1.093c-0.142,0.404-0.245,0.803-0.31,1.198h0.147
			c0.41,0,0.794-0.054,1.149-0.162c0.356-0.109,0.664-0.264,0.927-0.467c0.262-0.204,0.467-0.446,0.617-0.728
			c0.149-0.281,0.222-0.598,0.222-0.95c0-0.341-0.072-0.606-0.215-0.796S127.052,50.657,126.792,50.657z"/>
	</g>
</g>
<g id="Layer_1">
</g>
</svg>
