<?xml version="1.0" encoding="utf-8"?>
<!-- Generator: Adobe Illustrator 18.1.1, SVG Export Plug-In . SVG Version: 6.00 Build 0)  -->
<!DOCTYPE svg PUBLIC "-//W3C//DTD SVG 1.1//EN" "http://www.w3.org/Graphics/SVG/1.1/DTD/svg11.dtd">
<svg version="1.1" id="Layer_1" xmlns="http://www.w3.org/2000/svg" xmlns:xlink="http://www.w3.org/1999/xlink" x="0px" y="0px"
	 viewBox="16 2 64 30" enable-background="new 16 2 64 30" xml:space="preserve">
<path fill="#999999" d="M79.9,12.3c0,0,0-0.1,0.1-0.1c0,0,0,0,0-0.1c0,0,0-0.1,0-0.1c0,0,0,0,0,0c0,0,0,0,0,0c0,0,0-0.1,0-0.1
	c0,0,0,0,0-0.1c0,0,0,0,0,0c0,0-0.1-0.1-0.1-0.1c0,0,0,0,0,0c-0.1,0-0.1-0.1-0.2-0.1c0,0,0,0-0.1,0c0,0-0.1,0-0.1,0c0,0,0,0,0,0
	H66.7l-5.2-2.8L60,3.8c0,0,0,0,0,0c0,0,0,0,0,0c0-0.1-0.1-0.1-0.1-0.1c0,0,0-0.1-0.1-0.1c-0.1-0.1-0.2-0.1-0.3-0.1l-6.3-1
	c0,0-0.1,0-0.1,0c0,0-0.1,0-0.1,0c-0.1,0-0.1,0-0.2,0.1c0,0,0,0-0.1,0l-4.4,3.6l-3,0.2l-5.8-4.2C39.3,2,39.1,2,39,2
	c-0.2,0-0.3,0.2-0.4,0.3l-3.3,6.3l-6.1-0.9c0,0,0,0,0,0c0,0,0,0,0,0c0,0-0.1,0-0.1,0c0,0,0,0-0.1,0l-12.4,2.4
	c-0.2,0-0.4,0.2-0.5,0.4c-0.1,0.2,0,0.4,0.1,0.6l2.9,3.7l-0.8,2.7c0,0.1,0,0.1,0,0.2c0,0,0,0,0,0.1c0,0.1,0,0.2,0.1,0.3c0,0,0,0,0,0
	c0,0,0,0,0,0l2.3,2.8l-1.6,5.1c-0.1,0.2,0,0.5,0.2,0.6c0.1,0.1,0.3,0.1,0.4,0.1c0.1,0,0.2,0,0.3-0.1l7.7-3.5l3.2-1.4l1.4,3.8
	l-0.9,5.5c0,0,0,0,0,0c0,0,0,0.1,0,0.1c0,0,0,0.1,0,0.1c0,0,0,0.1,0,0.1c0,0,0,0.1,0,0.1c0,0,0,0,0,0c0,0,0,0,0,0
	c0,0.1,0.1,0.1,0.2,0.2c0,0,0,0,0,0c0,0,0,0,0,0c0.1,0,0.2,0.1,0.3,0.1c0.1,0,0.1,0,0.2,0l9.9-3.5l5.4,3.8c0,0,0,0,0,0
	c0.1,0.1,0.2,0.1,0.3,0.1c0,0,0,0,0,0h11c0,0,0,0,0,0c0,0,0,0,0,0c0,0,0,0,0,0c0,0,0,0,0,0c0.2,0,0.3-0.1,0.4-0.2L71.7,22
	c0,0,0,0,0,0c0,0,0,0,0.1,0L79.9,12.3C79.9,12.3,79.9,12.3,79.9,12.3C79.9,12.3,79.9,12.3,79.9,12.3z M27.4,21.7l-2.3-2.1l-1-0.9
	l1.7,0.3l5.7,1l-0.7,0.3c0,0,0,0,0,0L27.4,21.7z M52.7,7.3l0.2,3.1l-0.5-0.5l-3.1-3.1l3.1-2.5L52.7,7.3z M66.6,16.7l0.5-4l3.4,1
	l-2.8,2.2L66.6,16.7z M70.8,20.5l-4-2.4l4.2-3.2L70.8,20.5z M28.9,9.5l3.5,7l-9,0.6L28.9,9.5z M61.1,10.5l3.6,6.9l-5.9-0.8l0.8-2.2
	L61.1,10.5z M54.1,16.2l0.1-2.7l2.9,3.3L53.9,19L54.1,16.2z M53,13.3l-0.3,5.8l-0.6-0.5l-2.9-2.2l3.6-3L53,13.3z M35.7,20.2
	l-1.5-0.9l-0.1-0.7L35.7,20.2z M34.8,17.5l11.5-0.4l-6.9,5.2L34.8,17.5z M48.2,22.3l0.5-4.8l1.7,1.3l1.7,1.3l-2.4,1.3L48.2,22.3z
	 M41,22.6l2.1-1.6l4.3-3.2l-0.6,5l-4.3-0.2L41,22.6z M54,20.4l0.9-0.6l2.5-1.7l0.2,3.3l0.4,7.1l-2.8-5.6L54,20.4z M60,10.1l-2.2,5.7
	l-3.1-3.6l0.6-0.3L60,10.1z M52.8,11.9l-3.9,3.2l0-1.4l0.2-5.6l1.9,2L52.8,11.9z M47.4,15.9l-8.9,0.3l-3.4,0.1L44.7,8l2.5,7.4
	L47.4,15.9z M35.9,14l0.2-4.2l6.6-1.6L35.9,14z M27.3,18l5.6-0.4l0.1,1.3l-1.4-0.2L27.3,18z M45.7,24l-3.5,2.6l-1.8-2.8L45.7,24z
	 M48.6,23.5l4.1-2.2l0.3-0.2l4.2,8.4L48.6,23.5z M59.2,29.2l-0.5-9.9l-0.1-1.6l5.9,0.8l0.3,0l-3.5,6.5L59.2,29.2z M47.8,9.2L47.7,13
	l-1.8-5.5l2-0.1L47.8,9.2z M33.3,25.4C33.3,25.4,33.3,25.4,33.3,25.4l0.7-4.8l4.3,2.6l-5.6,5.9L33.3,25.4z M39.2,24.1l1.8,2.8
	l0.1,0.2L34,29.6L39.2,24.1z M48.3,30.8l-0.2-6.2l8.7,6.2H48.3z M71.8,12.9l-0.9-0.3l-0.3-0.1h2.9L71.8,12.9z M65.4,16.1l-2.9-5.6
	l3.4,1.8L65.4,16.1z M55.4,10.6l0.1-0.2l3.7-5.1l1.1,3.3L55.4,10.6z M54.2,10.2l-0.4-6.5l4.6,0.7L54.2,10.2z M39.3,3.5l4.3,3.2
	l-6.9,1.7L39.3,3.5z M34.8,9.8l-1.6,5.5l-3.2-6.2L34.8,9.8z M27.6,9.2l-5.5,7.5l-4.5-5.6L27.6,9.2z M20.9,17.1L19.6,17l0.4-1.1
	L20.9,17.1z M21.4,18.3L21,19.3l-0.9-1.1L21.4,18.3z M22.5,18.8l3.7,3.4l-5.6,2.6L22.5,18.8z M32.8,20.7L32.5,23l-0.7-1.8L32.8,20.7
	z M43.1,27.4l3.8-2.8l0.2,5.6L43.1,27.4z M60.6,29.2L66,19l2,1.2l2.3,1.4L60.6,29.2z M72.4,14l1.5-0.3l3.9-0.8l-5.7,6.9L72.4,14z"/>
</svg>
