<svg xmlns="http://www.w3.org/2000/svg" viewBox="0 0 140 105" enable-background="new 0 0 140 105"><path d="M42.615 26.426c0-1.467.02-2.78-.008-4.09-.015-.7.217-1.03.964-1.01 1.373.034 2.748-.038 4.116.038.395.022.93.3 1.13.625 2.767 4.54 5.49 9.11 8.215 13.674.465.778.48.786.93.04 2.723-4.535 5.457-9.064 8.163-13.61.33-.552.718-.784 1.35-.77 1.344.03 2.69.026 4.032.003.64-.01.91.23.885.89-.038.948-.01 1.898-.01 3.064 2.82-3.402 6.385-4.67 10.508-4.476 4.15.194 7.425 2.027 9.89 5.72 0-1.563.037-2.868-.014-4.17-.03-.768.24-1.054 1.007-1.03 1.317.038 2.637-.042 3.947.04.432.026.988.287 1.24.626 4.49 6.012 8.94 12.05 13.4 18.084.207.282.418.56.797.78v-.89c-.007-5.823-.015-11.646-.02-17.47 0-1.132.027-1.156 1.19-1.16 1.344-.002 2.688.027 4.03-.01.755-.02 1.054.254 1.04 1.025-.035 1.873-.01 3.75-.01 5.625V50.57c0 1.334-.01 1.342-1.37 1.344-1.175.002-2.352-.03-3.526.012-.657.023-1.09-.203-1.477-.736-4.115-5.66-8.25-11.305-12.38-16.955-.51-.697-1.01-1.4-1.72-2.074v.935c.006 5.88.013 11.758.017 17.638 0 1.162-.016 1.178-1.166 1.18-1.37.005-2.743-.015-4.114.007-.648.01-.902-.248-.876-.9.036-.948.008-1.9.008-3.102-2.71 3.358-6.197 4.483-10.16 4.542-3.984.06-7.39-1.225-10.238-4.425 0 1.155-.037 2.042.01 2.924.042.75-.274.98-.984.962-1.37-.034-2.745-.046-4.115.004-.822.03-1.05-.297-1.04-1.083.07-5.485.11-10.97.156-16.456.006-.72 0-1.44-.15-2.222-.488.827-.98 1.65-1.46 2.48-1.727 2.978-3.462 5.952-5.166 8.943-.332.58-.73.824-1.41.8-2.804-.093-2.02.43-3.42-1.943-1.848-3.134-3.68-6.28-5.52-9.418-.137-.237-.29-.464-.622-.673 0 .287-.002.574 0 .86.055 5.823.113 11.644.163 17.466.01 1.185-.042 1.227-1.225 1.23-1.344.004-2.688-.02-4.03.008-.68.015-.974-.246-.952-.933.028-.888.007-1.778.007-2.735-.177.068-.27.075-.312.126-2.362 2.826-5.52 3.885-9.062 4.067-3.226.165-6.24-.466-8.868-2.462-2.045-1.553-3.42-3.59-4.285-5.993-.196-.545-.085-.825.495-.97 1.492-.38 2.98-.778 4.46-1.2.573-.165.843-.024 1.05.56 1.394 3.937 5.38 5.267 8.985 4.128 1.773-.56 2.722-2.12 2.257-3.768-.183-.647-.645-1.356-1.19-1.728-.933-.64-2.005-1.1-3.066-1.517-2.265-.887-4.594-1.618-6.83-2.57-1.086-.463-2.13-1.16-3.002-1.96-2.98-2.732-3.086-7.437-.276-10.416 3.235-3.43 7.296-4.293 11.773-3.505 3.326.587 5.93 2.383 7.864 5.38zm29.768 7.58c0 2.776.002 5.32-.002 7.862 0 .5.227.645.693.512.59-.17 1.205-.275 1.778-.49.764-.285 1.1-.084 1.4.705 1.615 4.23 6.15 5.028 9.258 3.767 1.2-.487 1.913-1.43 2-2.768.08-1.244-.48-2.157-1.52-2.787-.5-.303-1.006-.622-1.55-.822-1.678-.62-3.383-1.165-5.066-1.775-2.53-.918-5.037-1.884-6.987-4.205zm20.39 4.728c0-3.053-.005-5.874.005-8.694.002-.518-.25-.532-.644-.42-1.184.337-2.377.64-3.555.996-.553.166-.807 0-.994-.532-.806-2.303-2.535-3.5-4.877-3.803-1.52-.194-3.045-.07-4.29.99-1.377 1.174-1.36 2.86.08 3.937.685.51 1.483.906 2.283 1.218 1.51.59 3.064 1.066 4.59 1.62 2.73.99 5.34 2.183 7.4 4.69zm-50.17-.155c0-2.91.003-5.666-.003-8.42 0-.513-.303-.598-.738-.476-1.103.31-2.213.596-3.312.92-.51.15-.832.095-1.016-.483-1.09-3.43-5.05-4.64-8.142-3.48-1.08.404-1.876 1.152-2.016 2.362-.14 1.222.6 1.976 1.55 2.57.26.163.524.332.808.44 1.463.55 2.926 1.106 4.404 1.62 3.102 1.076 6.145 2.244 8.465 4.946zm.112 20.742c0-1.81.024-3.395-.01-4.98-.016-.69.237-.953.925-.937 1.343.03 2.69-.046 4.03.038.464.03 1.043.29 1.34.638 5.258 6.185 10.48 12.397 15.706 18.606.107.127.18.284.268.426.078-.034.156-.07.234-.106 0-.79.004-1.58 0-2.368-.032-5.458-.062-10.915-.1-16.373-.005-.604.25-.88.854-.85.28.013.56-.002.84-.002h30.655c1.43 0 1.432.003 1.433 1.45.003 5.458-.03 10.918.025 16.376.03 2.79 1.09 5.093 3.74 6.36 1.682.8 3.5 1.007 5.336.742 3.603-.52 5.57-2.745 5.63-6.58.09-5.6.04-11.2.053-16.798 0-.336.015-.672 0-1.008-.027-.596.23-.87.842-.865 1.54.015 3.08.016 4.62 0 .62-.006.815.28.813.875-.022 6.047.18 12.103-.09 18.14-.322 7.184-4.904 11.864-12.315 12.105-3.2.103-6.256-.38-9.033-2.064-3.403-2.06-5.21-5.175-5.682-9.05-.212-1.74-.165-3.517-.185-5.278-.027-2.52-.03-5.04.006-7.56.01-.738-.246-.978-.975-.964-1.903.038-3.808.04-5.71 0-.76-.017-1.035.225-1.02 1.006.044 2.183.016 4.367.016 6.55v15.875c0 1.225-.032 1.255-1.283 1.26-1.26.003-2.52.004-3.78-.002-1.125-.005-1.187-.064-1.187-1.186V60.792c0-1.486 0-1.486-1.526-1.486-1.596 0-3.193.036-4.787-.015-.807-.024-1.058.25-1.055 1.056.025 7.42.015 14.838.014 22.257 0 1.378-.002 1.38-1.412 1.38-1.176.003-2.356.06-3.525-.03-.473-.035-1.06-.275-1.356-.624-4.33-5.135-8.62-10.3-12.92-15.46-.933-1.12-1.864-2.238-2.8-3.35-.1-.118-.233-.206-.498-.434v1.14l.017 17.553c0 1.194-.007 1.2-1.23 1.203-1.315.003-2.63-.023-3.946.01-.708.016-1.033-.217-.984-.968.048-.75.01-1.506.01-2.39-.214.156-.35.23-.452.334-1.837 1.89-4.15 2.785-6.71 2.863-4.472.138-8.952.092-13.43.163-.915.015-1.045-.422-1.044-1.188.017-8.567.01-17.133.01-25.7 0-.98.008-1.96.006-2.94 0-.466.188-.75.69-.748 4.282.01 8.57-.118 12.845.077 3.742.175 6.59 1.962 8.087 5.825zm-15.37 15.114c0 1.12.016 2.238-.006 3.356-.013.55.155.83.757.822 1.986-.024 3.973.034 5.956-.04 1.3-.047 2.467-.54 3.26-1.64.93-1.292 1.03-2.728.393-4.14-.68-1.51-2-2.276-3.607-2.357-1.98-.1-3.97-.027-5.957-.057-.638-.01-.823.28-.808.868.03 1.062.01 2.125.01 3.188zm.002-12.34c0 .894.005 1.788-.002 2.68-.003.415.095.72.593.716 1.814-.012 3.636.08 5.44-.054 1.974-.146 3.373-1.727 3.298-3.47-.073-1.7-1.568-3.077-3.524-3.146-1.673-.06-3.35-.014-5.025-.037-.573-.008-.805.225-.787.798.025.838.006 1.676.007 2.514zM39.23 67.31c1.163.78 2.283 1.528 3.423 2.292v-6.34c-.735 1.932-1.893 3.202-3.423 4.048z" fill="#DE2833"/></svg>