<svg xmlns="http://www.w3.org/2000/svg" viewBox="0 0 140 105" enable-background="new 0 0 140 105"><path d="M92.787 59.586c-.25-.212-.604-.224-.85-.448-.063-.057-.156-.08-.228-.126-.16-.102-.18-.314-.387-.404-.176-.077-.287-.29-.446-.42-.328-.27-.5-.66-.736-.994-.14-.197-.16-.51-.16-.77-.01-2.34-.007-4.68-.007-6.97.165-.363.38-.62.835-.784 1.2-.222 2.537-.08 3.868-.103 1.348-.022 2.697-.005 4.046-.005h3.34c.062.06.102.1.17.17v8.22c0 .678.045 1.36-.093 2.063l-.58.57h-8.774z" fill="#9C9B9B"/><path d="M21.81 45.414c.05.037.095.103.147.108.87.09 1.36.62 1.654 1.392.085.22.12.443.12.684-.01 1.31-.005 2.622-.005 3.933 0 .244-.174.857-.306 1.11-.258.49-.677.746-1.2.88-.23.06-.46.078-.684.123-.21.042-.413.102-.63.098-.244-.004-.488 0-.73 0h-7.872c-.01.01-.024.023-.034.04-.01.013-.018.03-.018.05v5.197H10v-13.61c3.935-.002 7.872-.002 11.81-.002zM21 47.358c-.504-.214-1.004-.14-1.495-.142-2.23-.005-4.46-.002-6.692-.002h-.552v4.612h.56c2.214 0 4.426.003 6.638-.002.51 0 1.028.07 1.413-.09l.525-.442c.12-1.198.148-2.4-.014-3.553l-.38-.383z" fill="#41C6F4"/><path d="M103.36 59.586l.56-.644v-.19c.466-.442.673-.995.7-1.605l.153-.154h3.972v-6.406h-3.798c-.164 0-.344.04-.452-.182-.017-.61-.043-1.25-.52-1.82h7.68l.25.273c.015.194.03.405-.102.605-.064.098-.097.226-.113.345-.02.148-.005.3-.005.45 0 1.742-.002 3.486.002 5.23 0 .274-.038.575.06.817.104.26-.078.562.163.776v1.1c-.208.214-.48.423-.45.79l-.483.48c-.084.086-.28-.08-.305.138h-7.31z" fill="#9C9B9B"/><path d="M44.284 58.914c-.106-.115-.148-.197-.212-.224-.595-.25-.776-.746-.904-1.336-.144-.663-.087-1.32-.093-1.98-.015-1.722-.01-3.445-.002-5.168.003-.573.113-1.126.447-1.61.08-.118.146-.283.26-.335.362-.164.725-.313 1.133-.39.718-.133 1.432-.076 2.148-.09.73-.015 1.463-.003 2.193-.003 1.498 0 2.997.02 4.494-.01.464-.01.9.12 1.358.14.24.01.493.167.708.307.325.213.522.553.63.913.057.196.137.393.136.624-.018 2.435-.01 4.87-.01 7.305 0 .503-.213.924-.52 1.3-.086.105-.22.18-.348.238-.167.076-.24.258-.416.326-.224.085-.448.11-.686.11-3.146-.004-6.293 0-9.44-.008-.3-.002-.604-.072-.874-.106zM54.42 49.48h-9.193c-.073 1.65-.045 7.27.034 7.725h9.16V49.48z" fill="#41C6F4"/><path d="M115.856 59.34V47.57h2.563v4.536c.38-.248.697-.45 1.01-.66.31-.208.614-.42.92-.633.32-.222.625-.47.96-.668.335-.2.623-.462.965-.652.338-.188.654-.415.976-.632.31-.207.614-.42.92-.634.32-.224.64-.45.93-.655h3.87c-1.417 1.077-2.896 1.906-4.28 2.87-1.387.968-2.835 1.843-4.254 2.757.6.372 1.16.734 1.734 1.07.577.335 1.116.726 1.694 1.062.438.254.863.542 1.298.81.584.355 1.132.767 1.74 1.092.463.248.89.567 1.334.852.192.123.39.236.582.36.134.087.35.167.372.28.04.2.202.178.295.264.127.12.282.208.514.373h-.473c-1.143 0-2.288-.03-3.43.015-.46.018-.852-.128-1.115-.416-.328-.36-.737-.577-1.114-.847-.676-.483-1.373-.936-2.064-1.396-.998-.665-2-1.325-3-1.99-.1-.068-.19-.155-.278-.228-.044.035-.06.044-.072.06-.01.01-.022.03-.022.044v4.736h-2.578z" fill="#2A2929"/><path d="M27.338 59.023V47.776h8.94c.396 0 .77.1 1.143.223.558.18 1.006.53 1.16 1.365.2 1.072.088 2.145.084 3.214-.002.532-.116 1.106-.594 1.485-.277.22-.582.373-.932.468-.397.108-.792.1-1.192.103-.315.002-.63 0-1.06 0 .303.227.43.48.718.59.128.05.212.207.322.31.5.464.984.947 1.507 1.385.617.517 1.237 1.028 1.814 1.59.154.15.208.39.55.494h-2.954c-.243-.268-.477-.548-.734-.806-1.177-1.184-2.358-2.36-3.548-3.55h-3.1v4.374h-2.125zm8.934-6.192c.24-.43.306-.845.277-1.284-.018-.242.005-.487-.007-.73-.045-.945-.33-1.335-1.364-1.347-1.74-.02-3.48-.006-5.22-.006h-.502v3.514c0 .016.01.034.02.048.01.015.025.025.04.038 1.85 0 3.702-.007 5.553.005.423.002.806-.12 1.2-.238zm31.038.457c.737.737 1.402 1.478 2.15 2.122.477.41.91.86 1.37 1.286.448.413.865.853 1.335 1.246.475.398.855.91 1.273 1.377.017.02-.003.07-.008.13h-2.698c-1.523-1.543-3.04-3.08-4.59-4.648-.29.32-.65.52-.813.912-.015.032-.054.053-.08.08l-1.23 1.346-1.484 1.627c0 .03-.004.1-.007.152l-.54.537h-2.65c.074-.122.113-.214.175-.286 1.577-1.823 3.377-3.43 5.05-5.162.114-.12.232-.235.376-.38-.25-.255-.472-.504-.72-.725-.242-.218-.404-.53-.742-.644-.064-.02-.108-.1-.16-.155l-.16-.16-3.892-3.778c.014-.013.026-.028.042-.037.014-.008.032-.016.05-.016h2.792l3.95 4.11c.106-.104.187-.17.252-.25.055-.066.078-.16.136-.222.593-.637 1.195-1.266 1.786-1.905.528-.57 1.045-1.15 1.555-1.71H72.3l.012.076c0 .02.008.043 0 .055-.034.044-.072.085-.11.124l-4.895 4.895z" fill="#41C6F4"/><path d="M75.596 47.56h2.55v9.36c.03.034.042.05.057.06.014.01.032.018.048.018h8.557v2.335h-11.21V47.56z" fill="#2A2929"/></svg>