<svg xmlns="http://www.w3.org/2000/svg" viewBox="0 0 140 105" enable-background="new 0 0 140 105"><path d="M26.028 45.658c0 .823-.206 1.608-.617 2.355-.41.748-.962 1.402-1.66 1.962-.693.56-1.51 1.006-2.443 1.335-.935.33-1.926.493-2.972.493-.374 0-.67-.048-.886-.146s-.46-.288-.73-.572c-.748 1.63-1.357 3.13-1.828 4.497-.47 1.37-.84 2.695-1.11 3.98-.567-.133-1.03-.368-1.39-.705s-.688-.76-.987-1.268c.15-.285.33-.66.538-1.123s.464-1.035.764-1.716.647-1.495 1.043-2.444c.396-.95.863-2.06 1.402-3.33.238-.584.447-1.092.627-1.526.18-.433.335-.84.47-1.22.134-.382.26-.76.37-1.134.112-.374.23-.785.35-1.234-.705.225-1.35.486-1.94.785-.593.3-1.083.613-1.47.942-.136-.09-.274-.226-.416-.405-.142-.18-.273-.377-.393-.595-.12-.215-.224-.437-.314-.66s-.142-.427-.157-.606c.432-.3.97-.576 1.614-.83s1.33-.475 2.063-.662c.733-.187 1.492-.333 2.277-.438.785-.104 1.537-.157 2.254-.157.853 0 1.623.11 2.31.326.69.217 1.272.52 1.75.908.48.39.846.855 1.1 1.393.254.54.38 1.14.38 1.796zm-3.993-2.69c-.57 0-1.152.044-1.75.133l.27.406c-.15.195-.336.486-.56.875-.225.39-.472.857-.74 1.403-.27.546-.565 1.155-.887 1.828l-1.02 2.13c1.165 0 2.227-.106 3.184-.323.957-.217 1.775-.516 2.456-.897.68-.382 1.21-.827 1.593-1.335s.574-1.054.574-1.637c0-.777-.262-1.402-.785-1.873-.525-.473-1.3-.708-2.334-.708zM24.058 57.3c.075-.433.206-1.005.393-1.716.19-.71.41-1.465.664-2.265.254-.8.523-1.606.807-2.413s.56-1.533.83-2.176c.195-.462.367-.825.517-1.087.15-.262.314-.482.493-.662.208.03.425.083.65.158.224.074.44.164.65.268.21.105.396.213.56.326.166.112.293.22.382.325-.404.478-.76 1.023-1.065 1.636-.307.613-.617 1.398-.93 2.355.806-.717 1.52-1.405 2.14-2.063.62-.658 1.2-1.39 1.74-2.198.09-.075.246-.113.47-.113.21 0 .41.034.605.1.194.068.33.162.404.282-.27.717-.404 1.427-.404 2.13 0 .658.097 1.15.292 1.48-.015.09-.116.262-.303.516-.185.254-.39.494-.615.718-.404-.21-.763-.497-1.077-.863-.314-.365-.546-.765-.695-1.2-.703.495-1.3.977-1.794 1.448-.495.47-.918.995-1.27 1.57-.35.576-.65 1.237-.896 1.985s-.482 1.637-.707 2.67c-.134-.016-.295-.064-.482-.147-.188-.083-.374-.184-.56-.303-.188-.12-.356-.247-.505-.382-.15-.133-.247-.26-.292-.38zm12.237 1.234c-.853-.09-1.533-.464-2.042-1.122-.508-.657-.763-1.495-.763-2.512 0-.598.09-1.22.27-1.862.18-.643.434-1.268.763-1.873.33-.605.718-1.178 1.166-1.716.447-.54.933-1.004 1.456-1.393.822-.613 1.593-.92 2.31-.92.48.254.95.785 1.414 1.593.076 0 .143-.002.203-.01.06-.007.126-.01.202-.01.792 0 1.19.702 1.19 2.107 0 .942-.155 1.836-.46 2.68-.308.846-.734 1.613-1.28 2.3-.545.688-1.196 1.267-1.95 1.738-.757.472-1.583.805-2.48 1zm1.144-7.066c-.257.344-.496.718-.72 1.122-.225.404-.42.812-.583 1.223-.165.412-.292.808-.38 1.188-.09.384-.135.724-.135 1.023 0 .36.06.703.18 1.032s.253.516.403.56c.673-.148 1.29-.43 1.85-.84.562-.41 1.047-.923 1.46-1.537.41-.612.73-1.31.963-2.085.23-.777.347-1.607.347-2.49 0-.39-.022-.696-.067-.92-.044-.224-.12-.418-.224-.583-.658.193-1.245.507-1.76.94-.52.434-.964.89-1.337 1.368zm6.58 2.086c.553-2.213 1.095-3.832 1.626-4.856.53-1.024 1.088-1.537 1.67-1.537.42 0 .92.204 1.503.607-.48.853-.85 1.56-1.11 2.12-.264.56-.454 1.073-.574 1.536-.254.897-.523 1.828-.808 2.793-.285.964-.565 1.888-.842 2.77-.277.882-.53 1.68-.763 2.39-.232.71-.415 1.252-.55 1.626-.33.883-.654 1.63-.976 2.243-.323.613-.655 1.114-1 1.503-.343.39-.706.673-1.087.853s-.796.27-1.245.27c-.33 0-.654-.034-.976-.102-.32-.066-.626-.156-.91-.27-.284-.11-.538-.25-.763-.414-.224-.165-.404-.337-.538-.516.014-.105.062-.206.145-.303.083-.098.16-.154.236-.17.255.27.52.465.797.584.277.12.61.18.998.18.48 0 .9-.144 1.267-.427.367-.284.737-.834 1.11-1.648.374-.815.777-1.96 1.21-3.433.438-1.47.96-3.403 1.575-5.796zm3.656-8.165c0-.077.022-.204.067-.383-.18-.18-.27-.434-.27-.763 0-.134.02-.32.057-.56.037-.24.09-.498.157-.775s.142-.558.224-.84c.084-.286.17-.533.26-.74.18 0 .4.047.66.144s.53.224.798.38c.27.158.516.33.74.517.225.19.396.364.516.528-.18.164-.404.395-.673.694-.27.3-.53.61-.784.93-.254.323-.486.622-.695.898-.21.277-.335.475-.38.594-.18-.03-.336-.108-.47-.235-.136-.126-.203-.257-.203-.39zm9.118 3.073c-.06.927-.224 1.724-.494 2.39-.27.665-.654 1.248-1.155 1.75-.5.5-1.11.953-1.828 1.356s-1.555.79-2.512 1.165c0 .09-.004.183-.01.28s-.012.198-.012.303c0 .193.015.395.045.604.03.21.082.403.157.583.075.18.18.325.314.438s.304.168.514.168c.403 0 .8-.09 1.188-.27.39-.18.76-.4 1.11-.66.35-.262.68-.546.987-.853.305-.307.58-.587.817-.842.15.135.277.262.38.38-.672.898-1.41 1.643-2.208 2.233s-1.56.97-2.277 1.134c-1.032-.12-1.836-.497-2.412-1.133s-.862-1.4-.862-2.3c0-.612.084-1.236.257-1.873.172-.635.41-1.25.718-1.84.306-.59.665-1.146 1.077-1.67.41-.523.853-.98 1.323-1.368.47-.39.957-.696 1.458-.92.5-.225 1-.337 1.493-.337.687.09 1.33.516 1.93 1.28zm-1.548.74c-.404.06-.822.224-1.256.493-.434.27-.84.628-1.223 1.077s-.73.972-1.043 1.57-.56 1.24-.74 1.93c1.196-.6 2.19-1.336 2.983-2.21.793-.875 1.22-1.828 1.28-2.86zm2.528 4.597c0-.85.175-1.677.527-2.477.353-.8.817-1.51 1.393-2.13s1.234-1.123 1.974-1.504 1.506-.574 2.3-.574c.776 0 1.374.195 1.793.583.417.39.627.94.627 1.66 0 .343-.05.676-.146.997-.095.322-.222.61-.38.864s-.34.46-.55.618c-.207.156-.417.235-.626.235-.18 0-.363-.056-.55-.168s-.34-.258-.46-.438c1.002-.913 1.503-1.743 1.503-2.49 0-.435-.172-.65-.516-.65-.3 0-.672.14-1.12.425s-.884.658-1.3 1.122c-.645.718-1.135 1.514-1.47 2.39-.337.874-.505 1.79-.505 2.747 0 1.21.27 1.938.808 2.177.224-.03.485-.098.785-.202s.62-.243.965-.415c.344-.172.7-.37 1.065-.595.366-.224.72-.463 1.065-.718.06.045.112.112.157.202.044.09.066.17.066.246-.254.312-.546.62-.875.92-.327.298-.67.57-1.03.817s-.707.456-1.043.628-.632.28-.886.326c-.493-.045-.956-.198-1.39-.46-.434-.26-.812-.602-1.133-1.02-.322-.42-.576-.898-.763-1.437-.186-.54-.28-1.1-.28-1.683zm10.366-4.642c-.074-.09-.14-.28-.2-.572-.06-.292-.09-.542-.09-.75.388.06.762.09 1.12.09h.987c.225-.444.467-.884.73-1.32s.515-.835.763-1.198c.246-.362.48-.67.695-.92s.385-.414.504-.488c.15 0 .34.026.57.08s.467.12.707.2c.238.084.455.17.65.26.193.09.328.18.404.27-.45.563-.833 1.087-1.155 1.57-.322.482-.67 1.035-1.043 1.66h.908s.618-.023.933-.068c.074.075.135.168.18.28s.066.228.066.348c-.734.284-1.625.426-2.67.426-.375.72-.707 1.436-1 2.148-.29.712-.537 1.398-.74 2.058-.2.66-.357 1.282-.47 1.867-.11.582-.17 1.107-.17 1.572 0 .66.25 1.026.74 1.102.45-.06.876-.172 1.28-.337.404-.164.76-.373 1.076-.628.09.134.143.246.156.336-.088.134-.242.29-.46.468s-.452.353-.706.523-.5.315-.74.435c-.238.118-.418.186-.537.2-.376 0-.75-.075-1.123-.225-.374-.15-.714-.337-1.02-.562s-.558-.476-.752-.752c-.194-.277-.292-.55-.292-.82 0-.358.048-.812.146-1.358.096-.546.234-1.14.414-1.785.18-.643.39-1.316.628-2.02s.5-1.4.785-2.088H68.14zm13.504 7.425c.225-.494.493-1.13.808-1.907.313-.777.643-1.618.986-2.523l1.055-2.78c.358-.95.695-1.852 1.01-2.704.313-.855.586-1.617.818-2.29.233-.673.4-1.19.507-1.548-.942.39-1.75.98-2.423 1.772-.673.793-1.182 1.787-1.525 2.983-.345-.12-.66-.333-.943-.64s-.47-.69-.56-1.154c.148-.688.43-1.316.84-1.884.412-.57.932-1.055 1.56-1.46s1.354-.713 2.176-.93 1.705-.325 2.646-.325c1.195 0 2.295.176 3.297.527 1 .352 1.86.84 2.58 1.47s1.277 1.382 1.682 2.265c.402.882.604 1.862.604 2.938 0 1.466-.27 2.864-.808 4.194s-1.268 2.504-2.187 3.52c-.92 1.02-1.986 1.83-3.197 2.434-1.212.606-2.483.91-3.813.91-1.228 0-2.278-.244-3.152-.73-.876-.487-1.53-1.2-1.964-2.142zm7.918-14.266c-.748 0-1.458.104-2.13.314.656.24 1.202.49 1.637.753.432.262.73.467.894.617-.12.164-.295.455-.526.874-.233.42-.503.928-.81 1.525-.306.597-.63 1.25-.975 1.96s-.68 1.44-1.01 2.188c-.853 1.898-1.47 3.394-1.85 4.485-.383 1.092-.573 1.847-.573 2.266.21.074.464.127.763.156.3.03.62.045.965.045 1.21 0 2.358-.28 3.443-.84 1.085-.56 2.034-1.312 2.85-2.255.814-.94 1.458-2.037 1.93-3.286.47-1.25.707-2.56.707-3.938 0-1.54-.48-2.736-1.436-3.59-.956-.85-2.25-1.276-3.88-1.276zm16.108 6.146c-.06.927-.224 1.724-.492 2.39-.27.665-.654 1.248-1.155 1.75-.502.5-1.11.953-1.828 1.356s-1.556.79-2.513 1.165c0 .09-.004.183-.01.28-.01.098-.013.198-.013.303 0 .193.013.395.043.604.03.21.082.403.157.583.075.18.18.325.315.438.134.112.306.168.516.168.405 0 .8-.09 1.19-.27.39-.18.76-.4 1.11-.66s.68-.546.987-.853c.306-.307.58-.587.818-.842.15.135.276.262.382.38-.673.898-1.41 1.643-2.21 2.233s-1.56.97-2.276 1.134c-1.03-.12-1.835-.497-2.41-1.133-.576-.636-.864-1.4-.864-2.3 0-.612.086-1.236.258-1.873.172-.635.41-1.25.718-1.84.308-.59.667-1.146 1.078-1.67s.853-.98 1.323-1.368c.473-.39.958-.696 1.46-.92.5-.225.997-.337 1.49-.337.69.09 1.333.516 1.93 1.28zm-1.547.74c-.403.06-.822.224-1.256.493-.435.27-.842.628-1.223 1.077s-.73.972-1.043 1.57c-.312.598-.56 1.24-.74 1.93 1.198-.6 2.19-1.336 2.985-2.21.793-.875 1.22-1.828 1.28-2.86zm2.452 7.11c0-.658.157-1.58.47-2.77.315-1.19.756-2.576 1.325-4.16.927-2.528 1.798-4.633 2.612-6.315.815-1.682 1.61-2.994 2.39-3.937.18.03.4.107.66.227s.52.25.775.393c.254.14.482.287.684.436.204.15.335.27.395.36-1.166 1.375-2.19 2.855-3.073 4.44-.88 1.585-1.688 3.402-2.42 5.45-.63 1.766-1.108 3.355-1.437 4.768-.33 1.413-.494 2.59-.494 3.533v.47s.008.12.02.18c-.207-.03-.387-.082-.536-.156-.15-.073-.247-.163-.29-.27-.03-.072-.113-.18-.248-.323-.135-.142-.255-.25-.36-.325-.133-.09-.245-.324-.335-.705-.09-.384-.134-.813-.134-1.292zm6.375-7.155c-.076-.09-.144-.28-.203-.572s-.09-.542-.09-.75c.39.06.764.09 1.122.09h.985c.224-.444.467-.884.73-1.32s.515-.835.762-1.198.48-.67.695-.92.385-.414.505-.488c.15 0 .34.026.572.08.23.05.466.12.705.2.24.084.456.17.65.26s.33.18.404.27c-.45.563-.835 1.087-1.156 1.57-.322.482-.67 1.035-1.043 1.66h.91s.616-.023.93-.068c.075.075.135.168.18.28s.067.228.067.348c-.733.284-1.623.426-2.67.426-.373.72-.706 1.436-.998 2.148-.29.712-.54 1.398-.74 2.058-.2.66-.36 1.282-.47 1.867-.114.582-.17 1.107-.17 1.572 0 .66.247 1.026.74 1.102.45-.06.875-.172 1.28-.337.402-.164.76-.373 1.075-.628.09.134.142.246.156.336-.09.134-.242.29-.46.468-.216.178-.45.353-.705.523-.255.17-.5.315-.74.435-.24.118-.42.186-.538.2-.374 0-.748-.075-1.122-.225s-.714-.337-1.02-.562-.558-.476-.752-.752c-.194-.277-.292-.55-.292-.82 0-.358.05-.812.147-1.358.098-.546.236-1.14.415-1.785.18-.643.39-1.316.63-2.02.237-.704.5-1.4.783-2.088h-1.277zm13.987-.47c.15 0 .325.025.527.08s.385.12.55.2c.164.083.303.17.415.26.11.09.166.17.166.245-.3.628-.576 1.26-.83 1.896s-.47 1.243-.65 1.826-.317 1.128-.415 1.637-.145.95-.145 1.323c0 .42.045.767.135 1.043.09.276.24.475.45.594-.18.12-.412.217-.696.292-.284.074-.538.11-.763.11-.806 0-1.21-.552-1.21-1.658 0-.854.284-2.02.854-3.5-.3.684-.644 1.328-1.032 1.93-.388.604-.784 1.137-1.187 1.598-.404.462-.812.838-1.223 1.128-.412.29-.79.465-1.133.524-.555 0-1.003-.25-1.347-.754-.344-.503-.516-1.146-.516-1.926 0-.84.18-1.728.54-2.658.357-.93.817-1.794 1.378-2.59.562-.796 1.17-1.46 1.828-1.994s1.294-.8 1.907-.8c.15.045.317.135.504.27.19.133.367.29.54.47.172.178.317.36.438.547.12.187.187.347.2.48-.597.09-1.214.38-1.85.874-.636.492-1.21 1.084-1.727 1.778-.516.694-.937 1.436-1.267 2.227-.33.79-.493 1.53-.493 2.215 0 .284.104.463.313.537.434-.09.935-.46 1.503-1.11s1.257-1.655 2.064-3.017c.148-.27.316-.568.504-.897.187-.33.378-.673.572-1.032s.385-.72.572-1.087c.19-.366.365-.72.53-1.065z" fill="#FED136"/></svg>