<svg xmlns="http://www.w3.org/2000/svg" viewBox="0 0 140 105" enable-background="new 0 0 140 105"><path d="M17.157 57.724c.303 0 .566-.038.787-.113.222-.075.416-.186.58-.337.167-.15.31-.337.435-.564.123-.228.237-.494.34-.797l.3-.886h1.064l-.918 3.714H10l.178-.885h.22c.174 0 .343-.01.51-.034.163-.02.314-.066.45-.136s.252-.17.353-.3c.1-.13.173-.304.217-.52l1.696-7.986c.072-.287.106-.476.106-.57 0-.118-.03-.215-.09-.29s-.14-.135-.248-.175c-.105-.04-.232-.068-.38-.08-.15-.015-.31-.022-.484-.022h-.21l.178-.876h5.743l-.188.877h-.21c-.185 0-.363.013-.532.038-.17.024-.327.072-.47.142-.14.07-.26.173-.363.308-.103.135-.176.31-.22.528l-1.877 8.97h2.78zm9.373-.082c.27 0 .528-.038.772-.116.243-.08.47-.18.68-.31.206-.128.394-.272.558-.43.166-.16.308-.324.428-.492.065.082.116.185.154.31.038.13.056.264.056.405 0 .2-.065.41-.195.63-.13.223-.328.43-.597.615-.268.186-.61.34-1.023.463-.416.12-.906.18-1.476.18-.508 0-.987-.068-1.437-.21s-.845-.354-1.182-.638c-.34-.284-.605-.64-.8-1.072-.195-.43-.292-.935-.292-1.514 0-.412.053-.842.162-1.292.108-.45.268-.89.482-1.32.214-.43.48-.84.797-1.226s.684-.728 1.1-1.02c.417-.292.884-.523 1.402-.694.514-.17 1.08-.256 1.69-.256.798 0 1.415.172 1.853.516.44.345.658.824.658 1.442 0 .45-.124.88-.374 1.292-.248.41-.592.773-1.03 1.084-.44.312-.962.56-1.57.743-.604.185-1.266.277-1.98.277h-.3c-.11 0-.214-.006-.318-.017-.016.11-.027.22-.028.33-.003.11-.005.212-.005.304 0 .643.15 1.14.45 1.49.303.348.756.522 1.364.522zm.585-6.985c-.272 0-.528.1-.773.304-.243.205-.462.47-.657.794s-.363.69-.505 1.093c-.14.404-.243.803-.308 1.198h.145c.412 0 .795-.054 1.15-.162.355-.11.663-.264.926-.467.262-.204.47-.446.617-.728.15-.28.222-.598.222-.95 0-.34-.072-.606-.214-.796-.14-.19-.343-.283-.603-.283zM38.553 58.9c-.493 0-.888-.112-1.187-.334-.298-.226-.446-.554-.446-.988 0-.173.01-.342.024-.506.017-.166.046-.357.09-.575h-.114c-.205.387-.41.73-.612 1.03-.204.3-.43.55-.68.754-.25.206-.526.36-.832.465-.306.106-.662.157-1.07.157-.394 0-.74-.074-1.04-.23-.297-.154-.545-.368-.74-.638-.2-.27-.348-.592-.447-.96-.103-.374-.15-.774-.15-1.208 0-.434.05-.887.15-1.36.097-.474.25-.94.45-1.4.2-.46.446-.9.742-1.317.294-.418.636-.783 1.023-1.097.388-.314.82-.564 1.296-.75.478-.188.998-.28 1.56-.28.218 0 .44.017.663.052.224.035.44.08.646.134.204.053.397.114.58.18.18.07.334.138.46.21l.876-.4h.884l-1.095 5.19-.08.367c-.032.15-.065.313-.094.483-.027.17-.053.336-.075.496-.022.16-.032.292-.032.402 0 .277.055.482.162.617.108.135.25.204.422.204.157 0 .308-.035.45-.104.143-.067.302-.15.475-.246l.367.665c-.14.108-.3.22-.48.337-.18.115-.378.22-.597.32-.218.097-.457.18-.714.24-.26.06-.536.09-.834.09zm-4.68-3.02c0 .32.023.587.07.805.045.215.108.39.187.523.077.133.173.227.284.284.11.058.23.086.36.086.246 0 .497-.106.757-.316.26-.21.505-.487.73-.833.23-.346.435-.734.616-1.167.18-.434.318-.872.41-1.316l.585-2.762c-.107-.157-.257-.274-.45-.35-.192-.075-.397-.113-.612-.113-.325 0-.623.084-.89.25-.267.17-.51.393-.728.675-.216.282-.408.602-.572.96-.166.356-.304.727-.416 1.11-.11.386-.193.765-.248 1.138-.053.374-.08.715-.08 1.024zm10.2-4.598c0-.206-.067-.353-.203-.443-.135-.09-.36-.136-.674-.136h-.3l.144-.885h3.68l-.35 2.28h.08c.19-.4.382-.75.574-1.054.193-.304.404-.558.634-.764.23-.205.49-.36.783-.467.294-.105.636-.158 1.026-.158.59 0 1.028.11 1.315.333.288.223.43.546.43.968 0 .574-.166 1.002-.503 1.283-.335.283-.823.424-1.462.424 0-.25-.012-.475-.036-.678-.025-.204-.07-.376-.13-.52s-.146-.253-.25-.33c-.108-.075-.24-.113-.397-.113-.156 0-.322.064-.494.19-.175.128-.348.303-.52.525-.175.222-.345.487-.51.792-.165.305-.322.64-.474 1s-.29.737-.414 1.132c-.124.395-.23.796-.317 1.202l-.633 2.877h-2.51l1.413-6.684.06-.366c.03-.153.04-.29.04-.408zm13.837 5.914c0-.477.088-1.137.266-1.982l.268-1.316.082-.398c.032-.156.065-.32.097-.49.032-.172.06-.342.086-.513.022-.17.034-.323.034-.46 0-.102-.01-.21-.03-.324-.018-.113-.052-.216-.103-.308-.052-.092-.122-.168-.21-.227-.09-.06-.208-.09-.355-.09-.188 0-.376.064-.564.19-.185.128-.365.297-.54.505-.172.21-.336.447-.493.715-.157.27-.3.543-.428.825-.128.28-.237.558-.33.828-.09.273-.16.517-.21.734l-.846 3.86H52.14l1.398-6.622c.016-.07.03-.143.043-.22l.04-.214c.01-.068.02-.126.024-.174s.01-.084.01-.105c0-.153-.018-.275-.05-.367s-.085-.16-.155-.21c-.07-.05-.16-.08-.273-.097-.11-.016-.245-.025-.402-.025h-.3l.144-.884h3.696l-.188 1.78h.105c.212-.332.43-.618.655-.863.224-.243.467-.445.727-.605.26-.16.542-.28.848-.357.306-.08.643-.117 1.01-.117.353 0 .65.05.892.155.24.103.434.242.585.418.15.176.255.38.32.61.065.23.097.472.097.727 0 .14-.01.29-.028.45-.02.16-.045.322-.075.484-.03.162-.063.325-.097.487-.035.163-.066.317-.093.464l-.373 1.78c-.065.303-.12.586-.162.848-.044.263-.065.51-.065.742 0 .245.05.43.15.56.1.13.245.196.434.196.173 0 .332-.03.475-.096.142-.065.31-.16.5-.286l.396.56c-.13.14-.28.28-.445.42-.168.137-.356.26-.564.37-.21.107-.44.194-.693.26s-.534.095-.836.095c-.64 0-1.13-.15-1.47-.45-.343-.303-.512-.722-.512-1.257zm13.605.35c.26 0 .496-.044.706-.13.214-.09.41-.192.595-.31l.38.635c-.182.158-.377.306-.58.447-.203.142-.423.265-.663.37-.237.105-.493.19-.765.252-.274.06-.57.09-.89.09-.304 0-.586-.037-.85-.115s-.49-.198-.685-.36c-.195-.156-.35-.358-.46-.604-.11-.242-.166-.53-.166-.86 0-.097.003-.205.012-.323.01-.12.02-.243.036-.366.017-.125.036-.25.058-.37.02-.12.043-.233.065-.336l1-4.606H68.02l.18-.853c.238 0 .498-.04.78-.122.282-.08.57-.214.865-.398.294-.185.59-.426.886-.723.296-.297.573-.66.833-1.088h.968l-.43 2.048h2.007l-.227 1.137h-2.03l-1 4.556c-.06.245-.102.465-.126.663-.024.196-.038.374-.038.53 0 .277.077.486.227.626.152.14.353.21.602.21zm3.017-2.136c0-.418.05-.848.147-1.293.095-.444.243-.88.44-1.307.198-.428.446-.833.743-1.214.298-.382.648-.717 1.052-1.003.404-.287.862-.515 1.373-.682.51-.166 1.078-.25 1.7-.25.478 0 .928.067 1.35.2.422.132.79.34 1.105.62.313.282.563.644.747 1.085.183.44.275.97.275 1.588 0 .4-.046.82-.137 1.26-.092.44-.236.87-.428 1.295-.192.425-.436.832-.73 1.22-.296.386-.643.726-1.045 1.018-.4.292-.855.525-1.365.698-.508.174-1.077.26-1.705.26-.52 0-.997-.072-1.43-.215-.434-.143-.804-.36-1.113-.65-.308-.288-.55-.654-.723-1.09-.17-.44-.26-.956-.26-1.54zm3.827 2.297c.296 0 .564-.086.805-.257.24-.17.458-.393.65-.674.192-.277.36-.596.5-.953s.256-.726.344-1.105c.09-.38.156-.752.203-1.118.046-.365.068-.694.068-.987 0-.655-.112-1.126-.336-1.413-.224-.287-.532-.43-.922-.43-.282 0-.542.08-.78.244-.238.162-.453.38-.646.65-.192.27-.36.58-.506.93-.146.35-.27.71-.37 1.084-.1.373-.174.746-.222 1.117-.05.37-.074.71-.074 1.02 0 .677.115 1.16.342 1.454.23.29.54.436.943.436zm16.797-.202c.385 0 .732-.044 1.04-.13.31-.087.585-.202.83-.345.242-.144.456-.304.64-.484.183-.18.345-.363.487-.552.065.05.128.125.19.227.063.105.094.22.094.34 0 .28-.084.556-.25.837-.17.277-.417.53-.745.754-.328.225-.732.406-1.214.547-.484.137-1.038.205-1.668.205-.795 0-1.507-.098-2.133-.295-.625-.197-1.154-.487-1.585-.87-.43-.38-.76-.85-.987-1.405-.228-.555-.34-1.187-.34-1.897 0-.666.076-1.32.233-1.966.158-.646.386-1.257.683-1.837.298-.58.662-1.11 1.093-1.6.43-.486.918-.91 1.462-1.266.544-.357 1.142-.637 1.792-.837.65-.2 1.344-.3 2.086-.3.552 0 1.036.047 1.45.142.414.094.758.226 1.03.397.275.17.48.38.615.625s.205.518.205.817c0 .243-.06.457-.18.64-.118.185-.282.34-.49.468-.21.127-.458.224-.745.29-.287.064-.6.096-.934.096 0-.233-.015-.49-.048-.772-.032-.28-.1-.545-.2-.788-.1-.245-.243-.447-.426-.61-.185-.162-.43-.244-.74-.244-.44 0-.844.1-1.215.3-.372.2-.71.473-1.015.817-.306.344-.578.743-.812 1.2-.236.453-.434.933-.593 1.44-.16.506-.282 1.024-.366 1.55-.083.528-.124 1.04-.124 1.53 0 .948.238 1.68.72 2.2.486.516 1.204.776 2.157.776zm5.203-2.095c0-.418.047-.848.144-1.293.097-.444.245-.88.443-1.307.198-.428.446-.833.744-1.214.3-.382.65-.717 1.054-1.003.404-.287.86-.515 1.373-.682.51-.166 1.08-.25 1.702-.25.474 0 .924.067 1.347.2.422.132.792.34 1.105.62.316.282.565.644.748 1.085.185.44.277.97.277 1.588 0 .4-.046.82-.14 1.26-.09.44-.233.87-.425 1.295-.193.425-.436.832-.732 1.22s-.643.726-1.043 1.018c-.402.292-.857.525-1.365.698-.51.174-1.077.26-1.707.26-.52 0-.995-.072-1.43-.215-.433-.143-.804-.36-1.113-.65-.308-.288-.55-.654-.722-1.09-.173-.44-.26-.956-.26-1.54zm3.825 2.297c.298 0 .568-.086.81-.257.238-.17.456-.393.65-.674.19-.277.356-.596.498-.953.14-.357.255-.726.345-1.105.09-.38.156-.752.202-1.118.046-.365.07-.694.07-.987 0-.655-.113-1.126-.337-1.413-.226-.287-.534-.43-.923-.43-.28 0-.54.08-.78.244-.238.162-.453.38-.645.65-.193.27-.363.58-.508.93-.147.35-.27.71-.37 1.084-.1.373-.173.746-.223 1.117-.048.37-.074.71-.074 1.02 0 .677.115 1.16.342 1.454.228.29.543.436.943.436zm14.837-2.542l-.07.345c-.03.15-.058.304-.084.467-.027.162-.05.322-.07.478-.02.157-.027.287-.027.39 0 .26.06.45.18.57.12.12.255.18.407.18.14 0 .296-.04.467-.114.17-.075.323-.154.458-.234l.367.65c-.148.118-.31.238-.497.356-.184.12-.386.23-.604.326-.22.1-.458.178-.71.236-.256.06-.528.09-.813.09-.245 0-.467-.028-.667-.087-.2-.055-.373-.14-.516-.246-.143-.11-.254-.246-.33-.41-.08-.164-.12-.36-.12-.58 0-.104.003-.196.01-.278.005-.078.012-.16.02-.238.008-.077.018-.16.03-.25l.054-.315h-.097c-.204.427-.42.793-.65 1.097-.226.303-.47.55-.726.746-.257.196-.534.34-.828.43-.296.088-.614.132-.954.132-.43 0-.795-.08-1.1-.243s-.56-.384-.757-.658c-.197-.277-.34-.6-.433-.968-.092-.37-.14-.76-.14-1.17 0-.434.05-.887.15-1.36.102-.474.25-.94.447-1.4.197-.46.44-.9.73-1.317.29-.418.625-.783 1.005-1.097.378-.314.8-.564 1.262-.75.463-.188.968-.28 1.515-.28.325 0 .628.034.91.104.282.07.53.168.747.292.016-.07.03-.153.05-.248.014-.096.03-.19.05-.286.02-.094.04-.184.06-.268.017-.084.03-.15.042-.2l.145-.665c.017-.07.032-.143.05-.22.015-.074.03-.146.04-.214.01-.07.02-.127.025-.176.005-.047.01-.083.01-.104 0-.15-.018-.274-.05-.365-.033-.09-.085-.16-.155-.21-.07-.05-.162-.08-.277-.098-.113-.015-.248-.024-.405-.024h-.38l.153-.877h4.005l-1.926 9.065zm-5.677.715c0 .314.022.58.068.796.046.217.108.392.186.525s.17.23.282.29c.11.06.233.09.363.09.243 0 .494-.108.75-.318.258-.21.5-.486.728-.828.227-.34.433-.728.614-1.16.18-.434.322-.875.42-1.325l.584-2.763c-.12-.15-.28-.267-.486-.345-.207-.078-.41-.117-.61-.117-.314 0-.605.085-.87.256-.265.17-.505.395-.718.674-.215.28-.404.6-.57.96-.165.36-.3.73-.41 1.112-.107.38-.19.76-.247 1.137-.06.375-.086.714-.086 1.018zm12.862 1.762c.27 0 .527-.038.77-.116.244-.08.47-.18.678-.31.21-.128.395-.272.56-.43.167-.16.31-.324.427-.492.065.082.118.185.156.31.038.13.056.264.056.405 0 .2-.065.41-.195.63-.13.223-.33.43-.6.615s-.61.34-1.023.463c-.414.12-.905.18-1.474.18-.51 0-.988-.068-1.438-.21s-.843-.354-1.182-.638-.605-.64-.8-1.072c-.195-.43-.292-.935-.292-1.514 0-.412.056-.842.163-1.292.11-.45.27-.89.484-1.32.214-.43.48-.84.795-1.226.318-.387.684-.728 1.1-1.02.418-.292.885-.523 1.403-.694.516-.17 1.08-.256 1.693-.256.796 0 1.412.172 1.85.516.44.345.66.824.66 1.442 0 .45-.126.88-.376 1.292-.248.41-.593.773-1.03 1.084-.44.312-.962.56-1.57.743-.606.185-1.266.277-1.98.277h-.302c-.108 0-.214-.006-.316-.017-.015.11-.026.22-.03.33l-.002.304c0 .643.15 1.14.45 1.49.303.348.756.522 1.363.522zm.585-6.985c-.272 0-.528.1-.773.304-.245.205-.464.47-.66.794s-.362.69-.504 1.093c-.142.404-.245.803-.31 1.198h.147c.41 0 .794-.054 1.15-.162.355-.11.663-.264.926-.467.26-.204.466-.446.616-.728.15-.28.222-.598.222-.95 0-.34-.073-.606-.216-.796s-.342-.283-.602-.283z" fill="#D9182A"/></svg>