<svg xmlns="http://www.w3.org/2000/svg" viewBox="0 0 140 105" enable-background="new 0 0 140 105"><path d="M16.594 40.67c1.06 0 1.89.26 2.488.78.598.52.897 1.23.897 2.136 0 .676-.156 1.27-.46 1.778-.31.51-.8.858-1.476 1.045v.03c.322.06.584.166.788.31.203.147.364.32.483.523.12.203.208.43.265.68.058.25.103.51.134.78.02.27.036.545.046.826.01.28.037.556.078.826.042.27.102.528.18.772.077.244.194.46.35.646h-1.653c-.104-.114-.174-.27-.21-.468-.037-.198-.06-.418-.07-.663l-.03-.788c-.01-.28-.043-.556-.094-.827-.04-.27-.092-.528-.154-.772s-.16-.458-.296-.64c-.136-.182-.313-.328-.53-.437-.22-.11-.51-.164-.875-.164h-3.62v4.757h-1.48V40.67h5.24zm.312 5.053c.312-.052.585-.153.82-.304.233-.15.42-.356.56-.61.14-.254.21-.585.21-.99 0-.56-.155-1.02-.467-1.373-.314-.354-.818-.53-1.515-.53h-3.68V45.8h3.087c.344 0 .67-.026.983-.08zm12.82-5.053v1.247H23.52v3.54h5.786v1.25H23.52v3.85h6.254v1.25h-7.736v-11.14h7.69zm7.418 1.52c-.494-.36-1.126-.538-1.896-.538-.31 0-.62.03-.92.093-.302.062-.57.167-.803.312-.234.146-.42.34-.562.585-.14.245-.21.548-.21.913 0 .343.1.62.303.834.203.21.473.385.81.52.34.135.72.247 1.147.336.426.088.86.184 1.303.288.44.104.875.226 1.302.366.426.142.808.33 1.146.57.338.24.608.54.81.905.204.364.305.82.305 1.373 0 .593-.135 1.1-.4 1.52-.265.422-.606.765-1.02 1.03-.417.265-.88.458-1.397.577-.515.12-1.027.18-1.537.18-.624 0-1.214-.08-1.77-.235-.557-.156-1.045-.393-1.466-.71-.42-.317-.753-.722-.997-1.216-.245-.494-.367-1.08-.367-1.755h1.404c0 .466.09.87.273 1.207.182.338.42.616.717.835.296.218.642.38 1.038.483.395.104.8.156 1.216.156.333 0 .668-.03 1.006-.093.337-.062.642-.17.912-.32s.49-.356.655-.616c.166-.26.25-.592.25-.997 0-.385-.102-.697-.304-.936-.203-.24-.473-.434-.81-.585-.34-.15-.72-.273-1.147-.366-.426-.094-.86-.19-1.302-.29-.442-.098-.876-.212-1.302-.342-.427-.13-.81-.302-1.146-.515-.338-.214-.608-.49-.81-.828-.204-.338-.305-.762-.305-1.27 0-.563.116-1.048.345-1.46.23-.41.533-.748.913-1.013.38-.266.81-.463 1.295-.594.483-.13.98-.195 1.49-.195.57 0 1.1.07 1.59.204s.918.35 1.287.64c.368.29.66.658.872 1.1.213.442.33.97.35 1.583H38.01c-.084-.8-.372-1.38-.866-1.738zm12.22-1.52v1.247h-6.208v3.54h5.787v1.25h-5.787v3.85h6.255v1.25h-7.734v-11.14h7.69zm6.506 0l4.35 11.136h-1.637l-1.217-3.354h-4.71l-1.248 3.354h-1.513L54.23 40.67h1.64zm1.028 6.535l-1.856-5.194h-.03l-1.888 5.196h3.774zm9.655-6.535c1.06 0 1.89.26 2.488.78.6.52.9 1.23.9 2.136 0 .676-.155 1.27-.46 1.778-.308.51-.8.858-1.475 1.045v.03c.322.06.584.166.788.31.203.147.364.32.483.523.12.203.208.43.265.68.058.25.103.51.134.78.02.27.036.545.046.826.01.28.036.556.077.826.042.27.102.528.18.772.077.244.194.46.35.646h-1.653c-.104-.114-.174-.27-.21-.468-.037-.198-.06-.418-.07-.663l-.03-.788c-.01-.28-.043-.556-.094-.827-.042-.27-.094-.528-.156-.772s-.16-.458-.296-.64c-.135-.182-.312-.328-.53-.437-.218-.11-.51-.164-.873-.164h-3.62v4.757h-1.48V40.67h5.238zm.312 5.053c.312-.052.585-.153.82-.304.233-.15.42-.356.56-.61.14-.254.21-.585.21-.99 0-.56-.155-1.02-.467-1.373-.312-.354-.816-.53-1.513-.53h-3.68V45.8h3.087c.343 0 .67-.026.983-.08zm11.86-3.48c-.565-.394-1.24-.59-2.02-.59-.665 0-1.233.124-1.71.373-.47.25-.86.585-1.166 1.006-.31.42-.535.902-.68 1.442-.148.54-.22 1.102-.22 1.685 0 .633.07 1.233.22 1.8.144.567.37 1.06.68 1.482.303.42.697.757 1.174 1.006.48.25 1.05.374 1.717.374.49 0 .923-.08 1.304-.242.38-.16.707-.384.982-.67.275-.287.49-.627.646-1.023.156-.396.25-.822.28-1.28h1.483c-.146 1.404-.63 2.496-1.45 3.275-.823.78-1.946 1.17-3.37 1.17-.863 0-1.617-.148-2.262-.444-.644-.295-1.18-.704-1.607-1.224-.426-.52-.746-1.133-.96-1.84-.212-.707-.317-1.466-.317-2.277 0-.812.112-1.574.34-2.286.23-.71.566-1.332 1.007-1.863.443-.53.994-.95 1.654-1.256.66-.306 1.417-.46 2.27-.46.583 0 1.134.08 1.653.235.52.156.984.385 1.39.687.405.302.743.678 1.013 1.13.27.453.447.976.53 1.568h-1.48c-.167-.79-.534-1.383-1.1-1.78zm6.015-1.573v4.788h5.865v-4.79h1.48v11.138h-1.48v-5.1H84.74v5.1h-1.482V40.67h1.482z" fill="#2DC1C1"/><path d="M35.24 54.785c-.566-.395-1.24-.592-2.02-.592-.665 0-1.234.125-1.707.374-.473.25-.863.585-1.17 1.006-.307.42-.533.902-.68 1.442-.145.54-.217 1.103-.217 1.685 0 .635.073 1.235.218 1.802.146.566.372 1.06.68 1.48.306.422.698.758 1.177 1.007.48.25 1.05.373 1.718.373.488 0 .922-.08 1.302-.242.378-.16.706-.384.98-.67.276-.285.493-.626.648-1.02.156-.396.25-.82.28-1.28h1.483c-.144 1.404-.627 2.496-1.45 3.276-.82.78-1.944 1.17-3.37 1.17-.86 0-1.615-.148-2.26-.445-.645-.295-1.18-.703-1.606-1.223-.426-.52-.746-1.134-.96-1.84-.212-.708-.318-1.468-.318-2.278 0-.813.114-1.573.343-2.286.23-.712.563-1.333 1.005-1.864.442-.53.993-.948 1.653-1.255.66-.307 1.416-.46 2.27-.46.582 0 1.133.078 1.653.234.52.154.983.383 1.39.685.404.302.742.678 1.013 1.13.27.453.447.976.53 1.568H36.34c-.165-.79-.532-1.383-1.1-1.78zm4.244 1.802c.223-.702.56-1.323 1.006-1.864.447-.54 1.003-.972 1.67-1.295.665-.322 1.44-.483 2.323-.483.884 0 1.658.16 2.324.483.666.323 1.222.754 1.67 1.295.446.54.782 1.162 1.005 1.864.223.702.335 1.432.335 2.19 0 .76-.112 1.49-.335 2.192-.224.7-.56 1.32-1.006 1.862-.447.54-1.003.97-1.67 1.286-.665.316-1.44.476-2.323.476-.884 0-1.66-.16-2.324-.477-.668-.317-1.224-.747-1.67-1.287-.448-.54-.784-1.162-1.007-1.864-.224-.703-.335-1.434-.335-2.192-.002-.76.11-1.49.334-2.19zm1.364 3.852c.146.544.374 1.035.686 1.472.312.438.712.788 1.2 1.053.49.266 1.072.398 1.748.398.676 0 1.258-.133 1.746-.398.49-.265.89-.615 1.2-1.053.313-.437.542-.928.688-1.474.146-.547.218-1.1.218-1.662 0-.562-.073-1.115-.218-1.66-.146-.546-.375-1.038-.687-1.475-.314-.436-.714-.787-1.203-1.052-.49-.265-1.07-.397-1.746-.397-.675 0-1.257.133-1.746.398-.49.265-.89.616-1.2 1.053-.313.438-.542.93-.687 1.475-.146.546-.218 1.1-.218 1.66 0 .562.07 1.116.217 1.662zm12.338-7.23l5.865 9.03h.033v-9.03h1.404v11.136h-1.622l-5.818-8.937h-.03v8.935H51.61V53.21h1.576zm11.26 0l5.866 9.03h.03v-9.03h1.404v11.136h-1.62l-5.82-8.937h-.03v8.935h-1.404V53.21h1.575zm17.392 0v1.248H75.63v3.54h5.788v1.248H75.63v3.852h6.255v1.248H74.15V53.21h7.688zm8.572 1.575c-.568-.395-1.24-.592-2.02-.592-.665 0-1.235.125-1.708.374-.473.25-.863.585-1.17 1.006-.307.42-.533.902-.678 1.442-.146.54-.22 1.103-.22 1.685 0 .635.073 1.235.22 1.802.145.566.37 1.06.678 1.48.307.422.7.758 1.178 1.007.48.25 1.05.373 1.715.373.49 0 .924-.08 1.303-.242.38-.16.707-.384.982-.67.275-.285.492-.626.648-1.02.156-.396.25-.82.28-1.28h1.48c-.144 1.404-.628 2.496-1.45 3.276-.82.78-1.943 1.17-3.367 1.17-.86 0-1.615-.148-2.26-.445-.646-.295-1.182-.703-1.607-1.223-.426-.52-.746-1.134-.96-1.84-.212-.708-.32-1.468-.32-2.278 0-.813.116-1.573.345-2.286.23-.712.564-1.333 1.006-1.864.44-.53.992-.948 1.652-1.255.66-.307 1.418-.46 2.27-.46.584 0 1.135.078 1.654.234.52.154.98.383 1.388.685.404.302.742.678 1.014 1.13.27.453.447.976.53 1.568h-1.48c-.17-.79-.536-1.383-1.102-1.78zm3.344-.327V53.21h8.906v1.248h-3.71v9.888h-1.483v-9.888h-3.713zm11.683-1.248v11.136h-1.482V53.21h1.482zm2.207 3.377c.223-.702.56-1.323 1.006-1.864.447-.54 1.004-.972 1.67-1.295.664-.322 1.44-.483 2.322-.483.885 0 1.66.16 2.324.483.666.323 1.223.754 1.67 1.295.447.54.78 1.162 1.006 1.864.223.702.336 1.432.336 2.19 0 .76-.113 1.49-.336 2.192-.225.7-.56 1.32-1.006 1.862-.447.54-1.004.97-1.67 1.286-.664.316-1.44.476-2.324.476-.883 0-1.658-.16-2.322-.477-.666-.317-1.223-.747-1.67-1.287-.447-.54-.783-1.162-1.006-1.864-.225-.703-.336-1.434-.336-2.192 0-.76.112-1.49.336-2.19zm1.365 3.852c.143.544.37 1.035.684 1.472.312.438.713.788 1.2 1.053.49.266 1.07.398 1.747.398s1.26-.133 1.75-.398.89-.615 1.2-1.053c.31-.437.54-.928.686-1.474.146-.547.22-1.1.22-1.662 0-.562-.073-1.115-.22-1.66-.145-.546-.375-1.038-.686-1.475-.31-.436-.712-.787-1.2-1.052s-1.072-.397-1.748-.397c-.676 0-1.258.133-1.746.398s-.89.616-1.2 1.053c-.313.438-.542.93-.687 1.475-.148.546-.22 1.1-.22 1.66 0 .562.072 1.116.22 1.662zm12.335-7.23l5.865 9.03h.03v-9.03h1.405v11.136h-1.623l-5.818-8.937h-.03v8.935h-1.403V53.21h1.576z" fill="#8CCF82"/><circle cx="97.132" cy="50.13" r="1.448" fill="#8CCF82"/><circle cx="98.414" cy="44.874" r="2.124" fill="#2DC1C1"/><circle cx="103.271" cy="44.607" r="1.448" fill="#8CCF82"/><circle cx="102.128" cy="50.283" r="2.124" fill="#2DC1C1"/></svg>