<svg xmlns="http://www.w3.org/2000/svg" viewBox="0 0 140 105" enable-background="new 0 0 140 105"><path d="M86.875 19.688h-2.5v28.438h-3.75V27.5h-2.5v20.625h-3.75V33.75h-2.5v14.375h-3.75v-9.688h-2.5v9.688h-3.75v-6.562h-2.5v6.562h-3.75v-5h-2.5v5H20v2.5h33.125v3.75H20v2.5h33.125v5h2.5v-5h3.75v6.562h2.5v-6.562h3.75v9.688h2.5v-9.688h3.75V71.25h2.5V56.875h3.75V77.5h2.5V56.875h3.75v28.438h2.5V56.875H120v-2.5H86.875v-3.75H120v-2.5H86.875V19.688zm-27.5 34.687h-3.75v-3.75h3.75v3.75zm6.25 0h-3.75v-3.75h3.75v3.75zm6.25 0h-3.75v-3.75h3.75v3.75zm6.25 0h-3.75v-3.75h3.75v3.75zm6.25 0h-3.75v-3.75h3.75v3.75z" fill="#7ECDC3"/></svg>