<svg xmlns="http://www.w3.org/2000/svg" viewBox="0 0 140 105" enable-background="new 0 0 140 105"><path d="M17.526 44.843c1.385 0 2.505.188 3.358.564.852.376 1.558.916 2.115 1.618.554.704.96 1.522 1.21 2.455s.376 1.922.376 2.966c0 1.636-.187 2.906-.56 3.807-.373.902-.89 1.657-1.55 2.266-.662.61-1.372 1.013-2.132 1.215-1.037.278-1.977.418-2.82.418h-7.03v-15.31h7.03M15.23 56.676h1.16c.987 0 1.69-.11 2.11-.33.417-.218.744-.6.98-1.148.237-.547.356-1.434.356-2.66 0-1.622-.265-2.732-.794-3.33-.53-.6-1.406-.9-2.632-.9h-1.18v8.367m2.298-12.33h-7.03c-.274 0-.496.222-.496.496v15.313c0 .274.222.496.496.496h7.03c.88 0 1.872-.146 2.948-.435.836-.223 1.623-.67 2.34-1.332.71-.654 1.273-1.476 1.672-2.44.396-.96.597-2.304.597-3.998 0-1.083-.132-2.124-.393-3.095-.267-.992-.704-1.878-1.302-2.633-.606-.764-1.38-1.357-2.304-1.765-.913-.4-2.11-.605-3.558-.605zm-1.802 4.46h.684c1.072 0 1.833.246 2.26.73.306.347.67 1.15.67 3.004 0 1.434-.17 2.13-.314 2.462-.192.444-.44.74-.757.907-.237.123-.755.27-1.88.27h-.664v-7.374zm16.54-3.962v15.312h-4.743V44.843h4.742m0-.496h-4.742c-.274 0-.496.222-.496.496v15.312c0 .274.222.496.496.496h4.742c.274 0 .496-.22.496-.494V44.843c0-.274-.22-.496-.494-.496zm9.82.236c1.955 0 3.447.364 4.474 1.09 1.025.73 1.636 1.887 1.832 3.474l-4.46.26c-.12-.687-.368-1.19-.748-1.503-.38-.312-.904-.47-1.572-.47-.55 0-.964.118-1.242.35-.278.235-.417.52-.417.853 0 .243.114.463.344.657.223.202.752.39 1.588.564 2.068.445 3.55.897 4.444 1.352.893.456 1.544 1.023 1.952 1.698.407.675.61 1.43.61 2.266 0 .983-.272 1.888-.815 2.716-.543.83-1.302 1.458-2.276 1.886-.974.43-2.203.643-3.687.643-2.605 0-4.408-.503-5.41-1.506C35.7 57.91 35.133 56.636 35 55.09l4.5-.28c.1.73.297 1.29.596 1.67.488.62 1.184.93 2.09.93.675 0 1.195-.157 1.56-.475.366-.317.55-.684.55-1.102 0-.397-.175-.752-.523-1.065-.347-.313-1.156-.61-2.423-.888-2.074-.466-3.554-1.086-4.438-1.858-.892-.774-1.337-1.76-1.337-2.956 0-.787.228-1.53.684-2.23.454-.7 1.14-1.25 2.056-1.65.916-.403 2.17-.603 3.767-.603m0-.496c-1.657 0-2.99.216-3.964.642-1.003.436-1.768 1.053-2.276 1.832-.507.777-.764 1.618-.764 2.5 0 1.342.508 2.462 1.51 3.33.955.836 2.478 1.48 4.654 1.968 1.546.342 2.042.63 2.2.774.246.22.36.442.36.697 0 .275-.12.506-.378.73-.27.234-.688.354-1.237.354-.753 0-1.31-.242-1.7-.74-.24-.31-.408-.79-.494-1.43-.033-.25-.245-.43-.49-.43h-.032l-4.502.28c-.133.01-.258.07-.345.172-.087.1-.13.233-.118.366.142 1.66.763 3.05 1.846 4.133 1.11 1.11 2.994 1.65 5.76 1.65 1.546 0 2.854-.232 3.888-.686 1.058-.466 1.897-1.16 2.49-2.07.596-.907.898-1.912.898-2.987 0-.922-.23-1.77-.682-2.522-.454-.753-1.18-1.386-2.152-1.882-.59-.3-1.388-.59-2.42-.875l4.288-.25c.137-.008.264-.072.352-.178.088-.105.128-.242.11-.378-.212-1.724-.898-3.01-2.038-3.817-1.113-.786-2.715-1.183-4.766-1.183zm1.48 5.654c-.48-.12-1.005-.244-1.575-.367-1.044-.217-1.305-.397-1.36-.447-.18-.154-.18-.253-.18-.29 0-.187.073-.333.24-.472.182-.153.502-.234.924-.234.546 0 .97.12 1.258.356.282.234.475.64.573 1.205.015.1.058.184.12.25zm21.314-4.897v3.78H60.05v11.532h-4.73v-11.53h-4.827v-3.782h14.384m0-.496H50.494c-.274 0-.496.222-.496.496v3.78c0 .275.222.497.496.497h4.33v11.035c0 .274.223.496.497.496h4.733c.274 0 .496-.22.496-.494V49.12h4.33c.273 0 .495-.222.495-.496v-3.78c0-.275-.223-.497-.497-.497zm10.2.496c1.463 0 2.58.125 3.354.376.776.25 1.398.714 1.87 1.392.476.68.71 1.506.71 2.482 0 .85-.18 1.582-.542 2.198-.36.617-.862 1.116-1.495 1.5-.405.243-.957.445-1.66.606.563.187.974.375 1.23.563.175.126.425.395.757.806.33.41.55.73.66.95l2.292 4.438h-5.346l-2.53-4.68c-.318-.605-.604-.998-.854-1.18-.343-.236-.73-.354-1.16-.354h-.42v6.214h-4.75v-15.31h7.886m-3.134 6.204h1.997c.218 0 .635-.07 1.255-.21.312-.062.567-.222.765-.48.2-.256.298-.552.298-.886 0-.495-.156-.874-.47-1.14-.313-.264-.903-.396-1.765-.396h-2.08v3.112m3.135-6.7h-7.885c-.274 0-.496.22-.496.495v15.312c0 .274.222.496.496.496h4.752c.274 0 .496-.22.496-.494V54.44c.3.012.564.1.804.264.097.07.33.303.698 1.003l2.532 4.684c.087.16.254.26.436.26h5.346c.173 0 .333-.09.423-.237.09-.148.095-.332.016-.485l-2.29-4.437c-.127-.253-.362-.594-.718-1.034-.37-.46-.64-.743-.852-.895-.038-.027-.078-.054-.12-.08.188-.08.36-.17.515-.263.707-.427 1.268-.99 1.667-1.673.405-.687.61-1.512.61-2.448 0-1.076-.268-2.006-.8-2.766-.533-.767-1.247-1.3-2.122-1.583-.83-.27-1.978-.4-3.506-.4zM72.44 48.43h1.584c.97 0 1.32.176 1.443.28.128.108.296.302.296.76 0 .225-.064.415-.195.584-.127.165-.276.26-.47.3-.773.173-1.056.198-1.157.198h-1.5v-2.12zm16.608-3.587v15.312h-4.743V44.843h4.743m0-.496h-4.743c-.274 0-.496.222-.496.496v15.312c0 .274.22.496.494.496h4.743c.274 0 .496-.22.496-.494V44.843c0-.274-.222-.496-.496-.496zm19.61.496h.005m-.005 0l-5.59 5.78 5.84 9.532h-5.827l-3.226-6.297-2.445 2.56v3.737h-4.733V44.843h4.732v5.787l4.955-5.787h6.294m.004-.496h-6.298c-.145 0-.282.063-.377.173l-4.085 4.768v-4.445c0-.274-.222-.496-.496-.496h-4.733c-.274 0-.496.222-.496.496v15.312c0 .274.223.496.497.496h4.732c.273 0 .495-.22.495-.494V56.62l1.826-1.914 2.91 5.676c.086.167.256.27.44.27h5.83c.18 0 .344-.096.432-.253.09-.158.085-.35-.01-.5l-5.64-9.207 5.304-5.483c.1-.09.16-.22.16-.365.002-.273-.217-.495-.49-.495zm15.936.496v3.78h-4.827v11.532h-4.73v-11.53h-4.83v-3.782H124.6m0-.496h-14.386c-.274 0-.496.222-.496.496v3.78c0 .275.222.497.496.497h4.333v11.035c0 .274.222.496.496.496h4.73c.274 0 .496-.22.496-.494V49.12h4.33c.273 0 .495-.222.495-.496v-3.78c0-.275-.222-.497-.496-.497zm4.904 11.547v4.262h-4.543v-4.262h4.545m0-.496h-4.543c-.273 0-.495.222-.495.496v4.262c0 .274.222.496.496.496h4.544c.274 0 .496-.222.496-.496v-4.262c0-.274-.222-.496-.496-.496z" fill="#444"/></svg>