<svg xmlns="http://www.w3.org/2000/svg" viewBox="0 0 140 105" enable-background="new 0 0 140 105"><path d="M111.123 62.413v-2.7l3.372-6.74-3.372-6.74v-2.696h2.696v2.695l2.695 5.393 2.695-5.393v-2.695h2.7v2.695l-3.373 6.742 3.372 6.74v2.7h-2.7v-2.7l-2.695-5.394-2.697 5.394v2.7h-2.697zM130 35.446V70.5h-8.09v-2.693h5.393V38.143h-5.393v-2.696H130z" fill="#78FFFF"/><path d="M111.123 61.468V58.77l3.372-6.74-3.372-6.743V42.59h2.696v2.696l2.695 5.393 2.695-5.395V42.59h2.7v2.696l-3.373 6.742 3.372 6.74v2.7h-2.7V58.77l-2.695-5.394-2.697 5.394v2.698h-2.697z" fill="#111"/><path d="M18.09 62.413v-2.7h2.697v-13.48H18.09v-2.695h8.09v2.695h-2.696v13.484h2.696v2.7h-8.09zm10.786 0V43.536h2.697l4.045 8.088 4.045-8.088h2.697v18.877h-2.697V48.93l-2.696 5.39H34.27l-2.696-5.39v13.483h-2.698zm16.18 0V46.23c0-.743.26-1.375.78-1.895.52-.533 1.158-.8 1.916-.8h5.395c.743 0 1.376.267 1.896.8.533.52.8 1.15.8 1.896v16.184H53.15V54.32h-5.395v8.093h-2.697zm8.09-10.79V46.23H47.75v5.395h5.396zm8.09 10.79c-.76 0-1.397-.26-1.918-.78-.52-.52-.778-1.16-.778-1.92v-13.48c0-.744.26-1.376.778-1.896.52-.533 1.16-.8 1.918-.8h5.394c.744 0 1.376.267 1.896.8.534.52.8 1.15.8 1.896v2.698H66.63v-2.7h-5.394v13.484h5.394V54.32h-2.697v-2.696h4.045c.365 0 .68.136.948.4.267.27.4.584.4.95v6.74c0 .76-.267 1.398-.8 1.918-.52.52-1.152.78-1.897.78h-5.395zm10.786 0v-2.7h2.697v-13.48h-2.7v-2.695h8.09v2.695h-2.696v13.484h2.696v2.7h-8.09zm10.788 0V43.536h2.694l6.743 13.483V43.534h2.697v18.877h-2.697L85.504 48.93v13.483H82.81zm14.83 0V43.536h10.786v2.695h-8.09v5.395h5.396v2.696h-5.395v5.395h8.09v2.7H97.64zM10 70.5V35.446h8.09v2.696h-5.392v29.664h5.392V70.5H10z" fill="#78FFFF"/><path d="M18.09 61.468V58.77h2.697V45.286H18.09V42.59h8.09v2.696h-2.696V58.77h2.696v2.698h-8.09zm10.786 0V42.59h2.697l4.045 8.09 4.045-8.09h2.697v18.878h-2.697V47.983l-2.696 5.393H34.27l-2.696-5.393v13.484h-2.698zm16.18 0V45.286c0-.744.26-1.376.78-1.896.52-.533 1.158-.8 1.916-.8h5.395c.743 0 1.376.267 1.896.8.533.52.8 1.15.8 1.896v16.182H53.15v-8.092h-5.395v8.092h-2.697zm8.09-10.79v-5.392H47.75v5.393h5.396zm8.09 10.79c-.76 0-1.397-.26-1.918-.78-.52-.52-.778-1.16-.778-1.918V45.286c0-.744.26-1.376.778-1.896.52-.533 1.16-.8 1.918-.8h5.394c.744 0 1.376.267 1.896.8.534.52.8 1.15.8 1.896v2.697H66.63v-2.697h-5.394V58.77h5.394v-5.394h-2.697V50.68h4.045c.365 0 .68.135.948.4.267.268.4.583.4.948v6.74c0 .76-.267 1.4-.8 1.92-.52.52-1.152.78-1.897.78h-5.395zm10.786 0V58.77h2.697V45.286h-2.7V42.59h8.09v2.696h-2.696V58.77h2.696v2.698h-8.09zm10.788 0V42.59h2.694l6.743 13.483V42.59h2.697v18.878h-2.697l-6.743-13.484v13.484H82.81zm14.83 0V42.59h10.786v2.696h-8.09v5.393h5.396v2.695h-5.395v5.394h8.09v2.697H97.64zM10 69.556V34.5h8.09v2.697h-5.392V66.86h5.392v2.695H10zM130 34.5v35.056h-8.09v-2.694h5.393V37.197h-5.393V34.5H130z" fill="#111"/></svg>