<svg xmlns="http://www.w3.org/2000/svg" viewBox="0 0 140 105" enable-background="new 0 0 140 105"><path d="M18.58 55.235c-.963.94-2.15 1.41-3.567 1.41s-2.603-.47-3.565-1.41c-.962-.938-1.443-2.108-1.443-3.51s.48-2.57 1.443-3.51c.96-.94 2.15-1.41 3.565-1.41s2.603.47 3.566 1.41c.96.94 1.44 2.108 1.44 3.51s-.48 2.572-1.44 3.51zm-1.18-5.953c-.65-.67-1.445-1.007-2.39-1.007s-1.74.336-2.386 1.007c-.65.672-.973 1.486-.973 2.443 0 .958.325 1.772.974 2.443.648.67 1.444 1.007 2.387 1.007s1.74-.336 2.39-1.007c.648-.67.97-1.485.97-2.443 0-.957-.322-1.77-.97-2.443zm7.043 3.348v3.918H22.92V49.31h1.524v1.32c.245-.444.582-.794 1.013-1.048.43-.254.896-.38 1.395-.38.816 0 1.476.248 1.98.748.503.498.755 1.22.755 2.163v4.436h-1.525v-3.975c0-1.333-.553-2-1.66-2-.526 0-.984.175-1.374.524-.39.347-.585.857-.585 1.53zm12.88 2.462c.553 0 1.03-.092 1.427-.278.4-.186.817-.484 1.252-.89l1.034 1.06c-1.008 1.116-2.23 1.674-3.668 1.674s-2.63-.463-3.58-1.39c-.947-.924-1.42-2.094-1.42-3.51s.482-2.593 1.45-3.537c.965-.94 2.185-1.413 3.66-1.413 1.474 0 2.705.545 3.694 1.633l-1.02 1.114c-.455-.435-.884-.74-1.287-.91-.404-.174-.878-.26-1.422-.26-.962 0-1.77.31-2.423.932-.652.62-.98 1.415-.98 2.382 0 .966.324 1.773.973 2.422s1.42.972 2.31.972zm12.392 1.456h-1.387v-.966c-.6.716-1.402 1.075-2.408 1.075-.753 0-1.376-.214-1.87-.64-.495-.426-.742-.995-.742-1.708s.262-1.247.788-1.6c.526-.354 1.238-.53 2.136-.53h1.973v-.273c0-.96-.535-1.442-1.606-1.442-.673 0-1.37.245-2.097.734l-.68-.953c.88-.7 1.877-1.048 2.993-1.048.853 0 1.55.214 2.088.645.54.432.81 1.11.81 2.034v4.667zm-1.524-2.694v-.612H46.48c-1.098 0-1.647.345-1.647 1.034 0 .354.137.623.408.81.272.185.65.278 1.137.278.485 0 .91-.136 1.27-.408.366-.27.547-.64.547-1.102zm6.17-1.224v3.918h-1.523V49.31h1.524v1.32c.22-.444.55-.794.99-1.048.44-.254.913-.38 1.42-.38 1.145 0 1.92.47 2.33 1.414.715-.943 1.61-1.415 2.68-1.415.816 0 1.476.25 1.98.75.503.5.754 1.22.754 2.164v4.436H62.99v-3.974c0-1.333-.555-2-1.66-2-.518 0-.97.165-1.355.496s-.587.815-.606 1.45v4.027h-1.526v-3.975c0-.69-.123-1.195-.368-1.517-.245-.323-.63-.484-1.156-.484s-.983.175-1.373.524c-.39.348-.586.858-.586 1.53zm17.153-3.43c.97 0 1.8.337 2.49 1.008.69.67 1.034 1.565 1.034 2.68 0 1.116-.343 2.024-1.028 2.722-.687.7-1.485 1.05-2.397 1.05-.91 0-1.73-.4-2.456-1.2v3.73h-1.524v-9.88h1.524v1.266c.6-.918 1.384-1.375 2.355-1.375zm-2.38 3.743c0 .69.207 1.255.625 1.694.417.44.926.66 1.524.66.6 0 1.12-.218 1.565-.653.445-.435.667-1 .667-1.694s-.217-1.27-.652-1.73c-.436-.456-.958-.686-1.565-.686-.608 0-1.12.23-1.538.687-.42.46-.63 1.034-.63 1.724zm13.727.285V49.31h1.525v7.24H82.86v-1.32c-.244.444-.58.793-1.012 1.047-.43.255-.896.382-1.395.382-.816 0-1.476-.25-1.98-.75-.503-.5-.755-1.22-.755-2.165V49.31h1.525v3.973c0 1.333.553 2 1.66 2 .526 0 .984-.174 1.374-.524.39-.35.584-.86.584-1.533zm9.883 1.156c0 .69-.25 1.24-.75 1.653-.498.413-1.137.62-1.918.62-.526 0-1.073-.095-1.64-.286-.566-.19-1.068-.456-1.503-.8l.734-1.186c.844.636 1.66.953 2.45.953.343 0 .616-.08.815-.238.2-.16.3-.36.3-.607 0-.363-.48-.69-1.44-.98-.073-.028-.128-.045-.164-.054-1.506-.41-2.26-1.09-2.26-2.04 0-.673.26-1.21.784-1.614.52-.404 1.198-.606 2.033-.606.834 0 1.623.244 2.367.733l-.57 1.13c-.59-.39-1.23-.586-1.92-.586-.363 0-.658.065-.885.197-.227.132-.34.33-.34.592 0 .236.117.408.354.516.16.082.39.16.685.23.295.074.556.146.783.22.225.072.445.153.66.244.212.09.44.218.686.38.492.33.737.84.737 1.528zm7.307.708c.553 0 1.03-.092 1.428-.278.4-.186.816-.484 1.25-.89l1.035 1.06c-1.007 1.116-2.23 1.674-3.666 1.674-1.438 0-2.63-.463-3.58-1.39-.947-.924-1.42-2.094-1.42-3.51s.482-2.593 1.447-3.537c.967-.94 2.187-1.413 3.66-1.413 1.475 0 2.706.545 3.695 1.633l-1.023 1.114c-.453-.435-.88-.74-1.286-.91-.402-.174-.876-.26-1.42-.26-.96 0-1.77.31-2.423.932s-.98 1.415-.98 2.382c0 .966.324 1.773.973 2.422.65.65 1.42.972 2.31.972zm7.87-2.462v3.918h-1.526V46.466h1.525v4.164c.215-.444.544-.794.984-1.048.44-.254.915-.38 1.423-.38.816 0 1.476.248 1.98.748.503.498.754 1.22.754 2.163v4.436h-1.523v-3.975c0-1.333-.554-2-1.66-2-.526 0-.984.175-1.374.524s-.585.857-.585 1.53zm15.03.966h-5.675c.035.526.277.95.72 1.272.445.322.953.483 1.525.483.907 0 1.597-.284 2.07-.855l.87.952c-.78.807-1.796 1.21-3.05 1.21-1.016 0-1.88-.338-2.59-1.013-.713-.675-1.068-1.582-1.068-2.722 0-1.136.362-2.042 1.09-2.713.724-.67 1.58-1.008 2.564-1.008s1.82.297 2.51.89c.69.595 1.034 1.414 1.034 2.457v1.05zm-5.675-1.198h4.15c0-.607-.19-1.074-.57-1.4-.383-.328-.85-.492-1.41-.492s-1.06.17-1.504.51c-.443.34-.664.802-.664 1.382zm10.132-3.688v.6h1.905v1.224h-1.905v6.014h-1.524v-6.014h-.91V49.31h.91v-.558c0-.762.23-1.368.687-1.816.458-.45 1.012-.673 1.66-.673.65 0 1.24.24 1.776.72l-.626 1.076c-.3-.32-.612-.48-.94-.48s-.58.104-.76.308-.273.476-.273.82z" fill="#E3695C"/></svg>