<svg xmlns="http://www.w3.org/2000/svg" viewBox="0 0 140 105" enable-background="new 0 0 140 105"><path fill="#FF7040" d="M67.057 33.83v-2.955h-2.945v2.956h-5.888V45.61h2.944v-8.832H70V33.83z"/><path fill="#FF4046" d="M64.112 24.983v2.944h-2.944v2.948h-2.944v2.956h5.888v-2.954h2.945v-5.893zm2.945-2.943H70v2.943h-2.943zm8.83 8.835h2.944v2.955h-2.94zm-2.942-2.948h2.942v2.948h-2.942z"/><path fill="#FF7040" d="M78.83 36.775V33.83h-5.885v2.945h2.943v2.945h2.943v5.887h2.947v-8.832z"/><path fill="#FFAF40" d="M75.888 39.72v-2.945H61.17v11.777h2.944V39.72h8.834v2.945h2.943v5.887h2.944V39.72z"/><path d="M72.945 42.665V39.72h-8.832v11.777H75.89v-8.832h-2.943zm0 5.887h-5.887v-5.887H70v2.942h2.945v2.945z" fill="#FFEF40"/><path fill="#fff" d="M70 45.607v-2.942h-2.943v5.887h5.89v-2.945z"/><path d="M93.568 55.912c0 2.443-1.977 4.427-4.417 4.427-2.437 0-4.42-1.985-4.42-4.43 0-2.44 1.98-4.414 4.42-4.414 2.443 0 4.42 1.976 4.42 4.415z" fill="#806D60"/><path d="M88.006 69.03l2.374-8.52-38.384-8.865-.002.003c-.368-.088-.74-.15-1.144-.15-2.44 0-4.312 1.974-4.312 4.414 0 2.017 1.515 3.72 3.288 4.252l-.018.014c.117.036.174.07.294.08l37.904 8.772z" fill="#A68E7C"/><path fill="#806D60" d="M49.62 60.51l38.386-8.864 2.31 8.538-38.32 8.846z"/><path d="M55.27 64.764c0 2.438-1.98 4.415-4.42 4.415s-4.415-1.98-4.415-4.417c0-2.443 1.974-4.425 4.415-4.425 2.44 0 4.42 1.98 4.42 4.424z" fill="#A68E7C"/><path d="M93.568 64.764c0 2.438-1.977 4.415-4.417 4.415-2.437 0-4.42-1.98-4.42-4.417 0-2.443 1.98-4.425 4.42-4.425 2.443 0 4.42 1.98 4.42 4.424zM107.76 31.223c-.26-.547-.518-1.087-.785-1.618l-.524.272c.273.523.53 1.053.774 1.59l.536-.244zm-.033 34.73c.247-.545.48-1.09.716-1.634l-.55-.235c-.222.55-.46 1.088-.703 1.62l.537.246zm2.443-28.006c-.148-.572-.32-1.154-.493-1.714l-.565.175c.175.552.334 1.123.48 1.685l.577-.146zm-1.064-3.42c-.206-.557-.412-1.122-.646-1.662l-.534.216c.213.55.432 1.1.62 1.65l.56-.2zm1.244 7.017l.575-.1c-.105-.588-.207-1.182-.34-1.758l-.57.132c.116.564.232 1.14.335 1.726zM104.21 25c-.336-.485-.685-.978-1.048-1.444l-.46.357c.357.46.698.942 1.03 1.42l.48-.332zm-4.53-5.51c-.43-.432-.854-.845-1.288-1.246l-.395.43c.424.394.842.815 1.25 1.232l.433-.416zm2.38 2.66c-.38-.465-.764-.92-1.163-1.355l-.434.394c.387.435.78.882 1.14 1.34l.457-.38zm-4.99-5.096c-.45-.395-.916-.778-1.39-1.136l-.353.452c.45.366.907.744 1.355 1.123l.39-.44zm9.04 10.974c-.283-.518-.6-1.03-.91-1.53l-.492.308c.302.506.612 1.01.892 1.52l.51-.298zm-1.913 44.118c.34-.5.662-.992.974-1.492l-.492-.32c-.307.504-.643.988-.972 1.476l.492.336zm6.603-27.104l.583-.06c-.056-.593-.118-1.18-.19-1.767l-.58.073c.07.575.13 1.154.186 1.754zM28.803 53.86c.073.59.16 1.177.264 1.772l.577-.103c-.1-.583-.187-1.164-.26-1.744l-.58.072zm65.464-39.023c-.49-.348-.977-.683-1.47-1.006l-.33.487c.493.32.97.656 1.454 1.003l.348-.483zM28.503 50.3c.024.595.067 1.187.11 1.782l.584-.05c-.045-.578-.087-1.166-.1-1.76l-.594.027zm3.56 13.688l-.54.225c.22.56.455 1.095.714 1.642l.522-.243c-.243-.536-.473-1.08-.697-1.624zm78.877-15.436v-.005h.59v.005c0-.596-.015-1.19-.034-1.777l-.597.013c.026.595.04 1.178.04 1.764zm-77.4 18.65l-.522.26c.263.53.548 1.054.846 1.57l.512-.277c-.296-.508-.574-1.028-.835-1.552zm-4.134-9.82c.135.588.267 1.16.413 1.74l.575-.155c-.156-.558-.288-1.14-.418-1.71l-.572.126zm2.034 4.958c-.203-.55-.39-1.116-.565-1.672l-.555.174c.176.562.354 1.142.56 1.692l.56-.195zm78.142-3.252l.562.148c.15-.568.298-1.155.42-1.737l-.57-.118c-.136.567-.266 1.132-.412 1.705zm-1.052 3.356l.546.206c.208-.567.4-1.124.58-1.702l-.572-.173c-.175.567-.362 1.127-.553 1.67zm2.966-12.017l-.598-.03c-.015.584-.06 1.167-.105 1.76l.584.046c.043-.588.09-1.18.12-1.776zM35.28 70.26l-.504.324c.327.5.65.996.987 1.488l.48-.34c-.332-.475-.65-.964-.962-1.472zm75.053-14.615l.576.098c.102-.58.192-1.164.27-1.756l-.58-.08c-.077.584-.166 1.16-.268 1.738zm-4.236 13.472c.286-.52.574-1.04.85-1.563l-.524-.266c-.27.524-.556 1.037-.833 1.54l.507.29zm-68.8-45.204l-.46-.357c-.36.466-.71.958-1.047 1.442l.478.333c.332-.475.675-.96 1.03-1.416zm-3.737 5.944l-.526-.27c-.27.53-.532 1.066-.78 1.61l.538.244c.24-.533.498-1.063.767-1.582zM35.3 26.8l-.495-.307c-.312.5-.625 1.007-.915 1.525l.515.297c.28-.508.59-1.01.895-1.516zm12.233-12.485l-.325-.488c-.494.325-.98.662-1.47 1.01l.342.482c.483-.35.962-.687 1.453-1.006zM44.67 16.37l-.354-.45c-.474.357-.938.742-1.388 1.135l.386.438c.45-.377.904-.755 1.356-1.122zm-2.667 2.306l-.397-.43c-.435.403-.86.817-1.285 1.244l.433.42c.407-.42.823-.838 1.25-1.234zm-2.465 2.516l-.433-.397c-.402.438-.784.893-1.167 1.358l.458.38c.362-.458.75-.905 1.142-1.34zM29.396 43.24l-.58-.073c-.075.584-.14 1.178-.195 1.782l.585.042c.06-.583.118-1.168.192-1.753zm-.296 3.538l-.597-.02c-.016.59-.033 1.2-.033 1.79h.586c0-.59.015-1.19.045-1.77zm1.803-10.415l-.57-.176c-.178.576-.343 1.15-.49 1.727l.57.15c.155-.58.316-1.136.49-1.7zm1.187-3.315l-.548-.22c-.22.558-.433 1.103-.633 1.672l.546.2c.2-.555.417-1.11.633-1.652zm-2.094 6.722l-.57-.117c-.133.577-.237 1.158-.342 1.743l.576.103c.103-.578.22-1.153.336-1.73zM57.03 9.7l-.188-.55c-.56.178-1.13.384-1.676.605l.2.54c.554-.202 1.113-.405 1.665-.595zM70 7.602c.303 0 .602.003.907.01l.006-.583c-.288-.01-.586-.014-.868-.014-.314-.003-.61.002-.92.01l.015.585c.29-.006.57-.01.86-.01zm8.016.185c-.585-.115-1.177-.207-1.767-.296l-.088.58c.578.088 1.167.19 1.734.298l.12-.58zm-3.54-.537c-.59-.057-1.18-.102-1.773-.148l-.046.584c.602.046 1.182.09 1.757.16l.062-.595zm-23.908 5.26l-.284-.52c-.526.287-1.045.574-1.553.888l.294.503c.512-.307 1.03-.587 1.545-.87zm34.307-2.753c-.562-.208-1.114-.415-1.688-.606L83 9.718c.562.188 1.123.388 1.658.59l.217-.55zm3.265 1.42c-.536-.26-1.064-.506-1.613-.738l-.23.533c.524.237 1.06.48 1.586.735l.257-.533zm-6.652-2.55c-.58-.172-1.15-.32-1.726-.454l-.147.567c.582.146 1.142.293 1.712.453l.16-.566zm9.792 4.256c-.51-.314-1.024-.606-1.55-.884l-.282.515c.514.28 1.022.562 1.538.87l.293-.503zM53.735 10.97l-.23-.544c-.554.234-1.1.48-1.626.74l.26.534c.52-.258 1.05-.5 1.594-.73zm10.138-2.91l-.086-.577c-.59.09-1.175.188-1.753.296l.1.584c.584-.115 1.157-.216 1.74-.304zm-3.458.67l-.13-.568c-.585.133-1.16.292-1.726.458l.157.56c.557-.16 1.133-.304 1.697-.45zm6.962-1.046l-.03-.583c-.605.046-1.198.09-1.786.15l.06.595c.593-.073 1.17-.117 1.758-.16z" fill="#806D60"/><path d="M40.696 85.945c0 .85-.115 1.642-.343 2.373-.223.716-.552 1.35-.985 1.888-.423.535-.936.95-1.536 1.245-.602.305-1.272.45-2.028.45-1.642 0-3.492-.196-5.564-.622V77.412c-.28-.042-.515-.087-.69-.12-.174-.02-.29-.044-.362-.057l-.163-.03c-.368-.077-.555-.303-.555-.695V75.2h4.5v6.522c.453-.477.962-.866 1.527-1.14.575-.29 1.233-.43 2-.43.615 0 1.19.12 1.702.373.51.257.955.635 1.333 1.117.362.5.653 1.104.863 1.814.194.723.3 1.56.3 2.49zm-2.82 0c0-.664-.064-1.238-.163-1.704-.107-.45-.26-.834-.46-1.127-.205-.278-.443-.5-.733-.623-.285-.145-.606-.207-.972-.207-.562 0-1.05.127-1.455.362-.397.24-.778.578-1.125 1.016v5.947c.746.135 1.476.203 2.212.203.41 0 .787-.078 1.118-.23.33-.152.618-.388.845-.715.227-.313.41-.718.54-1.206.12-.48.193-1.063.193-1.716zm9.924 4.482v1.308h-6.087v-1.308c0-.374.174-.617.547-.696.037-.006.076-.013.146-.016.058-.01.17-.033.328-.065.16-.02.37-.066.65-.11v-7.01c-.28-.043-.49-.09-.65-.115-.156-.026-.27-.048-.328-.062-.07-.014-.11-.022-.146-.023-.374-.086-.548-.314-.548-.696v-1.307h4.417v9.212c.274.042.49.087.646.107.157.034.27.056.328.065.07.003.11.01.147.018.37.08.548.323.548.697zm-1.404-12.762c-.098.213-.233.396-.39.55-.157.15-.345.282-.56.374-.21.087-.436.133-.693.133-.23 0-.45-.046-.667-.135-.205-.093-.386-.224-.553-.375-.153-.153-.268-.337-.362-.55-.09-.204-.144-.43-.144-.664 0-.24.055-.48.146-.688.095-.224.21-.41.363-.562.167-.153.348-.283.553-.374.217-.09.436-.136.667-.136.257 0 .482.047.694.136.213.09.402.22.56.375.155.153.29.34.39.564.092.206.137.447.137.688 0 .235-.045.46-.14.665zM50.72 91.08c-.534-.566-.8-1.34-.8-2.32v-6.374h-1.16c-.144 0-.27-.055-.375-.146-.11-.09-.16-.245-.16-.434v-1.09l1.828-.3.575-3.123c.032-.143.1-.26.205-.343.103-.08.245-.112.405-.112h1.42v3.583h2.99v1.968h-2.99v6.19c0 .355.087.622.26.824.175.206.42.312.71.312.166 0 .32-.025.424-.074.12-.032.22-.082.307-.12.084-.053.16-.087.22-.137.078-.03.14-.054.205-.054.08 0 .144.02.205.054.046.05.105.106.167.19l.81 1.34c-.39.33-.853.58-1.37.75-.518.17-1.055.256-1.6.256-.99 0-1.743-.285-2.277-.836zm15.462-1.04c-.31.36-.637.647-.99.89-.358.25-.714.437-1.1.586-.388.137-.774.242-1.174.296-.42.073-.816.09-1.217.09-.693 0-1.364-.123-1.986-.387-.62-.265-1.152-.655-1.62-1.156-.467-.5-.826-1.12-1.092-1.857-.27-.72-.414-1.562-.414-2.495 0-.832.126-1.61.362-2.328.237-.718.59-1.34 1.062-1.863.472-.523 1.042-.93 1.73-1.23.685-.29 1.477-.437 2.377-.437.913 0 2.102.265 3.58.818v3.52h-1.286c-.28 0-.454-.148-.518-.423-.023-.18-.092-.72-.177-1.61-.574-.14-1.063-.217-1.44-.217-.487 0-.908.09-1.273.262-.35.175-.657.43-.894.753-.238.322-.417.723-.54 1.178-.124.47-.18.996-.18 1.58 0 .606.063 1.153.2 1.617.12.48.31.875.55 1.21.253.315.543.558.892.724.346.166.747.25 1.182.25.437 0 .787-.05 1.05-.16.268-.11.504-.22.69-.357.177-.12.344-.244.476-.356.135-.096.295-.158.464-.158.214 0 .38.083.495.254l.792 1.006zm12.03.37v1.303h-2.605c-.264 0-.465-.033-.61-.11-.158-.074-.26-.236-.345-.48l-.24-.802c-.285.26-.563.484-.845.684-.277.188-.568.363-.856.49-.302.133-.606.23-.937.304-.338.068-.704.092-1.12.092-.474 0-.92-.063-1.32-.183-.417-.14-.766-.34-1.05-.6-.296-.26-.52-.58-.68-.958-.165-.395-.253-.85-.253-1.36 0-.434.113-.856.346-1.274.22-.416.602-.803 1.127-1.14.525-.335 1.223-.622 2.09-.837.87-.234 1.954-.348 3.245-.348v-.67c0-.77-.157-1.33-.474-1.704-.335-.376-.792-.563-1.403-.563-.445 0-.82.062-1.106.157-.3.103-.556.226-.78.346-.21.14-.417.26-.606.353-.177.107-.38.167-.61.167-.174 0-.342-.057-.468-.154-.143-.098-.237-.206-.318-.357l-.51-.877c1.31-1.206 2.888-1.805 4.742-1.805.658 0 1.25.112 1.77.327.52.225.964.52 1.33.916.364.385.642.854.834 1.4.18.543.27 1.135.27 1.77v5.06c.257.052.45.076.598.107.13.03.205.042.232.042.372.088.555.313.555.697zm-4.055-3.535c-.803 0-1.462.056-2 .148-.538.1-.97.24-1.29.393-.322.155-.562.34-.692.555-.13.2-.21.438-.21.68 0 .48.15.827.426 1.045.29.2.665.307 1.126.307.27 0 .528-.023.775-.072.234-.046.45-.126.668-.226.216-.105.41-.24.61-.385.2-.145.387-.32.59-.533v-1.91zm24.75 3.552v1.31H94.49V84.48c0-.736-.157-1.284-.47-1.64-.328-.374-.782-.56-1.396-.56-.286 0-.547.046-.78.14-.25.098-.455.247-.64.428-.182.172-.316.406-.424.684-.106.27-.15.586-.15.944v5.06c.272.045.49.09.646.106.156.035.27.058.327.068.07 0 .11.01.148.018.367.08.544.322.544.696v1.308H87.87v-7.256c0-.762-.15-1.323-.448-1.672-.315-.35-.774-.523-1.368-.523-.384 0-.756.1-1.1.3-.342.187-.658.456-.958.795v6.16c.278.045.487.09.648.107.17.035.268.058.34.068.056 0 .096.01.132.018.374.08.563.32.563.695v1.308h-6.1v-1.307c0-.373.188-.616.545-.695.04-.008.082-.017.147-.018.057-.01.17-.033.33-.068.155-.018.383-.062.65-.106v-7.01c-.268-.045-.495-.09-.65-.115-.16-.025-.273-.05-.33-.062-.065-.013-.108-.02-.147-.02-.357-.088-.545-.314-.544-.696v-1.307h3.348c.356 0 .586.17.7.502l.177.84c.206-.214.404-.424.63-.613.21-.187.455-.344.7-.47.244-.144.513-.25.8-.325.275-.08.596-.11.936-.11.724 0 1.31.185 1.774.58.45.383.796.9 1.036 1.55.177-.383.39-.705.66-.976.265-.272.563-.486.876-.655.312-.17.647-.306 1.01-.388.36-.08.723-.112 1.088-.112.628 0 1.18.09 1.672.278.486.197.893.483 1.224.855.34.362.6.82.77 1.354.175.536.262 1.148.262 1.837v5.062c.267.04.488.088.646.104.158.036.272.058.326.07.073 0 .112.008.15.016.36.08.542.323.542.697zm12.623-4.482c0 .85-.115 1.642-.343 2.374-.224.714-.56 1.35-.985 1.885-.424.535-.935.95-1.536 1.245-.605.307-1.273.45-2.027.45-.636 0-1.187-.1-1.635-.283-.452-.2-.845-.476-1.2-.827v2.476c.28.04.49.088.654.104.165.034.263.06.334.073.056.008.1.008.132.013.374.082.562.32.562.697v1.307h-6.1v-1.307c0-.376.185-.615.55-.697.032-.005.086-.005.144-.013.056-.015.17-.04.326-.073.156-.018.384-.063.66-.104V82.528c-.277-.043-.504-.09-.66-.115-.157-.026-.27-.048-.326-.062-.058-.012-.112-.02-.143-.02-.366-.086-.55-.313-.55-.696v-1.307h3.344c.18 0 .336.038.46.12.133.078.214.214.24.383l.23 1.058c.448-.525.974-.95 1.573-1.29.6-.322 1.3-.483 2.087-.483.62 0 1.195.127 1.708.387.514.262.957.635 1.335 1.13.363.495.656 1.105.864 1.824.195.722.3 1.56.3 2.49zm-2.82 0c0-.664-.064-1.236-.168-1.704-.1-.45-.257-.834-.454-1.127-.205-.277-.442-.5-.732-.623-.288-.143-.61-.207-.974-.207-.56 0-1.05.127-1.454.363-.396.238-.778.577-1.123 1.015v5.116c.308.393.655.665 1.008.812.37.147.77.222 1.19.222.41 0 .79-.078 1.125-.23.332-.152.623-.388.85-.715.228-.313.408-.718.542-1.206.117-.48.19-1.06.19-1.716z" fill="#FF7040"/></svg>