<svg xmlns="http://www.w3.org/2000/svg" viewBox="0 0 140 105" enable-background="new 0 0 140 105"><path fill="#47B549" d="M20 72.96h23.66l19.082-41.113h-23.66z"/><path fill="#338F39" d="M120 73.08H96.405L77.378 32.085h23.594zm-37.908.14H58.275L39.07 31.84h23.814z"/><linearGradient id="a" gradientUnits="userSpaceOnUse" x1="71.559" y1="57.144" x2="77.78" y2="59.851" gradientTransform="translate(-10.582)"><stop offset=".24" stop-color="#007136" stop-opacity="0"/><stop offset=".359" stop-color="#006731" stop-opacity=".156"/><stop offset=".558" stop-color="#004E25" stop-opacity=".418"/><stop offset=".811" stop-color="#002411" stop-opacity=".751"/><stop offset="1"/></linearGradient><path fill="url(#a)" d="M68.112 43.08L56.215 68.62l1.973 4.48 12.238-24.993z"/><path fill="#47B549" d="M58.246 73.195h23.66l19.08-41.113h-23.66z"/><linearGradient id="b" gradientUnits="userSpaceOnUse" x1="93.966" y1="46.061" x2="100.115" y2="48.737"><stop offset="0" stop-color="#005A2B"/><stop offset=".115" stop-color="#00622F" stop-opacity=".812"/><stop offset=".352" stop-color="#006D34" stop-opacity=".424"/><stop offset=".612" stop-color="#007136" stop-opacity="0"/></linearGradient><path opacity=".5" fill="url(#b)" d="M100.987 32.082L89.25 57.425l1.974 4.477 12.07-24.742z"/><linearGradient id="c" gradientUnits="userSpaceOnUse" x1="1702.096" y1="45.759" x2="1708.244" y2="48.434" gradientTransform="matrix(-1 0 0 1 1748.168 0)"><stop offset="0" stop-color="#0B6431"/><stop offset=".038" stop-color="#096632" stop-opacity=".939"/><stop offset=".246" stop-color="#026F35" stop-opacity=".598"/><stop offset=".612" stop-color="#007136" stop-opacity="0"/></linearGradient><path opacity=".6" fill="url(#c)" d="M39.05 31.78l11.74 25.34-1.976 4.48-12.068-24.744z"/></svg>