<svg xmlns="http://www.w3.org/2000/svg" viewBox="0 0 140 105" enable-background="new 0 0 140 105"><g fill-rule="evenodd" clip-rule="evenodd"><path d="M71.92 54.182c-.063-.057-.13-.112-.194-.17.19-1.372.463-2.74.548-4.124.25-4.15-.335-8.236-1.128-12.3-.498-2.546-1.014-5.092-1.435-7.652-.376-2.31-1.464-4.25-2.953-5.977-.732-.853-1.84-1.085-2.313-.668-.516.456-.27 1.553.558 2.425.478.502.974.968 1.268 1.634 3.524 8 4.84 16.343 3.934 25.036-.087.83-.48 1.57-.786 2.332-.094.232-.23.328-.467.374-1.17.23-1.996 1-2.8 1.805-.644.65-1.27 1.322-1.936 1.947-.648.607-1.405 1.006-2.336.99-.482-.01-.77-.08-.86-.687-.29-1.97-.663-3.926-1.026-5.885-.607-3.276-1.26-6.535-2.542-9.642-.854-2.066-2.12-3.888-3.215-5.81-2.84-4.982-5.618-10.006-9.385-14.39-2.034-2.365-4.335-4.406-7.042-5.962-2.8-1.608-5.83-2.048-9.04-1.946-1.753.055-3.244.547-4.598 1.525-1.096.79-2.106 1.725-2.388 3.15-.186.936-.304 1.88-.294 2.846.024 2.375.666 4.625 1.343 6.863.287.95.28 1.86.09 2.816-.22 1.12-.675 2.137-1.11 3.177-.635 1.513-1.323 2.996-1.7 4.626-.31 1.336.053 2.372.934 3.19.916.852 1.806 1.748 2.874 2.448 2.212 1.45 2.31 2.685.475 4.636-.954 1.015-1.897 2.042-2.85 3.057-.546.583-.937 1.256-1.176 2.008-.35 1.104-.306 2.083.654 2.958 1.078.982 2.234 1.805 3.58 2.352.546.223.897.574 1.146 1.125.655 1.45.915 2.976.99 4.542.13 2.783-.2 5.576.244 8.354.267 1.668.837 3.186 1.966 4.458 1.373 1.55 2.424 1.746 4.255.803.62-.32 1.228-.68 1.72-1.175 2.36-2.375 5.21-4.044 8.097-5.66 1.017-.57 2.094-1.037 3.24-1.32.343-.084.775-.31.984-.07.32.367-.18.678-.347.976-.732 1.28-1.677 2.44-2.286 3.79-.425.94-.902 1.938-.6 2.984.295 1.022.097 1.957-.147 2.92-.105.42-.218.84-.298 1.263-.394 2.09.935 3.655 3.063 3.695 1.192.02 2.325-.225 3.475-.47.454-.098.79-.272 1.113-.587 1.426-1.393 3.12-2.325 5.03-2.89 4.698-1.388 9.375-.846 14.028.207 2.58.58 5.07.548 7.506-.554 2.664-1.206 4.785-3.143 6.893-5.093 2.175-2.014 4.12-4.266 6.415-6.16.638-.53 1.32-.79 2.095-.947 5.604-1.146 10.562-3.582 14.776-7.48.735-.68 1.448-1.383 2.188-2.062 1.798-1.648 3.704-3.185 5.342-5.003.99-1.1 1.934-2.232 2.718-3.497.813-1.305 1.314-2.73 1.688-4.203.314-1.238-.023-1.84-1.226-2.347-1.172-.492-2.417-.42-3.61-.237-4.077.63-7.948 2.02-11.83 3.36-.448.156-.854.41-1.337.494-1.673.288-3.276.82-4.875 1.357-4.276 1.427-8.356 3.357-12.56 4.978-3.114 1.198-6.252 2.305-9.558 2.89-.72.127-.745-.067-.792-.644-.057-.73-.056-1.582-.53-2.113-.892-.998-.332-1.628.322-2.325.18-.188.35-.39.527-.58 5.192-5.58 11.05-10.346 17.466-14.457 1.466-.937 2.98-1.342 4.638-1.377 1.7-.034 3.372-.294 5.042-.555.857-.134 1.162-.488 1.105-1.167-.07-.847-.45-1.177-1.353-1.2-1.36-.036-2.665.317-3.99.54-2.234.372-4.364.982-6.336 2.18-2.606 1.58-5.154 3.237-7.547 5.125-2.634 2.08-5.093 4.355-7.404 6.79l-4.128 4.36z" fill="none"/><path d="M71.92 54.182c1.375-1.454 2.75-2.906 4.126-4.358 2.312-2.434 4.77-4.707 7.402-6.788 2.393-1.89 4.94-3.545 7.547-5.126 1.972-1.197 4.102-1.807 6.337-2.18 1.324-.22 2.63-.575 3.99-.54.9.023 1.28.354 1.352 1.2.057.68-.248 1.034-1.105 1.168-1.67.26-3.343.52-5.044.556-1.657.035-3.172.44-4.637 1.377-6.418 4.114-12.274 8.88-17.467 14.46-.178.19-.348.39-.527.58-.654.696-1.214 1.326-.32 2.324.473.53.472 1.385.528 2.114.047.577.073.77.792.644 3.306-.584 6.443-1.69 9.558-2.89 4.203-1.62 8.283-3.55 12.56-4.978 1.6-.536 3.202-1.07 4.873-1.357.482-.084.89-.338 1.337-.493 3.882-1.342 7.753-2.73 11.83-3.36 1.193-.185 2.44-.256 3.61.236 1.202.505 1.54 1.11 1.226 2.347-.373 1.473-.874 2.897-1.687 4.203-.784 1.264-1.73 2.397-2.718 3.498-1.638 1.818-3.544 3.354-5.342 5.003-.74.68-1.452 1.38-2.188 2.06-4.214 3.9-9.172 6.336-14.777 7.48-.774.16-1.457.42-2.095.948-2.297 1.896-4.24 4.147-6.416 6.16-2.107 1.95-4.23 3.888-6.893 5.094-2.436 1.103-4.926 1.135-7.504.555-4.653-1.053-9.33-1.595-14.03-.206-1.907.563-3.602 1.496-5.028 2.89-.324.313-.66.49-1.113.585-1.15.246-2.285.492-3.477.47-2.128-.04-3.458-1.604-3.063-3.694.08-.422.194-.842.298-1.262.244-.963.442-1.897.146-2.92-.302-1.047.175-2.043.6-2.985.61-1.35 1.554-2.51 2.287-3.788.17-.298.67-.608.35-.975-.21-.242-.64-.016-.983.07-1.148.28-2.224.747-3.24 1.318-2.886 1.616-5.74 3.285-8.1 5.66-.49.495-1.098.854-1.716 1.176-1.83.943-2.88.747-4.254-.803-1.128-1.27-1.7-2.79-1.967-4.457-.445-2.778-.113-5.57-.246-8.354-.074-1.567-.334-3.093-.99-4.543-.247-.55-.598-.902-1.145-1.125-1.347-.546-2.503-1.37-3.58-2.35-.96-.876-1.004-1.855-.654-2.96.24-.75.63-1.424 1.175-2.006.955-1.014 1.897-2.042 2.85-3.057 1.836-1.95 1.738-3.187-.473-4.637-1.068-.7-1.958-1.595-2.874-2.447-.88-.818-1.242-1.854-.933-3.19.375-1.63 1.063-3.113 1.698-4.627.436-1.04.89-2.06 1.112-3.178.19-.958.195-1.868-.092-2.818-.677-2.24-1.318-4.488-1.343-6.863-.01-.966.108-1.91.294-2.847.28-1.425 1.29-2.36 2.386-3.15 1.354-.978 2.844-1.47 4.6-1.525 3.21-.102 6.24.338 9.038 1.947 2.707 1.556 5.008 3.597 7.042 5.963 3.767 4.382 6.544 9.407 9.385 14.39 1.097 1.92 2.36 3.743 3.216 5.81 1.283 3.106 1.935 6.366 2.543 9.64.362 1.96.734 3.918 1.026 5.886.09.606.376.678.86.686.93.016 1.687-.383 2.335-.99.67-.625 1.293-1.298 1.94-1.948.8-.805 1.626-1.576 2.797-1.805.238-.046.373-.142.467-.375.307-.763.7-1.5.786-2.332.91-8.693-.408-17.037-3.933-25.035-.294-.666-.79-1.13-1.267-1.634-.83-.87-1.074-1.967-.558-2.423.472-.417 1.58-.185 2.313.666 1.49 1.728 2.577 3.667 2.955 5.977.42 2.56.937 5.104 1.435 7.652.793 4.063 1.38 8.148 1.128 12.3-.085 1.382-.36 2.75-.548 4.124-.185.13-.246.286-.1.485.1-.105.195-.212.294-.317z" fill="#1CA0E1"/><path d="M71.92 54.182c-.1.106-.195.212-.293.316-.147-.2-.086-.354.1-.485.064.056.13.112.192.17z" fill="none"/></g></svg>