<svg xmlns="http://www.w3.org/2000/svg" viewBox="0 0 140 105" enable-background="new 0 0 140 105"><path d="M10 49.205V40.96h1.446v6.97h3.635v1.275H10zm6.378-4.118c0-2.46 1.743-4.264 4.216-4.264 2.46 0 4.215 1.805 4.215 4.264s-1.757 4.266-4.217 4.266c-2.473 0-4.216-1.806-4.216-4.266zm6.948 0c0-1.706-1.076-2.98-2.732-2.98-1.67 0-2.732 1.275-2.732 2.98 0 1.694 1.063 2.98 2.732 2.98 1.656 0 2.732-1.286 2.732-2.98zm3.244 0c0-2.546 1.89-4.264 4.327-4.264 1.657 0 2.695.853 3.3 1.84l-1.223.644c-.396-.692-1.2-1.2-2.077-1.2-1.632 0-2.843 1.238-2.843 2.98 0 1.718 1.212 2.98 2.843 2.98.878 0 1.68-.52 2.077-1.2l1.236.618c-.63.988-1.656 1.867-3.313 1.867-2.436 0-4.327-1.73-4.327-4.265zm15.376 4.118l-.606-1.595h-3.783l-.606 1.595H35.31l3.24-8.246h1.804l3.24 8.244h-1.644zm-2.497-6.8l-1.485 3.93h2.967l-1.484-3.93zm5.364 5.638l.816-1.125c.556.606 1.46 1.15 2.608 1.15 1.187 0 1.644-.58 1.644-1.138 0-1.73-4.797-.655-4.797-3.684 0-1.373 1.187-2.423 3.004-2.423 1.272 0 2.322.42 3.076 1.162l-.816 1.076c-.654-.653-1.532-.95-2.397-.95-.84 0-1.384.42-1.384 1.026 0 1.546 4.795.593 4.795 3.66 0 1.372-.977 2.56-3.19 2.56-1.52-.002-2.62-.547-3.362-1.312zm10.583 1.162v-6.972H52.9V40.96h6.44v1.273h-2.496v6.972h-1.447zm10.507 0l-1.817-3.078H62.64v3.078h-1.446V40.96h3.623c1.632 0 2.707 1.05 2.707 2.582 0 1.46-.964 2.263-1.965 2.423l2.025 3.24h-1.682zm.136-5.675c0-.79-.593-1.298-1.41-1.298h-1.99v2.62h1.99c.817 0 1.41-.52 1.41-1.322zm3.234 1.557c0-2.46 1.743-4.264 4.215-4.264 2.46 0 4.214 1.805 4.214 4.264s-1.756 4.266-4.216 4.266c-2.473 0-4.216-1.806-4.216-4.266zm6.948 0c0-1.706-1.076-2.98-2.733-2.98-1.67 0-2.734 1.275-2.734 2.98 0 1.694 1.063 2.98 2.732 2.98 1.656 0 2.732-1.286 2.732-2.98zm7.283 4.118V40.96h3.066c2.586 0 4.317 1.705 4.317 4.115 0 2.436-1.73 4.13-4.303 4.13h-3.078zm5.896-4.13c0-1.582-.986-2.842-2.816-2.842H84.95v5.698h1.62c1.794 0 2.83-1.283 2.83-2.854zm3.662 4.13V40.96h5.65v1.273h-4.204v2.126h4.117v1.272h-4.117v2.3h4.204v1.273h-5.65zm7.362-1.162l.815-1.125c.554.606 1.457 1.15 2.606 1.15 1.186 0 1.645-.58 1.645-1.138 0-1.73-4.796-.655-4.796-3.684 0-1.373 1.186-2.423 3.003-2.423 1.274 0 2.324.42 3.078 1.162l-.815 1.076c-.654-.653-1.533-.95-2.398-.95-.84 0-1.384.42-1.384 1.026 0 1.546 4.797.593 4.797 3.66 0 1.372-.977 2.56-3.19 2.56-1.52-.002-2.62-.547-3.36-1.312zm8.702 1.162V40.96h1.446v8.245h-1.446zm3.627-4.118c0-2.596 1.928-4.264 4.327-4.264 1.606 0 2.658.766 3.313 1.706l-1.175.68c-.446-.62-1.224-1.1-2.14-1.1-1.63 0-2.842 1.235-2.842 2.977 0 1.718 1.212 2.98 2.843 2.98.84 0 1.58-.385 1.95-.743V46.05h-2.472v-1.27h3.905v3.077c-.804.902-1.966 1.507-3.387 1.507-2.397 0-4.325-1.692-4.325-4.277zm15.85 4.118l-4.303-5.898v5.898h-1.446V40.96h1.483l4.216 5.71v-5.71H130v8.245h-1.397zM10 64.03v-8.247h1.446v6.973h3.635v1.272H10zm6.91 0v-8.247h1.446v6.973h3.635v1.272h-5.08zm6.36-4.117c0-2.548 1.89-4.266 4.327-4.266 1.657 0 2.695.853 3.3 1.843l-1.223.643c-.395-.692-1.2-1.2-2.076-1.2-1.632 0-2.843 1.237-2.843 2.98 0 1.718 1.212 2.98 2.843 2.98.878 0 1.68-.52 2.076-1.2l1.236.617c-.63.99-1.656 1.867-3.313 1.867-2.436 0-4.327-1.73-4.327-4.264z" fill="#313131"/></svg>