<svg xmlns="http://www.w3.org/2000/svg" viewBox="0 0 140 105" enable-background="new 0 0 140 105"><path d="M18.788 54.254h-2.784v-4.18h-3.22v4.18H10V44h2.784v3.802h3.22V44h2.784v10.254zm5.09 0V44h2.783v10.254H23.88zm16.577-5.344c0 1.71-.472 3.03-1.413 3.956-.942.926-2.267 1.39-3.974 1.39H31.75V44h3.55c1.646 0 2.917.42 3.812 1.263.895.84 1.343 2.057 1.343 3.647zm-2.876.098c0-.94-.188-1.637-.56-2.09-.37-.454-.937-.68-1.693-.68h-.807v5.743h.618c.842 0 1.46-.242 1.852-.73.393-.49.59-1.236.59-2.24zm16.29-.098c0 1.71-.473 3.03-1.414 3.956-.942.926-2.267 1.39-3.974 1.39h-3.317V44h3.55c1.645 0 2.916.42 3.81 1.263.896.84 1.344 2.057 1.344 3.647zm-2.877.098c0-.94-.186-1.637-.558-2.09-.372-.454-.937-.68-1.693-.68h-.807v5.743h.617c.842 0 1.46-.242 1.852-.73.393-.49.59-1.236.59-2.24zm13.674 5.246H58.58V44h6.087v2.224H61.35v1.613h3.072v2.224H61.35V52h3.317v2.257zm14.43 0h-3.632L71.72 47.03h-.062c.09 1.136.133 2.003.133 2.602v4.622H69.34V44h3.618l3.73 7.126h.044c-.066-1.034-.1-1.863-.1-2.49V44h2.47v10.254zM99.51 44v6.172c0 1.34-.38 2.38-1.14 3.117-.76.735-1.855 1.103-3.286 1.103-1.398 0-2.472-.357-3.224-1.073-.75-.715-1.125-1.742-1.125-3.085V44h2.784v6.018c0 .725.135 1.25.405 1.578.27.327.67.49 1.2.49.565 0 .975-.16 1.23-.486.254-.325.382-.857.382-1.596V44h2.772zm9.493 10.254l-2.097-7.385h-.063c.098 1.256.147 2.233.147 2.93v4.454h-2.455V44h3.69l2.138 7.28h.057l2.097-7.28h3.696v10.254h-2.546v-4.496c0-.234.004-.493.01-.778.008-.285.04-.984.096-2.097h-.063l-2.07 7.37h-2.637zM130 48.91c0 1.71-.47 3.03-1.415 3.956-.94.926-2.267 1.39-3.972 1.39h-3.317V44h3.548c1.647 0 2.918.42 3.81 1.263.897.84 1.346 2.057 1.346 3.647zm-2.876.098c0-.94-.187-1.637-.56-2.09-.37-.454-.936-.68-1.692-.68h-.806v5.743h.617c.842 0 1.46-.242 1.852-.73.393-.49.59-1.236.59-2.24zM50 61.742h40v3H50z"/></svg>