<svg xmlns="http://www.w3.org/2000/svg" viewBox="0 0 140 105" enable-background="new 0 0 140 105"><path d="M10.303 59.65V42.293c0-.736.368-1.102 1.103-1.102h5.374c4.573 0 6.86 1.726 6.86 5.18 0 1.03-.288 1.925-.867 2.687-.578.762-1.364 1.33-2.355 1.694v.11c.348.13.707.437 1.075.924.367.487.67 1.025.91 1.612l2.424 6.062c.092.238.137.414.137.524 0 .37-.55.55-1.653.55h-1.13c-.917 0-1.45-.192-1.596-.577l-2.177-5.374c-.313-.606-.65-1.03-1.007-1.28-.36-.246-.95-.37-1.78-.37h-1.073v6.72c0 .59-.55.88-1.654.88h-.936c-1.1.003-1.654-.29-1.654-.88zm4.245-10.387h2.617c.57 0 1.065-.23 1.49-.688.42-.46.632-1.017.632-1.668 0-.652-.207-1.167-.62-1.544-.412-.374-.977-.564-1.694-.564h-2.425v4.462zm13.88 9.493c-1.186-1.295-1.78-3.164-1.78-5.606 0-2.445.59-4.272 1.778-5.484 1.185-1.212 2.81-1.82 4.878-1.82 2.066 0 3.582.66 4.546 1.984.966 1.323 1.447 3.03 1.447 5.127 0 .218-.188.547-.564.977-.377.43-.657.646-.84.646h-7.027c.092 1.048.404 1.793.936 2.232.533.442 1.212.66 2.04.66.827 0 1.616-.142 2.37-.425.753-.283 1.14-.428 1.16-.428.274 0 .58.27.92.81.34.54.51.97.51 1.28 0 .607-.573 1.09-1.72 1.45-1.15.36-2.23.537-3.24.537-2.425 0-4.23-.648-5.415-1.942zm6.902-6.904c0-.844-.166-1.518-.496-2.025-.33-.504-.827-.756-1.49-.756-1.36 0-2.186.928-2.48 2.784h4.466zm6.222 4.824c0-.516.045-.983.137-1.405.09-.42.3-.876.633-1.363.33-.487.772-.887 1.323-1.198 1.304-.77 3.242-1.16 5.814-1.16v-.91c0-1.044-.716-1.57-2.15-1.57-1.01 0-1.992.223-2.946.66-.33.15-.524.223-.58.223-.274 0-.583-.283-.922-.853-.34-.57-.51-1.02-.51-1.352 0-.496.51-.938 1.53-1.323s2.265-.578 3.733-.578c3.95 0 5.926 1.532 5.926 4.6v5.18c0 1.14.056 2.094.166 2.868l.166 1.127c0 .295-.37.516-1.115.663s-1.3.22-1.667.22c-.368 0-.61-.036-.73-.11-.12-.073-.216-.197-.29-.373-.074-.173-.13-.312-.166-.41-.037-.103-.078-.28-.123-.54-.047-.257-.08-.413-.096-.47-.33.59-.9 1.086-1.71 1.49-.81.403-1.59.607-2.34.607-1.416 0-2.45-.37-3.1-1.104-.655-.737-.98-1.708-.98-2.92zm4.05-.413c0 .368.12.66.36.88.238.222.595.33 1.074.33.477 0 .946-.164 1.405-.493.46-.33.8-.745 1.02-1.24v-1.516c-2.57 0-3.856.68-3.856 2.04zM61.9 60.7c-1.524 0-2.765-.658-3.72-1.973-.955-1.312-1.432-3.122-1.432-5.427s.51-4.124 1.53-5.456c1.02-1.33 2.447-1.997 4.284-1.997 1.085 0 2.02.283 2.81.853v-6.116c0-.59.552-.884 1.654-.884h.772c1.102 0 1.653.295 1.653.884v15.044c0 1.14.057 2.093.168 2.867l.166 1.127c0 .295-.372.516-1.116.663-.744.147-1.3.22-1.667.22s-.61-.036-.73-.11-.215-.192-.29-.36c-.073-.163-.13-.302-.165-.413-.037-.108-.078-.29-.123-.535-.046-.25-.078-.4-.095-.456-.33.608-.823 1.104-1.474 1.49-.654.387-1.393.58-2.22.58zm1.212-3.335c.882 0 1.636-.54 2.26-1.626v-6.146c-.625-.348-1.268-.524-1.93-.524-1.707 0-2.56 1.383-2.56 4.148s.743 4.147 2.23 4.147zM71.9 46.617c0-.405.56-.606 1.68-.606h.882c.898 0 1.414.195 1.544.58l1.626 5.1c.164.515.422 1.625.77 3.333h.11c.365-1.762.626-2.875.773-3.334l1.626-5.1c.127-.385.64-.578 1.543-.578h.663c1.1 0 1.654.202 1.654.607 0 .13-.03.294-.086.495l-6.31 18.464c-.148.384-.66.577-1.542.577h-.47c-1.102 0-1.654-.193-1.654-.578 0-.168.04-.33.113-.497l1.736-4.602-4.546-13.364c-.074-.258-.11-.422-.11-.496zM87.19 59.65V40.585c0-.59.55-.884 1.654-.884h.77c1.102 0 1.654.296 1.654.885V46.7c.787-.57 1.728-.853 2.81-.853 1.836 0 3.266.666 4.286 1.997 1.017 1.33 1.527 3.15 1.527 5.456s-.474 4.116-1.43 5.427c-.954 1.314-2.194 1.972-3.72 1.972-.825 0-1.567-.195-2.22-.58-.65-.388-1.143-.884-1.472-1.49l-.278 1.187c-.11.476-.64.714-1.6.714h-.328c-1.103 0-1.652-.29-1.652-.88zm6.34-2.285c1.486 0 2.23-1.382 2.23-4.147s-.854-4.147-2.563-4.147c-.66 0-1.306.178-1.93.526v6.144c.625 1.084 1.38 1.625 2.262 1.625zm10.735 1.42c-1.14-1.28-1.705-3.12-1.705-5.525 0-2.408.567-4.246 1.705-5.512 1.142-1.27 2.804-1.9 4.99-1.9 2.185 0 3.842.63 4.975 1.9 1.127 1.266 1.694 3.105 1.694 5.512 0 2.405-.567 4.246-1.694 5.524-1.133 1.278-2.79 1.915-4.974 1.915-2.186 0-3.85-.64-4.99-1.917zm2.428-5.514c0 2.804.847 4.203 2.547 4.203s2.55-1.4 2.55-4.2c0-2.803-.85-4.202-2.55-4.202s-2.547 1.4-2.547 4.2zm10.523 6.766c0-.144.102-.374.306-.688l4.158-6.172-3.912-5.95c-.2-.313-.303-.55-.303-.718 0-.33.578-.496 1.736-.496h.883c.9 0 1.462.176 1.683.524l2.093 3.388 2.177-3.388c.22-.348.78-.524 1.68-.524h.796c1.16 0 1.74.164 1.74.496 0 .147-.103.377-.307.688l-4.022 5.954 4.08 6.17c.203.314.3.552.3.717 0 .33-.58.496-1.735.496h-.88c-.9 0-1.46-.173-1.682-.52l-2.26-3.61-2.286 3.61c-.22.347-.78.52-1.68.52h-.826c-1.157 0-1.738-.166-1.738-.497z" fill="#29AAE1"/></svg>