<svg xmlns="http://www.w3.org/2000/svg" viewBox="0 0 140 105" enable-background="new 0 0 140 105"><path d="M23.766 34.344c3.22 0 6.75 1.342 9.356 3.605.345.266.384.727.076 1.033l-3.03 3.22c-.306.27-.73.27-1.034.04-1.457-1.343-3.145-1.84-5.023-1.84-4.177 0-7.552 3.526-7.552 7.744 0 4.18 3.413 7.63 7.593 7.63 1.11 0 2.263-.153 3.413-.613V52.94h-2.415c-.423 0-.73-.306-.73-.69v-3.795c0-.422.307-.73.73-.73h7.707c.384 0 .69.346.69.73l.04 10.314c0 .344-.154.497-.308.613 0 0-3.948 2.49-9.51 2.49-7.63 0-13.766-6.057-13.766-13.727 0-7.668 6.137-13.803 13.767-13.803zm14.342 10.314c0-.498.384-.843.844-.843h1.84c.46 0 .69.23.806.537l.805 1.956c.766-1.42 2.11-2.876 4.41-2.876 1.61 0 2.8.422 3.45.92.307.23.307.613.115.96L48.614 48.8c-.192.346-.5.614-.997.422-.307-.115-.96-.268-1.343-.268-1.342 0-2.34.96-2.34 2.454v9.278c0 .537-.306.844-.957.844H38.95c-.46 0-.844-.384-.844-.844V44.658zm19.714 5.56c1.994 0 3.488.767 3.488.767 0-1.725-.382-2.722-2.454-2.722-1.226 0-3.296.268-4.448.613-.69.23-.997-.268-1.073-.92l-.42-2.722c-.116-.768.305-1.112.69-1.227.422-.154 3.526-.576 5.904-.576 5.482 0 7.4 2.226 7.4 7.48v9.776c0 .46-.424.844-.845.844h-1.878c-.268 0-.576-.077-.805-.577l-.576-1.19c-1.073.92-2.57 2.187-5.368 2.187-3.49 0-6.135-2.3-6.135-5.828 0-3.41 2.49-5.904 6.517-5.904zm1.15 7.44c1.073 0 1.994-.883 1.994-1.956 0-1.034-.92-1.955-1.994-1.955-1.073 0-1.955.92-1.955 1.955 0 1.073.88 1.956 1.955 1.956zm12-13c0-.498.384-.843.844-.843h1.725c.27 0 .615.192.807.537L75 46.116c.957-1.073 2.3-2.684 5.52-2.684 5.52 0 7.4 3.91 7.4 8.78v8.474c0 .46-.383.844-.804.844h-4.18c-.498 0-.843-.384-.843-.844v-8.55c0-1.687-.576-3.26-2.57-3.26-1.763 0-2.682 1.227-2.682 3.03v8.78c0 .384-.19.844-.806.844h-4.217c-.46 0-.844-.384-.844-.844V44.658zm28.756-1.228c1.725 0 3.527.538 4.1.998v-8.895c0-.422.385-.843.845-.843h4.142c.46 0 .842.42.842.843v25.153c0 .46-.382.844-.842.844h-1.725c-.423 0-.768-.384-.92-.88l-.5-1.458s-2.07 2.76-5.98 2.76c-4.984 0-8.743-4.217-8.743-9.278 0-6.252 4.063-9.243 8.78-9.243zm.843 13.04c2.188 0 3.76-1.65 3.76-3.836 0-2.147-1.573-3.758-3.76-3.758-2.107 0-3.755 1.61-3.755 3.758 0 2.186 1.647 3.835 3.757 3.835zm11.548-11.505c-.192-.575.076-1.15.73-1.15h4.56c.308 0 .616.192.692.498l2.415 9.394h.076l3.415-9.394c.115-.307.42-.498.766-.498h4.37c.693 0 1.038.537.77 1.15L119.44 70.12c-.114.267-.42.536-.728.536h-4.295c-.65 0-.997-.576-.73-1.19l3.683-9.278-5.252-15.223z" fill="#28C785"/></svg>