<svg xmlns="http://www.w3.org/2000/svg" xmlns:xlink="http://www.w3.org/1999/xlink" viewBox="0 0 140 105" enable-background="new 0 0 140 105"><path d="M19.677 57.207v1.64c0 .36-.122.58-.592.58h-8.493c-.47 0-.592-.22-.592-.58V46.852c0-.46.225-.58.592-.58h2.02c.37 0 .593.12.593.58v9.774h5.88c.47 0 .592.22.592.58zm8.635.06v1.58c0 .36-.122.58-.592.58h-5.778c-.47 0-.592-.22-.592-.58v-1.58c0-.36.123-.58.592-.58h1.286v-7.635h-1.245c-.47 0-.592-.22-.592-.58v-1.62c0-.36.124-.58.594-.58h5.676c.47 0 .59.22.59.58v1.62c0 .36-.12.58-.59.58h-1.226v7.635h1.286c.47 0 .592.22.592.58zm15.27-10.434v12.013c0 .46-.224.58-.59.58h-1.96c-.368 0-.59-.12-.59-.58V52.07l-2.044 3.498c-.102.16-.286.42-.592.42h-1.02c-.307 0-.47-.26-.573-.42L34.15 52.07v6.776c0 .46-.225.58-.592.58h-2.02c-.368 0-.593-.12-.593-.58V46.833c0-.36.123-.58.592-.58h2.02c.695 0 .777.44.94.68l2.797 4.917 2.817-4.917c.145-.24.247-.68.92-.68h1.96c.47 0 .594.22.594.58zm9.453 10.434v1.58c0 .36-.122.58-.592.58h-5.778c-.47 0-.592-.22-.592-.58v-1.58c0-.36.122-.58.592-.58h1.286v-7.635h-1.243c-.47 0-.592-.22-.592-.58v-1.62c0-.36.122-.58.592-.58h5.676c.47 0 .592.22.592.58v1.62c0 .36-.122.58-.592.58h-1.225v7.635h1.286c.47 0 .592.22.592.58zm13.29-6.497v4.16c0 3.137-3.062 4.496-5.492 4.496H56.26c-.47 0-.592-.22-.592-.58V46.853c0-.36.123-.58.592-.58h4.573c2.43 0 5.492 1.38 5.492 4.498zm-3.206.28c0-1.258-.94-1.998-2.29-1.998h-1.96v7.595h1.96c1.348 0 2.288-.72 2.288-2V51.05zm17.025 8.376H78c-.448 0-.61-.12-.775-.6l-.572-1.58H71.65l-.57 1.58c-.164.48-.328.6-.777.6H68.16c-.45 0-.45-.32-.348-.56l4.532-11.973c.163-.42.388-.62.837-.62h1.96c.45 0 .655.2.84.62l4.51 11.973c.106.24.106.56-.344.56zm-4.45-4.977l-1.53-4.42-1.532 4.418h3.062zm16.597 4.356c.163.24.06.62-.245.62H89.72c-.45 0-.613-.04-.898-.56l-2.02-3.558-2.043 3.558c-.267.52-.45.56-.9.56h-2.327c-.306 0-.408-.38-.245-.62l3.633-6.116-3.694-5.857c-.122-.22-.04-.56.306-.56h2.41c.387 0 .55.16.816.58L86.8 50.07l2.02-3.216c.287-.42.43-.58.838-.58h2.39c.346 0 .448.34.305.56L88.68 52.69l3.612 6.116z" fill="#33C4F2"/><path d="M107.294 59.5h3.253l-6.486-6.59 6.493-6.6H107.3l-6.495 6.6 6.49 6.59m6.902 0h3.253l-6.487-6.59 6.494-6.6H114.2l-6.49 6.6 6.487 6.59" fill="#BFD636"/><defs><path id="a" d="M104.06 52.91l1.457 1.482.002-.002-1.46-1.48"/></defs><clipPath id="b"><use xlink:href="#a" overflow="visible"/></clipPath><path clip-path="url(#b)" fill="#E3E2E1" d="M105.454 52.91h.065v1.482h-.067z"/><path clip-path="url(#b)" fill="#E4E3E2" d="M105.255 52.91h.2v1.482h-.2z"/><path clip-path="url(#b)" fill="#E5E4E3" d="M105.055 52.91h.2v1.482h-.2z"/><path clip-path="url(#b)" fill="#E6E5E5" d="M104.856 52.91h.2v1.482h-.2z"/><path clip-path="url(#b)" fill="#E7E6E5" d="M104.657 52.91h.2v1.482h-.2z"/><path clip-path="url(#b)" fill="#E8E7E6" d="M104.458 52.91h.2v1.482h-.2z"/><path clip-path="url(#b)" fill="#E9E8E7" d="M104.26 52.91h.198v1.482h-.2z"/><path clip-path="url(#b)" fill="#EAE9E8" d="M104.06 52.91h.2v1.482h-.2z"/><defs><path id="c" d="M104.06 52.91h-3.25l3.083 3.134 1.624-1.652-1.456-1.482"/></defs><clipPath id="d"><use xlink:href="#c" overflow="visible"/></clipPath><path clip-path="url(#d)" fill="#ACC13A" d="M105.426 52.91h.092v3.134h-.092z"/><path clip-path="url(#d)" fill="#ADC239" d="M105.21 52.91h.215v3.134h-.216z"/><path clip-path="url(#d)" fill="#AEC339" d="M104.993 52.91h.216v3.134h-.218z"/><path clip-path="url(#d)" fill="#AFC339" d="M104.776 52.91h.216v3.134h-.216z"/><path clip-path="url(#d)" fill="#B0C439" d="M104.56 52.91h.216v3.134h-.216z"/><path clip-path="url(#d)" fill="#B1C539" d="M104.344 52.91h.216v3.134h-.216z"/><path clip-path="url(#d)" fill="#B2C639" d="M104.127 52.91h.216v3.134h-.216z"/><path clip-path="url(#d)" fill="#B3C738" d="M103.91 52.91h.217v3.134h-.216z"/><path clip-path="url(#d)" fill="#B4C839" d="M103.694 52.91h.216v3.134h-.216z"/><path clip-path="url(#d)" fill="#B5C938" d="M103.478 52.91h.216v3.134h-.216z"/><path clip-path="url(#d)" fill="#B5CA38" d="M103.262 52.91h.216v3.134h-.216z"/><path clip-path="url(#d)" fill="#B6CB38" d="M103.045 52.91h.216v3.134h-.214z"/><path clip-path="url(#d)" fill="#B7CC37" d="M102.83 52.91h.215v3.134h-.216z"/><path clip-path="url(#d)" fill="#B8CD38" d="M102.613 52.91h.216v3.134h-.218z"/><path clip-path="url(#d)" fill="#B9CE38" d="M102.396 52.91h.216v3.134h-.216z"/><path clip-path="url(#d)" fill="#BACF37" d="M102.18 52.91h.216v3.134h-.216z"/><path clip-path="url(#d)" fill="#BBD037" d="M101.963 52.91h.216v3.134h-.218z"/><path clip-path="url(#d)" fill="#BCD137" d="M101.747 52.91h.216v3.134h-.216z"/><path clip-path="url(#d)" fill="#BDD237" d="M101.53 52.91h.217v3.134h-.216z"/><path clip-path="url(#d)" fill="#BED337" d="M101.314 52.91h.216v3.134h-.216z"/><path clip-path="url(#d)" fill="#BFD436" d="M101.098 52.91h.216v3.134h-.216z"/><path clip-path="url(#d)" fill="#BFD636" d="M100.88 52.91h.217v3.134h-.216zm-.07 0h.07v3.134h-.07z"/><defs><path id="e" d="M107.146 56.044l1.824 1.855v-.004l-1.824-1.853"/></defs><clipPath id="f"><use xlink:href="#e" overflow="visible"/></clipPath><path clip-path="url(#f)" fill="#D3D2D1" d="M108.833 56.044h.14V57.9h-.14z"/><path clip-path="url(#f)" fill="#D4D3D2" d="M108.634 56.044h.2V57.9h-.2z"/><path clip-path="url(#f)" fill="#D4D4D3" d="M108.435 56.044h.2V57.9h-.2z"/><path clip-path="url(#f)" fill="#D5D5D4" d="M108.236 56.044h.2V57.9h-.2z"/><path clip-path="url(#f)" fill="#D6D6D5" d="M108.038 56.044h.2V57.9h-.2z"/><path clip-path="url(#f)" fill="#D7D7D6" d="M107.84 56.044h.198V57.9h-.2z"/><path clip-path="url(#f)" fill="#D8D8D7" d="M107.64 56.044h.2V57.9h-.2z"/><path clip-path="url(#f)" fill="#D9D8D7" d="M107.44 56.044h.2V57.9h-.2z"/><path clip-path="url(#f)" fill="#DAD9D9" d="M107.243 56.044h.2V57.9h-.2z"/><path clip-path="url(#f)" fill="#DBDADA" d="M107.145 56.044h.097V57.9h-.097z"/><defs><path id="g" d="M107.145 56.044l-1.626 1.652 1.775 1.804h.097l1.577-1.6-1.826-1.856"/></defs><clipPath id="h"><use xlink:href="#g" overflow="visible"/></clipPath><path clip-path="url(#h)" fill="#9EB23A" d="M108.89 56.044h.08V59.5h-.08z"/><path clip-path="url(#h)" fill="#9FB33A" d="M108.672 56.044h.216V59.5h-.216z"/><path clip-path="url(#h)" fill="#A0B43A" d="M108.456 56.044h.216V59.5h-.216z"/><path clip-path="url(#h)" fill="#A0B53A" d="M108.24 56.044h.216V59.5h-.216z"/><path clip-path="url(#h)" fill="#A1B63A" d="M108.023 56.044h.216V59.5h-.218z"/><path clip-path="url(#h)" fill="#A2B63A" d="M107.807 56.044h.216V59.5h-.216z"/><path clip-path="url(#h)" fill="#A3B73A" d="M107.59 56.044h.217V59.5h-.216z"/><path clip-path="url(#h)" fill="#A4B83A" d="M107.374 56.044h.216V59.5h-.216z"/><path clip-path="url(#h)" fill="#A5B93A" d="M107.158 56.044h.216V59.5h-.216z"/><path clip-path="url(#h)" fill="#A6BA39" d="M106.942 56.044h.216V59.5h-.216z"/><path clip-path="url(#h)" fill="#A7BB39" d="M106.725 56.044h.216V59.5h-.214z"/><path clip-path="url(#h)" fill="#A7BC3A" d="M106.51 56.044h.215V59.5h-.216zm-.217 0h.216V59.5h-.218z"/><path clip-path="url(#h)" fill="#A8BD39" d="M106.076 56.044h.216V59.5h-.216z"/><path clip-path="url(#h)" fill="#A9BE39" d="M105.86 56.044h.216V59.5h-.216z"/><path clip-path="url(#h)" fill="#AABF39" d="M105.644 56.044h.216V59.5h-.216z"/><path clip-path="url(#h)" fill="#ACC13A" d="M105.52 56.044h.124V59.5h-.125z"/><defs><path id="i" d="M110.965 52.91h-.003l1.46 1.482v-.002l-1.457-1.48"/></defs><clipPath id="j"><use xlink:href="#i" overflow="visible"/></clipPath><path clip-path="url(#j)" fill="#E3E2E1" d="M112.234 52.91h.19v1.482h-.19z"/><path clip-path="url(#j)" fill="#E4E3E2" d="M112.035 52.91h.2v1.482h-.2z"/><path clip-path="url(#j)" fill="#E5E4E3" d="M111.837 52.91h.2v1.482h-.2z"/><path clip-path="url(#j)" fill="#E6E5E5" d="M111.638 52.91h.2v1.482h-.2z"/><path clip-path="url(#j)" fill="#E7E6E5" d="M111.44 52.91h.198v1.482h-.2z"/><path clip-path="url(#j)" fill="#E8E7E6" d="M111.24 52.91h.2v1.482h-.2z"/><path clip-path="url(#j)" fill="#E9E8E7" d="M111.04 52.91h.2v1.482h-.2z"/><path clip-path="url(#j)" fill="#EAE9E8" d="M110.962 52.91h.08v1.482h-.08z"/><defs><path id="k" d="M110.962 52.91h-.73l-1.26 1.278 1.824 1.856 1.625-1.652-1.457-1.482"/></defs><clipPath id="l"><use xlink:href="#k" overflow="visible"/></clipPath><path clip-path="url(#l)" fill="#ACC13A" d="M112.206 52.91h.215v3.134h-.213z"/><path clip-path="url(#l)" fill="#ADC239" d="M111.99 52.91h.216v3.134h-.217z"/><path clip-path="url(#l)" fill="#AEC339" d="M111.772 52.91h.217v3.134h-.22z"/><path clip-path="url(#l)" fill="#AFC339" d="M111.556 52.91h.217v3.134h-.217z"/><path clip-path="url(#l)" fill="#B0C439" d="M111.34 52.91h.216v3.134h-.217z"/><path clip-path="url(#l)" fill="#B1C539" d="M111.123 52.91h.217v3.134h-.217z"/><path clip-path="url(#l)" fill="#B2C639" d="M110.906 52.91h.217v3.134h-.217z"/><path clip-path="url(#l)" fill="#B3C738" d="M110.69 52.91h.217v3.134h-.217z"/><path clip-path="url(#l)" fill="#B4C839" d="M110.473 52.91h.217v3.134h-.217z"/><path clip-path="url(#l)" fill="#B5C938" d="M110.256 52.91h.217v3.134h-.217z"/><path clip-path="url(#l)" fill="#B5CA38" d="M110.04 52.91h.217v3.134h-.217z"/><path clip-path="url(#l)" fill="#B6CB38" d="M109.823 52.91h.217v3.134h-.217z"/><path clip-path="url(#l)" fill="#B7CC37" d="M109.607 52.91h.217v3.134h-.217z"/><path clip-path="url(#l)" fill="#B8CD38" d="M109.39 52.91h.217v3.134h-.217z"/><path clip-path="url(#l)" fill="#B9CE38" d="M109.173 52.91h.217v3.134h-.217z"/><path clip-path="url(#l)" fill="#BACF37" d="M108.97 52.91h.204v3.134h-.203z"/><defs><path id="m" d="M113.74 51.8h-.004l3.392 1.948h.002l-3.39-1.95"/></defs><clipPath id="n"><use xlink:href="#m" overflow="visible"/></clipPath><path clip-path="url(#n)" fill="#CCCBCA" d="M117.077 51.8h.052v1.95h-.054zm-.197 0h.197v1.95h-.198z"/><path clip-path="url(#n)" fill="#CDCCCB" d="M116.68 51.8h.2v1.95h-.2z"/><path clip-path="url(#n)" fill="#CDCDCC" d="M116.483 51.8h.198v1.95h-.196z"/><path clip-path="url(#n)" fill="#CECECD" d="M116.285 51.8h.198v1.95h-.198z"/><path clip-path="url(#n)" fill="#CFCFCE" d="M116.087 51.8h.198v1.95h-.198z"/><path clip-path="url(#n)" fill="#D0CFCF" d="M115.89 51.8h.197v1.95h-.198z"/><path clip-path="url(#n)" fill="#D1D0CF" d="M115.69 51.8h.2v1.95h-.2z"/><path clip-path="url(#n)" fill="#D2D1D0" d="M115.493 51.8h.198v1.95h-.196z"/><path clip-path="url(#n)" fill="#D3D2D1" d="M115.294 51.8h.198v1.95h-.198z"/><path clip-path="url(#n)" fill="#D4D3D2" d="M115.096 51.8h.198v1.95h-.198z"/><path clip-path="url(#n)" fill="#D4D4D3" d="M114.898 51.8h.198v1.95h-.198z"/><path clip-path="url(#n)" fill="#D5D5D4" d="M114.7 51.8h.198v1.95h-.198z"/><path clip-path="url(#n)" fill="#D6D6D5" d="M114.502 51.8h.198v1.95h-.198z"/><path clip-path="url(#n)" fill="#D7D7D6" d="M114.304 51.8h.198v1.95h-.198z"/><path clip-path="url(#n)" fill="#D8D8D7" d="M114.106 51.8h.198v1.95h-.198z"/><path clip-path="url(#n)" fill="#D9D8D7" d="M113.908 51.8h.198v1.95h-.198z"/><path clip-path="url(#n)" fill="#DAD9D9" d="M113.736 51.8h.172v1.95h-.172z"/><defs><path id="o" d="M114.04 56.062l-1.62 1.64 1.773 1.798h3.247l-3.4-3.438"/></defs><clipPath id="p"><use xlink:href="#o" overflow="visible"/></clipPath><path clip-path="url(#p)" fill="#97AC3B" d="M117.392 56.062h.047V59.5h-.05zm-.216 0h.216V59.5h-.216z"/><path clip-path="url(#p)" fill="#99AD3B" d="M116.96 56.062h.216V59.5h-.216z"/><path clip-path="url(#p)" fill="#9AAE3B" d="M116.744 56.062h.216V59.5h-.216z"/><path clip-path="url(#p)" fill="#9BAE3B" d="M116.528 56.062h.216V59.5h-.216z"/><path clip-path="url(#p)" fill="#9BAF3B" d="M116.312 56.062h.216V59.5h-.216z"/><path clip-path="url(#p)" fill="#9CB03B" d="M116.095 56.062h.216V59.5h-.214z"/><path clip-path="url(#p)" fill="#9DB13B" d="M115.88 56.062h.215V59.5h-.216z"/><path clip-path="url(#p)" fill="#9EB23A" d="M115.663 56.062h.216V59.5h-.218z"/><path clip-path="url(#p)" fill="#9FB33A" d="M115.447 56.062h.216V59.5h-.216z"/><path clip-path="url(#p)" fill="#A0B43A" d="M115.23 56.062h.217V59.5h-.216z"/><path clip-path="url(#p)" fill="#A0B53A" d="M115.015 56.062h.216V59.5h-.214z"/><path clip-path="url(#p)" fill="#A1B63A" d="M114.798 56.062h.216V59.5h-.216z"/><path clip-path="url(#p)" fill="#A2B63A" d="M114.582 56.062h.216V59.5h-.216z"/><path clip-path="url(#p)" fill="#A3B73A" d="M114.366 56.062h.216V59.5h-.216z"/><path clip-path="url(#p)" fill="#A4B83A" d="M114.15 56.062h.216V59.5h-.216z"/><path clip-path="url(#p)" fill="#A5B93A" d="M113.934 56.062h.216V59.5h-.216z"/><path clip-path="url(#p)" fill="#A6BA39" d="M113.718 56.062h.216V59.5h-.216z"/><path clip-path="url(#p)" fill="#A7BB39" d="M113.502 56.062h.216V59.5h-.216z"/><path clip-path="url(#p)" fill="#A7BC3A" d="M113.285 56.062h.216V59.5h-.214zm-.215 0h.215V59.5h-.216z"/><path clip-path="url(#p)" fill="#A8BD39" d="M112.853 56.062h.216V59.5h-.218z"/><path clip-path="url(#p)" fill="#A9BE39" d="M112.637 56.062h.216V59.5h-.216z"/><path clip-path="url(#p)" fill="#AABF39" d="M112.42 56.062h.217V59.5h-.216z"/><path clip-path="url(#p)" fill="#ACC13A" d="M112.42 56.062V59.5z"/><path d="M103.746 46.315h-3.254l6.488 6.59-6.492 6.6h3.254l6.492-6.6-6.488-6.59m6.903 0h-3.257l6.49 6.59-6.495 6.6h3.254l6.493-6.6-6.488-6.59" fill="#BFD636"/><defs><path id="q" d="M114.053 49.77h-.002l3.084 3.133h.003l-3.083-3.134m-3.404-3.46h-3.256 3.157v.004h.1l1.774 1.803h.002l-1.776-1.806"/></defs><clipPath id="r"><use xlink:href="#q" overflow="visible"/></clipPath><path clip-path="url(#r)" fill="#fff" d="M107.395 46.312h.048v1.806h-.048zm.047 0h.2v1.806h-.2z"/><path clip-path="url(#r)" fill="#FBFCFF" d="M107.64 46.312h.2v1.806h-.2z"/><path clip-path="url(#r)" fill="#F9FAFA" d="M107.84 46.312h.2v1.806h-.2z"/><path clip-path="url(#r)" fill="#F8F8F8" d="M108.04 46.312h.198v1.806h-.2z"/><path clip-path="url(#r)" fill="#F6F6F6" d="M108.237 46.312h.2v1.806h-.2z"/><path clip-path="url(#r)" fill="#F5F6F5" d="M108.436 46.312h.2v1.806h-.2z"/><path clip-path="url(#r)" fill="#F4F4F4" d="M108.635 46.312h.2v1.806h-.2z"/><path clip-path="url(#r)" fill="#F3F3F3" d="M108.834 46.312h.2v1.806h-.2z"/><path clip-path="url(#r)" fill="#F2F1F1" d="M109.033 46.312h.2v1.806h-.2z"/><path clip-path="url(#r)" fill="#F1F0F0" d="M109.23 46.312h.2v1.806h-.2z"/><path clip-path="url(#r)" fill="#F0EFEF" d="M109.43 46.312h.2v1.806h-.2z"/><path clip-path="url(#r)" fill="#EFEEED" d="M109.63 46.312h.198v1.806h-.2z"/><path clip-path="url(#r)" fill="#EEEDED" d="M109.828 46.312h.2v1.806h-.2z"/><path clip-path="url(#r)" fill="#EDECEC" d="M110.027 46.312h.2v1.806h-.2z"/><path clip-path="url(#r)" fill="#ECEBEA" d="M110.226 46.312h.2v1.806h-.2z"/><path clip-path="url(#r)" fill="#EBEAEA" d="M110.424 46.312h.2v1.806h-.2z"/><path clip-path="url(#r)" fill="#EAE9E8" d="M110.623 46.312h.2v1.806h-.2z"/><path clip-path="url(#r)" fill="#E9E8E7" d="M110.822 46.312h.2v1.806h-.2z"/><path clip-path="url(#r)" fill="#E8E7E7" d="M111.02 46.312h.2v1.806h-.2z"/><path clip-path="url(#r)" fill="#E7E6E6" d="M111.22 46.312h.2v1.806h-.2z"/><path clip-path="url(#r)" fill="#E6E5E5" d="M111.418 46.312h.2v1.806h-.2z"/><path clip-path="url(#r)" fill="#E5E4E3" d="M111.617 46.312h.2v1.806h-.2z"/><path clip-path="url(#r)" fill="#E4E3E2" d="M111.816 46.312h.2v1.806h-.2z"/><path clip-path="url(#r)" fill="#E3E2E1" d="M112.015 46.312h.2v1.806h-.2z"/><path clip-path="url(#r)" fill="#E2E1E1" d="M112.214 46.312h.2v1.806h-.2z"/><path clip-path="url(#r)" fill="#E1E0E0" d="M112.412 46.312h.013v1.806h-.013z"/><path clip-path="url(#r)" fill="#D9D8D7" d="M114.052 49.77h.15v3.13h-.15z"/><path clip-path="url(#r)" fill="#D8D8D7" d="M114.202 49.77h.2v3.13h-.2z"/><path clip-path="url(#r)" fill="#D7D7D6" d="M114.4 49.77h.2v3.13h-.2z"/><path clip-path="url(#r)" fill="#D6D6D5" d="M114.6 49.77h.198v3.13h-.2z"/><path clip-path="url(#r)" fill="#D5D5D4" d="M114.798 49.77h.2v3.13h-.2z"/><path clip-path="url(#r)" fill="#D4D4D3" d="M114.997 49.77h.2v3.13h-.2z"/><path clip-path="url(#r)" fill="#D4D3D2" d="M115.196 49.77h.2v3.13h-.2z"/><path clip-path="url(#r)" fill="#D3D2D1" d="M115.395 49.77h.2v3.13h-.2z"/><path clip-path="url(#r)" fill="#D2D1D0" d="M115.593 49.77h.2v3.13h-.2z"/><path clip-path="url(#r)" fill="#D1D0D0" d="M115.792 49.77h.2v3.13h-.2z"/><path clip-path="url(#r)" fill="#D0CFCF" d="M115.99 49.77h.2v3.13h-.2z"/><path clip-path="url(#r)" fill="#CFCFCE" d="M116.19 49.77h.2v3.13h-.2z"/><path clip-path="url(#r)" fill="#CECECD" d="M116.39 49.77h.198v3.13h-.2z"/><path clip-path="url(#r)" fill="#CDCDCC" d="M116.587 49.77h.2v3.13h-.2z"/><path clip-path="url(#r)" fill="#CDCCCB" d="M116.786 49.77h.2v3.13h-.2z"/><path clip-path="url(#r)" fill="#CCCBCA" d="M116.985 49.77h.15v3.13h-.15z"/><defs><path id="s" d="M112.425 48.117h-.002l1.63 1.653-1.628-1.653m-1.873-1.805h-3.157l.003.003h3.15l.004-.003"/></defs><clipPath id="t"><use xlink:href="#s" overflow="visible"/></clipPath><path clip-path="url(#t)" fill="#BFD636" d="M107.417 46.29h.003v.048h-.003zm.133-.085h.002v.216h-.003zm.215 0h.003v.216h-.003z"/><path clip-path="url(#t)" fill="#BED437" d="M107.982 46.205h.003v.216h-.003z"/><path clip-path="url(#t)" fill="#BDD337" d="M108.198 46.205h.003v.216z"/><path clip-path="url(#t)" fill="#BCD137" d="M108.415 46.205h.003v.216h-.003z"/><path clip-path="url(#t)" fill="#BBD037" d="M108.63 46.205h.004v.216h-.003z"/><path clip-path="url(#t)" fill="#BACF37" d="M108.848 46.205h.003v.216z"/><path clip-path="url(#t)" fill="#B9CE38" d="M109.064 46.205h.003v.216h-.003z"/><path clip-path="url(#t)" fill="#B8CD38" d="M109.28 46.205h.004v.216h-.003z"/><path clip-path="url(#t)" fill="#B7CC37" d="M109.497 46.205h.003v.216h-.003z"/><path clip-path="url(#t)" fill="#B6CB38" d="M109.713 46.205h.003v.216h-.003z"/><path clip-path="url(#t)" fill="#B5CA38" d="M109.93 46.205h.003v.216h-.003z"/><path clip-path="url(#t)" fill="#B5C938" d="M110.146 46.205h.003v.216h-.005z"/><path clip-path="url(#t)" fill="#B4C839" d="M110.363 46.205h.003v.216h-.003z"/><path clip-path="url(#t)" fill="#B3C738" d="M110.51 46.274h.004v.08h-.003z"/><path clip-path="url(#t)" fill="#AABE39" d="M112.423 48.117h.214v1.653h-.214z"/><path clip-path="url(#t)" fill="#A9BD39" d="M112.637 48.117h.216v1.653h-.216z"/><path clip-path="url(#t)" fill="#A8BC39" d="M112.854 48.117h.216v1.653h-.216z"/><path clip-path="url(#t)" fill="#A7BC3A" d="M113.07 48.117h.216v1.653h-.216z"/><path clip-path="url(#t)" fill="#A7BB39" d="M113.287 48.117h.216v1.653h-.216z"/><path clip-path="url(#t)" fill="#A6BA39" d="M113.503 48.117h.216v1.653h-.218z"/><path clip-path="url(#t)" fill="#A5B93A" d="M113.72 48.117h.216v1.653h-.216z"/><path clip-path="url(#t)" fill="#A4B83A" d="M113.936 48.117h.117v1.653h-.117z"/><defs><path id="u" d="M110.65 46.315h-3.253l6.485 6.588h3.25l-3.08-3.133-1.63-1.652-1.774-1.803"/></defs><clipPath id="v"><use xlink:href="#u" overflow="visible"/></clipPath><path clip-path="url(#v)" fill="#BFD636" d="M107.398 46.315h.048v6.588h-.048zm.047 0h.216v6.588h-.214zm.215 0h.217v6.588h-.216z"/><path clip-path="url(#v)" fill="#BED437" d="M107.878 46.315h.216v6.588h-.216z"/><path clip-path="url(#v)" fill="#BDD337" d="M108.094 46.315h.216v6.588h-.216z"/><path clip-path="url(#v)" fill="#BCD137" d="M108.31 46.315h.217v6.588h-.216z"/><path clip-path="url(#v)" fill="#BBD037" d="M108.527 46.315h.216v6.588h-.216z"/><path clip-path="url(#v)" fill="#BACF37" d="M108.743 46.315h.216v6.588h-.218z"/><path clip-path="url(#v)" fill="#B9CE38" d="M108.96 46.315h.216v6.588h-.216z"/><path clip-path="url(#v)" fill="#B8CD38" d="M109.176 46.315h.216v6.588h-.216z"/><path clip-path="url(#v)" fill="#B7CC37" d="M109.392 46.315h.216v6.588h-.216z"/><path clip-path="url(#v)" fill="#B6CB38" d="M109.61 46.315h.215v6.588h-.216z"/><path clip-path="url(#v)" fill="#B5CA38" d="M109.825 46.315h.216v6.588h-.214z"/><path clip-path="url(#v)" fill="#B5C938" d="M110.04 46.315h.217v6.588h-.216z"/><path clip-path="url(#v)" fill="#B4C839" d="M110.258 46.315h.216v6.588h-.216z"/><path clip-path="url(#v)" fill="#B3C738" d="M110.474 46.315h.216v6.588h-.216z"/><path clip-path="url(#v)" fill="#B2C639" d="M110.69 46.315h.216v6.588h-.216z"/><path clip-path="url(#v)" fill="#B1C539" d="M110.907 46.315h.216v6.588h-.216z"/><path clip-path="url(#v)" fill="#B0C439" d="M111.123 46.315h.216v6.588h-.218z"/><path clip-path="url(#v)" fill="#AFC339" d="M111.34 46.315h.215v6.588h-.216zm.216 0h.216v6.588h-.216z"/><path clip-path="url(#v)" fill="#AEC239" d="M111.772 46.315h.216v6.588h-.216z"/><path clip-path="url(#v)" fill="#ADC139" d="M111.99 46.315h.215v6.588h-.216z"/><path clip-path="url(#v)" fill="#ACC03A" d="M112.205 46.315h.216v6.588h-.214z"/><path clip-path="url(#v)" fill="#AABE39" d="M112.42 46.315h.217v6.588h-.216z"/><path clip-path="url(#v)" fill="#A9BD39" d="M112.638 46.315h.216v6.588h-.216z"/><path clip-path="url(#v)" fill="#A8BC39" d="M112.854 46.315h.216v6.588h-.216z"/><path clip-path="url(#v)" fill="#A7BC3A" d="M113.07 46.315h.216v6.588h-.216z"/><path clip-path="url(#v)" fill="#A7BB39" d="M113.287 46.315h.216v6.588h-.216z"/><path clip-path="url(#v)" fill="#A6BA39" d="M113.503 46.315h.216v6.588h-.218z"/><path clip-path="url(#v)" fill="#A5B93A" d="M113.72 46.315h.215v6.588h-.216z"/><path clip-path="url(#v)" fill="#A4B83A" d="M113.936 46.315h.216v6.588h-.216z"/><path clip-path="url(#v)" fill="#A3B73A" d="M114.152 46.315h.216v6.588h-.216z"/><path clip-path="url(#v)" fill="#A2B63A" d="M114.368 46.315h.216v6.588h-.216z"/><path clip-path="url(#v)" fill="#A1B63A" d="M114.585 46.315h.216v6.588h-.214z"/><path clip-path="url(#v)" fill="#A0B53A" d="M114.8 46.315h.217v6.588h-.216z"/><path clip-path="url(#v)" fill="#A0B43A" d="M115.017 46.315h.216v6.588h-.216z"/><path clip-path="url(#v)" fill="#9FB33A" d="M115.234 46.315h.216v6.588h-.216z"/><path clip-path="url(#v)" fill="#9EB23A" d="M115.45 46.315h.216v6.588h-.216z"/><path clip-path="url(#v)" fill="#9DB13B" d="M115.667 46.315h.216v6.588h-.216z"/><path clip-path="url(#v)" fill="#9CB13B" d="M115.883 46.315h.216v6.588h-.218z"/><path clip-path="url(#v)" fill="#9BB03B" d="M116.1 46.315h.215v6.588h-.216z"/><path clip-path="url(#v)" fill="#9BAF3B" d="M116.316 46.315h.216v6.588h-.216z"/><path clip-path="url(#v)" fill="#9AAE3B" d="M116.532 46.315h.216v6.588h-.216z"/><path clip-path="url(#v)" fill="#99AD3B" d="M116.748 46.315h.216v6.588h-.216z"/><path clip-path="url(#v)" fill="#97AC3B" d="M116.965 46.315h.17v6.588h-.17z"/><defs><path id="w" d="M107.147 49.77l1.825 1.855-1.825-1.856m-3.4-3.46h-3.255v.004h3.254l1.775 1.803h.003l-1.776-1.806"/></defs><clipPath id="x"><use xlink:href="#w" overflow="visible"/></clipPath><path clip-path="url(#x)" fill="#fff" d="M100.492 46.312h.048v1.806h-.048zm.048 0h.198v1.806h-.2z"/><path clip-path="url(#x)" fill="#FBFCFF" d="M100.738 46.312h.2v1.806h-.2z"/><path clip-path="url(#x)" fill="#F9FAFA" d="M100.937 46.312h.2v1.806h-.2z"/><path clip-path="url(#x)" fill="#F8F8F8" d="M101.136 46.312h.2v1.806h-.2z"/><path clip-path="url(#x)" fill="#F6F6F6" d="M101.334 46.312h.2v1.806h-.2z"/><path clip-path="url(#x)" fill="#F5F6F5" d="M101.533 46.312h.2v1.806h-.2z"/><path clip-path="url(#x)" fill="#F4F4F4" d="M101.732 46.312h.2v1.806h-.2z"/><path clip-path="url(#x)" fill="#F3F3F3" d="M101.93 46.312h.2v1.806h-.2z"/><path clip-path="url(#x)" fill="#F2F1F1" d="M102.13 46.312h.2v1.806h-.2z"/><path clip-path="url(#x)" fill="#F1F0F0" d="M102.328 46.312h.2v1.806h-.2z"/><path clip-path="url(#x)" fill="#F0EFEF" d="M102.527 46.312h.2v1.806h-.2z"/><path clip-path="url(#x)" fill="#EFEEED" d="M102.726 46.312h.2v1.806h-.2z"/><path clip-path="url(#x)" fill="#EEEDED" d="M102.925 46.312h.2v1.806h-.2z"/><path clip-path="url(#x)" fill="#EDECEC" d="M103.124 46.312h.2v1.806h-.2z"/><path clip-path="url(#x)" fill="#ECEBEA" d="M103.322 46.312h.2v1.806h-.2z"/><path clip-path="url(#x)" fill="#EBEAEA" d="M103.52 46.312h.2v1.806h-.2z"/><path clip-path="url(#x)" fill="#EAE9E8" d="M103.72 46.312h.2v1.806h-.2z"/><path clip-path="url(#x)" fill="#E9E8E7" d="M103.92 46.312h.198v1.806h-.2z"/><path clip-path="url(#x)" fill="#E8E7E7" d="M104.117 46.312h.2v1.806h-.2z"/><path clip-path="url(#x)" fill="#E7E6E6" d="M104.316 46.312h.2v1.806h-.2z"/><path clip-path="url(#x)" fill="#E6E5E5" d="M104.515 46.312h.2v1.806h-.2z"/><path clip-path="url(#x)" fill="#E5E4E3" d="M104.714 46.312h.2v1.806h-.2z"/><path clip-path="url(#x)" fill="#E4E3E2" d="M104.913 46.312h.2v1.806h-.2z"/><path clip-path="url(#x)" fill="#E3E2E1" d="M105.11 46.312h.2v1.806h-.2z"/><path clip-path="url(#x)" fill="#E2E1E1" d="M105.31 46.312h.2v1.806h-.2z"/><path clip-path="url(#x)" fill="#E1E0E0" d="M105.51 46.312h.012v1.806h-.013z"/><path clip-path="url(#x)" fill="#D9D8D7" d="M107.146 49.77h.152v1.854h-.152z"/><path clip-path="url(#x)" fill="#D8D8D7" d="M107.298 49.77h.2v1.854h-.2z"/><path clip-path="url(#x)" fill="#D7D7D6" d="M107.497 49.77h.2v1.854h-.2z"/><path clip-path="url(#x)" fill="#D6D6D5" d="M107.696 49.77h.2v1.854h-.2z"/><path clip-path="url(#x)" fill="#D5D5D4" d="M107.895 49.77h.2v1.854h-.2z"/><path clip-path="url(#x)" fill="#D4D4D3" d="M108.093 49.77h.2v1.854h-.2z"/><path clip-path="url(#x)" fill="#D4D3D2" d="M108.292 49.77h.2v1.854h-.2z"/><path clip-path="url(#x)" fill="#D3D2D1" d="M108.49 49.77h.2v1.854h-.2z"/><path clip-path="url(#x)" fill="#D2D1D0" d="M108.69 49.77h.2v1.854h-.2z"/><path clip-path="url(#x)" fill="#D1D0D0" d="M108.89 49.77h.083v1.854h-.084z"/><defs><path id="y" d="M108.972 51.624l1.26 1.278h.002l-1.262-1.278m-3.45-3.507l1.624 1.654-1.624-1.652"/></defs><clipPath id="z"><use xlink:href="#y" overflow="visible"/></clipPath><path clip-path="url(#z)" fill="#ACC03A" d="M105.52 48.117h.005v1.654h-.004z"/><path clip-path="url(#z)" fill="#AABE39" d="M105.524 48.117h.216v1.654h-.216z"/><path clip-path="url(#z)" fill="#A9BD39" d="M105.74 48.117h.217v1.654h-.216z"/><path clip-path="url(#z)" fill="#A8BC39" d="M105.957 48.117h.216v1.654h-.216z"/><path clip-path="url(#z)" fill="#A7BC3A" d="M106.174 48.117h.216v1.654h-.216z"/><path clip-path="url(#z)" fill="#A7BB39" d="M106.39 48.117h.216v1.654h-.216z"/><path clip-path="url(#z)" fill="#A6BA39" d="M106.607 48.117h.216v1.654h-.216z"/><path clip-path="url(#z)" fill="#A5B93A" d="M106.823 48.117h.216v1.654h-.218z"/><path clip-path="url(#z)" fill="#A4B83A" d="M107.04 48.117h.108v1.654h-.108z"/><path clip-path="url(#z)" fill="#9DB13B" d="M108.972 51.624h.015v1.278h-.015z"/><path clip-path="url(#z)" fill="#9CB13B" d="M108.988 51.624h.216v1.278h-.216z"/><path clip-path="url(#z)" fill="#9BB03B" d="M109.204 51.624h.216v1.278h-.216z"/><path clip-path="url(#z)" fill="#9BAF3B" d="M109.42 51.624h.216v1.278h-.216z"/><path clip-path="url(#z)" fill="#9AAE3B" d="M109.637 51.624h.216v1.278h-.216z"/><path clip-path="url(#z)" fill="#99AD3B" d="M109.853 51.624h.216v1.278h-.218z"/><path clip-path="url(#z)" fill="#97AC3B" d="M110.07 51.624h.164v1.278h-.164z"/><defs><path id="A" d="M103.746 46.315h-3.253l6.487 6.588h3.252l-1.26-1.278-1.826-1.854-1.625-1.65-1.773-1.804"/></defs><clipPath id="B"><use xlink:href="#A" overflow="visible"/></clipPath><path clip-path="url(#B)" fill="#BFD636" d="M100.493 46.315h.048v6.588h-.046zm.047 0h.217v6.588h-.216zm.217 0h.216v6.588h-.216z"/><path clip-path="url(#B)" fill="#BED437" d="M100.973 46.315h.216v6.588h-.218z"/><path clip-path="url(#B)" fill="#BDD337" d="M101.19 46.315h.216v6.588h-.216z"/><path clip-path="url(#B)" fill="#BCD137" d="M101.406 46.315h.216v6.588h-.216z"/><path clip-path="url(#B)" fill="#BBD037" d="M101.623 46.315h.216v6.588h-.218z"/><path clip-path="url(#B)" fill="#BACF37" d="M101.84 46.315h.215v6.588h-.216z"/><path clip-path="url(#B)" fill="#B9CE38" d="M102.056 46.315h.216v6.588h-.216z"/><path clip-path="url(#B)" fill="#B8CD38" d="M102.272 46.315h.216v6.588h-.216z"/><path clip-path="url(#B)" fill="#B7CC37" d="M102.488 46.315h.216v6.588h-.216z"/><path clip-path="url(#B)" fill="#B6CB38" d="M102.705 46.315h.216v6.588h-.214z"/><path clip-path="url(#B)" fill="#B5CA38" d="M102.92 46.315h.217v6.588h-.216z"/><path clip-path="url(#B)" fill="#B5C938" d="M103.138 46.315h.216v6.588h-.216z"/><path clip-path="url(#B)" fill="#B4C839" d="M103.354 46.315h.216v6.588h-.216z"/><path clip-path="url(#B)" fill="#B3C738" d="M103.57 46.315h.216v6.588h-.216z"/><path clip-path="url(#B)" fill="#B2C639" d="M103.787 46.315h.216v6.588h-.216z"/><path clip-path="url(#B)" fill="#B1C539" d="M104.003 46.315h.216v6.588H104z"/><path clip-path="url(#B)" fill="#B0C439" d="M104.22 46.315h.216v6.588h-.216z"/><path clip-path="url(#B)" fill="#AFC339" d="M104.436 46.315h.216v6.588h-.216zm.216 0h.216v6.588h-.216z"/><path clip-path="url(#B)" fill="#AEC239" d="M104.87 46.315h.215v6.588h-.216z"/><path clip-path="url(#B)" fill="#ADC139" d="M105.085 46.315h.216v6.588h-.214z"/><path clip-path="url(#B)" fill="#ACC03A" d="M105.302 46.315h.216v6.588h-.216z"/><path clip-path="url(#B)" fill="#AABE39" d="M105.518 46.315h.216v6.588h-.216z"/><path clip-path="url(#B)" fill="#A9BD39" d="M105.735 46.315h.216v6.588h-.214z"/><path clip-path="url(#B)" fill="#A8BC39" d="M105.95 46.315h.217v6.588h-.216z"/><path clip-path="url(#B)" fill="#A7BC3A" d="M106.167 46.315h.216v6.588h-.216z"/><path clip-path="url(#B)" fill="#A7BB39" d="M106.384 46.315h.216v6.588h-.216z"/><path clip-path="url(#B)" fill="#A6BA39" d="M106.6 46.315h.216v6.588h-.216z"/><path clip-path="url(#B)" fill="#A5B93A" d="M106.817 46.315h.216v6.588h-.216z"/><path clip-path="url(#B)" fill="#A4B83A" d="M107.033 46.315h.216v6.588h-.218z"/><path clip-path="url(#B)" fill="#A3B73A" d="M107.25 46.315h.215v6.588h-.216z"/><path clip-path="url(#B)" fill="#A2B63A" d="M107.466 46.315h.216v6.588h-.216z"/><path clip-path="url(#B)" fill="#A1B63A" d="M107.682 46.315h.216v6.588h-.216z"/><path clip-path="url(#B)" fill="#A0B53A" d="M107.9 46.315h.215v6.588h-.216z"/><path clip-path="url(#B)" fill="#A0B43A" d="M108.115 46.315h.216v6.588h-.214z"/><path clip-path="url(#B)" fill="#9FB33A" d="M108.332 46.315h.216v6.588h-.216z"/><path clip-path="url(#B)" fill="#9EB23A" d="M108.548 46.315h.216v6.588h-.216z"/><path clip-path="url(#B)" fill="#9DB13B" d="M108.764 46.315h.216v6.588h-.216z"/><path clip-path="url(#B)" fill="#9CB13B" d="M108.98 46.315h.217v6.588h-.216z"/><path clip-path="url(#B)" fill="#9BB03B" d="M109.197 46.315h.216v6.588h-.216z"/><path clip-path="url(#B)" fill="#9BAF3B" d="M109.414 46.315h.216v6.588h-.216z"/><path clip-path="url(#B)" fill="#9AAE3B" d="M109.63 46.315h.216v6.588h-.216z"/><path clip-path="url(#B)" fill="#99AD3B" d="M109.846 46.315h.216v6.588h-.216z"/><path clip-path="url(#B)" fill="#97AC3B" d="M110.063 46.315h.17v6.588h-.17z"/><path d="M130 59.828h-2.535l-4.656-5.353h-2.23v5.353h-1.954V46.364h3.788c.842 0 1.547.042 2.116.127.57.087 1.11.28 1.624.59.513.3.92.69 1.218 1.167.3.476.45 1.067.45 1.772 0 .99-.274 1.814-.82 2.477-.546.663-1.29 1.155-2.23 1.474L130 59.83zm-4.222-9.675c0-.392-.076-.74-.227-1.044-.15-.306-.383-.555-.7-.748-.274-.17-.597-.288-.965-.357-.368-.07-.825-.104-1.37-.104h-1.934v5.083h1.717c.56 0 1.062-.045 1.51-.136.446-.09.828-.277 1.143-.56.282-.254.49-.556.625-.905.136-.35.203-.76.203-1.23z" fill="#BFD636"/><path d="M95.315 45.172v.627h-.746v1.927h-.796v-1.93h-.736v-.626h2.275zm2.81 2.556l-.047-1.124c-.01-.28 0-.6-.01-.993h-.048c-.077.348-.153.714-.22.995l-.268 1.077h-.755l-.24-1.085c-.037-.243-.104-.646-.16-.983h-.05c0 .346-.01.702-.018.993l-.06 1.124h-.745l.163-2.556h1.223l.173.627c.048.198.086.404.153.825h.01c.067-.318.124-.57.19-.824l.192-.626h1.138l.143 2.556h-.765z" fill="#33C4F2"/></svg>