<svg xmlns="http://www.w3.org/2000/svg" viewBox="0 0 140 105" enable-background="new 0 0 140 105"><path d="M53.108 61.306c-1.252.564-2.65 1.016-4.194 1.354-1.866.41-3.65.523-5.358.342-1.706-.182-3.254-.662-4.644-1.443-1.392-.783-2.584-1.873-3.58-3.273-.995-1.4-1.712-3.1-2.152-5.106-.4-1.82-.498-3.56-.295-5.223.203-1.662.735-3.173 1.595-4.534.86-1.36 2.057-2.54 3.588-3.54 1.53-1 3.425-1.748 5.683-2.243 1.59-.348 2.93-.52 4.017-.517 1.087.003 1.904.04 2.452.114l.784 5.225c-.708-.255-1.54-.41-2.494-.468-.955-.056-1.985.038-3.09.28-1.244.273-2.286.7-3.124 1.283-.838.582-1.475 1.283-1.91 2.103-.436.82-.692 1.746-.768 2.776-.076 1.03.016 2.134.273 3.308.26 1.176.63 2.194 1.108 3.054.478.86 1.034 1.547 1.665 2.06.632.517 1.313.867 2.043 1.058.73.188 1.475.2 2.235.034.417-.09.8-.206 1.157-.345.356-.14.643-.315.86-.533l-1-4.562-3.283.72-.985-4.492 9.364-2.054 1.433 6.53V32.26H14v12.346l14.396-3.158 1.077 4.907-5.184 1.137 4.213 19.213-6.53 1.433-4.215-19.213-3.76.824v22.994h40.484V60.627c-.405.22-.862.445-1.376.68z" fill="#DC452A"/><path d="M67.24 34.905h-2c-.54 0-.59.36-.59.796v1.21l-2.62-.18v-4.365h13.427v4.365l-2.62.178V35.7c0-.487-.05-.795-.743-.795h-1.746v12.27l2.03.078v2.183h-7.242v-2.08l1.36-.077c.49-.053.746-.208.746-.72V34.904zm11.347 14.53v-2.08l.847-.076c.436-.053.744-.208.744-.72V34.622l-1.462-.077v-2.183h11.757v4.262l-2.62.18v-1.027c0-.488-.05-.795-.744-.795h-3.8v4.39h5.93v2.62h-5.93v4.8h4.13c.67 0 .72-.31.72-.82v-1.286l2.62.18v4.57H78.586zm15.915-2.08l.848-.076c.437-.053.745-.208.745-.72V34.622l-1.465-.077v-2.183h7.01c3.773 0 6.16 1.232 6.16 4.724 0 2.567-1.67 3.954-3.08 4.52.693.256 1.077.692 1.464 1.565l1.85 4.03 1.46.05v2.184h-6.34v-2.08l.745-.077c.59-.08.72-.31.484-.823l-1.206-2.567c-.36-.795-.72-1.18-1.617-1.18h-2.336v4.466l1.668.077v2.183H94.5v-2.08zm6.958-7.084c2.182 0 3.158-1 3.158-2.822 0-2.31-1.337-2.594-3.52-2.594h-1.873v5.418h2.235zm10.985 7.086l.848-.077c.437-.053.745-.208.745-.72V34.622l-1.465-.077v-2.183h7.342c3.774 0 6.085 1.797 6.085 5.238 0 3.903-2.772 5.855-6.65 5.855h-2.182v3.722l2.466.077v2.183h-7.188v-2.08zm6.572-6.393c2.235 0 3.748-.77 3.748-3.055 0-2.644-1.513-3.055-4.03-3.055h-1.566v6.11h1.846zM76.123 70.918c-1.412.975-3.517 1.643-5.904 1.643-4.648 0-7.55-2.85-7.55-8.803 0-6.65 4.492-8.882 8.19-8.882 1.72 0 3.49.333 5.03 1.052v4.363l-2.62.18v-2c0-.488-.075-.694-.537-.847-.487-.155-1.155-.205-1.9-.205-3.44 0-4.954 2.31-4.954 6.136 0 4.032 1.333 6.47 4.465 6.47 1 0 2.208-.28 2.722-.615v-3.83h-.025l-1.977-.077V63.32h6.392v2.054l-.59.05c-.54.054-.745.23-.745.85v4.644zm2.85 1.336v-2.08l.847-.076c.437-.05.745-.206.745-.72v-11.94l-1.465-.074V55.18h11.76v4.263l-2.62.18v-1.027c0-.488-.052-.795-.744-.795h-3.8v4.39h5.93v2.62h-5.93v4.8h4.133c.665 0 .72-.307.72-.82v-1.284l2.617.18v4.57H78.972zm19.097-14.84l-1.617-.152v-2.08h5.88l5.235 14.813h.026l1.463.078v2.182h-6.622v-2.08l.974-.076c.537-.053.795-.208.615-.773l-.54-1.593H97.48l-.772 2.26 1.54.078v2.182h-5.93v-2.08l.848-.076c.437-.052.59-.232.77-.722l4.135-11.963zm.027 7.96h4.775l-2.312-7.317h-.075l-2.388 7.316zm11.91 4.8l.848-.076c.437-.05.743-.206.743-.72v-11.94l-1.463-.074V55.18h7.01c3.773 0 6.16 1.234 6.16 4.726 0 2.566-1.67 3.953-3.08 4.517.693.256 1.077.69 1.464 1.564l1.845 4.03 1.464.054v2.184h-6.34v-2.08l.743-.076c.59-.078.718-.31.486-.823l-1.207-2.566c-.36-.796-.718-1.18-1.618-1.18h-2.335v4.465l1.67.078v2.182h-6.393v-2.08zm6.956-7.085c2.182 0 3.158-1.003 3.158-2.827 0-2.31-1.333-2.593-3.515-2.593h-1.874v5.42h2.234z" fill="#333"/></svg>