<svg xmlns="http://www.w3.org/2000/svg" viewBox="0 0 140 105" enable-background="new 0 0 140 105"><path d="M49 67.91c0 1.706-1.384 3.09-3.09 3.09H15.09C13.384 71 12 69.616 12 67.91V37.09c0-1.706 1.384-3.09 3.09-3.09h30.82c1.707 0 3.09 1.384 3.09 3.09v30.82z" fill="#49B649"/><path d="M27 50v-7h-6v20h6v-7h7v-6zm7-7h7v7h-7zm0 13h7v7h-7z" fill="#fff"/><path d="M60.822 54.012l-1.695 1.825v4.52h-3.26v-15.82h3.26v7.17l1.434-1.966 4.033-5.203h4.01l-5.618 7.03 5.78 8.79h-3.878l-4.064-6.344zm13.194 6.345h-3.26v-15.82h3.26v15.82zm9.422-3.923l3.586-11.898h3.63l-5.51 15.82h-3.4l-5.488-15.82h3.618l3.564 11.898zm15.106 0l3.586-11.898h3.63l-5.51 15.82h-3.4l-5.488-15.82h3.618l3.564 11.898zm12.726 3.923h-3.26v-15.82h3.26v15.82zm8.53-6.345l-1.694 1.825v4.52h-3.26v-15.82h3.26v7.17l1.434-1.966 4.03-5.203h4.01l-5.617 7.03 5.78 8.79h-3.878l-4.064-6.344z" fill="#333"/></svg>