<svg xmlns="http://www.w3.org/2000/svg" viewBox="0 0 140 105" enable-background="new 0 0 140 105"><path d="M25.212 70.85c-.24-.22-.414-.374-.578-.538-3.426-3.424-6.866-6.834-10.27-10.28-2.57-2.6-4-5.754-4.304-9.4-.344-4.11.81-7.772 3.404-10.956 2.327-2.856 5.34-4.64 8.968-5.262 5.393-.925 10.062.58 13.87 4.517 2.442 2.527 3.764 5.603 4.066 9.11.326 3.797-.653 7.23-2.868 10.31-.46.638-.985 1.237-1.54 1.795-3.382 3.406-6.782 6.796-10.178 10.19-.165.16-.34.308-.57.517zm-1.988-21.71c1.342 1.046 2.683 1.026 4.018-.018.242.227.462.396.638.603.562.66.822 1.433.82 2.3 0 1.77-.002 3.54.006 5.31 0 .213-.083.46.143.66.264-.207.2-.478.202-.72.005-1.643-.003-3.286.006-4.928.003-.71-.028-1.41-.352-2.06-.096-.194-.117-.4.1-.497.127-.057.307-.008.46.01.058.008.108.067.163.1.846.512 1.692.51 2.54.003.143-.085.295-.154.48-.25.183.17.37.312.52.485.497.574.697 1.256.7 2.008.003.385-.027.774.047 1.28 1.876-3.582 1.244-8.73-2.724-11.775-3.78-2.9-9.11-2.507-12.506.868-3.347 3.326-3.24 8.325-1.725 10.776-.057-1.453-.03-2.773 1.227-3.615.112.04.18.047.23.08.964.66 1.936.72 2.92.048.177-.12.345-.16.52-.003.183.164.128.34.04.524-.28.592-.336 1.225-.333 1.87.007 1.665.002 3.33.003 4.993 0 .17-.008.345.026.51.02.1.117.182.26.39.036-.3.07-.458.072-.617.007-.532.003-1.066.003-1.6 0-1.322-.02-2.645.01-3.967.024-1.148.478-2.09 1.485-2.766zm3.092 6.318c-.258-1.124-.507-2.22-.76-3.316-.046-.196-.138-.406-.37-.348-.125.032-.273.208-.306.345-.268 1.09-.51 2.19-.77 3.322l1.11 1.005 1.096-1.01zm-1.738-4.62c.126.298.254.592.645.578.373-.013.524-.273.624-.652-.41 0-.765-.002-1.122.002-.037 0-.073.035-.147.073zm77.147.735c.085-.3.136-.498.197-.694.752-2.41 2.7-3.99 5.213-4.144.756-.046 1.545.013 2.282.183 2.355.54 3.675 2.127 4.164 4.43.303 1.416.264 2.844-.11 4.248-.67 2.504-2.786 4.156-5.384 4.23-.88.027-1.75-.037-2.59-.315-1.874-.62-2.995-1.96-3.577-3.8-.058-.18-.106-.366-.25-.57-.07.226-.135.453-.21.677-.638 1.91-1.86 3.24-3.84 3.773-1.435.387-2.875.338-4.28-.157-1.192-.42-2.13-1.196-2.727-2.303-1.24-2.303-1.35-4.7-.28-7.08.942-2.094 2.666-3.175 4.934-3.327 1.662-.112 3.233.21 4.544 1.338.87.747 1.4 1.707 1.72 2.792.063.2.113.406.196.715zm-3.038 1.725c-.088-1.278-.24-2.04-.616-2.75-.304-.578-.755-1.01-1.387-1.147-1.578-.34-2.766.016-3.404 1.593-.643 1.586-.576 3.222.04 4.81.404 1.036 1.385 1.585 2.718 1.462 1.19-.11 1.895-.847 2.244-1.91.217-.66.277-1.37.407-2.056zm11.914.012l-.06-.015c-.03-.468-.04-.938-.095-1.403-.036-.294-.12-.586-.216-.867-.267-.763-.73-1.387-1.535-1.596-1.644-.43-2.868.04-3.495 1.605-.204.507-.305 1.067-.368 1.613-.12 1.028-.007 2.047.372 3.018.323.827.905 1.366 1.808 1.548 1.685.34 2.845-.594 3.23-1.905.19-.646.243-1.33.36-2zM90.47 59.54h-3.01c-.36-1.42-.586-2.868-.868-4.302-.282-1.437-.56-2.876-.947-4.33-.085.207-.177.413-.254.624-.9 2.466-1.798 4.933-2.696 7.4-.036.1-.075.2-.115.298-.224.557-.748.81-1.266.544-.178-.09-.31-.34-.39-.546-.408-1.077-.79-2.165-1.185-3.247l-1.9-5.184c-.09.287-.157.447-.19.614-.483 2.405-.96 4.812-1.442 7.217-.063.307-.16.607-.246.93-1.013.033-1.962.075-2.987-.032.043-.348.06-.64.118-.922.823-4.1 1.65-8.2 2.478-12.298.23-1.13.453-2.26.69-3.387.11-.524.15-.56.677-.564 1.4-.01 1.146-.066 1.507 1.046 1.014 3.126 2.02 6.255 3.03 9.382.07.22.153.434.27.763.11-.302.19-.492.25-.688 1.01-3.217 2.015-6.435 3.022-9.653.037-.122.084-.242.118-.365.09-.333.286-.51.646-.49.234.012.47-.007.704.002.486.018.543.05.648.527.207.937.393 1.88.584 2.82.88 4.327 1.763 8.654 2.64 12.983.053.263.068.533.108.855zM58.29 50.778c-.41 1.11-.77 2.084-1.125 3.06-.65 1.782-1.298 3.567-1.95 5.35-.227.616-.623.825-1.232.603-.165-.06-.317-.272-.387-.45-.35-.895-.67-1.8-1-2.7-.63-1.724-1.257-3.448-1.888-5.17-.062-.17-.146-.33-.33-.48-.09.41-.187.816-.27 1.225-.438 2.195-.873 4.392-1.312 6.587-.033.168-.056.347-.135.492-.06.115-.2.262-.31.265-.89.02-1.777.01-2.76.01.05-.394.072-.703.132-1.005.407-2.028.824-4.054 1.233-6.082.632-3.136 1.26-6.272 1.893-9.408.143-.71.158-.722.875-.723 1.093 0 .993-.07 1.325.962 1 3.106 1.995 6.214 2.992 9.32.084.262.17.523.368.805.07-.206.148-.41.213-.616l2.975-9.46c.058-.184.13-.363.177-.55.09-.345.31-.468.658-.465 1.355.01 1.202-.105 1.453 1.122 1.038 5.077 2.074 10.155 3.107 15.233.05.246.07.5.113.81-.237.028-.42.067-.604.07-.598.007-1.196.007-1.793 0-.63-.006-.68-.048-.797-.66-.265-1.383-.527-2.766-.79-4.148-.217-1.13-.432-2.262-.653-3.393-.03-.156-.087-.308-.175-.604zm59.105-9.124c.098 1.127.036 2.208.047 3.285.01 1.065.002 2.132.002 3.2v3.232l.13.042c.528-.604 1.06-1.206 1.586-1.812.643-.74 1.29-1.478 1.92-2.23.255-.306.55-.424.946-.422 2.326.013 4.65.004 6.977.01.71 0 .75.04.75.773.003 3.69.003 7.383 0 11.074 0 .227-.042.454-.07.728h-2.98c-.026-.304-.074-.59-.075-.878-.006-2.774-.003-5.548-.005-8.322 0-.25-.022-.5-.037-.807l-1.433-.096c-.34-.65-.01-1.364-.274-2.105l-3.974 4.457c.586.888 1.138 1.722 1.687 2.557.562.858 1.126 1.713 1.68 2.575.534.834 1.132 1.63 1.612 2.518-.135.074-.188.128-.24.128-.982.013-1.963.013-2.944.027-.364.005-.516-.25-.68-.502-.64-.984-1.272-1.972-1.912-2.955-.44-.676-.887-1.346-1.393-2.113-.43.47-.818.857-1.15 1.286-.114.147-.117.403-.12.61-.01.98 0 1.963-.008 2.945-.007.68-.054.724-.734.728-.66.004-1.323-.003-1.984-.01-.083-.002-.165-.04-.314-.076-.027-.21-.08-.436-.08-.66-.004-5.27-.004-10.542 0-15.812 0-.676.022-.697.676-.864.578-.148 1.158-.293 1.74-.428.183-.043.373-.05.65-.082zm-55.763 5.378c.226-.033.37-.07.513-.073.682-.01 1.366.012 2.047-.01.405-.015.62.153.763.523.505 1.314 1.03 2.62 1.548 3.928.44 1.11.877 2.22 1.32 3.33.058.15.142.29.27.54.118-.296.2-.483.27-.675.823-2.31 1.64-4.62 2.47-6.93.254-.71.266-.706 1-.71.556-.003 1.11-.004 1.665 0 .207.003.415.025.71.043-.077.285-.12.507-.198.716-1.713 4.55-3.432 9.097-5.145 13.647-.303.806-.8 1.45-1.517 1.927-1.13.754-2.367 1.156-3.73 1.163-.145 0-.29-.025-.5-.045-.04-.208-.102-.407-.11-.61-.015-.446-.013-.895-.003-1.342.014-.647.08-.692.75-.75.466-.04.94-.075 1.388-.196 1.044-.282 1.433-.904 1.19-1.97-.187-.828-.42-1.656-.73-2.446-1.218-3.094-2.477-6.173-3.716-9.26-.098-.245-.162-.506-.255-.8zm66.608-1.405c-.987.01-1.766-.73-1.785-1.697-.02-.997.755-1.803 1.75-1.82.962-.018 1.795.812 1.795 1.787 0 .965-.768 1.72-1.76 1.73zm-103.017 3.84c-1.608.003-2.724-1.47-2.302-3.023.096-.346.17-.7.213-1.056.03-.268.163-.442.38-.548 1.126-.548 2.258-.568 3.386-.01.215.107.36.27.392.54.048.376.13.75.226 1.118.395 1.525-.717 2.974-2.293 2.978zm-5.523-3.54c1.137-.005 2.045.878 2.054 1.998.01 1.065-.906 2.002-1.977 2.026-1.125.028-2.092-.923-2.086-2.05.007-1.075.914-1.965 2.01-1.97zm13.04 1.997c-.017 1.113-.957 2.036-2.065 2.027-1.062-.006-2.007-.96-2.002-2.02.005-1.11.938-2.012 2.065-2.002 1.098.01 2.016.926 2 1.997zm-10.17-1.502h-.767c.04-.285.055-.533.108-.773.125-.557.215-1.098-.41-1.497.17-.117.277-.215.403-.275.945-.447 1.895-.883 2.84-1.327.262-.122.513-.18.795-.047 1.042.49 2.088.97 3.13 1.458.072.034.125.105.22.188-.41.408-.926.546-1.416.714-.104.036-.27-.083-.4-.15-1.244-.64-2.497-.663-3.72.024-.303.17-.563.085-.86.052-.245.553.038 1.06.08 1.632z" fill="#37BF8D"/></svg>