<svg xmlns="http://www.w3.org/2000/svg" viewBox="0 0 140 105" enable-background="new 0 0 140 105"><path d="M20 55.732l22.995-15.46c8.472 13.502 23.24 23.388 17.837 42.992L20 55.732z" fill="#F05C23"/><path d="M45.424 38.888l25.515-17.2L95.702 38.58c-8.748 6.78-12.273 18.977-25.38 18.76-12.484-.21-16.953-10.91-24.9-18.45zm24.498 13.17c5.257-.52 8.53-3.284 8.332-8.425-.186-4.83-3.188-7.814-8.36-7.776-5.39.04-7.894 3.614-7.865 8.242.026 4.633 3.13 7.5 7.89 7.96z" fill="#A01C66"/><path d="M120 55.083L78.86 83.31c-5.664-20.185 11.3-29.22 18.735-43.403L120 55.083z" fill="#1376BD"/></svg>