<svg xmlns="http://www.w3.org/2000/svg" viewBox="0 0 140 105" enable-background="new 0 0 140 105"><path d="M37.864 29.376c-.174-.258-.45-.4-.78-.4H31.85c-.657 0-1.09.38-1.18 1.034l-1.66 10.527-1.656-10.52c-.092-.66-.523-1.04-1.184-1.04h-5.234c-.33 0-.606.14-.78.4-.168.252-.202.543-.098.822l5.658 20.37v12.685c0 .685.407 1.094 1.09 1.094h4.407c.682 0 1.09-.41 1.09-1.095V50.57l5.658-20.372c.108-.283.075-.566-.095-.822zm36.596 28.39h-5.72V35.01c0-.688-.41-1.098-1.095-1.098H63.25c-.685 0-1.094.41-1.094 1.097v28.245c0 .685.41 1.094 1.095 1.094h11.21c.686 0 1.096-.41 1.096-1.095V58.86c0-.685-.41-1.094-1.095-1.094zm20.345-23.854h-4.938c-.62 0-1.07.285-1.304.826l-3.773 7.26v-6.99c0-.686-.41-1.096-1.095-1.096H79.3c-.686 0-1.095.41-1.095 1.097v28.245c0 .685.41 1.094 1.095 1.094h4.395c.685 0 1.095-.41 1.095-1.095v-6.418l.4-.756 3.268 7.43c.094.233.258.433.486.592.23.163.492.245.776.245h4.89c.422 0 .656-.218.777-.4.174-.258.205-.558.087-.852L88.932 47.62l6.625-12.423.018-.038c.11-.27.107-.54-.004-.787-.13-.292-.41-.462-.764-.462zm7.255-4.168c-.7-.74-1.614-1.114-2.712-1.114-1.033 0-1.896.358-2.567 1.066-.595.636-.9 1.376-.9 2.2 0 1.106.347 1.972 1.026 2.574.324.29.686.52 1.074.688.4.172.897.255 1.515.255.14 0 .312-.03.527-.09l.027-.006c0 .013.003.03.005.05.012.133.007.247-.015.338l-.004.024c-.14.79-.413 1.3-.81 1.517-.556.305-.86.37-1.015.37-.236 0-.415.15-.53.265l-.047.047-.03.06c-.062.127-.09.23-.09.327v.74c0 .316.152.572.416.704.12.065.25.098.38.098h.04l.04-.01.257-.05.237-.05c.155-.03.212-.04.23-.04h.042l.053-.016c.247-.07.5-.17.75-.304.21-.114.423-.24.646-.388.81-.53 1.442-1.19 1.883-1.967.432-.76.72-1.618.86-2.55.07-.355.1-.717.08-1.076-.017-.346-.06-.694-.13-1.036-.14-1.03-.56-1.914-1.24-2.63zm17.412 8.216c-.347-.8-.824-1.506-1.42-2.1-.597-.598-1.303-1.075-2.098-1.42-.81-.35-1.678-.53-2.58-.53h-7.408c-.686 0-1.096.41-1.096 1.098v28.247c0 .685.41 1.094 1.096 1.094h7.407c.91 0 1.777-.18 2.58-.528.8-.347 1.507-.824 2.1-1.418.595-.594 1.072-1.3 1.418-2.1.35-.807.53-1.675.53-2.582V40.54c0-.906-.177-1.774-.527-2.58zm-6.058 2.828v16.69c0 .223-.073.4-.227.555-.154.153-.335.228-.554.228h-1.176V40.008h1.176c.22 0 .4.074.553.226.155.157.228.333.228.556zm-66.127-6.48h-.026c-1.916.013-3.987 1.635-5.83 4.57-1.79 2.853-3.18 6.635-3.91 10.646-.835 4.59.077 8.888 2.5 11.793 1.85 2.215 4.47 3.435 7.38 3.435h.08c2.93-.02 5.554-1.268 7.386-3.512 2.4-2.94 3.26-7.262 2.354-11.856-1.664-8.454-6.027-15.076-9.933-15.076z"/><path d="M28.224 68.196c1.087 0 1.652.708 1.652 1.668 0 .7-.37 1.087-.674 1.28.362.186.85.574.85 1.408 0 1.02-.648 1.71-1.794 1.71h-2.292v-6.066h2.258zm-.185 2.67c.68 0 .96-.42.96-1.002 0-.598-.27-1.003-.97-1.003h-1.205v2.008h1.213zm.057 2.73c.758 0 1.07-.387 1.07-1.044 0-.708-.337-1.045-1.08-1.045h-1.263v2.09h1.273zm5.503-3.85c1.163 0 1.87.632 1.87 2.3 0 1.67-.715 2.302-1.87 2.302s-1.87-.632-1.87-2.3c0-1.67.716-2.302 1.87-2.302zm0 .65c-.615 0-1.01.353-1.01 1.65 0 1.3.395 1.653 1.01 1.653s1.003-.356 1.003-1.654-.387-1.652-1.003-1.652zm4.77 2.274c0 .767.244.994.843.994.17 0 .354-.034.354-.034s.06.143.06.337c0 .194-.043.303-.043.303-.152.042-.38.076-.607.076-1.037 0-1.45-.565-1.45-1.635v-2.25h-.65s-.05-.116-.05-.31c0-.21.05-.32.05-.32h.65v-.767c.22-.135.53-.194.843-.17v.936h1.096s.05.11.05.31c0 .195-.05.32-.05.32H38.37v2.21zm3.994 0c0 .767.244.994.843.994.17 0 .354-.034.354-.034s.06.143.06.337c0 .194-.04.303-.04.303-.153.042-.38.076-.608.076-1.036 0-1.45-.565-1.45-1.635v-2.25h-.648s-.05-.116-.05-.31c0-.21.05-.32.05-.32h.65v-.767c.218-.135.53-.194.842-.17v.936h1.096s.05.11.05.31c0 .195-.05.32-.05.32h-1.096v2.21zm3.733 1.534s-.143.06-.42.06c-.296 0-.422-.06-.422-.06v-6.202s.126-.06.42-.06c.28 0 .422.06.422.06v6.202zm2.73-1.896c.067 1.003.472 1.323 1.17 1.323.6 0 .995-.242.995-.242.152.135.26.362.27.607 0 0-.48.354-1.4.354-1.297 0-1.904-.8-1.904-2.327 0-1.593.75-2.275 1.87-2.275 1.038 0 1.67.573 1.67 1.694 0 .532-.093.87-.093.87h-2.578zm1.003-1.896c-.548 0-.935.362-1.003 1.298h1.803c.008-.067.025-.202.025-.38 0-.497-.202-.918-.825-.918zm6.497-2.47c.278 0 .413.06.413.06v6.2s-.143.06-.354.06-.38-.06-.38-.06l-.058-.453c-.244.37-.632.596-1.264.596-.96 0-1.584-.582-1.584-2.3 0-1.72.624-2.302 1.584-2.302.59 0 .97.202 1.214.548V68c0 .002.142-.057.43-.057zm-1.348 2.495c-.676 0-1.013.354-1.013 1.61 0 1.255.337 1.61 1.01 1.61.59 0 .92-.498.92-1.08V71.49c-.01-.564-.338-1.053-.92-1.053zm9.993-.093c-.177-.784-.194-1.24-.194-1.24h-.036s-.025.456-.202 1.24l-.97 3.86c-.117.024-.345.058-.547.058-.194 0-.38-.034-.49-.06l-1.65-5.948s.142-.06.43-.06c.294 0 .43.06.43.06l1.103 3.96c.15.55.235 1.113.235 1.113h.034s.066-.556.2-1.112l1.012-3.96s.134-.06.446-.06c.32 0 .454.06.454.06l1.003 3.96c.143.58.194 1.112.194 1.112h.026s.076-.506.236-1.112l1.103-3.96s.152-.06.388-.06c.254 0 .405.06.405.06l-1.643 5.948s-.194.06-.49.06c-.286 0-.513-.06-.513-.06l-.97-3.86zm8.67 3.86s-.143.06-.42.06c-.288 0-.422-.06-.422-.06V71.17c0-.472-.242-.742-.782-.742-.37 0-.733.202-.952.54v3.235s-.152.06-.42.06c-.296 0-.422-.06-.422-.06V68s.126-.058.42-.058c.27 0 .422.06.422.06v2.274c.303-.346.742-.53 1.272-.53.843 0 1.306.513 1.306 1.272v3.186zm2.68-1.896c.067 1.003.472 1.323 1.17 1.323.6 0 .995-.242.995-.242.152.135.26.362.27.607 0 0-.48.354-1.4.354-1.297 0-1.903-.8-1.903-2.327 0-1.593.75-2.275 1.87-2.275 1.038 0 1.67.573 1.67 1.694 0 .532-.093.87-.093.87h-2.58zm1.003-1.896c-.548 0-.935.362-1.003 1.298h1.803c.008-.067.025-.202.025-.38.003-.497-.2-.918-.823-.918zm5.394 4.5c-.304.927-.6 1.458-1.51 1.458-.277 0-.462-.084-.462-.084 0-.008-.06-.143-.06-.312 0-.185.06-.33.068-.337 0 0 .185.034.38.034.378 0 .572-.1.825-.89l.18-.515c-.085-.008-.178-.017-.27-.06l-1.6-4.314s.16-.06.436-.06c.286 0 .438.06.438.06l.96 2.563c.212.582.296.986.296.986h.033s.084-.397.27-.98l.834-2.57s.135-.06.413-.06c.244 0 .396.06.396.06l-1.627 5.023zm6.74-.708s-.143.06-.42.06c-.313 0-.44-.06-.44-.06v-6.008h2.2c1.112 0 1.812.75 1.812 1.854 0 1.096-.7 1.845-1.812 1.845h-1.34v2.31zm1.23-3.025c.666 0 1.028-.423 1.028-1.13 0-.717-.362-1.14-1.028-1.14h-1.23v2.268h1.23zm5.553-1.425c.312 0 .548.093.733.21-.025.304-.143.523-.37.71-.16-.12-.33-.178-.523-.178-.33 0-.65.253-.868.64v3.068s-.143.06-.42.06c-.296 0-.422-.06-.422-.06V69.89s.126-.06.42-.06c.28 0 .422.06.422.06v.582c.32-.532.69-.717 1.028-.717zm3.8-.01c1.163 0 1.87.633 1.87 2.3 0 1.67-.715 2.303-1.87 2.303s-1.87-.632-1.87-2.3c0-1.67.716-2.302 1.87-2.302zm0 .65c-.615 0-1.01.354-1.01 1.65 0 1.3.395 1.654 1.01 1.654s1.003-.356 1.003-1.654-.387-1.652-1.003-1.652zm4.77 2.275c0 .767.244.994.843.994.17 0 .354-.034.354-.034s.06.143.06.337c0 .194-.043.303-.043.303-.152.042-.38.076-.607.076-1.037 0-1.45-.565-1.45-1.635v-2.25h-.65s-.05-.116-.05-.31c0-.21.05-.32.05-.32h.65v-.767c.22-.135.53-.194.843-.17v.936h1.096s.05.11.05.31c0 .195-.05.32-.05.32h-1.098v2.21zm3.54-.362c.066 1.003.47 1.323 1.17 1.323.6 0 .994-.242.994-.242.152.135.26.362.27.607 0 0-.48.354-1.4.354-1.297 0-1.904-.8-1.904-2.327 0-1.593.75-2.275 1.87-2.275 1.038 0 1.67.573 1.67 1.694 0 .532-.093.87-.093.87h-2.578zm1.002-1.896c-.548 0-.935.362-1.003 1.298h1.803c.008-.067.025-.202.025-.38 0-.497-.202-.918-.825-.918zm4.33-1.432s-.15.058-.437.058c-.303 0-.438-.06-.438-.06v-.79s.135-.06.438-.06c.286 0 .438.06.438.06v.79zm-.016 5.224s-.145.06-.423.06c-.295 0-.42-.06-.42-.06V69.89s.125-.06.42-.06c.278 0 .42.06.42.06v4.314zm5.468 0s-.143.06-.42.06c-.288 0-.422-.06-.422-.06V71.17c0-.472-.245-.742-.784-.742-.37 0-.733.202-.952.54v3.235s-.152.06-.42.06c-.296 0-.422-.06-.422-.06v-4.315s.126-.06.42-.06c.27 0 .422.06.422.06v.388c.303-.346.742-.53 1.272-.53.843 0 1.306.513 1.306 1.272v3.186z" fill="#333"/></svg>