<svg xmlns="http://www.w3.org/2000/svg" viewBox="16 2 64 30" enable-background="new 16 2 64 30"><path fill="#999" d="M79.9 12.3s0-.1.1-.1v-.4l-.1-.1c-.1 0-.1-.1-.2-.1h-13l-5.2-2.8-1.5-5c0-.1-.1-.1-.1-.1s0-.1-.1-.1c-.1-.1-.2-.1-.3-.1l-6.3-1H53c-.1 0-.1 0-.2.1h-.1l-4.4 3.6-3 .2-5.8-4.2c-.2-.2-.4-.2-.5-.2-.2 0-.3.2-.4.3l-3.3 6.3-6.1-.9H29l-12.4 2.4c-.2 0-.4.2-.5.4-.1.2 0 .4.1.6l2.9 3.7-.8 2.7v.3c0 .1 0 .2.1.3l2.3 2.8-1.6 5.1c-.1.2 0 .5.2.6.1.1.3.1.4.1.1 0 .2 0 .3-.1l7.7-3.5 3.2-1.4 1.4 3.8-.9 5.5v.4c0 .1.1.1.2.2.1 0 .2.1.3.1h.2l9.9-3.5 5.4 3.8c.1.1.2.1.3.1h11c.2 0 .3-.1.4-.2L71.7 22h.1l8.1-9.7zm-52.5 9.4l-2.3-2.1-1-.9 1.7.3 5.7 1-.7.3-3.4 1.4zM52.7 7.3l.2 3.1-.5-.5-3.1-3.1 3.1-2.5.3 3zm13.9 9.4l.5-4 3.4 1-2.8 2.2-1.1.8zm4.2 3.8l-4-2.4 4.2-3.2-.2 5.6zm-41.9-11l3.5 7-9 .6 5.5-7.6zm32.2 1l3.6 6.9-5.9-.8.8-2.2 1.5-3.9zm-7 5.7l.1-2.7 2.9 3.3-3.2 2.2.2-2.8zM53 13.3l-.3 5.8-.6-.5-2.9-2.2 3.6-3 .2-.1zm-17.3 6.9l-1.5-.9-.1-.7 1.6 1.6zm-.9-2.7l11.5-.4-6.9 5.2-4.6-4.8zm13.4 4.8l.5-4.8 1.7 1.3 1.7 1.3-2.4 1.3-1.5.9zm-7.2.3l2.1-1.6 4.3-3.2-.6 5-4.3-.2H41zm13-2.2l.9-.6 2.5-1.7.2 3.3.4 7.1-2.8-5.6-1.2-2.5zm6-10.3l-2.2 5.7-3.1-3.6.6-.3 4.7-1.8zm-7.2 1.8l-3.9 3.2v-1.4l.2-5.6 1.9 2 1.8 1.8zm-5.4 4l-8.9.3-3.4.1L44.7 8l2.5 7.4.2.5zM35.9 14l.2-4.2 6.6-1.6-6.8 5.8zm-8.6 4l5.6-.4.1 1.3-1.4-.2-4.3-.7zm18.4 6l-3.5 2.6-1.8-2.8 5.3.2zm2.9-.5l4.1-2.2.3-.2 4.2 8.4-8.6-6zm10.6 5.7l-.5-9.9-.1-1.6 5.9.8h.3L61.3 25l-2.1 4.2zm-11.4-20l-.1 3.8-1.8-5.5 2-.1-.1 1.8zM33.3 25.4l.7-4.8 4.3 2.6-5.6 5.9.6-3.7zm5.9-1.3l1.8 2.8.1.2-7.1 2.5 5.2-5.5zm9.1 6.7l-.2-6.2 8.7 6.2h-8.5zm23.5-17.9l-.9-.3-.3-.1h2.9l-1.7.4zm-6.4 3.2l-2.9-5.6 3.4 1.8-.5 3.8zm-10-5.5l.1-.2 3.7-5.1 1.1 3.3-4.9 2zm-1.2-.4l-.4-6.5 4.6.7-4.2 5.8zM39.3 3.5l4.3 3.2-6.9 1.7 2.6-4.9zm-4.5 6.3l-1.6 5.5L30 9.1l4.8.7zm-7.2-.6l-5.5 7.5-4.5-5.6 10-1.9zm-6.7 7.9l-1.3-.1.4-1.1.9 1.2zm.5 1.2l-.4 1-.9-1.1 1.3.1zm1.1.5l3.7 3.4-5.6 2.6 1.9-6zm10.3 1.9l-.3 2.3-.7-1.8 1-.5zm10.3 6.7l3.8-2.8.2 5.6-4-2.8zm17.5 1.8L66 19l2 1.2 2.3 1.4-9.7 7.6zM72.4 14l1.5-.3 3.9-.8-5.7 6.9.3-5.8z"/></svg>