<svg xmlns="http://www.w3.org/2000/svg" viewBox="0 0 32 32" enable-background="new 0 0 32 32"><path fill="none" d="M0 0h32v32H0z"/><path fill="#D84135" d="M22.8 7.1H9.2c-1.1 0-2 .9-2 2v13.6c0 1.1.9 2 2 2h13.6c1.1 0 2-.9 2-2V9.2c.1-1.1-.9-2.1-2-2.1zM16 12.6c1.9 0 3.4 1.5 3.4 3.4s-1.5 3.4-3.4 3.4-3.4-1.5-3.4-3.4 1.5-3.4 3.4-3.4zm6.8 9.5c0 .4-.3.7-.7.7H9.9c-.4 0-.7-.3-.7-.7v-7.5h1.5c-.1.4-.2.9-.2 1.4 0 3 2.4 5.5 5.5 5.5s5.5-2.4 5.5-5.5c0-.5-.1-.9-.2-1.4h1.5v7.5zm0-10.2c0 .4-.3.7-.7.7h-2c-.4 0-.7-.3-.7-.7v-2c0-.4.3-.7.7-.7h2c.4 0 .7.3.7.7v2z"/></svg>