<svg xmlns="http://www.w3.org/2000/svg" viewBox="0 0 32 32" enable-background="new 0 0 32 32"><path fill="none" d="M0 0h32v32H0z"/><path fill="#D84135" d="M23.9 12.7v.5c0 5.4-4.1 11.6-11.6 11.6-2.3 0-4.4-.7-6.2-1.8H7c1.9 0 3.7-.7 5.1-1.7-1.8 0-3.3-1.2-3.8-2.8.2 0 .5.1.8.1.4 0 .7 0 1.1-.1-1.9-.4-3.3-2-3.3-4v-.1c.5.3 1.2.5 1.8.5-1.1-.7-1.8-2-1.8-3.4 0-.7.2-1.4.6-2 2 2.5 5 4.1 8.4 4.3-.1-.3-.1-.6-.1-.9 0-2.2 1.8-4.1 4.1-4.1 1.2 0 2.2.5 3 1.3.9-.2 1.8-.5 2.6-1-.3 1-1 1.7-1.8 2.3.8-.1 1.6-.3 2.3-.6-.6.6-1.3 1.3-2.1 1.9z"/></svg>