<svg xmlns="http://www.w3.org/2000/svg" viewBox="0 0 140 105" enable-background="new 0 0 140 105"><defs><filter filterUnits="userSpaceOnUse" x="10" y="23.745" width="120" height="57.509"><feFlood result="back" flood-color="#fff" flood-opacity="1"/><feBlend in="SourceGraphic" in2="back"/></filter></defs><g mask="url(#SVGID_1_)"><g opacity=".96"><path d="M77.08 73.59c-.022-.308.05-.585.334-.804.1-.076.18-.17.268-.255.392-.376.778-.76 1.18-1.13.252-.232.71-.24.987-.03.136.104.266.215.392.328.293.26.573.532.874.787.356.3.722.594 1.096.88.258.195.53.38.808.554.46.29.93.574 1.4.853.193.114.4.212.605.307.57.262 1.134.534 1.717.773.442.18.903.336 1.37.47.603.17 1.216.323 1.833.458.438.096.888.163 1.336.215.49.056.983.092 1.475.115 1.27.06 2.535.043 3.787-.17.45-.078.905-.138 1.347-.24.587-.134 1.17-.286 1.743-.458.49-.147.97-.322 1.44-.506.453-.176.892-.377 1.333-.573.178-.08.353-.165.52-.26.492-.288.984-.576 1.468-.874.276-.17.547-.35.8-.543.44-.337.87-.683 1.288-1.04.335-.284.637-.597.97-.885.133-.116.293-.228.468-.29.33-.118.67.004.934.27.38.38.765.756 1.16 1.124.266.246.485.5.456.855-.014.176-.026.352-.048.526-.024.185-.122.345-.27.482-.213.2-.424.404-.642.6-.287.26-.57.523-.873.77-.354.287-.718.568-1.093.837-.482.346-.965.693-1.474 1.01-.487.303-1 .575-1.514.844-.447.233-.903.456-1.37.66-.515.228-1.04.44-1.575.638-.44.163-.892.308-1.35.434-.628.173-1.264.33-1.902.474-.39.088-.787.156-1.185.203-.76.087-1.523.16-2.286.226-.33.028-.662.034-.993.025-.508-.012-1.018-.03-1.524-.075-.757-.065-1.513-.144-2.266-.236-.76-.094-1.5-.268-2.233-.46-.792-.21-1.574-.438-2.326-.736-.36-.143-.723-.28-1.073-.438-.518-.234-1.038-.467-1.536-.73-.56-.295-1.116-.6-1.636-.943-.68-.446-1.348-.912-1.978-1.407-.623-.49-1.194-1.025-1.786-1.543-.1-.088-.198-.18-.28-.28-.185-.22-.183-.473-.165-.69l-.01-.123zM91.366 74.376c-.72-.123-1.43-.267-2.128-.466-.693-.198-1.365-.43-2.003-.73-.488-.23-.982-.457-1.445-.72-.51-.29-.996-.615-1.478-.938-.665-.446-1.243-.97-1.808-1.5-.123-.117-.278-.22-.358-.354-.263-.443-.252-.912-.06-1.367.064-.152.263-.263.397-.395.408-.404.82-.804 1.22-1.214.277-.286.914-.304 1.196-.023.296.296.58.602.903.877.36.305.743.59 1.138.86.3.206.635.374.95.563.533.32 1.115.566 1.715.77.548.19 1.116.35 1.69.466.57.114 1.16.177 1.743.225.647.054 1.298.056 1.943-.052.5-.083 1.002-.154 1.5-.237.687-.116 1.33-.34 1.96-.59.384-.153.764-.32 1.118-.518.48-.268.942-.562 1.397-.86.265-.174.52-.365.75-.57.34-.307.657-.634.983-.952.26-.254.883-.237 1.14.017.465.462.94.917 1.418 1.37.183.172.326.36.327.592 0 .264-.016.532-.07.792-.026.13-.125.267-.233.37-.377.356-.758.712-1.165 1.044-.45.368-.915.728-1.406 1.055-.492.328-1.01.634-1.544.908-.53.27-1.09.508-1.652.728-.456.18-.928.342-1.41.458-.733.176-1.473.34-2.222.445-.695.096-1.407.107-1.853.138-1.064-.03-1.862-.057-2.654-.192zM93.002 67.817c-.534-.054-1.062-.12-1.58-.264-.666-.184-1.294-.426-1.886-.738-.247-.13-.497-.26-.72-.417-.35-.244-.686-.502-1.013-.767-.238-.192-.474-.392-.672-.614-.357-.4-.26-.864-.175-1.314.018-.096.097-.193.175-.27.492-.486.995-.965 1.49-1.45.312-.307.903-.31 1.212.004.082.084.15.177.235.26.5.482 1.084.882 1.773 1.15.557.215 1.15.344 1.772.355.607.012 1.2-.053 1.763-.246.285-.097.574-.197.833-.333.6-.314 1.105-.72 1.534-1.196.268-.298.89-.287 1.176-.004.444.44.895.875 1.355 1.303.266.248.432.518.385.862-.01.075-.04.152-.032.226.03.334-.134.587-.39.832-.6.57-1.253 1.088-2.002 1.512-.712.402-1.485.71-2.307.91-.696.172-1.417.232-2.205.276-.2-.022-.46-.047-.72-.073z"/></g><path d="M14.228 31.288c-.018-.218-.02-.472.164-.69.083-.1.18-.193.28-.28.593-.518 1.164-1.055 1.787-1.544.63-.495 1.297-.96 1.977-1.407.52-.342 1.077-.648 1.636-.943.498-.263 1.02-.496 1.537-.73.35-.158.713-.295 1.073-.438.752-.3 1.534-.527 2.327-.735.734-.192 1.473-.366 2.233-.46.753-.09 1.51-.17 2.266-.235.505-.044 1.014-.063 1.523-.076.33-.01.664-.004.993.024.763.065 1.526.14 2.286.227.4.047.796.116 1.185.204.64.144 1.274.3 1.902.474.457.126.91.27 1.35.434.533.197 1.06.41 1.576.637.466.204.922.427 1.37.66.513.27 1.026.543 1.513.845.508.316.99.664 1.473 1.01.375.27.74.55 1.093.838.302.246.586.51.873.768.217.198.428.4.642.602.147.138.245.297.27.482.022.174.033.35.047.525.028.353-.19.608-.456.854-.396.368-.782.744-1.16 1.125-.265.264-.605.386-.935.268-.175-.062-.336-.174-.47-.29-.332-.288-.634-.6-.97-.886-.417-.356-.848-.7-1.287-1.04-.252-.193-.524-.372-.8-.54-.484-.3-.976-.587-1.47-.874-.165-.096-.34-.182-.518-.26-.44-.197-.88-.398-1.332-.574-.472-.184-.95-.36-1.44-.506-.574-.173-1.158-.325-1.745-.46-.442-.1-.897-.16-1.347-.237-1.25-.213-2.517-.228-3.786-.17-.493.023-.986.06-1.474.115-.45.052-.898.12-1.336.214-.617.133-1.23.286-1.834.458-.466.133-.927.288-1.37.47-.582.238-1.146.51-1.716.772-.206.095-.412.194-.604.307-.472.28-.94.563-1.4.854-.28.176-.55.36-.81.556-.373.285-.74.578-1.095.88-.3.253-.58.525-.874.786-.126.113-.256.224-.392.328-.275.21-.735.202-.988-.03-.4-.37-.787-.754-1.18-1.13-.088-.087-.168-.18-.267-.256-.283-.22-.356-.496-.333-.804.003-.03.004-.058.008-.122zM31.158 30.433c.446.03 1.158.042 1.853.14.75.103 1.49.268 2.222.444.483.116.954.28 1.41.458.564.22 1.122.457 1.653.728.535.274 1.052.58 1.543.907.492.328.955.688 1.406 1.055.407.332.788.688 1.165 1.045.107.102.207.237.233.37.053.26.07.527.07.792-.002.232-.145.42-.328.593-.478.452-.953.907-1.418 1.37-.256.253-.88.27-1.14.016-.326-.318-.642-.644-.984-.95-.23-.206-.484-.397-.75-.57-.454-.3-.915-.593-1.396-.86-.354-.198-.734-.366-1.118-.52-.63-.25-1.273-.473-1.96-.588-.5-.083-1-.154-1.5-.237-.645-.108-1.296-.106-1.943-.052-.584.05-1.172.11-1.742.225-.575.116-1.143.277-1.69.465-.6.206-1.183.452-1.716.77-.316.19-.65.358-.95.563-.395.27-.78.556-1.138.86-.323.275-.608.582-.904.878-.282.28-.92.263-1.197-.024-.397-.41-.81-.81-1.218-1.214-.134-.132-.332-.244-.397-.396-.19-.454-.203-.924.06-1.367.08-.135.235-.237.358-.353.565-.533 1.144-1.056 1.808-1.5.484-.325.97-.648 1.48-.938.462-.264.956-.49 1.444-.72.638-.3 1.31-.533 2.003-.73.698-.2 1.407-.344 2.128-.467.793-.136 1.59-.163 2.653-.192zM30.86 37.112c.788.044 1.51.104 2.205.275.82.202 1.595.508 2.307.91.75.425 1.403.942 2.002 1.513.257.245.42.497.39.83-.007.075.022.15.032.227.048.344-.118.614-.385.862-.46.427-.91.862-1.354 1.302-.285.283-.908.293-1.176-.004-.43-.476-.935-.882-1.534-1.197-.26-.135-.548-.235-.833-.332-.564-.193-1.156-.257-1.763-.247-.622.012-1.215.14-1.772.357-.69.267-1.272.667-1.773 1.15-.085.082-.153.175-.235.26-.31.312-.9.31-1.213.003-.494-.485-.997-.964-1.49-1.45-.077-.077-.156-.174-.174-.27-.084-.45-.182-.913.176-1.314.197-.222.433-.422.67-.615.328-.264.664-.523 1.013-.766.224-.156.474-.287.72-.417.593-.312 1.22-.554 1.887-.738.518-.144 1.045-.21 1.58-.265.26-.028.52-.053.72-.073zM10 38.73c1.1-.264 2.837-.462 4.603-.462 2.52 0 4.14.495 5.356 1.615 1.012.857 1.62 2.175 1.62 3.922 0 2.142-1.245 4.02-3.3 4.878v.066c1.853.526 4.024 2.273 4.024 5.57 0 1.91-.666 3.36-1.65 4.45-1.36 1.416-3.56 2.075-6.745 2.075-1.738 0-3.07-.132-3.91-.264V38.73zm2.52 9.097h2.286c2.663 0 4.227-1.582 4.227-3.725 0-2.604-1.737-3.625-4.285-3.625-1.158 0-1.824.1-2.23.198v7.152zm0 10.645c.49.1 1.215.132 2.112.132 2.605 0 5.008-1.088 5.008-4.318 0-3.032-2.287-4.285-5.037-4.285H12.52v8.472zM38.4 52.54c0 5.9-3.59 8.47-6.977 8.47-3.792 0-6.716-3.163-6.716-8.206 0-5.34 3.07-8.47 6.948-8.47 4.024 0 6.745 3.328 6.745 8.206zm-11.117.165c0 3.494 1.766 6.13 4.255 6.13 2.432 0 4.256-2.603 4.256-6.195 0-2.703-1.187-6.13-4.198-6.13-3.01-.002-4.313 3.162-4.313 6.195zM53.715 37.246v19.28c0 1.418.03 3.033.116 4.12h-2.286l-.116-2.768h-.058c-.782 1.78-2.49 3.13-4.777 3.13-3.387 0-5.992-3.262-5.992-8.107-.028-5.306 2.867-8.57 6.283-8.57 2.142 0 3.59 1.154 4.227 2.44h.058v-9.525h2.547zm-2.548 13.942c0-.363-.03-.857-.116-1.22-.376-1.846-1.765-3.362-3.676-3.362-2.635 0-4.198 2.637-4.198 6.164 0 3.23 1.39 5.9 4.14 5.9 1.708 0 3.27-1.285 3.735-3.46.088-.397.117-.792.117-1.254v-2.768zM65.7 60.648l-.202-2.01h-.087c-.78 1.252-2.286 2.372-4.284 2.372-2.837 0-4.285-2.274-4.285-4.58 0-3.857 3.012-5.967 8.425-5.934v-.33c0-1.32-.318-3.692-3.184-3.692-1.302 0-2.662.46-3.647 1.186l-.58-1.912c1.16-.857 2.838-1.417 4.604-1.417 4.284 0 5.327 3.33 5.327 6.527v5.966c0 1.384.058 2.736.232 3.823H65.7zm-.375-8.14c-2.78-.067-5.935.493-5.935 3.592 0 1.88 1.1 2.77 2.403 2.77 1.824 0 2.982-1.32 3.387-2.67.087-.298.145-.627.145-.924v-2.77zM71.984 38.73c1.1-.264 2.837-.462 4.603-.462 2.52 0 4.14.495 5.356 1.615 1.013.857 1.62 2.175 1.62 3.922 0 2.142-1.244 4.02-3.3 4.878v.066c1.854.526 4.025 2.273 4.025 5.57 0 1.91-.666 3.36-1.65 4.45-1.36 1.416-3.56 2.075-6.745 2.075-1.737 0-3.068-.132-3.908-.264V38.73zm2.518 9.097h2.287c2.662 0 4.226-1.582 4.226-3.725 0-2.604-1.737-3.625-4.285-3.625-1.157 0-1.823.1-2.228.198v7.152zm0 10.645c.492.1 1.216.132 2.113.132 2.605 0 5.008-1.088 5.008-4.318 0-3.032-2.287-4.285-5.037-4.285h-2.084v8.472zM100.383 52.54c0 5.9-3.59 8.47-6.977 8.47-3.792 0-6.716-3.163-6.716-8.206 0-5.34 3.07-8.47 6.948-8.47 4.024 0 6.745 3.328 6.745 8.206zm-11.116.165c0 3.494 1.766 6.13 4.255 6.13 2.432 0 4.256-2.603 4.256-6.195 0-2.703-1.187-6.13-4.198-6.13-3.01-.002-4.313 3.162-4.313 6.195zM115.698 37.246v19.28c0 1.418.03 3.033.116 4.12h-2.287l-.116-2.768h-.057c-.782 1.78-2.49 3.13-4.777 3.13-3.387 0-5.992-3.262-5.992-8.107-.03-5.306 2.866-8.57 6.282-8.57 2.142 0 3.59 1.154 4.227 2.44h.058v-9.525h2.548zm-2.547 13.942c0-.363-.028-.857-.115-1.22-.377-1.846-1.766-3.362-3.677-3.362-2.635 0-4.198 2.637-4.198 6.164 0 3.23 1.39 5.9 4.14 5.9 1.708 0 3.27-1.285 3.735-3.46.087-.397.116-.792.116-1.254v-2.768zM127.684 60.648l-.203-2.01h-.086c-.782 1.252-2.287 2.372-4.285 2.372-2.838 0-4.286-2.274-4.286-4.58 0-3.857 3.01-5.967 8.424-5.934v-.33c0-1.32-.318-3.692-3.184-3.692-1.303 0-2.663.46-3.648 1.186l-.58-1.912c1.16-.857 2.838-1.417 4.604-1.417 4.284 0 5.327 3.33 5.327 6.527v5.966c0 1.384.058 2.736.232 3.823h-2.316zm-.376-8.14c-2.78-.067-5.935.493-5.935 3.592 0 1.88 1.1 2.77 2.403 2.77 1.824 0 2.982-1.32 3.387-2.67.087-.298.145-.627.145-.924v-2.77z"/></g></svg>