<svg xmlns="http://www.w3.org/2000/svg" viewBox="0 0 140 105" enable-background="new 0 0 140 105"><g fill="#4C2A19"><path d="M22.253 41.534c.01-.06.014-.118.01-.177l-.072-.924.064-.334c.017-.093.015-.185-.004-.27.025-.113.02-.233-.015-.347l-.05-.155v-.103c0-.17-.063-.33-.17-.45.004-.115-.02-.228-.072-.33.047-.123.058-.258.03-.39-.045-.196-.175-.363-.355-.454-.025-.012-.042-.022-.054-.03l-.086-.127-.008-.012c-.09-.127-.303-.342-.722-.342-.98 0-1.252.633-1.324.905l-.004.016-.237 1.003c-.042.177-.01.364.088.517.026.04.055.076.088.11.01.06.027.118.053.174l.177.382v.734c0 .08.014.158.04.233l.227.614-.093.31c-.047.16-.033.332.036.48-.065.138-.08.294-.045.444l.108.445-.075.183c-.022.054-.038.11-.045.17l-.198 1.528c-.01.08-.006.164.013.244l.025.103-.062.136c-.044.097-.064.2-.06.3-.02.032-.037.065-.052.1-.064.147-.07.312-.023.464-.02.064-.03.13-.03.202l-.022.233c-.148.122-.242.308-.242.516v.29l-.084.243c-.086.055-.173.133-.256.236-.085.105-.135.233-.146.365-.147.146-.216.347-.198.543-.025.045-.044.094-.058.144-.152.077-.272.21-.33.38l-.096.277-.12.046c-.183.072-.327.222-.39.41l-.028.078-.162.1c-.047.028-.09.062-.13.1-.046.02-.09.045-.132.074-.04.027-.078.046-.12.057-.043.01-.085.024-.124.043l-.14.066h-.033c-.16 0-.315.056-.436.16h-.106c-.202 0-.39.09-.518.243h-.775c-.018 0-.035 0-.053.002l-.47.037c-.336.024-.67.036-.994.036-.04 0-.08.004-.118.01l-.106.02c-.056.01-.11.026-.16.048l-.365-.068c-.094-.018-.19-.014-.282.01l-.058.01c-.015-.004-.03-.01-.047-.012l-.383-.094c-.077-.02-.156-.024-.234-.015l-.746.083c-.26.03-.48.207-.564.457-.032.097-.064.193-.094.29-.058.18-.037.375.057.54.093.163.25.28.435.32l.587.133c.058.013.118.018.178.016l.104-.005.013.015c.13.137.308.207.486.207.123 0 .247-.034.358-.103l.112-.07.036.007c.07.015.142.02.213.012l.512-.056.698.155c.11.024.226.02.335-.012l.802-.236.73.064c.137.012.274-.018.392-.085l.042-.024h.06c.13 0 .26-.04.37-.112l.008-.005.036.002c.124.01.25-.017.36-.075l.45-.235c.05-.005.1-.015.148-.03l.17-.057c.034-.01.066-.025.097-.04l1.136-.582c.087-.044.163-.106.222-.183l.568-.722c.02-.026.04-.055.056-.084l.09-.037c.207-.084.356-.265.404-.478.067-.063.12-.14.16-.226l.015-.04.136-.138c.063-.064.112-.14.145-.22.102-.098.17-.225.197-.362.117-.124.183-.29.183-.462 0-.024 0-.047.002-.07.134-.116.218-.28.233-.457v-.017c.13-.127.2-.3.2-.478v-.314l.01-.113c.255-.134.4-.42.35-.71-.023-.135-.086-.255-.175-.348v-.015c0-.042-.004-.083-.012-.125l-.065-.345c.005-.033.015-.042.024-.05.177-.15.258-.374.232-.59.065-.12.095-.263.078-.406l-.018-.147.02-.24c.002-.03.003-.06.002-.09.17-.15.253-.38.217-.607l-.02-.11c.052-.122.067-.256.042-.386l-.084-.446.06-.36c.01-.066.012-.132.003-.198l-.003-.033c.077-.1.126-.22.14-.347.016-.168-.03-.336-.132-.47l.018-.096zM38.732 46.58c.285-.003.556-.07.808-.2l.29.043c.186.027.374-.025.52-.143l.163-.132.05.018c.16.055.337.047.492-.022.358-.158.572-.487.572-.88 0-.183-.075-.36-.208-.486-.134-.127-.313-.193-.496-.185l-.352.016c-.3-.17-.448-.22-.62-.22-.266 0-.466.144-.645.296-.013.003-.037.007-.078.007-.03 0-.11-.005-.27-.05-.06-.017-.122-.026-.184-.026H38.2c-.047 0-.094.005-.14.015l-.32.067c-.032-.034-.088-.102-.157-.23.027-.09.04-.18.04-.266 0-.04-.002-.077-.01-.116l-.05-.296v-.334c0-.16-.057-.314-.16-.437l-.015-.015c.016-.16-.026-.324-.124-.458l-.247-.343-.032-.36c-.003-.038-.01-.075-.02-.112l-.22-.834c-.015-.054-.036-.106-.063-.155l-.288-.517-.16-.632-.045-.514c-.022-.24-.17-.45-.385-.55-.05-.095-.103-.18-.16-.258l-.032-.434c-.017-.233-.155-.44-.363-.548l-.406-.21-.024-.014-.12-.187c-.125-.195-.342-.31-.573-.308-.224.002-.43.116-.553.302-.293.102-.57.33-.826.68-.14.19-.17.438-.08.655-.077.09-.13.202-.15.32-.02.125-.065.164-.08.177-.22.196-.284.26-.315.292-.1.103-.165.236-.184.38-.104.11-.17.26-.178.42-.08.09-.136.2-.16.32-.135.057-.25.156-.325.286-.038.065-.064.135-.078.207l-.134.28c-.152.082-.267.218-.322.38-.26.097-.44.346-.44.632v.05c0 .002-.01.16-.372.48-.144.13-.227.312-.227.505v.004c-.11.072-.197.174-.25.297-.207.074-.368.245-.426.463-.02.072-.027.146-.022.218-.01.024-.02.047-.028.07-.27.184-.56.394-.604.74l-.123.08-.336-.037c-.19-.02-.38.04-.522.168-.114.103-.19.24-.214.39l-.27.25c-.198.183-.268.465-.178.72.05.136.112.26.19.373l-.56.893-.142.058c-.198.08-.346.25-.4.456-.092.362-.255.607-.496.75-.167.098-.284.265-.32.455l-.005.023c-.005.004-.033.025-.11.046-.243.065-.43.263-.482.51-.027.13-.07.15-.113.168-.023.01-.045.02-.067.034l-.192.11-.322.046c-.213.03-.4.16-.5.35-.062.114-.088.242-.078.368-.065.106-.1.228-.1.353v.228l-.043.1c-.077.18-.073.383.01.558.085.175.24.305.428.358l.503.14c.184.05.382.02.543-.083l.65-.417c.087-.056.16-.132.214-.222l.442-.746c.1-.046.186-.117.253-.206l.614-.823.013-.01c.233-.075.406-.308 1.253-1.65l.142-.035c.165-.04.31-.144.402-.287.33-.512.554-.785.69-.928l.005.002c.08.03.16.046.243.046l.005.006c.194.215.504.282.77.165l.275-.122h.027l.036.03c.213.17.507.195.745.065.18.057.376.037.542-.06.034-.02.067-.042.097-.067l.143-.01.353.078c.18.04.37.004.525-.1l.257-.174h.195l.292.022c.163.013.325-.01.478-.047.035.018.072.033.11.044.16.048.33.037.48-.032.167.03.344-.002.494-.1l.11-.075.23.047c.062.012.124.016.186.01.145.234.207.35.232.4l.076.573c.015.115.06.224.13.317l.118.157.493 1.218c.03.074.073.142.126.2l.22.242.01.167c.01.173.087.336.215.454l.018.016c.01.164.08.318.197.434.18.18.356.442.518.777.065.13.17.238.298.304l.057.03.134.254c.115.22.345.36.594.36l.154.116c.12.096.268.15.42.15l.225.176c.124.1.274.15.424.15.144 0 .288-.045.41-.138l.33-.252c.167-.128.265-.326.264-.537 0-.21-.1-.41-.267-.536l-.04-.03-.1-.24c-.06-.14-.17-.258-.306-.33l-.258-.137c-.104-.18-.26-.394-.482-.663l-.546-.96c-.032-.056-.07-.106-.118-.15l-.106-.104.002-.01c.04-.178.007-.366-.095-.52l-.465-.703-.04-.314c-.014-.1-.05-.194-.103-.278l-.227-.35-.044-.528c.18.025.37-.023.516-.136zm-6.327-1.563c-.166-.055-.28-.084-.4-.084-.124 0-.23.022-.316.055-.05.01-.086.014-.108.017l-.032-.01c-.018-.007-.036-.012-.055-.018l-.473-.12c.043-.06.076-.126.097-.198l.145-.49c.36-.224.62-.615.775-1.17l.255-.136c.172-.09.296-.252.34-.44l.057-.24c.442-.463.526-.596.575-.698l.128-.252.575-.848c.01.006.017.012.023.017l.146.237c.006.012.014.024.023.035.008.012.015.02.02.03l.042.474c.01.12.052.23.116.32l.023.05.122.253.036.305c.012.098.046.192.098.276l.223.36.084.83c.016.157.086.302.195.41-.02.207.055.412.205.554-.05.098-.075.205-.074.314-.13-.016-.31-.04-.562-.078-.064-.01-.13-.01-.194 0l-.774.11-.958.074c-.033.002-.066.008-.098.015l-.225.052c-.012 0-.023-.004-.035-.008zM56.788 41.564c.073-.075.127-.166.158-.266l.135-.427.183-.23c.067-.086.112-.186.132-.292l.073-.39c.024-.13.02-.273-.02-.528-.045-.28-.176-.506-.367-.655-.196-.298-.498-.41-.75-.41h-.066l-.027-.01c-.208-.088-.446-.066-.634.058-.104.07-.186.165-.237.274-.03.02-.078.052-.15.092-.198.11-.327.315-.342.543-.01.176-.025.26-.032.29l-.116.232c-.03.056-.05.117-.06.178l-.1.518c-.005.03-.01.063-.01.093 0 .002-.002.003-.004.004-.075.072-.132.16-.166.26l-.1.287-.106.116c-.113.124-.176.285-.176.453v.124l-.034.145-.014.014c-.118.112-.188.26-.205.416-.112.138-.184.27-.223.408-.01.04-.02.083-.022.124-.078.132-.143.3-.204.513-.027.1-.05.163-.062.198-.052.04-.097.087-.136.14-.138.193-.32.4-.545.616-.04.04-.075.083-.105.13l-.263.426-.224.287c-.043.056-.077.118-.1.184l-.114.315-.14.152-.02.023c-.103.122-.205.303-.328.587l-.062.14c-.145.062-.266.176-.337.323-.036.074-.06.113-.07.13-.104.107-.196.253-.3.476-.054.11-.11.21-.172.29-.056.072-.116.134-.177.183-.04.03-.075.067-.107.106l-.312.387-.24.194c-.016.014-.032.028-.047.044-.067.067-.128.13-.185.19-.083-.142-.15-.3-.2-.473l-.005-.013-.306-.96c-.017-.052-.04-.103-.07-.15l-.065-.106.012-.085c.023-.154-.01-.312-.09-.447l-.377-.622-.122-.47c-.008-.033-.018-.063-.03-.093l-.16-.38c-.03-.072-.073-.138-.127-.196-.043-.046-.104-.127-.127-.297-.054-.384-.222-.73-.5-1.03l-.215-.366-.016-.103c-.014-.078-.04-.153-.08-.223l-.367-.653-.013-.157c-.014-.168-.09-.325-.214-.44l-.09-.082-.048-.178c-.035-.132-.11-.25-.213-.338-.234-.2-.29-.282-.286-.277-.045-.085-.146-.266-.51-.853-.03-.05-.068-.096-.11-.137l-.18-.167-.25-.52c-.08-.162-.218-.283-.383-.34-.033-.037-.07-.07-.112-.098-.218-.15-.506-.22-.907-.22-.07 0-.142.013-.21.035l-.23.076c-.177.06-.322.186-.4.354-.164.346-.236.602-.236.83 0 .018 0 .037.002.055l.024.29c.01.12.053.238.125.337.345.477.68.808 1.028 1.01.017.01.035.018.052.026l.223.408.012.022.404.682c.038.062.084.118.138.165l.12.103.257.583c.06.132.158.242.284.313l.146.082.19.616c.017.055.04.108.072.157l.646 1.037.572 1.12.35.89.02.405c.005.102.033.2.082.29l.24.443.262.77c.083.257.263.59.565 1.04l.217.57c.01.028.023.054.037.08.04.078.12.217.233.417.095.167.175.33.237.483.253.624.734.69.93.69.352 0 .575-.14.705-.264.138-.133.242-.323.358-.654.03-.092.044-.19.034-.286l-.065-.682c.105-.19.18-.36.227-.52l.347-.29c.06-.05.11-.11.15-.178l.38-.658.844-1.103c.01-.01.017-.022.025-.032l.236-.35.136-.12c.054-.05.1-.106.135-.17l.28-.495.443-.55c.04-.05.073-.106.098-.165l.312-.753.523-.584c.05-.055.09-.117.118-.184l.038-.064c.017-.027.05-.073.118-.14.1-.098.202-.203.307-.316.176-.19.29-.418.33-.666l.007-.006c.303-.22.507-.553.588-.962.005-.026.01-.053.012-.08.017-.22.07-.305.093-.33.03-.034.056-.07.077-.11l.252-.443.194-.2zM74.632 52.028l-.04-.03-.1-.24c-.06-.14-.168-.26-.305-.33l-.258-.137c-.104-.18-.26-.393-.482-.663l-.546-.96c-.032-.055-.07-.105-.118-.15l-.106-.103.002-.01c.04-.178.007-.366-.095-.52l-.465-.703-.04-.313c-.014-.1-.05-.194-.103-.278l-.227-.352-.044-.527c.185.03.373-.017.52-.13.286-.004.557-.07.81-.2l.29.042c.185.026.373-.025.518-.143l.163-.133.05.018c.162.055.337.047.493-.02.358-.16.572-.49.572-.88 0-.185-.076-.36-.208-.488-.133-.127-.312-.194-.495-.185l-.354.016c-.296-.167-.45-.22-.62-.22-.266 0-.465.145-.645.297-.012.003-.036.007-.077.007-.027 0-.108-.005-.27-.05-.06-.017-.12-.026-.183-.026h-.575c-.047 0-.094.005-.14.015l-.318.068c-.033-.034-.09-.1-.158-.23.026-.09.04-.177.04-.265 0-.038-.004-.077-.01-.115l-.05-.297v-.333c0-.16-.058-.314-.162-.437l-.013-.016c.016-.16-.027-.324-.124-.458l-.246-.343-.033-.36c-.002-.038-.01-.075-.018-.112l-.22-.833c-.015-.054-.036-.106-.063-.155l-.29-.517-.16-.632-.044-.514c-.02-.24-.168-.45-.383-.552-.05-.095-.103-.18-.16-.257l-.032-.434c-.016-.233-.154-.44-.362-.548l-.406-.21c-.01-.004-.017-.008-.024-.013l-.12-.188c-.126-.194-.342-.313-.574-.307-.223.002-.43.117-.553.302-.292.102-.568.33-.825.68-.14.19-.17.438-.08.655-.077.09-.13.203-.15.322-.022.123-.065.162-.08.175-.22.197-.282.257-.316.292-.1.104-.165.237-.184.38-.103.112-.17.26-.176.42-.08.09-.136.2-.16.32-.136.057-.25.156-.325.285-.038.065-.064.136-.078.208l-.133.28c-.15.082-.267.218-.322.38-.26.097-.44.346-.44.632v.05c0 .002-.01.16-.373.48-.146.13-.228.312-.228.505v.005c-.11.07-.198.174-.25.296-.206.073-.367.244-.425.462-.02.072-.026.146-.02.217l-.03.07c-.27.183-.56.393-.603.74l-.123.08-.335-.038c-.19-.022-.38.04-.523.167-.114.102-.19.24-.214.388l-.272.25c-.197.184-.267.466-.177.72.047.137.11.262.187.374l-.56.892-.14.058c-.2.08-.347.25-.4.456-.093.362-.256.607-.497.75-.167.098-.284.264-.32.455-.002.016-.005.023-.005.025-.004.003-.032.025-.11.046-.243.067-.43.264-.482.512-.027.128-.07.147-.113.166-.023.01-.045.02-.067.034l-.192.11-.322.046c-.213.03-.4.16-.5.35-.062.114-.088.242-.078.368-.065.106-.1.228-.1.353v.227l-.043.1c-.077.178-.073.382.01.557.085.175.24.305.428.358l.502.14c.184.05.382.02.543-.083l.65-.418c.087-.056.16-.132.214-.223l.442-.746c.1-.046.186-.117.253-.206l.613-.823.007-.004c.23-.064.385-.27 1.26-1.652l.142-.036c.166-.04.31-.144.402-.287.33-.512.554-.785.69-.928l.004.002c.08.03.162.045.244.045l.005.006c.194.216.504.282.77.166l.274-.12h.027l.033.027c.212.17.506.196.744.066.18.056.376.036.542-.06.035-.02.067-.043.097-.068l.142-.01.354.078c.18.04.37.004.522-.1l.258-.174h.195l.292.022c.164.013.326-.01.48-.047.035.02.072.034.11.045.16.05.33.038.478-.03.168.03.345-.003.495-.102l.11-.074.23.046c.06.012.124.016.186.01.145.234.207.35.232.4l.076.573c.015.114.06.223.13.315l.118.157.493 1.22c.03.073.073.14.126.2l.22.24.01.168c.01.173.09.336.216.454l.018.017c.01.165.08.32.197.435.182.18.357.442.52.777.062.13.166.238.295.304l.057.03.134.255c.117.222.346.36.595.36l.155.117c.12.096.268.15.422.15l.224.176c.124.1.275.15.426.15.144 0 .287-.045.408-.138l.33-.252c.168-.127.265-.326.265-.536 0-.214-.1-.412-.268-.54zm-8.733-7.01c-.167-.056-.28-.085-.402-.085-.125 0-.23.022-.316.055-.05.01-.085.014-.106.017-.01-.002-.02-.006-.032-.01l-.056-.018-.473-.12c.043-.06.076-.126.097-.198l.145-.49c.36-.224.62-.616.775-1.17l.255-.135c.172-.09.296-.252.34-.44l.057-.238c.44-.462.525-.595.575-.7l.127-.25.575-.85.023.018.146.236c.01.013.017.026.025.038l.02.028.042.474c.01.12.053.23.117.324l.02.05.123.25.036.304c.01.098.044.193.096.277l.223.36.082.83c.016.157.087.302.196.41-.02.207.057.412.207.554-.05.097-.076.204-.074.313-.13-.016-.312-.04-.563-.078-.064-.01-.13-.01-.194 0l-.774.11-.958.074c-.033 0-.066.007-.098.014l-.225.052-.03-.01zM97.095 47.732c-.2-.196-.448-.3-.715-.3-.596 0-.928.58-1.055.82l-.124.18c-.057.086-.095.183-.11.285l-.108.747-.274.586-.157.132c-.07.06-.128.135-.17.218-.05.037-.18.116-.46.23l-.876.086-.19-.087c-.078-.037-.164-.058-.25-.062l-1.02-.047-.523-.153c-.058-.017-.118-.027-.18-.028l-1.55-.024c-.215-.16-.5-.255-.887-.296-.275-.028-.535-.06-.772-.092-.04-.006-.084-.007-.127-.006-.178-.11-.398-.133-.594-.06l-.196-.06c-.102-.033-.21-.04-.317-.023h-.013c-.308-.183-.675-.276-1.097-.276-.095 0-.218.008-.38.024-.028-.042-.057-.08-.088-.118-.22-.254-.59-.31-.873-.13l-.14.09c-.057-.01-.144-.03-.27-.077-.12-.044-.25-.053-.375-.027-.117-.134-.283-.217-.462-.228l-1.15-.076c-.022 0-.042-.002-.062 0l-.126.002.5-.315c.08-.05.146-.114.198-.19l.544-.795.407-.187c.036-.016.07-.035.1-.057l.332-.227c.1-.068.177-.16.227-.267l.156-.053c.336-.113.443-.39.62-.85.03-.074.06-.115.085-.137h.257c.258 0 .493-.148.606-.38.035-.072.106-.178.316-.26.172-.07.31-.207.377-.38l.023-.057c.15-.072.286-.17.382-.32.04-.06.083-.137.132-.236.046-.034.155-.108.383-.225.178-.093.303-.26.347-.45.038-.043.07-.09.094-.143l.028-.012c.17-.077.312-.19.416-.33.126-.076.225-.193.28-.333l.144-.095c.112-.073.2-.18.25-.304l.036-.083h.006c.23-.03.428-.176.525-.387.014-.03.106-.208.538-.718.016-.018.03-.036.043-.055l.085-.124.414-.313c.027-.02.054-.044.078-.07l.408-.42.208-.116c.144-.08.25-.21.305-.36.103-.036.196-.098.27-.18.025-.027.044-.046.056-.056l.518-.173c.16-.054.292-.165.374-.31l.098-.178c.073-.132.1-.283.077-.432-.07-.45-.26-.835-.56-1.146-.088-.09-.198-.153-.32-.184-.197-.05-.324-.07-.434-.07-.154 0-.332.052-.48.183-.093.04-.182.095-.27.163l-.023-.002h-.183c-.035 0-.07 0-.103.007l-.56.087-.597-.066c-.056-.006-.113-.005-.17.002l-.457.066-.335-.02h-.04c-.138 0-.324.01-.567.033l-.018-.01c-.138-.072-.297-.093-.45-.06l-.284.06c-.62-.002-1.086-.032-1.38-.088-.204-.04-.408.017-.56.146-.022-.007-.045-.015-.07-.027-.114-.048-.237-.065-.355-.05-.073-.032-.153-.05-.236-.055l-.527-.025c-.122-.007-.243.022-.35.08l-.095.05-1.062-.127c-.08-.01-.164-.004-.244.016l-.378.094-.022-.01c-.097-.042-.203-.06-.31-.054l-.798.05c-.278 0-.424-.012-.498-.02-.137-.018-.276.008-.4.073l-.33.177c-.227.122-.364.36-.355.618.054 1.42.73 1.633 1.126 1.633h.074c.09 0 .18-.017.264-.053l.09-.04.215.09c.214.092.456.064.642-.064.142.083.31.11.47.08.094.043.195.064.3.064.1 0 .246-.02.39-.11l.03.014c.166.084.357.094.53.033.15.054.318.053.473-.008l.408-.162c.187.02.41.032.678.032.254 0 .44-.01.58-.03l.037-.002c.117.136.284.22.463.232.187.013.37-.052.506-.18l.052-.05c.02.003.043.004.064.004h.404c.033 0 .066-.003.1-.008l.008-.002.065.023c.098.034.205.045.31.03l.232-.032c.138.107.313.157.487.136l.054-.007c-.13.156-.2.223-.226.246-.156.083-.274.223-.327.393l-.075.242-.33.22c-.078.053-.143.12-.193.197l-.306.477c-.136.042-.254.126-.338.238-.047.017-.092.04-.135.068-.124.08-.216.198-.265.333-.068.058-.128.122-.178.19-.16.03-.352.108-.532.295-.05.053-.09.112-.12.175-.133.076-.236.195-.29.34l-.033.083-.094.07-.118.02c-.168.03-.32.12-.423.257l-.346.456c-.22.062-.457.232-.85.595-.117.11-.192.256-.21.415l-.007.057-.16.08c-.214.112-.373.23-.487.368-.01.01-.017.02-.025.03l-.245.33c-.245.03-.45.194-.538.416-.132.07-.268.18-.39.35h-.038c-.267 0-.502.156-.61.39-.033.022-.064.05-.092.077-.057.058-.092.104-.29.424-.027.042-.05.075-.07.103-.224.036-.416.183-.508.392-.092.05-.18.11-.266.18-.262.1-.563.322-.99.724l-.57.216c-.145.055-.265.157-.34.287-.033.02-.09.05-.184.088-.16.068-.29.195-.358.355l-.098.227c-.036.084-.055.175-.055.267v.315c0 .15.05.296.143.415.12.152.158.23.166.25.068.305.34.525.656.525h.145l.114.04c.23.078.485.026.667-.136l.48-.43.49-.062c.162-.02.31-.1.42-.22v-.002c.06 0 .12-.008.176-.024.12.033.25.032.373-.006.042.013.085.022.128.026.26.026.366.048.402.057l.24.11c.23.107.495.075.69-.074.098.018.198.013.293-.012l.057-.015c.117.04.245.048.37.02l.81.21c.056.014.113.02.17.02h.31l.958.127.23.147c.123.08.27.116.416.105l.327-.028c.167.13.387.176.593.118.147-.04.254-.067.33-.084.035.017.072.032.11.043l.82.24c.155.044.32.032.467-.034l.195.082c.064.028.132.045.202.05l.926.085.21.165c.187.148.434.184.65.103.16.11.357.146.546.098.062-.016.12-.04.175-.072l.372.178c.096.047.204.07.312.066l.735-.025c.04 0 .075 0 .102.003.02.015.043.028.066.042.196.107.433.11.63.006.01-.005.02-.01.03-.013l.032.026c.123.1.274.15.425.15.107 0 .215-.025.314-.077.097.02.2.02.298-.005.09-.022.172-.06.244-.114l.056-.01.05.032c.175.116.395.143.594.074.187-.066.334-.21.405-.393.02-.01.058-.026.124-.042.208-.048.382-.194.466-.392.15-.057.273-.164.35-.304.06-.107.115-.255.194-.513.034-.11.066-.143.066-.143.08-.07.143-.16.182-.26l.392-1.01.015-.043.257-.82c.015-.047.024-.095.028-.143l.05-.568v-.06c-.002-.333-.23-.555-.315-.638zM111.262 37.498l-.028-.017c-.125-.077-.272-.11-.42-.097l-.533.05c-.154-.097-.344-.13-.525-.082l-.075.02-.244-.1c-.158-.067-.33-.07-.486-.014-.084-.03-.173-.043-.262-.038-.096-.068-.21-.113-.332-.124-.176-.017-.348.037-.48.143l-.035-.015c-.105-.046-.22-.064-.335-.053l-2.354.235-.427-.024c-.172-.01-.336.013-.486.05-.17-.048-.357-.026-.515.065-.11.063-.168.082-.185.087-.046.002-.093.008-.137.02l-.4.095-.042-.006c-.033-.004-.065-.007-.1-.007-.204 0-.406.034-.602.1-.093-.057-.2-.092-.312-.1l-.832-.05c-.253-.016-.492.115-.62.335-.025.042-.045.087-.06.133h-.034c-.145 0-.268.03-.753.225-.098.04-.184.1-.254.178-.065.038-.123.085-.173.143-.34.388-.497.725-.497 1.06 0 .274.11.532.314.73.2.195.447.297.713.297h.053c.02 0 .04 0 .062-.003l.02-.002-.052.195-.27.753c-.05.132-.054.276-.015.41l.06.214v.64c0 .045.004.09.013.134-.1.103-.174.228-.214.367-.232.165-.46.485-.46 1.103 0 .193.02.475.21.696.006.008.05.06.254.325l.156.938c-.144.184-.183.43-.1.65l.11.302-.038.17c-.012.05-.018.1-.018.152 0 .123 0 .212.395 1.405.264.8.526 1.376.8 1.763.292.413.634.727 1.024.94l1.028.542.065.03.6.24c.08.03.165.047.25.047.098 0 .196-.02.286-.064l.623-.293.447.1c.21.047.428-.008.59-.15.076-.015.15-.043.216-.084.267.072.552-.027.717-.252l.16-.217.982-.42c.086-.037.164-.092.228-.16l.09-.097c.135-.02.263-.085.364-.182l.366-.356.572-.405c.15-.1.32-.278.64-.762l.048-.01c.152-.038.285-.127.378-.252l.857-1.15c.13-.174.168-.4.1-.608-.155-.48-.518-.77-.97-.77h-.073c-.298 0-.555.196-.642.47-.164.07-.295.202-.362.368-.136.093-.235.234-.275.398-.017.068-.056.23-.445.346-.096.03-.185.08-.26.147l-.454.412-.1.008c-.144.01-.28.068-.39.163-.168.145-.312.3-.432.458l-.26.212c-.013.008-.03.017-.053.024l-.27.075c-.062.018-.12.044-.172.077h-.05c-.132 0-.26.04-.37.112-.16.104-.253.16-.305.19h-.426c-.188 0-.365.08-.49.215-.05.01-.086.017-.11.02l-.366-.06c-.036-.006-.073-.01-.11-.01-.206 0-.57-.095-1.145-.54l-.39-.622c-.01-.016-.022-.032-.033-.046-.008-.148-.065-.29-.165-.405l-.09-.102c-.07-.496-.11-.66-.174-.778l.013-.246c.005-.094-.01-.188-.044-.276l-.034-.09c.05-.117.067-.25.044-.378l-.197-1.133c.08-.02.15-.038.214-.057.095.036.2.05.302.04l.906-.087c.052-.005.104-.017.154-.034l.282-.098c.223-.067.303-.068.306-.068h.013l.02.006.404.1c.183.047.378.014.535-.09l.026-.018.134.064c.206.097.443.083.633-.03.174.042.358.012.508-.08.21.057.436.005.603-.13l.822-.022.172.05c.177.05.367.024.526-.07l.177-.106c.122.02.248.01.364-.037l.17-.067.39.036c.126.01.252-.013.365-.07l.458-.232.078.02c.213.06.334.083.446.083.234 0 .512-.07.9-.225.204-.082.354-.258.404-.472l.073-.316c.054-.226-.014-.463-.178-.627-.163-.164-.4-.233-.627-.18l-.127.03-.124-.05c-.124-.05-.26-.062-.39-.033l-.12.026-.458-.06c-.03-.004-.06-.006-.088-.006-.295 0-.515.09-.67.22l-.13.028-.764-.045c-.034 0-.068 0-.103.002l-.215.02c-.056-.007-.212-.03-.615-.11-.172-.036-.346 0-.488.088l-.222-.04c-.09-.018-.182-.015-.272.005l-.33.076-.032.008c-.008.002-.082.022-.31.04-.018.003-.035.003-.05.003-.032 0-.076-.003-.104-.018-.2-.104-.44-.1-.638.01-.056.033-.098.053-.126.066l-.082-.024c-.11-.032-.226-.035-.337-.01l-.27.064-.134-.013c-.087-.008-.175 0-.26.025l-.047.014-.187-.067c-.16-.057-.336-.05-.492.017l-.223.097c-.03-.006-.066-.014-.108-.026-.27-.075-.545-.075-.81.003l-.096.026c.015-.074.047-.178.11-.316.04-.088.06-.182.06-.275.094-.185.1-.405.01-.595l.014-.326c0-.037 0-.073-.004-.11l-.02-.172c0-.05.003-.09.006-.12.19-.16.282-.418.218-.675l-.06-.24.007-.013h.024c.168.01.336-.044.467-.153l.08-.067c.158.04.33.02.478-.058.276-.148.41-.19.455-.2.14-.034.328-.08.56-.14h.37c.12 0 .24-.032.344-.093l.14-.084.286.094c.148.05.306.044.45-.01.227.087.487.044.676-.118.102-.088.197-.142.263-.152.002.003.007.005.013.01.18.14.42.177.634.102.067-.024.13-.058.183-.1l.054.007c.17.02.31.03.42.03.194 0 .423-.06.74-.19.11-.046.178-.068.218-.08.197.116.44.122.64.02.22.097.454.097.556.097.014 0 .028 0 .042-.002l.263-.016.21.076c.205.075.434.047.613-.077l.012-.01h.06c.2 0 .388-.087.516-.238.132-.156.222-.357.268-.597.02-.103.015-.21-.013-.31-.12-.438-.56-.57-1.008-.677zM129.92 40.425l-.18-.334.075-.213c.025-.07.037-.146.037-.22 0-.214-.09-.4-.225-.617-.005-.008-.02-.032-.02-.09 0-.057.01-.154.05-.302.062-.226.002-.47-.16-.64-.14-.15-.34-.225-.54-.21-.042-.028-.087-.052-.135-.07-.177-.068-.374-.058-.543.026l-.38.19c-.238.12-.38.362-.373.618-.135.192-.158.435-.072.644l-.238.737c-.073.227-.02.477.14.655l.086.098-.204 1.537c-.01.058-.01.117-.002.175l.105.812-.245.88c-.05.175-.025.365.07.522.103.175.145.264.16.3v.01l-.15.236c-.06.097-.097.207-.104.32L127 46.703c-.006.115.017.23.066.33l-.177.392c-.034.073-.054.152-.06.232l-.007.1c-.093-.064-.223-.17-.393-.346-.08-.082-.18-.143-.29-.176l-.596-.18-.64-.375c-.04-.024-.08-.042-.122-.057l-.246-.085-.54-.46c-.066-.056-.142-.1-.224-.126l-.57-.19c-.098-.192-.257-.38-.48-.57-.115-.095-.258-.15-.406-.157l-1.726-1.48-.588-.713c-.038-.046-.082-.087-.132-.122l-.517-.364-.03-.037c-.01-.203-.108-.39-.27-.512l-.803-.597c-.006-.01-.02-.038-.036-.1l-.135-.53c-.042-.164-.143-.306-.283-.398l-.146-.096-.01-.072c-.02-.164-.1-.313-.225-.42l-.1-.087-.025-.32c-.015-.18-.1-.34-.228-.45-.03-.23-.145-.52-.47-.787-.146-.118-.334-.17-.52-.144-.097.014-.188.048-.27.1l-.065-.015c-.207-.045-.424.01-.585.148-.246.21-.38.49-.38.788 0 .148.03.295.088.442-.024.068-.038.14-.04.215l-.024 1.25c-.002.098.017.195.057.284l.046.103-.097.695c-.005.036-.007.072-.006.11l.022.904-.164 1.183c-.012.087-.007.176.015.26l.11.417-.14.68c-.017.08-.02.162-.007.242l.096.603-.153.433c-.06.17-.048.358.03.52-.06.124-.082.266-.06.407.046.273.053.404.053.458 0 .045-.006.152-.048.36-.037.183.004.374.113.525l.05.07-.027.06c-.096.204-.082.44.03.63l-.063.2c-.04.126-.042.263-.004.39l.067.225-.248.82c-.02.062-.03.128-.03.194v.1c0 .86.528 1.166.98 1.166h.17c.23 0 .444-.118.568-.31.227-.36.365-.802.42-1.353l.03-.047c.124-.19.142-.43.05-.636l-.04-.092.088-.508c.007-.038.01-.076.01-.114v-.555l.124-.457c.052-.19.016-.386-.085-.542.072-.177.11-.375.11-.593v-.1c0-.072 0-.13-.132-.845l.316-1.18c.03-.12.03-.244-.005-.363l-.19-.645.175-.995c.252.283.49.492.718.633l.09.14c.113.182.306.297.52.313l.04.003.624.82c.068.088.158.16.26.206l1.008.452.314.324c.046.047.098.087.155.12l.173.097.246.32c.066.087.153.156.253.202l.37.17.07.09c.046.06.102.114.166.156l1.53 1.01c.09.062.197.1.304.11l.05.054c.097.103.222.173.36.2l.502.102c.067.013.137.016.205.01l.247.203c.168.138.39.187.6.13.11.105.25.17.4.184.096.09.22.15.352.172l.13.02.003.007c.003.016.008.056.008.128v.505l.002.034c.008.147.014.295.018.443.004.172.016.346.034.517.018.163.093.308.206.417l.087.902c.028.292.24.532.527.593l.233.05c.048.01.096.016.143.016.26 0 .502-.15.613-.394.002-.005.01-.02.038-.04.266-.183.364-.528.235-.823l-.126-.288-.09-1.1c-.005-.066-.02-.13-.044-.192l.074-.15c.073-.146.09-.314.048-.472l-.022-.082.25-.396c.1-.162.128-.36.076-.542l-.132-.463.134-.488c.023-.084.03-.17.02-.256l-.037-.308.173-.827c.024-.116.017-.235-.02-.346l-.044-.14.19-1.007c.012-.07.014-.14.005-.21l-.024-.195.184-.424c.036-.084.055-.175.055-.267v-1.187l.096-.224c.156-.38.223-.633.223-.85 0-.11-.027-.22-.078-.315l.126-.205c.126-.21.133-.464.02-.675zM19.665 60.244c-.776-1.122-2.02-1.683-3.733-1.683-1.47 0-2.64.414-3.512 1.24-.872.827-1.308 1.944-1.308 3.352 0 1.387.416 2.494 1.247 3.32.83.826 1.965 1.24 3.403 1.24 1.642 0 2.896-.57 3.764-1.714l.673.428c-1.03 1.337-2.504 2.004-4.422 2.004-1.673 0-3-.47-3.978-1.407-.98-.938-1.47-2.208-1.47-3.81 0-1.642.506-2.947 1.515-3.917 1.01-.97 2.372-1.454 4.085-1.454 1.99 0 3.452.664 4.39 1.99l-.655.412zM31.76 67.006c-.985.948-2.33 1.423-4.032 1.423-1.714 0-3.058-.47-4.032-1.408-.974-.938-1.46-2.234-1.46-3.887 0-1.63.488-2.896 1.467-3.794.98-.896 2.32-1.345 4.024-1.345 1.703 0 3.047.45 4.03 1.346.985.9 1.478 2.164 1.478 3.795 0 1.632-.492 2.923-1.476 3.87zm-.552-7.137c-.83-.77-1.99-1.156-3.48-1.156-1.48 0-2.634.385-3.465 1.155-.83.77-1.247 1.858-1.247 3.265 0 1.408.418 2.523 1.255 3.343.837.82 1.99 1.232 3.46 1.232 1.488 0 2.648-.406 3.48-1.217.83-.81 1.246-1.93 1.246-3.36 0-1.405-.417-2.494-1.248-3.264zM36.066 58.668v3.9h5.63v.705h-5.63v5.048H35.3V57.95h7.344v.718h-6.578zM44.94 58.668v3.9h5.63v.705h-5.63v5.048h-.766V57.95h7.344v.718h-6.58zM53.048 68.322V57.95h7.895v.718h-7.13v3.9h6.32v.705h-6.32v4.33h7.206v.718h-7.972zM62.824 68.322V57.95h7.895v.718h-7.13v3.9h6.318v.705h-6.32v4.33h7.207v.718h-7.97zM84.014 68.322H79.04V57.95h5.172c.97 0 1.764.208 2.386.626.714.48 1.07 1.178 1.07 2.096 0 .99-.56 1.724-1.682 2.203 1.346.388 2.02 1.24 2.02 2.556 0 1.02-.434 1.78-1.3 2.28-.703.408-1.6.612-2.692.612zm.17-9.654H79.82v3.9h4.345c.754 0 1.377-.147 1.866-.443.57-.347.857-.857.857-1.53s-.296-1.177-.887-1.514c-.48-.274-1.086-.412-1.82-.412zm-.047 4.62h-4.315v4.314h4.376c.846 0 1.54-.163 2.08-.49.643-.377.964-.933.964-1.667 0-.785-.342-1.36-1.025-1.73-.53-.284-1.224-.427-2.08-.427zM90.134 68.322V57.95h.78v9.653h6.55v.72h-7.33zM99.007 68.322V57.95h7.895v.718h-7.13v3.9h6.318v.705h-6.318v4.33h7.206v.718h-7.97zM117.09 68.322l-7.526-9.21v9.21h-.78V57.95h.81c.878 1.11 2.133 2.646 3.765 4.604 1.763 2.1 3.018 3.62 3.763 4.56v-9.165h.78V68.32h-.812zM123.93 68.322h-3.595V57.95h4.177c1.703 0 2.998.463 3.886 1.39.846.9 1.27 2.17 1.27 3.81 0 1.694-.54 2.994-1.622 3.902-1.01.847-2.382 1.27-4.115 1.27zm3.902-8.46c-.745-.796-1.856-1.194-3.335-1.194h-3.38v8.935h2.86c1.55 0 2.756-.377 3.618-1.132.862-.754 1.293-1.86 1.293-3.32 0-1.448-.353-2.544-1.056-3.29z"/></g></svg>