<svg xmlns="http://www.w3.org/2000/svg" viewBox="0 0 140 105" enable-background="new 0 0 140 105"><g fill="#313131"><path d="M10 49.205V40.96h1.446v6.97h3.635v1.275H10zM16.378 45.087c0-2.46 1.743-4.264 4.216-4.264 2.46 0 4.215 1.805 4.215 4.264s-1.756 4.266-4.216 4.266c-2.473 0-4.216-1.806-4.216-4.266zm6.948 0c0-1.706-1.076-2.98-2.732-2.98-1.67 0-2.732 1.275-2.732 2.98 0 1.694 1.063 2.98 2.732 2.98 1.656 0 2.732-1.286 2.732-2.98zM26.57 45.087c0-2.546 1.89-4.264 4.327-4.264 1.657 0 2.695.853 3.3 1.84l-1.223.644c-.396-.692-1.2-1.2-2.077-1.2-1.632 0-2.843 1.238-2.843 2.98 0 1.718 1.212 2.98 2.843 2.98.878 0 1.68-.52 2.077-1.2l1.236.618c-.63.988-1.656 1.867-3.313 1.867-2.436 0-4.327-1.73-4.327-4.265zM41.946 49.205l-.606-1.595h-3.783l-.606 1.595h-1.643l3.24-8.246h1.804l3.24 8.245h-1.644zm-2.497-6.8l-1.484 3.93h2.967l-1.484-3.93zM44.814 48.043l.816-1.125c.556.606 1.46 1.15 2.608 1.15 1.187 0 1.644-.58 1.644-1.138 0-1.73-4.797-.655-4.797-3.684 0-1.373 1.187-2.423 3.004-2.423 1.273 0 2.323.42 3.077 1.162l-.816 1.076c-.654-.654-1.532-.95-2.397-.95-.84 0-1.384.42-1.384 1.025 0 1.546 4.796.593 4.796 3.66 0 1.372-.977 2.56-3.19 2.56-1.52-.002-2.62-.547-3.362-1.312zM55.397 49.205v-6.972H52.9V40.96h6.44v1.273h-2.496v6.972h-1.447zM65.904 49.205l-1.817-3.078H62.64v3.078h-1.446V40.96h3.623c1.632 0 2.707 1.05 2.707 2.582 0 1.46-.964 2.263-1.965 2.423l2.026 3.24h-1.682zm.136-5.675c0-.79-.593-1.298-1.41-1.298h-1.99v2.62h1.99c.817 0 1.41-.52 1.41-1.322zM69.274 45.087c0-2.46 1.743-4.264 4.215-4.264 2.46 0 4.215 1.805 4.215 4.264s-1.756 4.266-4.216 4.266c-2.473 0-4.216-1.806-4.216-4.266zm6.948 0c0-1.706-1.076-2.98-2.733-2.98-1.67 0-2.733 1.275-2.733 2.98 0 1.694 1.063 2.98 2.732 2.98 1.656 0 2.732-1.286 2.732-2.98zM83.505 49.205V40.96h3.066c2.585 0 4.316 1.705 4.316 4.115 0 2.436-1.73 4.13-4.303 4.13h-3.078zm5.896-4.13c0-1.582-.987-2.842-2.817-2.842H84.95v5.698h1.62c1.794 0 2.83-1.284 2.83-2.855zM93.062 49.205V40.96h5.65v1.273h-4.204v2.126h4.117v1.273h-4.117v2.3h4.204v1.273h-5.65zM100.424 48.043l.815-1.125c.555.606 1.458 1.15 2.607 1.15 1.186 0 1.645-.58 1.645-1.138 0-1.73-4.797-.655-4.797-3.684 0-1.373 1.186-2.423 3.003-2.423 1.274 0 2.324.42 3.078 1.162l-.815 1.076c-.654-.654-1.533-.95-2.398-.95-.84 0-1.384.42-1.384 1.025 0 1.546 4.797.593 4.797 3.66 0 1.372-.977 2.56-3.19 2.56-1.52-.002-2.62-.547-3.36-1.312zM109.126 49.205V40.96h1.446v8.245h-1.446zM112.753 45.087c0-2.596 1.928-4.264 4.327-4.264 1.606 0 2.658.766 3.313 1.706l-1.175.68c-.446-.618-1.224-1.1-2.14-1.1-1.63 0-2.842 1.236-2.842 2.978 0 1.718 1.212 2.98 2.843 2.98.84 0 1.58-.385 1.952-.743V46.05h-2.473v-1.27h3.905v3.077c-.804.902-1.966 1.507-3.387 1.507-2.397 0-4.325-1.692-4.325-4.277zM128.603 49.205l-4.303-5.898v5.898h-1.446V40.96h1.483l4.216 5.71v-5.71H130v8.245h-1.397zM10 64.03v-8.247h1.446v6.973h3.635v1.272H10zM16.91 64.03v-8.247h1.446v6.973h3.635v1.272h-5.08zM23.27 59.913c0-2.548 1.89-4.266 4.327-4.266 1.657 0 2.695.853 3.3 1.843l-1.223.643c-.395-.692-1.2-1.2-2.076-1.2-1.632 0-2.843 1.237-2.843 2.98 0 1.718 1.212 2.98 2.843 2.98.878 0 1.68-.52 2.076-1.2l1.236.617c-.63.99-1.656 1.867-3.313 1.867-2.436 0-4.327-1.73-4.327-4.264z"/></g></svg>