<svg xmlns="http://www.w3.org/2000/svg" viewBox="0 0 140 105" enable-background="new 0 0 140 105"><g fill="#343433"><path d="M56.568 46.875h-4.376c-.117 0-.21.095-.21.212v7.558c0 .828-.22 1.55-.66 2.167-.438.616-1.077.924-1.915.924-.45 0-.81-.082-1.082-.245-.273-.163-.492-.39-.658-.678s-.278-.616-.336-.982c-.057-.366-.087-.75-.087-1.155v-7.59c0-.115-.094-.21-.21-.21h-4.407c-.116 0-.21.095-.21.21v8.687c0 .732.092 1.45.277 2.152.185.703.488 1.33.907 1.878.42.55.965.997 1.638 1.343.673.347 1.497.52 2.472.52.507 0 .99-.067 1.448-.202.458-.135.878-.308 1.258-.52.38-.212.712-.462.995-.75.284-.29.513-.598.69-.925h.057v1.467c0 .29.236.526.528.526h3.566c.293 0 .53-.235.53-.526V47.087c0-.118-.095-.212-.212-.212zM82.756 48.392c-.41-.568-.95-1.03-1.624-1.387-.673-.356-1.507-.534-2.5-.534-1.093 0-2.02.222-2.78.665-.76.443-1.385 1.04-1.872 1.79-.41-.79-.98-1.395-1.71-1.82-.732-.423-1.625-.634-2.678-.634-.546 0-1.048.068-1.507.203-.458.135-.873.313-1.243.534-.37.22-.687.477-.95.766-.264.29-.484.587-.718.895v-1.782c0-.118-.095-.21-.212-.21h-4.227c-.117 0-.212.094-.212.21V61.05c0 .117.094.21.21.21h4.407c.116 0 .21-.093.21-.21v-7.59c0-.866.21-1.597.63-2.194.42-.597 1.01-.896 1.77-.896.722 0 1.248.24 1.58.722s.497 1.136.497 1.964v7.993c0 .115.094.21.21.21h4.377c.117 0 .21-.095.21-.212V53.49c0-.404.05-.794.147-1.17.098-.376.25-.708.454-.997s.458-.52.76-.693c.303-.173.66-.26 1.07-.26.428 0 .774.082 1.037.246.264.164.474.38.63.65.156.27.263.592.322.968.06.376.088.766.088 1.17v7.647c0 .117.094.21.21.21h4.377c.117 0 .21-.094.21-.21v-8.686c0-.674-.092-1.362-.277-2.065-.187-.705-.484-1.34-.894-1.908zM129.46 50.948c-.362-.963-.864-1.78-1.508-2.455-.644-.674-1.414-1.19-2.31-1.545-.898-.356-1.883-.534-2.956-.534-1.112 0-2.145.183-3.1.55-.957.365-1.785.88-2.488 1.544s-1.258 1.473-1.667 2.426-.613 2.017-.613 3.192c0 1.213.21 2.292.63 3.235.418.945.994 1.74 1.725 2.384.73.645 1.585 1.136 2.56 1.473.975.337 2.01.505 3.1.505 1.483 0 2.785-.265 3.906-.794 1.12-.53 2.56-2.113 2.56-2.113.082-.085.064-.202-.036-.26l-3.1-1.825c-.05-.03-.124-.02-.166.02 0 0-.648.634-1.175.913-.526.28-1.17.42-1.93.42-.43 0-.844-.068-1.243-.203-.4-.135-.76-.323-1.082-.563-.322-.24-.585-.525-.79-.852-.205-.327-.327-.693-.366-1.098h10.377c.117 0 .212-.094.212-.21v-.916c0-1.23-.18-2.33-.54-3.292zm-10.05 1.473c.02-.365.117-.716.293-1.053.175-.337.41-.63.702-.88.293-.25.634-.45 1.024-.593.39-.144.818-.217 1.286-.217.956 0 1.672.27 2.15.81.478.538.717 1.183.717 1.934h-6.173zM101.932 48.724c-.595-.693-1.316-1.242-2.165-1.647s-1.8-.607-2.852-.607c-1.073 0-1.98.202-2.72.607s-1.317.847-1.727 1.33h-.058V41.17c0-.116-.082-.257-.184-.315l-4.43-2.527c-.102-.058-.184-.01-.184.107V61.05c0 .115.094.21.21.21h3.997c.115 0 .21-.094.21-.21v-1.667h.057c.468.732 1.136 1.295 2.004 1.69.87.395 1.79.592 2.765.592 1.092 0 2.067-.212 2.925-.635.858-.424 1.585-.987 2.18-1.69.594-.703 1.047-1.517 1.36-2.44.31-.925.467-1.888.467-2.89 0-1-.16-1.96-.483-2.874s-.778-1.72-1.372-2.412zm-2.984 6.658c-.146.453-.366.852-.658 1.2-.293.346-.653.625-1.082.837-.43.21-.926.317-1.492.317-.546 0-1.034-.106-1.463-.318-.43-.213-.795-.492-1.097-.84-.302-.346-.536-.74-.702-1.183-.166-.443-.25-.895-.25-1.358 0-.463.084-.916.25-1.36.166-.442.4-.837.702-1.183.302-.347.668-.626 1.097-.838.43-.213.917-.32 1.463-.32.566 0 1.063.107 1.492.32.43.21.79.485 1.082.822.293.337.512.727.658 1.17.146.443.22.895.22 1.358 0 .462-.074.92-.22 1.372zM107.074 38.328c-.102-.058-.184-.01-.184.108V61.05c0 .116.095.212.212.212h4.432c.117 0 .212-.094.212-.21V41.17c0-.117-.083-.258-.184-.316l-4.488-2.528zM10 44.116v16.768l14.383 8.384 14.383-8.384V44.116l-14.383-8.384L10 44.116zm19.97.947c.154-.27.285-.36.552-.206l4.015 2.237c.267.155.36.286.204.555L24.6 65.16c-.045.077-.104.115-.162.114-.06.002-.118-.036-.162-.114L14.13 47.648c-.156-.27-.064-.4.203-.555l4.015-2.237c.267-.155.398-.063.553.206l5.535 9.59 5.534-9.59z"/></g></svg>