<svg xmlns="http://www.w3.org/2000/svg" viewBox="0 0 140 105" enable-background="new 0 0 140 105"><g fill="#D9182A"><path d="M17.157 57.724c.303 0 .566-.038.787-.113.222-.076.416-.187.58-.338.167-.15.31-.337.435-.564.124-.227.238-.493.34-.796l.3-.886h1.065l-.918 3.714H10l.178-.886h.22c.174 0 .343-.01.51-.034.163-.02.314-.067.45-.137s.252-.17.353-.3c.1-.13.172-.304.216-.52l1.696-7.986c.072-.287.106-.476.106-.57 0-.118-.03-.215-.09-.29s-.14-.135-.247-.175c-.105-.04-.232-.068-.38-.08-.15-.015-.31-.022-.484-.022h-.21l.178-.877h5.743l-.187.877h-.21c-.185 0-.363.012-.532.037-.17.024-.327.072-.47.142-.14.07-.26.173-.363.308-.103.135-.176.31-.22.528l-1.877 8.97h2.78zM26.53 57.642c.27 0 .528-.038.772-.116.243-.08.47-.18.68-.31.206-.128.394-.272.558-.43.166-.16.308-.324.428-.492.065.082.116.185.154.31.038.13.056.264.056.405 0 .2-.065.41-.195.632-.13.222-.328.428-.597.614-.268.186-.61.34-1.023.463-.416.12-.906.18-1.476.18-.508 0-.987-.068-1.437-.21s-.845-.354-1.182-.638c-.34-.284-.605-.64-.8-1.072-.195-.43-.292-.935-.292-1.514 0-.412.053-.842.162-1.292.108-.45.268-.89.482-1.32.214-.43.48-.84.797-1.226s.684-.728 1.1-1.02c.417-.292.884-.523 1.402-.694.515-.17 1.08-.256 1.692-.256.797 0 1.414.172 1.852.516.44.345.658.824.658 1.442 0 .45-.125.88-.375 1.292-.248.41-.592.773-1.03 1.084-.44.312-.962.56-1.57.743-.604.185-1.266.277-1.98.277h-.3c-.11 0-.214-.006-.318-.017-.016.11-.027.22-.028.33-.003.11-.005.212-.005.304 0 .643.15 1.14.45 1.49.303.348.756.522 1.364.522zm.585-6.985c-.272 0-.528.1-.773.304-.243.204-.462.468-.657.793s-.363.69-.505 1.093c-.14.404-.243.803-.308 1.198h.145c.412 0 .795-.054 1.15-.162.355-.11.663-.264.926-.467.262-.204.47-.446.617-.728.15-.28.222-.598.222-.95 0-.34-.072-.606-.214-.796-.14-.19-.343-.283-.603-.283zM38.553 58.9c-.493 0-.888-.112-1.187-.334-.298-.226-.446-.554-.446-.988 0-.173.01-.342.024-.506.017-.166.046-.357.09-.575h-.114c-.205.387-.41.73-.612 1.03-.204.3-.43.55-.68.754-.25.205-.526.358-.832.464-.306.106-.662.157-1.07.157-.394 0-.74-.074-1.04-.23-.297-.154-.545-.368-.74-.638-.2-.27-.348-.592-.447-.96-.102-.374-.15-.774-.15-1.208 0-.434.05-.887.15-1.36.098-.474.25-.94.45-1.4.2-.46.447-.9.743-1.317.294-.417.636-.782 1.023-1.096.388-.314.82-.564 1.296-.75.477-.188.997-.28 1.56-.28.217 0 .438.017.662.052.224.035.44.08.646.134.205.054.398.115.58.182.18.068.335.137.46.208l.877-.398h.884l-1.095 5.19-.08.366c-.032.15-.065.313-.094.483-.028.17-.054.336-.076.496-.022.16-.032.292-.032.402 0 .277.055.482.162.617.108.135.25.204.422.204.157 0 .308-.034.45-.103.143-.067.302-.15.475-.246l.367.665c-.14.108-.3.22-.48.337-.18.115-.377.22-.596.32-.218.097-.457.18-.714.24-.258.06-.535.09-.833.09zm-4.68-3.02c0 .32.023.587.07.805.045.215.108.39.187.523.077.133.173.227.284.284.11.058.23.086.36.086.246 0 .497-.106.757-.316.26-.21.504-.487.73-.833.228-.345.434-.733.615-1.166.18-.434.318-.872.41-1.316l.585-2.762c-.108-.157-.258-.274-.45-.35-.193-.075-.398-.113-.613-.113-.325 0-.623.084-.89.25-.267.17-.51.393-.728.675-.216.282-.408.602-.572.96-.166.356-.304.727-.416 1.11-.11.386-.193.765-.248 1.138-.053.374-.08.715-.08 1.024zM44.074 51.282c0-.206-.068-.353-.204-.443-.135-.09-.36-.135-.674-.135h-.3l.144-.885h3.68l-.35 2.282h.08c.19-.4.382-.752.574-1.055.193-.304.404-.558.634-.764.23-.205.49-.36.783-.467.293-.105.635-.158 1.025-.158.59 0 1.028.11 1.315.333.287.223.43.546.43.968 0 .574-.167 1.002-.504 1.283-.335.282-.823.423-1.462.423 0-.25-.012-.475-.036-.678-.024-.204-.068-.376-.13-.52s-.145-.253-.25-.33c-.107-.075-.24-.113-.396-.113-.156 0-.322.064-.494.19-.174.128-.347.303-.52.525-.174.222-.344.487-.508.792-.166.305-.323.64-.475 1s-.29.737-.414 1.132c-.124.395-.23.796-.317 1.202l-.633 2.877h-2.51l1.413-6.685.06-.366c.03-.153.04-.29.04-.408zM57.91 57.196c0-.477.088-1.137.266-1.982l.268-1.316.082-.398c.032-.156.065-.32.097-.49.032-.172.06-.342.086-.513.023-.17.035-.323.035-.46 0-.102-.01-.21-.03-.324-.018-.113-.052-.216-.103-.308-.053-.092-.123-.168-.212-.227-.09-.06-.207-.09-.354-.09-.188 0-.376.064-.564.19-.186.128-.366.297-.54.505-.173.21-.337.447-.494.715-.157.27-.3.543-.428.825-.127.28-.236.558-.328.828-.092.272-.162.516-.212.733l-.845 3.86h-2.493l1.397-6.622c.016-.07.03-.143.043-.22l.038-.214c.01-.068.02-.126.025-.174s.01-.084.01-.105c0-.152-.018-.274-.05-.366s-.085-.16-.155-.21c-.07-.05-.16-.08-.272-.097-.11-.016-.245-.025-.402-.025h-.3l.144-.885h3.697l-.188 1.78h.105c.212-.332.43-.618.655-.863.224-.243.467-.445.727-.605.26-.16.542-.28.848-.357.306-.08.643-.118 1.01-.118.353 0 .65.05.892.155.24.103.434.242.585.418.15.176.255.38.32.61.065.23.097.472.097.727 0 .14-.01.29-.028.45-.02.16-.044.322-.074.484-.03.162-.063.325-.097.487-.035.163-.066.317-.093.464l-.373 1.78c-.065.303-.12.586-.162.848-.044.263-.065.51-.065.742 0 .245.05.43.15.56.1.13.245.196.434.196.174 0 .333-.03.476-.096.142-.065.31-.16.5-.286l.396.56c-.13.14-.28.28-.446.42-.168.137-.356.26-.564.37-.21.107-.44.194-.694.26s-.534.095-.836.095c-.64 0-1.13-.15-1.47-.45-.344-.303-.513-.722-.513-1.257zM71.515 57.546c.26 0 .496-.044.706-.13.213-.09.41-.192.594-.31l.38.635c-.182.157-.377.305-.58.446-.203.142-.423.265-.663.37-.237.105-.493.19-.765.252-.274.062-.57.092-.89.092-.304 0-.586-.038-.85-.116s-.49-.198-.685-.36c-.195-.156-.35-.358-.46-.604-.11-.243-.166-.53-.166-.86 0-.098.003-.206.012-.324.01-.12.02-.243.036-.366.017-.126.036-.25.058-.37.02-.122.043-.234.065-.337l1-4.606H68.02l.18-.853c.238 0 .498-.04.78-.122.282-.08.57-.214.865-.398.294-.185.59-.426.886-.723.295-.297.572-.66.832-1.088h.968l-.43 2.048h2.006l-.227 1.137h-2.03l-1 4.557c-.06.245-.102.465-.126.663-.024.197-.038.375-.038.532 0 .276.077.485.227.625.152.14.353.21.602.21zM74.532 55.41c0-.418.05-.848.147-1.293.096-.444.244-.88.442-1.307.197-.428.445-.833.742-1.214.298-.382.648-.717 1.052-1.003.404-.287.862-.515 1.373-.682.51-.167 1.078-.25 1.7-.25.478 0 .928.066 1.35.198.422.133.79.34 1.105.62.313.283.563.645.747 1.086.183.44.275.97.275 1.588 0 .4-.046.82-.137 1.26-.092.44-.236.87-.428 1.295-.192.425-.436.832-.73 1.22-.296.386-.643.726-1.045 1.018-.4.292-.855.525-1.365.698-.508.174-1.077.26-1.705.26-.52 0-.997-.072-1.43-.215-.434-.142-.804-.36-1.113-.65-.308-.287-.55-.653-.723-1.09-.17-.44-.258-.955-.258-1.54zm3.827 2.297c.297 0 .565-.086.806-.257.24-.17.458-.393.65-.674.192-.277.36-.596.5-.953s.256-.726.344-1.105c.09-.38.157-.752.204-1.118.046-.365.068-.694.068-.987 0-.655-.113-1.126-.337-1.413-.224-.287-.532-.43-.922-.43-.282 0-.542.08-.78.244-.238.162-.453.38-.646.65-.192.27-.36.58-.506.93-.146.35-.27.71-.37 1.084-.1.373-.174.746-.222 1.117-.05.37-.074.71-.074 1.02 0 .677.115 1.16.342 1.454.23.29.54.437.943.437zM95.157 57.505c.385 0 .732-.044 1.04-.13.31-.087.585-.202.83-.345.242-.144.456-.304.64-.484.183-.18.345-.363.487-.552.065.05.128.125.19.227.063.104.094.218.094.34 0 .278-.084.555-.25.836-.17.277-.417.53-.745.754-.328.224-.732.405-1.214.546-.483.137-1.037.205-1.667.205-.795 0-1.507-.098-2.133-.295-.624-.197-1.153-.487-1.584-.87-.43-.38-.76-.85-.987-1.405-.228-.555-.34-1.187-.34-1.897 0-.666.076-1.32.233-1.966.157-.645.385-1.256.682-1.836.298-.58.662-1.11 1.093-1.6.43-.486.918-.91 1.462-1.266.544-.357 1.142-.637 1.792-.837.65-.2 1.344-.3 2.086-.3.552 0 1.036.047 1.45.142.414.094.758.226 1.03.397.275.17.48.38.615.626s.204.518.204.817c0 .243-.06.457-.18.64-.118.185-.282.34-.49.468-.21.127-.458.224-.745.29-.287.064-.6.096-.934.096 0-.233-.015-.49-.048-.772-.032-.28-.1-.545-.2-.788-.1-.245-.243-.447-.426-.61-.185-.162-.43-.244-.74-.244-.44 0-.844.1-1.215.3-.372.2-.71.473-1.015.817-.306.345-.578.744-.812 1.2-.236.454-.434.934-.593 1.44-.16.507-.282 1.025-.366 1.552-.084.527-.125 1.038-.125 1.53 0 .947.238 1.68.72 2.198.486.517 1.204.777 2.157.777zM100.36 55.41c0-.418.047-.848.144-1.293.097-.444.245-.88.443-1.307.198-.428.446-.833.744-1.214.3-.382.65-.717 1.053-1.003.404-.287.86-.515 1.373-.682.51-.167 1.08-.25 1.702-.25.475 0 .925.066 1.348.198.422.133.792.34 1.105.62.316.283.565.645.748 1.086.185.44.277.97.277 1.588 0 .4-.046.82-.14 1.26-.09.44-.233.87-.425 1.295-.193.425-.436.832-.732 1.22s-.643.726-1.043 1.018c-.402.292-.857.525-1.365.698-.51.174-1.077.26-1.707.26-.52 0-.995-.072-1.43-.215-.433-.142-.804-.36-1.113-.65-.308-.287-.55-.653-.722-1.09-.173-.44-.26-.955-.26-1.54zm3.825 2.297c.298 0 .568-.086.81-.257.238-.17.456-.393.65-.674.19-.277.356-.596.498-.953.14-.357.255-.726.345-1.105.09-.38.156-.752.202-1.118.046-.365.07-.694.07-.987 0-.655-.113-1.126-.337-1.413-.226-.287-.534-.43-.923-.43-.28 0-.54.08-.78.244-.238.162-.453.38-.645.65-.193.27-.363.58-.508.93-.147.35-.27.71-.37 1.084-.1.373-.173.746-.223 1.117-.048.37-.074.71-.074 1.02 0 .677.115 1.16.342 1.454.228.29.543.437.943.437zM119.022 55.165l-.07.345c-.03.15-.058.304-.084.467-.027.162-.05.322-.07.478-.02.157-.027.287-.027.39 0 .26.06.45.18.57.12.12.254.18.406.18.14 0 .296-.04.467-.114.17-.076.323-.155.458-.235l.367.65c-.147.118-.31.238-.496.356-.184.12-.386.23-.604.326-.22.1-.457.178-.71.236-.255.06-.527.09-.812.09-.245 0-.467-.028-.667-.087-.2-.055-.373-.14-.516-.246-.143-.11-.254-.247-.33-.41-.08-.165-.12-.36-.12-.582 0-.103.003-.195.01-.277.005-.078.012-.16.02-.238.008-.077.018-.16.03-.25l.054-.315h-.097c-.205.428-.422.794-.65 1.098-.227.303-.47.55-.727.746-.257.196-.534.34-.828.43-.296.088-.614.132-.954.132-.43 0-.795-.08-1.1-.243s-.56-.384-.757-.658c-.197-.277-.34-.6-.433-.968-.092-.37-.14-.76-.14-1.17 0-.434.05-.887.15-1.36.102-.474.25-.94.447-1.4.198-.46.44-.9.732-1.317.29-.417.624-.782 1.004-1.096.378-.314.8-.564 1.262-.75.463-.188.968-.28 1.515-.28.325 0 .628.034.91.104.282.07.53.168.747.292.017-.07.032-.152.05-.247.015-.096.032-.19.05-.286.02-.094.04-.184.06-.268.018-.084.03-.15.043-.2l.145-.665c.017-.07.032-.143.05-.22.015-.074.03-.146.04-.214.01-.068.02-.126.025-.175.005-.047.01-.083.01-.104 0-.15-.018-.274-.05-.365-.033-.09-.085-.16-.155-.21-.07-.05-.162-.08-.277-.098-.113-.015-.248-.024-.405-.024h-.38l.153-.877h4.005l-1.926 9.065zm-5.677.715c0 .314.022.58.068.796.046.217.108.392.186.525s.172.228.283.288c.11.06.233.09.363.09.243 0 .494-.107.75-.317.258-.21.5-.486.728-.828.227-.34.433-.728.614-1.16.18-.434.322-.875.42-1.325l.584-2.762c-.12-.15-.282-.267-.487-.345-.207-.078-.41-.117-.61-.117-.314 0-.605.085-.87.256-.265.17-.505.394-.718.673-.215.28-.404.6-.57.96-.165.36-.3.73-.41 1.112-.107.38-.19.76-.247 1.137-.058.375-.085.714-.085 1.018zM126.207 57.642c.27 0 .527-.038.77-.116.244-.08.47-.18.678-.31.21-.128.395-.272.56-.43.167-.16.31-.324.427-.492.065.082.118.185.156.31.038.13.056.264.056.405 0 .2-.065.41-.195.632-.13.222-.33.428-.598.614s-.61.34-1.024.463c-.414.12-.905.18-1.474.18-.51 0-.988-.068-1.438-.21s-.843-.354-1.182-.638-.605-.64-.8-1.072c-.195-.43-.292-.935-.292-1.514 0-.412.055-.842.162-1.292.11-.45.27-.89.484-1.32.214-.43.48-.84.795-1.226.318-.387.684-.728 1.1-1.02.418-.292.885-.523 1.403-.694.516-.17 1.08-.256 1.693-.256.796 0 1.412.172 1.85.516.44.345.66.824.66 1.442 0 .45-.126.88-.376 1.292-.248.41-.593.773-1.03 1.084-.44.312-.962.56-1.57.743-.606.185-1.266.277-1.98.277h-.302c-.108 0-.214-.006-.316-.017-.015.11-.026.22-.03.33l-.002.304c0 .643.15 1.14.45 1.49.303.348.756.522 1.363.522zm.585-6.985c-.272 0-.528.1-.773.304-.244.204-.463.468-.658.793s-.363.69-.505 1.093c-.142.404-.245.803-.31 1.198h.147c.41 0 .794-.054 1.15-.162.355-.11.663-.264.926-.467.262-.204.467-.446.617-.728.15-.28.222-.598.222-.95 0-.34-.073-.606-.216-.796s-.342-.283-.602-.283z"/></g></svg>