<svg xmlns="http://www.w3.org/2000/svg" viewBox="0 0 140 105" enable-background="new 0 0 140 105"><g><path d="M16.594 40.67c1.06 0 1.89.26 2.488.78.598.52.897 1.23.897 2.136 0 .676-.155 1.27-.46 1.778-.308.51-.8.858-1.475 1.045v.03c.322.062.584.167.788.312.203.146.364.32.483.522.12.203.208.43.265.68.058.25.103.51.134.78.02.27.036.545.046.826.01.28.037.557.078.827.042.27.102.528.18.772.077.244.194.46.35.646h-1.653c-.104-.114-.174-.27-.21-.468-.037-.198-.06-.418-.07-.663l-.03-.788c-.01-.28-.043-.556-.094-.827-.04-.27-.093-.528-.155-.772s-.16-.458-.296-.64c-.136-.182-.313-.328-.53-.437-.22-.108-.51-.163-.875-.163h-3.62v4.757h-1.48V40.67h5.24zm.312 5.053c.312-.052.585-.153.82-.304.233-.15.42-.355.56-.61.14-.253.21-.584.21-.99 0-.56-.155-1.018-.467-1.372-.313-.354-.817-.53-1.514-.53h-3.68v3.884h3.087c.344 0 .67-.027.983-.08zM29.727 40.67v1.247H23.52v3.54h5.786v1.25H23.52v3.85h6.254v1.25h-7.736V40.668h7.69zM37.144 42.19c-.494-.36-1.126-.538-1.896-.538-.31 0-.62.03-.92.093-.302.062-.57.167-.803.312-.234.146-.42.34-.562.585-.14.245-.21.548-.21.913 0 .343.1.62.303.834.203.212.473.386.81.52.34.136.72.248 1.147.337.426.088.86.184 1.303.288.44.104.875.226 1.302.366.426.142.808.33 1.146.57.338.24.608.54.81.905.204.364.305.82.305 1.373 0 .593-.134 1.1-.4 1.52-.264.422-.605.765-1.02 1.03-.416.265-.88.458-1.396.577-.515.12-1.027.18-1.537.18-.624 0-1.214-.08-1.77-.235-.557-.156-1.045-.393-1.466-.71-.42-.317-.753-.722-.997-1.216-.245-.494-.367-1.08-.367-1.755h1.404c0 .467.09.87.273 1.208.182.338.42.616.717.835.296.218.642.38 1.038.483.395.104.8.156 1.216.156.333 0 .668-.03 1.006-.094.337-.062.642-.17.912-.32s.49-.356.655-.616c.166-.26.25-.593.25-.998 0-.385-.102-.697-.304-.936-.203-.24-.473-.434-.81-.585-.34-.15-.72-.273-1.147-.366-.426-.094-.86-.19-1.302-.29-.442-.098-.876-.212-1.302-.342-.427-.13-.81-.302-1.146-.515-.338-.213-.608-.49-.81-.827-.204-.338-.305-.762-.305-1.27 0-.563.115-1.048.344-1.46.23-.41.533-.748.913-1.013.38-.265.81-.462 1.295-.593.483-.13.98-.195 1.49-.195.57 0 1.1.068 1.59.203s.918.35 1.287.64c.368.29.66.658.872 1.1.213.442.33.97.35 1.583H38.01c-.084-.8-.372-1.38-.866-1.738zM49.364 40.67v1.247h-6.208v3.54h5.787v1.25h-5.787v3.85h6.255v1.25h-7.735V40.668h7.69zM55.87 40.67l4.35 11.136h-1.637l-1.217-3.354h-4.71l-1.248 3.354h-1.513L54.23 40.67h1.64zm1.028 6.535l-1.856-5.194h-.03l-1.888 5.195h3.774zM66.553 40.67c1.06 0 1.89.26 2.488.78.6.52.898 1.23.898 2.136 0 .676-.154 1.27-.46 1.778-.307.51-.798.858-1.474 1.045v.03c.322.062.584.167.788.312.203.146.364.32.483.522.12.203.208.43.265.68.057.25.102.51.133.78.02.27.036.545.046.826.01.28.036.557.077.827.042.27.102.528.18.772.077.244.194.46.35.646h-1.653c-.104-.114-.174-.27-.21-.468-.037-.198-.06-.418-.07-.663l-.03-.788c-.01-.28-.043-.556-.094-.827-.042-.27-.094-.528-.156-.772s-.16-.458-.296-.64c-.135-.182-.312-.328-.53-.437-.218-.108-.51-.163-.873-.163h-3.62v4.757h-1.48V40.67h5.238zm.312 5.053c.312-.052.585-.153.82-.304.233-.15.42-.355.56-.61.14-.253.21-.584.21-.99 0-.56-.155-1.018-.467-1.372-.312-.354-.816-.53-1.513-.53h-3.68v3.884h3.087c.343 0 .67-.027.983-.08zM78.726 42.244c-.566-.395-1.24-.592-2.02-.592-.666 0-1.234.125-1.71.374-.472.25-.862.585-1.167 1.006-.31.42-.534.902-.68 1.442-.147.54-.22 1.102-.22 1.685 0 .634.072 1.234.22 1.8.145.568.37 1.062.68 1.483.304.42.698.757 1.175 1.006.48.25 1.05.374 1.717.374.488 0 .922-.08 1.303-.242.38-.16.707-.384.982-.67.275-.287.49-.627.646-1.023.156-.396.25-.822.28-1.28h1.483c-.146 1.404-.63 2.496-1.45 3.275-.823.78-1.946 1.17-3.37 1.17-.863 0-1.617-.148-2.262-.444-.644-.295-1.18-.704-1.607-1.224-.426-.52-.746-1.133-.96-1.84-.212-.707-.317-1.466-.317-2.277 0-.812.113-1.574.342-2.286.23-.712.565-1.333 1.006-1.864.443-.53.994-.95 1.654-1.256.66-.307 1.416-.46 2.27-.46.582 0 1.133.078 1.652.234.52.156.984.385 1.39.687.405.302.743.678 1.013 1.13.27.453.447.976.53 1.568h-1.48c-.167-.79-.534-1.383-1.1-1.78zM84.74 40.67v4.788h5.865v-4.79h1.48v11.138h-1.48v-5.1H84.74v5.1h-1.482V40.67h1.482z" fill="#2DC1C1"/><path d="M35.24 54.785c-.566-.395-1.24-.592-2.02-.592-.665 0-1.234.125-1.707.374-.473.25-.863.585-1.17 1.006-.307.42-.533.902-.68 1.442-.145.54-.217 1.103-.217 1.685 0 .635.073 1.235.218 1.802.146.566.372 1.06.68 1.48.306.422.698.758 1.177 1.007.48.25 1.05.374 1.717.374.488 0 .922-.08 1.302-.242.378-.16.706-.385.98-.67.276-.286.493-.627.648-1.022.156-.395.25-.82.28-1.278h1.483c-.145 1.403-.628 2.495-1.45 3.275-.822.78-1.945 1.17-3.37 1.17-.862 0-1.616-.148-2.26-.445-.646-.296-1.18-.704-1.607-1.224-.426-.52-.746-1.134-.96-1.84-.212-.708-.318-1.468-.318-2.278 0-.812.114-1.572.343-2.285.23-.712.564-1.333 1.006-1.864.442-.53.993-.948 1.653-1.255.66-.307 1.416-.46 2.27-.46.582 0 1.133.078 1.653.234.52.155.982.384 1.388.686.405.302.743.678 1.014 1.13.27.453.447.976.53 1.568H36.34c-.165-.79-.532-1.383-1.1-1.78zM39.484 56.587c.223-.702.56-1.323 1.006-1.864.447-.54 1.003-.972 1.67-1.295.665-.322 1.44-.483 2.323-.483.884 0 1.658.16 2.324.483.666.323 1.222.754 1.67 1.295.446.54.782 1.162 1.005 1.864.223.702.335 1.432.335 2.19 0 .76-.112 1.49-.335 2.192-.224.7-.56 1.322-1.006 1.863-.447.54-1.003.97-1.67 1.286-.665.316-1.44.476-2.323.476-.884 0-1.66-.16-2.324-.477-.667-.317-1.223-.747-1.67-1.287-.447-.54-.783-1.162-1.006-1.864-.224-.703-.335-1.434-.335-2.192-.002-.76.11-1.49.334-2.19zm1.364 3.852c.146.545.374 1.036.686 1.473.312.438.712.788 1.2 1.053.49.266 1.072.398 1.748.398.676 0 1.258-.133 1.746-.398.49-.265.89-.615 1.2-1.053.313-.437.542-.928.688-1.474.146-.547.218-1.1.218-1.662 0-.562-.073-1.115-.218-1.66-.146-.546-.375-1.038-.687-1.475-.313-.437-.713-.788-1.202-1.053-.49-.265-1.07-.397-1.746-.397-.676 0-1.258.132-1.747.397-.49.265-.89.616-1.2 1.053-.313.437-.542.928-.687 1.474-.146.546-.218 1.1-.218 1.66 0 .562.072 1.116.218 1.662zM53.186 53.21l5.865 9.03h.032v-9.03h1.404v11.136h-1.622l-5.818-8.937h-.03v8.936H51.61V53.21h1.576zM64.447 53.21l5.865 9.03h.03v-9.03h1.404v11.136h-1.62l-5.82-8.937h-.03v8.936h-1.404V53.21h1.575zM81.838 53.21v1.248H75.63v3.54h5.788v1.248H75.63v3.852h6.255v1.248H74.15V53.21h7.688zM90.41 54.785c-.568-.395-1.24-.592-2.02-.592-.665 0-1.235.125-1.708.374-.473.25-.863.585-1.17 1.006-.307.42-.533.902-.678 1.442-.146.54-.22 1.103-.22 1.685 0 .635.073 1.235.22 1.802.145.566.37 1.06.678 1.48.307.422.7.758 1.178 1.007.48.25 1.05.374 1.715.374.49 0 .924-.08 1.303-.242.38-.16.707-.385.982-.67.275-.286.492-.627.648-1.022.156-.395.25-.82.28-1.278h1.48c-.144 1.403-.628 2.495-1.45 3.275-.82.78-1.943 1.17-3.367 1.17-.862 0-1.616-.148-2.26-.445-.647-.296-1.183-.704-1.608-1.224-.426-.52-.746-1.134-.96-1.84-.212-.708-.32-1.468-.32-2.278 0-.812.116-1.572.345-2.285.23-.712.564-1.333 1.006-1.864.44-.53.992-.948 1.652-1.255.66-.307 1.418-.46 2.27-.46.584 0 1.135.078 1.654.234.52.155.98.384 1.388.686.404.302.742.678 1.014 1.13.27.453.447.976.53 1.568h-1.48c-.17-.79-.536-1.383-1.102-1.78zM93.754 54.458V53.21h8.906v1.248h-3.71v9.888h-1.483v-9.888h-3.713zM105.437 53.21v11.136h-1.482V53.21h1.482zM107.644 56.587c.223-.702.56-1.323 1.006-1.864.447-.54 1.004-.972 1.67-1.295.664-.322 1.44-.483 2.322-.483.885 0 1.66.16 2.324.483.666.323 1.223.754 1.67 1.295.447.54.78 1.162 1.006 1.864.223.702.336 1.432.336 2.19 0 .76-.113 1.49-.336 2.192-.225.7-.56 1.322-1.006 1.863-.447.54-1.004.97-1.67 1.286-.664.316-1.44.476-2.324.476-.883 0-1.658-.16-2.322-.477-.666-.317-1.223-.747-1.67-1.287-.447-.54-.783-1.162-1.006-1.864-.225-.703-.336-1.434-.336-2.192 0-.76.112-1.49.336-2.19zm1.365 3.852c.144.545.372 1.036.685 1.473.312.438.713.788 1.2 1.053.49.266 1.07.398 1.747.398.676 0 1.26-.133 1.748-.398s.89-.615 1.2-1.053c.312-.437.542-.928.687-1.474.146-.547.22-1.1.22-1.662 0-.562-.073-1.115-.22-1.66-.145-.546-.375-1.038-.686-1.475-.31-.437-.712-.788-1.2-1.053-.488-.265-1.072-.397-1.748-.397-.676 0-1.258.132-1.746.397s-.89.616-1.2 1.053c-.313.437-.542.928-.687 1.474-.147.546-.22 1.1-.22 1.66 0 .562.073 1.116.22 1.662zM121.345 53.21l5.865 9.03h.03v-9.03h1.405v11.136h-1.623l-5.818-8.937h-.03v8.936h-1.403V53.21h1.575z" fill="#8CCF82"/><circle cx="97.132" cy="50.13" r="1.448" fill="#8CCF82"/><circle cx="98.414" cy="44.874" r="2.124" fill="#2DC1C1"/><circle cx="103.271" cy="44.607" r="1.448" fill="#8CCF82"/><circle cx="102.128" cy="50.283" r="2.124" fill="#2DC1C1"/></g></svg>