<svg xmlns="http://www.w3.org/2000/svg" viewBox="0 0 140 105" enable-background="new 0 0 140 105"><g fill="#FF4E00"><path d="M12.692 49.67h-2.016c-.38 0-.676-.308-.676-.676 0-.367.296-.676.676-.676h5.515c.37 0 .665.31.665.676 0 .368-.296.676-.664.676h-2.027v6.286c0 .404-.332.723-.735.723s-.735-.32-.735-.724V49.67zM17.523 52.493v-.024c0-2.337 1.803-4.294 4.353-4.294s4.33 1.933 4.33 4.27v.023c0 2.335-1.804 4.292-4.353 4.292-2.55 0-4.33-1.932-4.33-4.27zm7.15 0v-.024c0-1.614-1.173-2.954-2.82-2.954-1.65 0-2.8 1.317-2.8 2.93v.023c0 1.612 1.174 2.94 2.823 2.94 1.648 0 2.798-1.304 2.798-2.917zM27.17 49.255c-.035-.083-.06-.19-.06-.285 0-.403.345-.712.748-.712.356 0 .63.225.723.534l1.91 5.705 1.875-5.68c.118-.345.367-.582.735-.582h.107c.367 0 .63.238.735.58l1.873 5.682 1.91-5.717c.107-.296.356-.522.712-.522.39 0 .723.31.723.7 0 .095-.036.213-.07.296l-2.456 6.878c-.13.368-.403.605-.76.605h-.14c-.357 0-.618-.226-.748-.605l-1.85-5.42-1.85 5.42c-.13.38-.404.605-.76.605h-.14c-.357 0-.618-.226-.76-.605l-2.456-6.877zM39.43 55.67l3.082-6.877c.166-.368.463-.593.878-.593h.07c.416 0 .7.225.867.593l3.084 6.878c.06.108.084.215.084.31 0 .39-.296.7-.688.7-.344 0-.58-.202-.712-.51l-.676-1.555h-4.032l-.7 1.6c-.12.297-.368.464-.676.464-.38 0-.676-.297-.676-.677 0-.106.035-.213.095-.332zm5.43-2.347l-1.458-3.357-1.46 3.357h2.92zM49.076 49.054c0-.415.32-.735.735-.735h2.967c1.043 0 1.862.308 2.395.83.44.45.69 1.066.69 1.79v.024c0 1.328-.773 2.135-1.887 2.478l1.59 2.004c.142.178.237.332.237.557 0 .404-.344.676-.7.676-.33 0-.545-.155-.71-.38l-2.017-2.574h-1.84v2.23c0 .403-.32.722-.722.722-.415 0-.735-.32-.735-.723v-6.9zm3.593 3.38c1.043 0 1.707-.545 1.707-1.387v-.024c0-.89-.64-1.376-1.72-1.376h-2.124v2.787h2.136zM57.655 49.054c0-.415.32-.735.736-.735h2.36c2.61 0 4.412 1.79 4.412 4.126v.024c0 2.336-1.802 4.15-4.41 4.15h-2.36c-.416 0-.737-.32-.737-.734v-6.832zm3.096 6.238c1.744 0 2.883-1.174 2.883-2.8v-.024c0-1.625-1.14-2.823-2.882-2.823h-1.636v5.646h1.637zM66.602 55.695c-.166-.12-.285-.32-.285-.557 0-.38.31-.676.69-.676.2 0 .33.06.426.13.688.546 1.423.854 2.324.854s1.47-.427 1.47-1.044v-.023c0-.594-.33-.915-1.873-1.27-1.766-.427-2.763-.95-2.763-2.48v-.023c0-1.423 1.187-2.407 2.835-2.407 1.044 0 1.886.273 2.633.77.166.096.32.297.32.582 0 .38-.308.676-.688.676-.142 0-.26-.036-.38-.107-.64-.414-1.257-.628-1.91-.628-.854 0-1.35.44-1.35.985v.024c0 .64.38.926 1.98 1.306 1.755.427 2.657 1.056 2.657 2.43v.025c0 1.555-1.222 2.48-2.966 2.48-1.126 0-2.193-.357-3.118-1.045zM80.01 49.67h-2.015c-.38 0-.676-.308-.676-.676 0-.367.295-.676.675-.676h5.515c.367 0 .663.31.663.676 0 .368-.296.676-.663.676h-2.028v6.286c0 .404-.332.723-.736.723-.403 0-.735-.32-.735-.724V49.67zM85.66 48.983c0-.403.32-.724.735-.724.403 0 .723.32.723.723v2.787h3.96v-2.787c0-.403.32-.724.724-.724.415 0 .735.32.735.723v6.973c0 .404-.32.723-.735.723-.404 0-.723-.32-.723-.724v-2.834h-3.962v2.834c0 .404-.32.723-.723.723-.415 0-.736-.32-.736-.724v-6.973zM94.678 55.885v-6.832c0-.415.32-.735.736-.735h4.827c.357 0 .654.296.654.652 0 .368-.296.652-.653.652H96.14v2.158h3.57c.355 0 .652.297.652.664 0 .356-.296.64-.652.64h-3.57v2.23h4.163c.356 0 .653.296.653.653 0 .367-.296.652-.652.652h-4.885c-.417 0-.737-.32-.737-.735zM105.975 55.695c-.166-.12-.284-.32-.284-.557 0-.38.31-.676.69-.676.2 0 .33.06.426.13.688.546 1.423.854 2.324.854s1.47-.427 1.47-1.044v-.023c0-.594-.33-.915-1.872-1.27-1.767-.427-2.764-.95-2.764-2.48v-.023c0-1.423 1.186-2.407 2.834-2.407 1.044 0 1.886.273 2.633.77.167.096.32.297.32.582 0 .38-.307.676-.687.676-.142 0-.26-.036-.38-.107-.64-.414-1.257-.628-1.91-.628-.854 0-1.35.44-1.35.985v.024c0 .64.38.926 1.98 1.306 1.755.427 2.657 1.056 2.657 2.43v.025c0 1.555-1.222 2.48-2.966 2.48-1.126 0-2.194-.357-3.12-1.045zM113.653 53.098v-4.115c0-.403.32-.724.736-.724.402 0 .722.32.722.723v4.056c0 1.54.795 2.36 2.1 2.36 1.29 0 2.086-.772 2.086-2.302v-4.115c0-.403.32-.724.736-.724.403 0 .723.32.723.723v4.044c0 2.48-1.4 3.724-3.57 3.724-2.158 0-3.534-1.244-3.534-3.652zM122.765 49.006c0-.403.32-.735.736-.735h.155c.356 0 .558.18.76.428l4.15 5.373v-5.1c0-.39.32-.71.713-.71.403 0 .723.32.723.71v6.975c0 .404-.307.723-.71.723h-.06c-.345 0-.558-.178-.76-.438l-4.27-5.527v5.266c0 .39-.32.71-.71.71-.404 0-.724-.32-.724-.71v-6.964z"/></g></svg>