<svg xmlns="http://www.w3.org/2000/svg" viewBox="0 0 140 105" enable-background="new 0 0 140 105"><g><path d="M69.95 71.457c-21.81 0-39.553-13.222-39.553-29.48C30.397 25.723 48.14 12.5 69.95 12.5c21.812 0 39.555 13.222 39.555 29.478 0 16.257-17.743 29.48-39.554 29.48zm0-57.61c-21.067 0-38.204 12.618-38.204 28.13 0 15.515 17.137 28.136 38.205 28.136 21.065 0 38.207-12.62 38.207-28.135 0-15.513-17.14-28.13-38.206-28.13z" fill="#046799"/><ellipse cx="69.952" cy="41.979" rx="36.187" ry="26.11" fill="#D85E97"/><path d="M51.694 47.595c-.022-.75-.275-1.355-.457-1.795-.063-.155-.146-.353-.176-.468.084-.046.292-.146.778-.25.334-.072.564-.375.546-.715-.02-.34-.285-.616-.625-.647-2.725-.266-3.95.87-4.48 1.813-.89 1.575-.49 3.62.078 4.566.126.21.353.338.59.338.022 0 .044 0 .064-.005 1.4-.128 3.746-.873 3.682-2.838zM41.616 43.71c.667.263.792.43.802.43 0 .108-.187.43-.318.664-.326.563-.77 1.336-.88 2.393-.105.972.126 1.777.686 2.4.96 1.073 2.618 1.233 3.518 1.233.303 0 .494-.02.494-.02.29-.026.53-.232.603-.512.075-.278-.033-.576-.27-.742-.857-.6-.592-1.872-.09-3.74l.042-.15c.207-.78.075-1.507-.388-2.11-.864-1.125-2.705-1.535-3.733-1.535-.71 0-1.117.232-1.205.69-.056.3.025.717.74 1zM69.336 49.515c-.173-1.322-.636-2.93-1.466-4.18-2.4-3.626-6.696-4.805-10.486-5.84-4.995-1.368-8.05-2.41-8.05-6.443 0-3.033 1.644-5.194 4.51-5.925 3.204-.817 7.787.372 9.62 3.722.183.336.602.46.938.273.333-.182.457-.6.275-.937-.252-.46-.548-.88-.875-1.273 1.317.065 2.554-.306 3.54-1.113.67-.55 1.177-1.27 1.462-2.085.947-2.72-2.005-4.756-2.13-4.838-.258-.174-.59-.155-.825.038-.018.008-.028.02-.042.035-.236.224-.282.583-.11.86.696 1.134.437 3.325-.938 4.45-.804.654-1.868.877-3.17.662-.064-.012-.13-.01-.19-.003-2.434-1.397-5.46-1.756-7.896-1.132-3.476.888-6.196 3.615-6.473 7.265-.487 6.34 5.532 8.397 9.99 9.618 3.73 1.023 11.708 4.39 9.323 11.186-1.093 3.12-4.072 4.717-8.028 4.717-8.403 0-9.97-6.727-10.032-7.013-.08-.37-.448-.607-.82-.527-.375.08-.61.445-.532.82.02.08 1.84 8.106 11.385 8.106 2.792 0 5.574-.725 7.575-2.145 2.845-2.14 3.795-5.653 3.446-8.3zM64.943 32.098c-.23-.084-.484-.037-.672.115l-.047.043c-.997.984-2.347 3.044-1.05 4.527.495.566 1.07.876 1.49 1.1.147.08.34.18.43.25-.033.09-.13.298-.442.687-.21.266-.198.648.032.897.23.253.61.3.896.107 2.275-1.518 2.498-3.175 2.317-4.24-.308-1.782-1.912-3.11-2.952-3.486zM74.644 33.717c-.146-.268-.476-.54-1.21-.305-.682.217-.884.165-.89.173-.07-.085-.128-.45-.175-.714-.107-.64-.253-1.52-.833-2.41-.538-.817-1.227-1.296-2.054-1.423-1.423-.222-2.803.705-3.5 1.273-.236.192-.37.327-.37.327-.208.202-.264.515-.144.777.12.263.39.424.677.402 1.043-.078 1.645 1.075 2.438 2.84l.064.143c.332.734.895 1.214 1.632 1.39 1.383.32 3.063-.528 3.86-1.178.554-.45.722-.89.502-1.295zM97.034 41.883l-15.606-.405v-8.72c0-3.315.89-6.013 4.857-6.013 3.965 0 5.244 2.698 5.244 6.013 0 3.316-1.28 7.593-5.245 7.593-1.125 0-2.2-.21-3.198-.624-.37-.15-.8-.026-.98.277-.176.302-.027.67.328.817 1.208.5 2.5.752 3.85.752 4.774 0 8.657-4.826 8.657-8.815 0-3.988-3.883-7.233-8.656-7.233-4.774 0-9.64 3.245-9.64 7.233v8.595l-4.718-.122c-.26-1.662-.99-2.864-1.855-2.878v8.435c.86-.012 1.59-1.208 1.853-2.86l4.72-.126v8.58c0 3.988 4.865 7.236 9.64 7.236 4.773 0 8.656-3.248 8.656-7.236 0-3.99-3.883-8.79-8.656-8.79-1.352 0-2.643.255-3.85.752-.356.15-.505.516-.328.816.18.302.61.43.98.277.997-.415 2.072-.622 3.197-.622 3.965 0 5.244 4.25 5.244 7.566 0 3.313-1.28 6.014-5.245 6.014-3.968 0-4.857-2.7-4.857-6.015V43.67l15.606-.417c.412 0 .747-.308.747-.688 0-.376-.334-.684-.746-.684z" fill="#fff"/><g fill="#046799"><path d="M26.25 86.148c-.186-.096-.425-.247-.718-.435-.295-.193-.583-.44-.864-.736-.282-.294-.525-.652-.726-1.074-.203-.422-.307-.913-.307-1.483 0-.616.116-1.166.345-1.643.23-.475.54-.87.932-1.188.394-.318.854-.554 1.384-.715.53-.163 1.104-.242 1.72-.242.76 0 1.41.1 1.953.297.54.193.99.438 1.345.725.354.29.615.6.786.934.17.332.256.638.256.913 0 .395-.133.723-.4.98-.27.265-.607.394-1.014.394-.42 0-.722-.103-.91-.314-.19-.206-.374-.464-.54-.765-.056-.105-.127-.226-.22-.362-.09-.14-.2-.274-.324-.4-.123-.136-.268-.242-.43-.327-.165-.087-.357-.127-.582-.127-.34 0-.628.11-.864.34-.235.23-.352.543-.352.937 0 .265.044.485.137.674.092.183.242.363.45.538.21.173.493.35.846.538.354.184.786.41 1.297.666.354.175.728.375 1.13.605.398.23.765.508 1.1.837.332.33.607.723.823 1.18.216.457.324 1.008.324 1.652 0 .705-.133 1.308-.402 1.805-.27.504-.622.914-1.06 1.23-.438.314-.942.547-1.513.696-.57.15-1.148.222-1.738.222-.84 0-1.55-.117-2.14-.352-.59-.234-1.07-.533-1.444-.884-.375-.357-.646-.73-.817-1.13-.17-.402-.254-.764-.254-1.093 0-.257.048-.487.146-.674.1-.194.22-.348.364-.463.143-.12.3-.207.47-.258.17-.05.328-.078.472-.078.25 0 .462.046.638.135.178.093.334.21.47.346.14.136.258.29.354.46.1.174.19.337.268.494.065.13.142.272.235.43.09.158.202.303.334.446.13.136.29.247.472.34.183.094.394.138.628.138.34 0 .64-.108.903-.332.262-.222.395-.548.395-.984 0-.27-.05-.505-.15-.705-.097-.196-.237-.385-.42-.56-.185-.168-.417-.338-.7-.497-.282-.16-.61-.342-.992-.537l-1.097-.598zM40.25 87.847l-1.335 4.24c-.065.186-.125.298-.175.346-.055.043-.172.067-.354.067H36.54c-.17 0-.287-.024-.344-.067-.06-.048-.122-.153-.186-.324l-2.674-9.154c-.038-.104-.06-.178-.068-.216-.006-.04-.01-.078-.01-.118 0-.144.045-.23.14-.252.09-.03.167-.043.235-.043h2.336c.182 0 .306.024.37.068.066.05.12.16.158.345l1.455 5.99 1.768-5.99c.05-.156.1-.266.148-.324.046-.06.14-.09.285-.09h.962c.092.03.152.066.185.122.032.05.068.142.108.272l1.808 6.01 1.472-5.952c.053-.18.104-.304.15-.362.044-.06.152-.09.322-.09h1.572c.104 0 .202.014.295.044.09.022.136.108.136.252 0 .04-.003.077-.01.118-.004.038-.036.143-.086.315l-2.672 9.032c-.065.172-.125.285-.175.334-.054.052-.158.08-.315.08h-1.79c-.167 0-.29-.028-.36-.08-.074-.048-.143-.154-.21-.31l-1.294-4.263zM50.23 87.507c.024.135.057.29.096.467.04.177.112.347.218.518.222.39.522.696.903.923.38.227.812.337 1.295.337.46 0 .857-.098 1.2-.283.34-.193.607-.385.803-.582.198-.223.34-.37.433-.44.093-.07.21-.11.354-.11.157 0 .297.062.422.188.125.123.186.31.186.56 0 .104-.02.258-.068.474-.046.206-.125.436-.235.683-.11.25-.262.51-.45.778-.19.272-.43.513-.718.74-.29.222-.634.396-1.034.54-.397.135-.86.202-1.384.202-.865 0-1.595-.146-2.19-.443-.595-.3-1.076-.69-1.442-1.173-.37-.485-.628-1.037-.786-1.657-.158-.618-.236-1.247-.236-1.878 0-.915.14-1.694.413-2.334.274-.64.636-1.154 1.08-1.553.446-.398.94-.688 1.483-.866.542-.182 1.082-.272 1.62-.272.785 0 1.432.146 1.935.44.504.292.904.632 1.198 1.022.295.388.497.783.61 1.19.11.408.165.723.165.94 0 .196-.024.353-.078.466-.05.118-.122.207-.204.265-.086.062-.175.105-.268.127-.09.026-.176.047-.253.06l-5.068.67zm2.85-1.566c-.042-.432-.123-.766-.248-1.012-.126-.24-.262-.418-.412-.527-.152-.112-.295-.18-.433-.198-.138-.02-.24-.027-.305-.027-.287 0-.537.063-.745.186-.21.128-.382.29-.51.503-.132.208-.23.447-.297.717-.066.266-.097.54-.097.813l3.046-.452zM59.637 87.507c.025.135.056.29.097.467.04.177.112.347.217.518.224.39.523.696.906.923.38.227.81.337 1.295.337.46 0 .86-.098 1.2-.283.34-.193.608-.385.804-.582.196-.223.34-.37.433-.44.09-.07.21-.11.354-.11.158 0 .298.062.423.188.124.123.188.31.188.56 0 .104-.023.258-.07.474-.045.206-.124.436-.234.683-.112.25-.262.51-.452.778-.19.272-.43.513-.718.74-.286.222-.63.396-1.03.54-.4.135-.86.202-1.384.202-.865 0-1.595-.146-2.19-.443-.597-.3-1.076-.69-1.443-1.173-.37-.485-.63-1.037-.787-1.657-.158-.618-.236-1.247-.236-1.878 0-.915.138-1.694.414-2.334.276-.64.633-1.154 1.08-1.553.446-.398.94-.688 1.482-.866.543-.182 1.082-.272 1.622-.272.783 0 1.43.146 1.934.44.504.292.903.632 1.198 1.022.295.388.5.783.61 1.19.11.408.166.723.166.94 0 .196-.028.353-.08.466-.05.118-.12.207-.206.265-.085.062-.174.105-.264.127-.092.026-.178.047-.257.06l-5.068.67zm2.848-1.566c-.04-.432-.122-.766-.247-1.012-.125-.24-.26-.418-.41-.527-.153-.112-.297-.18-.433-.198-.14-.02-.24-.027-.305-.027-.288 0-.54.063-.746.186-.21.128-.38.29-.51.503-.133.208-.23.447-.296.717-.065.266-.097.54-.097.813l3.045-.452zM70.163 83.626v5.426c0 .15.007.325.02.52.015.196.06.384.148.557.087.176.218.324.393.446.18.117.43.19.758.217.08 0 .165.004.266.012.097.006.187.023.265.067.077.035.148.1.207.18.06.076.09.192.09.348 0 .158-.07.302-.21.437-.135.13-.31.244-.527.352-.217.105-.463.184-.737.232-.275.05-.556.08-.844.08-.118 0-.26-.005-.434-.022-.17-.012-.356-.044-.56-.1-.203-.06-.41-.144-.628-.25-.216-.106-.415-.256-.597-.45-.328-.338-.52-.694-.58-1.055-.06-.36-.088-.708-.088-1.04v-5.958h-.649c-.104 0-.196-.004-.275-.01-.08-.01-.122-.012-.137-.012-.1-.014-.164-.05-.184-.112-.02-.058-.03-.136-.03-.23v-.517c0-.12.007-.207.02-.27.015-.06.036-.094.07-.107.03-.015.073-.03.125-.044h1.063v-1.022c0-.18.02-.314.057-.393.04-.076.146-.168.315-.27l2.002-1.023c.054-.027.105-.05.158-.078.053-.027.11-.042.176-.042.172 0 .272.073.308.22.032.142.047.26.047.352v2.258h1.318c.13 0 .23.01.293.03.064.022.11.084.14.186v.728c0 .157-.036.257-.11.293-.07.042-.18.063-.322.063h-1.32zM97.39 89.883c0 .393-.034.728-.1 1.006-.063.27-.27.536-.607.79-.29.203-.745.39-1.366.562-.622.17-1.364.258-2.228.258-.88 0-1.594-.082-2.143-.248-.552-.166-.98-.393-1.295-.68-.314-.283-.53-.623-.64-1.01-.113-.39-.168-.804-.168-1.235v-6.634c0-.18.045-.287.137-.315.093-.035.193-.052.3-.052h2.216c.13 0 .246.02.346.057.095.04.146.156.146.343v6.422c0 .11.007.247.022.398.01.153.06.29.137.415.078.13.194.236.353.323.155.09.377.138.67.138.26 0 .467-.038.617-.116.15-.074.26-.17.324-.283.066-.114.104-.234.116-.37.014-.134.02-.255.02-.373v-6.53c0-.14.026-.245.07-.313.044-.068.154-.106.325-.106h2.296c.133 0 .238.02.325.057.086.04.13.15.13.326v7.173zM107.624 90.255c-.015.295-.053.56-.11.798-.058.236-.237.456-.54.66-.13.09-.313.184-.55.28-.236.094-.506.18-.816.258-.308.077-.638.136-1 .185-.36.04-.728.065-1.11.065-.838 0-1.562-.117-2.172-.352-.608-.234-1.108-.567-1.5-.997-.39-.423-.686-.937-.873-1.53-.19-.597-.288-1.248-.288-1.953 0-.71.097-1.38.288-2.018.188-.64.47-1.21.833-1.705.365-.496.82-.89 1.357-1.18.536-.293 1.145-.44 1.823-.44.42 0 .75.052.985.138.237.093.424.18.567.257v-4.67c0-.233.053-.378.15-.433.095-.056.22-.082.362-.082h2.06c.186.01.317.035.402.07.085.027.13.147.13.35v12.3zm-3.106-6.044c-.104-.058-.218-.11-.342-.16-.127-.048-.28-.073-.46-.073-.33 0-.612.093-.855.273-.24.177-.443.423-.6.728-.158.307-.27.663-.34 1.062-.072.398-.11.804-.11 1.226 0 .425.038.83.11 1.23.07.398.182.75.34 1.05.156.3.354.54.59.725.236.178.51.27.824.27.212 0 .37-.035.48-.107.115-.077.195-.16.247-.274.052-.108.086-.224.1-.352.014-.127.018-.234.018-.332V84.21zM114.3 86.61c.198.087.423.202.68.342.25.143.494.326.724.546.23.22.427.495.592.813.162.322.246.71.246 1.163 0 .323-.06.66-.168 1.017-.113.356-.308.683-.59.976-.28.295-.66.543-1.14.74-.478.194-1.082.294-1.817.294-.706 0-1.31-.085-1.808-.255-.495-.172-.895-.384-1.195-.64-.306-.253-.523-.525-.66-.812-.138-.287-.204-.553-.204-.786 0-.354.11-.665.332-.923.223-.26.527-.392.904-.392.146 0 .322.036.53.115.207.08.428.27.65.572.02.05.093.154.213.312.115.157.19.263.215.313.064.106.185.238.356.403.166.165.388.246.647.246.223 0 .43-.08.616-.24.192-.16.29-.38.29-.665 0-.367-.137-.647-.405-.83-.27-.184-.653-.392-1.146-.624l-.85-.387c-.166-.074-.38-.18-.626-.314-.246-.137-.486-.307-.715-.518-.228-.207-.423-.473-.58-.785-.16-.312-.237-.688-.237-1.13 0-.16.035-.4.102-.72.063-.318.22-.637.47-.948.25-.314.62-.586 1.112-.82.488-.232 1.153-.35 1.99-.35.63 0 1.156.072 1.593.216.43.148.782.325 1.048.545.27.215.462.454.58.71.116.267.18.508.18.73 0 .302-.097.574-.288.818-.187.24-.476.36-.854.36s-.65-.098-.822-.293c-.17-.2-.328-.413-.472-.65-.105-.185-.24-.373-.402-.57-.165-.196-.39-.296-.677-.296-.306 0-.524.1-.66.288-.137.192-.205.39-.205.603 0 .193.04.366.127.504.086.142.197.267.334.373.136.1.286.194.45.274.164.08.324.15.48.21l1.06.463z"/></g><path d="M86.823 86.55c-.445-.636-1.12-1.074-2.023-1.317-.062-.028-.132-.044-.208-.058-.072-.012-.142-.027-.206-.04.17-.064.314-.127.436-.188.55-.257 1.027-.622 1.44-1.102.413-.477.617-1.085.617-1.827 0-.66-.15-1.205-.45-1.635-.3-.426-.663-.768-1.078-1.022-.525-.306-1.14-.5-1.84-.59-.7-.09-1.46-.138-2.285-.138-.764 0-1.44.034-2.034.097-.598.063-1.007.137-1.23.213-.168.064-.286.147-.352.244-.063.105-.098.266-.098.48v4.806H74.81c-.435 0-.786.358-.786.8 0 .446.352.803.786.803H81.4c.38 0 .7.034.963.1.023.005.04.013.06.018.232.06.435.13.59.217.173.1.308.192.41.294.032.032.042.055.07.08l.005-.004c.066.07.124.143.16.21.148.216.246.444.31.693.057.245.082.485.082.726 0 .253-.046.54-.146.86-.095.324-.317.595-.654.81-.266.15-.533.245-.81.28-.27.042-.505.062-.686.062-.25 0-.542-.02-.885-.062v-2.945H77.51v3.953c.015.27.044.47.088.598.044.125.194.224.44.286.144.04.35.073.612.106.26.03.545.056.846.077.3.02.614.032.94.044.325.017.63.02.903.02.994 0 1.784-.04 2.367-.13.58-.09 1.077-.227 1.483-.407.694-.294 1.25-.72 1.666-1.27.422-.553.63-1.222.63-2.02.002-.778-.22-1.488-.663-2.124zm-5.953-5.935c.236-.034.48-.056.73-.056.234 0 .488.025.753.085.27.055.516.188.74.403.336.35.506.82.506 1.41 0 .526-.108.93-.335 1.21-.222.278-.484.48-.793.6-.308.12-.615.185-.915.19-.3.006-.53.003-.688-.01v-3.833z" fill="#046799"/></g></svg>