<svg xmlns="http://www.w3.org/2000/svg" viewBox="0 0 140 105" enable-background="new 0 0 140 105"><g><path d="M116.904 39.518c1.438-.403 2.924-.707 4.422-.698.128 4.38-.026 8.766.08 13.15 1.197-1.573 2.17-3.293 3.24-4.95.38-.503.703-1.157 1.353-1.347.514-.068 1.04-.03 1.56-.04.748.01 1.514-.075 2.246.13-.01.33.05.695-.143.99-.42.702-.915 1.356-1.314 2.072-.557.8-1.017 1.66-1.565 2.463-.307.447-.565.924-.797 1.413 1.196 2.432 2.82 4.626 4.014 7.055-.083.134-.165.27-.243.405-1.303.255-2.618.026-3.927.002-.18-.128-.362-.254-.545-.378-.613-.974-1.196-1.965-1.78-2.955-.663-1.14-1.394-2.24-2.046-3.382-.134.54-.288 1.084-.278 1.648-.008 1.722.012 3.445-.005 5.168-1.42.048-2.837.01-4.255.026-.07-3.544-.01-7.09-.03-10.637.002-3.38-.015-6.757.01-10.135zM52.36 39.097c.92-.122 1.884-.414 2.79-.068.036 2.223-.05 4.45.05 6.672 1.94-.316 3.955-.556 5.894-.1 1.015.357 1.99 1.03 2.472 2.02.258.642.257 1.352.302 2.03.008 3.118-.003 6.235.005 9.352.003.488-.045.973-.076 1.46-1.486-.007-2.973.022-4.458-.02 1.452-.043 2.906.027 4.36-.03l-.05-.165c-1.415-.11-2.843-.01-4.264-.054-.002-3.167.002-6.333.002-9.5-.002-.618-.23-1.34-.856-1.584-1.077-.323-2.27-.12-3.245.418-.202 1.185-.113 2.39-.13 3.585.013 2.486-.036 4.973.038 7.455-1.358-.267-2.754-.006-4.127-.13 1.29-.036 2.587.045 3.875-.066l.095-.107c-.273-.106-.58-.056-.865-.07-1.182.028-2.366-.037-3.546.052.014-6.35.003-12.7.006-19.05.008-.554-.027-1.106.027-1.658.503-.307 1.13-.325 1.7-.445zM10.007 45.338c1.28.035 2.61-.17 3.827.338l.31.628c1.108-.322 2.21-.68 3.345-.895.528-.11 1.065-.02 1.586.087.25 1.146.378 2.323.334 3.497-1.67.11-3.352.412-4.866 1.148-.06 3.37-.014 6.746-.02 10.118-1.505-.006-3.01-.012-4.515.002-.015-4.976-.01-9.95-.003-14.924zM37.805 46.745c1.256-1.074 2.963-1.46 4.585-1.415 1.78.018 3.58-.11 5.346.178.293 1.18.477 2.41.31 3.624-.428.044-.86.036-1.287-.015-1.49-.172-3.02-.38-4.51-.09-.462.05-.79.392-1.04.755.077.304.238.568.44.802 2.105.803 4.49.99 6.317 2.418.473.468.855 1.09.865 1.773.03 1.066.104 2.202-.41 3.18-.645 1.13-1.826 1.89-3.086 2.155-.773.1-1.557.115-2.336.166-1.936.01-3.89.06-5.802-.304-.264-1.12-.464-2.277-.38-3.432.094-.056.286-.17.383-.225 1.14.002 2.248.308 3.385.33 1.006.03 2.042.128 3.02-.164.328-.09.495-.414.71-.645-.183-.33-.377-.7-.77-.81-1.614-.617-3.372-.833-4.91-1.646-.826-.427-1.6-1.09-1.877-2.006-.398-1.58-.175-3.452 1.047-4.63zM80.562 45.338c1.184-.012 2.368-.018 3.552.008.297.272.544.592.713.96 1.583-.38 3.14-1.152 4.807-.927l.098.073c.074 1.124.012 2.253.027 3.38-.1.088-.197.175-.292.263-1.47.077-2.94.423-4.258 1.077-.217 3.368-.07 6.747-.12 10.12-1.51-.033-3.02-.012-4.53-.015.022-4.98.014-9.96.002-14.94z" fill="#636363"/><path d="M112.003 45.392c1.124-.017 2.25.04 3.374-.04.23 1.25.036 2.528.095 3.792-.85.08-1.705.047-2.557.047-1.05-.022-2.096.12-3.146.058 1.118.947 1.933 2.193 3.072 3.115.035.162.07.325.107.488-1.21 1.17-2.168 2.568-3.326 3.784 1.9.027 3.8.026 5.7-.01.11.33.18.673.162 1.023-.02.944.027 1.89-.044 2.833-3.78-.045-7.564.053-11.344-.05.042-1.077-.04-2.16.03-3.232.495-.65 1.056-1.252 1.55-1.903.75-.82 1.407-1.725 2.24-2.463-1.213-1.454-2.572-2.78-3.836-4.19.023-.993.05-1.988.008-2.98.035-.073.1-.22.134-.292 2.593.05 5.186.01 7.78.022z" fill="#04ADF0"/><path d="M21.322 55.543c-.008-3.39-.026-6.78.006-10.17 1.5.016 3 0 4.502.004.02 3.135 0 6.27.01 9.405-.01.63.18 1.42.857 1.64 1.134.402 2.398.15 3.448-.378.08-.5.098-1.007.1-1.513.02-3.048 0-6.097.018-9.144 1.51-.017 3.017 0 4.526-.01.01 4.943.013 9.887-.003 14.83-1.346.026-2.732.14-4.038-.254-.06-.183-.122-.364-.182-.545-1.9.752-3.966 1.318-6.02.945-1.37-.305-2.59-1.338-3.03-2.683-.107-.706-.208-1.413-.196-2.127z" fill="#636363"/><path d="M91.252 45.385c2.89-.057 5.78-.01 8.668-.024.917.024 1.842-.082 2.748.105-.042 1.256-.012 2.513-.02 3.77-1.883-.08-3.77-.05-5.65.016.414.428.81.874 1.232 1.294.03.044.094.128.124.17.593.58 1.175 1.18 1.71 1.812l-.01.29c-.682.963-1.54 1.786-2.266 2.715-.302.383-.648.726-.977 1.084 1.77.072 3.547-.053 5.314.076.168-.05.34-.094.513-.13.036 1.288-.038 2.578.056 3.863-.516.048-1.034.068-1.552.066-3.22-.012-6.44.005-9.66-.01-.23.043-.21-.268-.227-.407-.006-.906-.01-1.81 0-2.715-.006-.26.205-.442.347-.634.556-.648 1.098-1.308 1.664-1.948.58-.69 1.217-1.335 1.764-2.055-.64-.57-1.164-1.25-1.776-1.85-.664-.747-1.42-1.414-2.01-2.226.024-1.088 0-2.174.01-3.26z" fill="#04ADF0"/><path d="M75.33 45.498c-.085.236-.17.47-.253.708-1.17-.33-2.298-.892-3.538-.868-1.334-.017-2.846-.076-3.923.847-1.26 1.015-1.777 2.662-1.873 4.225-.06 1.658-.05 3.318-.026 4.976.01.94.177 1.876.465 2.77.427.747 1.102 1.296 1.87 1.667.824.314 1.71.402 2.585.435 1.302.023 2.616-.057 3.882-.37-.023.568.044 1.184-.252 1.698-.22.385-.636.613-1.063.684-1.4.266-2.833.12-4.242.023-.784-.054-1.58-.13-2.35.066 0 1.076-.14 2.178.133 3.234 1.995.584 4.092.63 6.155.565.99-.06 1.963-.292 2.9-.61.5-.237.952-.556 1.378-.908.233-.237.495-.447.7-.713h.035c.367-.662.758-1.33.918-2.08.267-.972.24-1.99.282-2.987.002-4.502-.002-9.003.002-13.505-1.258.06-2.545-.147-3.783.14zm-.805 10.364c-.957.642-2.156.864-3.275.584-.334-.118-.562-.4-.815-.63-.35-1.213-.276-2.496-.267-3.744.054-.818.003-1.755.593-2.406.714-.62 1.73-.445 2.592-.376.384.13.772.25 1.16.368.076 2.068.046 4.138.013 6.204z" fill="#636363"/></g></svg>