<svg xmlns="http://www.w3.org/2000/svg" viewBox="0 0 140 105" enable-background="new 0 0 140 105"><g fill="#0A75BC"><path d="M26.717 61.014v-5.02l-.438-.332.277-1.756-.32-.32-.444.413-.1-.635-1.28.28c-.557.546-1.213 1.163-1.4 2.108-.01.056-.05.113-.09.156-.728.78-1.002 1.784-1.378 2.74-.263.67-.592 1.318-.813 2-.284.876-.786 1.627-1.226 2.416-.104.187-.226.37-.372.526-.356.378-.757.716-1.092 1.11-.518.612-1.175 1.085-1.86 1.406-.76.357-1.574.812-2.538.362-.357-.167-.823-.186-1.204-.38-.754-.386-1.516-.755-2.214-1.24-.105-.073-.2-.163-.224-.184V62.69c.843.292.985 1.195 1.574 1.556.998.403 1.994.187 2.893.244.36-.186.65-.355.952-.487 1.318-.576 2.414-2.03 2.735-3.22.092-.342.325-.644.476-.97.552-1.2 1.082-2.41 1.513-3.66.186-.542.398-1.09.468-1.652.084-.675.28-1.31.552-2.01.336-.477.67-1.088 1.13-1.577 1.015-1.073 2-2.198 3.413-2.797.362-.154.688-.392 1.027-.59V43.08h4.458v1.997c.346-.11.612-.158.847-.273.958-.466 1.948-.787 3.003-.996 1.055-.21 2.14-.306 3.164-.59 1.357-.375 2.725-.817 3.847-1.756.113-.095.26-.147.41-.23l1.55-3.386c-.81-.747-1.452-1.66-1.528-2.86.242-.276.462-.45.825-.196.263.184.58.29.87.428l.32-.92h.838l.857.968c-.088.41.188.972-.137 1.436l.23.69c.046-.04.092-.077.163-.135.232.14.475.29.722.43.077.046.163.08.25.102.06.015.13.002.146.002l2.108 2.108.177.545-.424.846c-.274.075-.624.17-.99.267l-.14-.4c-.656.29-1.356.058-2.126.18l-.426 1.28c.5.626.642 1.062.65 1.864-.195.248-.35.515-.57.71-.225.195-.56.275-.763.485-.3.31-.528.688-.817 1.076-.077.517.27.948.526 1.386.37.633.816 1.222 1.233 1.835 0 .19.05.402-.01.575-.123.356-.193.697-.643.915-.835.404-1.62.87-2.584.735l-.302-.32.306-1.045.178.178.76-.492-.938-1.408-.322-.018c-.35.46-.63.996-1.235 1.193-.78.92-1.727 1.61-2.844 2.07-.25.102-.48.25-.796.416.875 1.348 1.76 2.73 2.663 4.098.91 1.38 1.83 2.75 2.754 4.12.92 1.365 1.846 2.725 2.817 4.158.143-.21.334-.38.383-.583.49-2.025 1.33-3.935 1.995-5.9.51-1.502 1.06-3 1.592-4.498.645-1.812 1.273-3.632 1.913-5.445.528-1.498.995-3.024 1.613-4.492.15-.36.244-.743.373-1.147h5.473c.36 1.024.718 2.045 1.08 3.065.322.906.676 1.8.968 2.716.466 1.462 1.01 2.896 1.494 4.35.53 1.598 1.01 3.218 1.65 4.772.71 1.725 1.045 3.583 1.927 5.24.044.7.445 1.302.58 2.017h-5.038c-.46-1.51-.935-3.064-1.41-4.626h-7.99l-1.584 4.655h-10.63c-1.905-2.64-3.58-5.482-5.494-8.28-.575.575-1.102 1.135-1.665 1.657-.81.75-1.438 1.597-1.886 2.63-.36.828-.98 1.543-1.486 2.307-.018.027-.042.052-.07.068-.71.422-1.11 1.11-1.51 1.816.25.516.648 1.035.74 1.603.155.972 1.035 1.72.77 2.82-.075.026-.188.065-.312.11-.03.172-.058.35-.093.558l-.24-.218-.144.143c-.523-.187-.568-.728-.923-1.267l.087.915-.797.57c-.168-.034.005-.486-.357-.364-.175-.622-.688-1.09-.85-1.683-.134-.482-.4-.836-.68-1.18-.505-.625-.878-1.32-1.216-2.034-.125-.264-.136-.58-.205-.9l.197-.615c.42-.42.91-.893 1.38-1.385.43-.457.964-.83 1.26-1.526zm26.878-4.156h5.475l-2.66-8.59c-.1.188-.224.34-.263.51-.12.53-.48 1.002-.397 1.583-.624 1.434-1.028 2.942-1.5 4.426l-.655 2.072zM72.134 50.898v14.33h-4.282V43.092h4.926c2.836 4.662 5.65 9.364 8.66 14.173V43.06c1.443-.01 2.853-.002 4.292-.005v22.17h-4.328l-9.13-14.378c-.045.017-.09.034-.138.05zM107.428 50.05h-4.877v-.537c-.41-.777-.844-1.384-1.408-1.894-.53-.48-1.255-.61-1.86-1.055-.352-.02-.742-.01-1.14-.17-.306-.125-.752-.135-1.05-.003-.62.274-1.32.15-1.923.542-.656.426-1.407.797-1.948 1.61-.438.658-.93 1.278-1.1 2.08-.1.475-.313.92-.33 1.423-.014.365-.145.724-.18 1.09-.03.353.03.717-.013 1.07-.115.9.074 1.784.236 2.64.177.932.568 1.835 1.105 2.652.51.774 1.147 1.408 1.92 1.915.468.306.966.5 1.528.55.27.024.528.15.797.18.29.033.588.04.875 0 .423-.06.84-.17 1.295-.265 1.19-.524 2.33-1.186 2.966-2.445.36-.714.73-1.43.554-2.313h-4.717c-.047-.053-.072-.075-.088-.102-.016-.025-.03-.056-.03-.084-.003-1.1-.002-2.198-.002-3.22.19-.354.448-.333.71-.333 1.884.004 3.767.002 5.65.002h2.953V65.25h-3.834c-.088-.572.13-1.21-.36-1.765-.182.207-.366.424-.558.634-.985 1.075-2.29 1.44-3.658 1.76-1.12.26-2.23.196-3.333.14-1.115-.055-2.176-.49-3.176-1.005-.52-.268-1.01-.593-1.428-1.024-.836-.863-1.74-1.662-2.344-2.73-.582-1.03-1.078-2.083-1.346-3.243-.19-.816-.48-1.61-.383-2.47-.38-.658-.255-1.394-.165-2.058.144-1.06.202-2.136.533-3.18.31-.98.613-1.953 1.157-2.834.635-1.028 1.283-2.01 2.31-2.748.802-.576 1.614-1.08 2.503-1.5.587-.276 1.204-.4 1.816-.554 1.32-.334 2.672-.226 4.008-.18.907.03 1.778.36 2.644.65 1.223.413 2.275 1.06 3.173 1.996.695.726 1.418 1.424 1.773 2.387.22.594.52 1.17.523 1.834-.002.197.122.396.222.69zM116.786 43.06h5.49c.597 1.692 1.197 3.387 1.793 5.084.676 1.926 1.38 3.844 2.01 5.785.27.828.573 1.65.847 2.475.26.786.393 1.65.92 2.34.277 1.24.753 2.413 1.17 3.605.327.935.657 1.87.983 2.798-.03.035-.045.064-.07.083-.022.02-.052.04-.08.04h-4.895c-.478-1.565-.95-3.118-1.42-4.654h-7.994c-.515 1.53-1.033 3.064-1.56 4.625h-4.936c.352-1.067.63-2.195 1.092-3.24.586-1.32.877-2.74 1.505-4.052.343-.714.507-1.537.777-2.304.26-.736.566-1.456.803-2.198.23-.718.466-1.422.757-2.12.307-.74.505-1.54.78-2.306.262-.735.556-1.46.8-2.198.236-.715.405-1.44.77-2.118.25-.468.3-1.043.46-1.644zm5.414 13.798l-2.635-8.528c-.06.057-.165.108-.19.185-.88 2.766-1.754 5.534-2.64 8.343h5.465z"/></g></svg>