<svg xmlns="http://www.w3.org/2000/svg" viewBox="0 0 140 105" enable-background="new 0 0 140 105"><g><path d="M29.623 69.337l-3.63.64c-.035-.637-.01-1.255-.015-1.873-.004-.614 0-1.228 0-1.842V51.374l-.062-.005c-.038.257-.077.515-.112.773-.174 1.288-.345 2.577-.52 3.866-.174 1.287-.353 2.575-.527 3.863-.192 1.415-.38 2.83-.57 4.247l-.528 3.864c-.1.717-.196 1.433-.29 2.15-.04.303-.036.308-.353.364-1.08.193-2.163.384-3.244.575-.026.005-.054-.002-.117-.005l-2.62-18.47-.047.003v18.96l-3.22.57V46.935l5.584-.985c.77 5.905 1.54 11.793 2.307 17.68h.05c.794-6.16 1.586-12.32 2.383-18.513l5.505-.972c.057.222.082 24.493.025 25.192zM47.022 56.165V66.27l-3.73.658v-25.19l1.28-.23c1.622-.286 3.245-.573 4.868-.855.772-.134 1.545-.186 2.316.015.844.22 1.438.735 1.797 1.526.21.464.32.955.37 1.458.032.318.045.64.046.96.004 1.567.004 3.133 0 4.7-.003.578-.056 1.152-.202 1.714-.255.98-.797 1.76-1.632 2.332l-.236.163c.093.028.155.053.22.064 1.333.225 1.678 1.08 1.808 1.915.045.287.065.582.065.874.005 2.803.003 5.607.003 8.41v.255l-3.738.66v-.342c0-2.666 0-5.332-.002-7.998 0-.22-.004-.442-.044-.656-.122-.645-.52-.948-1.175-.876-.454.05-.904.14-1.355.216-.206.036-.412.076-.66.12zm.017-3.368c.27-.046.522-.082.77-.13.448-.09.905-.15 1.34-.283.63-.193.97-.657 1.048-1.31.02-.163.033-.328.033-.493.003-1.7.003-3.404 0-5.106 0-.164-.012-.33-.036-.492-.08-.55-.42-.838-.976-.836-.09 0-.183.007-.273.022-.55.095-1.1.193-1.648.29-.087.016-.173.036-.26.053.002 2.77.002 5.512.002 8.287zM74.753 72.554v-.373c0-2.665.002-5.332-.003-7.998 0-.245-.02-.497-.075-.735-.115-.498-.426-.745-.937-.768-.172-.008-.348.01-.52.04-.558.09-1.115.19-1.698.293v10.11l-3.734.658V48.593l.87-.16 5.166-.908c.66-.116 1.323-.185 1.995-.09 1.113.158 1.89.74 2.3 1.793.216.552.323 1.13.327 1.72.013 1.868.01 3.737.002 5.606-.002.467-.082.93-.205 1.382-.255.95-.79 1.702-1.596 2.262l-.202.14c-.007.006-.01.016-.033.05.115.026.222.054.33.076.86.175 1.407.687 1.6 1.54.09.398.143.814.145 1.222.012 2.795.007 5.59.007 8.384v.284l-3.74.66zm-3.22-21.198v8.3c.505-.09.992-.168 1.476-.263.25-.05.503-.103.74-.195.475-.184.775-.542.894-1.037.043-.175.066-.36.066-.542.005-1.813.004-3.626 0-5.44 0-.154-.02-.31-.054-.462-.103-.45-.396-.69-.855-.706-.136-.005-.276-.006-.41.017-.612.104-1.224.216-1.857.33zM55.358 55.045l3.633-.64v.352c0 1.585 0 3.17.004 4.755 0 .21.018.423.067.625.1.416.404.655.834.665.517.012 1.023-.08 1.507-.258.628-.23.883-.732.933-1.365.007-.092.007-.184.007-.276 0-1.1.003-2.2-.002-3.298 0-.2-.02-.402-.047-.602-.054-.417-.243-.767-.577-1.026-.173-.134-.357-.257-.546-.367-1.243-.72-2.49-1.438-3.733-2.158-.15-.087-.297-.18-.442-.277-.954-.637-1.47-1.535-1.578-2.67-.026-.273-.05-.548-.052-.822-.004-1.31-.005-2.62.003-3.93.003-.56.087-1.114.237-1.654.407-1.468 1.322-2.493 2.73-3.057.465-.186.956-.32 1.447-.422.76-.155 1.53-.275 2.3-.384.528-.075 1.06-.052 1.584.07.914.21 1.552.748 1.923 1.606.25.58.367 1.195.374 1.82.02 1.63.01 3.26.012 4.89 0 .028-.008.055-.018.12l-3.654.645v-.326c0-1.337.003-2.674-.003-4.012 0-.21-.015-.423-.062-.626-.103-.438-.39-.683-.842-.687-.515-.005-1.024.08-1.5.288-.454.2-.703.572-.787 1.054-.028.162-.04.328-.04.492-.005.924-.008 1.85 0 2.775.003.236.035.475.08.707.077.396.3.703.63.933.11.08.23.15.347.22 1.268.733 2.538 1.463 3.803 2.2.252.148.497.312.73.487.778.58 1.194 1.372 1.313 2.325.035.29.06.584.062.876.005 1.567.004 3.133 0 4.7-.003.56-.088 1.114-.24 1.654-.414 1.465-1.34 2.47-2.742 3.05-.666.276-1.366.41-2.07.53-.522.092-1.044.19-1.57.26-.528.07-1.058.077-1.587-.017-1.046-.186-1.754-.776-2.135-1.765-.2-.52-.28-1.06-.317-1.61-.01-.173-.01-.348-.01-.522V55.37c-.002-.096-.002-.196-.002-.325zM38.256 63.86c-1.3.23-2.567.452-3.863.68l-.458 4.038c-1.154.203-2.278.4-3.385.596-.028-.025-.035-.03-.04-.037-.006-.007-.013-.015-.013-.023.01-.12.017-.238.033-.355 1.144-8.447 2.29-16.893 3.435-25.34.003-.024.023-.047.04-.084l4.924-.867 3.52 24.607c-1.238.22-2.45.433-3.702.654l-.492-3.87zm-.418-3.354l-1.503-12.218h-.05l-1.473 12.75 3.026-.532zM88.24 44.984v3.496l-4.536.803v7.113l4.33-.76c.06.208.07 3.2.01 3.493l-4.344.767v7.58c1.544-.27 3.07-.54 4.617-.81v3.495l-8.357 1.473V46.44c2.753-.482 5.506-.967 8.28-1.456zM89.623 69.934V44.74c2.753-.484 5.506-.97 8.282-1.46v3.497l-4.533.802v7.11l4.362-.764v3.495l-4.362.773v7.573c1.537-.246 3.057-.543 4.607-.797v3.488c-2.768.497-5.55.98-8.357 1.476zM107.126 66.85l-7.822 1.38V43.036l3.716-.657v21.694l4.106-.718v3.494zM22.664 37.395l-2.605.458v6.64l-1.62.287V30.244l1.61-.287v6.33c.883-.154 1.728-.303 2.595-.456v-6.328l1.612-.284v14.536l-1.593.284v-6.643zM121.704 53.182l1.928-.338c.24 1.386.45 2.766.673 4.143.224 1.382.445 2.764.7 4.15.02-.062.048-.124.058-.19.263-1.727.524-3.456.786-5.184.162-1.077.328-2.153.49-3.23.015-.095.032-.176.15-.196.57-.094 1.138-.193 1.706-.29.016-.002.034.008.067.017V63.1c-.036.017-.067.04-.1.046l-1.088.19v-8.717l-.063-.005-1.406 8.98-1.255.224c-.184-.95-.32-1.896-.48-2.837-.162-.947-.313-1.896-.47-2.844-.157-.948-.315-1.895-.518-2.84v8.774l-1.184.212c-.02-3.72.01-7.404.006-11.104zM25.345 29.024l4.41-.777.004.778v.762c-.948.17-1.872.334-2.808.5v4.802l2.69-.468v1.518l-2.69.48v5.115l2.795-.488c.06.2.076 1.057.028 1.537l-4.43.78v-14.54zM116.404 59.638c0-1.135-.005-2.27.003-3.405.002-.282.024-.568.075-.845.148-.8.628-1.325 1.396-1.58.48-.16.976-.242 1.48-.266.136-.007.276 0 .41.023.604.11.97.522 1.064 1.2.03.207.043.418.044.628.003 2.316.005 4.632-.002 6.948 0 .3-.03.606-.092.9-.144.683-.552 1.166-1.2 1.43-.556.23-1.146.33-1.742.337-.803.01-1.282-.427-1.392-1.223-.03-.217-.043-.438-.044-.657-.003-1.164 0-2.326 0-3.49zm1.243-.207v3.546c0 .12 0 .24.02.356.055.327.267.504.598.473.254-.024.508-.073.754-.14.368-.097.557-.362.605-.732.012-.09.01-.183.01-.274.002-2.383.002-4.764 0-7.146 0-.09 0-.184-.012-.274-.05-.338-.24-.51-.577-.494-.218.01-.437.047-.65.095-.502.114-.728.397-.747.91-.004.08-.003.164-.003.246v3.435zM15.36 45.324l-1.62.284c-.013-2.178.002-4.334 0-6.49V32.63c-.716.084-1.397.25-2.106.348v-1.532c1.923-.35 3.857-.683 5.786-1.023.066.198.082 1.116.03 1.534l-2.09.375v12.992zM114.172 61.343c.396-.07.77-.14 1.162-.21.014.043.033.075.033.107-.003.843.02 1.687-.02 2.527-.05 1.052-.606 1.72-1.622 1.99-.413.11-.844.185-1.27.202-.855.034-1.355-.426-1.452-1.278-.02-.163-.028-.33-.028-.493-.002-2.374-.002-4.746 0-7.12 0-.33.028-.657.128-.975.165-.524.478-.93.972-1.17.663-.322 1.372-.453 2.106-.397.53.04.882.342 1.04.845.066.216.11.448.115.673.016.687.008 1.374.008 2.06 0 .036-.01.072-.018.134l-1.174.21c-.005-.103-.014-.182-.014-.26v-1.677c0-.082.002-.165-.006-.247-.04-.41-.284-.606-.69-.552-.164.022-.327.05-.488.086-.48.105-.724.398-.74.886-.003.046-.002.092-.002.137-.002 2.354-.004 4.71-.003 7.063 0 .155.003.314.036.463.06.274.23.427.505.406.298-.022.6-.075.886-.16.297-.086.46-.322.505-.627.02-.145.03-.292.032-.438.003-.623 0-1.246 0-1.87v-.32zM109.788 64.534v1.847c-.39.07-.763.135-1.16.205v-1.838l1.16-.213z"/></g></svg>