<svg xmlns="http://www.w3.org/2000/svg" viewBox="0 0 140 105" enable-background="new 0 0 140 105"><g><path d="M48.94 94.16c0 .23-.082.428-.247.593-.164.165-.362.247-.594.247-.232 0-.43-.082-.595-.247-.165-.165-.247-.363-.247-.594V84.07c0-1.627.574-3.014 1.724-4.163 1.15-1.15 2.537-1.724 4.162-1.724 1.626 0 3.013.575 4.162 1.724 1.15 1.15 1.724 2.537 1.724 4.162s-.575 3.012-1.724 4.16c-1.15 1.15-2.537 1.725-4.162 1.725-1.626 0-3.013-.574-4.162-1.724l-.042-.04v5.97zm0-10.09c0 1.162.41 2.154 1.23 2.974s1.81 1.23 2.975 1.23c1.163 0 2.155-.41 2.975-1.23s1.23-1.81 1.23-2.975c0-1.164-.41-2.156-1.23-2.976s-1.81-1.23-2.975-1.23c-1.163 0-2.155.41-2.975 1.23s-1.23 1.812-1.23 2.975zm14.505-8.41c0 .287-.103.534-.31.74-.207.208-.454.31-.74.31-.288 0-.535-.102-.742-.31-.207-.206-.31-.453-.31-.74s.103-.534.31-.74c.207-.208.454-.31.74-.31.288 0 .535.102.742.31.207.206.31.453.31.74zm-1.892 3.364c0-.23.082-.43.247-.594.165-.165.363-.247.594-.247s.43.082.594.247c.165.165.247.363.247.594v10.09c0 .23-.082.43-.247.594-.165.165-.363.247-.594.247s-.43-.082-.594-.247c-.165-.165-.247-.363-.247-.594v-10.09zm8.148 5.034l-3.75-4.488c-.134-.154-.2-.336-.2-.547 0-.23.08-.43.246-.594.165-.166.363-.248.594-.248s.438.088.62.263l3.584 4.3 3.584-4.3c.182-.175.39-.263.62-.263.23 0 .43.082.594.247.165.164.247.362.247.593 0 .21-.068.393-.2.547l-3.753 4.488 3.784 4.54c.113.148.17.32.17.516 0 .23-.083.43-.248.594-.165.165-.363.247-.594.247-.23 0-.427-.084-.59-.252l-3.615-4.33-3.616 4.33c-.16.168-.357.252-.59.252s-.428-.082-.593-.247c-.165-.165-.247-.363-.247-.594 0-.196.056-.368.168-.515l3.786-4.542zm16.4 3.217c.154-.12.33-.18.526-.18.23 0 .43.083.594.248.165.165.247.363.247.594s-.08.43-.242.6c-1.086.945-2.365 1.418-3.836 1.418-1.627 0-3.014-.574-4.163-1.724-1.15-1.148-1.724-2.536-1.724-4.16 0-1.627.574-3.014 1.724-4.163 1.15-1.15 2.537-1.724 4.162-1.724s3.012.575 4.16 1.724c1.15 1.15 1.725 2.537 1.725 4.162 0 .23-.082.428-.247.593-.165.165-.363.247-.594.247h-9.176c.154.806.54 1.517 1.156 2.134.82.82 1.81 1.23 2.975 1.23 1.05 0 1.953-.334 2.71-1zm1.42-4.047c-.155-.806-.54-1.517-1.157-2.134-.82-.82-1.81-1.23-2.975-1.23-1.163 0-2.155.41-2.975 1.23-.617.617-1.002 1.328-1.156 2.134h8.262zm4.277-9.25c0-.23.082-.428.247-.593.165-.165.363-.247.594-.247.23 0 .43.082.594.247.165.165.247.363.247.594v15.134c0 .23-.083.43-.248.594-.165.165-.363.247-.594.247-.23 0-.43-.082-.594-.247-.165-.165-.247-.363-.247-.594V73.98z" fill="#c00"/><path fill="#E51937" d="M81.194 48.367L75.47 58.934l13.65 7.926 6.604-11.448-5.284-3.522z"/><path d="M89.12 67.128c-.048 0-.095-.013-.136-.036l-13.65-7.925c-.124-.073-.17-.233-.1-.36l5.723-10.568c.065-.12.208-.17.333-.124l9.246 3.522 5.337 3.55c.118.08.155.236.084.36l-6.604 11.446c-.036.062-.095.107-.164.125-.025.005-.048.008-.07.008zm-13.29-8.295l13.19 7.66 6.345-10.996-5.074-3.382-8.97-3.412-5.49 10.13zM82.273 47.136l12.01 6.324-.25.476-12.01-6.324zM93.776 53.57l.467.27-6.864 11.965-.467-.267zM81.983 47.273l.466.268-6.864 11.968-.467-.268zM75.468 59.313l12.01 6.323-.252.476-12.008-6.323zM95.912 56.267l.47.26-6.227 11.253-.47-.26zM94.226 53.55l2.136 2.69-.422.336-2.136-2.69zM80.005 62.492l9.887 5.076-.246.478-9.887-5.075zM75.454 59.4l4.59 3.12-.303.445-4.59-3.12zM91.148 52.42c-.082-.1-.228-.267-.403-.468-.523-.597-1.238-1.415-1.515-1.907-.22-.392-.184-.68-.153-.91.027-.2.044-.334-.097-.56-.224-.357-.767-.89-1.246-1.363-.297-.293-.575-.567-.76-.78-.232-.267-.35-.49-.445-.668-.117-.218-.186-.35-.408-.49-.218-.137-.564-.22-.93-.306-.383-.09-.777-.183-1.12-.357-.325-.163-.64-.44-.942-.706-.274-.24-.614-.54-.786-.56h-.006c-.057 0-.117.093-.228.294-.13.236-.29.53-.615.66-.693.275-1.713.258-2.12.237-.552-.028-1.355-.217-1.887-.342-.183-.043-.334-.08-.432-.098l.1-.528c.103.02.263.057.456.102.512.12 1.287.302 1.79.328.76.038 1.487-.04 1.894-.2.144-.058.24-.233.343-.42.143-.26.344-.617.766-.568.34.04.682.34 1.08.69.278.245.566.498.83.63.285.146.648.23 1 .314.41.097.8.19 1.095.374.344.217.467.448.597.693.09.17.184.348.376.568.178.205.446.468.732.75.525.516 1.067 1.05 1.324 1.462.243.39.204.68.173.914-.026.198-.045.34.088.576.25.444.974 1.27 1.452 1.817.18.207.33.38.417.485l-.422.34zM76.91 45.68l-.536-.038c.002-.033-.005-.076-.01-.13-.027-.214-.07-.573.103-1.006.093-.234.24-.44.412-.68.234-.33.5-.702.72-1.272.28-.734.688-2.25.96-3.255.1-.37.18-.676.234-.86l.517.15c-.052.18-.133.483-.232.85-.273 1.013-.685 2.546-.976 3.306-.244.635-.544 1.055-.785 1.393-.15.21-.28.392-.35.566-.123.305-.093.548-.07.742.01.095.02.173.014.233zM82.798 57.56c-.453 0-.926-.265-1.505-.59-.197-.112-.406-.23-.632-.346l-.2-.103c-.965-.496-2.424-1.248-3.285-1.925-.53-.417-.85-.858-1.158-1.286-.248-.342-.48-.665-.823-.99-.793-.755-2.053-1.822-2.825-2.31-.377-.238-.695-.298-1.003-.355-.303-.057-.617-.116-.933-.338-.71-.5-1.362-1.482-1.545-1.77-.264-.418-.373-.898-.445-1.216-.022-.096-.04-.176-.057-.23l.51-.175c.022.068.046.167.073.287.065.282.16.707.376 1.047.348.55.898 1.265 1.398 1.616.22.155.444.196.725.25.34.063.726.136 1.188.428.81.512 2.077 1.583 2.91 2.375.375.357.635.715.885 1.06.3.417.586.81 1.057 1.18.82.645 2.25 1.383 3.2 1.87l.2.104c.23.12.447.24.65.355.568.32 1.02.577 1.34.513.393-.072.827-.748.954-1.303.117-.516-.113-1.193-.358-1.843-.258-.68-.695-1.464-1.17-2.097-.4-.534-.902-1-1.433-1.493l-.315-.294c-.29-.27-.597-.525-.91-.78-.363-.3-.74-.61-1.092-.953-.153-.15-.308-.29-.462-.428-.497-.45-1.01-.913-1.453-1.667-.42-.72-.896-2.058-1.21-2.945-.113-.315-.206-.576-.27-.734l.5-.2c.066.163.16.43.276.755.308.868.772 2.18 1.168 2.854.4.683.862 1.1 1.35 1.54.16.145.32.29.477.444.337.328.705.63 1.06.922.322.263.64.526.936.804l.313.29c.525.488 1.068.993 1.498 1.566.503.67.968 1.504 1.242 2.228.275.727.53 1.492.38 2.153-.145.634-.668 1.583-1.38 1.715-.07.01-.135.016-.202.016zM68.935 50.636c-.1 0-.2-.004-.3-.01-1.256-.1-2.998-.605-4.234-1.23-.877-.445-1.588-1.125-2.215-1.725-.24-.228-.473-.452-.706-.654-.63-.546-1.358-1.238-1.838-1.696-.175-.167-.32-.305-.42-.397l.367-.394c.1.092.246.232.424.4.476.456 1.197 1.143 1.818 1.68.24.208.48.437.726.673.63.602 1.28 1.224 2.087 1.632 1.162.588 2.86 1.082 4.034 1.174.87.073 1.918-.24 2.613-.44.27-.08.494-.143.646-.172l.097.53c-.14.026-.345.086-.594.158-.66.19-1.62.47-2.508.47zM76.157 56.91c-.045-.076-.114-.202-.195-.354-.222-.41-.557-1.027-.807-1.34-.183-.23-.362-.36-.568-.512-.158-.116-.338-.247-.53-.433-.31-.303-.793-.833-1.113-1.183l-.275-.3.39-.368.28.304c.317.346.794.87 1.094 1.162.163.16.32.274.47.384.218.16.444.324.67.61.28.35.63.994.86 1.42.078.144.143.263.186.337l-.463.273zM68.38 51.853c-.4 0-.852-.015-1.32-.068l-.45-.05c-1.142-.122-2.563-.275-3.857-.706-1.46-.488-3.305-1.448-4.486-2.183-1.24-.773-1.915-1.44-2.544-2.203-.3-.365-.333-.604-.364-.835-.043-.317-.097-.71-1.175-1.893-1.19-1.304-3.892-3.915-6.276-6.218-1.226-1.185-2.343-2.264-3.077-2.995-1.585-1.58-2.42-2.46-2.974-3.043-.198-.207-.36-.378-.51-.533l.384-.377c.152.156.316.33.515.538.55.582 1.383 1.46 2.963 3.033.733.73 1.848 1.807 3.07 2.99 2.39 2.308 5.1 4.925 6.3 6.242 1.19 1.307 1.256 1.793 1.31 2.184.026.197.042.316.245.563.613.743 1.23 1.352 2.413 2.088 1.155.72 2.954 1.656 4.372 2.13 1.24.413 2.627.562 3.743.682l.454.05c.822.092 1.602.063 2.12.045.197-.007.36-.01.48-.01l-.008.537c-.107 0-.266.004-.453.01-.243.008-.544.02-.88.02zM93.072 53.415l-.297-.448c.074-.05.17-.082.292-.124.21-.072.558-.192.596-.378.054-.27-.118-.837-.27-1.338-.062-.207-.124-.413-.175-.608-.092-.35-.223-.755-.35-1.146-.136-.423-.265-.823-.34-1.135-.073-.302-.067-.523-.063-.7.005-.194.008-.322-.083-.508-.088-.18-.23-.324-.41-.507-.204-.21-.46-.472-.726-.88-.484-.74-1.435-2.36-1.813-3.123-.207-.417-.22-.702-.23-.91-.01-.18-.012-.24-.114-.34-.14-.14-.303-.193-.574-.282-.272-.09-.61-.202-1.07-.448-.417-.224-1.052-.598-1.71-.986-.794-.47-1.618-.954-2.117-1.21-.46-.234-.707-.292-.946-.35-.226-.052-.44-.102-.76-.282-.3-.17-.618-.43-.926-.685-.35-.29-.713-.588-1.033-.74-.612-.286-.952-.443-1.76-.363-.323.033-.65.164-1.03.316-.564.227-1.268.51-2.283.598-1.456.127-4.74.28-6.742-.046-1.325-.216-2.51-.812-3.46-1.29-.414-.208-.772-.388-1.068-.5-.452-.17-.687-.21-.876-.24-.226-.038-.404-.068-.714-.28-.398-.27-.883-.846-1.236-1.268-.113-.135-.207-.247-.27-.313l.392-.37c.067.07.168.19.29.337.315.375.79.94 1.126 1.17.213.143.303.158.5.19.2.034.476.08.978.27.323.12.692.307 1.12.522.918.462 2.06 1.037 3.305 1.24 1.808.295 4.942.187 6.61.042.934-.082 1.57-.336 2.13-.56.416-.168.775-.313 1.173-.353.92-.09 1.352.088 2.044.413.382.18.77.5 1.147.81.304.25.59.486.85.63.253.144.415.182.618.23.244.058.548.13 1.066.394.513.262 1.343.752 2.146 1.225.65.383 1.277.753 1.69.975.418.225.732.328.984.412.298.097.556.183.785.41.248.25.26.487.27.695.008.178.017.38.175.697.37.748 1.305 2.338 1.78 3.067.24.364.465.595.663.8.204.208.38.39.506.644.15.304.144.535.138.758-.004.162-.008.33.048.56.07.297.2.69.33 1.097.13.4.263.815.357 1.173.05.188.11.387.17.587.187.617.364 1.2.282 1.6-.098.488-.63.67-.948.78-.072.026-.134.044-.17.065zM64.262 35.326c-.394-.457-1.06-1.223-1.863-2.15-2.217-2.55-5.565-6.406-7.094-8.244-1.42-1.707-2.154-2.733-2.745-3.558-.267-.375-.5-.7-.752-1.024-.582-.747-.878-1.09-1.077-1.322-.072-.084-.133-.155-.19-.224l.416-.34c.054.065.112.132.182.213.203.235.504.583 1.095 1.343.255.328.493.66.766 1.04.584.82 1.313 1.836 2.72 3.528 1.525 1.833 4.87 5.686 7.085 8.236.805.926 1.47 1.693 1.865 2.15l-.408.352zM88.905 51.457l-.29-.36c-.33-.406-.812-1.002-1.194-1.485-.18-.23-.354-.498-.53-.77-.327-.506-.663-1.028-1.064-1.305-.335-.232-.774-.3-1.238-.37-.364-.056-.742-.113-1.085-.258-.563-.24-1.244-.686-1.696-.982-.156-.103-.285-.187-.372-.24l.273-.462c.092.054.23.144.394.252.435.285 1.092.716 1.61.934.282.118.61.17.957.22.504.078 1.025.158 1.462.46.488.338.855.906 1.21 1.455.166.26.33.513.5.73.38.48.86 1.073 1.188 1.48l.292.36-.417.34zM79.246 48.072l-.39-.37c.077-.082.21-.21.37-.362.425-.406 1.066-1.02 1.34-1.447.263-.414.4-1.01.49-1.404.038-.16.07-.294.098-.38l.51.17c-.025.075-.05.19-.083.33-.098.43-.248 1.08-.562 1.573-.308.482-.978 1.123-1.422 1.546-.15.143-.276.263-.35.342zM94.74 55.044c-.02-.1-.047-.25-.08-.432-.084-.492-.21-1.234-.375-1.758-.163-.526-.493-1.256-.71-1.74-.082-.177-.147-.324-.188-.42l.498-.207c.04.094.102.235.18.406.224.495.562 1.244.735 1.802s.305 1.32.392 1.826c.03.176.055.32.074.416l-.527.108zM83.03 43.326l-.526-.107c.018-.09.057-.228.104-.396.12-.42.3-1.055.28-1.44-.02-.38-.254-.878-.41-1.208-.063-.136-.115-.25-.142-.325l.507-.178c.023.065.07.16.123.276.173.368.434.924.458 1.408.025.475-.162 1.134-.3 1.615-.04.152-.077.276-.093.356zM86.65 45l-.488-.228c.334-.717.755-1.372 1.254-1.95l.406.353c-.465.54-.86 1.152-1.172 1.824zM89.48 48.648l-.52-.133c.18-.702.742-1.222 1.24-1.68l.21-.197.37.39-.216.2c-.464.43-.943.872-1.083 1.42zM81.675 48.118c-.46-.773-.93-1.195-1.4-1.255l.066-.534c.645.08 1.25.59 1.798 1.513l-.463.275zM73.118 52.84l-.206-.497.188-.077c.446-.183.906-.37 1.26-.666l.344.415c-.418.347-.918.55-1.4.748l-.186.078zM72.486 52.823c-.61-.003-1.16-.25-1.694-.49-.336-.152-.654-.296-.982-.38l.133-.52c.373.095.728.255 1.07.41.504.226.98.44 1.476.443l-.004.537zM69.523 51.824l-.206-.498c.357-.15.69-.49.987-1.014l.468.265c-.358.632-.778 1.052-1.25 1.247z"/><path d="M96.213 39.778l-.423-.332c4.718-6.024 1.72-17.294-3.92-23.64l.4-.358c5.783 6.505 8.825 18.097 3.943 24.33zM88.844 21.55c-.556-4.567-4.766-9.415-9.586-11.04l.173-.51c5.084 1.713 9.36 6.65 9.948 11.484l-.534.065z" fill="#666"/></g></svg>