<svg xmlns="http://www.w3.org/2000/svg" viewBox="0 0 140 105" enable-background="new 0 0 140 105"><g><path d="M49 67.91c0 1.706-1.384 3.09-3.09 3.09H15.09C13.384 71 12 69.616 12 67.91V37.09c0-1.706 1.384-3.09 3.09-3.09h30.82c1.707 0 3.09 1.384 3.09 3.09v30.82z" fill="#49B649"/><g fill="#fff"><path d="M27 50v-7h-6v20h6v-7h7v-6zM34 43h7v7h-7zM34 56h7v7h-7z"/></g><g fill="#333"><path d="M60.822 54.012l-1.695 1.825v4.52h-3.26v-15.82h3.26v7.17l1.434-1.966 4.032-5.204h4.01l-5.618 7.03 5.78 8.79h-3.878l-4.064-6.344zM74.016 60.357h-3.26v-15.82h3.26v15.82zM83.438 56.434l3.586-11.898h3.63l-5.51 15.82h-3.4l-5.488-15.82h3.618l3.564 11.898zM98.544 56.434l3.586-11.898h3.63l-5.51 15.82h-3.4l-5.488-15.82h3.618l3.564 11.898zM111.27 60.357h-3.26v-15.82h3.26v15.82zM119.8 54.012l-1.694 1.825v4.52h-3.26v-15.82h3.26v7.17l1.434-1.966 4.03-5.204h4.01l-5.617 7.03 5.78 8.79h-3.878l-4.064-6.344z"/></g></g></svg>