<svg xmlns="http://www.w3.org/2000/svg" viewBox="0 0 140 105" enable-background="new 0 0 140 105"><g><path d="M92.787 59.586c-.25-.212-.604-.224-.85-.448-.063-.057-.156-.08-.228-.126-.158-.102-.18-.314-.386-.404-.176-.077-.287-.29-.446-.42-.328-.27-.5-.66-.736-.994-.14-.197-.16-.51-.16-.77-.012-2.34-.008-4.68-.008-6.97.165-.363.38-.62.835-.784 1.2-.222 2.537-.08 3.868-.103 1.348-.022 2.697-.005 4.046-.005h3.34c.062.06.102.1.17.17v8.22c0 .678.045 1.36-.093 2.063l-.58.57h-8.773z" fill="#9C9B9B"/><path d="M21.81 45.414c.05.037.095.103.147.108.87.09 1.36.62 1.654 1.392.084.22.12.443.12.684-.012 1.31-.006 2.622-.006 3.933 0 .243-.174.856-.306 1.11-.257.49-.676.745-1.2.88-.228.06-.458.077-.683.122-.21.042-.413.102-.63.098-.244-.005-.488 0-.73 0h-7.872c-.01.01-.024.022-.034.038-.01.014-.018.032-.018.05v5.198H10v-13.61c3.935-.002 7.872-.002 11.81-.002zM21 47.358c-.504-.214-1.004-.14-1.495-.142-2.23-.005-4.46-.002-6.692-.002h-.552v4.612h.56c2.213 0 4.425.003 6.637-.002.51 0 1.028.07 1.413-.09l.524-.442c.12-1.198.148-2.4-.014-3.553l-.38-.382z" fill="#41C6F4"/><path d="M103.36 59.586l.56-.644v-.19c.466-.442.673-.995.7-1.605l.153-.154h3.972v-6.406h-3.798c-.164 0-.344.04-.452-.182-.017-.61-.043-1.25-.52-1.82h7.68l.25.273c.015.194.03.405-.102.605-.064.098-.097.226-.113.345-.02.148-.005.3-.005.45 0 1.742-.002 3.486.002 5.23 0 .274-.038.575.06.817.104.26-.078.562.163.776v1.1c-.208.213-.48.422-.45.79l-.483.48c-.084.085-.28-.08-.305.137h-7.31z" fill="#9C9B9B"/><path d="M44.284 58.914c-.106-.115-.148-.197-.212-.224-.595-.25-.776-.746-.904-1.336-.144-.663-.087-1.32-.093-1.98-.015-1.722-.01-3.445-.002-5.168.003-.573.113-1.126.447-1.61.08-.118.146-.283.26-.335.362-.165.725-.314 1.133-.39.718-.134 1.432-.077 2.148-.09.73-.016 1.462-.004 2.192-.004 1.498 0 2.997.02 4.494-.01.464-.01.9.12 1.358.14.24.01.493.167.708.307.325.213.522.553.63.913.057.196.137.393.136.624-.017 2.434-.01 4.87-.01 7.304 0 .503-.212.924-.52 1.3-.085.105-.22.18-.347.238-.167.076-.24.258-.416.326-.224.086-.448.11-.686.11-3.146-.003-6.293 0-9.44-.007-.3-.002-.604-.072-.874-.106zM54.42 49.48h-9.193c-.073 1.65-.045 7.27.034 7.725h9.16V49.48z" fill="#41C6F4"/><path d="M115.856 59.34V47.57h2.563v4.536c.38-.248.698-.45 1.01-.66.31-.208.615-.42.92-.633.32-.222.626-.47.96-.668.336-.2.624-.462.966-.652.338-.188.654-.415.976-.632.31-.208.613-.422.918-.635.32-.224.64-.45.93-.655h3.87c-1.416 1.076-2.895 1.905-4.28 2.87-1.386.967-2.834 1.842-4.253 2.756.6.372 1.16.734 1.734 1.07.577.335 1.116.726 1.694 1.062.438.255.863.543 1.298.81.584.356 1.132.768 1.74 1.093.463.248.89.567 1.334.852.192.123.39.236.582.36.134.087.35.167.372.28.04.2.202.178.295.264.127.12.282.208.514.373h-.472c-1.143 0-2.288-.03-3.43.014-.46.018-.852-.128-1.115-.416-.328-.36-.737-.576-1.114-.846-.676-.483-1.373-.936-2.064-1.396-.998-.665-2-1.325-3-1.99-.1-.068-.19-.155-.278-.228-.044.036-.06.045-.072.06-.01.012-.022.03-.022.045v4.736h-2.578z" fill="#2A2929"/><path d="M27.338 59.023V47.776h8.94c.396 0 .77.1 1.143.223.557.182 1.005.53 1.16 1.366.2 1.072.087 2.145.083 3.214-.002.533-.116 1.107-.594 1.486-.277.22-.582.373-.932.468-.397.108-.792.1-1.192.103-.315.002-.63 0-1.06 0 .303.227.43.48.718.59.128.05.212.207.322.31.5.464.984.947 1.507 1.385.617.516 1.237 1.027 1.814 1.59.154.15.208.39.55.493h-2.954c-.243-.268-.477-.548-.734-.806-1.176-1.184-2.357-2.36-3.547-3.55h-3.1v4.374h-2.125zm8.934-6.192c.24-.43.306-.846.277-1.285-.017-.242.006-.487-.006-.73-.045-.945-.33-1.335-1.364-1.347-1.74-.02-3.48-.005-5.218-.005h-.503v3.514c0 .016.01.034.02.048.01.015.025.025.04.038 1.85 0 3.702-.007 5.553.005.422.003.805-.12 1.2-.237zM67.31 53.287c.737.737 1.402 1.478 2.15 2.122.477.41.91.86 1.37 1.287.448.413.865.853 1.335 1.246.475.398.855.91 1.273 1.377.017.02-.003.07-.008.13h-2.698c-1.523-1.542-3.04-3.08-4.59-4.647-.29.32-.65.52-.813.912-.014.032-.053.053-.08.08L64.02 57.14l-1.484 1.627c0 .03-.004.1-.007.152l-.54.538H59.34c.074-.122.113-.214.175-.286 1.577-1.824 3.377-3.43 5.05-5.163.114-.12.232-.235.376-.38-.25-.255-.473-.504-.72-.725-.243-.218-.405-.53-.743-.644-.064-.02-.108-.1-.16-.154l-.16-.16-3.892-3.778c.014-.013.026-.028.042-.037.014-.008.032-.016.05-.016h2.792l3.95 4.11c.106-.104.187-.17.252-.25.055-.066.078-.16.136-.222.593-.637 1.195-1.266 1.786-1.905.528-.57 1.045-1.15 1.555-1.71h2.473l.012.076c0 .02.008.043 0 .055-.034.044-.072.085-.11.124l-4.895 4.895z" fill="#41C6F4"/><path d="M75.596 47.56h2.55v9.36c.03.034.042.05.057.06.014.01.032.018.048.018h8.556v2.335h-11.21V47.56z" fill="#2A2929"/></g></svg>