<svg xmlns="http://www.w3.org/2000/svg" viewBox="0 0 140 105" enable-background="new 0 0 140 105"><g><g><path d="M10.12 49.465c0-1.903-.06-3.426-.12-4.828h2.424l.12 2.524h.06c1.102-1.802 2.845-2.884 5.27-2.884 3.585 0 6.27 3.025 6.27 7.533 0 5.328-3.246 7.952-6.732 7.952-1.963 0-3.666-.86-4.568-2.324h-.06v8.053H10.12V49.466zm2.665 3.947c0 .4.06.76.12 1.102.5 1.863 2.124 3.145 4.047 3.145 2.845 0 4.508-2.325 4.508-5.73 0-2.966-1.563-5.51-4.407-5.51-1.843 0-3.546 1.322-4.067 3.346-.1.34-.18.74-.18 1.102v2.544h-.02zM27.55 49.245c0-1.743-.04-3.245-.12-4.628h2.343l.1 2.905h.12c.68-1.983 2.304-3.245 4.107-3.245.3 0 .52.04.76.1v2.544c-.28-.06-.56-.1-.92-.1-1.904 0-3.246 1.443-3.607 3.467-.06.36-.12.8-.12 1.262v7.892H27.55V49.245zM50.568 51.448c0 6.01-3.746 8.634-7.292 8.634-3.967 0-7.032-3.225-7.032-8.354 0-2.624.74-4.728 1.983-6.21 1.322-1.583 1.322-1.583 5.19-5.91 5.208 5.81 3.966 4.327 5.208 5.81 1.24 1.463 1.943 3.546 1.943 6.03zm-9.216.14c0 1.623.84 2.865 2.043 2.865 1.162 0 2.043-1.222 2.043-2.885 0-1.262-.56-2.865-2.023-2.865-1.442 0-2.063 1.483-2.063 2.885zM54.875 44.637l2.104 3.185c.54.82 1 1.583 1.502 2.424h.1c.48-.88.982-1.643 1.462-2.444l2.083-3.145h2.905l-5.048 7.152 5.21 7.652h-3.066l-2.164-3.346c-.58-.86-1.062-1.683-1.583-2.564h-.06c-.48.88-1 1.683-1.562 2.564l-2.144 3.346H51.65l5.268-7.553-5.028-7.253h2.985v-.02zM70.78 40.47c.04.922-.64 1.643-1.722 1.643-.942 0-1.623-.74-1.623-1.643 0-.942.7-1.683 1.683-1.683 1.022 0 1.663.74 1.663 1.683zm-2.984 18.972V44.637h2.684v14.805h-2.684zM74.948 48.644c0-1.523-.04-2.785-.12-4.007h2.364l.12 2.384h.1c.82-1.4 2.204-2.724 4.648-2.724 2.023 0 3.546 1.222 4.187 2.965h.06c.46-.82 1.042-1.46 1.643-1.922.88-.68 1.863-1.042 3.265-1.042 1.963 0 4.868 1.282 4.868 6.43v8.716H93.46v-8.394c0-2.845-1.043-4.568-3.206-4.568-1.523 0-2.725 1.142-3.185 2.444-.12.36-.22.86-.22 1.342v9.155h-2.625v-8.854c0-2.364-1.042-4.067-3.085-4.067-1.683 0-2.905 1.34-3.346 2.683-.16.4-.22.86-.22 1.322v8.935H74.95l-.002-10.796zM103.476 40.47c.04.922-.64 1.643-1.723 1.643-.942 0-1.623-.74-1.623-1.643 0-.942.7-1.683 1.683-1.683 1.022 0 1.663.74 1.663 1.683zm-3.005 18.972V44.637h2.685v14.805h-2.684zM110.888 40.37v4.247h3.846v2.043h-3.846v7.993c0 1.843.52 2.885 2.023 2.885.702 0 1.223-.1 1.564-.18l.12 2.023c-.52.22-1.342.362-2.384.362-1.262 0-2.264-.4-2.905-1.142-.76-.8-1.042-2.104-1.042-3.846V46.68h-2.304v-2.043h2.303V41.07l2.625-.7zM119.022 44.637l3.245 8.755c.34.982.7 2.144.942 3.025h.06c.28-.88.58-2.023.94-3.085l2.946-8.694H130l-4.047 10.558c-1.923 5.088-3.245 7.673-5.088 9.275-1.322 1.163-2.624 1.624-3.306 1.744l-.682-2.264c.68-.22 1.563-.64 2.364-1.322.74-.58 1.643-1.623 2.264-3.005.12-.28.22-.48.22-.64s-.06-.362-.18-.702l-5.47-13.642h2.946z" fill="#26303F"/><g enable-background="new" fill="#26303F"><path d="M15.893 62.07H14.52v-.495h3.342v.495h-1.38v4.02h-.59v-4.02zM18.947 61.575v1.89h2.183v-1.89h.59v4.514h-.59v-2.117h-2.183v2.116h-.582v-4.515h.582zM25.07 63.972h-1.755V65.6h1.956v.49h-2.537v-4.515h2.437v.49h-1.855v1.426h1.755v.482zM29.787 63.972h-1.755V65.6h1.956v.49H27.45v-4.515h2.437v.49h-1.855v1.426h1.755v.482zM31.797 66.09l-1.474-4.515h.63l.703 2.224c.194.608.362 1.157.482 1.686h.014c.127-.522.314-1.09.515-1.68l.763-2.23h.623l-1.614 4.513h-.643zM36.88 63.972h-1.754V65.6h1.956v.49h-2.538v-4.515h2.438v.49h-1.855v1.426h1.755v.482zM37.84 61.635c.295-.06.717-.094 1.118-.094.623 0 1.025.115 1.306.37.228.2.355.508.355.856 0 .596-.376.99-.852 1.152v.02c.348.12.556.442.663.91.148.63.256 1.064.35 1.24h-.604c-.074-.13-.174-.516-.302-1.08-.134-.623-.375-.857-.904-.877h-.55v1.956h-.58v-4.45zm.583 2.056h.596c.622 0 1.017-.34 1.017-.856 0-.583-.422-.838-1.038-.844-.282 0-.483.027-.577.053v1.648zM42.376 66.09v-1.916l-1.426-2.598h.663l.636 1.246c.173.34.307.615.448.93h.013c.13-.294.283-.59.457-.93l.65-1.246h.663l-1.514 2.592v1.922h-.59zM45.926 66.09l-1.145-4.515h.617l.536 2.284c.134.56.255 1.124.335 1.56h.013c.075-.45.215-.986.37-1.568l.602-2.277h.61l.548 2.29c.127.536.248 1.072.315 1.547h.013c.094-.495.22-.998.36-1.56l.597-2.277h.596l-1.278 4.514h-.61l-.568-2.35c-.14-.577-.235-1.02-.295-1.475h-.014c-.08.448-.18.89-.348 1.474l-.643 2.35h-.61zM51.44 61.575v1.89h2.183v-1.89h.59v4.514h-.59v-2.117H51.44v2.116h-.583v-4.515h.583zM57.563 63.972h-1.755V65.6h1.956v.49h-2.538v-4.515h2.437v.49h-1.855v1.426h1.755v.482zM58.522 61.635c.295-.06.717-.094 1.118-.094.623 0 1.025.115 1.306.37.228.2.355.508.355.856 0 .596-.374.99-.85 1.152v.02c.348.12.556.442.663.91.147.63.255 1.064.348 1.24h-.602c-.074-.13-.174-.516-.302-1.08-.134-.623-.375-.857-.904-.877h-.55v1.956h-.582v-4.45zm.583 2.056h.596c.624 0 1.02-.34 1.02-.856 0-.583-.423-.838-1.04-.844-.28 0-.48.027-.575.053v1.648zM64.463 63.972h-1.755V65.6h1.956v.49h-2.538v-4.515h2.438v.49H62.71v1.426h1.754v.482zM67.573 64.67l-.47 1.42h-.602l1.535-4.515h.703l1.54 4.514h-.623l-.482-1.42h-1.6zm1.48-.457l-.442-1.3c-.1-.293-.167-.56-.234-.823h-.013c-.067.268-.14.543-.228.817l-.442 1.305h1.36zM70.943 61.628c.28-.047.65-.087 1.118-.087.577 0 1 .135 1.266.376.248.214.395.542.395.944 0 .408-.12.73-.347.964-.308.328-.81.496-1.38.496-.174 0-.335-.007-.468-.04v1.807h-.583v-4.46zm.583 2.177c.127.034.288.047.482.047.703 0 1.132-.342 1.132-.964 0-.596-.422-.884-1.064-.884-.255 0-.45.02-.55.047v1.755zM74.508 61.628c.28-.047.65-.087 1.118-.087.576 0 .997.135 1.265.376.25.214.396.542.396.944 0 .408-.12.73-.348.964-.308.328-.81.496-1.38.496-.174 0-.335-.007-.468-.04v1.807h-.583v-4.46zm.582 2.177c.127.034.288.047.482.047.703 0 1.132-.342 1.132-.964 0-.596-.422-.884-1.064-.884-.255 0-.45.02-.55.047v1.755z"/></g></g></g></svg>