<svg xmlns="http://www.w3.org/2000/svg" viewBox="0 0 140 105" enable-background="new 0 0 140 105"><path d="M105.817 46.728c-.73-2.228-1.586-3.67-3.074-5.184-2.582-2.626-6.936-3.55-11.302-2.397-.464.122-5.027 2.24-10.14 4.704-5.113 2.466-9.683 4.653-10.155 4.862l-.857.38-6.42-3.55c-3.532-1.954-6.444-3.53-6.472-3.5-.027.026-1.31 6.028-2.852 13.335-1.54 7.31-2.824 13.316-2.85 13.352-.028.034-.092.02-.143-.03-.082-.083-5.743-32.982-5.744-33.388 0-.09 3.036-1.655 6.748-3.48l6.75-3.315 6.224 3.454 6.225 3.455 4.482-1.992c3.077-1.368 4.417-2.034 4.274-2.125-.115-.074-2.833-1.594-6.04-3.38-3.208-1.784-5.853-3.305-5.877-3.38-.045-.138 5.428-3.18 5.727-3.182.09 0 3.513 1.833 7.606 4.075 4.093 2.243 7.663 4.19 7.933 4.33l.49.25 4.616-2.183c2.538-1.202 4.56-2.24 4.49-2.31-.124-.123-28.072-15.462-28.29-15.527-.06-.018-8.622 4.15-19.026 9.264L33.225 28.56l-.095 1.076c-.052.59-.074 10.846-.05 22.79l.047 21.712 4.61 2.524c2.536 1.39 4.662 2.525 4.727 2.526.064.002.07-6.74.013-14.98-.065-9.287-.05-14.98.04-14.98.08 0 1.35 7.522 2.825 16.718l2.682 16.718 3.51 1.97c1.932 1.085 3.563 1.91 3.626 1.837.064-.073 1.28-6.115 2.702-13.425 1.422-7.31 2.618-13.378 2.656-13.484.038-.104.13-.19.206-.19.08 0 .153 6.516.176 15.298l.04 15.3 4.762 2.508c2.62 1.38 4.81 2.516 4.868 2.525.058.01 4.898-2.34 10.756-5.224 5.858-2.884 11.412-5.604 12.342-6.045 2.058-.977 3.746-2.216 5.38-3.947 3.223-3.413 5.484-8.044 6.743-13.806 1.508-6.893 1.52-14.698.027-19.25zM95.405 61.893c-.28 5.263-1.578 9.143-3.867 11.553L90.442 74.6l-3.236 1.43c-1.78.788-3.38 1.478-3.554 1.533-.314.1-.32.056-.412-4.014-.052-2.265-.138-7.54-.19-11.724l-.098-7.607 2.362-1.144c3.88-1.877 4.206-1.996 5.502-2 1.81-.008 2.756.592 3.618 2.294.845 1.665 1.18 4.602.97 8.523z" fill="#500"/></svg>