<?xml version="1.0" encoding="utf-8"?>
<!-- Generator: Adobe Illustrator 18.1.0, SVG Export Plug-In . SVG Version: 6.00 Build 0)  -->
<svg version="1.1" id="Layer_1" xmlns="http://www.w3.org/2000/svg" xmlns:xlink="http://www.w3.org/1999/xlink" x="0px" y="0px"
	 viewBox="0 0 32 32" enable-background="new 0 0 32 32" xml:space="preserve">
<g>
	<path fill-rule="evenodd" clip-rule="evenodd" fill="#D84135" d="M31.9,23c0,0.5-0.2,0.8-0.4,1.2l-10.6-8.1l11-8.4c0,0.3,0,0.7,0,1
		c0,0.3,0,0.5,0.1,0.7V23z M14.3,16.6L0.4,5.9C0.7,5.5,1.2,5.2,2,5.1h27.9c0.8,0.1,1.3,0.4,1.6,0.9L17.6,16.6
		C16.7,17.2,15.2,17.2,14.3,16.6z M0.5,24.2c-0.2-0.3-0.4-0.7-0.4-1.1V7.6l11,8.4L0.5,24.2z M14.3,18.5c0.9,0.7,2.4,0.7,3.3,0
		l1.9-1.5l10.3,7.9H2.1l10.3-7.9L14.3,18.5z"/>
</g>
</svg>
