<?xml version="1.0" encoding="utf-8"?>
<!-- Generator: Adobe Illustrator 18.1.1, SVG Export Plug-In . SVG Version: 6.00 Build 0)  -->
<!DOCTYPE svg PUBLIC "-//W3C//DTD SVG 1.1//EN" "http://www.w3.org/Graphics/SVG/1.1/DTD/svg11.dtd">
<svg version="1.1" id="Layer_1" xmlns="http://www.w3.org/2000/svg" xmlns:xlink="http://www.w3.org/1999/xlink" x="0px" y="0px"
	 viewBox="0 0 140 105" enable-background="new 0 0 140 105" xml:space="preserve">
<g>
	<rect x="17.5" fill="none" width="105" height="105"/>
	<g>
		<path fill="#D84135" d="M113.2,74.3c0,1.4-0.5,2.2-1.1,3.3L83.2,55.5l30-22.9c0,0.8,0,1.9,0,2.7c0,0.8,0,1.4,0.3,1.9v37.1H113.2z
			 M65.2,56.9L27.3,27.7c0.8-1.1,2.2-1.9,4.4-2.2h76.1c2.2,0.3,3.5,1.1,4.4,2.5L74.2,56.9C71.8,58.5,67.7,58.5,65.2,56.9z
			 M27.6,77.6c-0.5-0.8-1.1-1.9-1.1-3V32.3l30,22.9L27.6,77.6z M65.2,62c2.5,1.9,6.5,1.9,9,0l5.2-4.1l28.1,21.5H32L60,58L65.2,62z"
			/>
	</g>
</g>
</svg>
