<?xml version="1.0" encoding="utf-8"?>
<!-- Generator: Adobe Illustrator 18.1.0, SVG Export Plug-In . SVG Version: 6.00 Build 0)  -->
<svg version="1.1" id="Layer_1" xmlns="http://www.w3.org/2000/svg" xmlns:xlink="http://www.w3.org/1999/xlink" x="0px" y="0px"
	 viewBox="0 0 36 32" enable-background="new 0 0 36 32" xml:space="preserve">
<g>
	<path fill-rule="evenodd" clip-rule="evenodd" fill="#D84135" d="M36,24.1c0,0.5-0.2,1-0.5,1.3l-12-9.2l12.5-9.5c0,0.4,0,0.7,0,1.1
		c0,0.4,0,0.6,0.1,0.8V24.1z M16.1,16.8L0.4,4.7c0.3-0.5,0.9-0.8,1.7-1h31.6c0.9,0.1,1.5,0.5,1.8,1l-15.7,12
		C18.8,17.5,17.1,17.5,16.1,16.8z M0.5,25.4C0.2,25,0,24.6,0,24.1V6.7l12.4,9.5L0.5,25.4z M16.1,19c1,0.8,2.7,0.8,3.7,0l2.2-1.7
		l11.7,8.9H2.2l11.7-8.9L16.1,19z"/>
</g>
</svg>
