<?xml version="1.0" encoding="utf-8"?>
<!-- Generator: Adobe Illustrator 18.1.0, SVG Export Plug-In . SVG Version: 6.00 Build 0)  -->
<svg version="1.1" id="Layer_1" xmlns="http://www.w3.org/2000/svg" xmlns:xlink="http://www.w3.org/1999/xlink" x="0px" y="0px"
	 viewBox="0 0 32 32" enable-background="new 0 0 32 32" xml:space="preserve">
<path fill="#D84135" d="M6.2,11.9c0,6,9.9,20.1,9.9,20.1l0,0c0,0,10.1-13.9,10.1-20.1l0,0C26.2,0.1,16.1,0,16.1,0l0,0
	C16.1,0,6.2,0.1,6.2,11.9 M12.2,10c0-2.2,1.8-4,4-4l0,0c2.2,0,4,1.8,4,4l0,0c0,2.2-1.8,4-4,4l0,0C14,14,12.2,12.2,12.2,10L12.2,10z"
	/>
</svg>
