<?xml version="1.0" encoding="utf-8"?>
<!-- Generator: Adobe Illustrator 18.1.0, SVG Export Plug-In . SVG Version: 6.00 Build 0)  -->
<svg version="1.1" id="Layer_1" xmlns="http://www.w3.org/2000/svg" xmlns:xlink="http://www.w3.org/1999/xlink" x="0px" y="0px"
	 viewBox="0 0 32 32" enable-background="new 0 0 32 32" xml:space="preserve">
<g display="none">
	<rect display="inline" fill="none" width="32" height="32"/>
	<path display="inline" fill="#D84135" d="M19.8,15.8h-2.4v8.8h-3.6v-8.8h-1.8v-3h1.8V11c0-2.5,1-3.9,3.9-3.9h2.4v3h-1.5
		c-1.1,0-1.2,0.4-1.2,1.2l0,1.5h2.8L19.8,15.8z"/>
</g>
<g>
	<rect x="0" fill="none" width="32" height="32"/>
	<path fill="#D84135" d="M23.9,12.7c0,0.2,0,0.4,0,0.5c0,5.4-4.1,11.6-11.6,11.6c-2.3,0-4.4-0.7-6.2-1.8C6.4,23,6.7,23,7,23
		c1.9,0,3.7-0.7,5.1-1.7c-1.8,0-3.3-1.2-3.8-2.8c0.2,0,0.5,0.1,0.8,0.1c0.4,0,0.7,0,1.1-0.1c-1.9-0.4-3.3-2-3.3-4c0,0,0,0,0-0.1
		c0.5,0.3,1.2,0.5,1.8,0.5c-1.1-0.7-1.8-2-1.8-3.4c0-0.7,0.2-1.4,0.6-2c2,2.5,5,4.1,8.4,4.3c-0.1-0.3-0.1-0.6-0.1-0.9
		c0-2.2,1.8-4.1,4.1-4.1c1.2,0,2.2,0.5,3,1.3c0.9-0.2,1.8-0.5,2.6-1c-0.3,1-1,1.7-1.8,2.3c0.8-0.1,1.6-0.3,2.3-0.6
		C25.4,11.4,24.7,12.1,23.9,12.7z"/>
</g>
</svg>
